<?xml version="1.0" encoding="utf-8" standalone="no"?>
<!DOCTYPE svg PUBLIC "-//W3C//DTD SVG 1.1//EN"
  "http://www.w3.org/Graphics/SVG/1.1/DTD/svg11.dtd">
<svg xmlns:xlink="http://www.w3.org/1999/xlink" width="834.803125pt" height="185.529791pt" viewBox="0 0 834.803125 185.529791" xmlns="http://www.w3.org/2000/svg" version="1.1">
 <metadata>
  <rdf:RDF xmlns:dc="http://purl.org/dc/elements/1.1/" xmlns:cc="http://creativecommons.org/ns#" xmlns:rdf="http://www.w3.org/1999/02/22-rdf-syntax-ns#">
   <cc:Work>
    <dc:type rdf:resource="http://purl.org/dc/dcmitype/StillImage"/>
    <dc:date>2024-12-25T17:32:58.004915</dc:date>
    <dc:format>image/svg+xml</dc:format>
    <dc:creator>
     <cc:Agent>
      <dc:title>Matplotlib v3.9.3, https://matplotlib.org/</dc:title>
     </cc:Agent>
    </dc:creator>
   </cc:Work>
  </rdf:RDF>
 </metadata>
 <defs>
  <style type="text/css">*{stroke-linejoin: round; stroke-linecap: butt}</style>
 </defs>
 <g id="figure_1">
  <g id="patch_1">
   <path d="M 0 185.529791 
L 834.803125 185.529791 
L 834.803125 0 
L 0 0 
z
" style="fill: #ffffff"/>
  </g>
  <g id="axes_1">
   <g id="patch_2">
    <path d="M 46.403125 163.204791 
L 276.167831 163.204791 
L 276.167831 7.972791 
L 46.403125 7.972791 
z
" style="fill: #ffffff"/>
   </g>
   <g id="matplotlib.axis_1">
    <g id="xtick_1">
     <g id="line2d_1">
      <defs>
       <path id="mfe0357acb2" d="M 0 0 
L 0 3.5 
" style="stroke: #000000; stroke-width: 0.8"/>
      </defs>
      <g>
       <use xlink:href="#mfe0357acb2" x="102.672033" y="163.204791" style="stroke: #000000; stroke-width: 0.8"/>
      </g>
     </g>
     <g id="text_1">
      <!-- 2023-09-20 -->
      <g transform="translate(77.672033 177.079791) scale(0.1 -0.1)">
       <defs>
        <path id="SimHei-32" d="M 300 250 
Q 325 625 650 925 
Q 975 1225 1475 1862 
Q 1975 2500 2125 2850 
Q 2275 3200 2237 3450 
Q 2200 3700 2000 3862 
Q 1800 4025 1537 4000 
Q 1275 3975 1037 3800 
Q 800 3625 675 3275 
L 200 3350 
Q 400 3925 712 4187 
Q 1025 4450 1450 4475 
Q 1700 4500 1900 4462 
Q 2100 4425 2312 4287 
Q 2525 4150 2662 3875 
Q 2800 3600 2762 3212 
Q 2725 2825 2375 2287 
Q 2025 1750 1025 600 
L 2825 600 
L 2825 150 
L 300 150 
L 300 250 
z
" transform="scale(0.015625)"/>
        <path id="SimHei-30" d="M 225 2537 
Q 250 3200 412 3587 
Q 575 3975 875 4225 
Q 1175 4475 1612 4475 
Q 2050 4475 2375 4112 
Q 2700 3750 2800 3200 
Q 2900 2650 2862 1937 
Q 2825 1225 2612 775 
Q 2400 325 1975 150 
Q 1550 -25 1125 187 
Q 700 400 525 750 
Q 350 1100 275 1487 
Q 200 1875 225 2537 
z
M 750 2687 
Q 675 2000 800 1462 
Q 925 925 1212 700 
Q 1500 475 1800 612 
Q 2100 750 2237 1162 
Q 2375 1575 2375 2062 
Q 2375 2550 2337 2950 
Q 2300 3350 2112 3675 
Q 1925 4000 1612 4012 
Q 1300 4025 1062 3700 
Q 825 3375 750 2687 
z
" transform="scale(0.015625)"/>
        <path id="SimHei-33" d="M 250 1225 
L 700 1300 
Q 800 975 1025 762 
Q 1250 550 1587 562 
Q 1925 575 2125 837 
Q 2325 1100 2300 1437 
Q 2275 1775 2037 1962 
Q 1800 2150 1275 2225 
L 1275 2550 
Q 1800 2600 2037 2825 
Q 2275 3050 2250 3412 
Q 2225 3775 1925 3937 
Q 1625 4100 1287 3975 
Q 950 3850 750 3275 
L 300 3350 
Q 450 3800 712 4100 
Q 975 4400 1425 4450 
Q 1875 4500 2212 4337 
Q 2550 4175 2687 3837 
Q 2825 3500 2725 3100 
Q 2625 2700 2150 2400 
Q 2500 2250 2687 1950 
Q 2875 1650 2812 1162 
Q 2750 675 2375 375 
Q 2000 75 1525 87 
Q 1050 100 700 387 
Q 350 675 250 1225 
z
" transform="scale(0.015625)"/>
        <path id="SimHei-2d" d="M 2975 2125 
L 125 2125 
L 125 2525 
L 2975 2525 
L 2975 2125 
z
" transform="scale(0.015625)"/>
        <path id="SimHei-39" d="M 800 75 
Q 1350 1000 1700 1750 
Q 1075 1650 662 1912 
Q 250 2175 162 2625 
Q 75 3075 175 3437 
Q 275 3800 487 4037 
Q 700 4275 1000 4375 
Q 1300 4475 1537 4475 
Q 1775 4475 2025 4375 
Q 2275 4275 2475 4075 
Q 2675 3875 2750 3662 
Q 2825 3450 2825 3112 
Q 2825 2775 2575 2250 
Q 2325 1725 1350 75 
L 800 75 
z
M 662 2875 
Q 700 2550 937 2337 
Q 1175 2125 1450 2150 
Q 1725 2175 1887 2300 
Q 2050 2425 2200 2725 
Q 2300 3100 2250 3362 
Q 2200 3625 1987 3800 
Q 1775 3975 1525 3975 
Q 1375 4000 1137 3900 
Q 900 3800 762 3500 
Q 625 3200 662 2875 
z
" transform="scale(0.015625)"/>
       </defs>
       <use xlink:href="#SimHei-32"/>
       <use xlink:href="#SimHei-30" x="50"/>
       <use xlink:href="#SimHei-32" x="100"/>
       <use xlink:href="#SimHei-33" x="150"/>
       <use xlink:href="#SimHei-2d" x="200"/>
       <use xlink:href="#SimHei-30" x="250"/>
       <use xlink:href="#SimHei-39" x="300"/>
       <use xlink:href="#SimHei-2d" x="350"/>
       <use xlink:href="#SimHei-32" x="400"/>
       <use xlink:href="#SimHei-30" x="450"/>
      </g>
     </g>
    </g>
    <g id="xtick_2">
     <g id="line2d_2">
      <g>
       <use xlink:href="#mfe0357acb2" x="166.613973" y="163.204791" style="stroke: #000000; stroke-width: 0.8"/>
      </g>
     </g>
     <g id="text_2">
      <!-- 2023-11-19 -->
      <g transform="translate(141.613973 177.079791) scale(0.1 -0.1)">
       <defs>
        <path id="SimHei-31" d="M 1400 3600 
Q 1075 3275 575 2975 
L 575 3450 
Q 1200 3875 1600 4450 
L 1900 4450 
L 1900 150 
L 1400 150 
L 1400 3600 
z
" transform="scale(0.015625)"/>
       </defs>
       <use xlink:href="#SimHei-32"/>
       <use xlink:href="#SimHei-30" x="50"/>
       <use xlink:href="#SimHei-32" x="100"/>
       <use xlink:href="#SimHei-33" x="150"/>
       <use xlink:href="#SimHei-2d" x="200"/>
       <use xlink:href="#SimHei-31" x="250"/>
       <use xlink:href="#SimHei-31" x="300"/>
       <use xlink:href="#SimHei-2d" x="350"/>
       <use xlink:href="#SimHei-31" x="400"/>
       <use xlink:href="#SimHei-39" x="450"/>
      </g>
     </g>
    </g>
    <g id="xtick_3">
     <g id="line2d_3">
      <g>
       <use xlink:href="#mfe0357acb2" x="230.555913" y="163.204791" style="stroke: #000000; stroke-width: 0.8"/>
      </g>
     </g>
     <g id="text_3">
      <!-- 2024-01-18 -->
      <g transform="translate(205.555913 177.079791) scale(0.1 -0.1)">
       <defs>
        <path id="SimHei-34" d="M 2000 1100 
L 75 1100 
L 75 1525 
L 2100 4450 
L 2475 4450 
L 2475 1525 
L 3075 1525 
L 3075 1100 
L 2475 1100 
L 2475 150 
L 2000 150 
L 2000 1100 
z
M 2000 1525 
L 2000 3500 
L 600 1525 
L 2000 1525 
z
" transform="scale(0.015625)"/>
        <path id="SimHei-38" d="M 175 1375 
Q 175 1675 325 1962 
Q 475 2250 825 2425 
Q 525 2600 425 2812 
Q 325 3025 312 3300 
Q 300 3575 387 3775 
Q 475 3975 650 4150 
Q 825 4325 1037 4387 
Q 1250 4450 1500 4450 
Q 1750 4450 1950 4400 
Q 2150 4350 2375 4187 
Q 2600 4025 2700 3725 
Q 2800 3425 2687 3025 
Q 2575 2625 2100 2400 
Q 2525 2275 2700 2012 
Q 2875 1750 2875 1375 
Q 2875 1000 2762 775 
Q 2650 550 2512 400 
Q 2375 250 2137 162 
Q 1900 75 1537 75 
Q 1175 75 912 162 
Q 650 250 475 425 
Q 300 600 237 837 
Q 175 1075 175 1375 
z
M 687 1400 
Q 675 1100 787 875 
Q 900 650 1200 587 
Q 1500 525 1825 600 
Q 2150 675 2275 950 
Q 2400 1225 2362 1500 
Q 2325 1775 2050 1962 
Q 1775 2150 1450 2125 
Q 1125 2100 912 1900 
Q 700 1700 687 1400 
z
M 775 3350 
Q 775 3100 950 2875 
Q 1125 2650 1500 2650 
Q 1875 2650 2062 2875 
Q 2250 3100 2237 3412 
Q 2225 3725 2012 3875 
Q 1800 4025 1437 4000 
Q 1075 3975 925 3787 
Q 775 3600 775 3350 
z
" transform="scale(0.015625)"/>
       </defs>
       <use xlink:href="#SimHei-32"/>
       <use xlink:href="#SimHei-30" x="50"/>
       <use xlink:href="#SimHei-32" x="100"/>
       <use xlink:href="#SimHei-34" x="150"/>
       <use xlink:href="#SimHei-2d" x="200"/>
       <use xlink:href="#SimHei-30" x="250"/>
       <use xlink:href="#SimHei-31" x="300"/>
       <use xlink:href="#SimHei-2d" x="350"/>
       <use xlink:href="#SimHei-31" x="400"/>
       <use xlink:href="#SimHei-38" x="450"/>
      </g>
     </g>
    </g>
   </g>
   <g id="matplotlib.axis_2">
    <g id="ytick_1">
     <g id="line2d_4">
      <defs>
       <path id="m25f262f4a0" d="M 0 0 
L -3.5 0 
" style="stroke: #000000; stroke-width: 0.8"/>
      </defs>
      <g>
       <use xlink:href="#m25f262f4a0" x="46.403125" y="144.277292" style="stroke: #000000; stroke-width: 0.8"/>
      </g>
     </g>
     <g id="text_4">
      <!-- 0.92 -->
      <g transform="translate(19.403125 147.714792) scale(0.1 -0.1)">
       <defs>
        <path id="SimHei-2e" d="M 1075 125 
L 500 125 
L 500 675 
L 1075 675 
L 1075 125 
z
" transform="scale(0.015625)"/>
       </defs>
       <use xlink:href="#SimHei-30"/>
       <use xlink:href="#SimHei-2e" x="50"/>
       <use xlink:href="#SimHei-39" x="100"/>
       <use xlink:href="#SimHei-32" x="150"/>
      </g>
     </g>
    </g>
    <g id="ytick_2">
     <g id="line2d_5">
      <g>
       <use xlink:href="#m25f262f4a0" x="46.403125" y="117.549333" style="stroke: #000000; stroke-width: 0.8"/>
      </g>
     </g>
     <g id="text_5">
      <!-- 0.94 -->
      <g transform="translate(19.403125 120.986833) scale(0.1 -0.1)">
       <use xlink:href="#SimHei-30"/>
       <use xlink:href="#SimHei-2e" x="50"/>
       <use xlink:href="#SimHei-39" x="100"/>
       <use xlink:href="#SimHei-34" x="150"/>
      </g>
     </g>
    </g>
    <g id="ytick_3">
     <g id="line2d_6">
      <g>
       <use xlink:href="#m25f262f4a0" x="46.403125" y="90.821375" style="stroke: #000000; stroke-width: 0.8"/>
      </g>
     </g>
     <g id="text_6">
      <!-- 0.96 -->
      <g transform="translate(19.403125 94.258875) scale(0.1 -0.1)">
       <defs>
        <path id="SimHei-36" d="M 250 1612 
Q 275 1975 387 2225 
Q 500 2475 725 2850 
L 1750 4450 
L 2325 4450 
L 1275 2800 
Q 1950 2975 2350 2750 
Q 2750 2525 2887 2237 
Q 3025 1950 3037 1612 
Q 3050 1275 2937 950 
Q 2825 625 2537 362 
Q 2250 100 1737 75 
Q 1225 50 862 262 
Q 500 475 362 862 
Q 225 1250 250 1612 
z
M 1025 787 
Q 1250 550 1625 525 
Q 2000 500 2250 775 
Q 2500 1050 2500 1575 
Q 2500 2100 2187 2300 
Q 1875 2500 1487 2450 
Q 1100 2400 925 2075 
Q 750 1750 775 1387 
Q 800 1025 1025 787 
z
" transform="scale(0.015625)"/>
       </defs>
       <use xlink:href="#SimHei-30"/>
       <use xlink:href="#SimHei-2e" x="50"/>
       <use xlink:href="#SimHei-39" x="100"/>
       <use xlink:href="#SimHei-36" x="150"/>
      </g>
     </g>
    </g>
    <g id="ytick_4">
     <g id="line2d_7">
      <g>
       <use xlink:href="#m25f262f4a0" x="46.403125" y="64.093417" style="stroke: #000000; stroke-width: 0.8"/>
      </g>
     </g>
     <g id="text_7">
      <!-- 0.98 -->
      <g transform="translate(19.403125 67.530917) scale(0.1 -0.1)">
       <use xlink:href="#SimHei-30"/>
       <use xlink:href="#SimHei-2e" x="50"/>
       <use xlink:href="#SimHei-39" x="100"/>
       <use xlink:href="#SimHei-38" x="150"/>
      </g>
     </g>
    </g>
    <g id="ytick_5">
     <g id="line2d_8">
      <g>
       <use xlink:href="#m25f262f4a0" x="46.403125" y="37.365458" style="stroke: #000000; stroke-width: 0.8"/>
      </g>
     </g>
     <g id="text_8">
      <!-- 1.00 -->
      <g transform="translate(19.403125 40.802958) scale(0.1 -0.1)">
       <use xlink:href="#SimHei-31"/>
       <use xlink:href="#SimHei-2e" x="50"/>
       <use xlink:href="#SimHei-30" x="100"/>
       <use xlink:href="#SimHei-30" x="150"/>
      </g>
     </g>
    </g>
    <g id="ytick_6">
     <g id="line2d_9">
      <g>
       <use xlink:href="#m25f262f4a0" x="46.403125" y="10.6375" style="stroke: #000000; stroke-width: 0.8"/>
      </g>
     </g>
     <g id="text_9">
      <!-- 1.02 -->
      <g transform="translate(19.403125 14.075) scale(0.1 -0.1)">
       <use xlink:href="#SimHei-31"/>
       <use xlink:href="#SimHei-2e" x="50"/>
       <use xlink:href="#SimHei-30" x="100"/>
       <use xlink:href="#SimHei-32" x="150"/>
      </g>
     </g>
    </g>
    <g id="text_10">
     <!-- CVaR-Sharpe -->
     <g transform="translate(14.153125 113.088791) rotate(-90) scale(0.1 -0.1)">
      <defs>
       <path id="SimHei-43" d="M 2975 1825 
Q 2950 875 2575 475 
Q 2200 75 1675 75 
Q 1075 75 650 562 
Q 225 1050 225 2125 
Q 225 3300 637 3875 
Q 1050 4450 1700 4450 
Q 2250 4450 2612 4037 
Q 2975 3625 2950 2875 
L 2400 2875 
Q 2400 3425 2225 3700 
Q 2050 3975 1700 3975 
Q 1300 3975 1062 3562 
Q 825 3150 825 2175 
Q 825 1275 1062 912 
Q 1300 550 1675 550 
Q 1950 550 2175 812 
Q 2400 1075 2400 1825 
L 2975 1825 
z
" transform="scale(0.015625)"/>
       <path id="SimHei-56" d="M 3050 4400 
L 1800 75 
L 1300 75 
L 50 4400 
L 650 4400 
L 1525 1125 
L 1575 1125 
L 2450 4400 
L 3050 4400 
z
" transform="scale(0.015625)"/>
       <path id="SimHei-61" d="M 2875 125 
L 2275 125 
Q 2225 175 2200 262 
Q 2175 350 2175 475 
Q 2000 275 1750 175 
Q 1500 75 1225 75 
Q 825 75 550 275 
Q 275 475 275 850 
Q 275 1225 525 1450 
Q 775 1675 1300 1750 
Q 1650 1800 1912 1875 
Q 2175 1950 2175 2075 
Q 2175 2225 2062 2375 
Q 1950 2525 1575 2525 
Q 1275 2525 1137 2412 
Q 1000 2300 950 2100 
L 400 2100 
Q 450 2500 762 2737 
Q 1075 2975 1575 2975 
Q 2125 2975 2400 2725 
Q 2675 2475 2675 2025 
L 2675 650 
Q 2675 500 2725 375 
Q 2775 250 2875 125 
z
M 2175 1050 
L 2175 1550 
Q 2025 1500 1887 1462 
Q 1750 1425 1425 1375 
Q 1050 1325 937 1200 
Q 825 1075 825 900 
Q 825 750 937 637 
Q 1050 525 1275 525 
Q 1500 525 1762 650 
Q 2025 775 2175 1050 
z
" transform="scale(0.015625)"/>
       <path id="SimHei-52" d="M 3000 125 
L 2400 125 
L 1500 1975 
L 850 1975 
L 850 125 
L 275 125 
L 275 4400 
L 1525 4400 
Q 2125 4400 2500 4112 
Q 2875 3825 2875 3175 
Q 2875 2675 2625 2400 
Q 2375 2125 2050 2050 
L 3000 125 
z
M 2300 3175 
Q 2300 3525 2087 3725 
Q 1875 3925 1400 3925 
L 850 3925 
L 850 2450 
L 1550 2450 
Q 1850 2450 2075 2612 
Q 2300 2775 2300 3175 
z
" transform="scale(0.015625)"/>
       <path id="SimHei-53" d="M 2900 1325 
Q 2900 750 2537 412 
Q 2175 75 1550 75 
Q 925 75 575 425 
Q 225 775 225 1300 
L 225 1475 
L 800 1475 
L 800 1325 
Q 800 950 1025 750 
Q 1250 550 1550 550 
Q 1950 550 2137 762 
Q 2325 975 2325 1275 
Q 2325 1525 2100 1737 
Q 1875 1950 1450 2125 
Q 850 2350 587 2625 
Q 325 2900 325 3275 
Q 325 3800 687 4125 
Q 1050 4450 1550 4450 
Q 2200 4450 2487 4062 
Q 2775 3675 2775 3225 
L 2200 3225 
Q 2225 3500 2050 3725 
Q 1875 3950 1550 3950 
Q 1250 3950 1075 3787 
Q 900 3625 900 3350 
Q 900 3125 1037 2962 
Q 1175 2800 1750 2575 
Q 2300 2350 2600 2037 
Q 2900 1725 2900 1325 
z
" transform="scale(0.015625)"/>
       <path id="SimHei-68" d="M 2800 125 
L 2300 125 
L 2300 1925 
Q 2300 2225 2150 2400 
Q 2000 2575 1750 2575 
Q 1425 2575 1137 2237 
Q 850 1900 850 1400 
L 850 125 
L 350 125 
L 350 4400 
L 850 4400 
L 850 2400 
Q 1050 2675 1287 2825 
Q 1525 2975 1900 2975 
Q 2350 2975 2575 2725 
Q 2800 2475 2800 2100 
L 2800 125 
z
" transform="scale(0.015625)"/>
       <path id="SimHei-72" d="M 2500 2425 
Q 2025 2500 1700 2287 
Q 1375 2075 1150 1550 
L 1150 125 
L 650 125 
L 650 2925 
L 1150 2925 
L 1150 2200 
Q 1375 2600 1712 2787 
Q 2050 2975 2500 2975 
L 2500 2425 
z
" transform="scale(0.015625)"/>
       <path id="SimHei-70" d="M 2825 1525 
Q 2825 800 2475 425 
Q 2125 50 1625 50 
Q 1350 50 1150 162 
Q 950 275 800 500 
L 800 -800 
L 300 -800 
L 300 2925 
L 800 2925 
L 800 2550 
Q 950 2775 1150 2875 
Q 1350 2975 1625 2975 
Q 2125 2975 2475 2612 
Q 2825 2250 2825 1525 
z
M 2275 1525 
Q 2275 2000 2087 2262 
Q 1900 2525 1525 2525 
Q 1225 2525 1012 2262 
Q 800 2000 800 1525 
Q 800 1050 1012 775 
Q 1225 500 1525 500 
Q 1900 500 2087 775 
Q 2275 1050 2275 1525 
z
" transform="scale(0.015625)"/>
       <path id="SimHei-65" d="M 2850 1075 
Q 2800 625 2450 350 
Q 2100 75 1625 75 
Q 1025 75 637 462 
Q 250 850 250 1525 
Q 250 2200 637 2587 
Q 1025 2975 1625 2975 
Q 2150 2975 2487 2637 
Q 2825 2300 2825 1525 
L 800 1525 
Q 800 975 1037 750 
Q 1275 525 1625 525 
Q 1900 525 2075 662 
Q 2250 800 2300 1075 
L 2850 1075 
z
M 2250 1925 
Q 2200 2275 2025 2412 
Q 1850 2550 1575 2550 
Q 1325 2550 1125 2412 
Q 925 2275 825 1925 
L 2250 1925 
z
" transform="scale(0.015625)"/>
      </defs>
      <use xlink:href="#SimHei-43"/>
      <use xlink:href="#SimHei-56" x="50"/>
      <use xlink:href="#SimHei-61" x="100"/>
      <use xlink:href="#SimHei-52" x="150"/>
      <use xlink:href="#SimHei-2d" x="200"/>
      <use xlink:href="#SimHei-53" x="250"/>
      <use xlink:href="#SimHei-68" x="300"/>
      <use xlink:href="#SimHei-61" x="350"/>
      <use xlink:href="#SimHei-72" x="400"/>
      <use xlink:href="#SimHei-70" x="450"/>
      <use xlink:href="#SimHei-65" x="500"/>
     </g>
    </g>
   </g>
   <g id="line2d_10">
    <path d="M 56.846975 40.706453 
L 57.912674 46.853888 
L 58.978373 47.464251 
L 60.044072 75.066361 
L 63.241169 84.108159 
L 64.306868 80.416849 
L 65.372567 88.067535 
L 66.438266 90.034972 
L 67.503965 94.609387 
L 70.701062 105.55721 
L 71.766761 92.028904 
L 72.83246 96.734857 
L 73.898159 88.655978 
L 74.963858 91.662812 
L 78.160955 75.265185 
L 79.226654 84.521296 
L 80.292353 81.011073 
L 82.423751 92.486949 
L 85.620848 56.930636 
L 86.686547 72.847742 
L 87.752246 76.104056 
L 88.817945 82.349043 
L 89.883644 95.809289 
L 93.080742 85.334605 
L 94.146441 88.801439 
L 95.21214 95.788082 
L 96.277839 77.790691 
L 97.343538 90.291679 
L 100.540635 73.880175 
L 101.606334 83.547748 
L 102.672033 79.719595 
L 103.737732 91.798231 
L 104.803431 70.996706 
L 108.000528 74.598156 
L 109.066227 75.273305 
L 110.131926 78.532619 
L 111.197625 95.941521 
L 122.920314 88.663364 
L 123.986013 97.538768 
L 125.051712 101.293801 
L 126.117411 80.027969 
L 127.18311 87.057898 
L 130.380207 97.486116 
L 131.445906 92.731618 
L 132.511605 98.456618 
L 133.577304 124.748873 
L 134.643003 137.452087 
L 137.8401 146.2967 
L 138.905799 151.411224 
L 139.971498 81.261899 
L 141.037197 81.521867 
L 142.102896 80.504445 
L 145.299993 98.69176 
L 146.365692 92.120332 
L 147.431391 78.361349 
L 148.49709 70.310832 
L 149.562789 75.145583 
L 152.759886 75.458295 
L 153.825585 70.877484 
L 154.891284 78.054042 
L 155.956983 75.107628 
L 157.022682 75.09093 
L 160.219779 88.78189 
L 161.285478 90.360087 
L 162.351177 66.373286 
L 163.416876 68.822311 
L 164.482575 63.947233 
L 167.679672 53.110129 
L 168.745371 53.014306 
L 169.81107 66.588096 
L 170.876769 47.961214 
L 171.942468 51.193861 
L 175.139565 50.50111 
L 176.205264 35.44281 
L 177.270963 50.458866 
L 178.336662 52.098339 
L 179.402361 120.602408 
L 182.599458 109.335192 
L 183.665157 117.843989 
L 184.730856 119.271618 
L 186.862254 127.203453 
L 190.059351 120.836609 
L 191.12505 111.617272 
L 192.190749 117.914525 
L 193.256448 136.75962 
L 194.322147 146.022976 
L 197.519244 145.618225 
L 198.584943 145.061671 
L 199.650642 151.887727 
L 200.716341 154.713855 
L 201.78204 154.256228 
L 204.979137 141.404482 
L 206.044836 142.935725 
L 207.110535 141.605522 
L 208.176234 152.713474 
L 209.241933 145.788563 
L 213.504729 130.991814 
L 214.570428 126.721922 
L 215.636127 124.634491 
L 219.898923 139.757313 
L 220.964622 139.229497 
L 222.030321 148.506578 
L 223.09602 150.466036 
L 224.161719 130.41741 
L 227.358816 127.327788 
L 228.424515 113.494537 
L 229.490214 129.654958 
L 231.621612 138.053078 
L 234.818709 156.148791 
L 235.884408 153.738678 
L 236.950107 115.511766 
L 238.015806 100.885173 
L 239.081505 92.001255 
L 242.278602 88.406521 
L 243.344301 97.752381 
L 244.41 94.376216 
L 245.475699 96.169601 
L 246.541398 95.368256 
L 250.804195 66.322797 
L 251.869894 66.290492 
L 252.935593 62.749188 
L 264.658282 40.380989 
L 265.723981 15.028791 
L 265.723981 15.028791 
" clip-path="url(#p1e3a5ba771)" style="fill: none; stroke: #1f77b4; stroke-width: 1.5; stroke-linecap: square"/>
   </g>
   <g id="patch_3">
    <path d="M 46.403125 163.204791 
L 46.403125 7.972791 
" style="fill: none; stroke: #000000; stroke-width: 0.8; stroke-linejoin: miter; stroke-linecap: square"/>
   </g>
   <g id="patch_4">
    <path d="M 276.167831 163.204791 
L 276.167831 7.972791 
" style="fill: none; stroke: #000000; stroke-width: 0.8; stroke-linejoin: miter; stroke-linecap: square"/>
   </g>
   <g id="patch_5">
    <path d="M 46.403125 163.204791 
L 276.167831 163.204791 
" style="fill: none; stroke: #000000; stroke-width: 0.8; stroke-linejoin: miter; stroke-linecap: square"/>
   </g>
   <g id="patch_6">
    <path d="M 46.403125 7.972791 
L 276.167831 7.972791 
" style="fill: none; stroke: #000000; stroke-width: 0.8; stroke-linejoin: miter; stroke-linecap: square"/>
   </g>
  </g>
  <g id="axes_2">
   <g id="patch_7">
    <path d="M 322.120772 163.204791 
L 551.885478 163.204791 
L 551.885478 7.972791 
L 322.120772 7.972791 
z
" style="fill: #ffffff"/>
   </g>
   <g id="matplotlib.axis_3">
    <g id="xtick_4">
     <g id="line2d_11">
      <g>
       <use xlink:href="#mfe0357acb2" x="379.455379" y="163.204791" style="stroke: #000000; stroke-width: 0.8"/>
      </g>
     </g>
     <g id="text_11">
      <!-- 2023-09-20 -->
      <g transform="translate(354.455379 177.079791) scale(0.1 -0.1)">
       <use xlink:href="#SimHei-32"/>
       <use xlink:href="#SimHei-30" x="50"/>
       <use xlink:href="#SimHei-32" x="100"/>
       <use xlink:href="#SimHei-33" x="150"/>
       <use xlink:href="#SimHei-2d" x="200"/>
       <use xlink:href="#SimHei-30" x="250"/>
       <use xlink:href="#SimHei-39" x="300"/>
       <use xlink:href="#SimHei-2d" x="350"/>
       <use xlink:href="#SimHei-32" x="400"/>
       <use xlink:href="#SimHei-30" x="450"/>
      </g>
     </g>
    </g>
    <g id="xtick_5">
     <g id="line2d_12">
      <g>
       <use xlink:href="#mfe0357acb2" x="443.397319" y="163.204791" style="stroke: #000000; stroke-width: 0.8"/>
      </g>
     </g>
     <g id="text_12">
      <!-- 2023-11-19 -->
      <g transform="translate(418.397319 177.079791) scale(0.1 -0.1)">
       <use xlink:href="#SimHei-32"/>
       <use xlink:href="#SimHei-30" x="50"/>
       <use xlink:href="#SimHei-32" x="100"/>
       <use xlink:href="#SimHei-33" x="150"/>
       <use xlink:href="#SimHei-2d" x="200"/>
       <use xlink:href="#SimHei-31" x="250"/>
       <use xlink:href="#SimHei-31" x="300"/>
       <use xlink:href="#SimHei-2d" x="350"/>
       <use xlink:href="#SimHei-31" x="400"/>
       <use xlink:href="#SimHei-39" x="450"/>
      </g>
     </g>
    </g>
    <g id="xtick_6">
     <g id="line2d_13">
      <g>
       <use xlink:href="#mfe0357acb2" x="507.339259" y="163.204791" style="stroke: #000000; stroke-width: 0.8"/>
      </g>
     </g>
     <g id="text_13">
      <!-- 2024-01-18 -->
      <g transform="translate(482.339259 177.079791) scale(0.1 -0.1)">
       <use xlink:href="#SimHei-32"/>
       <use xlink:href="#SimHei-30" x="50"/>
       <use xlink:href="#SimHei-32" x="100"/>
       <use xlink:href="#SimHei-34" x="150"/>
       <use xlink:href="#SimHei-2d" x="200"/>
       <use xlink:href="#SimHei-30" x="250"/>
       <use xlink:href="#SimHei-31" x="300"/>
       <use xlink:href="#SimHei-2d" x="350"/>
       <use xlink:href="#SimHei-31" x="400"/>
       <use xlink:href="#SimHei-38" x="450"/>
      </g>
     </g>
    </g>
   </g>
   <g id="matplotlib.axis_4">
    <g id="ytick_7">
     <g id="line2d_14">
      <g>
       <use xlink:href="#m25f262f4a0" x="322.120772" y="156.148791" style="stroke: #000000; stroke-width: 0.8"/>
      </g>
     </g>
     <g id="text_14">
      <!-- 0.0 -->
      <g transform="translate(300.120772 159.586291) scale(0.1 -0.1)">
       <use xlink:href="#SimHei-30"/>
       <use xlink:href="#SimHei-2e" x="50"/>
       <use xlink:href="#SimHei-30" x="100"/>
      </g>
     </g>
    </g>
    <g id="ytick_8">
     <g id="line2d_15">
      <g>
       <use xlink:href="#m25f262f4a0" x="322.120772" y="127.924791" style="stroke: #000000; stroke-width: 0.8"/>
      </g>
     </g>
     <g id="text_15">
      <!-- 0.2 -->
      <g transform="translate(300.120772 131.362291) scale(0.1 -0.1)">
       <use xlink:href="#SimHei-30"/>
       <use xlink:href="#SimHei-2e" x="50"/>
       <use xlink:href="#SimHei-32" x="100"/>
      </g>
     </g>
    </g>
    <g id="ytick_9">
     <g id="line2d_16">
      <g>
       <use xlink:href="#m25f262f4a0" x="322.120772" y="99.700791" style="stroke: #000000; stroke-width: 0.8"/>
      </g>
     </g>
     <g id="text_16">
      <!-- 0.4 -->
      <g transform="translate(300.120772 103.138291) scale(0.1 -0.1)">
       <use xlink:href="#SimHei-30"/>
       <use xlink:href="#SimHei-2e" x="50"/>
       <use xlink:href="#SimHei-34" x="100"/>
      </g>
     </g>
    </g>
    <g id="ytick_10">
     <g id="line2d_17">
      <g>
       <use xlink:href="#m25f262f4a0" x="322.120772" y="71.476791" style="stroke: #000000; stroke-width: 0.8"/>
      </g>
     </g>
     <g id="text_17">
      <!-- 0.6 -->
      <g transform="translate(300.120772 74.914291) scale(0.1 -0.1)">
       <use xlink:href="#SimHei-30"/>
       <use xlink:href="#SimHei-2e" x="50"/>
       <use xlink:href="#SimHei-36" x="100"/>
      </g>
     </g>
    </g>
    <g id="ytick_11">
     <g id="line2d_18">
      <g>
       <use xlink:href="#m25f262f4a0" x="322.120772" y="43.252791" style="stroke: #000000; stroke-width: 0.8"/>
      </g>
     </g>
     <g id="text_18">
      <!-- 0.8 -->
      <g transform="translate(300.120772 46.690291) scale(0.1 -0.1)">
       <use xlink:href="#SimHei-30"/>
       <use xlink:href="#SimHei-2e" x="50"/>
       <use xlink:href="#SimHei-38" x="100"/>
      </g>
     </g>
    </g>
    <g id="ytick_12">
     <g id="line2d_19">
      <g>
       <use xlink:href="#m25f262f4a0" x="322.120772" y="15.028791" style="stroke: #000000; stroke-width: 0.8"/>
      </g>
     </g>
     <g id="text_19">
      <!-- 1.0 -->
      <g transform="translate(300.120772 18.466291) scale(0.1 -0.1)">
       <use xlink:href="#SimHei-31"/>
       <use xlink:href="#SimHei-2e" x="50"/>
       <use xlink:href="#SimHei-30" x="100"/>
      </g>
     </g>
    </g>
   </g>
   <g id="line2d_20">
    <path d="M 332.564622 156.148791 
L 407.163553 156.148788 
L 408.229252 117.650132 
L 410.36065 91.231839 
L 411.426349 65.690802 
L 415.689145 65.27164 
L 416.754844 58.513017 
L 417.820543 61.283059 
L 418.886242 58.181984 
L 422.083339 61.283037 
L 423.149038 58.948641 
L 424.214737 56.939568 
L 425.280436 58.948613 
L 426.346135 58.319454 
L 429.543232 56.02019 
L 430.608931 50.07509 
L 431.67463 54.827759 
L 432.740329 53.137128 
L 433.806028 52.63499 
L 437.003125 72.235751 
L 438.068824 71.27936 
L 439.134523 86.80469 
L 440.200222 83.645588 
L 441.265921 74.106547 
L 444.463018 89.05943 
L 445.528717 81.731221 
L 446.594416 70.860812 
L 447.660115 83.502813 
L 448.725814 82.081193 
L 451.922911 62.789622 
L 452.98861 60.567281 
L 454.054309 80.199321 
L 455.120008 47.182184 
L 456.185707 44.153794 
L 459.382804 47.182358 
L 460.448503 75.163916 
L 461.514202 71.088977 
L 462.579901 65.90963 
L 463.6456 73.687608 
L 466.842697 73.681337 
L 467.908396 47.505777 
L 468.974095 67.365473 
L 470.039794 80.643447 
L 471.105493 91.710555 
L 474.30259 113.227751 
L 475.368289 88.380218 
L 477.499687 118.093999 
L 478.565386 123.861928 
L 481.762483 124.357821 
L 482.828182 123.639966 
L 483.893881 119.191408 
L 484.95958 119.438441 
L 486.025279 122.693491 
L 490.288075 122.034141 
L 491.353774 123.339771 
L 492.419473 122.398718 
L 493.485172 122.554953 
L 496.682269 118.26639 
L 497.747968 115.481389 
L 498.813667 115.133552 
L 499.879366 114.416518 
L 500.945065 108.398824 
L 504.142162 108.160489 
L 505.207861 106.116423 
L 506.27356 108.160562 
L 507.339259 105.483666 
L 508.404958 104.638913 
L 511.602055 108.155485 
L 512.667754 109.81419 
L 513.733453 114.610064 
L 514.799153 109.461109 
L 515.864852 107.979014 
L 519.061949 108.155494 
L 520.127648 107.979015 
L 521.193347 108.891061 
L 522.259046 108.274668 
L 523.324745 109.773342 
L 526.521842 109.773344 
L 527.587541 108.126465 
L 528.65324 109.605678 
L 529.718939 109.773345 
L 541.441628 109.773347 
L 541.441628 109.773347 
" clip-path="url(#p0f45fed4ed)" style="fill: none; stroke: #1f77b4; stroke-width: 1.5; stroke-linecap: square"/>
   </g>
   <g id="line2d_21">
    <path d="M 332.564622 156.148791 
L 333.630321 118.256561 
L 340.024515 118.256568 
L 341.090214 117.232648 
L 342.155913 117.150039 
L 343.221612 107.186002 
L 344.287311 107.24991 
L 347.484408 107.24991 
L 348.550107 114.2147 
L 349.615806 107.249908 
L 350.681505 111.878425 
L 351.747204 114.214657 
L 354.944301 110.758707 
L 356.01 111.638818 
L 357.075699 107.249909 
L 358.141398 107.249908 
L 359.207097 100.293045 
L 362.404195 100.293044 
L 363.469894 106.530258 
L 364.535593 107.818664 
L 365.601292 102.037375 
L 366.666991 106.530259 
L 369.864088 110.758699 
L 370.929787 110.758701 
L 371.995486 107.249908 
L 373.061185 107.249883 
L 374.126884 111.63881 
L 377.323981 107.249908 
L 378.38968 107.86564 
L 379.455379 100.125659 
L 380.521078 100.293041 
L 384.783874 100.293042 
L 385.849573 100.893354 
L 386.915272 102.037427 
L 387.980971 101.840046 
L 399.70366 101.840046 
L 400.769359 105.886543 
L 401.835058 104.868296 
L 402.900757 105.758882 
L 403.966456 101.087682 
L 407.163553 104.591896 
L 408.229252 114.148879 
L 409.294951 125.289429 
L 410.36065 142.518147 
L 411.426349 156.148791 
L 430.608931 156.148791 
L 431.67463 152.845442 
L 432.740329 151.895873 
L 433.806028 152.609237 
L 437.003125 147.245624 
L 439.134523 133.195905 
L 440.200222 136.569542 
L 441.265921 143.911803 
L 444.463018 134.01135 
L 445.528717 145.04186 
L 446.594416 145.633408 
L 447.660115 137.42615 
L 451.922911 156.148791 
L 541.441628 156.148791 
L 541.441628 156.148791 
" clip-path="url(#p0f45fed4ed)" style="fill: none; stroke: #ff7f0e; stroke-width: 1.5; stroke-linecap: square"/>
   </g>
   <g id="line2d_22">
    <path d="M 332.564622 156.148791 
L 333.630321 144.278959 
L 340.024515 144.278948 
L 341.090214 143.515918 
L 342.155913 143.664795 
L 343.221612 155.699528 
L 344.287311 156.148791 
L 416.754844 156.148791 
L 417.820543 150.039099 
L 418.886242 154.069156 
L 422.083339 150.039102 
L 423.149038 153.288521 
L 424.214737 154.268393 
L 425.280436 153.288549 
L 426.346135 155.218003 
L 429.543232 156.14879 
L 508.404958 156.148791 
L 511.602055 154.182434 
L 512.667754 155.521295 
L 513.733453 153.395077 
L 514.799153 156.148732 
L 515.864852 156.148791 
L 519.061949 154.18243 
L 520.127648 156.14879 
L 541.441628 156.148791 
L 541.441628 156.148791 
" clip-path="url(#p0f45fed4ed)" style="fill: none; stroke: #2ca02c; stroke-width: 1.5; stroke-linecap: square"/>
   </g>
   <g id="line2d_23">
    <path d="M 332.564622 156.148791 
L 541.441628 156.148791 
L 541.441628 156.148791 
" clip-path="url(#p0f45fed4ed)" style="fill: none; stroke: #d62728; stroke-width: 1.5; stroke-linecap: square"/>
   </g>
   <g id="line2d_24">
    <path d="M 332.564622 156.148791 
L 541.441628 156.148791 
L 541.441628 156.148791 
" clip-path="url(#p0f45fed4ed)" style="fill: none; stroke: #9467bd; stroke-width: 1.5; stroke-linecap: square"/>
   </g>
   <g id="line2d_25">
    <path d="M 332.564622 156.148791 
L 402.900757 156.148791 
L 403.966456 155.364907 
L 407.163553 156.148788 
L 408.229252 152.035882 
L 409.294951 156.14879 
L 468.974095 156.148791 
L 470.039794 155.993904 
L 471.105493 149.065983 
L 474.30259 150.656388 
L 475.368289 149.852243 
L 476.433988 151.774647 
L 477.499687 148.822259 
L 478.565386 139.706359 
L 481.762483 138.139368 
L 482.828182 145.229399 
L 483.893881 149.790187 
L 484.95958 150.008084 
L 486.025279 148.149447 
L 490.288075 148.31928 
L 491.353774 147.636349 
L 492.419473 148.013744 
L 493.485172 148.040766 
L 496.682269 150.025147 
L 497.747968 152.513143 
L 498.813667 152.349775 
L 499.879366 152.47429 
L 500.945065 156.148791 
L 504.142162 154.062381 
L 505.207861 155.655607 
L 506.27356 154.062363 
L 507.339259 156.148791 
L 541.441628 156.148791 
L 541.441628 156.148791 
" clip-path="url(#p0f45fed4ed)" style="fill: none; stroke: #8c564b; stroke-width: 1.5; stroke-linecap: square"/>
   </g>
   <g id="line2d_26">
    <path d="M 332.564622 156.148791 
L 377.323981 156.148791 
L 378.38968 151.373277 
L 379.455379 151.356579 
L 380.521078 156.148791 
L 384.783874 156.148791 
L 385.849573 153.140954 
L 386.915272 156.148769 
L 387.980971 149.221866 
L 399.70366 149.221862 
L 400.769359 152.668605 
L 401.835058 150.669764 
L 402.900757 152.718601 
L 403.966456 150.130581 
L 407.163553 150.494416 
L 408.229252 156.148791 
L 438.068824 156.148791 
L 439.134523 155.514468 
L 440.200222 156.148791 
L 484.95958 156.148791 
L 486.025279 154.062659 
L 490.288075 154.475189 
L 491.353774 153.641464 
L 492.419473 153.232629 
L 493.485172 153.162481 
L 496.682269 154.550596 
L 497.747968 155.794346 
L 498.813667 156.14879 
L 541.441628 156.148791 
L 541.441628 156.148791 
" clip-path="url(#p0f45fed4ed)" style="fill: none; stroke: #e377c2; stroke-width: 1.5; stroke-linecap: square"/>
   </g>
   <g id="line2d_27">
    <path d="M 332.564622 156.148791 
L 433.806028 156.148789 
L 437.003125 138.288422 
L 438.068824 142.026576 
L 439.134523 116.770643 
L 440.200222 121.363703 
L 441.265921 129.782003 
L 444.463018 109.458773 
L 445.528717 124.669081 
L 446.594416 118.536248 
L 447.660115 119.06506 
L 448.725814 123.384712 
L 451.922911 124.678656 
L 452.98861 126.109919 
L 454.054309 97.611846 
L 455.120008 137.151655 
L 456.185707 141.722733 
L 459.382804 137.151519 
L 460.448503 133.463594 
L 461.514202 138.64206 
L 462.579901 141.434392 
L 463.6456 107.131659 
L 466.842697 107.150503 
L 467.908396 134.933161 
L 468.974095 137.066867 
L 470.039794 97.874128 
L 471.105493 101.154211 
L 474.30259 72.460477 
L 475.368289 102.812674 
L 476.433988 72.801749 
L 477.499687 70.553896 
L 478.565386 67.315684 
L 481.762483 69.762232 
L 482.828182 69.134784 
L 483.893881 66.625493 
L 484.95958 65.741156 
L 486.025279 68.365433 
L 490.288075 68.314756 
L 491.353774 69.221737 
L 492.419473 70.604336 
L 493.485172 70.41695 
L 496.682269 70.396986 
L 497.747968 66.835592 
L 498.813667 67.092883 
L 499.879366 67.59466 
L 500.945065 73.141829 
L 504.142162 76.633788 
L 505.207861 77.551149 
L 506.27356 76.633786 
L 507.339259 77.835119 
L 508.404958 73.72588 
L 511.602055 75.977129 
L 512.667754 71.253409 
L 513.733453 64.854605 
L 514.799153 72.549037 
L 515.864852 75.453718 
L 519.061949 75.977124 
L 520.127648 75.453718 
L 521.193347 75.946007 
L 522.259046 75.613301 
L 523.324745 72.374843 
L 526.521842 72.374828 
L 527.587541 75.272337 
L 528.65324 72.722275 
L 529.718939 72.374831 
L 541.441628 72.374825 
L 541.441628 72.374825 
" clip-path="url(#p0f45fed4ed)" style="fill: none; stroke: #7f7f7f; stroke-width: 1.5; stroke-linecap: square"/>
   </g>
   <g id="line2d_28">
    <path d="M 332.564622 156.148791 
L 333.630321 139.538719 
L 340.024515 139.538714 
L 341.090214 139.754163 
L 342.155913 139.84166 
L 343.221612 142.505203 
L 344.287311 142.926284 
L 347.484408 142.926278 
L 348.550107 145.347611 
L 349.615806 142.926282 
L 350.681505 143.999181 
L 351.747204 145.347631 
L 354.944301 156.14879 
L 356.01 146.529188 
L 357.075699 142.926285 
L 358.141398 142.926283 
L 359.207097 156.148787 
L 362.404195 156.148788 
L 363.469894 142.759468 
L 364.535593 156.148791 
L 365.601292 156.148785 
L 366.666991 142.759467 
L 369.864088 156.14879 
L 370.929787 156.148791 
L 371.995486 142.926283 
L 373.061185 142.926289 
L 374.126884 146.529189 
L 377.323981 142.926283 
L 378.38968 142.078728 
L 379.455379 156.148791 
L 399.70366 156.148791 
L 400.769359 140.733036 
L 401.835058 139.418827 
L 402.900757 140.730411 
L 403.966456 136.90254 
L 408.229252 139.97943 
L 409.294951 140.377906 
L 410.36065 144.93687 
L 411.426349 143.84106 
L 414.623446 144.013701 
L 415.689145 143.760106 
L 416.754844 156.148787 
L 417.820543 148.20136 
L 418.886242 142.546423 
L 422.083339 148.201388 
L 423.149038 142.28651 
L 424.214737 143.008444 
L 425.280436 142.286478 
L 426.346135 141.741511 
L 429.543232 149.646863 
L 430.608931 150.170495 
L 431.67463 145.468395 
L 433.806028 156.14879 
L 437.003125 156.148791 
L 438.068824 147.597169 
L 439.134523 150.428474 
L 440.200222 149.133362 
L 441.265921 156.148783 
L 444.463018 151.484237 
L 445.528717 156.148788 
L 446.594416 153.63197 
L 447.660115 149.328448 
L 448.725814 153.709596 
L 451.922911 156.148791 
L 452.98861 156.148791 
L 454.054309 149.515214 
L 455.120008 156.148788 
L 460.448503 156.148791 
L 461.514202 150.797885 
L 462.579901 156.148766 
L 463.6456 147.469325 
L 466.842697 147.467208 
L 467.908396 156.14874 
L 468.974095 156.148787 
L 471.105493 141.544416 
L 474.30259 147.13055 
L 475.368289 142.430073 
L 476.433988 156.009915 
L 477.499687 146.005011 
L 478.565386 152.591194 
L 481.762483 151.215744 
L 482.828182 145.471018 
L 483.893881 147.868078 
L 484.95958 148.287483 
L 486.025279 146.352927 
L 490.288075 146.480591 
L 491.353774 145.784637 
L 492.419473 145.374529 
L 493.485172 145.448807 
L 496.682269 146.384837 
L 497.747968 148.999487 
L 498.813667 148.898957 
L 499.879366 148.989726 
L 500.945065 151.802706 
L 504.142162 148.783126 
L 505.207861 150.368141 
L 506.27356 148.783125 
L 507.339259 150.858778 
L 508.404958 152.310447 
L 511.602055 151.344923 
L 512.667754 152.262925 
L 513.733453 153.822349 
L 515.864852 152.751747 
L 519.061949 151.344919 
L 520.127648 152.751746 
L 521.193347 152.863528 
L 522.259046 152.787983 
L 523.324745 153.684317 
L 526.521842 153.684317 
L 527.587541 152.880914 
L 528.65324 156.148791 
L 529.718939 153.684321 
L 541.441628 153.684318 
L 541.441628 153.684318 
" clip-path="url(#p0f45fed4ed)" style="fill: none; stroke: #bcbd22; stroke-width: 1.5; stroke-linecap: square"/>
   </g>
   <g id="line2d_29">
    <path d="M 332.564622 156.148791 
L 333.630321 81.400928 
L 340.024515 81.400936 
L 341.090214 82.972436 
L 342.155913 82.818671 
L 343.221612 78.084434 
L 344.287311 77.15018 
L 347.484408 77.150188 
L 348.550107 67.764063 
L 349.615806 77.150186 
L 350.681505 71.448768 
L 351.747204 67.764087 
L 354.944301 60.418878 
L 357.075699 77.15018 
L 358.141398 77.150183 
L 359.207097 70.884543 
L 362.404195 70.884544 
L 363.469894 78.036647 
L 364.535593 63.358919 
L 365.601292 69.140217 
L 366.666991 78.036648 
L 369.864088 60.418888 
L 370.929787 60.418881 
L 371.995486 77.150182 
L 373.061185 77.150203 
L 374.126884 69.158377 
L 377.323981 77.150182 
L 378.38968 82.157522 
L 379.455379 75.844136 
L 380.521078 70.884542 
L 384.783874 70.884541 
L 385.849573 73.292066 
L 386.915272 69.14018 
L 387.980971 76.264463 
L 399.70366 76.264466 
L 400.769359 84.186981 
L 401.835058 88.518278 
L 402.900757 84.267272 
L 403.966456 96.138247 
L 407.163553 89.128689 
L 408.229252 115.809632 
L 409.294951 113.417245 
L 410.36065 104.78831 
L 411.426349 117.794511 
L 414.623446 117.987496 
L 415.689145 118.294628 
L 416.754844 112.66457 
L 417.820543 123.951648 
L 418.886242 128.677601 
L 422.083339 123.951639 
L 423.149038 128.951495 
L 424.214737 129.25876 
L 425.280436 128.951525 
L 426.346135 128.196198 
L 429.543232 121.659326 
L 430.608931 127.080789 
L 431.67463 130.333572 
L 432.740329 127.712617 
L 433.806028 122.082154 
L 437.003125 125.705368 
L 438.068824 138.618674 
L 439.134523 153.058567 
L 440.200222 148.911761 
L 441.265921 135.674821 
L 444.463018 155.610166 
L 445.528717 132.033008 
L 446.594416 150.961519 
L 447.660115 150.301486 
L 448.725814 138.253215 
L 451.922911 139.858096 
L 452.98861 140.649173 
L 454.054309 156.148786 
L 455.120008 142.99254 
L 456.185707 141.449848 
L 459.382804 142.99255 
L 460.448503 118.698864 
L 461.514202 122.946243 
L 462.579901 119.982378 
L 463.6456 155.186573 
L 466.842697 155.176118 
L 467.908396 144.887488 
L 468.974095 122.894038 
L 470.039794 156.148791 
L 499.879366 156.148763 
L 500.945065 150.131805 
L 504.142162 151.984174 
L 505.207861 149.932636 
L 506.27356 151.984119 
L 507.339259 149.297604 
L 508.404958 152.799925 
L 511.602055 149.963986 
L 512.667754 150.772137 
L 513.733453 152.941862 
L 514.799153 148.208264 
L 515.864852 147.290686 
L 519.061949 149.96399 
L 520.127648 147.290687 
L 521.193347 145.77457 
L 522.259046 146.799213 
L 523.324745 147.642663 
L 526.521842 147.642675 
L 527.587541 147.195449 
L 528.65324 144.998421 
L 529.718939 147.642669 
L 541.441628 147.642676 
L 541.441628 147.642676 
" clip-path="url(#p0f45fed4ed)" style="fill: none; stroke: #17becf; stroke-width: 1.5; stroke-linecap: square"/>
   </g>
   <g id="line2d_30">
    <path d="M 332.564622 15.028791 
L 333.630321 156.148791 
L 541.441628 156.148791 
L 541.441628 156.148791 
" clip-path="url(#p0f45fed4ed)" style="fill: none; stroke: #1f77b4; stroke-width: 1.5; stroke-linecap: square"/>
   </g>
   <g id="patch_8">
    <path d="M 322.120772 163.204791 
L 322.120772 7.972791 
" style="fill: none; stroke: #000000; stroke-width: 0.8; stroke-linejoin: miter; stroke-linecap: square"/>
   </g>
   <g id="patch_9">
    <path d="M 551.885478 163.204791 
L 551.885478 7.972791 
" style="fill: none; stroke: #000000; stroke-width: 0.8; stroke-linejoin: miter; stroke-linecap: square"/>
   </g>
   <g id="patch_10">
    <path d="M 322.120772 163.204791 
L 551.885478 163.204791 
" style="fill: none; stroke: #000000; stroke-width: 0.8; stroke-linejoin: miter; stroke-linecap: square"/>
   </g>
   <g id="patch_11">
    <path d="M 322.120772 7.972791 
L 551.885478 7.972791 
" style="fill: none; stroke: #000000; stroke-width: 0.8; stroke-linejoin: miter; stroke-linecap: square"/>
   </g>
   <g id="legend_1">
    <g id="patch_12">
     <path d="M 457.885478 149.379041 
L 544.885478 149.379041 
Q 546.885478 149.379041 546.885478 147.379041 
L 546.885478 14.972791 
Q 546.885478 12.972791 544.885478 12.972791 
L 457.885478 12.972791 
Q 455.885478 12.972791 455.885478 14.972791 
L 455.885478 147.379041 
Q 455.885478 149.379041 457.885478 149.379041 
z
" style="fill: #ffffff; opacity: 0.8; stroke: #cccccc; stroke-linejoin: miter"/>
    </g>
    <g id="line2d_31">
     <path d="M 459.885478 20.504041 
L 469.885478 20.504041 
L 479.885478 20.504041 
" style="fill: none; stroke: #1f77b4; stroke-width: 1.5; stroke-linecap: square"/>
    </g>
    <g id="text_20">
     <!-- w_002027.SZ -->
     <g transform="translate(487.885478 24.004041) scale(0.1 -0.1)">
      <defs>
       <path id="SimHei-77" d="M 3075 2925 
L 2450 75 
L 1975 75 
L 1575 2250 
L 1525 2250 
L 1125 75 
L 650 75 
L 25 2925 
L 550 2925 
L 875 1050 
L 925 1050 
L 1275 2925 
L 1825 2925 
L 2175 1050 
L 2225 1050 
L 2550 2925 
L 3075 2925 
z
" transform="scale(0.015625)"/>
       <path id="SimHei-5f" d="M 3150 -850 
L 0 -850 
L 0 -550 
L 3150 -550 
L 3150 -850 
z
" transform="scale(0.015625)"/>
       <path id="SimHei-37" d="M 850 150 
Q 1300 2050 2425 3925 
L 275 3925 
L 275 4375 
L 2950 4375 
L 2950 3950 
Q 1775 2050 1400 150 
L 850 150 
z
" transform="scale(0.015625)"/>
       <path id="SimHei-5a" d="M 2900 125 
L 225 125 
L 225 600 
L 2250 3925 
L 375 3925 
L 375 4400 
L 2825 4400 
L 2825 3925 
L 800 600 
L 2900 600 
L 2900 125 
z
" transform="scale(0.015625)"/>
      </defs>
      <use xlink:href="#SimHei-77"/>
      <use xlink:href="#SimHei-5f" x="50"/>
      <use xlink:href="#SimHei-30" x="100"/>
      <use xlink:href="#SimHei-30" x="150"/>
      <use xlink:href="#SimHei-32" x="200"/>
      <use xlink:href="#SimHei-30" x="250"/>
      <use xlink:href="#SimHei-32" x="300"/>
      <use xlink:href="#SimHei-37" x="350"/>
      <use xlink:href="#SimHei-2e" x="400"/>
      <use xlink:href="#SimHei-53" x="450"/>
      <use xlink:href="#SimHei-5a" x="500"/>
     </g>
    </g>
    <g id="line2d_32">
     <path d="M 459.885478 33.863416 
L 469.885478 33.863416 
L 479.885478 33.863416 
" style="fill: none; stroke: #ff7f0e; stroke-width: 1.5; stroke-linecap: square"/>
    </g>
    <g id="text_21">
     <!-- w_002371.SZ -->
     <g transform="translate(487.885478 37.363416) scale(0.1 -0.1)">
      <use xlink:href="#SimHei-77"/>
      <use xlink:href="#SimHei-5f" x="50"/>
      <use xlink:href="#SimHei-30" x="100"/>
      <use xlink:href="#SimHei-30" x="150"/>
      <use xlink:href="#SimHei-32" x="200"/>
      <use xlink:href="#SimHei-33" x="250"/>
      <use xlink:href="#SimHei-37" x="300"/>
      <use xlink:href="#SimHei-31" x="350"/>
      <use xlink:href="#SimHei-2e" x="400"/>
      <use xlink:href="#SimHei-53" x="450"/>
      <use xlink:href="#SimHei-5a" x="500"/>
     </g>
    </g>
    <g id="line2d_33">
     <path d="M 459.885478 47.191541 
L 469.885478 47.191541 
L 479.885478 47.191541 
" style="fill: none; stroke: #2ca02c; stroke-width: 1.5; stroke-linecap: square"/>
    </g>
    <g id="text_22">
     <!-- w_600009.SH -->
     <g transform="translate(487.885478 50.691541) scale(0.1 -0.1)">
      <defs>
       <path id="SimHei-48" d="M 2850 125 
L 2275 125 
L 2275 2125 
L 850 2125 
L 850 125 
L 275 125 
L 275 4400 
L 850 4400 
L 850 2600 
L 2275 2600 
L 2275 4400 
L 2850 4400 
L 2850 125 
z
" transform="scale(0.015625)"/>
      </defs>
      <use xlink:href="#SimHei-77"/>
      <use xlink:href="#SimHei-5f" x="50"/>
      <use xlink:href="#SimHei-36" x="100"/>
      <use xlink:href="#SimHei-30" x="150"/>
      <use xlink:href="#SimHei-30" x="200"/>
      <use xlink:href="#SimHei-30" x="250"/>
      <use xlink:href="#SimHei-30" x="300"/>
      <use xlink:href="#SimHei-39" x="350"/>
      <use xlink:href="#SimHei-2e" x="400"/>
      <use xlink:href="#SimHei-53" x="450"/>
      <use xlink:href="#SimHei-48" x="500"/>
     </g>
    </g>
    <g id="line2d_34">
     <path d="M 459.885478 60.550916 
L 469.885478 60.550916 
L 479.885478 60.550916 
" style="fill: none; stroke: #d62728; stroke-width: 1.5; stroke-linecap: square"/>
    </g>
    <g id="text_23">
     <!-- w_600029.SH -->
     <g transform="translate(487.885478 64.050916) scale(0.1 -0.1)">
      <use xlink:href="#SimHei-77"/>
      <use xlink:href="#SimHei-5f" x="50"/>
      <use xlink:href="#SimHei-36" x="100"/>
      <use xlink:href="#SimHei-30" x="150"/>
      <use xlink:href="#SimHei-30" x="200"/>
      <use xlink:href="#SimHei-30" x="250"/>
      <use xlink:href="#SimHei-32" x="300"/>
      <use xlink:href="#SimHei-39" x="350"/>
      <use xlink:href="#SimHei-2e" x="400"/>
      <use xlink:href="#SimHei-53" x="450"/>
      <use xlink:href="#SimHei-48" x="500"/>
     </g>
    </g>
    <g id="line2d_35">
     <path d="M 459.885478 73.910291 
L 469.885478 73.910291 
L 479.885478 73.910291 
" style="fill: none; stroke: #9467bd; stroke-width: 1.5; stroke-linecap: square"/>
    </g>
    <g id="text_24">
     <!-- w_600183.SH -->
     <g transform="translate(487.885478 77.410291) scale(0.1 -0.1)">
      <use xlink:href="#SimHei-77"/>
      <use xlink:href="#SimHei-5f" x="50"/>
      <use xlink:href="#SimHei-36" x="100"/>
      <use xlink:href="#SimHei-30" x="150"/>
      <use xlink:href="#SimHei-30" x="200"/>
      <use xlink:href="#SimHei-31" x="250"/>
      <use xlink:href="#SimHei-38" x="300"/>
      <use xlink:href="#SimHei-33" x="350"/>
      <use xlink:href="#SimHei-2e" x="400"/>
      <use xlink:href="#SimHei-53" x="450"/>
      <use xlink:href="#SimHei-48" x="500"/>
     </g>
    </g>
    <g id="line2d_36">
     <path d="M 459.885478 87.238416 
L 469.885478 87.238416 
L 479.885478 87.238416 
" style="fill: none; stroke: #8c564b; stroke-width: 1.5; stroke-linecap: square"/>
    </g>
    <g id="text_25">
     <!-- w_600406.SH -->
     <g transform="translate(487.885478 90.738416) scale(0.1 -0.1)">
      <use xlink:href="#SimHei-77"/>
      <use xlink:href="#SimHei-5f" x="50"/>
      <use xlink:href="#SimHei-36" x="100"/>
      <use xlink:href="#SimHei-30" x="150"/>
      <use xlink:href="#SimHei-30" x="200"/>
      <use xlink:href="#SimHei-34" x="250"/>
      <use xlink:href="#SimHei-30" x="300"/>
      <use xlink:href="#SimHei-36" x="350"/>
      <use xlink:href="#SimHei-2e" x="400"/>
      <use xlink:href="#SimHei-53" x="450"/>
      <use xlink:href="#SimHei-48" x="500"/>
     </g>
    </g>
    <g id="line2d_37">
     <path d="M 459.885478 100.566541 
L 469.885478 100.566541 
L 479.885478 100.566541 
" style="fill: none; stroke: #e377c2; stroke-width: 1.5; stroke-linecap: square"/>
    </g>
    <g id="text_26">
     <!-- w_600900.SH -->
     <g transform="translate(487.885478 104.066541) scale(0.1 -0.1)">
      <use xlink:href="#SimHei-77"/>
      <use xlink:href="#SimHei-5f" x="50"/>
      <use xlink:href="#SimHei-36" x="100"/>
      <use xlink:href="#SimHei-30" x="150"/>
      <use xlink:href="#SimHei-30" x="200"/>
      <use xlink:href="#SimHei-39" x="250"/>
      <use xlink:href="#SimHei-30" x="300"/>
      <use xlink:href="#SimHei-30" x="350"/>
      <use xlink:href="#SimHei-2e" x="400"/>
      <use xlink:href="#SimHei-53" x="450"/>
      <use xlink:href="#SimHei-48" x="500"/>
     </g>
    </g>
    <g id="line2d_38">
     <path d="M 459.885478 113.894666 
L 469.885478 113.894666 
L 479.885478 113.894666 
" style="fill: none; stroke: #7f7f7f; stroke-width: 1.5; stroke-linecap: square"/>
    </g>
    <g id="text_27">
     <!-- w_601989.SH -->
     <g transform="translate(487.885478 117.394666) scale(0.1 -0.1)">
      <use xlink:href="#SimHei-77"/>
      <use xlink:href="#SimHei-5f" x="50"/>
      <use xlink:href="#SimHei-36" x="100"/>
      <use xlink:href="#SimHei-30" x="150"/>
      <use xlink:href="#SimHei-31" x="200"/>
      <use xlink:href="#SimHei-39" x="250"/>
      <use xlink:href="#SimHei-38" x="300"/>
      <use xlink:href="#SimHei-39" x="350"/>
      <use xlink:href="#SimHei-2e" x="400"/>
      <use xlink:href="#SimHei-53" x="450"/>
      <use xlink:href="#SimHei-48" x="500"/>
     </g>
    </g>
    <g id="line2d_39">
     <path d="M 459.885478 127.222791 
L 469.885478 127.222791 
L 479.885478 127.222791 
" style="fill: none; stroke: #bcbd22; stroke-width: 1.5; stroke-linecap: square"/>
    </g>
    <g id="text_28">
     <!-- w_601998.SH -->
     <g transform="translate(487.885478 130.722791) scale(0.1 -0.1)">
      <use xlink:href="#SimHei-77"/>
      <use xlink:href="#SimHei-5f" x="50"/>
      <use xlink:href="#SimHei-36" x="100"/>
      <use xlink:href="#SimHei-30" x="150"/>
      <use xlink:href="#SimHei-31" x="200"/>
      <use xlink:href="#SimHei-39" x="250"/>
      <use xlink:href="#SimHei-39" x="300"/>
      <use xlink:href="#SimHei-38" x="350"/>
      <use xlink:href="#SimHei-2e" x="400"/>
      <use xlink:href="#SimHei-53" x="450"/>
      <use xlink:href="#SimHei-48" x="500"/>
     </g>
    </g>
    <g id="line2d_40">
     <path d="M 459.885478 140.550916 
L 469.885478 140.550916 
L 479.885478 140.550916 
" style="fill: none; stroke: #17becf; stroke-width: 1.5; stroke-linecap: square"/>
    </g>
    <g id="text_29">
     <!-- w_CASH -->
     <g transform="translate(487.885478 144.050916) scale(0.1 -0.1)">
      <defs>
       <path id="SimHei-41" d="M 3075 125 
L 2475 125 
L 2125 1450 
L 1025 1450 
L 675 125 
L 75 125 
L 1325 4450 
L 1825 4450 
L 3075 125 
z
M 2000 1925 
L 1600 3450 
L 1550 3450 
L 1150 1925 
L 2000 1925 
z
" transform="scale(0.015625)"/>
      </defs>
      <use xlink:href="#SimHei-77"/>
      <use xlink:href="#SimHei-5f" x="50"/>
      <use xlink:href="#SimHei-43" x="100"/>
      <use xlink:href="#SimHei-41" x="150"/>
      <use xlink:href="#SimHei-53" x="200"/>
      <use xlink:href="#SimHei-48" x="250"/>
     </g>
    </g>
   </g>
  </g>
  <g id="axes_3">
   <g id="patch_13">
    <path d="M 597.838419 163.204791 
L 827.603125 163.204791 
L 827.603125 7.972791 
L 597.838419 7.972791 
z
" style="fill: #ffffff"/>
   </g>
   <g id="matplotlib.axis_5">
    <g id="xtick_7">
     <g id="line2d_41">
      <g>
       <use xlink:href="#mfe0357acb2" x="654.107327" y="163.204791" style="stroke: #000000; stroke-width: 0.8"/>
      </g>
     </g>
     <g id="text_30">
      <!-- 2023-09-20 -->
      <g transform="translate(629.107327 177.079791) scale(0.1 -0.1)">
       <use xlink:href="#SimHei-32"/>
       <use xlink:href="#SimHei-30" x="50"/>
       <use xlink:href="#SimHei-32" x="100"/>
       <use xlink:href="#SimHei-33" x="150"/>
       <use xlink:href="#SimHei-2d" x="200"/>
       <use xlink:href="#SimHei-30" x="250"/>
       <use xlink:href="#SimHei-39" x="300"/>
       <use xlink:href="#SimHei-2d" x="350"/>
       <use xlink:href="#SimHei-32" x="400"/>
       <use xlink:href="#SimHei-30" x="450"/>
      </g>
     </g>
    </g>
    <g id="xtick_8">
     <g id="line2d_42">
      <g>
       <use xlink:href="#mfe0357acb2" x="718.049267" y="163.204791" style="stroke: #000000; stroke-width: 0.8"/>
      </g>
     </g>
     <g id="text_31">
      <!-- 2023-11-19 -->
      <g transform="translate(693.049267 177.079791) scale(0.1 -0.1)">
       <use xlink:href="#SimHei-32"/>
       <use xlink:href="#SimHei-30" x="50"/>
       <use xlink:href="#SimHei-32" x="100"/>
       <use xlink:href="#SimHei-33" x="150"/>
       <use xlink:href="#SimHei-2d" x="200"/>
       <use xlink:href="#SimHei-31" x="250"/>
       <use xlink:href="#SimHei-31" x="300"/>
       <use xlink:href="#SimHei-2d" x="350"/>
       <use xlink:href="#SimHei-31" x="400"/>
       <use xlink:href="#SimHei-39" x="450"/>
      </g>
     </g>
    </g>
    <g id="xtick_9">
     <g id="line2d_43">
      <g>
       <use xlink:href="#mfe0357acb2" x="781.991208" y="163.204791" style="stroke: #000000; stroke-width: 0.8"/>
      </g>
     </g>
     <g id="text_32">
      <!-- 2024-01-18 -->
      <g transform="translate(756.991208 177.079791) scale(0.1 -0.1)">
       <use xlink:href="#SimHei-32"/>
       <use xlink:href="#SimHei-30" x="50"/>
       <use xlink:href="#SimHei-32" x="100"/>
       <use xlink:href="#SimHei-34" x="150"/>
       <use xlink:href="#SimHei-2d" x="200"/>
       <use xlink:href="#SimHei-30" x="250"/>
       <use xlink:href="#SimHei-31" x="300"/>
       <use xlink:href="#SimHei-2d" x="350"/>
       <use xlink:href="#SimHei-31" x="400"/>
       <use xlink:href="#SimHei-38" x="450"/>
      </g>
     </g>
    </g>
   </g>
   <g id="matplotlib.axis_6">
    <g id="ytick_13">
     <g id="line2d_44">
      <g>
       <use xlink:href="#m25f262f4a0" x="597.838419" y="156.148791" style="stroke: #000000; stroke-width: 0.8"/>
      </g>
     </g>
     <g id="text_33">
      <!-- 0.0000 -->
      <g transform="translate(560.838419 159.586291) scale(0.1 -0.1)">
       <use xlink:href="#SimHei-30"/>
       <use xlink:href="#SimHei-2e" x="50"/>
       <use xlink:href="#SimHei-30" x="100"/>
       <use xlink:href="#SimHei-30" x="150"/>
       <use xlink:href="#SimHei-30" x="200"/>
       <use xlink:href="#SimHei-30" x="250"/>
      </g>
     </g>
    </g>
    <g id="ytick_14">
     <g id="line2d_45">
      <g>
       <use xlink:href="#m25f262f4a0" x="597.838419" y="127.924791" style="stroke: #000000; stroke-width: 0.8"/>
      </g>
     </g>
     <g id="text_34">
      <!-- 0.0005 -->
      <g transform="translate(560.838419 131.362291) scale(0.1 -0.1)">
       <defs>
        <path id="SimHei-35" d="M 550 1325 
Q 725 650 1150 575 
Q 1575 500 1837 662 
Q 2100 825 2212 1087 
Q 2325 1350 2312 1675 
Q 2300 2000 2137 2225 
Q 1975 2450 1725 2525 
Q 1475 2600 1162 2525 
Q 850 2450 650 2175 
L 225 2225 
Q 275 2375 700 4375 
L 2675 4375 
L 2675 3925 
L 1075 3925 
Q 950 3250 825 2850 
Q 1200 3025 1525 3012 
Q 1850 3000 2150 2862 
Q 2450 2725 2587 2487 
Q 2725 2250 2787 2012 
Q 2850 1775 2837 1500 
Q 2825 1225 2725 937 
Q 2625 650 2425 462 
Q 2225 275 1937 162 
Q 1650 50 1275 75 
Q 900 100 562 350 
Q 225 600 100 1200 
L 550 1325 
z
" transform="scale(0.015625)"/>
       </defs>
       <use xlink:href="#SimHei-30"/>
       <use xlink:href="#SimHei-2e" x="50"/>
       <use xlink:href="#SimHei-30" x="100"/>
       <use xlink:href="#SimHei-30" x="150"/>
       <use xlink:href="#SimHei-30" x="200"/>
       <use xlink:href="#SimHei-35" x="250"/>
      </g>
     </g>
    </g>
    <g id="ytick_15">
     <g id="line2d_46">
      <g>
       <use xlink:href="#m25f262f4a0" x="597.838419" y="99.700791" style="stroke: #000000; stroke-width: 0.8"/>
      </g>
     </g>
     <g id="text_35">
      <!-- 0.0010 -->
      <g transform="translate(560.838419 103.138291) scale(0.1 -0.1)">
       <use xlink:href="#SimHei-30"/>
       <use xlink:href="#SimHei-2e" x="50"/>
       <use xlink:href="#SimHei-30" x="100"/>
       <use xlink:href="#SimHei-30" x="150"/>
       <use xlink:href="#SimHei-31" x="200"/>
       <use xlink:href="#SimHei-30" x="250"/>
      </g>
     </g>
    </g>
    <g id="ytick_16">
     <g id="line2d_47">
      <g>
       <use xlink:href="#m25f262f4a0" x="597.838419" y="71.476791" style="stroke: #000000; stroke-width: 0.8"/>
      </g>
     </g>
     <g id="text_36">
      <!-- 0.0015 -->
      <g transform="translate(560.838419 74.914291) scale(0.1 -0.1)">
       <use xlink:href="#SimHei-30"/>
       <use xlink:href="#SimHei-2e" x="50"/>
       <use xlink:href="#SimHei-30" x="100"/>
       <use xlink:href="#SimHei-30" x="150"/>
       <use xlink:href="#SimHei-31" x="200"/>
       <use xlink:href="#SimHei-35" x="250"/>
      </g>
     </g>
    </g>
    <g id="ytick_17">
     <g id="line2d_48">
      <g>
       <use xlink:href="#m25f262f4a0" x="597.838419" y="43.252791" style="stroke: #000000; stroke-width: 0.8"/>
      </g>
     </g>
     <g id="text_37">
      <!-- 0.0020 -->
      <g transform="translate(560.838419 46.690291) scale(0.1 -0.1)">
       <use xlink:href="#SimHei-30"/>
       <use xlink:href="#SimHei-2e" x="50"/>
       <use xlink:href="#SimHei-30" x="100"/>
       <use xlink:href="#SimHei-30" x="150"/>
       <use xlink:href="#SimHei-32" x="200"/>
       <use xlink:href="#SimHei-30" x="250"/>
      </g>
     </g>
    </g>
    <g id="ytick_18">
     <g id="line2d_49">
      <g>
       <use xlink:href="#m25f262f4a0" x="597.838419" y="15.028791" style="stroke: #000000; stroke-width: 0.8"/>
      </g>
     </g>
     <g id="text_38">
      <!-- 0.0025 -->
      <g transform="translate(560.838419 18.466291) scale(0.1 -0.1)">
       <use xlink:href="#SimHei-30"/>
       <use xlink:href="#SimHei-2e" x="50"/>
       <use xlink:href="#SimHei-30" x="100"/>
       <use xlink:href="#SimHei-30" x="150"/>
       <use xlink:href="#SimHei-32" x="200"/>
       <use xlink:href="#SimHei-35" x="250"/>
      </g>
     </g>
    </g>
   </g>
   <g id="line2d_50">
    <path d="M 608.282269 15.028791 
L 609.347968 155.454681 
L 611.479366 155.849521 
L 614.676463 154.170247 
L 615.742162 151.179954 
L 616.807861 155.708404 
L 617.87356 126.078765 
L 618.939259 154.460356 
L 622.136356 154.622945 
L 623.202055 137.366133 
L 624.267754 135.837675 
L 625.333453 142.553359 
L 626.399153 148.539285 
L 629.59625 134.677996 
L 630.661949 136.909588 
L 631.727648 142.917341 
L 632.793347 155.480238 
L 633.859046 129.530166 
L 637.056143 154.699858 
L 638.121842 129.370152 
L 639.187541 127.383925 
L 640.25324 144.393029 
L 641.318939 129.370154 
L 644.516036 120.379476 
L 645.581735 155.295466 
L 646.647434 123.128574 
L 647.713133 153.880249 
L 648.778832 140.263233 
L 651.975929 140.898436 
L 653.041628 144.443192 
L 654.107327 128.374548 
L 655.173026 146.558432 
L 656.238725 155.174285 
L 659.435822 155.386444 
L 660.501521 150.133116 
L 661.56722 147.080411 
L 662.632919 140.206529 
L 674.355608 154.657724 
L 675.421307 125.317281 
L 676.487006 147.84904 
L 677.552705 149.187152 
L 678.618404 131.191422 
L 681.815501 143.285124 
L 682.8812 70.925667 
L 683.946899 125.901502 
L 685.012598 112.762455 
L 686.078297 103.229294 
L 689.275394 155.464451 
L 690.341093 155.64205 
L 691.406792 132.444083 
L 692.472491 128.034552 
L 693.53819 139.058335 
L 696.735287 137.057055 
L 697.800986 139.550727 
L 698.866685 152.544886 
L 699.932384 151.974226 
L 700.998083 152.112134 
L 704.19518 138.323135 
L 705.260879 144.501251 
L 706.326578 140.051199 
L 707.392277 145.625364 
L 708.457976 143.984987 
L 711.655073 109.635617 
L 712.720772 122.925466 
L 713.786471 89.753359 
L 714.85217 138.515797 
L 715.917869 111.872905 
L 719.114966 85.931 
L 720.180665 94.46236 
L 721.246364 116.407172 
L 722.312063 128.965329 
L 723.377762 129.126025 
L 726.574859 118.47942 
L 727.640558 153.032023 
L 728.706257 86.38352 
L 729.771956 61.809259 
L 730.837655 145.131675 
L 734.034752 146.705719 
L 735.100451 99.865007 
L 736.16615 138.350293 
L 737.231849 139.711261 
L 738.297548 70.259226 
L 741.494645 155.747884 
L 742.560344 82.868154 
L 743.626043 112.130658 
L 744.691742 63.6335 
L 745.757441 127.411998 
L 748.954538 100.009451 
L 750.020237 95.847396 
L 751.085936 97.765969 
L 752.151635 125.0745 
L 756.414431 149.918807 
L 757.48013 142.837694 
L 758.545829 141.864665 
L 759.611528 154.081134 
L 760.677227 144.71298 
L 764.940023 154.928809 
L 766.005722 151.356679 
L 767.071421 152.930649 
L 768.13712 155.488297 
L 771.334217 147.362435 
L 772.399916 143.503023 
L 773.465615 155.107448 
L 774.531314 155.252085 
L 775.597013 132.676708 
L 778.79411 145.892596 
L 779.859809 149.465299 
L 780.925508 148.336369 
L 781.991208 144.936928 
L 783.056907 146.140056 
L 786.254004 144.584859 
L 787.319703 146.494636 
L 788.385402 138.101005 
L 789.451101 136.765182 
L 790.5168 150.198659 
L 793.713897 148.541619 
L 794.779596 149.48513 
L 795.845295 153.079625 
L 796.910994 153.851856 
L 797.976693 150.41814 
L 801.17379 155.254382 
L 802.239489 151.574475 
L 803.305188 146.085988 
L 804.370887 149.643339 
L 816.093576 154.934722 
L 817.159275 156.148791 
L 817.159275 156.148791 
" clip-path="url(#pbe656279e8)" style="fill: none; stroke: #1f77b4; stroke-width: 1.5; stroke-linecap: square"/>
   </g>
   <g id="patch_14">
    <path d="M 597.838419 163.204791 
L 597.838419 7.972791 
" style="fill: none; stroke: #000000; stroke-width: 0.8; stroke-linejoin: miter; stroke-linecap: square"/>
   </g>
   <g id="patch_15">
    <path d="M 827.603125 163.204791 
L 827.603125 7.972791 
" style="fill: none; stroke: #000000; stroke-width: 0.8; stroke-linejoin: miter; stroke-linecap: square"/>
   </g>
   <g id="patch_16">
    <path d="M 597.838419 163.204791 
L 827.603125 163.204791 
" style="fill: none; stroke: #000000; stroke-width: 0.8; stroke-linejoin: miter; stroke-linecap: square"/>
   </g>
   <g id="patch_17">
    <path d="M 597.838419 7.972791 
L 827.603125 7.972791 
" style="fill: none; stroke: #000000; stroke-width: 0.8; stroke-linejoin: miter; stroke-linecap: square"/>
   </g>
  </g>
 </g>
 <defs>
  <clipPath id="p1e3a5ba771">
   <rect x="46.403125" y="7.972791" width="229.764706" height="155.232"/>
  </clipPath>
  <clipPath id="p0f45fed4ed">
   <rect x="322.120772" y="7.972791" width="229.764706" height="155.232"/>
  </clipPath>
  <clipPath id="pbe656279e8">
   <rect x="597.838419" y="7.972791" width="229.764706" height="155.232"/>
  </clipPath>
 </defs>
</svg>
