<?xml version="1.0" encoding="utf-8" standalone="no"?>
<!DOCTYPE svg PUBLIC "-//W3C//DTD SVG 1.1//EN"
  "http://www.w3.org/Graphics/SVG/1.1/DTD/svg11.dtd">
<svg xmlns:xlink="http://www.w3.org/1999/xlink" width="834.725pt" height="184.757pt" viewBox="0 0 834.725 184.757" xmlns="http://www.w3.org/2000/svg" version="1.1">
 <metadata>
  <rdf:RDF xmlns:dc="http://purl.org/dc/elements/1.1/" xmlns:cc="http://creativecommons.org/ns#" xmlns:rdf="http://www.w3.org/1999/02/22-rdf-syntax-ns#">
   <cc:Work>
    <dc:type rdf:resource="http://purl.org/dc/dcmitype/StillImage"/>
    <dc:date>2024-12-25T17:32:57.337627</dc:date>
    <dc:format>image/svg+xml</dc:format>
    <dc:creator>
     <cc:Agent>
      <dc:title>Matplotlib v3.9.3, https://matplotlib.org/</dc:title>
     </cc:Agent>
    </dc:creator>
   </cc:Work>
  </rdf:RDF>
 </metadata>
 <defs>
  <style type="text/css">*{stroke-linejoin: round; stroke-linecap: butt}</style>
 </defs>
 <g id="figure_1">
  <g id="patch_1">
   <path d="M 0 184.757 
L 834.725 184.757 
L 834.725 0 
L 0 0 
z
" style="fill: #ffffff"/>
  </g>
  <g id="axes_1">
   <g id="patch_2">
    <path d="M 46.325 162.432 
L 276.089706 162.432 
L 276.089706 7.2 
L 46.325 7.2 
z
" style="fill: #ffffff"/>
   </g>
   <g id="matplotlib.axis_1">
    <g id="xtick_1">
     <g id="line2d_1">
      <defs>
       <path id="m572afac02e" d="M 0 0 
L 0 3.5 
" style="stroke: #000000; stroke-width: 0.8"/>
      </defs>
      <g>
       <use xlink:href="#m572afac02e" x="102.593908" y="162.432" style="stroke: #000000; stroke-width: 0.8"/>
      </g>
     </g>
     <g id="text_1">
      <!-- 2023-09-20 -->
      <g transform="translate(77.593908 176.307) scale(0.1 -0.1)">
       <defs>
        <path id="SimHei-32" d="M 300 250 
Q 325 625 650 925 
Q 975 1225 1475 1862 
Q 1975 2500 2125 2850 
Q 2275 3200 2237 3450 
Q 2200 3700 2000 3862 
Q 1800 4025 1537 4000 
Q 1275 3975 1037 3800 
Q 800 3625 675 3275 
L 200 3350 
Q 400 3925 712 4187 
Q 1025 4450 1450 4475 
Q 1700 4500 1900 4462 
Q 2100 4425 2312 4287 
Q 2525 4150 2662 3875 
Q 2800 3600 2762 3212 
Q 2725 2825 2375 2287 
Q 2025 1750 1025 600 
L 2825 600 
L 2825 150 
L 300 150 
L 300 250 
z
" transform="scale(0.015625)"/>
        <path id="SimHei-30" d="M 225 2537 
Q 250 3200 412 3587 
Q 575 3975 875 4225 
Q 1175 4475 1612 4475 
Q 2050 4475 2375 4112 
Q 2700 3750 2800 3200 
Q 2900 2650 2862 1937 
Q 2825 1225 2612 775 
Q 2400 325 1975 150 
Q 1550 -25 1125 187 
Q 700 400 525 750 
Q 350 1100 275 1487 
Q 200 1875 225 2537 
z
M 750 2687 
Q 675 2000 800 1462 
Q 925 925 1212 700 
Q 1500 475 1800 612 
Q 2100 750 2237 1162 
Q 2375 1575 2375 2062 
Q 2375 2550 2337 2950 
Q 2300 3350 2112 3675 
Q 1925 4000 1612 4012 
Q 1300 4025 1062 3700 
Q 825 3375 750 2687 
z
" transform="scale(0.015625)"/>
        <path id="SimHei-33" d="M 250 1225 
L 700 1300 
Q 800 975 1025 762 
Q 1250 550 1587 562 
Q 1925 575 2125 837 
Q 2325 1100 2300 1437 
Q 2275 1775 2037 1962 
Q 1800 2150 1275 2225 
L 1275 2550 
Q 1800 2600 2037 2825 
Q 2275 3050 2250 3412 
Q 2225 3775 1925 3937 
Q 1625 4100 1287 3975 
Q 950 3850 750 3275 
L 300 3350 
Q 450 3800 712 4100 
Q 975 4400 1425 4450 
Q 1875 4500 2212 4337 
Q 2550 4175 2687 3837 
Q 2825 3500 2725 3100 
Q 2625 2700 2150 2400 
Q 2500 2250 2687 1950 
Q 2875 1650 2812 1162 
Q 2750 675 2375 375 
Q 2000 75 1525 87 
Q 1050 100 700 387 
Q 350 675 250 1225 
z
" transform="scale(0.015625)"/>
        <path id="SimHei-2d" d="M 2975 2125 
L 125 2125 
L 125 2525 
L 2975 2525 
L 2975 2125 
z
" transform="scale(0.015625)"/>
        <path id="SimHei-39" d="M 800 75 
Q 1350 1000 1700 1750 
Q 1075 1650 662 1912 
Q 250 2175 162 2625 
Q 75 3075 175 3437 
Q 275 3800 487 4037 
Q 700 4275 1000 4375 
Q 1300 4475 1537 4475 
Q 1775 4475 2025 4375 
Q 2275 4275 2475 4075 
Q 2675 3875 2750 3662 
Q 2825 3450 2825 3112 
Q 2825 2775 2575 2250 
Q 2325 1725 1350 75 
L 800 75 
z
M 662 2875 
Q 700 2550 937 2337 
Q 1175 2125 1450 2150 
Q 1725 2175 1887 2300 
Q 2050 2425 2200 2725 
Q 2300 3100 2250 3362 
Q 2200 3625 1987 3800 
Q 1775 3975 1525 3975 
Q 1375 4000 1137 3900 
Q 900 3800 762 3500 
Q 625 3200 662 2875 
z
" transform="scale(0.015625)"/>
       </defs>
       <use xlink:href="#SimHei-32"/>
       <use xlink:href="#SimHei-30" x="50"/>
       <use xlink:href="#SimHei-32" x="100"/>
       <use xlink:href="#SimHei-33" x="150"/>
       <use xlink:href="#SimHei-2d" x="200"/>
       <use xlink:href="#SimHei-30" x="250"/>
       <use xlink:href="#SimHei-39" x="300"/>
       <use xlink:href="#SimHei-2d" x="350"/>
       <use xlink:href="#SimHei-32" x="400"/>
       <use xlink:href="#SimHei-30" x="450"/>
      </g>
     </g>
    </g>
    <g id="xtick_2">
     <g id="line2d_2">
      <g>
       <use xlink:href="#m572afac02e" x="166.535848" y="162.432" style="stroke: #000000; stroke-width: 0.8"/>
      </g>
     </g>
     <g id="text_2">
      <!-- 2023-11-19 -->
      <g transform="translate(141.535848 176.307) scale(0.1 -0.1)">
       <defs>
        <path id="SimHei-31" d="M 1400 3600 
Q 1075 3275 575 2975 
L 575 3450 
Q 1200 3875 1600 4450 
L 1900 4450 
L 1900 150 
L 1400 150 
L 1400 3600 
z
" transform="scale(0.015625)"/>
       </defs>
       <use xlink:href="#SimHei-32"/>
       <use xlink:href="#SimHei-30" x="50"/>
       <use xlink:href="#SimHei-32" x="100"/>
       <use xlink:href="#SimHei-33" x="150"/>
       <use xlink:href="#SimHei-2d" x="200"/>
       <use xlink:href="#SimHei-31" x="250"/>
       <use xlink:href="#SimHei-31" x="300"/>
       <use xlink:href="#SimHei-2d" x="350"/>
       <use xlink:href="#SimHei-31" x="400"/>
       <use xlink:href="#SimHei-39" x="450"/>
      </g>
     </g>
    </g>
    <g id="xtick_3">
     <g id="line2d_3">
      <g>
       <use xlink:href="#m572afac02e" x="230.477788" y="162.432" style="stroke: #000000; stroke-width: 0.8"/>
      </g>
     </g>
     <g id="text_3">
      <!-- 2024-01-18 -->
      <g transform="translate(205.477788 176.307) scale(0.1 -0.1)">
       <defs>
        <path id="SimHei-34" d="M 2000 1100 
L 75 1100 
L 75 1525 
L 2100 4450 
L 2475 4450 
L 2475 1525 
L 3075 1525 
L 3075 1100 
L 2475 1100 
L 2475 150 
L 2000 150 
L 2000 1100 
z
M 2000 1525 
L 2000 3500 
L 600 1525 
L 2000 1525 
z
" transform="scale(0.015625)"/>
        <path id="SimHei-38" d="M 175 1375 
Q 175 1675 325 1962 
Q 475 2250 825 2425 
Q 525 2600 425 2812 
Q 325 3025 312 3300 
Q 300 3575 387 3775 
Q 475 3975 650 4150 
Q 825 4325 1037 4387 
Q 1250 4450 1500 4450 
Q 1750 4450 1950 4400 
Q 2150 4350 2375 4187 
Q 2600 4025 2700 3725 
Q 2800 3425 2687 3025 
Q 2575 2625 2100 2400 
Q 2525 2275 2700 2012 
Q 2875 1750 2875 1375 
Q 2875 1000 2762 775 
Q 2650 550 2512 400 
Q 2375 250 2137 162 
Q 1900 75 1537 75 
Q 1175 75 912 162 
Q 650 250 475 425 
Q 300 600 237 837 
Q 175 1075 175 1375 
z
M 687 1400 
Q 675 1100 787 875 
Q 900 650 1200 587 
Q 1500 525 1825 600 
Q 2150 675 2275 950 
Q 2400 1225 2362 1500 
Q 2325 1775 2050 1962 
Q 1775 2150 1450 2125 
Q 1125 2100 912 1900 
Q 700 1700 687 1400 
z
M 775 3350 
Q 775 3100 950 2875 
Q 1125 2650 1500 2650 
Q 1875 2650 2062 2875 
Q 2250 3100 2237 3412 
Q 2225 3725 2012 3875 
Q 1800 4025 1437 4000 
Q 1075 3975 925 3787 
Q 775 3600 775 3350 
z
" transform="scale(0.015625)"/>
       </defs>
       <use xlink:href="#SimHei-32"/>
       <use xlink:href="#SimHei-30" x="50"/>
       <use xlink:href="#SimHei-32" x="100"/>
       <use xlink:href="#SimHei-34" x="150"/>
       <use xlink:href="#SimHei-2d" x="200"/>
       <use xlink:href="#SimHei-30" x="250"/>
       <use xlink:href="#SimHei-31" x="300"/>
       <use xlink:href="#SimHei-2d" x="350"/>
       <use xlink:href="#SimHei-31" x="400"/>
       <use xlink:href="#SimHei-38" x="450"/>
      </g>
     </g>
    </g>
   </g>
   <g id="matplotlib.axis_2">
    <g id="ytick_1">
     <g id="line2d_4">
      <defs>
       <path id="ma000afe530" d="M 0 0 
L -3.5 0 
" style="stroke: #000000; stroke-width: 0.8"/>
      </defs>
      <g>
       <use xlink:href="#ma000afe530" x="46.325" y="149.592603" style="stroke: #000000; stroke-width: 0.8"/>
      </g>
     </g>
     <g id="text_4">
      <!-- 0.94 -->
      <g transform="translate(19.325 153.030103) scale(0.1 -0.1)">
       <defs>
        <path id="SimHei-2e" d="M 1075 125 
L 500 125 
L 500 675 
L 1075 675 
L 1075 125 
z
" transform="scale(0.015625)"/>
       </defs>
       <use xlink:href="#SimHei-30"/>
       <use xlink:href="#SimHei-2e" x="50"/>
       <use xlink:href="#SimHei-39" x="100"/>
       <use xlink:href="#SimHei-34" x="150"/>
      </g>
     </g>
    </g>
    <g id="ytick_2">
     <g id="line2d_5">
      <g>
       <use xlink:href="#ma000afe530" x="46.325" y="123.154358" style="stroke: #000000; stroke-width: 0.8"/>
      </g>
     </g>
     <g id="text_5">
      <!-- 0.96 -->
      <g transform="translate(19.325 126.591858) scale(0.1 -0.1)">
       <defs>
        <path id="SimHei-36" d="M 250 1612 
Q 275 1975 387 2225 
Q 500 2475 725 2850 
L 1750 4450 
L 2325 4450 
L 1275 2800 
Q 1950 2975 2350 2750 
Q 2750 2525 2887 2237 
Q 3025 1950 3037 1612 
Q 3050 1275 2937 950 
Q 2825 625 2537 362 
Q 2250 100 1737 75 
Q 1225 50 862 262 
Q 500 475 362 862 
Q 225 1250 250 1612 
z
M 1025 787 
Q 1250 550 1625 525 
Q 2000 500 2250 775 
Q 2500 1050 2500 1575 
Q 2500 2100 2187 2300 
Q 1875 2500 1487 2450 
Q 1100 2400 925 2075 
Q 750 1750 775 1387 
Q 800 1025 1025 787 
z
" transform="scale(0.015625)"/>
       </defs>
       <use xlink:href="#SimHei-30"/>
       <use xlink:href="#SimHei-2e" x="50"/>
       <use xlink:href="#SimHei-39" x="100"/>
       <use xlink:href="#SimHei-36" x="150"/>
      </g>
     </g>
    </g>
    <g id="ytick_3">
     <g id="line2d_6">
      <g>
       <use xlink:href="#ma000afe530" x="46.325" y="96.716113" style="stroke: #000000; stroke-width: 0.8"/>
      </g>
     </g>
     <g id="text_6">
      <!-- 0.98 -->
      <g transform="translate(19.325 100.153613) scale(0.1 -0.1)">
       <use xlink:href="#SimHei-30"/>
       <use xlink:href="#SimHei-2e" x="50"/>
       <use xlink:href="#SimHei-39" x="100"/>
       <use xlink:href="#SimHei-38" x="150"/>
      </g>
     </g>
    </g>
    <g id="ytick_4">
     <g id="line2d_7">
      <g>
       <use xlink:href="#ma000afe530" x="46.325" y="70.277869" style="stroke: #000000; stroke-width: 0.8"/>
      </g>
     </g>
     <g id="text_7">
      <!-- 1.00 -->
      <g transform="translate(19.325 73.715369) scale(0.1 -0.1)">
       <use xlink:href="#SimHei-31"/>
       <use xlink:href="#SimHei-2e" x="50"/>
       <use xlink:href="#SimHei-30" x="100"/>
       <use xlink:href="#SimHei-30" x="150"/>
      </g>
     </g>
    </g>
    <g id="ytick_5">
     <g id="line2d_8">
      <g>
       <use xlink:href="#ma000afe530" x="46.325" y="43.839624" style="stroke: #000000; stroke-width: 0.8"/>
      </g>
     </g>
     <g id="text_8">
      <!-- 1.02 -->
      <g transform="translate(19.325 47.277124) scale(0.1 -0.1)">
       <use xlink:href="#SimHei-31"/>
       <use xlink:href="#SimHei-2e" x="50"/>
       <use xlink:href="#SimHei-30" x="100"/>
       <use xlink:href="#SimHei-32" x="150"/>
      </g>
     </g>
    </g>
    <g id="ytick_6">
     <g id="line2d_9">
      <g>
       <use xlink:href="#ma000afe530" x="46.325" y="17.401379" style="stroke: #000000; stroke-width: 0.8"/>
      </g>
     </g>
     <g id="text_9">
      <!-- 1.04 -->
      <g transform="translate(19.325 20.838879) scale(0.1 -0.1)">
       <use xlink:href="#SimHei-31"/>
       <use xlink:href="#SimHei-2e" x="50"/>
       <use xlink:href="#SimHei-30" x="100"/>
       <use xlink:href="#SimHei-34" x="150"/>
      </g>
     </g>
    </g>
    <g id="text_10">
     <!-- CVaR-MinRisk -->
     <g transform="translate(14.075 114.816) rotate(-90) scale(0.1 -0.1)">
      <defs>
       <path id="SimHei-43" d="M 2975 1825 
Q 2950 875 2575 475 
Q 2200 75 1675 75 
Q 1075 75 650 562 
Q 225 1050 225 2125 
Q 225 3300 637 3875 
Q 1050 4450 1700 4450 
Q 2250 4450 2612 4037 
Q 2975 3625 2950 2875 
L 2400 2875 
Q 2400 3425 2225 3700 
Q 2050 3975 1700 3975 
Q 1300 3975 1062 3562 
Q 825 3150 825 2175 
Q 825 1275 1062 912 
Q 1300 550 1675 550 
Q 1950 550 2175 812 
Q 2400 1075 2400 1825 
L 2975 1825 
z
" transform="scale(0.015625)"/>
       <path id="SimHei-56" d="M 3050 4400 
L 1800 75 
L 1300 75 
L 50 4400 
L 650 4400 
L 1525 1125 
L 1575 1125 
L 2450 4400 
L 3050 4400 
z
" transform="scale(0.015625)"/>
       <path id="SimHei-61" d="M 2875 125 
L 2275 125 
Q 2225 175 2200 262 
Q 2175 350 2175 475 
Q 2000 275 1750 175 
Q 1500 75 1225 75 
Q 825 75 550 275 
Q 275 475 275 850 
Q 275 1225 525 1450 
Q 775 1675 1300 1750 
Q 1650 1800 1912 1875 
Q 2175 1950 2175 2075 
Q 2175 2225 2062 2375 
Q 1950 2525 1575 2525 
Q 1275 2525 1137 2412 
Q 1000 2300 950 2100 
L 400 2100 
Q 450 2500 762 2737 
Q 1075 2975 1575 2975 
Q 2125 2975 2400 2725 
Q 2675 2475 2675 2025 
L 2675 650 
Q 2675 500 2725 375 
Q 2775 250 2875 125 
z
M 2175 1050 
L 2175 1550 
Q 2025 1500 1887 1462 
Q 1750 1425 1425 1375 
Q 1050 1325 937 1200 
Q 825 1075 825 900 
Q 825 750 937 637 
Q 1050 525 1275 525 
Q 1500 525 1762 650 
Q 2025 775 2175 1050 
z
" transform="scale(0.015625)"/>
       <path id="SimHei-52" d="M 3000 125 
L 2400 125 
L 1500 1975 
L 850 1975 
L 850 125 
L 275 125 
L 275 4400 
L 1525 4400 
Q 2125 4400 2500 4112 
Q 2875 3825 2875 3175 
Q 2875 2675 2625 2400 
Q 2375 2125 2050 2050 
L 3000 125 
z
M 2300 3175 
Q 2300 3525 2087 3725 
Q 1875 3925 1400 3925 
L 850 3925 
L 850 2450 
L 1550 2450 
Q 1850 2450 2075 2612 
Q 2300 2775 2300 3175 
z
" transform="scale(0.015625)"/>
       <path id="SimHei-4d" d="M 2925 125 
L 2425 125 
L 2425 3175 
L 2375 3175 
L 1775 125 
L 1375 125 
L 775 3175 
L 725 3175 
L 725 125 
L 225 125 
L 225 4400 
L 1000 4400 
L 1550 1575 
L 1600 1575 
L 2150 4400 
L 2925 4400 
L 2925 125 
z
" transform="scale(0.015625)"/>
       <path id="SimHei-69" d="M 1800 3725 
L 1300 3725 
L 1300 4375 
L 1800 4375 
L 1800 3725 
z
M 1800 125 
L 1300 125 
L 1300 2925 
L 1800 2925 
L 1800 125 
z
" transform="scale(0.015625)"/>
       <path id="SimHei-6e" d="M 2800 125 
L 2300 125 
L 2300 1925 
Q 2300 2225 2150 2400 
Q 2000 2575 1750 2575 
Q 1425 2575 1137 2237 
Q 850 1900 850 1400 
L 850 125 
L 350 125 
L 350 2925 
L 850 2925 
L 850 2400 
Q 1050 2675 1287 2825 
Q 1525 2975 1900 2975 
Q 2350 2975 2575 2725 
Q 2800 2475 2800 2100 
L 2800 125 
z
" transform="scale(0.015625)"/>
       <path id="SimHei-73" d="M 2750 900 
Q 2750 500 2437 287 
Q 2125 75 1650 75 
Q 1050 75 725 312 
Q 400 550 400 1000 
L 900 1000 
Q 900 700 1112 600 
Q 1325 500 1625 500 
Q 1925 500 2075 612 
Q 2225 725 2225 900 
Q 2225 1025 2100 1150 
Q 1975 1275 1475 1350 
Q 900 1425 687 1637 
Q 475 1850 475 2200 
Q 475 2500 762 2737 
Q 1050 2975 1600 2975 
Q 2100 2975 2387 2750 
Q 2675 2525 2675 2150 
L 2175 2150 
Q 2175 2375 2012 2462 
Q 1850 2550 1600 2550 
Q 1275 2550 1137 2437 
Q 1000 2325 1000 2175 
Q 1000 2000 1125 1900 
Q 1250 1800 1650 1750 
Q 2300 1650 2525 1437 
Q 2750 1225 2750 900 
z
" transform="scale(0.015625)"/>
       <path id="SimHei-6b" d="M 2925 125 
L 2350 125 
L 1450 1650 
L 875 1100 
L 875 125 
L 375 125 
L 375 4400 
L 875 4400 
L 875 1675 
L 2125 2925 
L 2750 2925 
L 1775 1975 
L 2925 125 
z
" transform="scale(0.015625)"/>
      </defs>
      <use xlink:href="#SimHei-43"/>
      <use xlink:href="#SimHei-56" x="50"/>
      <use xlink:href="#SimHei-61" x="100"/>
      <use xlink:href="#SimHei-52" x="150"/>
      <use xlink:href="#SimHei-2d" x="200"/>
      <use xlink:href="#SimHei-4d" x="250"/>
      <use xlink:href="#SimHei-69" x="300"/>
      <use xlink:href="#SimHei-6e" x="350"/>
      <use xlink:href="#SimHei-52" x="400"/>
      <use xlink:href="#SimHei-69" x="450"/>
      <use xlink:href="#SimHei-73" x="500"/>
      <use xlink:href="#SimHei-6b" x="550"/>
     </g>
    </g>
   </g>
   <g id="line2d_10">
    <path d="M 56.76885 73.582649 
L 57.834549 77.877159 
L 58.900248 72.687808 
L 59.965947 101.297063 
L 63.163044 107.11718 
L 64.228743 102.360077 
L 65.294442 114.812524 
L 66.360141 104.795838 
L 67.42584 116.01535 
L 70.622937 132.377349 
L 71.688636 124.308418 
L 72.754335 137.487777 
L 73.820034 137.568059 
L 74.885733 128.494169 
L 78.08283 125.409211 
L 79.148529 122.804037 
L 80.214228 117.088243 
L 81.279927 112.699099 
L 82.345626 120.167622 
L 85.542723 114.827269 
L 86.608422 110.454147 
L 87.674121 111.649183 
L 88.73982 124.801461 
L 89.805519 127.637871 
L 93.002617 117.343831 
L 94.068316 117.064723 
L 95.134015 123.275514 
L 96.199714 114.212971 
L 97.265413 121.353991 
L 100.46251 127.49624 
L 101.528209 127.975759 
L 102.593908 135.103171 
L 103.659607 144.67716 
L 104.725306 128.808222 
L 107.922403 127.799404 
L 108.988102 133.522418 
L 110.053801 143.022929 
L 111.1195 135.080398 
L 122.842189 121.974965 
L 123.907888 124.359394 
L 124.973587 125.032749 
L 126.039286 111.880786 
L 127.104985 117.388185 
L 130.302082 116.035325 
L 131.367781 108.012706 
L 132.43348 112.336636 
L 133.499179 129.621783 
L 134.564878 142.622364 
L 137.761975 155.376 
L 138.827674 141.80745 
L 139.893373 143.788348 
L 140.959072 127.906292 
L 142.024771 119.001654 
L 145.221868 114.103668 
L 146.287567 111.882786 
L 147.353266 107.201082 
L 148.418965 107.477964 
L 149.484664 106.032459 
L 152.681761 113.662485 
L 153.74746 114.742574 
L 154.813159 116.376699 
L 155.878858 111.28641 
L 156.944557 114.080453 
L 160.141654 118.777892 
L 161.207353 125.157895 
L 162.273052 111.936296 
L 163.338751 114.99564 
L 164.40445 116.749941 
L 167.601547 111.223463 
L 168.667246 113.087996 
L 169.732945 117.652365 
L 170.798644 114.134776 
L 171.864343 116.62001 
L 175.06144 116.855591 
L 176.127139 120.308271 
L 177.192838 126.476867 
L 178.258537 116.14131 
L 179.324236 131.154392 
L 182.521333 130.98931 
L 183.587032 144.51497 
L 184.652731 149.191268 
L 185.71843 148.372247 
L 186.784129 149.635183 
L 189.981226 140.408166 
L 191.046925 128.872961 
L 192.112624 135.942387 
L 193.178323 135.115963 
L 194.244022 147.406984 
L 197.441119 141.677676 
L 198.506818 136.36601 
L 199.572517 136.193341 
L 200.638216 132.712119 
L 201.703915 134.198631 
L 204.901012 125.110947 
L 207.03241 121.169749 
L 208.098109 118.278957 
L 209.163808 109.729042 
L 213.426604 105.8238 
L 214.492303 98.374981 
L 215.558002 101.714504 
L 216.623701 106.518072 
L 219.820798 116.530692 
L 220.886497 117.133564 
L 221.952196 126.840401 
L 223.017895 131.405453 
L 224.083594 119.960672 
L 227.280691 118.896802 
L 228.34639 110.971579 
L 229.412089 128.375818 
L 230.477788 120.877788 
L 231.543487 120.704215 
L 234.740584 138.915554 
L 235.806283 138.414411 
L 236.871982 107.739311 
L 237.937681 91.23192 
L 239.00338 88.91683 
L 242.200477 86.051195 
L 243.266176 103.401831 
L 244.331875 99.46312 
L 245.397574 103.221936 
L 246.463273 103.427744 
L 249.660371 80.830569 
L 250.72607 62.044718 
L 251.791769 58.187498 
L 252.857468 57.023818 
L 264.580157 28.701545 
L 265.645856 14.256 
L 265.645856 14.256 
" clip-path="url(#p1376b74d57)" style="fill: none; stroke: #1f77b4; stroke-width: 1.5; stroke-linecap: square"/>
   </g>
   <g id="patch_3">
    <path d="M 46.325 162.432 
L 46.325 7.2 
" style="fill: none; stroke: #000000; stroke-width: 0.8; stroke-linejoin: miter; stroke-linecap: square"/>
   </g>
   <g id="patch_4">
    <path d="M 276.089706 162.432 
L 276.089706 7.2 
" style="fill: none; stroke: #000000; stroke-width: 0.8; stroke-linejoin: miter; stroke-linecap: square"/>
   </g>
   <g id="patch_5">
    <path d="M 46.325 162.432 
L 276.089706 162.432 
" style="fill: none; stroke: #000000; stroke-width: 0.8; stroke-linejoin: miter; stroke-linecap: square"/>
   </g>
   <g id="patch_6">
    <path d="M 46.325 7.2 
L 276.089706 7.2 
" style="fill: none; stroke: #000000; stroke-width: 0.8; stroke-linejoin: miter; stroke-linecap: square"/>
   </g>
  </g>
  <g id="axes_2">
   <g id="patch_7">
    <path d="M 322.042647 162.432 
L 551.807353 162.432 
L 551.807353 7.2 
L 322.042647 7.2 
z
" style="fill: #ffffff"/>
   </g>
   <g id="matplotlib.axis_3">
    <g id="xtick_4">
     <g id="line2d_11">
      <g>
       <use xlink:href="#m572afac02e" x="379.377254" y="162.432" style="stroke: #000000; stroke-width: 0.8"/>
      </g>
     </g>
     <g id="text_11">
      <!-- 2023-09-20 -->
      <g transform="translate(354.377254 176.307) scale(0.1 -0.1)">
       <use xlink:href="#SimHei-32"/>
       <use xlink:href="#SimHei-30" x="50"/>
       <use xlink:href="#SimHei-32" x="100"/>
       <use xlink:href="#SimHei-33" x="150"/>
       <use xlink:href="#SimHei-2d" x="200"/>
       <use xlink:href="#SimHei-30" x="250"/>
       <use xlink:href="#SimHei-39" x="300"/>
       <use xlink:href="#SimHei-2d" x="350"/>
       <use xlink:href="#SimHei-32" x="400"/>
       <use xlink:href="#SimHei-30" x="450"/>
      </g>
     </g>
    </g>
    <g id="xtick_5">
     <g id="line2d_12">
      <g>
       <use xlink:href="#m572afac02e" x="443.319194" y="162.432" style="stroke: #000000; stroke-width: 0.8"/>
      </g>
     </g>
     <g id="text_12">
      <!-- 2023-11-19 -->
      <g transform="translate(418.319194 176.307) scale(0.1 -0.1)">
       <use xlink:href="#SimHei-32"/>
       <use xlink:href="#SimHei-30" x="50"/>
       <use xlink:href="#SimHei-32" x="100"/>
       <use xlink:href="#SimHei-33" x="150"/>
       <use xlink:href="#SimHei-2d" x="200"/>
       <use xlink:href="#SimHei-31" x="250"/>
       <use xlink:href="#SimHei-31" x="300"/>
       <use xlink:href="#SimHei-2d" x="350"/>
       <use xlink:href="#SimHei-31" x="400"/>
       <use xlink:href="#SimHei-39" x="450"/>
      </g>
     </g>
    </g>
    <g id="xtick_6">
     <g id="line2d_13">
      <g>
       <use xlink:href="#m572afac02e" x="507.261134" y="162.432" style="stroke: #000000; stroke-width: 0.8"/>
      </g>
     </g>
     <g id="text_13">
      <!-- 2024-01-18 -->
      <g transform="translate(482.261134 176.307) scale(0.1 -0.1)">
       <use xlink:href="#SimHei-32"/>
       <use xlink:href="#SimHei-30" x="50"/>
       <use xlink:href="#SimHei-32" x="100"/>
       <use xlink:href="#SimHei-34" x="150"/>
       <use xlink:href="#SimHei-2d" x="200"/>
       <use xlink:href="#SimHei-30" x="250"/>
       <use xlink:href="#SimHei-31" x="300"/>
       <use xlink:href="#SimHei-2d" x="350"/>
       <use xlink:href="#SimHei-31" x="400"/>
       <use xlink:href="#SimHei-38" x="450"/>
      </g>
     </g>
    </g>
   </g>
   <g id="matplotlib.axis_4">
    <g id="ytick_7">
     <g id="line2d_14">
      <g>
       <use xlink:href="#ma000afe530" x="322.042647" y="155.376" style="stroke: #000000; stroke-width: 0.8"/>
      </g>
     </g>
     <g id="text_14">
      <!-- 0.0 -->
      <g transform="translate(300.042647 158.8135) scale(0.1 -0.1)">
       <use xlink:href="#SimHei-30"/>
       <use xlink:href="#SimHei-2e" x="50"/>
       <use xlink:href="#SimHei-30" x="100"/>
      </g>
     </g>
    </g>
    <g id="ytick_8">
     <g id="line2d_15">
      <g>
       <use xlink:href="#ma000afe530" x="322.042647" y="127.152" style="stroke: #000000; stroke-width: 0.8"/>
      </g>
     </g>
     <g id="text_15">
      <!-- 0.2 -->
      <g transform="translate(300.042647 130.5895) scale(0.1 -0.1)">
       <use xlink:href="#SimHei-30"/>
       <use xlink:href="#SimHei-2e" x="50"/>
       <use xlink:href="#SimHei-32" x="100"/>
      </g>
     </g>
    </g>
    <g id="ytick_9">
     <g id="line2d_16">
      <g>
       <use xlink:href="#ma000afe530" x="322.042647" y="98.928" style="stroke: #000000; stroke-width: 0.8"/>
      </g>
     </g>
     <g id="text_16">
      <!-- 0.4 -->
      <g transform="translate(300.042647 102.3655) scale(0.1 -0.1)">
       <use xlink:href="#SimHei-30"/>
       <use xlink:href="#SimHei-2e" x="50"/>
       <use xlink:href="#SimHei-34" x="100"/>
      </g>
     </g>
    </g>
    <g id="ytick_10">
     <g id="line2d_17">
      <g>
       <use xlink:href="#ma000afe530" x="322.042647" y="70.704" style="stroke: #000000; stroke-width: 0.8"/>
      </g>
     </g>
     <g id="text_17">
      <!-- 0.6 -->
      <g transform="translate(300.042647 74.1415) scale(0.1 -0.1)">
       <use xlink:href="#SimHei-30"/>
       <use xlink:href="#SimHei-2e" x="50"/>
       <use xlink:href="#SimHei-36" x="100"/>
      </g>
     </g>
    </g>
    <g id="ytick_11">
     <g id="line2d_18">
      <g>
       <use xlink:href="#ma000afe530" x="322.042647" y="42.48" style="stroke: #000000; stroke-width: 0.8"/>
      </g>
     </g>
     <g id="text_18">
      <!-- 0.8 -->
      <g transform="translate(300.042647 45.9175) scale(0.1 -0.1)">
       <use xlink:href="#SimHei-30"/>
       <use xlink:href="#SimHei-2e" x="50"/>
       <use xlink:href="#SimHei-38" x="100"/>
      </g>
     </g>
    </g>
    <g id="ytick_12">
     <g id="line2d_19">
      <g>
       <use xlink:href="#ma000afe530" x="322.042647" y="14.256" style="stroke: #000000; stroke-width: 0.8"/>
      </g>
     </g>
     <g id="text_19">
      <!-- 1.0 -->
      <g transform="translate(300.042647 17.6935) scale(0.1 -0.1)">
       <use xlink:href="#SimHei-31"/>
       <use xlink:href="#SimHei-2e" x="50"/>
       <use xlink:href="#SimHei-30" x="100"/>
      </g>
     </g>
    </g>
   </g>
   <g id="line2d_20">
    <path d="M 332.486497 155.376 
L 333.552196 140.267878 
L 339.94639 140.267878 
L 341.012089 139.882641 
L 348.471982 139.882641 
L 349.537681 140.17067 
L 365.523167 140.17067 
L 366.588866 140.365814 
L 369.785963 140.701119 
L 387.902846 140.701119 
L 399.625535 144.750288 
L 400.691234 138.006939 
L 408.151127 138.006939 
L 409.216826 139.581512 
L 410.282525 139.581512 
L 411.348224 138.323278 
L 414.545321 141.537277 
L 430.530806 141.537277 
L 431.596505 138.771206 
L 433.727903 138.771206 
L 436.925 140.902712 
L 437.990699 141.414327 
L 439.056398 140.557263 
L 441.187796 140.557262 
L 444.384893 144.908293 
L 452.910485 144.908293 
L 453.976184 146.559923 
L 459.304679 146.559923 
L 460.370378 151.293522 
L 461.436077 151.293522 
L 462.501776 149.710107 
L 482.750057 149.710104 
L 483.815756 149.428456 
L 491.275649 149.428456 
L 492.341348 146.133094 
L 507.261134 146.133094 
L 508.326833 145.885887 
L 512.589629 145.885885 
L 513.655328 143.16253 
L 521.115222 143.16253 
L 522.180921 143.473577 
L 541.363503 143.473577 
L 541.363503 143.473577 
" clip-path="url(#p8f0e1ded08)" style="fill: none; stroke: #1f77b4; stroke-width: 1.5; stroke-linecap: square"/>
   </g>
   <g id="line2d_21">
    <path d="M 332.486497 155.376 
L 333.552196 153.917914 
L 339.94639 153.917914 
L 341.012089 153.26807 
L 348.471982 153.26807 
L 349.537681 152.69806 
L 365.523167 152.69806 
L 366.588866 154.142142 
L 371.917361 153.977292 
L 387.902846 153.977293 
L 399.625535 151.870889 
L 400.691234 152.020124 
L 408.151127 152.020124 
L 409.216826 151.769327 
L 410.282525 151.769327 
L 411.348224 155.301683 
L 418.808117 155.376 
L 430.530806 155.376 
L 431.596505 151.16129 
L 433.727903 151.16129 
L 436.925 150.360116 
L 437.990699 148.164264 
L 439.056398 147.948968 
L 441.187796 147.948968 
L 444.384893 142.610906 
L 452.910485 142.610906 
L 453.976184 142.263328 
L 459.304679 142.263328 
L 460.370378 140.074677 
L 461.436077 140.074677 
L 462.501776 140.819416 
L 491.275649 140.815266 
L 492.341348 145.725293 
L 507.261134 145.725293 
L 508.326833 146.296343 
L 512.589629 146.296345 
L 513.655328 150.776189 
L 521.115222 150.776189 
L 522.180921 144.924908 
L 541.363503 144.924908 
L 541.363503 144.924908 
" clip-path="url(#p8f0e1ded08)" style="fill: none; stroke: #ff7f0e; stroke-width: 1.5; stroke-linecap: square"/>
   </g>
   <g id="line2d_22">
    <path d="M 332.486497 155.376 
L 333.552196 138.069389 
L 339.94639 138.069389 
L 341.012089 139.511629 
L 348.471982 139.511629 
L 349.537681 139.214084 
L 365.523167 139.214084 
L 366.588866 135.238513 
L 372.98306 135.325937 
L 387.902846 135.325937 
L 399.625535 136.791512 
L 400.691234 138.327704 
L 408.151127 138.327704 
L 409.216826 141.135541 
L 410.282525 141.13554 
L 411.348224 141.904155 
L 414.545321 143.832331 
L 430.530806 143.832331 
L 431.596505 143.996811 
L 433.727903 143.996811 
L 436.925 141.980915 
L 437.990699 144.760057 
L 439.056398 144.383303 
L 441.187796 144.383302 
L 444.384893 149.722813 
L 452.910485 149.722813 
L 453.976184 151.179559 
L 459.304679 151.179559 
L 460.370378 151.926189 
L 461.436077 151.92619 
L 462.501776 150.689038 
L 482.750057 150.689038 
L 483.815756 150.433997 
L 491.275649 150.433997 
L 492.341348 148.741144 
L 507.261134 148.741144 
L 508.326833 148.117971 
L 512.589629 148.11797 
L 513.655328 143.5777 
L 521.115222 143.5777 
L 522.180921 145.146684 
L 541.363503 145.146684 
L 541.363503 145.146684 
" clip-path="url(#p8f0e1ded08)" style="fill: none; stroke: #2ca02c; stroke-width: 1.5; stroke-linecap: square"/>
   </g>
   <g id="line2d_23">
    <path d="M 332.486497 155.376 
L 333.552196 150.797059 
L 339.94639 150.797059 
L 341.012089 149.374377 
L 348.471982 149.374377 
L 349.537681 150.565803 
L 365.523167 150.565803 
L 366.588866 151.346571 
L 369.785963 151.974794 
L 387.902846 151.974794 
L 399.625535 155.376 
L 410.282525 155.376 
L 411.348224 152.873341 
L 414.545321 153.640919 
L 430.530806 153.640919 
L 431.596505 152.520284 
L 433.727903 152.520284 
L 436.925 151.834046 
L 437.990699 155.376 
L 439.056398 153.194033 
L 441.187796 153.194032 
L 444.384893 155.376 
L 459.304679 155.376 
L 460.370378 154.299978 
L 461.436077 154.299978 
L 462.501776 153.429564 
L 482.750057 153.429563 
L 483.815756 153.100587 
L 491.275649 153.100587 
L 492.341348 155.376 
L 512.589629 155.376 
L 513.655328 152.86614 
L 521.115222 152.86614 
L 522.180921 155.376 
L 541.363503 155.376 
L 541.363503 155.376 
" clip-path="url(#p8f0e1ded08)" style="fill: none; stroke: #d62728; stroke-width: 1.5; stroke-linecap: square"/>
   </g>
   <g id="line2d_24">
    <path d="M 332.486497 155.376 
L 365.523167 155.376 
L 366.588866 153.810544 
L 369.785963 153.215665 
L 387.902846 153.215665 
L 399.625535 151.618742 
L 400.691234 149.734499 
L 408.151127 149.734499 
L 409.216826 151.492918 
L 410.282525 151.492919 
L 411.348224 155.376 
L 430.530806 155.376 
L 431.596505 155.080089 
L 433.727903 155.080089 
L 436.925 155.376 
L 437.990699 151.636985 
L 439.056398 153.096957 
L 441.187796 153.096958 
L 444.384893 145.981239 
L 452.910485 145.981239 
L 453.976184 145.329032 
L 459.304679 145.329032 
L 460.370378 145.114034 
L 461.436077 145.114034 
L 462.501776 147.32452 
L 482.750057 147.324522 
L 483.815756 148.007205 
L 491.275649 148.007205 
L 492.341348 146.24499 
L 507.261134 146.24499 
L 508.326833 146.629329 
L 512.589629 146.629331 
L 513.655328 155.376 
L 541.363503 155.376 
L 541.363503 155.376 
" clip-path="url(#p8f0e1ded08)" style="fill: none; stroke: #9467bd; stroke-width: 1.5; stroke-linecap: square"/>
   </g>
   <g id="line2d_25">
    <path d="M 332.486497 155.376 
L 399.625535 155.376 
L 400.691234 151.376971 
L 408.151127 151.376971 
L 409.216826 150.886721 
L 410.282525 150.886721 
L 411.348224 152.257358 
L 414.545321 150.936952 
L 430.530806 150.936952 
L 431.596505 149.006998 
L 433.727903 149.006998 
L 436.925 155.376 
L 541.363503 155.376 
L 541.363503 155.376 
" clip-path="url(#p8f0e1ded08)" style="fill: none; stroke: #8c564b; stroke-width: 1.5; stroke-linecap: square"/>
   </g>
   <g id="line2d_26">
    <path d="M 332.486497 155.376 
L 333.552196 134.554115 
L 339.94639 134.554115 
L 341.012089 137.763987 
L 348.471982 137.763987 
L 349.537681 136.99328 
L 365.523167 136.993279 
L 366.588866 136.264649 
L 369.785963 135.663847 
L 387.902846 135.663847 
L 399.625535 128.244152 
L 400.691234 141.417911 
L 408.151127 141.417911 
L 409.216826 140.276885 
L 410.282525 140.276885 
L 411.348224 133.10075 
L 414.545321 127.361066 
L 430.530806 127.361066 
L 431.596505 135.903415 
L 433.727903 135.903415 
L 436.925 135.76657 
L 437.990699 128.745477 
L 439.056398 131.304059 
L 441.187796 131.30406 
L 444.384893 137.062299 
L 452.910485 137.062299 
L 453.976184 134.909508 
L 459.304679 134.909508 
L 460.370378 129.61717 
L 461.436077 129.61717 
L 462.501776 132.679891 
L 482.750057 132.6799 
L 483.815756 133.272165 
L 491.275649 133.272165 
L 492.341348 136.34846 
L 507.261134 136.34846 
L 508.326833 136.823507 
L 512.589629 136.823505 
L 513.655328 131.534692 
L 521.115222 131.534692 
L 522.180921 137.336149 
L 541.363503 137.336149 
L 541.363503 137.336149 
" clip-path="url(#p8f0e1ded08)" style="fill: none; stroke: #e377c2; stroke-width: 1.5; stroke-linecap: square"/>
   </g>
   <g id="line2d_27">
    <path d="M 332.486497 155.376 
L 333.552196 92.406463 
L 339.94639 92.406463 
L 341.012089 79.176291 
L 348.471982 79.176291 
L 349.537681 80.598611 
L 365.523167 80.598612 
L 366.588866 102.26186 
L 370.851662 102.586138 
L 387.902846 102.586138 
L 399.625535 107.226562 
L 400.691234 98.497394 
L 408.151127 98.497393 
L 409.216826 92.72899 
L 410.282525 92.728989 
L 411.348224 90.215894 
L 414.545321 99.290037 
L 430.530806 99.290037 
L 431.596505 93.814807 
L 433.727903 93.814807 
L 436.925 82.559168 
L 437.990699 87.890835 
L 439.056398 87.396517 
L 441.187796 87.396518 
L 444.384893 82.331665 
L 452.910485 82.331665 
L 453.976184 81.724945 
L 459.304679 81.724945 
L 460.370378 85.655736 
L 461.436077 85.655737 
L 462.501776 82.380491 
L 482.750057 82.380482 
L 483.815756 81.814673 
L 491.275649 81.814673 
L 492.341348 76.639842 
L 507.261134 76.639841 
L 508.326833 75.897384 
L 512.589629 75.897384 
L 513.655328 77.090988 
L 521.115222 77.090988 
L 522.180921 72.521068 
L 541.363503 72.521068 
L 541.363503 72.521068 
" clip-path="url(#p8f0e1ded08)" style="fill: none; stroke: #7f7f7f; stroke-width: 1.5; stroke-linecap: square"/>
   </g>
   <g id="line2d_28">
    <path d="M 332.486497 155.376 
L 333.552196 147.698328 
L 339.94639 147.698328 
L 341.012089 149.575942 
L 348.471982 149.575942 
L 349.537681 149.165866 
L 365.523167 149.165866 
L 366.588866 145.486473 
L 370.851662 145.698045 
L 387.902846 145.698045 
L 399.625535 144.132044 
L 400.691234 141.029743 
L 408.151127 141.029743 
L 409.216826 138.426902 
L 410.282525 138.426902 
L 411.348224 139.174327 
L 414.545321 135.866603 
L 430.530806 135.866602 
L 431.596505 139.141213 
L 433.727903 139.141213 
L 436.925 143.108473 
L 437.990699 143.900055 
L 440.122097 144.006901 
L 441.187796 144.006901 
L 446.516291 143.894786 
L 452.910485 143.894786 
L 453.976184 144.545705 
L 459.304679 144.545705 
L 460.370378 143.906694 
L 461.436077 143.906694 
L 462.501776 144.854973 
L 482.750057 144.854976 
L 483.815756 145.015651 
L 491.275649 145.015651 
L 492.341348 146.679177 
L 507.261134 146.679177 
L 508.326833 146.86158 
L 512.589629 146.86158 
L 513.655328 147.50376 
L 521.115222 147.50376 
L 522.180921 147.733615 
L 541.363503 147.733615 
L 541.363503 147.733615 
" clip-path="url(#p8f0e1ded08)" style="fill: none; stroke: #bcbd22; stroke-width: 1.5; stroke-linecap: square"/>
   </g>
   <g id="line2d_29">
    <path d="M 332.486497 155.376 
L 333.552196 144.176854 
L 339.94639 144.176854 
L 341.012089 153.335064 
L 348.471982 153.335064 
L 349.537681 152.481626 
L 365.523167 152.481625 
L 366.588866 138.347434 
L 370.851662 138.121162 
L 387.902846 138.121162 
L 399.625535 137.253809 
L 400.691234 146.852716 
L 408.151127 146.852715 
L 409.216826 150.965205 
L 410.282525 150.965205 
L 411.348224 154.113215 
L 414.545321 149.422814 
L 430.530806 149.422814 
L 431.596505 153.243887 
L 433.727903 153.243887 
L 436.925 155.376 
L 541.363503 155.376 
L 541.363503 155.376 
" clip-path="url(#p8f0e1ded08)" style="fill: none; stroke: #17becf; stroke-width: 1.5; stroke-linecap: square"/>
   </g>
   <g id="line2d_30">
    <path d="M 332.486497 14.256 
L 333.552196 155.376 
L 541.363503 155.376 
L 541.363503 155.376 
" clip-path="url(#p8f0e1ded08)" style="fill: none; stroke: #1f77b4; stroke-width: 1.5; stroke-linecap: square"/>
   </g>
   <g id="patch_8">
    <path d="M 322.042647 162.432 
L 322.042647 7.2 
" style="fill: none; stroke: #000000; stroke-width: 0.8; stroke-linejoin: miter; stroke-linecap: square"/>
   </g>
   <g id="patch_9">
    <path d="M 551.807353 162.432 
L 551.807353 7.2 
" style="fill: none; stroke: #000000; stroke-width: 0.8; stroke-linejoin: miter; stroke-linecap: square"/>
   </g>
   <g id="patch_10">
    <path d="M 322.042647 162.432 
L 551.807353 162.432 
" style="fill: none; stroke: #000000; stroke-width: 0.8; stroke-linejoin: miter; stroke-linecap: square"/>
   </g>
   <g id="patch_11">
    <path d="M 322.042647 7.2 
L 551.807353 7.2 
" style="fill: none; stroke: #000000; stroke-width: 0.8; stroke-linejoin: miter; stroke-linecap: square"/>
   </g>
   <g id="legend_1">
    <g id="patch_12">
     <path d="M 329.042647 148.60625 
L 416.042647 148.60625 
Q 418.042647 148.60625 418.042647 146.60625 
L 418.042647 14.2 
Q 418.042647 12.2 416.042647 12.2 
L 329.042647 12.2 
Q 327.042647 12.2 327.042647 14.2 
L 327.042647 146.60625 
Q 327.042647 148.60625 329.042647 148.60625 
z
" style="fill: #ffffff; opacity: 0.8; stroke: #cccccc; stroke-linejoin: miter"/>
    </g>
    <g id="line2d_31">
     <path d="M 331.042647 19.73125 
L 341.042647 19.73125 
L 351.042647 19.73125 
" style="fill: none; stroke: #1f77b4; stroke-width: 1.5; stroke-linecap: square"/>
    </g>
    <g id="text_20">
     <!-- w_002027.SZ -->
     <g transform="translate(359.042647 23.23125) scale(0.1 -0.1)">
      <defs>
       <path id="SimHei-77" d="M 3075 2925 
L 2450 75 
L 1975 75 
L 1575 2250 
L 1525 2250 
L 1125 75 
L 650 75 
L 25 2925 
L 550 2925 
L 875 1050 
L 925 1050 
L 1275 2925 
L 1825 2925 
L 2175 1050 
L 2225 1050 
L 2550 2925 
L 3075 2925 
z
" transform="scale(0.015625)"/>
       <path id="SimHei-5f" d="M 3150 -850 
L 0 -850 
L 0 -550 
L 3150 -550 
L 3150 -850 
z
" transform="scale(0.015625)"/>
       <path id="SimHei-37" d="M 850 150 
Q 1300 2050 2425 3925 
L 275 3925 
L 275 4375 
L 2950 4375 
L 2950 3950 
Q 1775 2050 1400 150 
L 850 150 
z
" transform="scale(0.015625)"/>
       <path id="SimHei-53" d="M 2900 1325 
Q 2900 750 2537 412 
Q 2175 75 1550 75 
Q 925 75 575 425 
Q 225 775 225 1300 
L 225 1475 
L 800 1475 
L 800 1325 
Q 800 950 1025 750 
Q 1250 550 1550 550 
Q 1950 550 2137 762 
Q 2325 975 2325 1275 
Q 2325 1525 2100 1737 
Q 1875 1950 1450 2125 
Q 850 2350 587 2625 
Q 325 2900 325 3275 
Q 325 3800 687 4125 
Q 1050 4450 1550 4450 
Q 2200 4450 2487 4062 
Q 2775 3675 2775 3225 
L 2200 3225 
Q 2225 3500 2050 3725 
Q 1875 3950 1550 3950 
Q 1250 3950 1075 3787 
Q 900 3625 900 3350 
Q 900 3125 1037 2962 
Q 1175 2800 1750 2575 
Q 2300 2350 2600 2037 
Q 2900 1725 2900 1325 
z
" transform="scale(0.015625)"/>
       <path id="SimHei-5a" d="M 2900 125 
L 225 125 
L 225 600 
L 2250 3925 
L 375 3925 
L 375 4400 
L 2825 4400 
L 2825 3925 
L 800 600 
L 2900 600 
L 2900 125 
z
" transform="scale(0.015625)"/>
      </defs>
      <use xlink:href="#SimHei-77"/>
      <use xlink:href="#SimHei-5f" x="50"/>
      <use xlink:href="#SimHei-30" x="100"/>
      <use xlink:href="#SimHei-30" x="150"/>
      <use xlink:href="#SimHei-32" x="200"/>
      <use xlink:href="#SimHei-30" x="250"/>
      <use xlink:href="#SimHei-32" x="300"/>
      <use xlink:href="#SimHei-37" x="350"/>
      <use xlink:href="#SimHei-2e" x="400"/>
      <use xlink:href="#SimHei-53" x="450"/>
      <use xlink:href="#SimHei-5a" x="500"/>
     </g>
    </g>
    <g id="line2d_32">
     <path d="M 331.042647 33.090625 
L 341.042647 33.090625 
L 351.042647 33.090625 
" style="fill: none; stroke: #ff7f0e; stroke-width: 1.5; stroke-linecap: square"/>
    </g>
    <g id="text_21">
     <!-- w_002371.SZ -->
     <g transform="translate(359.042647 36.590625) scale(0.1 -0.1)">
      <use xlink:href="#SimHei-77"/>
      <use xlink:href="#SimHei-5f" x="50"/>
      <use xlink:href="#SimHei-30" x="100"/>
      <use xlink:href="#SimHei-30" x="150"/>
      <use xlink:href="#SimHei-32" x="200"/>
      <use xlink:href="#SimHei-33" x="250"/>
      <use xlink:href="#SimHei-37" x="300"/>
      <use xlink:href="#SimHei-31" x="350"/>
      <use xlink:href="#SimHei-2e" x="400"/>
      <use xlink:href="#SimHei-53" x="450"/>
      <use xlink:href="#SimHei-5a" x="500"/>
     </g>
    </g>
    <g id="line2d_33">
     <path d="M 331.042647 46.41875 
L 341.042647 46.41875 
L 351.042647 46.41875 
" style="fill: none; stroke: #2ca02c; stroke-width: 1.5; stroke-linecap: square"/>
    </g>
    <g id="text_22">
     <!-- w_600009.SH -->
     <g transform="translate(359.042647 49.91875) scale(0.1 -0.1)">
      <defs>
       <path id="SimHei-48" d="M 2850 125 
L 2275 125 
L 2275 2125 
L 850 2125 
L 850 125 
L 275 125 
L 275 4400 
L 850 4400 
L 850 2600 
L 2275 2600 
L 2275 4400 
L 2850 4400 
L 2850 125 
z
" transform="scale(0.015625)"/>
      </defs>
      <use xlink:href="#SimHei-77"/>
      <use xlink:href="#SimHei-5f" x="50"/>
      <use xlink:href="#SimHei-36" x="100"/>
      <use xlink:href="#SimHei-30" x="150"/>
      <use xlink:href="#SimHei-30" x="200"/>
      <use xlink:href="#SimHei-30" x="250"/>
      <use xlink:href="#SimHei-30" x="300"/>
      <use xlink:href="#SimHei-39" x="350"/>
      <use xlink:href="#SimHei-2e" x="400"/>
      <use xlink:href="#SimHei-53" x="450"/>
      <use xlink:href="#SimHei-48" x="500"/>
     </g>
    </g>
    <g id="line2d_34">
     <path d="M 331.042647 59.778125 
L 341.042647 59.778125 
L 351.042647 59.778125 
" style="fill: none; stroke: #d62728; stroke-width: 1.5; stroke-linecap: square"/>
    </g>
    <g id="text_23">
     <!-- w_600029.SH -->
     <g transform="translate(359.042647 63.278125) scale(0.1 -0.1)">
      <use xlink:href="#SimHei-77"/>
      <use xlink:href="#SimHei-5f" x="50"/>
      <use xlink:href="#SimHei-36" x="100"/>
      <use xlink:href="#SimHei-30" x="150"/>
      <use xlink:href="#SimHei-30" x="200"/>
      <use xlink:href="#SimHei-30" x="250"/>
      <use xlink:href="#SimHei-32" x="300"/>
      <use xlink:href="#SimHei-39" x="350"/>
      <use xlink:href="#SimHei-2e" x="400"/>
      <use xlink:href="#SimHei-53" x="450"/>
      <use xlink:href="#SimHei-48" x="500"/>
     </g>
    </g>
    <g id="line2d_35">
     <path d="M 331.042647 73.1375 
L 341.042647 73.1375 
L 351.042647 73.1375 
" style="fill: none; stroke: #9467bd; stroke-width: 1.5; stroke-linecap: square"/>
    </g>
    <g id="text_24">
     <!-- w_600183.SH -->
     <g transform="translate(359.042647 76.6375) scale(0.1 -0.1)">
      <use xlink:href="#SimHei-77"/>
      <use xlink:href="#SimHei-5f" x="50"/>
      <use xlink:href="#SimHei-36" x="100"/>
      <use xlink:href="#SimHei-30" x="150"/>
      <use xlink:href="#SimHei-30" x="200"/>
      <use xlink:href="#SimHei-31" x="250"/>
      <use xlink:href="#SimHei-38" x="300"/>
      <use xlink:href="#SimHei-33" x="350"/>
      <use xlink:href="#SimHei-2e" x="400"/>
      <use xlink:href="#SimHei-53" x="450"/>
      <use xlink:href="#SimHei-48" x="500"/>
     </g>
    </g>
    <g id="line2d_36">
     <path d="M 331.042647 86.465625 
L 341.042647 86.465625 
L 351.042647 86.465625 
" style="fill: none; stroke: #8c564b; stroke-width: 1.5; stroke-linecap: square"/>
    </g>
    <g id="text_25">
     <!-- w_600406.SH -->
     <g transform="translate(359.042647 89.965625) scale(0.1 -0.1)">
      <use xlink:href="#SimHei-77"/>
      <use xlink:href="#SimHei-5f" x="50"/>
      <use xlink:href="#SimHei-36" x="100"/>
      <use xlink:href="#SimHei-30" x="150"/>
      <use xlink:href="#SimHei-30" x="200"/>
      <use xlink:href="#SimHei-34" x="250"/>
      <use xlink:href="#SimHei-30" x="300"/>
      <use xlink:href="#SimHei-36" x="350"/>
      <use xlink:href="#SimHei-2e" x="400"/>
      <use xlink:href="#SimHei-53" x="450"/>
      <use xlink:href="#SimHei-48" x="500"/>
     </g>
    </g>
    <g id="line2d_37">
     <path d="M 331.042647 99.79375 
L 341.042647 99.79375 
L 351.042647 99.79375 
" style="fill: none; stroke: #e377c2; stroke-width: 1.5; stroke-linecap: square"/>
    </g>
    <g id="text_26">
     <!-- w_600900.SH -->
     <g transform="translate(359.042647 103.29375) scale(0.1 -0.1)">
      <use xlink:href="#SimHei-77"/>
      <use xlink:href="#SimHei-5f" x="50"/>
      <use xlink:href="#SimHei-36" x="100"/>
      <use xlink:href="#SimHei-30" x="150"/>
      <use xlink:href="#SimHei-30" x="200"/>
      <use xlink:href="#SimHei-39" x="250"/>
      <use xlink:href="#SimHei-30" x="300"/>
      <use xlink:href="#SimHei-30" x="350"/>
      <use xlink:href="#SimHei-2e" x="400"/>
      <use xlink:href="#SimHei-53" x="450"/>
      <use xlink:href="#SimHei-48" x="500"/>
     </g>
    </g>
    <g id="line2d_38">
     <path d="M 331.042647 113.121875 
L 341.042647 113.121875 
L 351.042647 113.121875 
" style="fill: none; stroke: #7f7f7f; stroke-width: 1.5; stroke-linecap: square"/>
    </g>
    <g id="text_27">
     <!-- w_601989.SH -->
     <g transform="translate(359.042647 116.621875) scale(0.1 -0.1)">
      <use xlink:href="#SimHei-77"/>
      <use xlink:href="#SimHei-5f" x="50"/>
      <use xlink:href="#SimHei-36" x="100"/>
      <use xlink:href="#SimHei-30" x="150"/>
      <use xlink:href="#SimHei-31" x="200"/>
      <use xlink:href="#SimHei-39" x="250"/>
      <use xlink:href="#SimHei-38" x="300"/>
      <use xlink:href="#SimHei-39" x="350"/>
      <use xlink:href="#SimHei-2e" x="400"/>
      <use xlink:href="#SimHei-53" x="450"/>
      <use xlink:href="#SimHei-48" x="500"/>
     </g>
    </g>
    <g id="line2d_39">
     <path d="M 331.042647 126.45 
L 341.042647 126.45 
L 351.042647 126.45 
" style="fill: none; stroke: #bcbd22; stroke-width: 1.5; stroke-linecap: square"/>
    </g>
    <g id="text_28">
     <!-- w_601998.SH -->
     <g transform="translate(359.042647 129.95) scale(0.1 -0.1)">
      <use xlink:href="#SimHei-77"/>
      <use xlink:href="#SimHei-5f" x="50"/>
      <use xlink:href="#SimHei-36" x="100"/>
      <use xlink:href="#SimHei-30" x="150"/>
      <use xlink:href="#SimHei-31" x="200"/>
      <use xlink:href="#SimHei-39" x="250"/>
      <use xlink:href="#SimHei-39" x="300"/>
      <use xlink:href="#SimHei-38" x="350"/>
      <use xlink:href="#SimHei-2e" x="400"/>
      <use xlink:href="#SimHei-53" x="450"/>
      <use xlink:href="#SimHei-48" x="500"/>
     </g>
    </g>
    <g id="line2d_40">
     <path d="M 331.042647 139.778125 
L 341.042647 139.778125 
L 351.042647 139.778125 
" style="fill: none; stroke: #17becf; stroke-width: 1.5; stroke-linecap: square"/>
    </g>
    <g id="text_29">
     <!-- w_CASH -->
     <g transform="translate(359.042647 143.278125) scale(0.1 -0.1)">
      <defs>
       <path id="SimHei-41" d="M 3075 125 
L 2475 125 
L 2125 1450 
L 1025 1450 
L 675 125 
L 75 125 
L 1325 4450 
L 1825 4450 
L 3075 125 
z
M 2000 1925 
L 1600 3450 
L 1550 3450 
L 1150 1925 
L 2000 1925 
z
" transform="scale(0.015625)"/>
      </defs>
      <use xlink:href="#SimHei-77"/>
      <use xlink:href="#SimHei-5f" x="50"/>
      <use xlink:href="#SimHei-43" x="100"/>
      <use xlink:href="#SimHei-41" x="150"/>
      <use xlink:href="#SimHei-53" x="200"/>
      <use xlink:href="#SimHei-48" x="250"/>
     </g>
    </g>
   </g>
  </g>
  <g id="axes_3">
   <g id="patch_13">
    <path d="M 597.760294 162.432 
L 827.525 162.432 
L 827.525 7.2 
L 597.760294 7.2 
z
" style="fill: #ffffff"/>
   </g>
   <g id="matplotlib.axis_5">
    <g id="xtick_7">
     <g id="line2d_41">
      <g>
       <use xlink:href="#m572afac02e" x="654.029202" y="162.432" style="stroke: #000000; stroke-width: 0.8"/>
      </g>
     </g>
     <g id="text_30">
      <!-- 2023-09-20 -->
      <g transform="translate(629.029202 176.307) scale(0.1 -0.1)">
       <use xlink:href="#SimHei-32"/>
       <use xlink:href="#SimHei-30" x="50"/>
       <use xlink:href="#SimHei-32" x="100"/>
       <use xlink:href="#SimHei-33" x="150"/>
       <use xlink:href="#SimHei-2d" x="200"/>
       <use xlink:href="#SimHei-30" x="250"/>
       <use xlink:href="#SimHei-39" x="300"/>
       <use xlink:href="#SimHei-2d" x="350"/>
       <use xlink:href="#SimHei-32" x="400"/>
       <use xlink:href="#SimHei-30" x="450"/>
      </g>
     </g>
    </g>
    <g id="xtick_8">
     <g id="line2d_42">
      <g>
       <use xlink:href="#m572afac02e" x="717.971142" y="162.432" style="stroke: #000000; stroke-width: 0.8"/>
      </g>
     </g>
     <g id="text_31">
      <!-- 2023-11-19 -->
      <g transform="translate(692.971142 176.307) scale(0.1 -0.1)">
       <use xlink:href="#SimHei-32"/>
       <use xlink:href="#SimHei-30" x="50"/>
       <use xlink:href="#SimHei-32" x="100"/>
       <use xlink:href="#SimHei-33" x="150"/>
       <use xlink:href="#SimHei-2d" x="200"/>
       <use xlink:href="#SimHei-31" x="250"/>
       <use xlink:href="#SimHei-31" x="300"/>
       <use xlink:href="#SimHei-2d" x="350"/>
       <use xlink:href="#SimHei-31" x="400"/>
       <use xlink:href="#SimHei-39" x="450"/>
      </g>
     </g>
    </g>
    <g id="xtick_9">
     <g id="line2d_43">
      <g>
       <use xlink:href="#m572afac02e" x="781.913083" y="162.432" style="stroke: #000000; stroke-width: 0.8"/>
      </g>
     </g>
     <g id="text_32">
      <!-- 2024-01-18 -->
      <g transform="translate(756.913083 176.307) scale(0.1 -0.1)">
       <use xlink:href="#SimHei-32"/>
       <use xlink:href="#SimHei-30" x="50"/>
       <use xlink:href="#SimHei-32" x="100"/>
       <use xlink:href="#SimHei-34" x="150"/>
       <use xlink:href="#SimHei-2d" x="200"/>
       <use xlink:href="#SimHei-30" x="250"/>
       <use xlink:href="#SimHei-31" x="300"/>
       <use xlink:href="#SimHei-2d" x="350"/>
       <use xlink:href="#SimHei-31" x="400"/>
       <use xlink:href="#SimHei-38" x="450"/>
      </g>
     </g>
    </g>
   </g>
   <g id="matplotlib.axis_6">
    <g id="ytick_13">
     <g id="line2d_44">
      <g>
       <use xlink:href="#ma000afe530" x="597.760294" y="155.376" style="stroke: #000000; stroke-width: 0.8"/>
      </g>
     </g>
     <g id="text_33">
      <!-- 0.0000 -->
      <g transform="translate(560.760294 158.8135) scale(0.1 -0.1)">
       <use xlink:href="#SimHei-30"/>
       <use xlink:href="#SimHei-2e" x="50"/>
       <use xlink:href="#SimHei-30" x="100"/>
       <use xlink:href="#SimHei-30" x="150"/>
       <use xlink:href="#SimHei-30" x="200"/>
       <use xlink:href="#SimHei-30" x="250"/>
      </g>
     </g>
    </g>
    <g id="ytick_14">
     <g id="line2d_45">
      <g>
       <use xlink:href="#ma000afe530" x="597.760294" y="127.152" style="stroke: #000000; stroke-width: 0.8"/>
      </g>
     </g>
     <g id="text_34">
      <!-- 0.0005 -->
      <g transform="translate(560.760294 130.5895) scale(0.1 -0.1)">
       <defs>
        <path id="SimHei-35" d="M 550 1325 
Q 725 650 1150 575 
Q 1575 500 1837 662 
Q 2100 825 2212 1087 
Q 2325 1350 2312 1675 
Q 2300 2000 2137 2225 
Q 1975 2450 1725 2525 
Q 1475 2600 1162 2525 
Q 850 2450 650 2175 
L 225 2225 
Q 275 2375 700 4375 
L 2675 4375 
L 2675 3925 
L 1075 3925 
Q 950 3250 825 2850 
Q 1200 3025 1525 3012 
Q 1850 3000 2150 2862 
Q 2450 2725 2587 2487 
Q 2725 2250 2787 2012 
Q 2850 1775 2837 1500 
Q 2825 1225 2725 937 
Q 2625 650 2425 462 
Q 2225 275 1937 162 
Q 1650 50 1275 75 
Q 900 100 562 350 
Q 225 600 100 1200 
L 550 1325 
z
" transform="scale(0.015625)"/>
       </defs>
       <use xlink:href="#SimHei-30"/>
       <use xlink:href="#SimHei-2e" x="50"/>
       <use xlink:href="#SimHei-30" x="100"/>
       <use xlink:href="#SimHei-30" x="150"/>
       <use xlink:href="#SimHei-30" x="200"/>
       <use xlink:href="#SimHei-35" x="250"/>
      </g>
     </g>
    </g>
    <g id="ytick_15">
     <g id="line2d_46">
      <g>
       <use xlink:href="#ma000afe530" x="597.760294" y="98.928" style="stroke: #000000; stroke-width: 0.8"/>
      </g>
     </g>
     <g id="text_35">
      <!-- 0.0010 -->
      <g transform="translate(560.760294 102.3655) scale(0.1 -0.1)">
       <use xlink:href="#SimHei-30"/>
       <use xlink:href="#SimHei-2e" x="50"/>
       <use xlink:href="#SimHei-30" x="100"/>
       <use xlink:href="#SimHei-30" x="150"/>
       <use xlink:href="#SimHei-31" x="200"/>
       <use xlink:href="#SimHei-30" x="250"/>
      </g>
     </g>
    </g>
    <g id="ytick_16">
     <g id="line2d_47">
      <g>
       <use xlink:href="#ma000afe530" x="597.760294" y="70.704" style="stroke: #000000; stroke-width: 0.8"/>
      </g>
     </g>
     <g id="text_36">
      <!-- 0.0015 -->
      <g transform="translate(560.760294 74.1415) scale(0.1 -0.1)">
       <use xlink:href="#SimHei-30"/>
       <use xlink:href="#SimHei-2e" x="50"/>
       <use xlink:href="#SimHei-30" x="100"/>
       <use xlink:href="#SimHei-30" x="150"/>
       <use xlink:href="#SimHei-31" x="200"/>
       <use xlink:href="#SimHei-35" x="250"/>
      </g>
     </g>
    </g>
    <g id="ytick_17">
     <g id="line2d_48">
      <g>
       <use xlink:href="#ma000afe530" x="597.760294" y="42.48" style="stroke: #000000; stroke-width: 0.8"/>
      </g>
     </g>
     <g id="text_37">
      <!-- 0.0020 -->
      <g transform="translate(560.760294 45.9175) scale(0.1 -0.1)">
       <use xlink:href="#SimHei-30"/>
       <use xlink:href="#SimHei-2e" x="50"/>
       <use xlink:href="#SimHei-30" x="100"/>
       <use xlink:href="#SimHei-30" x="150"/>
       <use xlink:href="#SimHei-32" x="200"/>
       <use xlink:href="#SimHei-30" x="250"/>
      </g>
     </g>
    </g>
    <g id="ytick_18">
     <g id="line2d_49">
      <g>
       <use xlink:href="#ma000afe530" x="597.760294" y="14.256" style="stroke: #000000; stroke-width: 0.8"/>
      </g>
     </g>
     <g id="text_38">
      <!-- 0.0025 -->
      <g transform="translate(560.760294 17.6935) scale(0.1 -0.1)">
       <use xlink:href="#SimHei-30"/>
       <use xlink:href="#SimHei-2e" x="50"/>
       <use xlink:href="#SimHei-30" x="100"/>
       <use xlink:href="#SimHei-30" x="150"/>
       <use xlink:href="#SimHei-32" x="200"/>
       <use xlink:href="#SimHei-35" x="250"/>
      </g>
     </g>
    </g>
   </g>
   <g id="line2d_50">
    <path d="M 608.204144 14.256 
L 609.269843 154.79716 
L 610.335542 154.481901 
L 611.401241 154.360926 
L 614.598338 154.303445 
L 615.664037 124.216318 
L 616.729736 154.565211 
L 617.795435 154.59945 
L 618.861134 154.334428 
L 622.058231 154.396582 
L 623.12393 154.865573 
L 624.189629 148.606856 
L 625.255328 153.921532 
L 626.321028 153.778218 
L 629.518125 154.150764 
L 630.583824 153.443129 
L 631.649523 154.279684 
L 632.715222 154.898951 
L 633.780921 153.78841 
L 636.978018 153.391053 
L 638.043717 154.380577 
L 639.109416 154.248763 
L 640.175115 153.50934 
L 641.240814 107.452943 
L 644.437911 151.876707 
L 645.50361 154.878608 
L 646.569309 153.989336 
L 647.635008 153.283043 
L 648.700707 154.773035 
L 651.897804 154.290608 
L 652.963503 154.335917 
L 654.029202 153.989973 
L 655.094901 155.146452 
L 656.1606 154.230809 
L 659.357697 154.865919 
L 660.423396 154.666834 
L 661.489095 154.725654 
L 662.554794 153.984554 
L 674.277483 127.765345 
L 675.343182 106.214069 
L 676.408881 154.578821 
L 677.47458 153.882246 
L 678.540279 153.743199 
L 681.737376 153.759513 
L 682.803075 154.622444 
L 683.868774 135.006134 
L 684.934473 154.470919 
L 686.000172 128.541986 
L 689.197269 124.570216 
L 690.262968 153.776778 
L 691.328667 151.939252 
L 692.394366 154.354917 
L 693.460065 153.824608 
L 696.657162 153.917512 
L 697.722861 154.747696 
L 698.78856 154.830162 
L 699.854259 154.448815 
L 700.919958 154.436816 
L 704.117055 153.679674 
L 705.182754 154.939351 
L 706.248453 124.199619 
L 707.314152 154.623697 
L 708.379851 154.870068 
L 711.576948 125.599321 
L 712.642647 129.051142 
L 713.708346 146.910443 
L 714.774045 154.353558 
L 715.839744 154.79821 
L 719.036841 119.966622 
L 720.10254 154.770901 
L 722.233938 154.342595 
L 723.299637 154.706374 
L 726.496734 154.705996 
L 727.562433 154.544988 
L 728.628132 148.104389 
L 729.693831 154.132314 
L 730.75953 153.59033 
L 733.956627 154.608702 
L 735.022326 135.80401 
L 736.088025 155.016601 
L 737.153724 141.61702 
L 738.219423 154.716234 
L 741.41652 154.836065 
L 742.482219 154.1781 
L 743.547918 154.246806 
L 744.613617 154.762319 
L 745.679316 154.807632 
L 748.876413 154.003538 
L 749.942112 154.344535 
L 751.007811 153.82091 
L 752.07351 153.948699 
L 753.139209 154.231714 
L 757.402005 154.497205 
L 758.467704 152.073271 
L 760.599102 154.412343 
L 764.861898 153.462708 
L 765.927597 154.78385 
L 766.993296 131.752947 
L 768.058995 154.914941 
L 771.256092 154.619322 
L 772.321791 154.38881 
L 773.38749 155.070675 
L 774.453189 154.045231 
L 775.518888 153.968572 
L 778.715985 154.858923 
L 779.781684 154.108923 
L 780.847383 154.682797 
L 781.913083 153.893846 
L 782.978782 152.67872 
L 786.175879 154.477307 
L 787.241578 154.679042 
L 788.307277 124.639975 
L 789.372976 153.711184 
L 790.438675 154.302367 
L 793.635772 154.303451 
L 794.701471 153.973937 
L 795.76717 153.927969 
L 796.832869 133.37732 
L 797.898568 154.39093 
L 801.095665 154.231957 
L 802.161364 152.730124 
L 803.227063 154.542323 
L 804.292762 154.825534 
L 816.015451 154.56394 
L 817.08115 155.376 
L 817.08115 155.376 
" clip-path="url(#pbe76cf7e34)" style="fill: none; stroke: #1f77b4; stroke-width: 1.5; stroke-linecap: square"/>
   </g>
   <g id="patch_14">
    <path d="M 597.760294 162.432 
L 597.760294 7.2 
" style="fill: none; stroke: #000000; stroke-width: 0.8; stroke-linejoin: miter; stroke-linecap: square"/>
   </g>
   <g id="patch_15">
    <path d="M 827.525 162.432 
L 827.525 7.2 
" style="fill: none; stroke: #000000; stroke-width: 0.8; stroke-linejoin: miter; stroke-linecap: square"/>
   </g>
   <g id="patch_16">
    <path d="M 597.760294 162.432 
L 827.525 162.432 
" style="fill: none; stroke: #000000; stroke-width: 0.8; stroke-linejoin: miter; stroke-linecap: square"/>
   </g>
   <g id="patch_17">
    <path d="M 597.760294 7.2 
L 827.525 7.2 
" style="fill: none; stroke: #000000; stroke-width: 0.8; stroke-linejoin: miter; stroke-linecap: square"/>
   </g>
  </g>
 </g>
 <defs>
  <clipPath id="p1376b74d57">
   <rect x="46.325" y="7.2" width="229.764706" height="155.232"/>
  </clipPath>
  <clipPath id="p8f0e1ded08">
   <rect x="322.042647" y="7.2" width="229.764706" height="155.232"/>
  </clipPath>
  <clipPath id="pbe76cf7e34">
   <rect x="597.760294" y="7.2" width="229.764706" height="155.232"/>
  </clipPath>
 </defs>
</svg>
