<?xml version="1.0" encoding="utf-8" standalone="no"?>
<!DOCTYPE svg PUBLIC "-//W3C//DTD SVG 1.1//EN"
  "http://www.w3.org/Graphics/SVG/1.1/DTD/svg11.dtd">
<svg xmlns:xlink="http://www.w3.org/1999/xlink" width="834.803125pt" height="184.757pt" viewBox="0 0 834.803125 184.757" xmlns="http://www.w3.org/2000/svg" version="1.1">
 <metadata>
  <rdf:RDF xmlns:dc="http://purl.org/dc/elements/1.1/" xmlns:cc="http://creativecommons.org/ns#" xmlns:rdf="http://www.w3.org/1999/02/22-rdf-syntax-ns#">
   <cc:Work>
    <dc:type rdf:resource="http://purl.org/dc/dcmitype/StillImage"/>
    <dc:date>2024-12-25T17:32:58.161368</dc:date>
    <dc:format>image/svg+xml</dc:format>
    <dc:creator>
     <cc:Agent>
      <dc:title>Matplotlib v3.9.3, https://matplotlib.org/</dc:title>
     </cc:Agent>
    </dc:creator>
   </cc:Work>
  </rdf:RDF>
 </metadata>
 <defs>
  <style type="text/css">*{stroke-linejoin: round; stroke-linecap: butt}</style>
 </defs>
 <g id="figure_1">
  <g id="patch_1">
   <path d="M 0 184.757 
L 834.803125 184.757 
L 834.803125 0 
L 0 0 
z
" style="fill: #ffffff"/>
  </g>
  <g id="axes_1">
   <g id="patch_2">
    <path d="M 46.403125 162.432 
L 276.167831 162.432 
L 276.167831 7.2 
L 46.403125 7.2 
z
" style="fill: #ffffff"/>
   </g>
   <g id="matplotlib.axis_1">
    <g id="xtick_1">
     <g id="line2d_1">
      <defs>
       <path id="m77c1cf90a4" d="M 0 0 
L 0 3.5 
" style="stroke: #000000; stroke-width: 0.8"/>
      </defs>
      <g>
       <use xlink:href="#m77c1cf90a4" x="102.672033" y="162.432" style="stroke: #000000; stroke-width: 0.8"/>
      </g>
     </g>
     <g id="text_1">
      <!-- 2023-09-20 -->
      <g transform="translate(77.672033 176.307) scale(0.1 -0.1)">
       <defs>
        <path id="SimHei-32" d="M 300 250 
Q 325 625 650 925 
Q 975 1225 1475 1862 
Q 1975 2500 2125 2850 
Q 2275 3200 2237 3450 
Q 2200 3700 2000 3862 
Q 1800 4025 1537 4000 
Q 1275 3975 1037 3800 
Q 800 3625 675 3275 
L 200 3350 
Q 400 3925 712 4187 
Q 1025 4450 1450 4475 
Q 1700 4500 1900 4462 
Q 2100 4425 2312 4287 
Q 2525 4150 2662 3875 
Q 2800 3600 2762 3212 
Q 2725 2825 2375 2287 
Q 2025 1750 1025 600 
L 2825 600 
L 2825 150 
L 300 150 
L 300 250 
z
" transform="scale(0.015625)"/>
        <path id="SimHei-30" d="M 225 2537 
Q 250 3200 412 3587 
Q 575 3975 875 4225 
Q 1175 4475 1612 4475 
Q 2050 4475 2375 4112 
Q 2700 3750 2800 3200 
Q 2900 2650 2862 1937 
Q 2825 1225 2612 775 
Q 2400 325 1975 150 
Q 1550 -25 1125 187 
Q 700 400 525 750 
Q 350 1100 275 1487 
Q 200 1875 225 2537 
z
M 750 2687 
Q 675 2000 800 1462 
Q 925 925 1212 700 
Q 1500 475 1800 612 
Q 2100 750 2237 1162 
Q 2375 1575 2375 2062 
Q 2375 2550 2337 2950 
Q 2300 3350 2112 3675 
Q 1925 4000 1612 4012 
Q 1300 4025 1062 3700 
Q 825 3375 750 2687 
z
" transform="scale(0.015625)"/>
        <path id="SimHei-33" d="M 250 1225 
L 700 1300 
Q 800 975 1025 762 
Q 1250 550 1587 562 
Q 1925 575 2125 837 
Q 2325 1100 2300 1437 
Q 2275 1775 2037 1962 
Q 1800 2150 1275 2225 
L 1275 2550 
Q 1800 2600 2037 2825 
Q 2275 3050 2250 3412 
Q 2225 3775 1925 3937 
Q 1625 4100 1287 3975 
Q 950 3850 750 3275 
L 300 3350 
Q 450 3800 712 4100 
Q 975 4400 1425 4450 
Q 1875 4500 2212 4337 
Q 2550 4175 2687 3837 
Q 2825 3500 2725 3100 
Q 2625 2700 2150 2400 
Q 2500 2250 2687 1950 
Q 2875 1650 2812 1162 
Q 2750 675 2375 375 
Q 2000 75 1525 87 
Q 1050 100 700 387 
Q 350 675 250 1225 
z
" transform="scale(0.015625)"/>
        <path id="SimHei-2d" d="M 2975 2125 
L 125 2125 
L 125 2525 
L 2975 2525 
L 2975 2125 
z
" transform="scale(0.015625)"/>
        <path id="SimHei-39" d="M 800 75 
Q 1350 1000 1700 1750 
Q 1075 1650 662 1912 
Q 250 2175 162 2625 
Q 75 3075 175 3437 
Q 275 3800 487 4037 
Q 700 4275 1000 4375 
Q 1300 4475 1537 4475 
Q 1775 4475 2025 4375 
Q 2275 4275 2475 4075 
Q 2675 3875 2750 3662 
Q 2825 3450 2825 3112 
Q 2825 2775 2575 2250 
Q 2325 1725 1350 75 
L 800 75 
z
M 662 2875 
Q 700 2550 937 2337 
Q 1175 2125 1450 2150 
Q 1725 2175 1887 2300 
Q 2050 2425 2200 2725 
Q 2300 3100 2250 3362 
Q 2200 3625 1987 3800 
Q 1775 3975 1525 3975 
Q 1375 4000 1137 3900 
Q 900 3800 762 3500 
Q 625 3200 662 2875 
z
" transform="scale(0.015625)"/>
       </defs>
       <use xlink:href="#SimHei-32"/>
       <use xlink:href="#SimHei-30" x="50"/>
       <use xlink:href="#SimHei-32" x="100"/>
       <use xlink:href="#SimHei-33" x="150"/>
       <use xlink:href="#SimHei-2d" x="200"/>
       <use xlink:href="#SimHei-30" x="250"/>
       <use xlink:href="#SimHei-39" x="300"/>
       <use xlink:href="#SimHei-2d" x="350"/>
       <use xlink:href="#SimHei-32" x="400"/>
       <use xlink:href="#SimHei-30" x="450"/>
      </g>
     </g>
    </g>
    <g id="xtick_2">
     <g id="line2d_2">
      <g>
       <use xlink:href="#m77c1cf90a4" x="166.613973" y="162.432" style="stroke: #000000; stroke-width: 0.8"/>
      </g>
     </g>
     <g id="text_2">
      <!-- 2023-11-19 -->
      <g transform="translate(141.613973 176.307) scale(0.1 -0.1)">
       <defs>
        <path id="SimHei-31" d="M 1400 3600 
Q 1075 3275 575 2975 
L 575 3450 
Q 1200 3875 1600 4450 
L 1900 4450 
L 1900 150 
L 1400 150 
L 1400 3600 
z
" transform="scale(0.015625)"/>
       </defs>
       <use xlink:href="#SimHei-32"/>
       <use xlink:href="#SimHei-30" x="50"/>
       <use xlink:href="#SimHei-32" x="100"/>
       <use xlink:href="#SimHei-33" x="150"/>
       <use xlink:href="#SimHei-2d" x="200"/>
       <use xlink:href="#SimHei-31" x="250"/>
       <use xlink:href="#SimHei-31" x="300"/>
       <use xlink:href="#SimHei-2d" x="350"/>
       <use xlink:href="#SimHei-31" x="400"/>
       <use xlink:href="#SimHei-39" x="450"/>
      </g>
     </g>
    </g>
    <g id="xtick_3">
     <g id="line2d_3">
      <g>
       <use xlink:href="#m77c1cf90a4" x="230.555913" y="162.432" style="stroke: #000000; stroke-width: 0.8"/>
      </g>
     </g>
     <g id="text_3">
      <!-- 2024-01-18 -->
      <g transform="translate(205.555913 176.307) scale(0.1 -0.1)">
       <defs>
        <path id="SimHei-34" d="M 2000 1100 
L 75 1100 
L 75 1525 
L 2100 4450 
L 2475 4450 
L 2475 1525 
L 3075 1525 
L 3075 1100 
L 2475 1100 
L 2475 150 
L 2000 150 
L 2000 1100 
z
M 2000 1525 
L 2000 3500 
L 600 1525 
L 2000 1525 
z
" transform="scale(0.015625)"/>
        <path id="SimHei-38" d="M 175 1375 
Q 175 1675 325 1962 
Q 475 2250 825 2425 
Q 525 2600 425 2812 
Q 325 3025 312 3300 
Q 300 3575 387 3775 
Q 475 3975 650 4150 
Q 825 4325 1037 4387 
Q 1250 4450 1500 4450 
Q 1750 4450 1950 4400 
Q 2150 4350 2375 4187 
Q 2600 4025 2700 3725 
Q 2800 3425 2687 3025 
Q 2575 2625 2100 2400 
Q 2525 2275 2700 2012 
Q 2875 1750 2875 1375 
Q 2875 1000 2762 775 
Q 2650 550 2512 400 
Q 2375 250 2137 162 
Q 1900 75 1537 75 
Q 1175 75 912 162 
Q 650 250 475 425 
Q 300 600 237 837 
Q 175 1075 175 1375 
z
M 687 1400 
Q 675 1100 787 875 
Q 900 650 1200 587 
Q 1500 525 1825 600 
Q 2150 675 2275 950 
Q 2400 1225 2362 1500 
Q 2325 1775 2050 1962 
Q 1775 2150 1450 2125 
Q 1125 2100 912 1900 
Q 700 1700 687 1400 
z
M 775 3350 
Q 775 3100 950 2875 
Q 1125 2650 1500 2650 
Q 1875 2650 2062 2875 
Q 2250 3100 2237 3412 
Q 2225 3725 2012 3875 
Q 1800 4025 1437 4000 
Q 1075 3975 925 3787 
Q 775 3600 775 3350 
z
" transform="scale(0.015625)"/>
       </defs>
       <use xlink:href="#SimHei-32"/>
       <use xlink:href="#SimHei-30" x="50"/>
       <use xlink:href="#SimHei-32" x="100"/>
       <use xlink:href="#SimHei-34" x="150"/>
       <use xlink:href="#SimHei-2d" x="200"/>
       <use xlink:href="#SimHei-30" x="250"/>
       <use xlink:href="#SimHei-31" x="300"/>
       <use xlink:href="#SimHei-2d" x="350"/>
       <use xlink:href="#SimHei-31" x="400"/>
       <use xlink:href="#SimHei-38" x="450"/>
      </g>
     </g>
    </g>
   </g>
   <g id="matplotlib.axis_2">
    <g id="ytick_1">
     <g id="line2d_4">
      <defs>
       <path id="mf14d4a9fff" d="M 0 0 
L -3.5 0 
" style="stroke: #000000; stroke-width: 0.8"/>
      </defs>
      <g>
       <use xlink:href="#mf14d4a9fff" x="46.403125" y="142.775127" style="stroke: #000000; stroke-width: 0.8"/>
      </g>
     </g>
     <g id="text_4">
      <!-- 0.90 -->
      <g transform="translate(19.403125 146.212627) scale(0.1 -0.1)">
       <defs>
        <path id="SimHei-2e" d="M 1075 125 
L 500 125 
L 500 675 
L 1075 675 
L 1075 125 
z
" transform="scale(0.015625)"/>
       </defs>
       <use xlink:href="#SimHei-30"/>
       <use xlink:href="#SimHei-2e" x="50"/>
       <use xlink:href="#SimHei-39" x="100"/>
       <use xlink:href="#SimHei-30" x="150"/>
      </g>
     </g>
    </g>
    <g id="ytick_2">
     <g id="line2d_5">
      <g>
       <use xlink:href="#mf14d4a9fff" x="46.403125" y="117.703976" style="stroke: #000000; stroke-width: 0.8"/>
      </g>
     </g>
     <g id="text_5">
      <!-- 0.92 -->
      <g transform="translate(19.403125 121.141476) scale(0.1 -0.1)">
       <use xlink:href="#SimHei-30"/>
       <use xlink:href="#SimHei-2e" x="50"/>
       <use xlink:href="#SimHei-39" x="100"/>
       <use xlink:href="#SimHei-32" x="150"/>
      </g>
     </g>
    </g>
    <g id="ytick_3">
     <g id="line2d_6">
      <g>
       <use xlink:href="#mf14d4a9fff" x="46.403125" y="92.632825" style="stroke: #000000; stroke-width: 0.8"/>
      </g>
     </g>
     <g id="text_6">
      <!-- 0.94 -->
      <g transform="translate(19.403125 96.070325) scale(0.1 -0.1)">
       <use xlink:href="#SimHei-30"/>
       <use xlink:href="#SimHei-2e" x="50"/>
       <use xlink:href="#SimHei-39" x="100"/>
       <use xlink:href="#SimHei-34" x="150"/>
      </g>
     </g>
    </g>
    <g id="ytick_4">
     <g id="line2d_7">
      <g>
       <use xlink:href="#mf14d4a9fff" x="46.403125" y="67.561674" style="stroke: #000000; stroke-width: 0.8"/>
      </g>
     </g>
     <g id="text_7">
      <!-- 0.96 -->
      <g transform="translate(19.403125 70.999174) scale(0.1 -0.1)">
       <defs>
        <path id="SimHei-36" d="M 250 1612 
Q 275 1975 387 2225 
Q 500 2475 725 2850 
L 1750 4450 
L 2325 4450 
L 1275 2800 
Q 1950 2975 2350 2750 
Q 2750 2525 2887 2237 
Q 3025 1950 3037 1612 
Q 3050 1275 2937 950 
Q 2825 625 2537 362 
Q 2250 100 1737 75 
Q 1225 50 862 262 
Q 500 475 362 862 
Q 225 1250 250 1612 
z
M 1025 787 
Q 1250 550 1625 525 
Q 2000 500 2250 775 
Q 2500 1050 2500 1575 
Q 2500 2100 2187 2300 
Q 1875 2500 1487 2450 
Q 1100 2400 925 2075 
Q 750 1750 775 1387 
Q 800 1025 1025 787 
z
" transform="scale(0.015625)"/>
       </defs>
       <use xlink:href="#SimHei-30"/>
       <use xlink:href="#SimHei-2e" x="50"/>
       <use xlink:href="#SimHei-39" x="100"/>
       <use xlink:href="#SimHei-36" x="150"/>
      </g>
     </g>
    </g>
    <g id="ytick_5">
     <g id="line2d_8">
      <g>
       <use xlink:href="#mf14d4a9fff" x="46.403125" y="42.490523" style="stroke: #000000; stroke-width: 0.8"/>
      </g>
     </g>
     <g id="text_8">
      <!-- 0.98 -->
      <g transform="translate(19.403125 45.928023) scale(0.1 -0.1)">
       <use xlink:href="#SimHei-30"/>
       <use xlink:href="#SimHei-2e" x="50"/>
       <use xlink:href="#SimHei-39" x="100"/>
       <use xlink:href="#SimHei-38" x="150"/>
      </g>
     </g>
    </g>
    <g id="ytick_6">
     <g id="line2d_9">
      <g>
       <use xlink:href="#mf14d4a9fff" x="46.403125" y="17.419372" style="stroke: #000000; stroke-width: 0.8"/>
      </g>
     </g>
     <g id="text_9">
      <!-- 1.00 -->
      <g transform="translate(19.403125 20.856872) scale(0.1 -0.1)">
       <use xlink:href="#SimHei-31"/>
       <use xlink:href="#SimHei-2e" x="50"/>
       <use xlink:href="#SimHei-30" x="100"/>
       <use xlink:href="#SimHei-30" x="150"/>
      </g>
     </g>
    </g>
    <g id="text_10">
     <!-- CVaR-Sharpe-4yr -->
     <g transform="translate(14.153125 122.316) rotate(-90) scale(0.1 -0.1)">
      <defs>
       <path id="SimHei-43" d="M 2975 1825 
Q 2950 875 2575 475 
Q 2200 75 1675 75 
Q 1075 75 650 562 
Q 225 1050 225 2125 
Q 225 3300 637 3875 
Q 1050 4450 1700 4450 
Q 2250 4450 2612 4037 
Q 2975 3625 2950 2875 
L 2400 2875 
Q 2400 3425 2225 3700 
Q 2050 3975 1700 3975 
Q 1300 3975 1062 3562 
Q 825 3150 825 2175 
Q 825 1275 1062 912 
Q 1300 550 1675 550 
Q 1950 550 2175 812 
Q 2400 1075 2400 1825 
L 2975 1825 
z
" transform="scale(0.015625)"/>
       <path id="SimHei-56" d="M 3050 4400 
L 1800 75 
L 1300 75 
L 50 4400 
L 650 4400 
L 1525 1125 
L 1575 1125 
L 2450 4400 
L 3050 4400 
z
" transform="scale(0.015625)"/>
       <path id="SimHei-61" d="M 2875 125 
L 2275 125 
Q 2225 175 2200 262 
Q 2175 350 2175 475 
Q 2000 275 1750 175 
Q 1500 75 1225 75 
Q 825 75 550 275 
Q 275 475 275 850 
Q 275 1225 525 1450 
Q 775 1675 1300 1750 
Q 1650 1800 1912 1875 
Q 2175 1950 2175 2075 
Q 2175 2225 2062 2375 
Q 1950 2525 1575 2525 
Q 1275 2525 1137 2412 
Q 1000 2300 950 2100 
L 400 2100 
Q 450 2500 762 2737 
Q 1075 2975 1575 2975 
Q 2125 2975 2400 2725 
Q 2675 2475 2675 2025 
L 2675 650 
Q 2675 500 2725 375 
Q 2775 250 2875 125 
z
M 2175 1050 
L 2175 1550 
Q 2025 1500 1887 1462 
Q 1750 1425 1425 1375 
Q 1050 1325 937 1200 
Q 825 1075 825 900 
Q 825 750 937 637 
Q 1050 525 1275 525 
Q 1500 525 1762 650 
Q 2025 775 2175 1050 
z
" transform="scale(0.015625)"/>
       <path id="SimHei-52" d="M 3000 125 
L 2400 125 
L 1500 1975 
L 850 1975 
L 850 125 
L 275 125 
L 275 4400 
L 1525 4400 
Q 2125 4400 2500 4112 
Q 2875 3825 2875 3175 
Q 2875 2675 2625 2400 
Q 2375 2125 2050 2050 
L 3000 125 
z
M 2300 3175 
Q 2300 3525 2087 3725 
Q 1875 3925 1400 3925 
L 850 3925 
L 850 2450 
L 1550 2450 
Q 1850 2450 2075 2612 
Q 2300 2775 2300 3175 
z
" transform="scale(0.015625)"/>
       <path id="SimHei-53" d="M 2900 1325 
Q 2900 750 2537 412 
Q 2175 75 1550 75 
Q 925 75 575 425 
Q 225 775 225 1300 
L 225 1475 
L 800 1475 
L 800 1325 
Q 800 950 1025 750 
Q 1250 550 1550 550 
Q 1950 550 2137 762 
Q 2325 975 2325 1275 
Q 2325 1525 2100 1737 
Q 1875 1950 1450 2125 
Q 850 2350 587 2625 
Q 325 2900 325 3275 
Q 325 3800 687 4125 
Q 1050 4450 1550 4450 
Q 2200 4450 2487 4062 
Q 2775 3675 2775 3225 
L 2200 3225 
Q 2225 3500 2050 3725 
Q 1875 3950 1550 3950 
Q 1250 3950 1075 3787 
Q 900 3625 900 3350 
Q 900 3125 1037 2962 
Q 1175 2800 1750 2575 
Q 2300 2350 2600 2037 
Q 2900 1725 2900 1325 
z
" transform="scale(0.015625)"/>
       <path id="SimHei-68" d="M 2800 125 
L 2300 125 
L 2300 1925 
Q 2300 2225 2150 2400 
Q 2000 2575 1750 2575 
Q 1425 2575 1137 2237 
Q 850 1900 850 1400 
L 850 125 
L 350 125 
L 350 4400 
L 850 4400 
L 850 2400 
Q 1050 2675 1287 2825 
Q 1525 2975 1900 2975 
Q 2350 2975 2575 2725 
Q 2800 2475 2800 2100 
L 2800 125 
z
" transform="scale(0.015625)"/>
       <path id="SimHei-72" d="M 2500 2425 
Q 2025 2500 1700 2287 
Q 1375 2075 1150 1550 
L 1150 125 
L 650 125 
L 650 2925 
L 1150 2925 
L 1150 2200 
Q 1375 2600 1712 2787 
Q 2050 2975 2500 2975 
L 2500 2425 
z
" transform="scale(0.015625)"/>
       <path id="SimHei-70" d="M 2825 1525 
Q 2825 800 2475 425 
Q 2125 50 1625 50 
Q 1350 50 1150 162 
Q 950 275 800 500 
L 800 -800 
L 300 -800 
L 300 2925 
L 800 2925 
L 800 2550 
Q 950 2775 1150 2875 
Q 1350 2975 1625 2975 
Q 2125 2975 2475 2612 
Q 2825 2250 2825 1525 
z
M 2275 1525 
Q 2275 2000 2087 2262 
Q 1900 2525 1525 2525 
Q 1225 2525 1012 2262 
Q 800 2000 800 1525 
Q 800 1050 1012 775 
Q 1225 500 1525 500 
Q 1900 500 2087 775 
Q 2275 1050 2275 1525 
z
" transform="scale(0.015625)"/>
       <path id="SimHei-65" d="M 2850 1075 
Q 2800 625 2450 350 
Q 2100 75 1625 75 
Q 1025 75 637 462 
Q 250 850 250 1525 
Q 250 2200 637 2587 
Q 1025 2975 1625 2975 
Q 2150 2975 2487 2637 
Q 2825 2300 2825 1525 
L 800 1525 
Q 800 975 1037 750 
Q 1275 525 1625 525 
Q 1900 525 2075 662 
Q 2250 800 2300 1075 
L 2850 1075 
z
M 2250 1925 
Q 2200 2275 2025 2412 
Q 1850 2550 1575 2550 
Q 1325 2550 1125 2412 
Q 925 2275 825 1925 
L 2250 1925 
z
" transform="scale(0.015625)"/>
       <path id="SimHei-79" d="M 2900 2925 
L 1750 -100 
Q 1650 -450 1450 -625 
Q 1250 -800 950 -800 
Q 825 -800 712 -787 
Q 600 -775 500 -725 
L 500 -225 
Q 600 -275 700 -300 
Q 800 -325 875 -325 
Q 1075 -325 1150 -262 
Q 1225 -200 1300 25 
L 200 2925 
L 750 2925 
L 1550 725 
L 1575 725 
L 2350 2925 
L 2900 2925 
z
" transform="scale(0.015625)"/>
      </defs>
      <use xlink:href="#SimHei-43"/>
      <use xlink:href="#SimHei-56" x="50"/>
      <use xlink:href="#SimHei-61" x="100"/>
      <use xlink:href="#SimHei-52" x="150"/>
      <use xlink:href="#SimHei-2d" x="200"/>
      <use xlink:href="#SimHei-53" x="250"/>
      <use xlink:href="#SimHei-68" x="300"/>
      <use xlink:href="#SimHei-61" x="350"/>
      <use xlink:href="#SimHei-72" x="400"/>
      <use xlink:href="#SimHei-70" x="450"/>
      <use xlink:href="#SimHei-65" x="500"/>
      <use xlink:href="#SimHei-2d" x="550"/>
      <use xlink:href="#SimHei-34" x="600"/>
      <use xlink:href="#SimHei-79" x="650"/>
      <use xlink:href="#SimHei-72" x="700"/>
     </g>
    </g>
   </g>
   <g id="line2d_10">
    <path d="M 56.846975 20.553266 
L 57.912674 26.750746 
L 58.978373 20.274451 
L 60.044072 47.791215 
L 63.241169 57.224245 
L 64.306868 52.068351 
L 65.372567 70.472676 
L 66.438266 63.883074 
L 67.503965 76.259557 
L 70.701062 86.318454 
L 71.766761 76.131073 
L 72.83246 91.015016 
L 74.963858 78.097157 
L 78.160955 79.500621 
L 79.226654 68.264114 
L 80.292353 55.845774 
L 81.358052 47.607445 
L 82.423751 59.625177 
L 85.620848 61.622114 
L 86.686547 56.319156 
L 87.752246 48.665534 
L 88.817945 73.020009 
L 89.883644 70.951559 
L 93.080742 65.484136 
L 94.146441 65.612857 
L 95.21214 73.155166 
L 96.277839 69.901962 
L 97.343538 76.856069 
L 100.540635 91.26412 
L 101.606334 94.583881 
L 102.672033 107.295548 
L 103.737732 116.68422 
L 104.803431 101.451675 
L 108.000528 101.383004 
L 109.066227 110.245756 
L 110.131926 120.120351 
L 111.197625 106.795533 
L 122.920314 93.825733 
L 123.986013 91.357388 
L 125.051712 96.792793 
L 126.117411 78.845057 
L 127.18311 88.679242 
L 130.380207 100.480458 
L 131.445906 87.025441 
L 132.511605 86.938366 
L 134.643003 113.725994 
L 137.8401 127.119888 
L 138.905799 106.617245 
L 139.971498 120.095353 
L 141.037197 104.071489 
L 142.102896 97.791492 
L 145.299993 93.842997 
L 146.365692 91.618495 
L 147.431391 92.000571 
L 148.49709 92.551667 
L 149.562789 86.389442 
L 153.825585 98.12456 
L 154.891284 92.49005 
L 155.956983 89.151815 
L 157.022682 92.655519 
L 160.219779 94.552853 
L 161.285478 102.496677 
L 162.351177 95.902222 
L 163.416876 103.524715 
L 164.482575 107.472757 
L 167.679672 109.669143 
L 168.745371 113.445882 
L 169.81107 121.305771 
L 170.876769 118.227818 
L 171.942468 121.156845 
L 175.139565 118.491693 
L 176.205264 123.107809 
L 177.270963 130.014529 
L 178.336662 119.638942 
L 179.402361 125.18904 
L 182.599458 130.906794 
L 183.665157 144.44605 
L 184.730856 149.580349 
L 185.796555 155.376 
L 186.862254 148.416313 
L 191.12505 130.892943 
L 192.190749 132.965932 
L 193.256448 132.112325 
L 194.322147 143.208768 
L 197.519244 136.539838 
L 198.584943 127.236226 
L 199.650642 118.913743 
L 200.716341 115.858073 
L 201.78204 118.774733 
L 204.979137 112.152867 
L 206.044836 113.125661 
L 207.110535 98.544303 
L 208.176234 99.256964 
L 209.241933 95.089902 
L 213.504729 89.607799 
L 214.570428 85.276984 
L 215.636127 88.411545 
L 216.701826 93.610779 
L 219.898923 108.246681 
L 220.964622 108.766308 
L 222.030321 118.183798 
L 223.09602 120.482933 
L 224.161719 108.907879 
L 227.358816 109.394778 
L 228.424515 95.4559 
L 229.490214 107.000855 
L 230.555913 92.831462 
L 231.621612 91.798804 
L 234.818709 102.582602 
L 235.884408 103.429948 
L 236.950107 79.582648 
L 238.015806 71.638828 
L 239.081505 72.202549 
L 242.278602 71.996322 
L 243.344301 92.719396 
L 244.41 84.286356 
L 245.475699 89.292149 
L 246.541398 91.830829 
L 249.738496 61.198588 
L 250.804195 48.18533 
L 251.869894 49.864226 
L 252.935593 52.771901 
L 264.658282 24.592819 
L 265.723981 14.256 
L 265.723981 14.256 
" clip-path="url(#pb7910c17b1)" style="fill: none; stroke: #1f77b4; stroke-width: 1.5; stroke-linecap: square"/>
   </g>
   <g id="patch_3">
    <path d="M 46.403125 162.432 
L 46.403125 7.2 
" style="fill: none; stroke: #000000; stroke-width: 0.8; stroke-linejoin: miter; stroke-linecap: square"/>
   </g>
   <g id="patch_4">
    <path d="M 276.167831 162.432 
L 276.167831 7.2 
" style="fill: none; stroke: #000000; stroke-width: 0.8; stroke-linejoin: miter; stroke-linecap: square"/>
   </g>
   <g id="patch_5">
    <path d="M 46.403125 162.432 
L 276.167831 162.432 
" style="fill: none; stroke: #000000; stroke-width: 0.8; stroke-linejoin: miter; stroke-linecap: square"/>
   </g>
   <g id="patch_6">
    <path d="M 46.403125 7.2 
L 276.167831 7.2 
" style="fill: none; stroke: #000000; stroke-width: 0.8; stroke-linejoin: miter; stroke-linecap: square"/>
   </g>
  </g>
  <g id="axes_2">
   <g id="patch_7">
    <path d="M 322.120772 162.432 
L 551.885478 162.432 
L 551.885478 7.2 
L 322.120772 7.2 
z
" style="fill: #ffffff"/>
   </g>
   <g id="matplotlib.axis_3">
    <g id="xtick_4">
     <g id="line2d_11">
      <g>
       <use xlink:href="#m77c1cf90a4" x="379.455379" y="162.432" style="stroke: #000000; stroke-width: 0.8"/>
      </g>
     </g>
     <g id="text_11">
      <!-- 2023-09-20 -->
      <g transform="translate(354.455379 176.307) scale(0.1 -0.1)">
       <use xlink:href="#SimHei-32"/>
       <use xlink:href="#SimHei-30" x="50"/>
       <use xlink:href="#SimHei-32" x="100"/>
       <use xlink:href="#SimHei-33" x="150"/>
       <use xlink:href="#SimHei-2d" x="200"/>
       <use xlink:href="#SimHei-30" x="250"/>
       <use xlink:href="#SimHei-39" x="300"/>
       <use xlink:href="#SimHei-2d" x="350"/>
       <use xlink:href="#SimHei-32" x="400"/>
       <use xlink:href="#SimHei-30" x="450"/>
      </g>
     </g>
    </g>
    <g id="xtick_5">
     <g id="line2d_12">
      <g>
       <use xlink:href="#m77c1cf90a4" x="443.397319" y="162.432" style="stroke: #000000; stroke-width: 0.8"/>
      </g>
     </g>
     <g id="text_12">
      <!-- 2023-11-19 -->
      <g transform="translate(418.397319 176.307) scale(0.1 -0.1)">
       <use xlink:href="#SimHei-32"/>
       <use xlink:href="#SimHei-30" x="50"/>
       <use xlink:href="#SimHei-32" x="100"/>
       <use xlink:href="#SimHei-33" x="150"/>
       <use xlink:href="#SimHei-2d" x="200"/>
       <use xlink:href="#SimHei-31" x="250"/>
       <use xlink:href="#SimHei-31" x="300"/>
       <use xlink:href="#SimHei-2d" x="350"/>
       <use xlink:href="#SimHei-31" x="400"/>
       <use xlink:href="#SimHei-39" x="450"/>
      </g>
     </g>
    </g>
    <g id="xtick_6">
     <g id="line2d_13">
      <g>
       <use xlink:href="#m77c1cf90a4" x="507.339259" y="162.432" style="stroke: #000000; stroke-width: 0.8"/>
      </g>
     </g>
     <g id="text_13">
      <!-- 2024-01-18 -->
      <g transform="translate(482.339259 176.307) scale(0.1 -0.1)">
       <use xlink:href="#SimHei-32"/>
       <use xlink:href="#SimHei-30" x="50"/>
       <use xlink:href="#SimHei-32" x="100"/>
       <use xlink:href="#SimHei-34" x="150"/>
       <use xlink:href="#SimHei-2d" x="200"/>
       <use xlink:href="#SimHei-30" x="250"/>
       <use xlink:href="#SimHei-31" x="300"/>
       <use xlink:href="#SimHei-2d" x="350"/>
       <use xlink:href="#SimHei-31" x="400"/>
       <use xlink:href="#SimHei-38" x="450"/>
      </g>
     </g>
    </g>
   </g>
   <g id="matplotlib.axis_4">
    <g id="ytick_7">
     <g id="line2d_14">
      <g>
       <use xlink:href="#mf14d4a9fff" x="322.120772" y="155.376" style="stroke: #000000; stroke-width: 0.8"/>
      </g>
     </g>
     <g id="text_14">
      <!-- 0.0 -->
      <g transform="translate(300.120772 158.8135) scale(0.1 -0.1)">
       <use xlink:href="#SimHei-30"/>
       <use xlink:href="#SimHei-2e" x="50"/>
       <use xlink:href="#SimHei-30" x="100"/>
      </g>
     </g>
    </g>
    <g id="ytick_8">
     <g id="line2d_15">
      <g>
       <use xlink:href="#mf14d4a9fff" x="322.120772" y="127.152" style="stroke: #000000; stroke-width: 0.8"/>
      </g>
     </g>
     <g id="text_15">
      <!-- 0.2 -->
      <g transform="translate(300.120772 130.5895) scale(0.1 -0.1)">
       <use xlink:href="#SimHei-30"/>
       <use xlink:href="#SimHei-2e" x="50"/>
       <use xlink:href="#SimHei-32" x="100"/>
      </g>
     </g>
    </g>
    <g id="ytick_9">
     <g id="line2d_16">
      <g>
       <use xlink:href="#mf14d4a9fff" x="322.120772" y="98.928" style="stroke: #000000; stroke-width: 0.8"/>
      </g>
     </g>
     <g id="text_16">
      <!-- 0.4 -->
      <g transform="translate(300.120772 102.3655) scale(0.1 -0.1)">
       <use xlink:href="#SimHei-30"/>
       <use xlink:href="#SimHei-2e" x="50"/>
       <use xlink:href="#SimHei-34" x="100"/>
      </g>
     </g>
    </g>
    <g id="ytick_10">
     <g id="line2d_17">
      <g>
       <use xlink:href="#mf14d4a9fff" x="322.120772" y="70.704" style="stroke: #000000; stroke-width: 0.8"/>
      </g>
     </g>
     <g id="text_17">
      <!-- 0.6 -->
      <g transform="translate(300.120772 74.1415) scale(0.1 -0.1)">
       <use xlink:href="#SimHei-30"/>
       <use xlink:href="#SimHei-2e" x="50"/>
       <use xlink:href="#SimHei-36" x="100"/>
      </g>
     </g>
    </g>
    <g id="ytick_11">
     <g id="line2d_18">
      <g>
       <use xlink:href="#mf14d4a9fff" x="322.120772" y="42.48" style="stroke: #000000; stroke-width: 0.8"/>
      </g>
     </g>
     <g id="text_18">
      <!-- 0.8 -->
      <g transform="translate(300.120772 45.9175) scale(0.1 -0.1)">
       <use xlink:href="#SimHei-30"/>
       <use xlink:href="#SimHei-2e" x="50"/>
       <use xlink:href="#SimHei-38" x="100"/>
      </g>
     </g>
    </g>
    <g id="ytick_12">
     <g id="line2d_19">
      <g>
       <use xlink:href="#mf14d4a9fff" x="322.120772" y="14.256" style="stroke: #000000; stroke-width: 0.8"/>
      </g>
     </g>
     <g id="text_19">
      <!-- 1.0 -->
      <g transform="translate(300.120772 17.6935) scale(0.1 -0.1)">
       <use xlink:href="#SimHei-31"/>
       <use xlink:href="#SimHei-2e" x="50"/>
       <use xlink:href="#SimHei-30" x="100"/>
      </g>
     </g>
    </g>
   </g>
   <g id="line2d_20">
    <path d="M 332.564622 155.376 
L 541.441628 155.376 
L 541.441628 155.376 
" clip-path="url(#pb435412a01)" style="fill: none; stroke: #1f77b4; stroke-width: 1.5; stroke-linecap: square"/>
   </g>
   <g id="line2d_21">
    <path d="M 332.564622 155.376 
L 373.061185 155.375999 
L 374.126884 154.98343 
L 377.323981 155.375999 
L 378.38968 155.376 
L 379.455379 154.085338 
L 380.521078 155.376 
L 541.441628 155.376 
L 541.441628 155.376 
" clip-path="url(#pb435412a01)" style="fill: none; stroke: #ff7f0e; stroke-width: 1.5; stroke-linecap: square"/>
   </g>
   <g id="line2d_22">
    <path d="M 332.564622 155.376 
L 333.630321 121.233216 
L 334.69602 120.653459 
L 335.761719 118.60434 
L 336.827418 118.604342 
L 340.024515 116.757617 
L 341.090214 113.890845 
L 342.155913 117.524585 
L 343.221612 118.7558 
L 344.287311 117.511489 
L 347.484408 118.755865 
L 348.550107 120.937043 
L 349.615806 117.636518 
L 350.681505 120.937043 
L 351.747204 120.830765 
L 354.944301 114.129511 
L 356.01 118.305937 
L 357.075699 117.150546 
L 358.141398 117.103093 
L 359.207097 117.397808 
L 362.404195 117.103097 
L 363.469894 113.890845 
L 365.601292 116.758243 
L 366.666991 116.758242 
L 369.864088 117.784192 
L 370.929787 114.030225 
L 371.995486 116.288518 
L 373.061185 115.458464 
L 374.126884 113.869868 
L 377.323981 117.103069 
L 378.38968 117.054891 
L 379.455379 113.753199 
L 380.521078 115.306657 
L 381.586777 114.100322 
L 384.783874 114.100321 
L 386.915272 116.624049 
L 387.980971 121.053888 
L 399.70366 120.093397 
L 400.769359 117.643501 
L 401.835058 116.96488 
L 402.900757 117.095131 
L 403.966456 115.509612 
L 407.163553 118.769393 
L 408.229252 118.465119 
L 409.294951 119.937965 
L 411.426349 121.840584 
L 414.623446 119.49086 
L 415.689145 119.883956 
L 416.754844 120.093395 
L 417.820543 117.169085 
L 418.886242 120.589558 
L 422.083339 120.590526 
L 423.149038 120.330102 
L 424.214737 115.861355 
L 425.280436 116.759822 
L 426.346135 117.496275 
L 429.543232 117.496276 
L 430.608931 118.084439 
L 432.740329 114.892791 
L 433.806028 117.224967 
L 437.003125 117.224964 
L 438.068824 116.314652 
L 439.134523 114.79997 
L 440.200222 114.170759 
L 441.265921 118.005568 
L 444.463018 117.633357 
L 445.528717 119.328772 
L 446.594416 118.916993 
L 447.660115 125.708566 
L 448.725814 125.456463 
L 451.922911 126.798582 
L 452.98861 123.388387 
L 454.054309 122.562947 
L 455.120008 120.909405 
L 456.185707 117.462844 
L 459.382804 122.375627 
L 460.448503 124.629483 
L 461.514202 122.289709 
L 463.6456 124.579571 
L 466.842697 125.0371 
L 467.908396 123.69266 
L 468.974095 125.037088 
L 470.039794 125.60984 
L 471.105493 125.426321 
L 474.30259 125.393047 
L 475.368289 125.037093 
L 476.433988 125.60984 
L 481.762483 125.60984 
L 482.828182 126.027638 
L 483.893881 125.611668 
L 486.025279 125.611668 
L 490.288075 125.393048 
L 491.353774 125.60984 
L 496.682269 125.601274 
L 497.747968 127.46612 
L 498.813667 128.006535 
L 499.879366 127.37869 
L 500.945065 127.004178 
L 504.142162 126.76424 
L 505.207861 127.011123 
L 506.27356 127.011126 
L 507.339259 126.764233 
L 508.404958 124.021839 
L 511.602055 122.976081 
L 512.667754 125.586109 
L 513.733453 125.39976 
L 514.799153 125.586107 
L 515.864852 127.124205 
L 519.061949 127.035427 
L 520.127648 129.918896 
L 521.193347 135.06072 
L 522.259046 135.320155 
L 523.324745 135.326316 
L 526.521842 135.029712 
L 527.587541 134.200147 
L 528.65324 135.400949 
L 529.718939 131.837931 
L 541.441628 132.680243 
L 541.441628 132.680243 
" clip-path="url(#pb435412a01)" style="fill: none; stroke: #2ca02c; stroke-width: 1.5; stroke-linecap: square"/>
   </g>
   <g id="line2d_23">
    <path d="M 332.564622 155.376 
L 541.441628 155.376 
L 541.441628 155.376 
" clip-path="url(#pb435412a01)" style="fill: none; stroke: #d62728; stroke-width: 1.5; stroke-linecap: square"/>
   </g>
   <g id="line2d_24">
    <path d="M 332.564622 155.376 
L 541.441628 155.376 
L 541.441628 155.376 
" clip-path="url(#pb435412a01)" style="fill: none; stroke: #9467bd; stroke-width: 1.5; stroke-linecap: square"/>
   </g>
   <g id="line2d_25">
    <path d="M 332.564622 155.376 
L 541.441628 155.376 
L 541.441628 155.376 
" clip-path="url(#pb435412a01)" style="fill: none; stroke: #8c564b; stroke-width: 1.5; stroke-linecap: square"/>
   </g>
   <g id="line2d_26">
    <path d="M 332.564622 155.376 
L 333.630321 118.776688 
L 334.69602 119.124145 
L 335.761719 118.202766 
L 336.827418 118.202763 
L 340.024515 119.986034 
L 341.090214 119.779898 
L 342.155913 121.29686 
L 343.221612 124.182131 
L 344.287311 120.962541 
L 347.484408 124.181525 
L 349.615806 120.904205 
L 350.681505 122.478065 
L 351.747204 122.972283 
L 354.944301 121.636069 
L 356.01 122.971983 
L 357.075699 120.495002 
L 358.141398 120.393274 
L 359.207097 120.528862 
L 362.404195 120.393276 
L 363.469894 119.779889 
L 364.535593 119.850298 
L 365.601292 119.653988 
L 366.666991 119.653987 
L 369.864088 120.119548 
L 370.929787 119.207017 
L 371.995486 117.204637 
L 373.061185 118.865227 
L 374.126884 119.973779 
L 377.323981 120.393287 
L 378.38968 120.371098 
L 379.455379 121.270249 
L 380.521078 119.863976 
L 381.586777 119.811578 
L 385.849573 119.863977 
L 386.915272 118.450771 
L 387.980971 118.701825 
L 399.70366 120.60968 
L 401.835058 119.463017 
L 402.900757 119.491411 
L 403.966456 120.111563 
L 407.163553 122.531372 
L 408.229252 122.961056 
L 409.294951 123.700667 
L 410.36065 122.88229 
L 411.426349 122.321549 
L 414.623446 121.347321 
L 415.689145 120.866097 
L 416.754844 120.609702 
L 417.820543 119.507543 
L 418.886242 117.390557 
L 422.083339 117.389688 
L 423.149038 117.004677 
L 424.214737 115.983489 
L 425.280436 118.812563 
L 426.346135 120.574164 
L 429.543232 120.574164 
L 430.608931 124.463847 
L 431.67463 121.408829 
L 432.740329 121.761917 
L 433.806028 125.938347 
L 437.003125 125.938347 
L 438.068824 125.713206 
L 439.134523 124.899026 
L 440.200222 122.298521 
L 441.265921 124.619561 
L 444.463018 124.836588 
L 445.528717 126.616417 
L 446.594416 126.40728 
L 447.660115 129.565176 
L 448.725814 131.035805 
L 451.922911 131.23318 
L 452.98861 131.633616 
L 454.054309 131.394745 
L 455.120008 130.58363 
L 456.185707 126.665715 
L 459.382804 133.542632 
L 460.448503 140.473697 
L 461.514202 134.184772 
L 462.579901 142.213964 
L 463.6456 140.609357 
L 466.842697 143.442906 
L 467.908396 142.68383 
L 468.974095 143.442907 
L 470.039794 143.479997 
L 471.105493 143.754053 
L 475.368289 143.44291 
L 477.499687 143.479997 
L 478.565386 143.77084 
L 481.762483 143.479998 
L 482.828182 142.878778 
L 483.893881 143.715653 
L 486.025279 143.715651 
L 491.353774 143.479997 
L 492.419473 143.715309 
L 493.485172 143.479997 
L 496.682269 143.770833 
L 497.747968 142.29012 
L 498.813667 144.931118 
L 499.879366 145.687952 
L 500.945065 145.573765 
L 504.142162 145.72636 
L 505.207861 146.05086 
L 506.27356 146.05086 
L 507.339259 145.72636 
L 508.404958 146.204056 
L 511.602055 145.822506 
L 512.667754 143.805769 
L 513.733453 143.937646 
L 514.799153 143.80577 
L 515.864852 145.945136 
L 519.061949 145.327526 
L 520.127648 141.264715 
L 521.193347 138.235979 
L 522.259046 137.267853 
L 523.324745 138.149322 
L 526.521842 135.941015 
L 527.587541 137.466059 
L 528.65324 137.432169 
L 529.718939 135.351779 
L 541.441628 134.311956 
L 541.441628 134.311956 
" clip-path="url(#pb435412a01)" style="fill: none; stroke: #e377c2; stroke-width: 1.5; stroke-linecap: square"/>
   </g>
   <g id="line2d_27">
    <path d="M 332.564622 155.376 
L 333.630321 101.241598 
L 334.69602 98.406294 
L 335.761719 96.86498 
L 336.827418 96.864993 
L 340.024515 88.264349 
L 341.090214 91.337257 
L 342.155913 86.186554 
L 343.221612 82.070068 
L 344.287311 86.53397 
L 347.484408 82.070611 
L 348.550107 81.59289 
L 349.615806 86.467278 
L 350.681505 81.592892 
L 351.747204 81.204953 
L 354.944301 89.24242 
L 356.01 83.73008 
L 357.075699 87.362452 
L 358.141398 87.511633 
L 359.207097 87.08133 
L 362.404195 87.511626 
L 363.469894 91.337267 
L 364.535593 96.505304 
L 365.601292 88.595773 
L 366.666991 88.595771 
L 369.864088 87.10426 
L 370.929787 91.770764 
L 371.995486 93.654893 
L 373.061185 96.536341 
L 374.126884 91.556926 
L 377.323981 87.51165 
L 378.38968 87.582012 
L 379.455379 91.275215 
L 380.521078 96.50526 
L 381.586777 92.543001 
L 384.783874 92.543002 
L 385.849573 96.505259 
L 387.980971 101.181576 
L 399.70366 102.719869 
L 400.769359 100.090832 
L 401.835058 100.036531 
L 402.900757 99.714993 
L 403.966456 97.017486 
L 407.163553 103.631763 
L 408.229252 103.794999 
L 409.294951 104.786985 
L 411.426349 105.12771 
L 414.623446 102.60363 
L 416.754844 102.719858 
L 417.820543 99.532422 
L 418.886242 103.61722 
L 422.083339 103.617309 
L 423.149038 103.461994 
L 424.214737 95.756327 
L 425.280436 89.435615 
L 426.346135 86.937561 
L 429.543232 86.93756 
L 430.608931 82.459714 
L 431.67463 87.031648 
L 432.740329 88.353293 
L 433.806028 81.844686 
L 437.003125 81.844689 
L 438.068824 82.980142 
L 439.134523 85.309004 
L 440.200222 88.53872 
L 441.265921 82.382871 
L 444.463018 82.538055 
L 445.528717 79.062811 
L 446.594416 79.683728 
L 447.660115 73.254498 
L 448.725814 71.259725 
L 451.922911 66.976238 
L 452.98861 69.985998 
L 454.054309 71.050308 
L 455.120008 73.514965 
L 456.185707 80.879442 
L 459.382804 69.089741 
L 460.448503 59.90482 
L 461.514202 68.533519 
L 462.579901 59.431861 
L 463.6456 59.819072 
L 466.842697 56.527994 
L 467.908396 58.631511 
L 468.974095 56.528005 
L 470.039794 55.918163 
L 471.105493 55.827626 
L 474.30259 56.154942 
L 475.368289 56.527997 
L 476.433988 55.918164 
L 477.499687 55.918163 
L 478.565386 55.635884 
L 482.828182 56.101584 
L 483.893881 55.680678 
L 486.025279 55.680681 
L 490.288075 56.154941 
L 492.419473 55.681025 
L 493.485172 55.918162 
L 496.682269 55.635894 
L 497.747968 55.25176 
L 498.813667 52.070348 
L 499.879366 51.941359 
L 500.945065 52.430057 
L 504.142162 52.5174 
L 505.207861 51.946017 
L 506.27356 51.946014 
L 507.339259 52.517408 
L 508.404958 54.782106 
L 511.602055 56.209413 
L 512.667754 55.616122 
L 514.799153 55.616123 
L 515.864852 51.938659 
L 519.061949 52.645049 
L 520.127648 58.296918 
L 521.193347 67.516801 
L 522.259046 65.446001 
L 523.324745 66.254322 
L 526.521842 62.981568 
L 527.587541 60.651515 
L 528.65324 67.814911 
L 529.718939 67.102029 
L 541.441628 68.101199 
L 541.441628 68.101199 
" clip-path="url(#pb435412a01)" style="fill: none; stroke: #7f7f7f; stroke-width: 1.5; stroke-linecap: square"/>
   </g>
   <g id="line2d_28">
    <path d="M 332.564622 155.376 
L 541.441628 155.376 
L 541.441628 155.376 
" clip-path="url(#pb435412a01)" style="fill: none; stroke: #bcbd22; stroke-width: 1.5; stroke-linecap: square"/>
   </g>
   <g id="line2d_29">
    <path d="M 332.564622 155.376 
L 333.630321 139.132498 
L 334.69602 142.200103 
L 335.761719 146.711914 
L 336.827418 146.711902 
L 340.024515 155.376 
L 363.469894 155.376 
L 364.535593 148.723504 
L 365.601292 155.375996 
L 370.929787 155.375994 
L 371.995486 153.235952 
L 373.061185 149.523969 
L 374.126884 155.375998 
L 379.455379 155.376 
L 380.521078 148.708108 
L 381.586777 153.929099 
L 384.783874 153.929099 
L 385.849573 148.708109 
L 386.915272 146.505172 
L 387.980971 139.446711 
L 399.70366 136.961054 
L 400.769359 142.59878 
L 401.835058 143.919571 
L 402.900757 144.082465 
L 403.966456 147.745338 
L 407.163553 135.451472 
L 408.229252 135.162826 
L 409.294951 131.958383 
L 410.36065 131.618969 
L 411.426349 131.094157 
L 414.623446 136.942189 
L 416.754844 136.961045 
L 417.820543 144.17495 
L 418.886242 138.786666 
L 422.083339 138.786476 
L 423.149038 139.587226 
L 424.214737 152.782829 
L 425.280436 155.376 
L 446.594416 155.375999 
L 447.660115 151.85576 
L 448.725814 152.632007 
L 451.922911 155.376 
L 519.061949 155.375998 
L 520.127648 150.90347 
L 521.193347 139.5705 
L 522.259046 142.349991 
L 523.324745 140.65404 
L 526.521842 146.431704 
L 527.587541 148.066279 
L 528.65324 139.735971 
L 529.718939 146.092261 
L 541.441628 145.290601 
L 541.441628 145.290601 
" clip-path="url(#pb435412a01)" style="fill: none; stroke: #17becf; stroke-width: 1.5; stroke-linecap: square"/>
   </g>
   <g id="line2d_30">
    <path d="M 332.564622 14.256 
L 333.630321 155.376 
L 541.441628 155.376 
L 541.441628 155.376 
" clip-path="url(#pb435412a01)" style="fill: none; stroke: #1f77b4; stroke-width: 1.5; stroke-linecap: square"/>
   </g>
   <g id="patch_8">
    <path d="M 322.120772 162.432 
L 322.120772 7.2 
" style="fill: none; stroke: #000000; stroke-width: 0.8; stroke-linejoin: miter; stroke-linecap: square"/>
   </g>
   <g id="patch_9">
    <path d="M 551.885478 162.432 
L 551.885478 7.2 
" style="fill: none; stroke: #000000; stroke-width: 0.8; stroke-linejoin: miter; stroke-linecap: square"/>
   </g>
   <g id="patch_10">
    <path d="M 322.120772 162.432 
L 551.885478 162.432 
" style="fill: none; stroke: #000000; stroke-width: 0.8; stroke-linejoin: miter; stroke-linecap: square"/>
   </g>
   <g id="patch_11">
    <path d="M 322.120772 7.2 
L 551.885478 7.2 
" style="fill: none; stroke: #000000; stroke-width: 0.8; stroke-linejoin: miter; stroke-linecap: square"/>
   </g>
   <g id="legend_1">
    <g id="patch_12">
     <path d="M 457.885478 148.60625 
L 544.885478 148.60625 
Q 546.885478 148.60625 546.885478 146.60625 
L 546.885478 14.2 
Q 546.885478 12.2 544.885478 12.2 
L 457.885478 12.2 
Q 455.885478 12.2 455.885478 14.2 
L 455.885478 146.60625 
Q 455.885478 148.60625 457.885478 148.60625 
z
" style="fill: #ffffff; opacity: 0.8; stroke: #cccccc; stroke-linejoin: miter"/>
    </g>
    <g id="line2d_31">
     <path d="M 459.885478 19.73125 
L 469.885478 19.73125 
L 479.885478 19.73125 
" style="fill: none; stroke: #1f77b4; stroke-width: 1.5; stroke-linecap: square"/>
    </g>
    <g id="text_20">
     <!-- w_002027.SZ -->
     <g transform="translate(487.885478 23.23125) scale(0.1 -0.1)">
      <defs>
       <path id="SimHei-77" d="M 3075 2925 
L 2450 75 
L 1975 75 
L 1575 2250 
L 1525 2250 
L 1125 75 
L 650 75 
L 25 2925 
L 550 2925 
L 875 1050 
L 925 1050 
L 1275 2925 
L 1825 2925 
L 2175 1050 
L 2225 1050 
L 2550 2925 
L 3075 2925 
z
" transform="scale(0.015625)"/>
       <path id="SimHei-5f" d="M 3150 -850 
L 0 -850 
L 0 -550 
L 3150 -550 
L 3150 -850 
z
" transform="scale(0.015625)"/>
       <path id="SimHei-37" d="M 850 150 
Q 1300 2050 2425 3925 
L 275 3925 
L 275 4375 
L 2950 4375 
L 2950 3950 
Q 1775 2050 1400 150 
L 850 150 
z
" transform="scale(0.015625)"/>
       <path id="SimHei-5a" d="M 2900 125 
L 225 125 
L 225 600 
L 2250 3925 
L 375 3925 
L 375 4400 
L 2825 4400 
L 2825 3925 
L 800 600 
L 2900 600 
L 2900 125 
z
" transform="scale(0.015625)"/>
      </defs>
      <use xlink:href="#SimHei-77"/>
      <use xlink:href="#SimHei-5f" x="50"/>
      <use xlink:href="#SimHei-30" x="100"/>
      <use xlink:href="#SimHei-30" x="150"/>
      <use xlink:href="#SimHei-32" x="200"/>
      <use xlink:href="#SimHei-30" x="250"/>
      <use xlink:href="#SimHei-32" x="300"/>
      <use xlink:href="#SimHei-37" x="350"/>
      <use xlink:href="#SimHei-2e" x="400"/>
      <use xlink:href="#SimHei-53" x="450"/>
      <use xlink:href="#SimHei-5a" x="500"/>
     </g>
    </g>
    <g id="line2d_32">
     <path d="M 459.885478 33.090625 
L 469.885478 33.090625 
L 479.885478 33.090625 
" style="fill: none; stroke: #ff7f0e; stroke-width: 1.5; stroke-linecap: square"/>
    </g>
    <g id="text_21">
     <!-- w_002371.SZ -->
     <g transform="translate(487.885478 36.590625) scale(0.1 -0.1)">
      <use xlink:href="#SimHei-77"/>
      <use xlink:href="#SimHei-5f" x="50"/>
      <use xlink:href="#SimHei-30" x="100"/>
      <use xlink:href="#SimHei-30" x="150"/>
      <use xlink:href="#SimHei-32" x="200"/>
      <use xlink:href="#SimHei-33" x="250"/>
      <use xlink:href="#SimHei-37" x="300"/>
      <use xlink:href="#SimHei-31" x="350"/>
      <use xlink:href="#SimHei-2e" x="400"/>
      <use xlink:href="#SimHei-53" x="450"/>
      <use xlink:href="#SimHei-5a" x="500"/>
     </g>
    </g>
    <g id="line2d_33">
     <path d="M 459.885478 46.41875 
L 469.885478 46.41875 
L 479.885478 46.41875 
" style="fill: none; stroke: #2ca02c; stroke-width: 1.5; stroke-linecap: square"/>
    </g>
    <g id="text_22">
     <!-- w_600009.SH -->
     <g transform="translate(487.885478 49.91875) scale(0.1 -0.1)">
      <defs>
       <path id="SimHei-48" d="M 2850 125 
L 2275 125 
L 2275 2125 
L 850 2125 
L 850 125 
L 275 125 
L 275 4400 
L 850 4400 
L 850 2600 
L 2275 2600 
L 2275 4400 
L 2850 4400 
L 2850 125 
z
" transform="scale(0.015625)"/>
      </defs>
      <use xlink:href="#SimHei-77"/>
      <use xlink:href="#SimHei-5f" x="50"/>
      <use xlink:href="#SimHei-36" x="100"/>
      <use xlink:href="#SimHei-30" x="150"/>
      <use xlink:href="#SimHei-30" x="200"/>
      <use xlink:href="#SimHei-30" x="250"/>
      <use xlink:href="#SimHei-30" x="300"/>
      <use xlink:href="#SimHei-39" x="350"/>
      <use xlink:href="#SimHei-2e" x="400"/>
      <use xlink:href="#SimHei-53" x="450"/>
      <use xlink:href="#SimHei-48" x="500"/>
     </g>
    </g>
    <g id="line2d_34">
     <path d="M 459.885478 59.778125 
L 469.885478 59.778125 
L 479.885478 59.778125 
" style="fill: none; stroke: #d62728; stroke-width: 1.5; stroke-linecap: square"/>
    </g>
    <g id="text_23">
     <!-- w_600029.SH -->
     <g transform="translate(487.885478 63.278125) scale(0.1 -0.1)">
      <use xlink:href="#SimHei-77"/>
      <use xlink:href="#SimHei-5f" x="50"/>
      <use xlink:href="#SimHei-36" x="100"/>
      <use xlink:href="#SimHei-30" x="150"/>
      <use xlink:href="#SimHei-30" x="200"/>
      <use xlink:href="#SimHei-30" x="250"/>
      <use xlink:href="#SimHei-32" x="300"/>
      <use xlink:href="#SimHei-39" x="350"/>
      <use xlink:href="#SimHei-2e" x="400"/>
      <use xlink:href="#SimHei-53" x="450"/>
      <use xlink:href="#SimHei-48" x="500"/>
     </g>
    </g>
    <g id="line2d_35">
     <path d="M 459.885478 73.1375 
L 469.885478 73.1375 
L 479.885478 73.1375 
" style="fill: none; stroke: #9467bd; stroke-width: 1.5; stroke-linecap: square"/>
    </g>
    <g id="text_24">
     <!-- w_600183.SH -->
     <g transform="translate(487.885478 76.6375) scale(0.1 -0.1)">
      <use xlink:href="#SimHei-77"/>
      <use xlink:href="#SimHei-5f" x="50"/>
      <use xlink:href="#SimHei-36" x="100"/>
      <use xlink:href="#SimHei-30" x="150"/>
      <use xlink:href="#SimHei-30" x="200"/>
      <use xlink:href="#SimHei-31" x="250"/>
      <use xlink:href="#SimHei-38" x="300"/>
      <use xlink:href="#SimHei-33" x="350"/>
      <use xlink:href="#SimHei-2e" x="400"/>
      <use xlink:href="#SimHei-53" x="450"/>
      <use xlink:href="#SimHei-48" x="500"/>
     </g>
    </g>
    <g id="line2d_36">
     <path d="M 459.885478 86.465625 
L 469.885478 86.465625 
L 479.885478 86.465625 
" style="fill: none; stroke: #8c564b; stroke-width: 1.5; stroke-linecap: square"/>
    </g>
    <g id="text_25">
     <!-- w_600406.SH -->
     <g transform="translate(487.885478 89.965625) scale(0.1 -0.1)">
      <use xlink:href="#SimHei-77"/>
      <use xlink:href="#SimHei-5f" x="50"/>
      <use xlink:href="#SimHei-36" x="100"/>
      <use xlink:href="#SimHei-30" x="150"/>
      <use xlink:href="#SimHei-30" x="200"/>
      <use xlink:href="#SimHei-34" x="250"/>
      <use xlink:href="#SimHei-30" x="300"/>
      <use xlink:href="#SimHei-36" x="350"/>
      <use xlink:href="#SimHei-2e" x="400"/>
      <use xlink:href="#SimHei-53" x="450"/>
      <use xlink:href="#SimHei-48" x="500"/>
     </g>
    </g>
    <g id="line2d_37">
     <path d="M 459.885478 99.79375 
L 469.885478 99.79375 
L 479.885478 99.79375 
" style="fill: none; stroke: #e377c2; stroke-width: 1.5; stroke-linecap: square"/>
    </g>
    <g id="text_26">
     <!-- w_600900.SH -->
     <g transform="translate(487.885478 103.29375) scale(0.1 -0.1)">
      <use xlink:href="#SimHei-77"/>
      <use xlink:href="#SimHei-5f" x="50"/>
      <use xlink:href="#SimHei-36" x="100"/>
      <use xlink:href="#SimHei-30" x="150"/>
      <use xlink:href="#SimHei-30" x="200"/>
      <use xlink:href="#SimHei-39" x="250"/>
      <use xlink:href="#SimHei-30" x="300"/>
      <use xlink:href="#SimHei-30" x="350"/>
      <use xlink:href="#SimHei-2e" x="400"/>
      <use xlink:href="#SimHei-53" x="450"/>
      <use xlink:href="#SimHei-48" x="500"/>
     </g>
    </g>
    <g id="line2d_38">
     <path d="M 459.885478 113.121875 
L 469.885478 113.121875 
L 479.885478 113.121875 
" style="fill: none; stroke: #7f7f7f; stroke-width: 1.5; stroke-linecap: square"/>
    </g>
    <g id="text_27">
     <!-- w_601989.SH -->
     <g transform="translate(487.885478 116.621875) scale(0.1 -0.1)">
      <use xlink:href="#SimHei-77"/>
      <use xlink:href="#SimHei-5f" x="50"/>
      <use xlink:href="#SimHei-36" x="100"/>
      <use xlink:href="#SimHei-30" x="150"/>
      <use xlink:href="#SimHei-31" x="200"/>
      <use xlink:href="#SimHei-39" x="250"/>
      <use xlink:href="#SimHei-38" x="300"/>
      <use xlink:href="#SimHei-39" x="350"/>
      <use xlink:href="#SimHei-2e" x="400"/>
      <use xlink:href="#SimHei-53" x="450"/>
      <use xlink:href="#SimHei-48" x="500"/>
     </g>
    </g>
    <g id="line2d_39">
     <path d="M 459.885478 126.45 
L 469.885478 126.45 
L 479.885478 126.45 
" style="fill: none; stroke: #bcbd22; stroke-width: 1.5; stroke-linecap: square"/>
    </g>
    <g id="text_28">
     <!-- w_601998.SH -->
     <g transform="translate(487.885478 129.95) scale(0.1 -0.1)">
      <use xlink:href="#SimHei-77"/>
      <use xlink:href="#SimHei-5f" x="50"/>
      <use xlink:href="#SimHei-36" x="100"/>
      <use xlink:href="#SimHei-30" x="150"/>
      <use xlink:href="#SimHei-31" x="200"/>
      <use xlink:href="#SimHei-39" x="250"/>
      <use xlink:href="#SimHei-39" x="300"/>
      <use xlink:href="#SimHei-38" x="350"/>
      <use xlink:href="#SimHei-2e" x="400"/>
      <use xlink:href="#SimHei-53" x="450"/>
      <use xlink:href="#SimHei-48" x="500"/>
     </g>
    </g>
    <g id="line2d_40">
     <path d="M 459.885478 139.778125 
L 469.885478 139.778125 
L 479.885478 139.778125 
" style="fill: none; stroke: #17becf; stroke-width: 1.5; stroke-linecap: square"/>
    </g>
    <g id="text_29">
     <!-- w_CASH -->
     <g transform="translate(487.885478 143.278125) scale(0.1 -0.1)">
      <defs>
       <path id="SimHei-41" d="M 3075 125 
L 2475 125 
L 2125 1450 
L 1025 1450 
L 675 125 
L 75 125 
L 1325 4450 
L 1825 4450 
L 3075 125 
z
M 2000 1925 
L 1600 3450 
L 1550 3450 
L 1150 1925 
L 2000 1925 
z
" transform="scale(0.015625)"/>
      </defs>
      <use xlink:href="#SimHei-77"/>
      <use xlink:href="#SimHei-5f" x="50"/>
      <use xlink:href="#SimHei-43" x="100"/>
      <use xlink:href="#SimHei-41" x="150"/>
      <use xlink:href="#SimHei-53" x="200"/>
      <use xlink:href="#SimHei-48" x="250"/>
     </g>
    </g>
   </g>
  </g>
  <g id="axes_3">
   <g id="patch_13">
    <path d="M 597.838419 162.432 
L 827.603125 162.432 
L 827.603125 7.2 
L 597.838419 7.2 
z
" style="fill: #ffffff"/>
   </g>
   <g id="matplotlib.axis_5">
    <g id="xtick_7">
     <g id="line2d_41">
      <g>
       <use xlink:href="#m77c1cf90a4" x="654.107327" y="162.432" style="stroke: #000000; stroke-width: 0.8"/>
      </g>
     </g>
     <g id="text_30">
      <!-- 2023-09-20 -->
      <g transform="translate(629.107327 176.307) scale(0.1 -0.1)">
       <use xlink:href="#SimHei-32"/>
       <use xlink:href="#SimHei-30" x="50"/>
       <use xlink:href="#SimHei-32" x="100"/>
       <use xlink:href="#SimHei-33" x="150"/>
       <use xlink:href="#SimHei-2d" x="200"/>
       <use xlink:href="#SimHei-30" x="250"/>
       <use xlink:href="#SimHei-39" x="300"/>
       <use xlink:href="#SimHei-2d" x="350"/>
       <use xlink:href="#SimHei-32" x="400"/>
       <use xlink:href="#SimHei-30" x="450"/>
      </g>
     </g>
    </g>
    <g id="xtick_8">
     <g id="line2d_42">
      <g>
       <use xlink:href="#m77c1cf90a4" x="718.049267" y="162.432" style="stroke: #000000; stroke-width: 0.8"/>
      </g>
     </g>
     <g id="text_31">
      <!-- 2023-11-19 -->
      <g transform="translate(693.049267 176.307) scale(0.1 -0.1)">
       <use xlink:href="#SimHei-32"/>
       <use xlink:href="#SimHei-30" x="50"/>
       <use xlink:href="#SimHei-32" x="100"/>
       <use xlink:href="#SimHei-33" x="150"/>
       <use xlink:href="#SimHei-2d" x="200"/>
       <use xlink:href="#SimHei-31" x="250"/>
       <use xlink:href="#SimHei-31" x="300"/>
       <use xlink:href="#SimHei-2d" x="350"/>
       <use xlink:href="#SimHei-31" x="400"/>
       <use xlink:href="#SimHei-39" x="450"/>
      </g>
     </g>
    </g>
    <g id="xtick_9">
     <g id="line2d_43">
      <g>
       <use xlink:href="#m77c1cf90a4" x="781.991208" y="162.432" style="stroke: #000000; stroke-width: 0.8"/>
      </g>
     </g>
     <g id="text_32">
      <!-- 2024-01-18 -->
      <g transform="translate(756.991208 176.307) scale(0.1 -0.1)">
       <use xlink:href="#SimHei-32"/>
       <use xlink:href="#SimHei-30" x="50"/>
       <use xlink:href="#SimHei-32" x="100"/>
       <use xlink:href="#SimHei-34" x="150"/>
       <use xlink:href="#SimHei-2d" x="200"/>
       <use xlink:href="#SimHei-30" x="250"/>
       <use xlink:href="#SimHei-31" x="300"/>
       <use xlink:href="#SimHei-2d" x="350"/>
       <use xlink:href="#SimHei-31" x="400"/>
       <use xlink:href="#SimHei-38" x="450"/>
      </g>
     </g>
    </g>
   </g>
   <g id="matplotlib.axis_6">
    <g id="ytick_13">
     <g id="line2d_44">
      <g>
       <use xlink:href="#mf14d4a9fff" x="597.838419" y="155.376" style="stroke: #000000; stroke-width: 0.8"/>
      </g>
     </g>
     <g id="text_33">
      <!-- 0.0000 -->
      <g transform="translate(560.838419 158.8135) scale(0.1 -0.1)">
       <use xlink:href="#SimHei-30"/>
       <use xlink:href="#SimHei-2e" x="50"/>
       <use xlink:href="#SimHei-30" x="100"/>
       <use xlink:href="#SimHei-30" x="150"/>
       <use xlink:href="#SimHei-30" x="200"/>
       <use xlink:href="#SimHei-30" x="250"/>
      </g>
     </g>
    </g>
    <g id="ytick_14">
     <g id="line2d_45">
      <g>
       <use xlink:href="#mf14d4a9fff" x="597.838419" y="127.152" style="stroke: #000000; stroke-width: 0.8"/>
      </g>
     </g>
     <g id="text_34">
      <!-- 0.0005 -->
      <g transform="translate(560.838419 130.5895) scale(0.1 -0.1)">
       <defs>
        <path id="SimHei-35" d="M 550 1325 
Q 725 650 1150 575 
Q 1575 500 1837 662 
Q 2100 825 2212 1087 
Q 2325 1350 2312 1675 
Q 2300 2000 2137 2225 
Q 1975 2450 1725 2525 
Q 1475 2600 1162 2525 
Q 850 2450 650 2175 
L 225 2225 
Q 275 2375 700 4375 
L 2675 4375 
L 2675 3925 
L 1075 3925 
Q 950 3250 825 2850 
Q 1200 3025 1525 3012 
Q 1850 3000 2150 2862 
Q 2450 2725 2587 2487 
Q 2725 2250 2787 2012 
Q 2850 1775 2837 1500 
Q 2825 1225 2725 937 
Q 2625 650 2425 462 
Q 2225 275 1937 162 
Q 1650 50 1275 75 
Q 900 100 562 350 
Q 225 600 100 1200 
L 550 1325 
z
" transform="scale(0.015625)"/>
       </defs>
       <use xlink:href="#SimHei-30"/>
       <use xlink:href="#SimHei-2e" x="50"/>
       <use xlink:href="#SimHei-30" x="100"/>
       <use xlink:href="#SimHei-30" x="150"/>
       <use xlink:href="#SimHei-30" x="200"/>
       <use xlink:href="#SimHei-35" x="250"/>
      </g>
     </g>
    </g>
    <g id="ytick_15">
     <g id="line2d_46">
      <g>
       <use xlink:href="#mf14d4a9fff" x="597.838419" y="98.928" style="stroke: #000000; stroke-width: 0.8"/>
      </g>
     </g>
     <g id="text_35">
      <!-- 0.0010 -->
      <g transform="translate(560.838419 102.3655) scale(0.1 -0.1)">
       <use xlink:href="#SimHei-30"/>
       <use xlink:href="#SimHei-2e" x="50"/>
       <use xlink:href="#SimHei-30" x="100"/>
       <use xlink:href="#SimHei-30" x="150"/>
       <use xlink:href="#SimHei-31" x="200"/>
       <use xlink:href="#SimHei-30" x="250"/>
      </g>
     </g>
    </g>
    <g id="ytick_16">
     <g id="line2d_47">
      <g>
       <use xlink:href="#mf14d4a9fff" x="597.838419" y="70.704" style="stroke: #000000; stroke-width: 0.8"/>
      </g>
     </g>
     <g id="text_36">
      <!-- 0.0015 -->
      <g transform="translate(560.838419 74.1415) scale(0.1 -0.1)">
       <use xlink:href="#SimHei-30"/>
       <use xlink:href="#SimHei-2e" x="50"/>
       <use xlink:href="#SimHei-30" x="100"/>
       <use xlink:href="#SimHei-30" x="150"/>
       <use xlink:href="#SimHei-31" x="200"/>
       <use xlink:href="#SimHei-35" x="250"/>
      </g>
     </g>
    </g>
    <g id="ytick_17">
     <g id="line2d_48">
      <g>
       <use xlink:href="#mf14d4a9fff" x="597.838419" y="42.48" style="stroke: #000000; stroke-width: 0.8"/>
      </g>
     </g>
     <g id="text_37">
      <!-- 0.0020 -->
      <g transform="translate(560.838419 45.9175) scale(0.1 -0.1)">
       <use xlink:href="#SimHei-30"/>
       <use xlink:href="#SimHei-2e" x="50"/>
       <use xlink:href="#SimHei-30" x="100"/>
       <use xlink:href="#SimHei-30" x="150"/>
       <use xlink:href="#SimHei-32" x="200"/>
       <use xlink:href="#SimHei-30" x="250"/>
      </g>
     </g>
    </g>
    <g id="ytick_18">
     <g id="line2d_49">
      <g>
       <use xlink:href="#mf14d4a9fff" x="597.838419" y="14.256" style="stroke: #000000; stroke-width: 0.8"/>
      </g>
     </g>
     <g id="text_38">
      <!-- 0.0025 -->
      <g transform="translate(560.838419 17.6935) scale(0.1 -0.1)">
       <use xlink:href="#SimHei-30"/>
       <use xlink:href="#SimHei-2e" x="50"/>
       <use xlink:href="#SimHei-30" x="100"/>
       <use xlink:href="#SimHei-30" x="150"/>
       <use xlink:href="#SimHei-32" x="200"/>
       <use xlink:href="#SimHei-35" x="250"/>
      </g>
     </g>
    </g>
   </g>
   <g id="line2d_50">
    <path d="M 608.282269 14.256 
L 609.347968 148.756723 
L 610.413667 146.584635 
L 611.479366 154.539239 
L 614.676463 134.721671 
L 615.742162 148.530979 
L 616.807861 146.119696 
L 617.87356 147.936787 
L 618.939259 145.365056 
L 622.136356 146.274179 
L 623.202055 151.05317 
L 624.267754 144.143004 
L 625.333453 143.69286 
L 626.399153 154.042194 
L 629.59625 139.441922 
L 630.661949 141.87932 
L 631.727648 149.274101 
L 632.793347 155.105768 
L 633.859046 153.533103 
L 637.056143 154.344622 
L 638.121842 146.968065 
L 639.187541 141.316815 
L 640.25324 141.856468 
L 641.318939 154.927232 
L 644.516036 152.693228 
L 645.581735 145.557144 
L 646.647434 146.148616 
L 647.713133 143.848726 
L 648.778832 140.767935 
L 651.975929 148.193572 
L 653.041628 153.74294 
L 654.107327 145.097513 
L 655.173026 139.175035 
L 656.238725 143.63736 
L 659.435822 155.152961 
L 660.501521 144.785711 
L 661.56722 147.420671 
L 662.632919 140.988615 
L 674.355608 148.643931 
L 675.421307 144.507781 
L 676.487006 152.260922 
L 677.552705 152.818859 
L 681.815501 130.961089 
L 682.8812 154.191778 
L 683.946899 149.235577 
L 685.012598 152.925041 
L 686.078297 153.068658 
L 689.275394 143.297782 
L 690.341093 151.409257 
L 691.406792 153.419464 
L 692.472491 141.138078 
L 693.53819 141.127417 
L 696.735287 153.366704 
L 697.800986 153.487293 
L 698.866685 128.755993 
L 699.932384 143.28915 
L 700.998083 149.380046 
L 704.19518 153.540938 
L 705.260879 146.915417 
L 706.326578 146.304136 
L 707.392277 150.92901 
L 708.457976 142.726722 
L 711.655073 154.920007 
L 712.720772 153.164047 
L 713.786471 150.074249 
L 714.85217 147.345721 
L 715.917869 142.956471 
L 719.114966 153.343895 
L 720.180665 149.205143 
L 721.246364 153.102634 
L 722.312063 134.481187 
L 723.377762 151.157285 
L 726.574859 145.866415 
L 727.640558 148.738061 
L 728.706257 152.531718 
L 729.771956 149.239447 
L 730.837655 140.617097 
L 734.034752 132.281542 
L 735.100451 138.098504 
L 736.16615 137.983038 
L 737.231849 138.782465 
L 738.297548 151.668205 
L 741.494645 148.207163 
L 742.560344 150.550597 
L 743.626043 151.591298 
L 744.691742 154.17395 
L 745.757441 155.106484 
L 748.954538 153.39342 
L 750.020237 154.311415 
L 751.085936 154.618019 
L 752.151635 153.545025 
L 753.217334 154.250823 
L 756.414431 154.077222 
L 757.48013 153.752882 
L 758.545829 152.002266 
L 759.611528 153.344564 
L 760.677227 154.991837 
L 764.940023 152.495866 
L 766.005722 154.842651 
L 767.071421 154.484804 
L 768.13712 154.530527 
L 771.334217 154.056141 
L 772.399916 151.124381 
L 773.465615 148.910485 
L 774.531314 154.086519 
L 775.597013 153.381509 
L 778.79411 154.91318 
L 779.859809 152.176124 
L 780.925508 155.205269 
L 781.991208 153.452169 
L 783.056907 148.697587 
L 786.254004 153.007011 
L 787.319703 150.169852 
L 788.385402 154.225739 
L 789.451101 154.686709 
L 790.5168 149.658859 
L 793.713897 152.822596 
L 794.779596 138.228852 
L 795.845295 126.477079 
L 796.910994 148.113402 
L 797.976693 151.074861 
L 801.17379 143.2992 
L 802.239489 147.964326 
L 803.305188 138.406528 
L 804.370887 143.001911 
L 816.093576 151.340511 
L 817.159275 155.376 
L 817.159275 155.376 
" clip-path="url(#p2918a55c15)" style="fill: none; stroke: #1f77b4; stroke-width: 1.5; stroke-linecap: square"/>
   </g>
   <g id="patch_14">
    <path d="M 597.838419 162.432 
L 597.838419 7.2 
" style="fill: none; stroke: #000000; stroke-width: 0.8; stroke-linejoin: miter; stroke-linecap: square"/>
   </g>
   <g id="patch_15">
    <path d="M 827.603125 162.432 
L 827.603125 7.2 
" style="fill: none; stroke: #000000; stroke-width: 0.8; stroke-linejoin: miter; stroke-linecap: square"/>
   </g>
   <g id="patch_16">
    <path d="M 597.838419 162.432 
L 827.603125 162.432 
" style="fill: none; stroke: #000000; stroke-width: 0.8; stroke-linejoin: miter; stroke-linecap: square"/>
   </g>
   <g id="patch_17">
    <path d="M 597.838419 7.2 
L 827.603125 7.2 
" style="fill: none; stroke: #000000; stroke-width: 0.8; stroke-linejoin: miter; stroke-linecap: square"/>
   </g>
  </g>
 </g>
 <defs>
  <clipPath id="pb7910c17b1">
   <rect x="46.403125" y="7.2" width="229.764706" height="155.232"/>
  </clipPath>
  <clipPath id="pb435412a01">
   <rect x="322.120772" y="7.2" width="229.764706" height="155.232"/>
  </clipPath>
  <clipPath id="p2918a55c15">
   <rect x="597.838419" y="7.2" width="229.764706" height="155.232"/>
  </clipPath>
 </defs>
</svg>
