<?xml version="1.0" encoding="utf-8" standalone="no"?>
<!DOCTYPE svg PUBLIC "-//W3C//DTD SVG 1.1//EN"
  "http://www.w3.org/Graphics/SVG/1.1/DTD/svg11.dtd">
<svg xmlns:xlink="http://www.w3.org/1999/xlink" width="834.803125pt" height="184.757pt" viewBox="0 0 834.803125 184.757" xmlns="http://www.w3.org/2000/svg" version="1.1">
 <metadata>
  <rdf:RDF xmlns:dc="http://purl.org/dc/elements/1.1/" xmlns:cc="http://creativecommons.org/ns#" xmlns:rdf="http://www.w3.org/1999/02/22-rdf-syntax-ns#">
   <cc:Work>
    <dc:type rdf:resource="http://purl.org/dc/dcmitype/StillImage"/>
    <dc:date>2024-12-25T17:32:59.490732</dc:date>
    <dc:format>image/svg+xml</dc:format>
    <dc:creator>
     <cc:Agent>
      <dc:title>Matplotlib v3.9.3, https://matplotlib.org/</dc:title>
     </cc:Agent>
    </dc:creator>
   </cc:Work>
  </rdf:RDF>
 </metadata>
 <defs>
  <style type="text/css">*{stroke-linejoin: round; stroke-linecap: butt}</style>
 </defs>
 <g id="figure_1">
  <g id="patch_1">
   <path d="M 0 184.757 
L 834.803125 184.757 
L 834.803125 0 
L 0 0 
z
" style="fill: #ffffff"/>
  </g>
  <g id="axes_1">
   <g id="patch_2">
    <path d="M 46.403125 162.432 
L 276.167831 162.432 
L 276.167831 7.2 
L 46.403125 7.2 
z
" style="fill: #ffffff"/>
   </g>
   <g id="matplotlib.axis_1">
    <g id="xtick_1">
     <g id="line2d_1">
      <defs>
       <path id="m98c5f3e237" d="M 0 0 
L 0 3.5 
" style="stroke: #000000; stroke-width: 0.8"/>
      </defs>
      <g>
       <use xlink:href="#m98c5f3e237" x="102.672033" y="162.432" style="stroke: #000000; stroke-width: 0.8"/>
      </g>
     </g>
     <g id="text_1">
      <!-- 2023-09-20 -->
      <g transform="translate(77.672033 176.307) scale(0.1 -0.1)">
       <defs>
        <path id="SimHei-32" d="M 300 250 
Q 325 625 650 925 
Q 975 1225 1475 1862 
Q 1975 2500 2125 2850 
Q 2275 3200 2237 3450 
Q 2200 3700 2000 3862 
Q 1800 4025 1537 4000 
Q 1275 3975 1037 3800 
Q 800 3625 675 3275 
L 200 3350 
Q 400 3925 712 4187 
Q 1025 4450 1450 4475 
Q 1700 4500 1900 4462 
Q 2100 4425 2312 4287 
Q 2525 4150 2662 3875 
Q 2800 3600 2762 3212 
Q 2725 2825 2375 2287 
Q 2025 1750 1025 600 
L 2825 600 
L 2825 150 
L 300 150 
L 300 250 
z
" transform="scale(0.015625)"/>
        <path id="SimHei-30" d="M 225 2537 
Q 250 3200 412 3587 
Q 575 3975 875 4225 
Q 1175 4475 1612 4475 
Q 2050 4475 2375 4112 
Q 2700 3750 2800 3200 
Q 2900 2650 2862 1937 
Q 2825 1225 2612 775 
Q 2400 325 1975 150 
Q 1550 -25 1125 187 
Q 700 400 525 750 
Q 350 1100 275 1487 
Q 200 1875 225 2537 
z
M 750 2687 
Q 675 2000 800 1462 
Q 925 925 1212 700 
Q 1500 475 1800 612 
Q 2100 750 2237 1162 
Q 2375 1575 2375 2062 
Q 2375 2550 2337 2950 
Q 2300 3350 2112 3675 
Q 1925 4000 1612 4012 
Q 1300 4025 1062 3700 
Q 825 3375 750 2687 
z
" transform="scale(0.015625)"/>
        <path id="SimHei-33" d="M 250 1225 
L 700 1300 
Q 800 975 1025 762 
Q 1250 550 1587 562 
Q 1925 575 2125 837 
Q 2325 1100 2300 1437 
Q 2275 1775 2037 1962 
Q 1800 2150 1275 2225 
L 1275 2550 
Q 1800 2600 2037 2825 
Q 2275 3050 2250 3412 
Q 2225 3775 1925 3937 
Q 1625 4100 1287 3975 
Q 950 3850 750 3275 
L 300 3350 
Q 450 3800 712 4100 
Q 975 4400 1425 4450 
Q 1875 4500 2212 4337 
Q 2550 4175 2687 3837 
Q 2825 3500 2725 3100 
Q 2625 2700 2150 2400 
Q 2500 2250 2687 1950 
Q 2875 1650 2812 1162 
Q 2750 675 2375 375 
Q 2000 75 1525 87 
Q 1050 100 700 387 
Q 350 675 250 1225 
z
" transform="scale(0.015625)"/>
        <path id="SimHei-2d" d="M 2975 2125 
L 125 2125 
L 125 2525 
L 2975 2525 
L 2975 2125 
z
" transform="scale(0.015625)"/>
        <path id="SimHei-39" d="M 800 75 
Q 1350 1000 1700 1750 
Q 1075 1650 662 1912 
Q 250 2175 162 2625 
Q 75 3075 175 3437 
Q 275 3800 487 4037 
Q 700 4275 1000 4375 
Q 1300 4475 1537 4475 
Q 1775 4475 2025 4375 
Q 2275 4275 2475 4075 
Q 2675 3875 2750 3662 
Q 2825 3450 2825 3112 
Q 2825 2775 2575 2250 
Q 2325 1725 1350 75 
L 800 75 
z
M 662 2875 
Q 700 2550 937 2337 
Q 1175 2125 1450 2150 
Q 1725 2175 1887 2300 
Q 2050 2425 2200 2725 
Q 2300 3100 2250 3362 
Q 2200 3625 1987 3800 
Q 1775 3975 1525 3975 
Q 1375 4000 1137 3900 
Q 900 3800 762 3500 
Q 625 3200 662 2875 
z
" transform="scale(0.015625)"/>
       </defs>
       <use xlink:href="#SimHei-32"/>
       <use xlink:href="#SimHei-30" x="50"/>
       <use xlink:href="#SimHei-32" x="100"/>
       <use xlink:href="#SimHei-33" x="150"/>
       <use xlink:href="#SimHei-2d" x="200"/>
       <use xlink:href="#SimHei-30" x="250"/>
       <use xlink:href="#SimHei-39" x="300"/>
       <use xlink:href="#SimHei-2d" x="350"/>
       <use xlink:href="#SimHei-32" x="400"/>
       <use xlink:href="#SimHei-30" x="450"/>
      </g>
     </g>
    </g>
    <g id="xtick_2">
     <g id="line2d_2">
      <g>
       <use xlink:href="#m98c5f3e237" x="166.613973" y="162.432" style="stroke: #000000; stroke-width: 0.8"/>
      </g>
     </g>
     <g id="text_2">
      <!-- 2023-11-19 -->
      <g transform="translate(141.613973 176.307) scale(0.1 -0.1)">
       <defs>
        <path id="SimHei-31" d="M 1400 3600 
Q 1075 3275 575 2975 
L 575 3450 
Q 1200 3875 1600 4450 
L 1900 4450 
L 1900 150 
L 1400 150 
L 1400 3600 
z
" transform="scale(0.015625)"/>
       </defs>
       <use xlink:href="#SimHei-32"/>
       <use xlink:href="#SimHei-30" x="50"/>
       <use xlink:href="#SimHei-32" x="100"/>
       <use xlink:href="#SimHei-33" x="150"/>
       <use xlink:href="#SimHei-2d" x="200"/>
       <use xlink:href="#SimHei-31" x="250"/>
       <use xlink:href="#SimHei-31" x="300"/>
       <use xlink:href="#SimHei-2d" x="350"/>
       <use xlink:href="#SimHei-31" x="400"/>
       <use xlink:href="#SimHei-39" x="450"/>
      </g>
     </g>
    </g>
    <g id="xtick_3">
     <g id="line2d_3">
      <g>
       <use xlink:href="#m98c5f3e237" x="230.555913" y="162.432" style="stroke: #000000; stroke-width: 0.8"/>
      </g>
     </g>
     <g id="text_3">
      <!-- 2024-01-18 -->
      <g transform="translate(205.555913 176.307) scale(0.1 -0.1)">
       <defs>
        <path id="SimHei-34" d="M 2000 1100 
L 75 1100 
L 75 1525 
L 2100 4450 
L 2475 4450 
L 2475 1525 
L 3075 1525 
L 3075 1100 
L 2475 1100 
L 2475 150 
L 2000 150 
L 2000 1100 
z
M 2000 1525 
L 2000 3500 
L 600 1525 
L 2000 1525 
z
" transform="scale(0.015625)"/>
        <path id="SimHei-38" d="M 175 1375 
Q 175 1675 325 1962 
Q 475 2250 825 2425 
Q 525 2600 425 2812 
Q 325 3025 312 3300 
Q 300 3575 387 3775 
Q 475 3975 650 4150 
Q 825 4325 1037 4387 
Q 1250 4450 1500 4450 
Q 1750 4450 1950 4400 
Q 2150 4350 2375 4187 
Q 2600 4025 2700 3725 
Q 2800 3425 2687 3025 
Q 2575 2625 2100 2400 
Q 2525 2275 2700 2012 
Q 2875 1750 2875 1375 
Q 2875 1000 2762 775 
Q 2650 550 2512 400 
Q 2375 250 2137 162 
Q 1900 75 1537 75 
Q 1175 75 912 162 
Q 650 250 475 425 
Q 300 600 237 837 
Q 175 1075 175 1375 
z
M 687 1400 
Q 675 1100 787 875 
Q 900 650 1200 587 
Q 1500 525 1825 600 
Q 2150 675 2275 950 
Q 2400 1225 2362 1500 
Q 2325 1775 2050 1962 
Q 1775 2150 1450 2125 
Q 1125 2100 912 1900 
Q 700 1700 687 1400 
z
M 775 3350 
Q 775 3100 950 2875 
Q 1125 2650 1500 2650 
Q 1875 2650 2062 2875 
Q 2250 3100 2237 3412 
Q 2225 3725 2012 3875 
Q 1800 4025 1437 4000 
Q 1075 3975 925 3787 
Q 775 3600 775 3350 
z
" transform="scale(0.015625)"/>
       </defs>
       <use xlink:href="#SimHei-32"/>
       <use xlink:href="#SimHei-30" x="50"/>
       <use xlink:href="#SimHei-32" x="100"/>
       <use xlink:href="#SimHei-34" x="150"/>
       <use xlink:href="#SimHei-2d" x="200"/>
       <use xlink:href="#SimHei-30" x="250"/>
       <use xlink:href="#SimHei-31" x="300"/>
       <use xlink:href="#SimHei-2d" x="350"/>
       <use xlink:href="#SimHei-31" x="400"/>
       <use xlink:href="#SimHei-38" x="450"/>
      </g>
     </g>
    </g>
   </g>
   <g id="matplotlib.axis_2">
    <g id="ytick_1">
     <g id="line2d_4">
      <defs>
       <path id="m8e7c7cb437" d="M 0 0 
L -3.5 0 
" style="stroke: #000000; stroke-width: 0.8"/>
      </defs>
      <g>
       <use xlink:href="#m8e7c7cb437" x="46.403125" y="160.692575" style="stroke: #000000; stroke-width: 0.8"/>
      </g>
     </g>
     <g id="text_4">
      <!-- 0.90 -->
      <g transform="translate(19.403125 164.130075) scale(0.1 -0.1)">
       <defs>
        <path id="SimHei-2e" d="M 1075 125 
L 500 125 
L 500 675 
L 1075 675 
L 1075 125 
z
" transform="scale(0.015625)"/>
       </defs>
       <use xlink:href="#SimHei-30"/>
       <use xlink:href="#SimHei-2e" x="50"/>
       <use xlink:href="#SimHei-39" x="100"/>
       <use xlink:href="#SimHei-30" x="150"/>
      </g>
     </g>
    </g>
    <g id="ytick_2">
     <g id="line2d_5">
      <g>
       <use xlink:href="#m8e7c7cb437" x="46.403125" y="135.74098" style="stroke: #000000; stroke-width: 0.8"/>
      </g>
     </g>
     <g id="text_5">
      <!-- 0.92 -->
      <g transform="translate(19.403125 139.17848) scale(0.1 -0.1)">
       <use xlink:href="#SimHei-30"/>
       <use xlink:href="#SimHei-2e" x="50"/>
       <use xlink:href="#SimHei-39" x="100"/>
       <use xlink:href="#SimHei-32" x="150"/>
      </g>
     </g>
    </g>
    <g id="ytick_3">
     <g id="line2d_6">
      <g>
       <use xlink:href="#m8e7c7cb437" x="46.403125" y="110.789385" style="stroke: #000000; stroke-width: 0.8"/>
      </g>
     </g>
     <g id="text_6">
      <!-- 0.94 -->
      <g transform="translate(19.403125 114.226885) scale(0.1 -0.1)">
       <use xlink:href="#SimHei-30"/>
       <use xlink:href="#SimHei-2e" x="50"/>
       <use xlink:href="#SimHei-39" x="100"/>
       <use xlink:href="#SimHei-34" x="150"/>
      </g>
     </g>
    </g>
    <g id="ytick_4">
     <g id="line2d_7">
      <g>
       <use xlink:href="#m8e7c7cb437" x="46.403125" y="85.83779" style="stroke: #000000; stroke-width: 0.8"/>
      </g>
     </g>
     <g id="text_7">
      <!-- 0.96 -->
      <g transform="translate(19.403125 89.27529) scale(0.1 -0.1)">
       <defs>
        <path id="SimHei-36" d="M 250 1612 
Q 275 1975 387 2225 
Q 500 2475 725 2850 
L 1750 4450 
L 2325 4450 
L 1275 2800 
Q 1950 2975 2350 2750 
Q 2750 2525 2887 2237 
Q 3025 1950 3037 1612 
Q 3050 1275 2937 950 
Q 2825 625 2537 362 
Q 2250 100 1737 75 
Q 1225 50 862 262 
Q 500 475 362 862 
Q 225 1250 250 1612 
z
M 1025 787 
Q 1250 550 1625 525 
Q 2000 500 2250 775 
Q 2500 1050 2500 1575 
Q 2500 2100 2187 2300 
Q 1875 2500 1487 2450 
Q 1100 2400 925 2075 
Q 750 1750 775 1387 
Q 800 1025 1025 787 
z
" transform="scale(0.015625)"/>
       </defs>
       <use xlink:href="#SimHei-30"/>
       <use xlink:href="#SimHei-2e" x="50"/>
       <use xlink:href="#SimHei-39" x="100"/>
       <use xlink:href="#SimHei-36" x="150"/>
      </g>
     </g>
    </g>
    <g id="ytick_5">
     <g id="line2d_8">
      <g>
       <use xlink:href="#m8e7c7cb437" x="46.403125" y="60.886194" style="stroke: #000000; stroke-width: 0.8"/>
      </g>
     </g>
     <g id="text_8">
      <!-- 0.98 -->
      <g transform="translate(19.403125 64.323694) scale(0.1 -0.1)">
       <use xlink:href="#SimHei-30"/>
       <use xlink:href="#SimHei-2e" x="50"/>
       <use xlink:href="#SimHei-39" x="100"/>
       <use xlink:href="#SimHei-38" x="150"/>
      </g>
     </g>
    </g>
    <g id="ytick_6">
     <g id="line2d_9">
      <g>
       <use xlink:href="#m8e7c7cb437" x="46.403125" y="35.934599" style="stroke: #000000; stroke-width: 0.8"/>
      </g>
     </g>
     <g id="text_9">
      <!-- 1.00 -->
      <g transform="translate(19.403125 39.372099) scale(0.1 -0.1)">
       <use xlink:href="#SimHei-31"/>
       <use xlink:href="#SimHei-2e" x="50"/>
       <use xlink:href="#SimHei-30" x="100"/>
       <use xlink:href="#SimHei-30" x="150"/>
      </g>
     </g>
    </g>
    <g id="ytick_7">
     <g id="line2d_10">
      <g>
       <use xlink:href="#m8e7c7cb437" x="46.403125" y="10.983004" style="stroke: #000000; stroke-width: 0.8"/>
      </g>
     </g>
     <g id="text_10">
      <!-- 1.02 -->
      <g transform="translate(19.403125 14.420504) scale(0.1 -0.1)">
       <use xlink:href="#SimHei-31"/>
       <use xlink:href="#SimHei-2e" x="50"/>
       <use xlink:href="#SimHei-30" x="100"/>
       <use xlink:href="#SimHei-32" x="150"/>
      </g>
     </g>
    </g>
    <g id="text_11">
     <!-- EVaR-Sharpe-4yr -->
     <g transform="translate(14.153125 122.316) rotate(-90) scale(0.1 -0.1)">
      <defs>
       <path id="SimHei-45" d="M 2900 125 
L 350 125 
L 350 4400 
L 2775 4400 
L 2775 3925 
L 925 3925 
L 925 2600 
L 2625 2600 
L 2625 2125 
L 925 2125 
L 925 600 
L 2900 600 
L 2900 125 
z
" transform="scale(0.015625)"/>
       <path id="SimHei-56" d="M 3050 4400 
L 1800 75 
L 1300 75 
L 50 4400 
L 650 4400 
L 1525 1125 
L 1575 1125 
L 2450 4400 
L 3050 4400 
z
" transform="scale(0.015625)"/>
       <path id="SimHei-61" d="M 2875 125 
L 2275 125 
Q 2225 175 2200 262 
Q 2175 350 2175 475 
Q 2000 275 1750 175 
Q 1500 75 1225 75 
Q 825 75 550 275 
Q 275 475 275 850 
Q 275 1225 525 1450 
Q 775 1675 1300 1750 
Q 1650 1800 1912 1875 
Q 2175 1950 2175 2075 
Q 2175 2225 2062 2375 
Q 1950 2525 1575 2525 
Q 1275 2525 1137 2412 
Q 1000 2300 950 2100 
L 400 2100 
Q 450 2500 762 2737 
Q 1075 2975 1575 2975 
Q 2125 2975 2400 2725 
Q 2675 2475 2675 2025 
L 2675 650 
Q 2675 500 2725 375 
Q 2775 250 2875 125 
z
M 2175 1050 
L 2175 1550 
Q 2025 1500 1887 1462 
Q 1750 1425 1425 1375 
Q 1050 1325 937 1200 
Q 825 1075 825 900 
Q 825 750 937 637 
Q 1050 525 1275 525 
Q 1500 525 1762 650 
Q 2025 775 2175 1050 
z
" transform="scale(0.015625)"/>
       <path id="SimHei-52" d="M 3000 125 
L 2400 125 
L 1500 1975 
L 850 1975 
L 850 125 
L 275 125 
L 275 4400 
L 1525 4400 
Q 2125 4400 2500 4112 
Q 2875 3825 2875 3175 
Q 2875 2675 2625 2400 
Q 2375 2125 2050 2050 
L 3000 125 
z
M 2300 3175 
Q 2300 3525 2087 3725 
Q 1875 3925 1400 3925 
L 850 3925 
L 850 2450 
L 1550 2450 
Q 1850 2450 2075 2612 
Q 2300 2775 2300 3175 
z
" transform="scale(0.015625)"/>
       <path id="SimHei-53" d="M 2900 1325 
Q 2900 750 2537 412 
Q 2175 75 1550 75 
Q 925 75 575 425 
Q 225 775 225 1300 
L 225 1475 
L 800 1475 
L 800 1325 
Q 800 950 1025 750 
Q 1250 550 1550 550 
Q 1950 550 2137 762 
Q 2325 975 2325 1275 
Q 2325 1525 2100 1737 
Q 1875 1950 1450 2125 
Q 850 2350 587 2625 
Q 325 2900 325 3275 
Q 325 3800 687 4125 
Q 1050 4450 1550 4450 
Q 2200 4450 2487 4062 
Q 2775 3675 2775 3225 
L 2200 3225 
Q 2225 3500 2050 3725 
Q 1875 3950 1550 3950 
Q 1250 3950 1075 3787 
Q 900 3625 900 3350 
Q 900 3125 1037 2962 
Q 1175 2800 1750 2575 
Q 2300 2350 2600 2037 
Q 2900 1725 2900 1325 
z
" transform="scale(0.015625)"/>
       <path id="SimHei-68" d="M 2800 125 
L 2300 125 
L 2300 1925 
Q 2300 2225 2150 2400 
Q 2000 2575 1750 2575 
Q 1425 2575 1137 2237 
Q 850 1900 850 1400 
L 850 125 
L 350 125 
L 350 4400 
L 850 4400 
L 850 2400 
Q 1050 2675 1287 2825 
Q 1525 2975 1900 2975 
Q 2350 2975 2575 2725 
Q 2800 2475 2800 2100 
L 2800 125 
z
" transform="scale(0.015625)"/>
       <path id="SimHei-72" d="M 2500 2425 
Q 2025 2500 1700 2287 
Q 1375 2075 1150 1550 
L 1150 125 
L 650 125 
L 650 2925 
L 1150 2925 
L 1150 2200 
Q 1375 2600 1712 2787 
Q 2050 2975 2500 2975 
L 2500 2425 
z
" transform="scale(0.015625)"/>
       <path id="SimHei-70" d="M 2825 1525 
Q 2825 800 2475 425 
Q 2125 50 1625 50 
Q 1350 50 1150 162 
Q 950 275 800 500 
L 800 -800 
L 300 -800 
L 300 2925 
L 800 2925 
L 800 2550 
Q 950 2775 1150 2875 
Q 1350 2975 1625 2975 
Q 2125 2975 2475 2612 
Q 2825 2250 2825 1525 
z
M 2275 1525 
Q 2275 2000 2087 2262 
Q 1900 2525 1525 2525 
Q 1225 2525 1012 2262 
Q 800 2000 800 1525 
Q 800 1050 1012 775 
Q 1225 500 1525 500 
Q 1900 500 2087 775 
Q 2275 1050 2275 1525 
z
" transform="scale(0.015625)"/>
       <path id="SimHei-65" d="M 2850 1075 
Q 2800 625 2450 350 
Q 2100 75 1625 75 
Q 1025 75 637 462 
Q 250 850 250 1525 
Q 250 2200 637 2587 
Q 1025 2975 1625 2975 
Q 2150 2975 2487 2637 
Q 2825 2300 2825 1525 
L 800 1525 
Q 800 975 1037 750 
Q 1275 525 1625 525 
Q 1900 525 2075 662 
Q 2250 800 2300 1075 
L 2850 1075 
z
M 2250 1925 
Q 2200 2275 2025 2412 
Q 1850 2550 1575 2550 
Q 1325 2550 1125 2412 
Q 925 2275 825 1925 
L 2250 1925 
z
" transform="scale(0.015625)"/>
       <path id="SimHei-79" d="M 2900 2925 
L 1750 -100 
Q 1650 -450 1450 -625 
Q 1250 -800 950 -800 
Q 825 -800 712 -787 
Q 600 -775 500 -725 
L 500 -225 
Q 600 -275 700 -300 
Q 800 -325 875 -325 
Q 1075 -325 1150 -262 
Q 1225 -200 1300 25 
L 200 2925 
L 750 2925 
L 1550 725 
L 1575 725 
L 2350 2925 
L 2900 2925 
z
" transform="scale(0.015625)"/>
      </defs>
      <use xlink:href="#SimHei-45"/>
      <use xlink:href="#SimHei-56" x="50"/>
      <use xlink:href="#SimHei-61" x="100"/>
      <use xlink:href="#SimHei-52" x="150"/>
      <use xlink:href="#SimHei-2d" x="200"/>
      <use xlink:href="#SimHei-53" x="250"/>
      <use xlink:href="#SimHei-68" x="300"/>
      <use xlink:href="#SimHei-61" x="350"/>
      <use xlink:href="#SimHei-72" x="400"/>
      <use xlink:href="#SimHei-70" x="450"/>
      <use xlink:href="#SimHei-65" x="500"/>
      <use xlink:href="#SimHei-2d" x="550"/>
      <use xlink:href="#SimHei-34" x="600"/>
      <use xlink:href="#SimHei-79" x="650"/>
      <use xlink:href="#SimHei-72" x="700"/>
     </g>
    </g>
   </g>
   <g id="line2d_11">
    <path d="M 56.846975 39.053549 
L 57.912674 45.241481 
L 58.978373 38.324499 
L 60.044072 65.206518 
L 63.241169 72.208463 
L 64.306868 66.459667 
L 65.372567 83.551545 
L 66.438266 77.325096 
L 67.503965 88.907481 
L 70.701062 99.000795 
L 71.766761 88.475302 
L 72.83246 103.19212 
L 73.898159 98.412377 
L 74.963858 92.127831 
L 78.160955 92.483039 
L 79.226654 82.15733 
L 80.292353 69.982561 
L 81.358052 62.063097 
L 82.423751 75.381012 
L 85.620848 76.655931 
L 86.686547 71.257592 
L 87.752246 65.223873 
L 88.817945 87.097268 
L 89.883644 85.440652 
L 93.080742 79.670288 
L 94.146441 79.230074 
L 95.21214 85.96049 
L 96.277839 80.957571 
L 97.343538 87.288549 
L 100.540635 101.705039 
L 101.606334 104.178744 
L 102.672033 116.416477 
L 103.737732 125.552594 
L 104.803431 109.959666 
L 108.000528 110.056425 
L 109.066227 118.632203 
L 110.131926 128.94754 
L 111.197625 115.482523 
L 122.920314 100.169525 
L 123.986013 95.828654 
L 125.051712 101.05102 
L 126.117411 84.681552 
L 127.18311 95.124658 
L 130.380207 106.823307 
L 131.445906 92.62309 
L 132.511605 93.746568 
L 133.577304 103.552401 
L 134.643003 117.587478 
L 137.8401 132.432565 
L 138.905799 106.215071 
L 139.971498 123.153079 
L 141.037197 105.484775 
L 142.102896 98.204879 
L 145.299993 86.289505 
L 146.365692 84.944862 
L 147.431391 85.697537 
L 148.49709 85.995438 
L 149.562789 80.709036 
L 152.759886 89.960616 
L 153.825585 92.439823 
L 154.891284 87.299035 
L 155.956983 83.469705 
L 157.022682 86.841561 
L 160.219779 89.137837 
L 161.285478 97.451178 
L 162.351177 90.395163 
L 163.416876 98.425144 
L 164.482575 102.328379 
L 167.679672 104.104475 
L 168.745371 108.310639 
L 169.81107 116.643579 
L 170.876769 112.704358 
L 171.942468 116.71845 
L 175.139565 112.95126 
L 176.205264 117.484489 
L 177.270963 125.078875 
L 178.336662 115.918586 
L 179.402361 121.263787 
L 182.599458 126.973571 
L 183.665157 142.095785 
L 184.730856 147.683028 
L 185.796555 155.376 
L 186.862254 147.300448 
L 190.059351 133.419441 
L 191.12505 131.033934 
L 192.190749 134.94509 
L 193.256448 133.483214 
L 194.322147 145.727328 
L 197.519244 141.046262 
L 198.584943 127.930251 
L 199.650642 122.050807 
L 200.716341 115.059646 
L 201.78204 117.762236 
L 204.979137 112.749288 
L 206.044836 115.867832 
L 207.110535 98.224263 
L 208.176234 95.42401 
L 209.241933 89.322515 
L 213.504729 87.979831 
L 214.570428 82.643581 
L 215.636127 86.949701 
L 216.701826 93.159461 
L 219.898923 109.82677 
L 220.964622 110.178209 
L 222.030321 119.73295 
L 223.09602 123.497692 
L 224.161719 114.688163 
L 227.358816 114.348574 
L 228.424515 97.811779 
L 229.490214 110.039719 
L 230.555913 91.732111 
L 231.621612 93.746741 
L 234.818709 103.722765 
L 235.884408 106.198505 
L 236.950107 84.620137 
L 238.015806 74.546656 
L 239.081505 78.068099 
L 242.278602 78.863962 
L 243.344301 102.483752 
L 244.41 94.626379 
L 245.475699 96.522847 
L 246.541398 99.815114 
L 249.738496 70.3427 
L 250.804195 50.800552 
L 251.869894 49.510523 
L 252.935593 50.088565 
L 264.658282 23.759322 
L 265.723981 14.256 
L 265.723981 14.256 
" clip-path="url(#p667b57cb25)" style="fill: none; stroke: #1f77b4; stroke-width: 1.5; stroke-linecap: square"/>
   </g>
   <g id="patch_3">
    <path d="M 46.403125 162.432 
L 46.403125 7.2 
" style="fill: none; stroke: #000000; stroke-width: 0.8; stroke-linejoin: miter; stroke-linecap: square"/>
   </g>
   <g id="patch_4">
    <path d="M 276.167831 162.432 
L 276.167831 7.2 
" style="fill: none; stroke: #000000; stroke-width: 0.8; stroke-linejoin: miter; stroke-linecap: square"/>
   </g>
   <g id="patch_5">
    <path d="M 46.403125 162.432 
L 276.167831 162.432 
" style="fill: none; stroke: #000000; stroke-width: 0.8; stroke-linejoin: miter; stroke-linecap: square"/>
   </g>
   <g id="patch_6">
    <path d="M 46.403125 7.2 
L 276.167831 7.2 
" style="fill: none; stroke: #000000; stroke-width: 0.8; stroke-linejoin: miter; stroke-linecap: square"/>
   </g>
  </g>
  <g id="axes_2">
   <g id="patch_7">
    <path d="M 322.120772 162.432 
L 551.885478 162.432 
L 551.885478 7.2 
L 322.120772 7.2 
z
" style="fill: #ffffff"/>
   </g>
   <g id="matplotlib.axis_3">
    <g id="xtick_4">
     <g id="line2d_12">
      <g>
       <use xlink:href="#m98c5f3e237" x="379.455379" y="162.432" style="stroke: #000000; stroke-width: 0.8"/>
      </g>
     </g>
     <g id="text_12">
      <!-- 2023-09-20 -->
      <g transform="translate(354.455379 176.307) scale(0.1 -0.1)">
       <use xlink:href="#SimHei-32"/>
       <use xlink:href="#SimHei-30" x="50"/>
       <use xlink:href="#SimHei-32" x="100"/>
       <use xlink:href="#SimHei-33" x="150"/>
       <use xlink:href="#SimHei-2d" x="200"/>
       <use xlink:href="#SimHei-30" x="250"/>
       <use xlink:href="#SimHei-39" x="300"/>
       <use xlink:href="#SimHei-2d" x="350"/>
       <use xlink:href="#SimHei-32" x="400"/>
       <use xlink:href="#SimHei-30" x="450"/>
      </g>
     </g>
    </g>
    <g id="xtick_5">
     <g id="line2d_13">
      <g>
       <use xlink:href="#m98c5f3e237" x="443.397319" y="162.432" style="stroke: #000000; stroke-width: 0.8"/>
      </g>
     </g>
     <g id="text_13">
      <!-- 2023-11-19 -->
      <g transform="translate(418.397319 176.307) scale(0.1 -0.1)">
       <use xlink:href="#SimHei-32"/>
       <use xlink:href="#SimHei-30" x="50"/>
       <use xlink:href="#SimHei-32" x="100"/>
       <use xlink:href="#SimHei-33" x="150"/>
       <use xlink:href="#SimHei-2d" x="200"/>
       <use xlink:href="#SimHei-31" x="250"/>
       <use xlink:href="#SimHei-31" x="300"/>
       <use xlink:href="#SimHei-2d" x="350"/>
       <use xlink:href="#SimHei-31" x="400"/>
       <use xlink:href="#SimHei-39" x="450"/>
      </g>
     </g>
    </g>
    <g id="xtick_6">
     <g id="line2d_14">
      <g>
       <use xlink:href="#m98c5f3e237" x="507.339259" y="162.432" style="stroke: #000000; stroke-width: 0.8"/>
      </g>
     </g>
     <g id="text_14">
      <!-- 2024-01-18 -->
      <g transform="translate(482.339259 176.307) scale(0.1 -0.1)">
       <use xlink:href="#SimHei-32"/>
       <use xlink:href="#SimHei-30" x="50"/>
       <use xlink:href="#SimHei-32" x="100"/>
       <use xlink:href="#SimHei-34" x="150"/>
       <use xlink:href="#SimHei-2d" x="200"/>
       <use xlink:href="#SimHei-30" x="250"/>
       <use xlink:href="#SimHei-31" x="300"/>
       <use xlink:href="#SimHei-2d" x="350"/>
       <use xlink:href="#SimHei-31" x="400"/>
       <use xlink:href="#SimHei-38" x="450"/>
      </g>
     </g>
    </g>
   </g>
   <g id="matplotlib.axis_4">
    <g id="ytick_8">
     <g id="line2d_15">
      <g>
       <use xlink:href="#m8e7c7cb437" x="322.120772" y="155.376" style="stroke: #000000; stroke-width: 0.8"/>
      </g>
     </g>
     <g id="text_15">
      <!-- 0.0 -->
      <g transform="translate(300.120772 158.8135) scale(0.1 -0.1)">
       <use xlink:href="#SimHei-30"/>
       <use xlink:href="#SimHei-2e" x="50"/>
       <use xlink:href="#SimHei-30" x="100"/>
      </g>
     </g>
    </g>
    <g id="ytick_9">
     <g id="line2d_16">
      <g>
       <use xlink:href="#m8e7c7cb437" x="322.120772" y="127.152" style="stroke: #000000; stroke-width: 0.8"/>
      </g>
     </g>
     <g id="text_16">
      <!-- 0.2 -->
      <g transform="translate(300.120772 130.5895) scale(0.1 -0.1)">
       <use xlink:href="#SimHei-30"/>
       <use xlink:href="#SimHei-2e" x="50"/>
       <use xlink:href="#SimHei-32" x="100"/>
      </g>
     </g>
    </g>
    <g id="ytick_10">
     <g id="line2d_17">
      <g>
       <use xlink:href="#m8e7c7cb437" x="322.120772" y="98.928" style="stroke: #000000; stroke-width: 0.8"/>
      </g>
     </g>
     <g id="text_17">
      <!-- 0.4 -->
      <g transform="translate(300.120772 102.3655) scale(0.1 -0.1)">
       <use xlink:href="#SimHei-30"/>
       <use xlink:href="#SimHei-2e" x="50"/>
       <use xlink:href="#SimHei-34" x="100"/>
      </g>
     </g>
    </g>
    <g id="ytick_11">
     <g id="line2d_18">
      <g>
       <use xlink:href="#m8e7c7cb437" x="322.120772" y="70.704" style="stroke: #000000; stroke-width: 0.8"/>
      </g>
     </g>
     <g id="text_18">
      <!-- 0.6 -->
      <g transform="translate(300.120772 74.1415) scale(0.1 -0.1)">
       <use xlink:href="#SimHei-30"/>
       <use xlink:href="#SimHei-2e" x="50"/>
       <use xlink:href="#SimHei-36" x="100"/>
      </g>
     </g>
    </g>
    <g id="ytick_12">
     <g id="line2d_19">
      <g>
       <use xlink:href="#m8e7c7cb437" x="322.120772" y="42.48" style="stroke: #000000; stroke-width: 0.8"/>
      </g>
     </g>
     <g id="text_19">
      <!-- 0.8 -->
      <g transform="translate(300.120772 45.9175) scale(0.1 -0.1)">
       <use xlink:href="#SimHei-30"/>
       <use xlink:href="#SimHei-2e" x="50"/>
       <use xlink:href="#SimHei-38" x="100"/>
      </g>
     </g>
    </g>
    <g id="ytick_13">
     <g id="line2d_20">
      <g>
       <use xlink:href="#m8e7c7cb437" x="322.120772" y="14.256" style="stroke: #000000; stroke-width: 0.8"/>
      </g>
     </g>
     <g id="text_20">
      <!-- 1.0 -->
      <g transform="translate(300.120772 17.6935) scale(0.1 -0.1)">
       <use xlink:href="#SimHei-31"/>
       <use xlink:href="#SimHei-2e" x="50"/>
       <use xlink:href="#SimHei-30" x="100"/>
      </g>
     </g>
    </g>
   </g>
   <g id="line2d_21">
    <path d="M 332.564622 155.376 
L 541.441628 155.375999 
L 541.441628 155.375999 
" clip-path="url(#p5fb908ece2)" style="fill: none; stroke: #1f77b4; stroke-width: 1.5; stroke-linecap: square"/>
   </g>
   <g id="line2d_22">
    <path d="M 332.564622 155.376 
L 541.441628 155.375999 
L 541.441628 155.375999 
" clip-path="url(#p5fb908ece2)" style="fill: none; stroke: #ff7f0e; stroke-width: 1.5; stroke-linecap: square"/>
   </g>
   <g id="line2d_23">
    <path d="M 332.564622 155.376 
L 333.630321 121.84468 
L 334.69602 122.271893 
L 335.761719 121.621955 
L 336.827418 121.423072 
L 340.024515 121.052387 
L 341.090214 118.807403 
L 342.155913 122.050198 
L 343.221612 122.819808 
L 344.287311 122.851119 
L 347.484408 123.578548 
L 348.550107 124.822452 
L 349.615806 124.076164 
L 350.681505 125.044964 
L 351.747204 124.246436 
L 354.944301 120.136767 
L 357.075699 122.332703 
L 359.207097 123.393416 
L 362.404195 123.133089 
L 363.469894 119.617015 
L 364.535593 119.811598 
L 365.601292 122.447492 
L 366.666991 121.461723 
L 369.864088 123.573902 
L 370.929787 120.378945 
L 371.995486 120.989898 
L 373.061185 118.363146 
L 377.323981 120.873966 
L 378.38968 120.956218 
L 379.455379 118.576488 
L 380.521078 119.183424 
L 381.586777 119.505667 
L 384.783874 118.897203 
L 385.849573 117.860692 
L 386.915272 118.423811 
L 387.980971 120.744041 
L 399.70366 118.965656 
L 400.769359 114.71709 
L 401.835058 113.887481 
L 402.900757 114.339513 
L 403.966456 115.605137 
L 407.163553 113.683099 
L 408.229252 114.382004 
L 409.294951 115.455139 
L 410.36065 115.812673 
L 411.426349 115.008039 
L 414.623446 115.71219 
L 415.689145 116.493117 
L 416.754844 118.11962 
L 417.820543 116.527258 
L 418.886242 117.335478 
L 422.083339 117.708982 
L 423.149038 117.577125 
L 424.214737 118.604632 
L 426.346135 122.188752 
L 429.543232 122.099942 
L 430.608931 120.948548 
L 431.67463 119.555532 
L 432.740329 117.263185 
L 433.806028 117.840838 
L 437.003125 117.066289 
L 438.068824 116.370587 
L 440.200222 113.906634 
L 441.265921 118.462983 
L 444.463018 117.913891 
L 445.528717 119.56355 
L 446.594416 119.126459 
L 447.660115 123.468499 
L 448.725814 123.630186 
L 451.922911 124.560035 
L 452.98861 121.295714 
L 454.054309 119.409495 
L 455.120008 116.659 
L 456.185707 114.857972 
L 459.382804 117.336623 
L 460.448503 118.894868 
L 461.514202 117.037745 
L 462.579901 116.617384 
L 463.6456 117.280289 
L 466.842697 118.386226 
L 467.908396 116.404999 
L 468.974095 116.767032 
L 470.039794 120.137628 
L 471.105493 118.797947 
L 474.30259 118.609247 
L 475.368289 117.459681 
L 476.433988 120.302785 
L 477.499687 120.404816 
L 478.565386 121.709351 
L 481.762483 121.095419 
L 482.828182 122.047758 
L 483.893881 122.097745 
L 484.95958 122.732333 
L 486.025279 121.414662 
L 490.288075 118.628038 
L 491.353774 120.628 
L 492.419473 120.911239 
L 493.485172 120.853012 
L 496.682269 120.869468 
L 497.747968 124.826124 
L 498.813667 125.94543 
L 500.945065 122.485104 
L 504.142162 120.646721 
L 505.207861 120.771963 
L 506.27356 121.602489 
L 507.339259 119.026095 
L 508.404958 115.09823 
L 511.602055 112.766826 
L 512.667754 118.894276 
L 513.733453 118.135698 
L 514.799153 118.696335 
L 515.864852 122.011176 
L 519.061949 123.361191 
L 520.127648 128.336953 
L 521.193347 130.189641 
L 522.259046 131.305648 
L 526.521842 130.72155 
L 527.587541 130.676741 
L 528.65324 130.807752 
L 529.718939 130.117311 
L 541.441628 130.235965 
L 541.441628 130.235965 
" clip-path="url(#p5fb908ece2)" style="fill: none; stroke: #2ca02c; stroke-width: 1.5; stroke-linecap: square"/>
   </g>
   <g id="line2d_24">
    <path d="M 332.564622 155.376 
L 541.441628 155.376 
L 541.441628 155.376 
" clip-path="url(#p5fb908ece2)" style="fill: none; stroke: #d62728; stroke-width: 1.5; stroke-linecap: square"/>
   </g>
   <g id="line2d_25">
    <path d="M 332.564622 155.376 
L 541.441628 155.376 
L 541.441628 155.376 
" clip-path="url(#p5fb908ece2)" style="fill: none; stroke: #9467bd; stroke-width: 1.5; stroke-linecap: square"/>
   </g>
   <g id="line2d_26">
    <path d="M 332.564622 155.376 
L 541.441628 155.376 
L 541.441628 155.376 
" clip-path="url(#p5fb908ece2)" style="fill: none; stroke: #8c564b; stroke-width: 1.5; stroke-linecap: square"/>
   </g>
   <g id="line2d_27">
    <path d="M 332.564622 155.376 
L 333.630321 116.006398 
L 334.69602 116.765399 
L 335.761719 116.960517 
L 340.024515 117.183972 
L 341.090214 118.318649 
L 342.155913 118.43084 
L 343.221612 118.708238 
L 344.287311 117.794179 
L 347.484408 117.959051 
L 349.615806 117.037921 
L 350.681505 117.114033 
L 351.747204 117.987166 
L 354.944301 118.439866 
L 356.01 119.197116 
L 357.075699 117.632694 
L 358.141398 116.56688 
L 359.207097 116.673779 
L 362.404195 116.857834 
L 363.469894 117.611206 
L 365.601292 116.186523 
L 366.666991 116.701648 
L 369.864088 116.088608 
L 370.929787 116.323323 
L 371.995486 115.537538 
L 374.126884 117.391229 
L 377.323981 118.279048 
L 378.38968 117.680064 
L 379.455379 118.185004 
L 380.521078 117.371527 
L 381.586777 117.861603 
L 384.783874 117.974628 
L 385.849573 117.532278 
L 386.915272 116.645263 
L 387.980971 116.776249 
L 399.70366 116.925817 
L 400.769359 119.358229 
L 401.835058 118.503032 
L 402.900757 118.159279 
L 403.966456 118.310629 
L 407.163553 119.093966 
L 408.229252 119.476722 
L 409.294951 119.364333 
L 411.426349 117.505438 
L 414.623446 118.039883 
L 415.689145 117.47319 
L 416.754844 116.755788 
L 417.820543 117.722061 
L 418.886242 115.098469 
L 423.149038 114.64904 
L 424.214737 115.542613 
L 425.280436 115.421906 
L 426.346135 116.357767 
L 429.543232 116.578915 
L 430.608931 118.395553 
L 431.67463 118.368681 
L 432.740329 119.762722 
L 433.806028 120.579781 
L 437.003125 120.994581 
L 438.068824 121.329114 
L 440.200222 121.15094 
L 441.265921 120.177939 
L 444.463018 120.585613 
L 445.528717 119.887262 
L 446.594416 120.162119 
L 447.660115 119.280253 
L 448.725814 119.80721 
L 451.922911 120.259865 
L 454.054309 123.115238 
L 455.120008 123.880341 
L 456.185707 123.628241 
L 459.382804 124.778274 
L 460.448503 125.689328 
L 461.514202 125.883185 
L 462.579901 128.915832 
L 463.6456 128.539164 
L 466.842697 129.04191 
L 467.908396 130.023234 
L 468.974095 130.802104 
L 470.039794 129.983612 
L 471.105493 131.469244 
L 474.30259 129.604029 
L 475.368289 130.074624 
L 476.433988 129.450988 
L 477.499687 129.774576 
L 478.565386 130.790286 
L 481.762483 130.060221 
L 482.828182 128.579988 
L 483.893881 130.433923 
L 484.95958 130.193219 
L 486.025279 130.210908 
L 490.288075 129.718712 
L 491.353774 129.713755 
L 492.419473 130.317988 
L 493.485172 129.856046 
L 496.682269 130.924587 
L 497.747968 128.613911 
L 498.813667 131.519074 
L 499.879366 132.270472 
L 500.945065 133.947038 
L 504.142162 135.747092 
L 505.207861 137.055677 
L 506.27356 136.292975 
L 507.339259 136.727847 
L 508.404958 137.904559 
L 511.602055 136.083775 
L 512.667754 135.319765 
L 513.733453 134.993354 
L 514.799153 135.120292 
L 515.864852 136.584254 
L 519.061949 132.368483 
L 520.127648 126.036602 
L 521.193347 124.452922 
L 522.259046 124.381601 
L 523.324745 125.211133 
L 526.521842 124.833561 
L 527.587541 125.43314 
L 528.65324 122.725354 
L 529.718939 121.565884 
L 541.441628 120.575168 
L 541.441628 120.575168 
" clip-path="url(#p5fb908ece2)" style="fill: none; stroke: #e377c2; stroke-width: 1.5; stroke-linecap: square"/>
   </g>
   <g id="line2d_28">
    <path d="M 332.564622 155.376 
L 333.630321 87.156929 
L 334.69602 85.970719 
L 335.761719 86.425536 
L 336.827418 86.590289 
L 340.024515 86.771651 
L 341.090214 87.881956 
L 342.155913 84.526965 
L 343.221612 83.479961 
L 344.287311 84.362711 
L 347.484408 83.470407 
L 348.550107 82.654462 
L 349.615806 83.893924 
L 350.681505 82.849007 
L 351.747204 82.774407 
L 354.944301 86.431371 
L 356.01 84.6289 
L 357.075699 85.042611 
L 358.141398 85.619133 
L 359.207097 84.940816 
L 362.404195 85.017084 
L 363.469894 87.77979 
L 364.535593 88.315979 
L 365.601292 86.373996 
L 366.666991 86.844633 
L 369.864088 85.345498 
L 370.929787 88.305741 
L 371.995486 88.480574 
L 373.061185 90.17565 
L 374.126884 88.616671 
L 377.323981 85.85499 
L 378.38968 86.371734 
L 379.455379 88.246514 
L 380.521078 88.453063 
L 381.586777 87.640735 
L 384.783874 88.136182 
L 385.849573 89.615037 
L 386.915272 89.938936 
L 387.980971 87.487719 
L 399.70366 89.116536 
L 401.835058 92.617495 
L 402.900757 92.509211 
L 403.966456 91.092238 
L 407.163553 92.230951 
L 409.294951 90.188532 
L 410.36065 90.811963 
L 411.426349 92.494537 
L 414.623446 91.255934 
L 415.689145 91.0417 
L 416.754844 90.132596 
L 417.820543 90.758684 
L 418.886242 92.574062 
L 422.083339 92.465079 
L 423.149038 92.781846 
L 425.280436 89.131126 
L 426.346135 86.461487 
L 429.543232 86.329156 
L 430.608931 85.663905 
L 431.67463 87.086288 
L 432.740329 87.982102 
L 433.806028 86.587387 
L 437.003125 86.947152 
L 438.068824 87.308308 
L 440.200222 89.950432 
L 441.265921 86.367083 
L 444.463018 86.508788 
L 445.528717 85.557193 
L 446.594416 85.719428 
L 447.660115 82.259256 
L 448.725814 81.570616 
L 451.922911 80.188104 
L 452.98861 82.112596 
L 454.054309 82.483278 
L 456.185707 86.521798 
L 459.382804 82.893109 
L 460.448503 80.42381 
L 461.514202 82.087141 
L 462.579901 79.47479 
L 463.6456 79.188553 
L 466.842697 77.579868 
L 467.908396 78.579775 
L 468.974095 77.43887 
L 470.039794 74.886767 
L 471.105493 74.74082 
L 475.368289 77.473701 
L 476.433988 75.254233 
L 477.499687 74.82862 
L 478.565386 72.508613 
L 482.828182 74.380264 
L 483.893881 72.476336 
L 484.95958 72.082455 
L 486.025279 73.382434 
L 490.288075 76.661255 
L 491.353774 74.666251 
L 492.419473 73.778781 
L 493.485172 74.298951 
L 496.682269 73.214331 
L 497.747968 71.567976 
L 498.813667 67.543501 
L 499.879366 68.541065 
L 504.142162 68.614191 
L 505.207861 67.180368 
L 506.27356 67.112542 
L 507.339259 69.254066 
L 508.404958 72.005214 
L 511.602055 76.157405 
L 512.667754 70.793962 
L 513.733453 71.878959 
L 514.799153 71.191379 
L 515.864852 66.412579 
L 519.061949 69.278345 
L 520.127648 70.634456 
L 521.193347 70.365451 
L 522.259046 69.320771 
L 523.324745 68.643252 
L 526.521842 69.452901 
L 527.587541 68.898131 
L 528.65324 71.474913 
L 529.718939 73.324811 
L 541.441628 74.196874 
L 541.441628 74.196874 
" clip-path="url(#p5fb908ece2)" style="fill: none; stroke: #7f7f7f; stroke-width: 1.5; stroke-linecap: square"/>
   </g>
   <g id="line2d_29">
    <path d="M 332.564622 155.376 
L 541.441628 155.376 
L 541.441628 155.376 
" clip-path="url(#p5fb908ece2)" style="fill: none; stroke: #bcbd22; stroke-width: 1.5; stroke-linecap: square"/>
   </g>
   <g id="line2d_30">
    <path d="M 332.564622 155.376 
L 541.441628 155.375997 
L 541.441628 155.375997 
" clip-path="url(#p5fb908ece2)" style="fill: none; stroke: #17becf; stroke-width: 1.5; stroke-linecap: square"/>
   </g>
   <g id="line2d_31">
    <path d="M 332.564622 14.256 
L 333.630321 155.376 
L 541.441628 155.376 
L 541.441628 155.376 
" clip-path="url(#p5fb908ece2)" style="fill: none; stroke: #1f77b4; stroke-width: 1.5; stroke-linecap: square"/>
   </g>
   <g id="patch_8">
    <path d="M 322.120772 162.432 
L 322.120772 7.2 
" style="fill: none; stroke: #000000; stroke-width: 0.8; stroke-linejoin: miter; stroke-linecap: square"/>
   </g>
   <g id="patch_9">
    <path d="M 551.885478 162.432 
L 551.885478 7.2 
" style="fill: none; stroke: #000000; stroke-width: 0.8; stroke-linejoin: miter; stroke-linecap: square"/>
   </g>
   <g id="patch_10">
    <path d="M 322.120772 162.432 
L 551.885478 162.432 
" style="fill: none; stroke: #000000; stroke-width: 0.8; stroke-linejoin: miter; stroke-linecap: square"/>
   </g>
   <g id="patch_11">
    <path d="M 322.120772 7.2 
L 551.885478 7.2 
" style="fill: none; stroke: #000000; stroke-width: 0.8; stroke-linejoin: miter; stroke-linecap: square"/>
   </g>
   <g id="legend_1">
    <g id="patch_12">
     <path d="M 457.885478 148.60625 
L 544.885478 148.60625 
Q 546.885478 148.60625 546.885478 146.60625 
L 546.885478 14.2 
Q 546.885478 12.2 544.885478 12.2 
L 457.885478 12.2 
Q 455.885478 12.2 455.885478 14.2 
L 455.885478 146.60625 
Q 455.885478 148.60625 457.885478 148.60625 
z
" style="fill: #ffffff; opacity: 0.8; stroke: #cccccc; stroke-linejoin: miter"/>
    </g>
    <g id="line2d_32">
     <path d="M 459.885478 19.73125 
L 469.885478 19.73125 
L 479.885478 19.73125 
" style="fill: none; stroke: #1f77b4; stroke-width: 1.5; stroke-linecap: square"/>
    </g>
    <g id="text_21">
     <!-- w_002027.SZ -->
     <g transform="translate(487.885478 23.23125) scale(0.1 -0.1)">
      <defs>
       <path id="SimHei-77" d="M 3075 2925 
L 2450 75 
L 1975 75 
L 1575 2250 
L 1525 2250 
L 1125 75 
L 650 75 
L 25 2925 
L 550 2925 
L 875 1050 
L 925 1050 
L 1275 2925 
L 1825 2925 
L 2175 1050 
L 2225 1050 
L 2550 2925 
L 3075 2925 
z
" transform="scale(0.015625)"/>
       <path id="SimHei-5f" d="M 3150 -850 
L 0 -850 
L 0 -550 
L 3150 -550 
L 3150 -850 
z
" transform="scale(0.015625)"/>
       <path id="SimHei-37" d="M 850 150 
Q 1300 2050 2425 3925 
L 275 3925 
L 275 4375 
L 2950 4375 
L 2950 3950 
Q 1775 2050 1400 150 
L 850 150 
z
" transform="scale(0.015625)"/>
       <path id="SimHei-5a" d="M 2900 125 
L 225 125 
L 225 600 
L 2250 3925 
L 375 3925 
L 375 4400 
L 2825 4400 
L 2825 3925 
L 800 600 
L 2900 600 
L 2900 125 
z
" transform="scale(0.015625)"/>
      </defs>
      <use xlink:href="#SimHei-77"/>
      <use xlink:href="#SimHei-5f" x="50"/>
      <use xlink:href="#SimHei-30" x="100"/>
      <use xlink:href="#SimHei-30" x="150"/>
      <use xlink:href="#SimHei-32" x="200"/>
      <use xlink:href="#SimHei-30" x="250"/>
      <use xlink:href="#SimHei-32" x="300"/>
      <use xlink:href="#SimHei-37" x="350"/>
      <use xlink:href="#SimHei-2e" x="400"/>
      <use xlink:href="#SimHei-53" x="450"/>
      <use xlink:href="#SimHei-5a" x="500"/>
     </g>
    </g>
    <g id="line2d_33">
     <path d="M 459.885478 33.090625 
L 469.885478 33.090625 
L 479.885478 33.090625 
" style="fill: none; stroke: #ff7f0e; stroke-width: 1.5; stroke-linecap: square"/>
    </g>
    <g id="text_22">
     <!-- w_002371.SZ -->
     <g transform="translate(487.885478 36.590625) scale(0.1 -0.1)">
      <use xlink:href="#SimHei-77"/>
      <use xlink:href="#SimHei-5f" x="50"/>
      <use xlink:href="#SimHei-30" x="100"/>
      <use xlink:href="#SimHei-30" x="150"/>
      <use xlink:href="#SimHei-32" x="200"/>
      <use xlink:href="#SimHei-33" x="250"/>
      <use xlink:href="#SimHei-37" x="300"/>
      <use xlink:href="#SimHei-31" x="350"/>
      <use xlink:href="#SimHei-2e" x="400"/>
      <use xlink:href="#SimHei-53" x="450"/>
      <use xlink:href="#SimHei-5a" x="500"/>
     </g>
    </g>
    <g id="line2d_34">
     <path d="M 459.885478 46.41875 
L 469.885478 46.41875 
L 479.885478 46.41875 
" style="fill: none; stroke: #2ca02c; stroke-width: 1.5; stroke-linecap: square"/>
    </g>
    <g id="text_23">
     <!-- w_600009.SH -->
     <g transform="translate(487.885478 49.91875) scale(0.1 -0.1)">
      <defs>
       <path id="SimHei-48" d="M 2850 125 
L 2275 125 
L 2275 2125 
L 850 2125 
L 850 125 
L 275 125 
L 275 4400 
L 850 4400 
L 850 2600 
L 2275 2600 
L 2275 4400 
L 2850 4400 
L 2850 125 
z
" transform="scale(0.015625)"/>
      </defs>
      <use xlink:href="#SimHei-77"/>
      <use xlink:href="#SimHei-5f" x="50"/>
      <use xlink:href="#SimHei-36" x="100"/>
      <use xlink:href="#SimHei-30" x="150"/>
      <use xlink:href="#SimHei-30" x="200"/>
      <use xlink:href="#SimHei-30" x="250"/>
      <use xlink:href="#SimHei-30" x="300"/>
      <use xlink:href="#SimHei-39" x="350"/>
      <use xlink:href="#SimHei-2e" x="400"/>
      <use xlink:href="#SimHei-53" x="450"/>
      <use xlink:href="#SimHei-48" x="500"/>
     </g>
    </g>
    <g id="line2d_35">
     <path d="M 459.885478 59.778125 
L 469.885478 59.778125 
L 479.885478 59.778125 
" style="fill: none; stroke: #d62728; stroke-width: 1.5; stroke-linecap: square"/>
    </g>
    <g id="text_24">
     <!-- w_600029.SH -->
     <g transform="translate(487.885478 63.278125) scale(0.1 -0.1)">
      <use xlink:href="#SimHei-77"/>
      <use xlink:href="#SimHei-5f" x="50"/>
      <use xlink:href="#SimHei-36" x="100"/>
      <use xlink:href="#SimHei-30" x="150"/>
      <use xlink:href="#SimHei-30" x="200"/>
      <use xlink:href="#SimHei-30" x="250"/>
      <use xlink:href="#SimHei-32" x="300"/>
      <use xlink:href="#SimHei-39" x="350"/>
      <use xlink:href="#SimHei-2e" x="400"/>
      <use xlink:href="#SimHei-53" x="450"/>
      <use xlink:href="#SimHei-48" x="500"/>
     </g>
    </g>
    <g id="line2d_36">
     <path d="M 459.885478 73.1375 
L 469.885478 73.1375 
L 479.885478 73.1375 
" style="fill: none; stroke: #9467bd; stroke-width: 1.5; stroke-linecap: square"/>
    </g>
    <g id="text_25">
     <!-- w_600183.SH -->
     <g transform="translate(487.885478 76.6375) scale(0.1 -0.1)">
      <use xlink:href="#SimHei-77"/>
      <use xlink:href="#SimHei-5f" x="50"/>
      <use xlink:href="#SimHei-36" x="100"/>
      <use xlink:href="#SimHei-30" x="150"/>
      <use xlink:href="#SimHei-30" x="200"/>
      <use xlink:href="#SimHei-31" x="250"/>
      <use xlink:href="#SimHei-38" x="300"/>
      <use xlink:href="#SimHei-33" x="350"/>
      <use xlink:href="#SimHei-2e" x="400"/>
      <use xlink:href="#SimHei-53" x="450"/>
      <use xlink:href="#SimHei-48" x="500"/>
     </g>
    </g>
    <g id="line2d_37">
     <path d="M 459.885478 86.465625 
L 469.885478 86.465625 
L 479.885478 86.465625 
" style="fill: none; stroke: #8c564b; stroke-width: 1.5; stroke-linecap: square"/>
    </g>
    <g id="text_26">
     <!-- w_600406.SH -->
     <g transform="translate(487.885478 89.965625) scale(0.1 -0.1)">
      <use xlink:href="#SimHei-77"/>
      <use xlink:href="#SimHei-5f" x="50"/>
      <use xlink:href="#SimHei-36" x="100"/>
      <use xlink:href="#SimHei-30" x="150"/>
      <use xlink:href="#SimHei-30" x="200"/>
      <use xlink:href="#SimHei-34" x="250"/>
      <use xlink:href="#SimHei-30" x="300"/>
      <use xlink:href="#SimHei-36" x="350"/>
      <use xlink:href="#SimHei-2e" x="400"/>
      <use xlink:href="#SimHei-53" x="450"/>
      <use xlink:href="#SimHei-48" x="500"/>
     </g>
    </g>
    <g id="line2d_38">
     <path d="M 459.885478 99.79375 
L 469.885478 99.79375 
L 479.885478 99.79375 
" style="fill: none; stroke: #e377c2; stroke-width: 1.5; stroke-linecap: square"/>
    </g>
    <g id="text_27">
     <!-- w_600900.SH -->
     <g transform="translate(487.885478 103.29375) scale(0.1 -0.1)">
      <use xlink:href="#SimHei-77"/>
      <use xlink:href="#SimHei-5f" x="50"/>
      <use xlink:href="#SimHei-36" x="100"/>
      <use xlink:href="#SimHei-30" x="150"/>
      <use xlink:href="#SimHei-30" x="200"/>
      <use xlink:href="#SimHei-39" x="250"/>
      <use xlink:href="#SimHei-30" x="300"/>
      <use xlink:href="#SimHei-30" x="350"/>
      <use xlink:href="#SimHei-2e" x="400"/>
      <use xlink:href="#SimHei-53" x="450"/>
      <use xlink:href="#SimHei-48" x="500"/>
     </g>
    </g>
    <g id="line2d_39">
     <path d="M 459.885478 113.121875 
L 469.885478 113.121875 
L 479.885478 113.121875 
" style="fill: none; stroke: #7f7f7f; stroke-width: 1.5; stroke-linecap: square"/>
    </g>
    <g id="text_28">
     <!-- w_601989.SH -->
     <g transform="translate(487.885478 116.621875) scale(0.1 -0.1)">
      <use xlink:href="#SimHei-77"/>
      <use xlink:href="#SimHei-5f" x="50"/>
      <use xlink:href="#SimHei-36" x="100"/>
      <use xlink:href="#SimHei-30" x="150"/>
      <use xlink:href="#SimHei-31" x="200"/>
      <use xlink:href="#SimHei-39" x="250"/>
      <use xlink:href="#SimHei-38" x="300"/>
      <use xlink:href="#SimHei-39" x="350"/>
      <use xlink:href="#SimHei-2e" x="400"/>
      <use xlink:href="#SimHei-53" x="450"/>
      <use xlink:href="#SimHei-48" x="500"/>
     </g>
    </g>
    <g id="line2d_40">
     <path d="M 459.885478 126.45 
L 469.885478 126.45 
L 479.885478 126.45 
" style="fill: none; stroke: #bcbd22; stroke-width: 1.5; stroke-linecap: square"/>
    </g>
    <g id="text_29">
     <!-- w_601998.SH -->
     <g transform="translate(487.885478 129.95) scale(0.1 -0.1)">
      <use xlink:href="#SimHei-77"/>
      <use xlink:href="#SimHei-5f" x="50"/>
      <use xlink:href="#SimHei-36" x="100"/>
      <use xlink:href="#SimHei-30" x="150"/>
      <use xlink:href="#SimHei-31" x="200"/>
      <use xlink:href="#SimHei-39" x="250"/>
      <use xlink:href="#SimHei-39" x="300"/>
      <use xlink:href="#SimHei-38" x="350"/>
      <use xlink:href="#SimHei-2e" x="400"/>
      <use xlink:href="#SimHei-53" x="450"/>
      <use xlink:href="#SimHei-48" x="500"/>
     </g>
    </g>
    <g id="line2d_41">
     <path d="M 459.885478 139.778125 
L 469.885478 139.778125 
L 479.885478 139.778125 
" style="fill: none; stroke: #17becf; stroke-width: 1.5; stroke-linecap: square"/>
    </g>
    <g id="text_30">
     <!-- w_CASH -->
     <g transform="translate(487.885478 143.278125) scale(0.1 -0.1)">
      <defs>
       <path id="SimHei-43" d="M 2975 1825 
Q 2950 875 2575 475 
Q 2200 75 1675 75 
Q 1075 75 650 562 
Q 225 1050 225 2125 
Q 225 3300 637 3875 
Q 1050 4450 1700 4450 
Q 2250 4450 2612 4037 
Q 2975 3625 2950 2875 
L 2400 2875 
Q 2400 3425 2225 3700 
Q 2050 3975 1700 3975 
Q 1300 3975 1062 3562 
Q 825 3150 825 2175 
Q 825 1275 1062 912 
Q 1300 550 1675 550 
Q 1950 550 2175 812 
Q 2400 1075 2400 1825 
L 2975 1825 
z
" transform="scale(0.015625)"/>
       <path id="SimHei-41" d="M 3075 125 
L 2475 125 
L 2125 1450 
L 1025 1450 
L 675 125 
L 75 125 
L 1325 4450 
L 1825 4450 
L 3075 125 
z
M 2000 1925 
L 1600 3450 
L 1550 3450 
L 1150 1925 
L 2000 1925 
z
" transform="scale(0.015625)"/>
      </defs>
      <use xlink:href="#SimHei-77"/>
      <use xlink:href="#SimHei-5f" x="50"/>
      <use xlink:href="#SimHei-43" x="100"/>
      <use xlink:href="#SimHei-41" x="150"/>
      <use xlink:href="#SimHei-53" x="200"/>
      <use xlink:href="#SimHei-48" x="250"/>
     </g>
    </g>
   </g>
  </g>
  <g id="axes_3">
   <g id="patch_13">
    <path d="M 597.838419 162.432 
L 827.603125 162.432 
L 827.603125 7.2 
L 597.838419 7.2 
z
" style="fill: #ffffff"/>
   </g>
   <g id="matplotlib.axis_5">
    <g id="xtick_7">
     <g id="line2d_42">
      <g>
       <use xlink:href="#m98c5f3e237" x="654.107327" y="162.432" style="stroke: #000000; stroke-width: 0.8"/>
      </g>
     </g>
     <g id="text_31">
      <!-- 2023-09-20 -->
      <g transform="translate(629.107327 176.307) scale(0.1 -0.1)">
       <use xlink:href="#SimHei-32"/>
       <use xlink:href="#SimHei-30" x="50"/>
       <use xlink:href="#SimHei-32" x="100"/>
       <use xlink:href="#SimHei-33" x="150"/>
       <use xlink:href="#SimHei-2d" x="200"/>
       <use xlink:href="#SimHei-30" x="250"/>
       <use xlink:href="#SimHei-39" x="300"/>
       <use xlink:href="#SimHei-2d" x="350"/>
       <use xlink:href="#SimHei-32" x="400"/>
       <use xlink:href="#SimHei-30" x="450"/>
      </g>
     </g>
    </g>
    <g id="xtick_8">
     <g id="line2d_43">
      <g>
       <use xlink:href="#m98c5f3e237" x="718.049267" y="162.432" style="stroke: #000000; stroke-width: 0.8"/>
      </g>
     </g>
     <g id="text_32">
      <!-- 2023-11-19 -->
      <g transform="translate(693.049267 176.307) scale(0.1 -0.1)">
       <use xlink:href="#SimHei-32"/>
       <use xlink:href="#SimHei-30" x="50"/>
       <use xlink:href="#SimHei-32" x="100"/>
       <use xlink:href="#SimHei-33" x="150"/>
       <use xlink:href="#SimHei-2d" x="200"/>
       <use xlink:href="#SimHei-31" x="250"/>
       <use xlink:href="#SimHei-31" x="300"/>
       <use xlink:href="#SimHei-2d" x="350"/>
       <use xlink:href="#SimHei-31" x="400"/>
       <use xlink:href="#SimHei-39" x="450"/>
      </g>
     </g>
    </g>
    <g id="xtick_9">
     <g id="line2d_44">
      <g>
       <use xlink:href="#m98c5f3e237" x="781.991208" y="162.432" style="stroke: #000000; stroke-width: 0.8"/>
      </g>
     </g>
     <g id="text_33">
      <!-- 2024-01-18 -->
      <g transform="translate(756.991208 176.307) scale(0.1 -0.1)">
       <use xlink:href="#SimHei-32"/>
       <use xlink:href="#SimHei-30" x="50"/>
       <use xlink:href="#SimHei-32" x="100"/>
       <use xlink:href="#SimHei-34" x="150"/>
       <use xlink:href="#SimHei-2d" x="200"/>
       <use xlink:href="#SimHei-30" x="250"/>
       <use xlink:href="#SimHei-31" x="300"/>
       <use xlink:href="#SimHei-2d" x="350"/>
       <use xlink:href="#SimHei-31" x="400"/>
       <use xlink:href="#SimHei-38" x="450"/>
      </g>
     </g>
    </g>
   </g>
   <g id="matplotlib.axis_6">
    <g id="ytick_14">
     <g id="line2d_45">
      <g>
       <use xlink:href="#m8e7c7cb437" x="597.838419" y="155.376" style="stroke: #000000; stroke-width: 0.8"/>
      </g>
     </g>
     <g id="text_34">
      <!-- 0.0000 -->
      <g transform="translate(560.838419 158.8135) scale(0.1 -0.1)">
       <use xlink:href="#SimHei-30"/>
       <use xlink:href="#SimHei-2e" x="50"/>
       <use xlink:href="#SimHei-30" x="100"/>
       <use xlink:href="#SimHei-30" x="150"/>
       <use xlink:href="#SimHei-30" x="200"/>
       <use xlink:href="#SimHei-30" x="250"/>
      </g>
     </g>
    </g>
    <g id="ytick_15">
     <g id="line2d_46">
      <g>
       <use xlink:href="#m8e7c7cb437" x="597.838419" y="127.152" style="stroke: #000000; stroke-width: 0.8"/>
      </g>
     </g>
     <g id="text_35">
      <!-- 0.0005 -->
      <g transform="translate(560.838419 130.5895) scale(0.1 -0.1)">
       <defs>
        <path id="SimHei-35" d="M 550 1325 
Q 725 650 1150 575 
Q 1575 500 1837 662 
Q 2100 825 2212 1087 
Q 2325 1350 2312 1675 
Q 2300 2000 2137 2225 
Q 1975 2450 1725 2525 
Q 1475 2600 1162 2525 
Q 850 2450 650 2175 
L 225 2225 
Q 275 2375 700 4375 
L 2675 4375 
L 2675 3925 
L 1075 3925 
Q 950 3250 825 2850 
Q 1200 3025 1525 3012 
Q 1850 3000 2150 2862 
Q 2450 2725 2587 2487 
Q 2725 2250 2787 2012 
Q 2850 1775 2837 1500 
Q 2825 1225 2725 937 
Q 2625 650 2425 462 
Q 2225 275 1937 162 
Q 1650 50 1275 75 
Q 900 100 562 350 
Q 225 600 100 1200 
L 550 1325 
z
" transform="scale(0.015625)"/>
       </defs>
       <use xlink:href="#SimHei-30"/>
       <use xlink:href="#SimHei-2e" x="50"/>
       <use xlink:href="#SimHei-30" x="100"/>
       <use xlink:href="#SimHei-30" x="150"/>
       <use xlink:href="#SimHei-30" x="200"/>
       <use xlink:href="#SimHei-35" x="250"/>
      </g>
     </g>
    </g>
    <g id="ytick_16">
     <g id="line2d_47">
      <g>
       <use xlink:href="#m8e7c7cb437" x="597.838419" y="98.928" style="stroke: #000000; stroke-width: 0.8"/>
      </g>
     </g>
     <g id="text_36">
      <!-- 0.0010 -->
      <g transform="translate(560.838419 102.3655) scale(0.1 -0.1)">
       <use xlink:href="#SimHei-30"/>
       <use xlink:href="#SimHei-2e" x="50"/>
       <use xlink:href="#SimHei-30" x="100"/>
       <use xlink:href="#SimHei-30" x="150"/>
       <use xlink:href="#SimHei-31" x="200"/>
       <use xlink:href="#SimHei-30" x="250"/>
      </g>
     </g>
    </g>
    <g id="ytick_17">
     <g id="line2d_48">
      <g>
       <use xlink:href="#m8e7c7cb437" x="597.838419" y="70.704" style="stroke: #000000; stroke-width: 0.8"/>
      </g>
     </g>
     <g id="text_37">
      <!-- 0.0015 -->
      <g transform="translate(560.838419 74.1415) scale(0.1 -0.1)">
       <use xlink:href="#SimHei-30"/>
       <use xlink:href="#SimHei-2e" x="50"/>
       <use xlink:href="#SimHei-30" x="100"/>
       <use xlink:href="#SimHei-30" x="150"/>
       <use xlink:href="#SimHei-31" x="200"/>
       <use xlink:href="#SimHei-35" x="250"/>
      </g>
     </g>
    </g>
    <g id="ytick_18">
     <g id="line2d_49">
      <g>
       <use xlink:href="#m8e7c7cb437" x="597.838419" y="42.48" style="stroke: #000000; stroke-width: 0.8"/>
      </g>
     </g>
     <g id="text_38">
      <!-- 0.0020 -->
      <g transform="translate(560.838419 45.9175) scale(0.1 -0.1)">
       <use xlink:href="#SimHei-30"/>
       <use xlink:href="#SimHei-2e" x="50"/>
       <use xlink:href="#SimHei-30" x="100"/>
       <use xlink:href="#SimHei-30" x="150"/>
       <use xlink:href="#SimHei-32" x="200"/>
       <use xlink:href="#SimHei-30" x="250"/>
      </g>
     </g>
    </g>
    <g id="ytick_19">
     <g id="line2d_50">
      <g>
       <use xlink:href="#m8e7c7cb437" x="597.838419" y="14.256" style="stroke: #000000; stroke-width: 0.8"/>
      </g>
     </g>
     <g id="text_39">
      <!-- 0.0025 -->
      <g transform="translate(560.838419 17.6935) scale(0.1 -0.1)">
       <use xlink:href="#SimHei-30"/>
       <use xlink:href="#SimHei-2e" x="50"/>
       <use xlink:href="#SimHei-30" x="100"/>
       <use xlink:href="#SimHei-30" x="150"/>
       <use xlink:href="#SimHei-32" x="200"/>
       <use xlink:href="#SimHei-35" x="250"/>
      </g>
     </g>
    </g>
   </g>
   <g id="line2d_51">
    <path d="M 608.282269 14.256 
L 609.347968 153.74197 
L 610.413667 154.677733 
L 611.479366 154.179773 
L 614.676463 153.651811 
L 615.742162 150.053222 
L 616.807861 149.631192 
L 617.87356 153.53451 
L 618.939259 152.624082 
L 622.136356 153.433017 
L 623.202055 152.93847 
L 624.267754 151.436069 
L 625.333453 151.512526 
L 626.399153 152.794001 
L 629.59625 146.436181 
L 631.727648 152.022279 
L 632.793347 153.259198 
L 633.859046 153.095062 
L 637.056143 153.831121 
L 638.121842 148.11847 
L 639.187541 152.967059 
L 640.25324 152.93415 
L 641.318939 153.808462 
L 644.516036 151.580523 
L 645.581735 148.450295 
L 646.647434 152.743795 
L 647.713133 147.78582 
L 648.778832 151.955422 
L 651.975929 150.806985 
L 653.041628 153.319554 
L 654.107327 149.610251 
L 655.173026 153.692779 
L 656.238725 152.54641 
L 659.435822 154.316472 
L 660.501521 151.919201 
L 661.56722 152.84478 
L 662.632919 148.985182 
L 674.355608 151.957757 
L 675.421307 147.073275 
L 676.487006 151.334577 
L 678.618404 153.693666 
L 681.815501 150.502405 
L 682.8812 152.68592 
L 685.012598 154.333482 
L 686.078297 151.62477 
L 689.275394 154.170971 
L 690.341093 150.688229 
L 691.406792 151.425531 
L 692.472491 151.457952 
L 693.53819 151.181215 
L 696.735287 153.59416 
L 697.800986 154.216418 
L 698.866685 152.100894 
L 699.932384 152.317674 
L 700.998083 149.139055 
L 704.19518 153.288699 
L 705.260879 151.724157 
L 706.326578 152.517158 
L 707.392277 149.751006 
L 708.457976 152.960044 
L 711.655073 154.297962 
L 712.720772 154.489482 
L 713.786471 151.490718 
L 714.85217 151.197888 
L 715.917869 146.338143 
L 719.114966 152.976783 
L 720.180665 152.362416 
L 721.246364 153.526984 
L 722.312063 146.029801 
L 723.377762 154.662506 
L 726.574859 151.66585 
L 727.640558 149.036194 
L 728.706257 150.824312 
L 729.771956 148.854794 
L 730.837655 151.2517 
L 734.034752 148.595873 
L 735.100451 151.567035 
L 736.16615 151.704586 
L 737.231849 149.19837 
L 738.297548 152.580727 
L 741.494645 151.635234 
L 742.560344 151.046464 
L 743.626043 153.677354 
L 744.691742 149.00099 
L 745.757441 152.955838 
L 748.954538 149.913124 
L 750.020237 154.293441 
L 751.085936 150.016614 
L 752.151635 152.514306 
L 753.217334 151.295423 
L 756.414431 151.845263 
L 757.48013 152.309636 
L 758.545829 149.09542 
L 759.611528 152.328902 
L 760.677227 152.431244 
L 764.940023 146.663354 
L 766.005722 151.202737 
L 767.071421 154.031631 
L 768.13712 153.903424 
L 771.334217 153.149438 
L 772.399916 146.872682 
L 773.465615 147.242908 
L 774.531314 153.569547 
L 775.597013 151.316465 
L 778.79411 151.464669 
L 779.859809 150.399888 
L 780.925508 153.486592 
L 781.991208 152.861877 
L 783.056907 146.183041 
L 786.254004 147.617677 
L 787.319703 143.033493 
L 788.385402 151.980883 
L 789.451101 153.222084 
L 790.5168 147.608332 
L 793.713897 147.369361 
L 794.779596 142.649002 
L 795.845295 151.982392 
L 796.910994 151.337744 
L 797.976693 154.341906 
L 801.17379 154.631857 
L 802.239489 151.214835 
L 803.305188 150.562253 
L 804.370887 152.015727 
L 816.093576 152.624197 
L 817.159275 155.376 
L 817.159275 155.376 
" clip-path="url(#p72ba5f05f6)" style="fill: none; stroke: #1f77b4; stroke-width: 1.5; stroke-linecap: square"/>
   </g>
   <g id="patch_14">
    <path d="M 597.838419 162.432 
L 597.838419 7.2 
" style="fill: none; stroke: #000000; stroke-width: 0.8; stroke-linejoin: miter; stroke-linecap: square"/>
   </g>
   <g id="patch_15">
    <path d="M 827.603125 162.432 
L 827.603125 7.2 
" style="fill: none; stroke: #000000; stroke-width: 0.8; stroke-linejoin: miter; stroke-linecap: square"/>
   </g>
   <g id="patch_16">
    <path d="M 597.838419 162.432 
L 827.603125 162.432 
" style="fill: none; stroke: #000000; stroke-width: 0.8; stroke-linejoin: miter; stroke-linecap: square"/>
   </g>
   <g id="patch_17">
    <path d="M 597.838419 7.2 
L 827.603125 7.2 
" style="fill: none; stroke: #000000; stroke-width: 0.8; stroke-linejoin: miter; stroke-linecap: square"/>
   </g>
  </g>
 </g>
 <defs>
  <clipPath id="p667b57cb25">
   <rect x="46.403125" y="7.2" width="229.764706" height="155.232"/>
  </clipPath>
  <clipPath id="p5fb908ece2">
   <rect x="322.120772" y="7.2" width="229.764706" height="155.232"/>
  </clipPath>
  <clipPath id="p72ba5f05f6">
   <rect x="597.838419" y="7.2" width="229.764706" height="155.232"/>
  </clipPath>
 </defs>
</svg>
