<?xml version="1.0" encoding="utf-8" standalone="no"?>
<!DOCTYPE svg PUBLIC "-//W3C//DTD SVG 1.1//EN"
  "http://www.w3.org/Graphics/SVG/1.1/DTD/svg11.dtd">
<svg xmlns:xlink="http://www.w3.org/1999/xlink" width="834.803125pt" height="184.757pt" viewBox="0 0 834.803125 184.757" xmlns="http://www.w3.org/2000/svg" version="1.1">
 <metadata>
  <rdf:RDF xmlns:dc="http://purl.org/dc/elements/1.1/" xmlns:cc="http://creativecommons.org/ns#" xmlns:rdf="http://www.w3.org/1999/02/22-rdf-syntax-ns#">
   <cc:Work>
    <dc:type rdf:resource="http://purl.org/dc/dcmitype/StillImage"/>
    <dc:date>2024-12-25T17:32:59.261524</dc:date>
    <dc:format>image/svg+xml</dc:format>
    <dc:creator>
     <cc:Agent>
      <dc:title>Matplotlib v3.9.3, https://matplotlib.org/</dc:title>
     </cc:Agent>
    </dc:creator>
   </cc:Work>
  </rdf:RDF>
 </metadata>
 <defs>
  <style type="text/css">*{stroke-linejoin: round; stroke-linecap: butt}</style>
 </defs>
 <g id="figure_1">
  <g id="patch_1">
   <path d="M 0 184.757 
L 834.803125 184.757 
L 834.803125 0 
L 0 0 
z
" style="fill: #ffffff"/>
  </g>
  <g id="axes_1">
   <g id="patch_2">
    <path d="M 46.403125 162.432 
L 276.167831 162.432 
L 276.167831 7.2 
L 46.403125 7.2 
z
" style="fill: #ffffff"/>
   </g>
   <g id="matplotlib.axis_1">
    <g id="xtick_1">
     <g id="line2d_1">
      <defs>
       <path id="m3f9a9ea487" d="M 0 0 
L 0 3.5 
" style="stroke: #000000; stroke-width: 0.8"/>
      </defs>
      <g>
       <use xlink:href="#m3f9a9ea487" x="102.672033" y="162.432" style="stroke: #000000; stroke-width: 0.8"/>
      </g>
     </g>
     <g id="text_1">
      <!-- 2023-09-20 -->
      <g transform="translate(77.672033 176.307) scale(0.1 -0.1)">
       <defs>
        <path id="SimHei-32" d="M 300 250 
Q 325 625 650 925 
Q 975 1225 1475 1862 
Q 1975 2500 2125 2850 
Q 2275 3200 2237 3450 
Q 2200 3700 2000 3862 
Q 1800 4025 1537 4000 
Q 1275 3975 1037 3800 
Q 800 3625 675 3275 
L 200 3350 
Q 400 3925 712 4187 
Q 1025 4450 1450 4475 
Q 1700 4500 1900 4462 
Q 2100 4425 2312 4287 
Q 2525 4150 2662 3875 
Q 2800 3600 2762 3212 
Q 2725 2825 2375 2287 
Q 2025 1750 1025 600 
L 2825 600 
L 2825 150 
L 300 150 
L 300 250 
z
" transform="scale(0.015625)"/>
        <path id="SimHei-30" d="M 225 2537 
Q 250 3200 412 3587 
Q 575 3975 875 4225 
Q 1175 4475 1612 4475 
Q 2050 4475 2375 4112 
Q 2700 3750 2800 3200 
Q 2900 2650 2862 1937 
Q 2825 1225 2612 775 
Q 2400 325 1975 150 
Q 1550 -25 1125 187 
Q 700 400 525 750 
Q 350 1100 275 1487 
Q 200 1875 225 2537 
z
M 750 2687 
Q 675 2000 800 1462 
Q 925 925 1212 700 
Q 1500 475 1800 612 
Q 2100 750 2237 1162 
Q 2375 1575 2375 2062 
Q 2375 2550 2337 2950 
Q 2300 3350 2112 3675 
Q 1925 4000 1612 4012 
Q 1300 4025 1062 3700 
Q 825 3375 750 2687 
z
" transform="scale(0.015625)"/>
        <path id="SimHei-33" d="M 250 1225 
L 700 1300 
Q 800 975 1025 762 
Q 1250 550 1587 562 
Q 1925 575 2125 837 
Q 2325 1100 2300 1437 
Q 2275 1775 2037 1962 
Q 1800 2150 1275 2225 
L 1275 2550 
Q 1800 2600 2037 2825 
Q 2275 3050 2250 3412 
Q 2225 3775 1925 3937 
Q 1625 4100 1287 3975 
Q 950 3850 750 3275 
L 300 3350 
Q 450 3800 712 4100 
Q 975 4400 1425 4450 
Q 1875 4500 2212 4337 
Q 2550 4175 2687 3837 
Q 2825 3500 2725 3100 
Q 2625 2700 2150 2400 
Q 2500 2250 2687 1950 
Q 2875 1650 2812 1162 
Q 2750 675 2375 375 
Q 2000 75 1525 87 
Q 1050 100 700 387 
Q 350 675 250 1225 
z
" transform="scale(0.015625)"/>
        <path id="SimHei-2d" d="M 2975 2125 
L 125 2125 
L 125 2525 
L 2975 2525 
L 2975 2125 
z
" transform="scale(0.015625)"/>
        <path id="SimHei-39" d="M 800 75 
Q 1350 1000 1700 1750 
Q 1075 1650 662 1912 
Q 250 2175 162 2625 
Q 75 3075 175 3437 
Q 275 3800 487 4037 
Q 700 4275 1000 4375 
Q 1300 4475 1537 4475 
Q 1775 4475 2025 4375 
Q 2275 4275 2475 4075 
Q 2675 3875 2750 3662 
Q 2825 3450 2825 3112 
Q 2825 2775 2575 2250 
Q 2325 1725 1350 75 
L 800 75 
z
M 662 2875 
Q 700 2550 937 2337 
Q 1175 2125 1450 2150 
Q 1725 2175 1887 2300 
Q 2050 2425 2200 2725 
Q 2300 3100 2250 3362 
Q 2200 3625 1987 3800 
Q 1775 3975 1525 3975 
Q 1375 4000 1137 3900 
Q 900 3800 762 3500 
Q 625 3200 662 2875 
z
" transform="scale(0.015625)"/>
       </defs>
       <use xlink:href="#SimHei-32"/>
       <use xlink:href="#SimHei-30" x="50"/>
       <use xlink:href="#SimHei-32" x="100"/>
       <use xlink:href="#SimHei-33" x="150"/>
       <use xlink:href="#SimHei-2d" x="200"/>
       <use xlink:href="#SimHei-30" x="250"/>
       <use xlink:href="#SimHei-39" x="300"/>
       <use xlink:href="#SimHei-2d" x="350"/>
       <use xlink:href="#SimHei-32" x="400"/>
       <use xlink:href="#SimHei-30" x="450"/>
      </g>
     </g>
    </g>
    <g id="xtick_2">
     <g id="line2d_2">
      <g>
       <use xlink:href="#m3f9a9ea487" x="166.613973" y="162.432" style="stroke: #000000; stroke-width: 0.8"/>
      </g>
     </g>
     <g id="text_2">
      <!-- 2023-11-19 -->
      <g transform="translate(141.613973 176.307) scale(0.1 -0.1)">
       <defs>
        <path id="SimHei-31" d="M 1400 3600 
Q 1075 3275 575 2975 
L 575 3450 
Q 1200 3875 1600 4450 
L 1900 4450 
L 1900 150 
L 1400 150 
L 1400 3600 
z
" transform="scale(0.015625)"/>
       </defs>
       <use xlink:href="#SimHei-32"/>
       <use xlink:href="#SimHei-30" x="50"/>
       <use xlink:href="#SimHei-32" x="100"/>
       <use xlink:href="#SimHei-33" x="150"/>
       <use xlink:href="#SimHei-2d" x="200"/>
       <use xlink:href="#SimHei-31" x="250"/>
       <use xlink:href="#SimHei-31" x="300"/>
       <use xlink:href="#SimHei-2d" x="350"/>
       <use xlink:href="#SimHei-31" x="400"/>
       <use xlink:href="#SimHei-39" x="450"/>
      </g>
     </g>
    </g>
    <g id="xtick_3">
     <g id="line2d_3">
      <g>
       <use xlink:href="#m3f9a9ea487" x="230.555913" y="162.432" style="stroke: #000000; stroke-width: 0.8"/>
      </g>
     </g>
     <g id="text_3">
      <!-- 2024-01-18 -->
      <g transform="translate(205.555913 176.307) scale(0.1 -0.1)">
       <defs>
        <path id="SimHei-34" d="M 2000 1100 
L 75 1100 
L 75 1525 
L 2100 4450 
L 2475 4450 
L 2475 1525 
L 3075 1525 
L 3075 1100 
L 2475 1100 
L 2475 150 
L 2000 150 
L 2000 1100 
z
M 2000 1525 
L 2000 3500 
L 600 1525 
L 2000 1525 
z
" transform="scale(0.015625)"/>
        <path id="SimHei-38" d="M 175 1375 
Q 175 1675 325 1962 
Q 475 2250 825 2425 
Q 525 2600 425 2812 
Q 325 3025 312 3300 
Q 300 3575 387 3775 
Q 475 3975 650 4150 
Q 825 4325 1037 4387 
Q 1250 4450 1500 4450 
Q 1750 4450 1950 4400 
Q 2150 4350 2375 4187 
Q 2600 4025 2700 3725 
Q 2800 3425 2687 3025 
Q 2575 2625 2100 2400 
Q 2525 2275 2700 2012 
Q 2875 1750 2875 1375 
Q 2875 1000 2762 775 
Q 2650 550 2512 400 
Q 2375 250 2137 162 
Q 1900 75 1537 75 
Q 1175 75 912 162 
Q 650 250 475 425 
Q 300 600 237 837 
Q 175 1075 175 1375 
z
M 687 1400 
Q 675 1100 787 875 
Q 900 650 1200 587 
Q 1500 525 1825 600 
Q 2150 675 2275 950 
Q 2400 1225 2362 1500 
Q 2325 1775 2050 1962 
Q 1775 2150 1450 2125 
Q 1125 2100 912 1900 
Q 700 1700 687 1400 
z
M 775 3350 
Q 775 3100 950 2875 
Q 1125 2650 1500 2650 
Q 1875 2650 2062 2875 
Q 2250 3100 2237 3412 
Q 2225 3725 2012 3875 
Q 1800 4025 1437 4000 
Q 1075 3975 925 3787 
Q 775 3600 775 3350 
z
" transform="scale(0.015625)"/>
       </defs>
       <use xlink:href="#SimHei-32"/>
       <use xlink:href="#SimHei-30" x="50"/>
       <use xlink:href="#SimHei-32" x="100"/>
       <use xlink:href="#SimHei-34" x="150"/>
       <use xlink:href="#SimHei-2d" x="200"/>
       <use xlink:href="#SimHei-30" x="250"/>
       <use xlink:href="#SimHei-31" x="300"/>
       <use xlink:href="#SimHei-2d" x="350"/>
       <use xlink:href="#SimHei-31" x="400"/>
       <use xlink:href="#SimHei-38" x="450"/>
      </g>
     </g>
    </g>
   </g>
   <g id="matplotlib.axis_2">
    <g id="ytick_1">
     <g id="line2d_4">
      <defs>
       <path id="m951dfdbd45" d="M 0 0 
L -3.5 0 
" style="stroke: #000000; stroke-width: 0.8"/>
      </defs>
      <g>
       <use xlink:href="#m951dfdbd45" x="46.403125" y="134.35514" style="stroke: #000000; stroke-width: 0.8"/>
      </g>
     </g>
     <g id="text_4">
      <!-- 0.92 -->
      <g transform="translate(19.403125 137.79264) scale(0.1 -0.1)">
       <defs>
        <path id="SimHei-2e" d="M 1075 125 
L 500 125 
L 500 675 
L 1075 675 
L 1075 125 
z
" transform="scale(0.015625)"/>
       </defs>
       <use xlink:href="#SimHei-30"/>
       <use xlink:href="#SimHei-2e" x="50"/>
       <use xlink:href="#SimHei-39" x="100"/>
       <use xlink:href="#SimHei-32" x="150"/>
      </g>
     </g>
    </g>
    <g id="ytick_2">
     <g id="line2d_5">
      <g>
       <use xlink:href="#m951dfdbd45" x="46.403125" y="104.188344" style="stroke: #000000; stroke-width: 0.8"/>
      </g>
     </g>
     <g id="text_5">
      <!-- 0.94 -->
      <g transform="translate(19.403125 107.625844) scale(0.1 -0.1)">
       <use xlink:href="#SimHei-30"/>
       <use xlink:href="#SimHei-2e" x="50"/>
       <use xlink:href="#SimHei-39" x="100"/>
       <use xlink:href="#SimHei-34" x="150"/>
      </g>
     </g>
    </g>
    <g id="ytick_3">
     <g id="line2d_6">
      <g>
       <use xlink:href="#m951dfdbd45" x="46.403125" y="74.021548" style="stroke: #000000; stroke-width: 0.8"/>
      </g>
     </g>
     <g id="text_6">
      <!-- 0.96 -->
      <g transform="translate(19.403125 77.459048) scale(0.1 -0.1)">
       <defs>
        <path id="SimHei-36" d="M 250 1612 
Q 275 1975 387 2225 
Q 500 2475 725 2850 
L 1750 4450 
L 2325 4450 
L 1275 2800 
Q 1950 2975 2350 2750 
Q 2750 2525 2887 2237 
Q 3025 1950 3037 1612 
Q 3050 1275 2937 950 
Q 2825 625 2537 362 
Q 2250 100 1737 75 
Q 1225 50 862 262 
Q 500 475 362 862 
Q 225 1250 250 1612 
z
M 1025 787 
Q 1250 550 1625 525 
Q 2000 500 2250 775 
Q 2500 1050 2500 1575 
Q 2500 2100 2187 2300 
Q 1875 2500 1487 2450 
Q 1100 2400 925 2075 
Q 750 1750 775 1387 
Q 800 1025 1025 787 
z
" transform="scale(0.015625)"/>
       </defs>
       <use xlink:href="#SimHei-30"/>
       <use xlink:href="#SimHei-2e" x="50"/>
       <use xlink:href="#SimHei-39" x="100"/>
       <use xlink:href="#SimHei-36" x="150"/>
      </g>
     </g>
    </g>
    <g id="ytick_4">
     <g id="line2d_7">
      <g>
       <use xlink:href="#m951dfdbd45" x="46.403125" y="43.854752" style="stroke: #000000; stroke-width: 0.8"/>
      </g>
     </g>
     <g id="text_7">
      <!-- 0.98 -->
      <g transform="translate(19.403125 47.292252) scale(0.1 -0.1)">
       <use xlink:href="#SimHei-30"/>
       <use xlink:href="#SimHei-2e" x="50"/>
       <use xlink:href="#SimHei-39" x="100"/>
       <use xlink:href="#SimHei-38" x="150"/>
      </g>
     </g>
    </g>
    <g id="ytick_5">
     <g id="line2d_8">
      <g>
       <use xlink:href="#m951dfdbd45" x="46.403125" y="13.687956" style="stroke: #000000; stroke-width: 0.8"/>
      </g>
     </g>
     <g id="text_8">
      <!-- 1.00 -->
      <g transform="translate(19.403125 17.125456) scale(0.1 -0.1)">
       <use xlink:href="#SimHei-31"/>
       <use xlink:href="#SimHei-2e" x="50"/>
       <use xlink:href="#SimHei-30" x="100"/>
       <use xlink:href="#SimHei-30" x="150"/>
      </g>
     </g>
    </g>
    <g id="text_9">
     <!-- EVaR-Sharpe -->
     <g transform="translate(14.153125 112.316) rotate(-90) scale(0.1 -0.1)">
      <defs>
       <path id="SimHei-45" d="M 2900 125 
L 350 125 
L 350 4400 
L 2775 4400 
L 2775 3925 
L 925 3925 
L 925 2600 
L 2625 2600 
L 2625 2125 
L 925 2125 
L 925 600 
L 2900 600 
L 2900 125 
z
" transform="scale(0.015625)"/>
       <path id="SimHei-56" d="M 3050 4400 
L 1800 75 
L 1300 75 
L 50 4400 
L 650 4400 
L 1525 1125 
L 1575 1125 
L 2450 4400 
L 3050 4400 
z
" transform="scale(0.015625)"/>
       <path id="SimHei-61" d="M 2875 125 
L 2275 125 
Q 2225 175 2200 262 
Q 2175 350 2175 475 
Q 2000 275 1750 175 
Q 1500 75 1225 75 
Q 825 75 550 275 
Q 275 475 275 850 
Q 275 1225 525 1450 
Q 775 1675 1300 1750 
Q 1650 1800 1912 1875 
Q 2175 1950 2175 2075 
Q 2175 2225 2062 2375 
Q 1950 2525 1575 2525 
Q 1275 2525 1137 2412 
Q 1000 2300 950 2100 
L 400 2100 
Q 450 2500 762 2737 
Q 1075 2975 1575 2975 
Q 2125 2975 2400 2725 
Q 2675 2475 2675 2025 
L 2675 650 
Q 2675 500 2725 375 
Q 2775 250 2875 125 
z
M 2175 1050 
L 2175 1550 
Q 2025 1500 1887 1462 
Q 1750 1425 1425 1375 
Q 1050 1325 937 1200 
Q 825 1075 825 900 
Q 825 750 937 637 
Q 1050 525 1275 525 
Q 1500 525 1762 650 
Q 2025 775 2175 1050 
z
" transform="scale(0.015625)"/>
       <path id="SimHei-52" d="M 3000 125 
L 2400 125 
L 1500 1975 
L 850 1975 
L 850 125 
L 275 125 
L 275 4400 
L 1525 4400 
Q 2125 4400 2500 4112 
Q 2875 3825 2875 3175 
Q 2875 2675 2625 2400 
Q 2375 2125 2050 2050 
L 3000 125 
z
M 2300 3175 
Q 2300 3525 2087 3725 
Q 1875 3925 1400 3925 
L 850 3925 
L 850 2450 
L 1550 2450 
Q 1850 2450 2075 2612 
Q 2300 2775 2300 3175 
z
" transform="scale(0.015625)"/>
       <path id="SimHei-53" d="M 2900 1325 
Q 2900 750 2537 412 
Q 2175 75 1550 75 
Q 925 75 575 425 
Q 225 775 225 1300 
L 225 1475 
L 800 1475 
L 800 1325 
Q 800 950 1025 750 
Q 1250 550 1550 550 
Q 1950 550 2137 762 
Q 2325 975 2325 1275 
Q 2325 1525 2100 1737 
Q 1875 1950 1450 2125 
Q 850 2350 587 2625 
Q 325 2900 325 3275 
Q 325 3800 687 4125 
Q 1050 4450 1550 4450 
Q 2200 4450 2487 4062 
Q 2775 3675 2775 3225 
L 2200 3225 
Q 2225 3500 2050 3725 
Q 1875 3950 1550 3950 
Q 1250 3950 1075 3787 
Q 900 3625 900 3350 
Q 900 3125 1037 2962 
Q 1175 2800 1750 2575 
Q 2300 2350 2600 2037 
Q 2900 1725 2900 1325 
z
" transform="scale(0.015625)"/>
       <path id="SimHei-68" d="M 2800 125 
L 2300 125 
L 2300 1925 
Q 2300 2225 2150 2400 
Q 2000 2575 1750 2575 
Q 1425 2575 1137 2237 
Q 850 1900 850 1400 
L 850 125 
L 350 125 
L 350 4400 
L 850 4400 
L 850 2400 
Q 1050 2675 1287 2825 
Q 1525 2975 1900 2975 
Q 2350 2975 2575 2725 
Q 2800 2475 2800 2100 
L 2800 125 
z
" transform="scale(0.015625)"/>
       <path id="SimHei-72" d="M 2500 2425 
Q 2025 2500 1700 2287 
Q 1375 2075 1150 1550 
L 1150 125 
L 650 125 
L 650 2925 
L 1150 2925 
L 1150 2200 
Q 1375 2600 1712 2787 
Q 2050 2975 2500 2975 
L 2500 2425 
z
" transform="scale(0.015625)"/>
       <path id="SimHei-70" d="M 2825 1525 
Q 2825 800 2475 425 
Q 2125 50 1625 50 
Q 1350 50 1150 162 
Q 950 275 800 500 
L 800 -800 
L 300 -800 
L 300 2925 
L 800 2925 
L 800 2550 
Q 950 2775 1150 2875 
Q 1350 2975 1625 2975 
Q 2125 2975 2475 2612 
Q 2825 2250 2825 1525 
z
M 2275 1525 
Q 2275 2000 2087 2262 
Q 1900 2525 1525 2525 
Q 1225 2525 1012 2262 
Q 800 2000 800 1525 
Q 800 1050 1012 775 
Q 1225 500 1525 500 
Q 1900 500 2087 775 
Q 2275 1050 2275 1525 
z
" transform="scale(0.015625)"/>
       <path id="SimHei-65" d="M 2850 1075 
Q 2800 625 2450 350 
Q 2100 75 1625 75 
Q 1025 75 637 462 
Q 250 850 250 1525 
Q 250 2200 637 2587 
Q 1025 2975 1625 2975 
Q 2150 2975 2487 2637 
Q 2825 2300 2825 1525 
L 800 1525 
Q 800 975 1037 750 
Q 1275 525 1625 525 
Q 1900 525 2075 662 
Q 2250 800 2300 1075 
L 2850 1075 
z
M 2250 1925 
Q 2200 2275 2025 2412 
Q 1850 2550 1575 2550 
Q 1325 2550 1125 2412 
Q 925 2275 825 1925 
L 2250 1925 
z
" transform="scale(0.015625)"/>
      </defs>
      <use xlink:href="#SimHei-45"/>
      <use xlink:href="#SimHei-56" x="50"/>
      <use xlink:href="#SimHei-61" x="100"/>
      <use xlink:href="#SimHei-52" x="150"/>
      <use xlink:href="#SimHei-2d" x="200"/>
      <use xlink:href="#SimHei-53" x="250"/>
      <use xlink:href="#SimHei-68" x="300"/>
      <use xlink:href="#SimHei-61" x="350"/>
      <use xlink:href="#SimHei-72" x="400"/>
      <use xlink:href="#SimHei-70" x="450"/>
      <use xlink:href="#SimHei-65" x="500"/>
     </g>
    </g>
   </g>
   <g id="line2d_9">
    <path d="M 56.846975 17.458806 
L 57.912674 25.714296 
L 58.978373 27.285993 
L 60.044072 60.367546 
L 63.241169 67.144726 
L 64.306868 62.41754 
L 65.372567 67.68991 
L 66.438266 70.111758 
L 67.503965 75.945264 
L 70.701062 87.57295 
L 71.766761 72.391871 
L 72.83246 78.492944 
L 73.898159 64.684225 
L 74.963858 68.979075 
L 78.160955 50.333307 
L 79.226654 58.111286 
L 80.292353 47.204103 
L 81.358052 52.29089 
L 82.423751 60.617654 
L 85.620848 20.855499 
L 86.686547 38.107532 
L 87.752246 40.620358 
L 88.817945 47.790759 
L 89.883644 63.145644 
L 93.080742 52.40754 
L 94.146441 57.450797 
L 95.21214 64.752221 
L 96.277839 43.694687 
L 97.343538 59.147829 
L 100.540635 39.746516 
L 101.606334 51.739495 
L 102.672033 48.024167 
L 103.737732 61.45482 
L 104.803431 36.152138 
L 109.066227 41.91723 
L 110.131926 46.979117 
L 111.197625 64.029572 
L 122.920314 56.595945 
L 123.986013 65.24663 
L 125.051712 70.85507 
L 126.117411 49.390661 
L 127.18311 57.216073 
L 130.380207 61.22804 
L 131.445906 54.970894 
L 132.511605 59.107484 
L 133.577304 89.306111 
L 134.643003 104.004655 
L 137.8401 111.806161 
L 138.905799 120.927892 
L 139.971498 54.426312 
L 141.037197 52.783851 
L 142.102896 52.921049 
L 145.299993 78.881506 
L 146.365692 69.625347 
L 147.431391 53.904674 
L 148.49709 42.907937 
L 149.562789 50.499905 
L 152.759886 51.836763 
L 153.825585 46.266251 
L 154.891284 54.36312 
L 155.956983 51.095535 
L 157.022682 52.501134 
L 160.219779 66.365286 
L 161.285478 67.548751 
L 162.351177 44.782001 
L 163.416876 48.125246 
L 164.482575 48.334877 
L 167.679672 35.084816 
L 168.745371 34.56151 
L 169.81107 46.98013 
L 170.876769 29.860898 
L 171.942468 32.8523 
L 175.139565 34.267569 
L 176.205264 21.179823 
L 177.270963 38.197236 
L 178.336662 42.709854 
L 179.402361 129.316596 
L 182.599458 114.867483 
L 183.665157 126.740603 
L 184.730856 131.336072 
L 186.862254 134.888158 
L 190.059351 131.325357 
L 191.12505 118.612659 
L 192.190749 120.735193 
L 193.256448 136.768424 
L 194.322147 149.11863 
L 197.519244 143.261946 
L 198.584943 138.934058 
L 199.650642 146.899887 
L 200.716341 150.778774 
L 201.78204 151.129154 
L 204.979137 136.605536 
L 206.044836 136.539777 
L 207.110535 135.389338 
L 208.176234 149.593943 
L 209.241933 144.159645 
L 214.570428 120.571998 
L 215.636127 118.898036 
L 216.701826 122.89357 
L 219.898923 133.331008 
L 220.964622 135.391631 
L 222.030321 145.522493 
L 223.09602 149.119367 
L 224.161719 126.045736 
L 227.358816 125.553432 
L 228.424515 113.218829 
L 229.490214 130.717787 
L 230.555913 135.233641 
L 231.621612 134.520278 
L 234.818709 155.376 
L 235.884408 154.156797 
L 236.950107 112.448009 
L 238.015806 95.993128 
L 239.081505 86.244852 
L 242.278602 83.900939 
L 243.344301 91.646136 
L 244.41 92.324575 
L 245.475699 98.93731 
L 246.541398 94.551656 
L 249.738496 73.445756 
L 250.804195 68.622536 
L 251.869894 66.495678 
L 252.935593 65.331535 
L 264.658282 37.743615 
L 265.723981 14.256 
L 265.723981 14.256 
" clip-path="url(#p429225e5a8)" style="fill: none; stroke: #1f77b4; stroke-width: 1.5; stroke-linecap: square"/>
   </g>
   <g id="patch_3">
    <path d="M 46.403125 162.432 
L 46.403125 7.2 
" style="fill: none; stroke: #000000; stroke-width: 0.8; stroke-linejoin: miter; stroke-linecap: square"/>
   </g>
   <g id="patch_4">
    <path d="M 276.167831 162.432 
L 276.167831 7.2 
" style="fill: none; stroke: #000000; stroke-width: 0.8; stroke-linejoin: miter; stroke-linecap: square"/>
   </g>
   <g id="patch_5">
    <path d="M 46.403125 162.432 
L 276.167831 162.432 
" style="fill: none; stroke: #000000; stroke-width: 0.8; stroke-linejoin: miter; stroke-linecap: square"/>
   </g>
   <g id="patch_6">
    <path d="M 46.403125 7.2 
L 276.167831 7.2 
" style="fill: none; stroke: #000000; stroke-width: 0.8; stroke-linejoin: miter; stroke-linecap: square"/>
   </g>
  </g>
  <g id="axes_2">
   <g id="patch_7">
    <path d="M 322.120772 162.432 
L 551.885478 162.432 
L 551.885478 7.2 
L 322.120772 7.2 
z
" style="fill: #ffffff"/>
   </g>
   <g id="matplotlib.axis_3">
    <g id="xtick_4">
     <g id="line2d_10">
      <g>
       <use xlink:href="#m3f9a9ea487" x="379.455379" y="162.432" style="stroke: #000000; stroke-width: 0.8"/>
      </g>
     </g>
     <g id="text_10">
      <!-- 2023-09-20 -->
      <g transform="translate(354.455379 176.307) scale(0.1 -0.1)">
       <use xlink:href="#SimHei-32"/>
       <use xlink:href="#SimHei-30" x="50"/>
       <use xlink:href="#SimHei-32" x="100"/>
       <use xlink:href="#SimHei-33" x="150"/>
       <use xlink:href="#SimHei-2d" x="200"/>
       <use xlink:href="#SimHei-30" x="250"/>
       <use xlink:href="#SimHei-39" x="300"/>
       <use xlink:href="#SimHei-2d" x="350"/>
       <use xlink:href="#SimHei-32" x="400"/>
       <use xlink:href="#SimHei-30" x="450"/>
      </g>
     </g>
    </g>
    <g id="xtick_5">
     <g id="line2d_11">
      <g>
       <use xlink:href="#m3f9a9ea487" x="443.397319" y="162.432" style="stroke: #000000; stroke-width: 0.8"/>
      </g>
     </g>
     <g id="text_11">
      <!-- 2023-11-19 -->
      <g transform="translate(418.397319 176.307) scale(0.1 -0.1)">
       <use xlink:href="#SimHei-32"/>
       <use xlink:href="#SimHei-30" x="50"/>
       <use xlink:href="#SimHei-32" x="100"/>
       <use xlink:href="#SimHei-33" x="150"/>
       <use xlink:href="#SimHei-2d" x="200"/>
       <use xlink:href="#SimHei-31" x="250"/>
       <use xlink:href="#SimHei-31" x="300"/>
       <use xlink:href="#SimHei-2d" x="350"/>
       <use xlink:href="#SimHei-31" x="400"/>
       <use xlink:href="#SimHei-39" x="450"/>
      </g>
     </g>
    </g>
    <g id="xtick_6">
     <g id="line2d_12">
      <g>
       <use xlink:href="#m3f9a9ea487" x="507.339259" y="162.432" style="stroke: #000000; stroke-width: 0.8"/>
      </g>
     </g>
     <g id="text_12">
      <!-- 2024-01-18 -->
      <g transform="translate(482.339259 176.307) scale(0.1 -0.1)">
       <use xlink:href="#SimHei-32"/>
       <use xlink:href="#SimHei-30" x="50"/>
       <use xlink:href="#SimHei-32" x="100"/>
       <use xlink:href="#SimHei-34" x="150"/>
       <use xlink:href="#SimHei-2d" x="200"/>
       <use xlink:href="#SimHei-30" x="250"/>
       <use xlink:href="#SimHei-31" x="300"/>
       <use xlink:href="#SimHei-2d" x="350"/>
       <use xlink:href="#SimHei-31" x="400"/>
       <use xlink:href="#SimHei-38" x="450"/>
      </g>
     </g>
    </g>
   </g>
   <g id="matplotlib.axis_4">
    <g id="ytick_6">
     <g id="line2d_13">
      <g>
       <use xlink:href="#m951dfdbd45" x="322.120772" y="155.376" style="stroke: #000000; stroke-width: 0.8"/>
      </g>
     </g>
     <g id="text_13">
      <!-- 0.0 -->
      <g transform="translate(300.120772 158.8135) scale(0.1 -0.1)">
       <use xlink:href="#SimHei-30"/>
       <use xlink:href="#SimHei-2e" x="50"/>
       <use xlink:href="#SimHei-30" x="100"/>
      </g>
     </g>
    </g>
    <g id="ytick_7">
     <g id="line2d_14">
      <g>
       <use xlink:href="#m951dfdbd45" x="322.120772" y="127.152" style="stroke: #000000; stroke-width: 0.8"/>
      </g>
     </g>
     <g id="text_14">
      <!-- 0.2 -->
      <g transform="translate(300.120772 130.5895) scale(0.1 -0.1)">
       <use xlink:href="#SimHei-30"/>
       <use xlink:href="#SimHei-2e" x="50"/>
       <use xlink:href="#SimHei-32" x="100"/>
      </g>
     </g>
    </g>
    <g id="ytick_8">
     <g id="line2d_15">
      <g>
       <use xlink:href="#m951dfdbd45" x="322.120772" y="98.928" style="stroke: #000000; stroke-width: 0.8"/>
      </g>
     </g>
     <g id="text_15">
      <!-- 0.4 -->
      <g transform="translate(300.120772 102.3655) scale(0.1 -0.1)">
       <use xlink:href="#SimHei-30"/>
       <use xlink:href="#SimHei-2e" x="50"/>
       <use xlink:href="#SimHei-34" x="100"/>
      </g>
     </g>
    </g>
    <g id="ytick_9">
     <g id="line2d_16">
      <g>
       <use xlink:href="#m951dfdbd45" x="322.120772" y="70.704" style="stroke: #000000; stroke-width: 0.8"/>
      </g>
     </g>
     <g id="text_16">
      <!-- 0.6 -->
      <g transform="translate(300.120772 74.1415) scale(0.1 -0.1)">
       <use xlink:href="#SimHei-30"/>
       <use xlink:href="#SimHei-2e" x="50"/>
       <use xlink:href="#SimHei-36" x="100"/>
      </g>
     </g>
    </g>
    <g id="ytick_10">
     <g id="line2d_17">
      <g>
       <use xlink:href="#m951dfdbd45" x="322.120772" y="42.48" style="stroke: #000000; stroke-width: 0.8"/>
      </g>
     </g>
     <g id="text_17">
      <!-- 0.8 -->
      <g transform="translate(300.120772 45.9175) scale(0.1 -0.1)">
       <use xlink:href="#SimHei-30"/>
       <use xlink:href="#SimHei-2e" x="50"/>
       <use xlink:href="#SimHei-38" x="100"/>
      </g>
     </g>
    </g>
    <g id="ytick_11">
     <g id="line2d_18">
      <g>
       <use xlink:href="#m951dfdbd45" x="322.120772" y="14.256" style="stroke: #000000; stroke-width: 0.8"/>
      </g>
     </g>
     <g id="text_18">
      <!-- 1.0 -->
      <g transform="translate(300.120772 17.6935) scale(0.1 -0.1)">
       <use xlink:href="#SimHei-31"/>
       <use xlink:href="#SimHei-2e" x="50"/>
       <use xlink:href="#SimHei-30" x="100"/>
      </g>
     </g>
    </g>
   </g>
   <g id="line2d_19">
    <path d="M 332.564622 155.376 
L 400.769359 155.37268 
L 401.835058 136.862267 
L 402.900757 143.250777 
L 403.966456 142.490797 
L 407.163553 142.910078 
L 408.229252 126.952557 
L 409.294951 104.941658 
L 410.36065 101.709693 
L 411.426349 91.795782 
L 414.623446 86.004744 
L 415.689145 79.621542 
L 416.754844 69.815612 
L 417.820543 73.983813 
L 418.886242 56.60422 
L 422.083339 58.422143 
L 423.149038 59.722632 
L 424.214737 53.285292 
L 425.280436 57.051871 
L 426.346135 56.192672 
L 429.543232 56.020911 
L 430.608931 50.819633 
L 432.740329 74.437419 
L 433.806028 80.279508 
L 437.003125 91.313796 
L 438.068824 85.718744 
L 439.134523 104.35741 
L 440.200222 106.115737 
L 441.265921 89.079692 
L 444.463018 107.234443 
L 445.528717 89.763954 
L 446.594416 85.798453 
L 447.660115 90.984738 
L 448.725814 99.737699 
L 451.922911 75.54766 
L 452.98861 55.073836 
L 454.054309 71.050954 
L 455.120008 30.063267 
L 456.185707 28.801877 
L 459.382804 36.183019 
L 460.448503 90.986224 
L 461.514202 90.681051 
L 462.579901 87.561765 
L 463.6456 97.700224 
L 466.842697 98.498182 
L 467.908396 90.150484 
L 468.974095 98.24478 
L 470.039794 117.328706 
L 471.105493 119.419822 
L 474.30259 121.790981 
L 475.368289 115.635016 
L 476.433988 120.684585 
L 477.499687 124.083687 
L 478.565386 128.790074 
L 481.762483 129.767728 
L 482.828182 129.826608 
L 483.893881 126.252923 
L 484.95958 126.931524 
L 486.025279 128.644282 
L 490.288075 128.234982 
L 491.353774 127.895077 
L 492.419473 130.423418 
L 493.485172 129.43682 
L 497.747968 128.630506 
L 500.945065 126.353389 
L 504.142162 124.380299 
L 505.207861 124.184191 
L 506.27356 122.961859 
L 507.339259 122.615112 
L 511.602055 125.770708 
L 512.667754 126.310795 
L 513.733453 127.529293 
L 515.864852 126.989318 
L 519.061949 127.06169 
L 520.127648 127.261678 
L 521.193347 127.030613 
L 522.259046 128.873954 
L 523.324745 129.614152 
L 526.521842 129.058024 
L 527.587541 127.85737 
L 528.65324 127.467276 
L 529.718939 126.859111 
L 541.441628 129.823216 
L 541.441628 129.823216 
" clip-path="url(#p6526097207)" style="fill: none; stroke: #1f77b4; stroke-width: 1.5; stroke-linecap: square"/>
   </g>
   <g id="line2d_20">
    <path d="M 332.564622 155.376 
L 333.630321 101.223803 
L 334.69602 107.269056 
L 335.761719 106.671443 
L 336.827418 104.80201 
L 340.024515 108.556147 
L 341.090214 99.94308 
L 342.155913 99.375053 
L 343.221612 104.841672 
L 344.287311 99.878684 
L 347.484408 98.823496 
L 348.550107 99.165069 
L 349.615806 97.855369 
L 350.681505 98.24869 
L 354.944301 97.829717 
L 356.01 97.778703 
L 357.075699 97.550664 
L 358.141398 98.414413 
L 359.207097 96.053321 
L 362.404195 96.08091 
L 363.469894 96.653158 
L 364.535593 97.017679 
L 365.601292 96.555196 
L 366.666991 97.779039 
L 369.864088 104.195713 
L 370.929787 100.925279 
L 371.995486 96.979788 
L 373.061185 96.784723 
L 374.126884 101.796678 
L 377.323981 103.388787 
L 378.38968 108.741693 
L 379.455379 102.720383 
L 380.521078 103.267841 
L 381.586777 99.407339 
L 384.783874 100.347093 
L 385.849573 103.702564 
L 387.980971 107.450306 
L 399.70366 107.624406 
L 400.769359 108.749129 
L 401.835058 114.757016 
L 402.900757 112.6158 
L 403.966456 111.991356 
L 407.163553 111.83935 
L 408.229252 117.731671 
L 409.294951 130.996624 
L 410.36065 134.41068 
L 411.426349 141.426056 
L 414.623446 144.839994 
L 415.689145 150.018919 
L 416.754844 153.237551 
L 417.820543 150.28455 
L 418.886242 155.376 
L 430.608931 155.376 
L 431.67463 146.866544 
L 432.740329 141.245826 
L 433.806028 137.893426 
L 437.003125 132.293083 
L 438.068824 122.244465 
L 439.134523 118.801192 
L 440.200222 120.299503 
L 441.265921 129.011188 
L 444.463018 126.989785 
L 445.528717 137.781671 
L 446.594416 137.90196 
L 447.660115 135.577788 
L 448.725814 130.452138 
L 451.922911 144.898644 
L 452.98861 155.376 
L 541.441628 155.375999 
L 541.441628 155.375999 
" clip-path="url(#p6526097207)" style="fill: none; stroke: #ff7f0e; stroke-width: 1.5; stroke-linecap: square"/>
   </g>
   <g id="line2d_21">
    <path d="M 332.564622 155.376 
L 340.024515 155.376 
L 341.090214 152.514943 
L 342.155913 155.37598 
L 422.083339 155.376 
L 423.149038 154.80947 
L 424.214737 155.376 
L 508.404958 155.376 
L 511.602055 154.123218 
L 512.667754 155.376 
L 513.733453 155.075241 
L 514.799153 155.375994 
L 541.441628 155.376 
L 541.441628 155.376 
" clip-path="url(#p6526097207)" style="fill: none; stroke: #2ca02c; stroke-width: 1.5; stroke-linecap: square"/>
   </g>
   <g id="line2d_22">
    <path d="M 332.564622 155.376 
L 541.441628 155.375996 
L 541.441628 155.375996 
" clip-path="url(#p6526097207)" style="fill: none; stroke: #d62728; stroke-width: 1.5; stroke-linecap: square"/>
   </g>
   <g id="line2d_23">
    <path d="M 332.564622 155.376 
L 541.441628 155.375998 
L 541.441628 155.375998 
" clip-path="url(#p6526097207)" style="fill: none; stroke: #9467bd; stroke-width: 1.5; stroke-linecap: square"/>
   </g>
   <g id="line2d_24">
    <path d="M 332.564622 155.376 
L 403.966456 155.376 
L 407.163553 155.007867 
L 408.229252 151.04861 
L 409.294951 155.376 
L 466.842697 155.376 
L 467.908396 149.898916 
L 468.974095 153.268201 
L 470.039794 148.782245 
L 471.105493 138.705786 
L 474.30259 142.201914 
L 475.368289 139.219105 
L 476.433988 146.185739 
L 477.499687 142.428773 
L 478.565386 146.01851 
L 481.762483 141.456674 
L 482.828182 142.81684 
L 483.893881 152.671061 
L 484.95958 154.565679 
L 486.025279 151.221291 
L 490.288075 151.759156 
L 491.353774 147.877721 
L 492.419473 153.378822 
L 493.485172 155.259478 
L 498.813667 155.375999 
L 505.207861 155.376 
L 506.27356 150.47253 
L 507.339259 155.375999 
L 541.441628 155.375998 
L 541.441628 155.375998 
" clip-path="url(#p6526097207)" style="fill: none; stroke: #8c564b; stroke-width: 1.5; stroke-linecap: square"/>
   </g>
   <g id="line2d_25">
    <path d="M 332.564622 155.376 
L 333.630321 154.209074 
L 334.69602 143.662325 
L 335.761719 144.069232 
L 336.827418 146.302254 
L 340.024515 140.734044 
L 341.090214 154.697481 
L 342.155913 155.375977 
L 343.221612 146.050331 
L 344.287311 152.10815 
L 347.484408 155.375999 
L 357.075699 155.375999 
L 358.141398 153.835718 
L 359.207097 155.375999 
L 365.601292 155.376 
L 366.666991 153.960757 
L 369.864088 145.298991 
L 371.995486 155.375993 
L 373.061185 155.375989 
L 374.126884 149.107681 
L 377.323981 146.466705 
L 378.38968 138.327021 
L 379.455379 145.015883 
L 380.521078 145.343329 
L 381.586777 150.6864 
L 384.783874 149.274793 
L 385.849573 144.383479 
L 386.915272 142.413703 
L 387.980971 139.213571 
L 399.70366 137.761095 
L 400.769359 136.871967 
L 401.835058 149.514156 
L 402.900757 144.100847 
L 403.966456 144.86734 
L 407.163553 144.167622 
L 408.229252 155.376 
L 541.441628 155.375999 
L 541.441628 155.375999 
" clip-path="url(#p6526097207)" style="fill: none; stroke: #e377c2; stroke-width: 1.5; stroke-linecap: square"/>
   </g>
   <g id="line2d_26">
    <path d="M 332.564622 155.376 
L 437.003125 155.376 
L 438.068824 147.3654 
L 439.134523 126.771825 
L 440.200222 125.757533 
L 441.265921 137.473982 
L 444.463018 107.857225 
L 445.528717 114.098664 
L 446.594416 117.746016 
L 447.660115 112.68377 
L 448.725814 110.857847 
L 451.922911 116.293816 
L 452.98861 129.367198 
L 454.054309 98.581077 
L 455.120008 155.376 
L 459.382804 155.376 
L 460.448503 132.4466 
L 461.514202 137.055457 
L 462.579901 133.957428 
L 463.6456 109.575619 
L 466.842697 106.847433 
L 467.908396 129.373935 
L 468.974095 110.507712 
L 470.039794 77.574375 
L 471.105493 84.697359 
L 474.30259 77.9105 
L 475.368289 94.707297 
L 476.433988 59.376815 
L 477.499687 68.184079 
L 478.565386 50.199454 
L 481.762483 60.413259 
L 482.828182 63.135072 
L 483.893881 46.084025 
L 484.95958 43.510883 
L 486.025279 45.14247 
L 490.288075 46.907663 
L 491.353774 64.075555 
L 492.419473 54.345192 
L 493.485172 53.507908 
L 496.682269 55.017256 
L 497.747968 53.93968 
L 498.813667 53.981148 
L 499.879366 50.937197 
L 500.945065 52.975322 
L 504.142162 64.454017 
L 505.207861 64.649646 
L 506.27356 73.329357 
L 507.339259 68.424624 
L 508.404958 64.273839 
L 511.602055 59.447092 
L 512.667754 59.548363 
L 513.733453 53.056385 
L 514.799153 52.117592 
L 515.864852 57.971603 
L 519.061949 64.55645 
L 520.127648 65.325755 
L 521.193347 64.128233 
L 522.259046 59.492846 
L 523.324745 50.168393 
L 526.521842 46.859379 
L 527.587541 52.369727 
L 528.65324 47.6271 
L 529.718939 47.870189 
L 541.441628 48.122333 
L 541.441628 48.122333 
" clip-path="url(#p6526097207)" style="fill: none; stroke: #7f7f7f; stroke-width: 1.5; stroke-linecap: square"/>
   </g>
   <g id="line2d_27">
    <path d="M 332.564622 155.376 
L 333.630321 141.867122 
L 334.69602 141.773448 
L 335.761719 145.020391 
L 336.827418 147.640024 
L 340.024515 149.018502 
L 341.090214 143.337369 
L 342.155913 141.049728 
L 343.221612 148.214327 
L 344.287311 152.783425 
L 347.484408 146.954073 
L 348.550107 151.538124 
L 349.615806 152.368529 
L 350.681505 151.164252 
L 351.747204 153.754288 
L 354.944301 155.375999 
L 356.01 154.467283 
L 357.075699 153.871534 
L 358.141398 152.588023 
L 359.207097 155.375999 
L 365.601292 155.376 
L 366.666991 154.951473 
L 369.864088 155.375986 
L 373.061185 155.375973 
L 374.126884 154.443287 
L 377.323981 153.53842 
L 378.38968 153.54934 
L 380.521078 155.375997 
L 387.980971 155.376 
L 399.70366 153.791364 
L 400.769359 149.459932 
L 401.835058 134.78735 
L 402.900757 143.622094 
L 403.966456 142.179334 
L 407.163553 146.01376 
L 408.229252 143.711091 
L 409.294951 144.962031 
L 410.36065 145.077386 
L 411.426349 145.575676 
L 414.623446 148.441045 
L 415.689145 148.349067 
L 416.754844 152.469805 
L 417.820543 149.081389 
L 418.886242 151.864196 
L 422.083339 151.497019 
L 423.149038 149.083061 
L 424.214737 147.936984 
L 425.280436 148.929827 
L 426.346135 150.74534 
L 430.608931 155.127892 
L 431.67463 151.307329 
L 432.740329 150.60341 
L 433.806028 150.638931 
L 437.003125 148.379479 
L 438.068824 142.719607 
L 439.134523 141.8789 
L 440.200222 141.242843 
L 441.265921 144.795929 
L 444.463018 146.958996 
L 445.528717 151.28081 
L 446.594416 148.801064 
L 447.660115 149.201394 
L 448.725814 148.258845 
L 451.922911 152.460165 
L 452.98861 155.376 
L 456.185707 155.375989 
L 459.382804 154.343435 
L 460.448503 155.376 
L 461.514202 147.889216 
L 462.579901 155.375715 
L 463.6456 147.623208 
L 466.842697 151.241628 
L 467.908396 150.479933 
L 468.974095 155.376 
L 470.039794 136.698684 
L 471.105493 137.561038 
L 474.30259 138.480621 
L 475.368289 133.434938 
L 476.433988 154.136864 
L 477.499687 145.687483 
L 478.565386 155.37597 
L 481.762483 148.746341 
L 482.828182 144.605483 
L 483.893881 155.376 
L 486.025279 155.375965 
L 490.288075 153.482199 
L 491.353774 140.53565 
L 492.419473 142.236578 
L 493.485172 142.179813 
L 496.682269 141.189534 
L 497.747968 142.437848 
L 498.813667 143.150574 
L 499.879366 146.957339 
L 500.945065 145.679319 
L 504.142162 136.173699 
L 505.207861 136.174174 
L 506.27356 133.620265 
L 507.339259 134.46015 
L 508.404958 137.346157 
L 511.602055 141.043005 
L 512.667754 139.14886 
L 513.733453 144.723104 
L 514.799153 145.591201 
L 515.864852 140.047108 
L 519.061949 133.389875 
L 520.127648 132.420576 
L 521.193347 136.886057 
L 522.259046 136.641228 
L 523.324745 145.376194 
L 526.521842 149.090706 
L 527.587541 145.529253 
L 528.65324 155.375992 
L 529.718939 155.376 
L 541.441628 147.062463 
L 541.441628 147.062463 
" clip-path="url(#p6526097207)" style="fill: none; stroke: #bcbd22; stroke-width: 1.5; stroke-linecap: square"/>
   </g>
   <g id="line2d_28">
    <path d="M 332.564622 155.376 
L 333.630321 83.084002 
L 334.69602 87.679183 
L 336.827418 81.639712 
L 340.024515 82.075308 
L 341.090214 85.267137 
L 342.155913 84.583267 
L 343.221612 81.27767 
L 344.287311 75.613741 
L 347.484408 79.230443 
L 348.550107 74.304859 
L 349.615806 74.784125 
L 350.681505 75.59506 
L 351.747204 73.128703 
L 354.944301 71.802289 
L 357.075699 73.585809 
L 358.141398 75.545856 
L 359.207097 73.578692 
L 362.404195 73.551092 
L 363.469894 72.978843 
L 364.535593 72.614598 
L 365.601292 73.076808 
L 369.864088 75.513329 
L 370.929787 73.646214 
L 371.995486 72.727116 
L 373.061185 72.84732 
L 374.126884 75.036358 
L 377.323981 76.990095 
L 378.38968 79.76595 
L 381.586777 74.914261 
L 384.783874 75.386158 
L 385.849573 76.921958 
L 386.915272 76.980224 
L 387.980971 78.344126 
L 399.70366 81.207135 
L 400.769359 85.306299 
L 401.835058 99.839215 
L 402.900757 92.170484 
L 403.966456 94.231173 
L 407.163553 91.197325 
L 408.229252 96.316073 
L 409.294951 99.48369 
L 410.36065 99.186246 
L 411.426349 101.586488 
L 414.623446 101.098234 
L 415.689145 102.394475 
L 416.754844 104.861032 
L 417.820543 107.03425 
L 418.886242 116.539584 
L 422.083339 115.088841 
L 423.149038 116.768838 
L 424.214737 123.785727 
L 425.280436 119.026304 
L 426.346135 118.069989 
L 429.543232 114.912723 
L 430.608931 119.060476 
L 431.67463 119.763905 
L 432.740329 114.097345 
L 433.806028 111.572136 
L 437.003125 108.397642 
L 438.068824 137.711783 
L 439.134523 143.950673 
L 440.200222 142.344391 
L 441.265921 135.399214 
L 444.463018 146.719557 
L 445.528717 142.834907 
L 446.594416 145.51251 
L 447.660115 147.312313 
L 448.725814 146.453472 
L 451.922911 146.55972 
L 452.98861 140.566966 
L 454.054309 155.375977 
L 455.120008 139.568736 
L 456.185707 140.830151 
L 459.382804 134.481546 
L 460.448503 101.575177 
L 461.514202 104.758276 
L 462.579901 103.489107 
L 463.6456 125.484958 
L 466.842697 123.796757 
L 467.908396 115.856734 
L 468.974095 118.363308 
L 470.039794 155.375992 
L 474.30259 155.375988 
L 475.368289 152.763658 
L 476.433988 155.376 
L 506.27356 155.376 
L 507.339259 154.884145 
L 508.404958 155.376 
L 520.127648 155.376 
L 521.193347 152.3391 
L 522.259046 155.375999 
L 523.324745 155.225265 
L 526.521842 155.375896 
L 527.587541 154.627651 
L 528.65324 149.913636 
L 529.718939 150.278705 
L 541.441628 155.375999 
L 541.441628 155.375999 
" clip-path="url(#p6526097207)" style="fill: none; stroke: #17becf; stroke-width: 1.5; stroke-linecap: square"/>
   </g>
   <g id="line2d_29">
    <path d="M 332.564622 14.256 
L 333.630321 155.376 
L 541.441628 155.376 
L 541.441628 155.376 
" clip-path="url(#p6526097207)" style="fill: none; stroke: #1f77b4; stroke-width: 1.5; stroke-linecap: square"/>
   </g>
   <g id="patch_8">
    <path d="M 322.120772 162.432 
L 322.120772 7.2 
" style="fill: none; stroke: #000000; stroke-width: 0.8; stroke-linejoin: miter; stroke-linecap: square"/>
   </g>
   <g id="patch_9">
    <path d="M 551.885478 162.432 
L 551.885478 7.2 
" style="fill: none; stroke: #000000; stroke-width: 0.8; stroke-linejoin: miter; stroke-linecap: square"/>
   </g>
   <g id="patch_10">
    <path d="M 322.120772 162.432 
L 551.885478 162.432 
" style="fill: none; stroke: #000000; stroke-width: 0.8; stroke-linejoin: miter; stroke-linecap: square"/>
   </g>
   <g id="patch_11">
    <path d="M 322.120772 7.2 
L 551.885478 7.2 
" style="fill: none; stroke: #000000; stroke-width: 0.8; stroke-linejoin: miter; stroke-linecap: square"/>
   </g>
   <g id="legend_1">
    <g id="patch_12">
     <path d="M 457.885478 148.60625 
L 544.885478 148.60625 
Q 546.885478 148.60625 546.885478 146.60625 
L 546.885478 14.2 
Q 546.885478 12.2 544.885478 12.2 
L 457.885478 12.2 
Q 455.885478 12.2 455.885478 14.2 
L 455.885478 146.60625 
Q 455.885478 148.60625 457.885478 148.60625 
z
" style="fill: #ffffff; opacity: 0.8; stroke: #cccccc; stroke-linejoin: miter"/>
    </g>
    <g id="line2d_30">
     <path d="M 459.885478 19.73125 
L 469.885478 19.73125 
L 479.885478 19.73125 
" style="fill: none; stroke: #1f77b4; stroke-width: 1.5; stroke-linecap: square"/>
    </g>
    <g id="text_19">
     <!-- w_002027.SZ -->
     <g transform="translate(487.885478 23.23125) scale(0.1 -0.1)">
      <defs>
       <path id="SimHei-77" d="M 3075 2925 
L 2450 75 
L 1975 75 
L 1575 2250 
L 1525 2250 
L 1125 75 
L 650 75 
L 25 2925 
L 550 2925 
L 875 1050 
L 925 1050 
L 1275 2925 
L 1825 2925 
L 2175 1050 
L 2225 1050 
L 2550 2925 
L 3075 2925 
z
" transform="scale(0.015625)"/>
       <path id="SimHei-5f" d="M 3150 -850 
L 0 -850 
L 0 -550 
L 3150 -550 
L 3150 -850 
z
" transform="scale(0.015625)"/>
       <path id="SimHei-37" d="M 850 150 
Q 1300 2050 2425 3925 
L 275 3925 
L 275 4375 
L 2950 4375 
L 2950 3950 
Q 1775 2050 1400 150 
L 850 150 
z
" transform="scale(0.015625)"/>
       <path id="SimHei-5a" d="M 2900 125 
L 225 125 
L 225 600 
L 2250 3925 
L 375 3925 
L 375 4400 
L 2825 4400 
L 2825 3925 
L 800 600 
L 2900 600 
L 2900 125 
z
" transform="scale(0.015625)"/>
      </defs>
      <use xlink:href="#SimHei-77"/>
      <use xlink:href="#SimHei-5f" x="50"/>
      <use xlink:href="#SimHei-30" x="100"/>
      <use xlink:href="#SimHei-30" x="150"/>
      <use xlink:href="#SimHei-32" x="200"/>
      <use xlink:href="#SimHei-30" x="250"/>
      <use xlink:href="#SimHei-32" x="300"/>
      <use xlink:href="#SimHei-37" x="350"/>
      <use xlink:href="#SimHei-2e" x="400"/>
      <use xlink:href="#SimHei-53" x="450"/>
      <use xlink:href="#SimHei-5a" x="500"/>
     </g>
    </g>
    <g id="line2d_31">
     <path d="M 459.885478 33.090625 
L 469.885478 33.090625 
L 479.885478 33.090625 
" style="fill: none; stroke: #ff7f0e; stroke-width: 1.5; stroke-linecap: square"/>
    </g>
    <g id="text_20">
     <!-- w_002371.SZ -->
     <g transform="translate(487.885478 36.590625) scale(0.1 -0.1)">
      <use xlink:href="#SimHei-77"/>
      <use xlink:href="#SimHei-5f" x="50"/>
      <use xlink:href="#SimHei-30" x="100"/>
      <use xlink:href="#SimHei-30" x="150"/>
      <use xlink:href="#SimHei-32" x="200"/>
      <use xlink:href="#SimHei-33" x="250"/>
      <use xlink:href="#SimHei-37" x="300"/>
      <use xlink:href="#SimHei-31" x="350"/>
      <use xlink:href="#SimHei-2e" x="400"/>
      <use xlink:href="#SimHei-53" x="450"/>
      <use xlink:href="#SimHei-5a" x="500"/>
     </g>
    </g>
    <g id="line2d_32">
     <path d="M 459.885478 46.41875 
L 469.885478 46.41875 
L 479.885478 46.41875 
" style="fill: none; stroke: #2ca02c; stroke-width: 1.5; stroke-linecap: square"/>
    </g>
    <g id="text_21">
     <!-- w_600009.SH -->
     <g transform="translate(487.885478 49.91875) scale(0.1 -0.1)">
      <defs>
       <path id="SimHei-48" d="M 2850 125 
L 2275 125 
L 2275 2125 
L 850 2125 
L 850 125 
L 275 125 
L 275 4400 
L 850 4400 
L 850 2600 
L 2275 2600 
L 2275 4400 
L 2850 4400 
L 2850 125 
z
" transform="scale(0.015625)"/>
      </defs>
      <use xlink:href="#SimHei-77"/>
      <use xlink:href="#SimHei-5f" x="50"/>
      <use xlink:href="#SimHei-36" x="100"/>
      <use xlink:href="#SimHei-30" x="150"/>
      <use xlink:href="#SimHei-30" x="200"/>
      <use xlink:href="#SimHei-30" x="250"/>
      <use xlink:href="#SimHei-30" x="300"/>
      <use xlink:href="#SimHei-39" x="350"/>
      <use xlink:href="#SimHei-2e" x="400"/>
      <use xlink:href="#SimHei-53" x="450"/>
      <use xlink:href="#SimHei-48" x="500"/>
     </g>
    </g>
    <g id="line2d_33">
     <path d="M 459.885478 59.778125 
L 469.885478 59.778125 
L 479.885478 59.778125 
" style="fill: none; stroke: #d62728; stroke-width: 1.5; stroke-linecap: square"/>
    </g>
    <g id="text_22">
     <!-- w_600029.SH -->
     <g transform="translate(487.885478 63.278125) scale(0.1 -0.1)">
      <use xlink:href="#SimHei-77"/>
      <use xlink:href="#SimHei-5f" x="50"/>
      <use xlink:href="#SimHei-36" x="100"/>
      <use xlink:href="#SimHei-30" x="150"/>
      <use xlink:href="#SimHei-30" x="200"/>
      <use xlink:href="#SimHei-30" x="250"/>
      <use xlink:href="#SimHei-32" x="300"/>
      <use xlink:href="#SimHei-39" x="350"/>
      <use xlink:href="#SimHei-2e" x="400"/>
      <use xlink:href="#SimHei-53" x="450"/>
      <use xlink:href="#SimHei-48" x="500"/>
     </g>
    </g>
    <g id="line2d_34">
     <path d="M 459.885478 73.1375 
L 469.885478 73.1375 
L 479.885478 73.1375 
" style="fill: none; stroke: #9467bd; stroke-width: 1.5; stroke-linecap: square"/>
    </g>
    <g id="text_23">
     <!-- w_600183.SH -->
     <g transform="translate(487.885478 76.6375) scale(0.1 -0.1)">
      <use xlink:href="#SimHei-77"/>
      <use xlink:href="#SimHei-5f" x="50"/>
      <use xlink:href="#SimHei-36" x="100"/>
      <use xlink:href="#SimHei-30" x="150"/>
      <use xlink:href="#SimHei-30" x="200"/>
      <use xlink:href="#SimHei-31" x="250"/>
      <use xlink:href="#SimHei-38" x="300"/>
      <use xlink:href="#SimHei-33" x="350"/>
      <use xlink:href="#SimHei-2e" x="400"/>
      <use xlink:href="#SimHei-53" x="450"/>
      <use xlink:href="#SimHei-48" x="500"/>
     </g>
    </g>
    <g id="line2d_35">
     <path d="M 459.885478 86.465625 
L 469.885478 86.465625 
L 479.885478 86.465625 
" style="fill: none; stroke: #8c564b; stroke-width: 1.5; stroke-linecap: square"/>
    </g>
    <g id="text_24">
     <!-- w_600406.SH -->
     <g transform="translate(487.885478 89.965625) scale(0.1 -0.1)">
      <use xlink:href="#SimHei-77"/>
      <use xlink:href="#SimHei-5f" x="50"/>
      <use xlink:href="#SimHei-36" x="100"/>
      <use xlink:href="#SimHei-30" x="150"/>
      <use xlink:href="#SimHei-30" x="200"/>
      <use xlink:href="#SimHei-34" x="250"/>
      <use xlink:href="#SimHei-30" x="300"/>
      <use xlink:href="#SimHei-36" x="350"/>
      <use xlink:href="#SimHei-2e" x="400"/>
      <use xlink:href="#SimHei-53" x="450"/>
      <use xlink:href="#SimHei-48" x="500"/>
     </g>
    </g>
    <g id="line2d_36">
     <path d="M 459.885478 99.79375 
L 469.885478 99.79375 
L 479.885478 99.79375 
" style="fill: none; stroke: #e377c2; stroke-width: 1.5; stroke-linecap: square"/>
    </g>
    <g id="text_25">
     <!-- w_600900.SH -->
     <g transform="translate(487.885478 103.29375) scale(0.1 -0.1)">
      <use xlink:href="#SimHei-77"/>
      <use xlink:href="#SimHei-5f" x="50"/>
      <use xlink:href="#SimHei-36" x="100"/>
      <use xlink:href="#SimHei-30" x="150"/>
      <use xlink:href="#SimHei-30" x="200"/>
      <use xlink:href="#SimHei-39" x="250"/>
      <use xlink:href="#SimHei-30" x="300"/>
      <use xlink:href="#SimHei-30" x="350"/>
      <use xlink:href="#SimHei-2e" x="400"/>
      <use xlink:href="#SimHei-53" x="450"/>
      <use xlink:href="#SimHei-48" x="500"/>
     </g>
    </g>
    <g id="line2d_37">
     <path d="M 459.885478 113.121875 
L 469.885478 113.121875 
L 479.885478 113.121875 
" style="fill: none; stroke: #7f7f7f; stroke-width: 1.5; stroke-linecap: square"/>
    </g>
    <g id="text_26">
     <!-- w_601989.SH -->
     <g transform="translate(487.885478 116.621875) scale(0.1 -0.1)">
      <use xlink:href="#SimHei-77"/>
      <use xlink:href="#SimHei-5f" x="50"/>
      <use xlink:href="#SimHei-36" x="100"/>
      <use xlink:href="#SimHei-30" x="150"/>
      <use xlink:href="#SimHei-31" x="200"/>
      <use xlink:href="#SimHei-39" x="250"/>
      <use xlink:href="#SimHei-38" x="300"/>
      <use xlink:href="#SimHei-39" x="350"/>
      <use xlink:href="#SimHei-2e" x="400"/>
      <use xlink:href="#SimHei-53" x="450"/>
      <use xlink:href="#SimHei-48" x="500"/>
     </g>
    </g>
    <g id="line2d_38">
     <path d="M 459.885478 126.45 
L 469.885478 126.45 
L 479.885478 126.45 
" style="fill: none; stroke: #bcbd22; stroke-width: 1.5; stroke-linecap: square"/>
    </g>
    <g id="text_27">
     <!-- w_601998.SH -->
     <g transform="translate(487.885478 129.95) scale(0.1 -0.1)">
      <use xlink:href="#SimHei-77"/>
      <use xlink:href="#SimHei-5f" x="50"/>
      <use xlink:href="#SimHei-36" x="100"/>
      <use xlink:href="#SimHei-30" x="150"/>
      <use xlink:href="#SimHei-31" x="200"/>
      <use xlink:href="#SimHei-39" x="250"/>
      <use xlink:href="#SimHei-39" x="300"/>
      <use xlink:href="#SimHei-38" x="350"/>
      <use xlink:href="#SimHei-2e" x="400"/>
      <use xlink:href="#SimHei-53" x="450"/>
      <use xlink:href="#SimHei-48" x="500"/>
     </g>
    </g>
    <g id="line2d_39">
     <path d="M 459.885478 139.778125 
L 469.885478 139.778125 
L 479.885478 139.778125 
" style="fill: none; stroke: #17becf; stroke-width: 1.5; stroke-linecap: square"/>
    </g>
    <g id="text_28">
     <!-- w_CASH -->
     <g transform="translate(487.885478 143.278125) scale(0.1 -0.1)">
      <defs>
       <path id="SimHei-43" d="M 2975 1825 
Q 2950 875 2575 475 
Q 2200 75 1675 75 
Q 1075 75 650 562 
Q 225 1050 225 2125 
Q 225 3300 637 3875 
Q 1050 4450 1700 4450 
Q 2250 4450 2612 4037 
Q 2975 3625 2950 2875 
L 2400 2875 
Q 2400 3425 2225 3700 
Q 2050 3975 1700 3975 
Q 1300 3975 1062 3562 
Q 825 3150 825 2175 
Q 825 1275 1062 912 
Q 1300 550 1675 550 
Q 1950 550 2175 812 
Q 2400 1075 2400 1825 
L 2975 1825 
z
" transform="scale(0.015625)"/>
       <path id="SimHei-41" d="M 3075 125 
L 2475 125 
L 2125 1450 
L 1025 1450 
L 675 125 
L 75 125 
L 1325 4450 
L 1825 4450 
L 3075 125 
z
M 2000 1925 
L 1600 3450 
L 1550 3450 
L 1150 1925 
L 2000 1925 
z
" transform="scale(0.015625)"/>
      </defs>
      <use xlink:href="#SimHei-77"/>
      <use xlink:href="#SimHei-5f" x="50"/>
      <use xlink:href="#SimHei-43" x="100"/>
      <use xlink:href="#SimHei-41" x="150"/>
      <use xlink:href="#SimHei-53" x="200"/>
      <use xlink:href="#SimHei-48" x="250"/>
     </g>
    </g>
   </g>
  </g>
  <g id="axes_3">
   <g id="patch_13">
    <path d="M 597.838419 162.432 
L 827.603125 162.432 
L 827.603125 7.2 
L 597.838419 7.2 
z
" style="fill: #ffffff"/>
   </g>
   <g id="matplotlib.axis_5">
    <g id="xtick_7">
     <g id="line2d_40">
      <g>
       <use xlink:href="#m3f9a9ea487" x="654.107327" y="162.432" style="stroke: #000000; stroke-width: 0.8"/>
      </g>
     </g>
     <g id="text_29">
      <!-- 2023-09-20 -->
      <g transform="translate(629.107327 176.307) scale(0.1 -0.1)">
       <use xlink:href="#SimHei-32"/>
       <use xlink:href="#SimHei-30" x="50"/>
       <use xlink:href="#SimHei-32" x="100"/>
       <use xlink:href="#SimHei-33" x="150"/>
       <use xlink:href="#SimHei-2d" x="200"/>
       <use xlink:href="#SimHei-30" x="250"/>
       <use xlink:href="#SimHei-39" x="300"/>
       <use xlink:href="#SimHei-2d" x="350"/>
       <use xlink:href="#SimHei-32" x="400"/>
       <use xlink:href="#SimHei-30" x="450"/>
      </g>
     </g>
    </g>
    <g id="xtick_8">
     <g id="line2d_41">
      <g>
       <use xlink:href="#m3f9a9ea487" x="718.049267" y="162.432" style="stroke: #000000; stroke-width: 0.8"/>
      </g>
     </g>
     <g id="text_30">
      <!-- 2023-11-19 -->
      <g transform="translate(693.049267 176.307) scale(0.1 -0.1)">
       <use xlink:href="#SimHei-32"/>
       <use xlink:href="#SimHei-30" x="50"/>
       <use xlink:href="#SimHei-32" x="100"/>
       <use xlink:href="#SimHei-33" x="150"/>
       <use xlink:href="#SimHei-2d" x="200"/>
       <use xlink:href="#SimHei-31" x="250"/>
       <use xlink:href="#SimHei-31" x="300"/>
       <use xlink:href="#SimHei-2d" x="350"/>
       <use xlink:href="#SimHei-31" x="400"/>
       <use xlink:href="#SimHei-39" x="450"/>
      </g>
     </g>
    </g>
    <g id="xtick_9">
     <g id="line2d_42">
      <g>
       <use xlink:href="#m3f9a9ea487" x="781.991208" y="162.432" style="stroke: #000000; stroke-width: 0.8"/>
      </g>
     </g>
     <g id="text_31">
      <!-- 2024-01-18 -->
      <g transform="translate(756.991208 176.307) scale(0.1 -0.1)">
       <use xlink:href="#SimHei-32"/>
       <use xlink:href="#SimHei-30" x="50"/>
       <use xlink:href="#SimHei-32" x="100"/>
       <use xlink:href="#SimHei-34" x="150"/>
       <use xlink:href="#SimHei-2d" x="200"/>
       <use xlink:href="#SimHei-30" x="250"/>
       <use xlink:href="#SimHei-31" x="300"/>
       <use xlink:href="#SimHei-2d" x="350"/>
       <use xlink:href="#SimHei-31" x="400"/>
       <use xlink:href="#SimHei-38" x="450"/>
      </g>
     </g>
    </g>
   </g>
   <g id="matplotlib.axis_6">
    <g id="ytick_12">
     <g id="line2d_43">
      <g>
       <use xlink:href="#m951dfdbd45" x="597.838419" y="155.376" style="stroke: #000000; stroke-width: 0.8"/>
      </g>
     </g>
     <g id="text_32">
      <!-- 0.0000 -->
      <g transform="translate(560.838419 158.8135) scale(0.1 -0.1)">
       <use xlink:href="#SimHei-30"/>
       <use xlink:href="#SimHei-2e" x="50"/>
       <use xlink:href="#SimHei-30" x="100"/>
       <use xlink:href="#SimHei-30" x="150"/>
       <use xlink:href="#SimHei-30" x="200"/>
       <use xlink:href="#SimHei-30" x="250"/>
      </g>
     </g>
    </g>
    <g id="ytick_13">
     <g id="line2d_44">
      <g>
       <use xlink:href="#m951dfdbd45" x="597.838419" y="127.152" style="stroke: #000000; stroke-width: 0.8"/>
      </g>
     </g>
     <g id="text_33">
      <!-- 0.0005 -->
      <g transform="translate(560.838419 130.5895) scale(0.1 -0.1)">
       <defs>
        <path id="SimHei-35" d="M 550 1325 
Q 725 650 1150 575 
Q 1575 500 1837 662 
Q 2100 825 2212 1087 
Q 2325 1350 2312 1675 
Q 2300 2000 2137 2225 
Q 1975 2450 1725 2525 
Q 1475 2600 1162 2525 
Q 850 2450 650 2175 
L 225 2225 
Q 275 2375 700 4375 
L 2675 4375 
L 2675 3925 
L 1075 3925 
Q 950 3250 825 2850 
Q 1200 3025 1525 3012 
Q 1850 3000 2150 2862 
Q 2450 2725 2587 2487 
Q 2725 2250 2787 2012 
Q 2850 1775 2837 1500 
Q 2825 1225 2725 937 
Q 2625 650 2425 462 
Q 2225 275 1937 162 
Q 1650 50 1275 75 
Q 900 100 562 350 
Q 225 600 100 1200 
L 550 1325 
z
" transform="scale(0.015625)"/>
       </defs>
       <use xlink:href="#SimHei-30"/>
       <use xlink:href="#SimHei-2e" x="50"/>
       <use xlink:href="#SimHei-30" x="100"/>
       <use xlink:href="#SimHei-30" x="150"/>
       <use xlink:href="#SimHei-30" x="200"/>
       <use xlink:href="#SimHei-35" x="250"/>
      </g>
     </g>
    </g>
    <g id="ytick_14">
     <g id="line2d_45">
      <g>
       <use xlink:href="#m951dfdbd45" x="597.838419" y="98.928" style="stroke: #000000; stroke-width: 0.8"/>
      </g>
     </g>
     <g id="text_34">
      <!-- 0.0010 -->
      <g transform="translate(560.838419 102.3655) scale(0.1 -0.1)">
       <use xlink:href="#SimHei-30"/>
       <use xlink:href="#SimHei-2e" x="50"/>
       <use xlink:href="#SimHei-30" x="100"/>
       <use xlink:href="#SimHei-30" x="150"/>
       <use xlink:href="#SimHei-31" x="200"/>
       <use xlink:href="#SimHei-30" x="250"/>
      </g>
     </g>
    </g>
    <g id="ytick_15">
     <g id="line2d_46">
      <g>
       <use xlink:href="#m951dfdbd45" x="597.838419" y="70.704" style="stroke: #000000; stroke-width: 0.8"/>
      </g>
     </g>
     <g id="text_35">
      <!-- 0.0015 -->
      <g transform="translate(560.838419 74.1415) scale(0.1 -0.1)">
       <use xlink:href="#SimHei-30"/>
       <use xlink:href="#SimHei-2e" x="50"/>
       <use xlink:href="#SimHei-30" x="100"/>
       <use xlink:href="#SimHei-30" x="150"/>
       <use xlink:href="#SimHei-31" x="200"/>
       <use xlink:href="#SimHei-35" x="250"/>
      </g>
     </g>
    </g>
    <g id="ytick_16">
     <g id="line2d_47">
      <g>
       <use xlink:href="#m951dfdbd45" x="597.838419" y="42.48" style="stroke: #000000; stroke-width: 0.8"/>
      </g>
     </g>
     <g id="text_36">
      <!-- 0.0020 -->
      <g transform="translate(560.838419 45.9175) scale(0.1 -0.1)">
       <use xlink:href="#SimHei-30"/>
       <use xlink:href="#SimHei-2e" x="50"/>
       <use xlink:href="#SimHei-30" x="100"/>
       <use xlink:href="#SimHei-30" x="150"/>
       <use xlink:href="#SimHei-32" x="200"/>
       <use xlink:href="#SimHei-30" x="250"/>
      </g>
     </g>
    </g>
    <g id="ytick_17">
     <g id="line2d_48">
      <g>
       <use xlink:href="#m951dfdbd45" x="597.838419" y="14.256" style="stroke: #000000; stroke-width: 0.8"/>
      </g>
     </g>
     <g id="text_37">
      <!-- 0.0025 -->
      <g transform="translate(560.838419 17.6935) scale(0.1 -0.1)">
       <use xlink:href="#SimHei-30"/>
       <use xlink:href="#SimHei-2e" x="50"/>
       <use xlink:href="#SimHei-30" x="100"/>
       <use xlink:href="#SimHei-30" x="150"/>
       <use xlink:href="#SimHei-32" x="200"/>
       <use xlink:href="#SimHei-35" x="250"/>
      </g>
     </g>
    </g>
   </g>
   <g id="line2d_49">
    <path d="M 608.282269 14.256 
L 609.347968 134.102369 
L 610.413667 147.678257 
L 611.479366 145.7382 
L 614.676463 143.0344 
L 615.742162 119.423267 
L 616.807861 148.480745 
L 617.87356 129.004933 
L 618.939259 134.401874 
L 622.136356 143.250629 
L 623.202055 145.551636 
L 624.267754 151.35324 
L 625.333453 151.727735 
L 626.399153 150.091818 
L 629.59625 152.151412 
L 630.661949 153.558566 
L 631.727648 152.444691 
L 633.859046 146.733888 
L 637.056143 153.954107 
L 638.121842 153.792002 
L 639.187541 155.219653 
L 640.25324 154.242952 
L 641.318939 151.69646 
L 644.516036 138.050416 
L 645.581735 145.000744 
L 646.647434 145.637628 
L 647.713133 152.67769 
L 648.778832 140.974012 
L 651.975929 147.820342 
L 653.041628 139.298592 
L 654.107327 140.818259 
L 655.173026 152.240789 
L 656.238725 144.364727 
L 659.435822 152.551125 
L 660.501521 145.467735 
L 661.56722 150.643135 
L 662.632919 149.452295 
L 674.355608 149.277524 
L 675.421307 145.232617 
L 676.487006 88.985339 
L 677.552705 125.643402 
L 678.618404 148.981096 
L 681.815501 145.617937 
L 682.8812 110.651068 
L 683.946899 111.383257 
L 685.012598 148.430823 
L 686.078297 135.88235 
L 689.275394 142.797784 
L 690.341093 143.372129 
L 691.406792 141.531788 
L 692.472491 142.763423 
L 693.53819 120.879959 
L 696.735287 149.683211 
L 697.800986 149.326791 
L 698.866685 140.517146 
L 700.998083 151.614475 
L 704.19518 148.570753 
L 705.260879 145.167903 
L 706.326578 130.712279 
L 707.392277 131.756191 
L 708.457976 143.115624 
L 711.655073 133.755846 
L 712.720772 96.596268 
L 713.786471 104.152 
L 714.85217 149.128347 
L 715.917869 108.567799 
L 719.114966 91.729844 
L 720.180665 112.894735 
L 721.246364 141.101069 
L 722.312063 138.982987 
L 723.377762 137.997885 
L 726.574859 107.828213 
L 727.640558 103.712425 
L 728.706257 94.249336 
L 729.771956 39.81163 
L 730.837655 150.465522 
L 734.034752 140.042595 
L 735.100451 43.198205 
L 736.16615 140.402431 
L 737.231849 140.577311 
L 738.297548 91.153076 
L 741.494645 146.488118 
L 742.560344 110.606763 
L 743.626043 117.704521 
L 744.691742 44.035524 
L 745.757441 135.17437 
L 748.954538 142.957383 
L 750.020237 122.49771 
L 751.085936 86.578925 
L 752.151635 131.268845 
L 753.217334 119.565405 
L 756.414431 132.872121 
L 757.48013 146.907154 
L 758.545829 113.717303 
L 759.611528 150.124852 
L 760.677227 148.709274 
L 764.940023 150.925762 
L 766.005722 121.152725 
L 768.13712 151.666273 
L 771.334217 151.820962 
L 772.399916 152.996653 
L 773.465615 153.825822 
L 774.531314 147.274614 
L 775.597013 151.665907 
L 778.79411 132.83511 
L 779.859809 154.547167 
L 780.925508 137.587198 
L 781.991208 144.055567 
L 783.056907 148.292537 
L 786.254004 143.832843 
L 787.319703 151.416233 
L 788.385402 140.865092 
L 789.451101 151.867307 
L 790.5168 143.486278 
L 793.713897 141.446763 
L 794.779596 153.776048 
L 795.845295 148.125885 
L 796.910994 144.435228 
L 797.976693 136.800868 
L 801.17379 148.356036 
L 802.239489 145.47282 
L 803.305188 135.249693 
L 804.370887 154.796376 
L 816.093576 138.748914 
L 817.159275 155.376 
L 817.159275 155.376 
" clip-path="url(#p4e2c0792fc)" style="fill: none; stroke: #1f77b4; stroke-width: 1.5; stroke-linecap: square"/>
   </g>
   <g id="patch_14">
    <path d="M 597.838419 162.432 
L 597.838419 7.2 
" style="fill: none; stroke: #000000; stroke-width: 0.8; stroke-linejoin: miter; stroke-linecap: square"/>
   </g>
   <g id="patch_15">
    <path d="M 827.603125 162.432 
L 827.603125 7.2 
" style="fill: none; stroke: #000000; stroke-width: 0.8; stroke-linejoin: miter; stroke-linecap: square"/>
   </g>
   <g id="patch_16">
    <path d="M 597.838419 162.432 
L 827.603125 162.432 
" style="fill: none; stroke: #000000; stroke-width: 0.8; stroke-linejoin: miter; stroke-linecap: square"/>
   </g>
   <g id="patch_17">
    <path d="M 597.838419 7.2 
L 827.603125 7.2 
" style="fill: none; stroke: #000000; stroke-width: 0.8; stroke-linejoin: miter; stroke-linecap: square"/>
   </g>
  </g>
 </g>
 <defs>
  <clipPath id="p429225e5a8">
   <rect x="46.403125" y="7.2" width="229.764706" height="155.232"/>
  </clipPath>
  <clipPath id="p6526097207">
   <rect x="322.120772" y="7.2" width="229.764706" height="155.232"/>
  </clipPath>
  <clipPath id="p4e2c0792fc">
   <rect x="597.838419" y="7.2" width="229.764706" height="155.232"/>
  </clipPath>
 </defs>
</svg>
