<?xml version="1.0" encoding="utf-8" standalone="no"?>
<!DOCTYPE svg PUBLIC "-//W3C//DTD SVG 1.1//EN"
  "http://www.w3.org/Graphics/SVG/1.1/DTD/svg11.dtd">
<svg xmlns:xlink="http://www.w3.org/1999/xlink" width="834.725pt" height="184.757pt" viewBox="0 0 834.725 184.757" xmlns="http://www.w3.org/2000/svg" version="1.1">
 <metadata>
  <rdf:RDF xmlns:dc="http://purl.org/dc/elements/1.1/" xmlns:cc="http://creativecommons.org/ns#" xmlns:rdf="http://www.w3.org/1999/02/22-rdf-syntax-ns#">
   <cc:Work>
    <dc:type rdf:resource="http://purl.org/dc/dcmitype/StillImage"/>
    <dc:date>2024-12-25T17:32:58.647070</dc:date>
    <dc:format>image/svg+xml</dc:format>
    <dc:creator>
     <cc:Agent>
      <dc:title>Matplotlib v3.9.3, https://matplotlib.org/</dc:title>
     </cc:Agent>
    </dc:creator>
   </cc:Work>
  </rdf:RDF>
 </metadata>
 <defs>
  <style type="text/css">*{stroke-linejoin: round; stroke-linecap: butt}</style>
 </defs>
 <g id="figure_1">
  <g id="patch_1">
   <path d="M 0 184.757 
L 834.725 184.757 
L 834.725 0 
L 0 0 
z
" style="fill: #ffffff"/>
  </g>
  <g id="axes_1">
   <g id="patch_2">
    <path d="M 46.325 162.432 
L 276.089706 162.432 
L 276.089706 7.2 
L 46.325 7.2 
z
" style="fill: #ffffff"/>
   </g>
   <g id="matplotlib.axis_1">
    <g id="xtick_1">
     <g id="line2d_1">
      <defs>
       <path id="m05bb1d4c23" d="M 0 0 
L 0 3.5 
" style="stroke: #000000; stroke-width: 0.8"/>
      </defs>
      <g>
       <use xlink:href="#m05bb1d4c23" x="102.593908" y="162.432" style="stroke: #000000; stroke-width: 0.8"/>
      </g>
     </g>
     <g id="text_1">
      <!-- 2023-09-20 -->
      <g transform="translate(77.593908 176.307) scale(0.1 -0.1)">
       <defs>
        <path id="SimHei-32" d="M 300 250 
Q 325 625 650 925 
Q 975 1225 1475 1862 
Q 1975 2500 2125 2850 
Q 2275 3200 2237 3450 
Q 2200 3700 2000 3862 
Q 1800 4025 1537 4000 
Q 1275 3975 1037 3800 
Q 800 3625 675 3275 
L 200 3350 
Q 400 3925 712 4187 
Q 1025 4450 1450 4475 
Q 1700 4500 1900 4462 
Q 2100 4425 2312 4287 
Q 2525 4150 2662 3875 
Q 2800 3600 2762 3212 
Q 2725 2825 2375 2287 
Q 2025 1750 1025 600 
L 2825 600 
L 2825 150 
L 300 150 
L 300 250 
z
" transform="scale(0.015625)"/>
        <path id="SimHei-30" d="M 225 2537 
Q 250 3200 412 3587 
Q 575 3975 875 4225 
Q 1175 4475 1612 4475 
Q 2050 4475 2375 4112 
Q 2700 3750 2800 3200 
Q 2900 2650 2862 1937 
Q 2825 1225 2612 775 
Q 2400 325 1975 150 
Q 1550 -25 1125 187 
Q 700 400 525 750 
Q 350 1100 275 1487 
Q 200 1875 225 2537 
z
M 750 2687 
Q 675 2000 800 1462 
Q 925 925 1212 700 
Q 1500 475 1800 612 
Q 2100 750 2237 1162 
Q 2375 1575 2375 2062 
Q 2375 2550 2337 2950 
Q 2300 3350 2112 3675 
Q 1925 4000 1612 4012 
Q 1300 4025 1062 3700 
Q 825 3375 750 2687 
z
" transform="scale(0.015625)"/>
        <path id="SimHei-33" d="M 250 1225 
L 700 1300 
Q 800 975 1025 762 
Q 1250 550 1587 562 
Q 1925 575 2125 837 
Q 2325 1100 2300 1437 
Q 2275 1775 2037 1962 
Q 1800 2150 1275 2225 
L 1275 2550 
Q 1800 2600 2037 2825 
Q 2275 3050 2250 3412 
Q 2225 3775 1925 3937 
Q 1625 4100 1287 3975 
Q 950 3850 750 3275 
L 300 3350 
Q 450 3800 712 4100 
Q 975 4400 1425 4450 
Q 1875 4500 2212 4337 
Q 2550 4175 2687 3837 
Q 2825 3500 2725 3100 
Q 2625 2700 2150 2400 
Q 2500 2250 2687 1950 
Q 2875 1650 2812 1162 
Q 2750 675 2375 375 
Q 2000 75 1525 87 
Q 1050 100 700 387 
Q 350 675 250 1225 
z
" transform="scale(0.015625)"/>
        <path id="SimHei-2d" d="M 2975 2125 
L 125 2125 
L 125 2525 
L 2975 2525 
L 2975 2125 
z
" transform="scale(0.015625)"/>
        <path id="SimHei-39" d="M 800 75 
Q 1350 1000 1700 1750 
Q 1075 1650 662 1912 
Q 250 2175 162 2625 
Q 75 3075 175 3437 
Q 275 3800 487 4037 
Q 700 4275 1000 4375 
Q 1300 4475 1537 4475 
Q 1775 4475 2025 4375 
Q 2275 4275 2475 4075 
Q 2675 3875 2750 3662 
Q 2825 3450 2825 3112 
Q 2825 2775 2575 2250 
Q 2325 1725 1350 75 
L 800 75 
z
M 662 2875 
Q 700 2550 937 2337 
Q 1175 2125 1450 2150 
Q 1725 2175 1887 2300 
Q 2050 2425 2200 2725 
Q 2300 3100 2250 3362 
Q 2200 3625 1987 3800 
Q 1775 3975 1525 3975 
Q 1375 4000 1137 3900 
Q 900 3800 762 3500 
Q 625 3200 662 2875 
z
" transform="scale(0.015625)"/>
       </defs>
       <use xlink:href="#SimHei-32"/>
       <use xlink:href="#SimHei-30" x="50"/>
       <use xlink:href="#SimHei-32" x="100"/>
       <use xlink:href="#SimHei-33" x="150"/>
       <use xlink:href="#SimHei-2d" x="200"/>
       <use xlink:href="#SimHei-30" x="250"/>
       <use xlink:href="#SimHei-39" x="300"/>
       <use xlink:href="#SimHei-2d" x="350"/>
       <use xlink:href="#SimHei-32" x="400"/>
       <use xlink:href="#SimHei-30" x="450"/>
      </g>
     </g>
    </g>
    <g id="xtick_2">
     <g id="line2d_2">
      <g>
       <use xlink:href="#m05bb1d4c23" x="166.535848" y="162.432" style="stroke: #000000; stroke-width: 0.8"/>
      </g>
     </g>
     <g id="text_2">
      <!-- 2023-11-19 -->
      <g transform="translate(141.535848 176.307) scale(0.1 -0.1)">
       <defs>
        <path id="SimHei-31" d="M 1400 3600 
Q 1075 3275 575 2975 
L 575 3450 
Q 1200 3875 1600 4450 
L 1900 4450 
L 1900 150 
L 1400 150 
L 1400 3600 
z
" transform="scale(0.015625)"/>
       </defs>
       <use xlink:href="#SimHei-32"/>
       <use xlink:href="#SimHei-30" x="50"/>
       <use xlink:href="#SimHei-32" x="100"/>
       <use xlink:href="#SimHei-33" x="150"/>
       <use xlink:href="#SimHei-2d" x="200"/>
       <use xlink:href="#SimHei-31" x="250"/>
       <use xlink:href="#SimHei-31" x="300"/>
       <use xlink:href="#SimHei-2d" x="350"/>
       <use xlink:href="#SimHei-31" x="400"/>
       <use xlink:href="#SimHei-39" x="450"/>
      </g>
     </g>
    </g>
    <g id="xtick_3">
     <g id="line2d_3">
      <g>
       <use xlink:href="#m05bb1d4c23" x="230.477788" y="162.432" style="stroke: #000000; stroke-width: 0.8"/>
      </g>
     </g>
     <g id="text_3">
      <!-- 2024-01-18 -->
      <g transform="translate(205.477788 176.307) scale(0.1 -0.1)">
       <defs>
        <path id="SimHei-34" d="M 2000 1100 
L 75 1100 
L 75 1525 
L 2100 4450 
L 2475 4450 
L 2475 1525 
L 3075 1525 
L 3075 1100 
L 2475 1100 
L 2475 150 
L 2000 150 
L 2000 1100 
z
M 2000 1525 
L 2000 3500 
L 600 1525 
L 2000 1525 
z
" transform="scale(0.015625)"/>
        <path id="SimHei-38" d="M 175 1375 
Q 175 1675 325 1962 
Q 475 2250 825 2425 
Q 525 2600 425 2812 
Q 325 3025 312 3300 
Q 300 3575 387 3775 
Q 475 3975 650 4150 
Q 825 4325 1037 4387 
Q 1250 4450 1500 4450 
Q 1750 4450 1950 4400 
Q 2150 4350 2375 4187 
Q 2600 4025 2700 3725 
Q 2800 3425 2687 3025 
Q 2575 2625 2100 2400 
Q 2525 2275 2700 2012 
Q 2875 1750 2875 1375 
Q 2875 1000 2762 775 
Q 2650 550 2512 400 
Q 2375 250 2137 162 
Q 1900 75 1537 75 
Q 1175 75 912 162 
Q 650 250 475 425 
Q 300 600 237 837 
Q 175 1075 175 1375 
z
M 687 1400 
Q 675 1100 787 875 
Q 900 650 1200 587 
Q 1500 525 1825 600 
Q 2150 675 2275 950 
Q 2400 1225 2362 1500 
Q 2325 1775 2050 1962 
Q 1775 2150 1450 2125 
Q 1125 2100 912 1900 
Q 700 1700 687 1400 
z
M 775 3350 
Q 775 3100 950 2875 
Q 1125 2650 1500 2650 
Q 1875 2650 2062 2875 
Q 2250 3100 2237 3412 
Q 2225 3725 2012 3875 
Q 1800 4025 1437 4000 
Q 1075 3975 925 3787 
Q 775 3600 775 3350 
z
" transform="scale(0.015625)"/>
       </defs>
       <use xlink:href="#SimHei-32"/>
       <use xlink:href="#SimHei-30" x="50"/>
       <use xlink:href="#SimHei-32" x="100"/>
       <use xlink:href="#SimHei-34" x="150"/>
       <use xlink:href="#SimHei-2d" x="200"/>
       <use xlink:href="#SimHei-30" x="250"/>
       <use xlink:href="#SimHei-31" x="300"/>
       <use xlink:href="#SimHei-2d" x="350"/>
       <use xlink:href="#SimHei-31" x="400"/>
       <use xlink:href="#SimHei-38" x="450"/>
      </g>
     </g>
    </g>
   </g>
   <g id="matplotlib.axis_2">
    <g id="ytick_1">
     <g id="line2d_4">
      <defs>
       <path id="md269b38f85" d="M 0 0 
L -3.5 0 
" style="stroke: #000000; stroke-width: 0.8"/>
      </defs>
      <g>
       <use xlink:href="#md269b38f85" x="46.325" y="153.156806" style="stroke: #000000; stroke-width: 0.8"/>
      </g>
     </g>
     <g id="text_4">
      <!-- 0.92 -->
      <g transform="translate(19.325 156.594306) scale(0.1 -0.1)">
       <defs>
        <path id="SimHei-2e" d="M 1075 125 
L 500 125 
L 500 675 
L 1075 675 
L 1075 125 
z
" transform="scale(0.015625)"/>
       </defs>
       <use xlink:href="#SimHei-30"/>
       <use xlink:href="#SimHei-2e" x="50"/>
       <use xlink:href="#SimHei-39" x="100"/>
       <use xlink:href="#SimHei-32" x="150"/>
      </g>
     </g>
    </g>
    <g id="ytick_2">
     <g id="line2d_5">
      <g>
       <use xlink:href="#md269b38f85" x="46.325" y="124.800565" style="stroke: #000000; stroke-width: 0.8"/>
      </g>
     </g>
     <g id="text_5">
      <!-- 0.94 -->
      <g transform="translate(19.325 128.238065) scale(0.1 -0.1)">
       <use xlink:href="#SimHei-30"/>
       <use xlink:href="#SimHei-2e" x="50"/>
       <use xlink:href="#SimHei-39" x="100"/>
       <use xlink:href="#SimHei-34" x="150"/>
      </g>
     </g>
    </g>
    <g id="ytick_3">
     <g id="line2d_6">
      <g>
       <use xlink:href="#md269b38f85" x="46.325" y="96.444325" style="stroke: #000000; stroke-width: 0.8"/>
      </g>
     </g>
     <g id="text_6">
      <!-- 0.96 -->
      <g transform="translate(19.325 99.881825) scale(0.1 -0.1)">
       <defs>
        <path id="SimHei-36" d="M 250 1612 
Q 275 1975 387 2225 
Q 500 2475 725 2850 
L 1750 4450 
L 2325 4450 
L 1275 2800 
Q 1950 2975 2350 2750 
Q 2750 2525 2887 2237 
Q 3025 1950 3037 1612 
Q 3050 1275 2937 950 
Q 2825 625 2537 362 
Q 2250 100 1737 75 
Q 1225 50 862 262 
Q 500 475 362 862 
Q 225 1250 250 1612 
z
M 1025 787 
Q 1250 550 1625 525 
Q 2000 500 2250 775 
Q 2500 1050 2500 1575 
Q 2500 2100 2187 2300 
Q 1875 2500 1487 2450 
Q 1100 2400 925 2075 
Q 750 1750 775 1387 
Q 800 1025 1025 787 
z
" transform="scale(0.015625)"/>
       </defs>
       <use xlink:href="#SimHei-30"/>
       <use xlink:href="#SimHei-2e" x="50"/>
       <use xlink:href="#SimHei-39" x="100"/>
       <use xlink:href="#SimHei-36" x="150"/>
      </g>
     </g>
    </g>
    <g id="ytick_4">
     <g id="line2d_7">
      <g>
       <use xlink:href="#md269b38f85" x="46.325" y="68.088084" style="stroke: #000000; stroke-width: 0.8"/>
      </g>
     </g>
     <g id="text_7">
      <!-- 0.98 -->
      <g transform="translate(19.325 71.525584) scale(0.1 -0.1)">
       <use xlink:href="#SimHei-30"/>
       <use xlink:href="#SimHei-2e" x="50"/>
       <use xlink:href="#SimHei-39" x="100"/>
       <use xlink:href="#SimHei-38" x="150"/>
      </g>
     </g>
    </g>
    <g id="ytick_5">
     <g id="line2d_8">
      <g>
       <use xlink:href="#md269b38f85" x="46.325" y="39.731843" style="stroke: #000000; stroke-width: 0.8"/>
      </g>
     </g>
     <g id="text_8">
      <!-- 1.00 -->
      <g transform="translate(19.325 43.169343) scale(0.1 -0.1)">
       <use xlink:href="#SimHei-31"/>
       <use xlink:href="#SimHei-2e" x="50"/>
       <use xlink:href="#SimHei-30" x="100"/>
       <use xlink:href="#SimHei-30" x="150"/>
      </g>
     </g>
    </g>
    <g id="ytick_6">
     <g id="line2d_9">
      <g>
       <use xlink:href="#md269b38f85" x="46.325" y="11.375603" style="stroke: #000000; stroke-width: 0.8"/>
      </g>
     </g>
     <g id="text_9">
      <!-- 1.02 -->
      <g transform="translate(19.325 14.813103) scale(0.1 -0.1)">
       <use xlink:href="#SimHei-31"/>
       <use xlink:href="#SimHei-2e" x="50"/>
       <use xlink:href="#SimHei-30" x="100"/>
       <use xlink:href="#SimHei-32" x="150"/>
      </g>
     </g>
    </g>
    <g id="text_10">
     <!-- EVaR-MinRisk -->
     <g transform="translate(14.075 114.816) rotate(-90) scale(0.1 -0.1)">
      <defs>
       <path id="SimHei-45" d="M 2900 125 
L 350 125 
L 350 4400 
L 2775 4400 
L 2775 3925 
L 925 3925 
L 925 2600 
L 2625 2600 
L 2625 2125 
L 925 2125 
L 925 600 
L 2900 600 
L 2900 125 
z
" transform="scale(0.015625)"/>
       <path id="SimHei-56" d="M 3050 4400 
L 1800 75 
L 1300 75 
L 50 4400 
L 650 4400 
L 1525 1125 
L 1575 1125 
L 2450 4400 
L 3050 4400 
z
" transform="scale(0.015625)"/>
       <path id="SimHei-61" d="M 2875 125 
L 2275 125 
Q 2225 175 2200 262 
Q 2175 350 2175 475 
Q 2000 275 1750 175 
Q 1500 75 1225 75 
Q 825 75 550 275 
Q 275 475 275 850 
Q 275 1225 525 1450 
Q 775 1675 1300 1750 
Q 1650 1800 1912 1875 
Q 2175 1950 2175 2075 
Q 2175 2225 2062 2375 
Q 1950 2525 1575 2525 
Q 1275 2525 1137 2412 
Q 1000 2300 950 2100 
L 400 2100 
Q 450 2500 762 2737 
Q 1075 2975 1575 2975 
Q 2125 2975 2400 2725 
Q 2675 2475 2675 2025 
L 2675 650 
Q 2675 500 2725 375 
Q 2775 250 2875 125 
z
M 2175 1050 
L 2175 1550 
Q 2025 1500 1887 1462 
Q 1750 1425 1425 1375 
Q 1050 1325 937 1200 
Q 825 1075 825 900 
Q 825 750 937 637 
Q 1050 525 1275 525 
Q 1500 525 1762 650 
Q 2025 775 2175 1050 
z
" transform="scale(0.015625)"/>
       <path id="SimHei-52" d="M 3000 125 
L 2400 125 
L 1500 1975 
L 850 1975 
L 850 125 
L 275 125 
L 275 4400 
L 1525 4400 
Q 2125 4400 2500 4112 
Q 2875 3825 2875 3175 
Q 2875 2675 2625 2400 
Q 2375 2125 2050 2050 
L 3000 125 
z
M 2300 3175 
Q 2300 3525 2087 3725 
Q 1875 3925 1400 3925 
L 850 3925 
L 850 2450 
L 1550 2450 
Q 1850 2450 2075 2612 
Q 2300 2775 2300 3175 
z
" transform="scale(0.015625)"/>
       <path id="SimHei-4d" d="M 2925 125 
L 2425 125 
L 2425 3175 
L 2375 3175 
L 1775 125 
L 1375 125 
L 775 3175 
L 725 3175 
L 725 125 
L 225 125 
L 225 4400 
L 1000 4400 
L 1550 1575 
L 1600 1575 
L 2150 4400 
L 2925 4400 
L 2925 125 
z
" transform="scale(0.015625)"/>
       <path id="SimHei-69" d="M 1800 3725 
L 1300 3725 
L 1300 4375 
L 1800 4375 
L 1800 3725 
z
M 1800 125 
L 1300 125 
L 1300 2925 
L 1800 2925 
L 1800 125 
z
" transform="scale(0.015625)"/>
       <path id="SimHei-6e" d="M 2800 125 
L 2300 125 
L 2300 1925 
Q 2300 2225 2150 2400 
Q 2000 2575 1750 2575 
Q 1425 2575 1137 2237 
Q 850 1900 850 1400 
L 850 125 
L 350 125 
L 350 2925 
L 850 2925 
L 850 2400 
Q 1050 2675 1287 2825 
Q 1525 2975 1900 2975 
Q 2350 2975 2575 2725 
Q 2800 2475 2800 2100 
L 2800 125 
z
" transform="scale(0.015625)"/>
       <path id="SimHei-73" d="M 2750 900 
Q 2750 500 2437 287 
Q 2125 75 1650 75 
Q 1050 75 725 312 
Q 400 550 400 1000 
L 900 1000 
Q 900 700 1112 600 
Q 1325 500 1625 500 
Q 1925 500 2075 612 
Q 2225 725 2225 900 
Q 2225 1025 2100 1150 
Q 1975 1275 1475 1350 
Q 900 1425 687 1637 
Q 475 1850 475 2200 
Q 475 2500 762 2737 
Q 1050 2975 1600 2975 
Q 2100 2975 2387 2750 
Q 2675 2525 2675 2150 
L 2175 2150 
Q 2175 2375 2012 2462 
Q 1850 2550 1600 2550 
Q 1275 2550 1137 2437 
Q 1000 2325 1000 2175 
Q 1000 2000 1125 1900 
Q 1250 1800 1650 1750 
Q 2300 1650 2525 1437 
Q 2750 1225 2750 900 
z
" transform="scale(0.015625)"/>
       <path id="SimHei-6b" d="M 2925 125 
L 2350 125 
L 1450 1650 
L 875 1100 
L 875 125 
L 375 125 
L 375 4400 
L 875 4400 
L 875 1675 
L 2125 2925 
L 2750 2925 
L 1775 1975 
L 2925 125 
z
" transform="scale(0.015625)"/>
      </defs>
      <use xlink:href="#SimHei-45"/>
      <use xlink:href="#SimHei-56" x="50"/>
      <use xlink:href="#SimHei-61" x="100"/>
      <use xlink:href="#SimHei-52" x="150"/>
      <use xlink:href="#SimHei-2d" x="200"/>
      <use xlink:href="#SimHei-4d" x="250"/>
      <use xlink:href="#SimHei-69" x="300"/>
      <use xlink:href="#SimHei-6e" x="350"/>
      <use xlink:href="#SimHei-52" x="400"/>
      <use xlink:href="#SimHei-69" x="450"/>
      <use xlink:href="#SimHei-73" x="500"/>
      <use xlink:href="#SimHei-6b" x="550"/>
     </g>
    </g>
   </g>
   <g id="line2d_10">
    <path d="M 56.76885 43.276373 
L 57.834549 49.193774 
L 58.900248 44.721658 
L 59.965947 75.978862 
L 63.163044 82.896751 
L 64.228743 78.85372 
L 65.294442 93.654258 
L 66.360141 83.769808 
L 67.42584 99.092892 
L 70.622937 112.488838 
L 71.688636 100.207138 
L 72.754335 117.485823 
L 73.820034 114.342726 
L 74.885733 107.452978 
L 78.08283 103.284539 
L 79.148529 98.273762 
L 80.214228 90.669589 
L 81.279927 89.993965 
L 82.345626 97.526008 
L 85.542723 86.702661 
L 86.608422 87.756441 
L 87.674121 86.91183 
L 88.73982 107.537338 
L 89.805519 110.202117 
L 93.002617 97.747593 
L 94.068316 100.703213 
L 95.134015 106.436264 
L 96.199714 100.281222 
L 97.265413 108.49737 
L 100.46251 113.122054 
L 101.528209 116.545148 
L 102.593908 124.496273 
L 103.659607 133.834386 
L 104.725306 117.487654 
L 107.922403 119.090531 
L 108.988102 124.590432 
L 110.053801 132.923376 
L 111.1195 124.289731 
L 122.842189 103.832903 
L 123.907888 107.088458 
L 124.973587 109.938713 
L 126.039286 96.590312 
L 127.104985 105.212408 
L 130.302082 109.423853 
L 131.367781 99.743262 
L 132.43348 106.04212 
L 133.499179 125.298874 
L 134.564878 140.377952 
L 137.761975 155.376 
L 138.827674 133.915685 
L 139.893373 132.180297 
L 140.959072 116.859782 
L 142.024771 108.256126 
L 145.221868 98.968688 
L 146.287567 98.412336 
L 147.353266 94.898416 
L 148.418965 98.193997 
L 149.484664 92.424776 
L 152.681761 98.807204 
L 153.74746 101.419449 
L 154.813159 101.873683 
L 155.878858 98.978172 
L 156.944557 102.8482 
L 160.141654 106.777327 
L 161.207353 112.04505 
L 162.273052 102.964171 
L 163.338751 105.116759 
L 164.40445 110.776633 
L 167.601547 103.764365 
L 168.667246 105.295243 
L 169.732945 109.134452 
L 170.798644 109.280187 
L 171.864343 113.01708 
L 175.06144 116.361645 
L 176.127139 118.384057 
L 177.192838 125.058673 
L 178.258537 114.593376 
L 179.324236 125.279466 
L 182.521333 128.472463 
L 183.587032 145.481832 
L 184.652731 150.832241 
L 185.71843 149.750616 
L 186.784129 150.663726 
L 189.981226 140.875267 
L 191.046925 126.650767 
L 192.112624 133.018948 
L 193.178323 132.215948 
L 194.244022 143.517092 
L 197.441119 139.819901 
L 198.506818 133.420523 
L 199.572517 134.074865 
L 200.638216 129.167681 
L 201.703915 132.469865 
L 204.901012 123.83412 
L 205.966711 121.486757 
L 207.03241 122.779651 
L 208.098109 115.663324 
L 209.163808 106.713562 
L 213.426604 104.8178 
L 214.492303 97.795569 
L 215.558002 101.876572 
L 216.623701 106.767994 
L 219.820798 116.045823 
L 220.886497 120.169496 
L 221.952196 130.393759 
L 223.017895 132.19324 
L 224.083594 122.14653 
L 227.280691 121.015352 
L 228.34639 113.926229 
L 229.412089 132.110647 
L 230.477788 123.369658 
L 231.543487 120.660019 
L 234.740584 140.250455 
L 235.806283 138.886888 
L 236.871982 104.086288 
L 237.937681 88.867644 
L 239.00338 85.643318 
L 242.200477 82.311399 
L 243.266176 99.321389 
L 244.331875 97.528693 
L 245.397574 102.326807 
L 246.463273 100.956838 
L 249.660371 82.208116 
L 250.72607 63.359974 
L 251.791769 58.432235 
L 252.857468 56.962412 
L 264.580157 26.58741 
L 265.645856 14.256 
L 265.645856 14.256 
" clip-path="url(#p4122a75bbf)" style="fill: none; stroke: #1f77b4; stroke-width: 1.5; stroke-linecap: square"/>
   </g>
   <g id="patch_3">
    <path d="M 46.325 162.432 
L 46.325 7.2 
" style="fill: none; stroke: #000000; stroke-width: 0.8; stroke-linejoin: miter; stroke-linecap: square"/>
   </g>
   <g id="patch_4">
    <path d="M 276.089706 162.432 
L 276.089706 7.2 
" style="fill: none; stroke: #000000; stroke-width: 0.8; stroke-linejoin: miter; stroke-linecap: square"/>
   </g>
   <g id="patch_5">
    <path d="M 46.325 162.432 
L 276.089706 162.432 
" style="fill: none; stroke: #000000; stroke-width: 0.8; stroke-linejoin: miter; stroke-linecap: square"/>
   </g>
   <g id="patch_6">
    <path d="M 46.325 7.2 
L 276.089706 7.2 
" style="fill: none; stroke: #000000; stroke-width: 0.8; stroke-linejoin: miter; stroke-linecap: square"/>
   </g>
  </g>
  <g id="axes_2">
   <g id="patch_7">
    <path d="M 322.042647 162.432 
L 551.807353 162.432 
L 551.807353 7.2 
L 322.042647 7.2 
z
" style="fill: #ffffff"/>
   </g>
   <g id="matplotlib.axis_3">
    <g id="xtick_4">
     <g id="line2d_11">
      <g>
       <use xlink:href="#m05bb1d4c23" x="379.377254" y="162.432" style="stroke: #000000; stroke-width: 0.8"/>
      </g>
     </g>
     <g id="text_11">
      <!-- 2023-09-20 -->
      <g transform="translate(354.377254 176.307) scale(0.1 -0.1)">
       <use xlink:href="#SimHei-32"/>
       <use xlink:href="#SimHei-30" x="50"/>
       <use xlink:href="#SimHei-32" x="100"/>
       <use xlink:href="#SimHei-33" x="150"/>
       <use xlink:href="#SimHei-2d" x="200"/>
       <use xlink:href="#SimHei-30" x="250"/>
       <use xlink:href="#SimHei-39" x="300"/>
       <use xlink:href="#SimHei-2d" x="350"/>
       <use xlink:href="#SimHei-32" x="400"/>
       <use xlink:href="#SimHei-30" x="450"/>
      </g>
     </g>
    </g>
    <g id="xtick_5">
     <g id="line2d_12">
      <g>
       <use xlink:href="#m05bb1d4c23" x="443.319194" y="162.432" style="stroke: #000000; stroke-width: 0.8"/>
      </g>
     </g>
     <g id="text_12">
      <!-- 2023-11-19 -->
      <g transform="translate(418.319194 176.307) scale(0.1 -0.1)">
       <use xlink:href="#SimHei-32"/>
       <use xlink:href="#SimHei-30" x="50"/>
       <use xlink:href="#SimHei-32" x="100"/>
       <use xlink:href="#SimHei-33" x="150"/>
       <use xlink:href="#SimHei-2d" x="200"/>
       <use xlink:href="#SimHei-31" x="250"/>
       <use xlink:href="#SimHei-31" x="300"/>
       <use xlink:href="#SimHei-2d" x="350"/>
       <use xlink:href="#SimHei-31" x="400"/>
       <use xlink:href="#SimHei-39" x="450"/>
      </g>
     </g>
    </g>
    <g id="xtick_6">
     <g id="line2d_13">
      <g>
       <use xlink:href="#m05bb1d4c23" x="507.261134" y="162.432" style="stroke: #000000; stroke-width: 0.8"/>
      </g>
     </g>
     <g id="text_13">
      <!-- 2024-01-18 -->
      <g transform="translate(482.261134 176.307) scale(0.1 -0.1)">
       <use xlink:href="#SimHei-32"/>
       <use xlink:href="#SimHei-30" x="50"/>
       <use xlink:href="#SimHei-32" x="100"/>
       <use xlink:href="#SimHei-34" x="150"/>
       <use xlink:href="#SimHei-2d" x="200"/>
       <use xlink:href="#SimHei-30" x="250"/>
       <use xlink:href="#SimHei-31" x="300"/>
       <use xlink:href="#SimHei-2d" x="350"/>
       <use xlink:href="#SimHei-31" x="400"/>
       <use xlink:href="#SimHei-38" x="450"/>
      </g>
     </g>
    </g>
   </g>
   <g id="matplotlib.axis_4">
    <g id="ytick_7">
     <g id="line2d_14">
      <g>
       <use xlink:href="#md269b38f85" x="322.042647" y="155.376" style="stroke: #000000; stroke-width: 0.8"/>
      </g>
     </g>
     <g id="text_14">
      <!-- 0.0 -->
      <g transform="translate(300.042647 158.8135) scale(0.1 -0.1)">
       <use xlink:href="#SimHei-30"/>
       <use xlink:href="#SimHei-2e" x="50"/>
       <use xlink:href="#SimHei-30" x="100"/>
      </g>
     </g>
    </g>
    <g id="ytick_8">
     <g id="line2d_15">
      <g>
       <use xlink:href="#md269b38f85" x="322.042647" y="127.152" style="stroke: #000000; stroke-width: 0.8"/>
      </g>
     </g>
     <g id="text_15">
      <!-- 0.2 -->
      <g transform="translate(300.042647 130.5895) scale(0.1 -0.1)">
       <use xlink:href="#SimHei-30"/>
       <use xlink:href="#SimHei-2e" x="50"/>
       <use xlink:href="#SimHei-32" x="100"/>
      </g>
     </g>
    </g>
    <g id="ytick_9">
     <g id="line2d_16">
      <g>
       <use xlink:href="#md269b38f85" x="322.042647" y="98.928" style="stroke: #000000; stroke-width: 0.8"/>
      </g>
     </g>
     <g id="text_16">
      <!-- 0.4 -->
      <g transform="translate(300.042647 102.3655) scale(0.1 -0.1)">
       <use xlink:href="#SimHei-30"/>
       <use xlink:href="#SimHei-2e" x="50"/>
       <use xlink:href="#SimHei-34" x="100"/>
      </g>
     </g>
    </g>
    <g id="ytick_10">
     <g id="line2d_17">
      <g>
       <use xlink:href="#md269b38f85" x="322.042647" y="70.704" style="stroke: #000000; stroke-width: 0.8"/>
      </g>
     </g>
     <g id="text_17">
      <!-- 0.6 -->
      <g transform="translate(300.042647 74.1415) scale(0.1 -0.1)">
       <use xlink:href="#SimHei-30"/>
       <use xlink:href="#SimHei-2e" x="50"/>
       <use xlink:href="#SimHei-36" x="100"/>
      </g>
     </g>
    </g>
    <g id="ytick_11">
     <g id="line2d_18">
      <g>
       <use xlink:href="#md269b38f85" x="322.042647" y="42.48" style="stroke: #000000; stroke-width: 0.8"/>
      </g>
     </g>
     <g id="text_18">
      <!-- 0.8 -->
      <g transform="translate(300.042647 45.9175) scale(0.1 -0.1)">
       <use xlink:href="#SimHei-30"/>
       <use xlink:href="#SimHei-2e" x="50"/>
       <use xlink:href="#SimHei-38" x="100"/>
      </g>
     </g>
    </g>
    <g id="ytick_12">
     <g id="line2d_19">
      <g>
       <use xlink:href="#md269b38f85" x="322.042647" y="14.256" style="stroke: #000000; stroke-width: 0.8"/>
      </g>
     </g>
     <g id="text_19">
      <!-- 1.0 -->
      <g transform="translate(300.042647 17.6935) scale(0.1 -0.1)">
       <use xlink:href="#SimHei-31"/>
       <use xlink:href="#SimHei-2e" x="50"/>
       <use xlink:href="#SimHei-30" x="100"/>
      </g>
     </g>
    </g>
   </g>
   <g id="line2d_20">
    <path d="M 332.486497 155.376 
L 333.552196 142.30957 
L 339.94639 142.30945 
L 341.012089 146.570395 
L 343.143487 146.575761 
L 344.209186 145.766223 
L 347.406283 146.544237 
L 350.60338 146.462036 
L 351.669079 146.296063 
L 358.063273 146.290238 
L 359.128972 146.816606 
L 362.32607 140.645387 
L 363.391769 146.284109 
L 364.457468 146.284376 
L 365.523167 144.623423 
L 366.588866 146.296045 
L 369.785963 146.161525 
L 370.851662 145.021601 
L 371.917361 146.160741 
L 387.902846 146.15918 
L 399.625535 146.731292 
L 400.691234 145.966233 
L 408.151127 145.968223 
L 409.216826 145.796019 
L 410.282525 145.795969 
L 411.348224 137.99272 
L 416.676719 138.343008 
L 417.742418 138.877333 
L 430.530806 138.802969 
L 431.596505 140.605698 
L 433.727903 140.587466 
L 436.925 151.71598 
L 437.990699 154.650838 
L 439.056398 155.375674 
L 441.187796 155.372663 
L 445.450592 155.17536 
L 456.107582 155.153797 
L 461.436077 155.232365 
L 462.501776 154.917955 
L 467.830271 154.922747 
L 469.961669 154.84466 
L 491.275649 154.654712 
L 492.341348 150.757222 
L 493.407047 150.832614 
L 507.261134 150.920155 
L 508.326833 150.427405 
L 512.589629 150.444503 
L 513.655328 149.980905 
L 518.983824 149.948565 
L 521.115222 149.950569 
L 522.180921 149.724807 
L 541.363503 149.690612 
L 541.363503 149.690612 
" clip-path="url(#pbaf77adbcf)" style="fill: none; stroke: #1f77b4; stroke-width: 1.5; stroke-linecap: square"/>
   </g>
   <g id="line2d_21">
    <path d="M 332.486497 155.376 
L 333.552196 147.75358 
L 339.94639 147.753189 
L 341.012089 144.192004 
L 343.143487 144.184398 
L 344.209186 144.740106 
L 347.406283 144.125615 
L 354.866176 143.848327 
L 358.063273 143.848625 
L 359.128972 148.772956 
L 362.32607 150.947765 
L 363.391769 143.854085 
L 364.457468 143.855534 
L 365.523167 152.087777 
L 366.588866 144.013791 
L 369.785963 144.000542 
L 370.851662 155.375937 
L 371.917361 144.012029 
L 408.151127 143.90095 
L 409.216826 144.117655 
L 410.282525 144.118636 
L 411.348224 154.821321 
L 415.61102 154.796896 
L 416.676719 154.553328 
L 417.742418 153.873601 
L 430.530806 153.867881 
L 431.596505 147.720845 
L 433.727903 147.739911 
L 436.925 153.684205 
L 437.990699 145.736509 
L 439.056398 134.496275 
L 441.187796 134.483261 
L 444.384893 134.850103 
L 452.910485 134.844686 
L 453.976184 135.307384 
L 461.436077 135.267012 
L 462.501776 135.881552 
L 467.830271 135.87335 
L 469.961669 135.960467 
L 474.224465 135.967286 
L 475.290164 135.835953 
L 477.421562 135.842007 
L 478.487261 136.006096 
L 482.750057 135.977435 
L 483.815756 135.412031 
L 485.947154 135.422419 
L 491.275649 135.339993 
L 492.341348 140.289985 
L 493.407047 140.081888 
L 497.669843 140.091052 
L 498.735542 139.972092 
L 507.261134 139.971058 
L 508.326833 141.135028 
L 512.589629 141.039329 
L 513.655328 143.845446 
L 521.115222 143.854948 
L 522.180921 144.102639 
L 541.363503 144.134599 
L 541.363503 144.134599 
" clip-path="url(#pbaf77adbcf)" style="fill: none; stroke: #ff7f0e; stroke-width: 1.5; stroke-linecap: square"/>
   </g>
   <g id="line2d_22">
    <path d="M 332.486497 155.376 
L 333.552196 134.807701 
L 339.94639 134.80382 
L 341.012089 134.330125 
L 343.143487 134.329659 
L 344.209186 134.731134 
L 347.406283 134.318388 
L 356.997574 134.191661 
L 358.063273 134.186781 
L 359.128972 143.94636 
L 362.32607 148.768573 
L 363.391769 134.190978 
L 364.457468 134.191183 
L 365.523167 141.739984 
L 366.588866 134.28465 
L 369.785963 134.517032 
L 370.851662 137.644338 
L 371.917361 134.52393 
L 387.902846 134.526615 
L 399.625535 134.320156 
L 400.691234 134.902784 
L 408.151127 134.904934 
L 409.216826 135.33557 
L 411.348224 135.336219 
L 415.61102 135.140901 
L 416.676719 134.854606 
L 417.742418 133.849629 
L 418.808117 133.852249 
L 424.136612 133.739904 
L 430.530806 133.748959 
L 431.596505 137.927694 
L 433.727903 137.925816 
L 436.925 144.692806 
L 437.990699 152.390972 
L 439.056398 148.708711 
L 441.187796 148.707064 
L 444.384893 150.120975 
L 461.436077 150.058042 
L 462.501776 150.341033 
L 482.750057 150.396706 
L 483.815756 150.598969 
L 491.275649 150.634648 
L 492.341348 147.152383 
L 507.261134 147.175446 
L 508.326833 146.709283 
L 512.589629 146.709762 
L 513.655328 145.730398 
L 521.115222 145.736834 
L 522.180921 146.673075 
L 541.363503 146.653691 
L 541.363503 146.653691 
" clip-path="url(#pbaf77adbcf)" style="fill: none; stroke: #2ca02c; stroke-width: 1.5; stroke-linecap: square"/>
   </g>
   <g id="line2d_23">
    <path d="M 332.486497 155.376 
L 339.94639 155.375756 
L 341.012089 153.266158 
L 343.143487 153.270847 
L 344.209186 153.105927 
L 350.60338 153.548906 
L 351.669079 153.775833 
L 358.063273 153.776412 
L 359.128972 155.375993 
L 362.32607 155.375968 
L 363.391769 153.772817 
L 364.457468 153.772736 
L 365.523167 155.375999 
L 366.588866 154.114677 
L 369.785963 154.29536 
L 370.851662 155.375979 
L 371.917361 154.290844 
L 399.625535 154.217756 
L 400.691234 154.721869 
L 408.151127 154.708058 
L 409.216826 154.928495 
L 410.282525 154.930814 
L 411.348224 147.313268 
L 417.742418 147.102613 
L 433.727903 147.195976 
L 436.925 149.033901 
L 437.990699 150.671142 
L 439.056398 143.935126 
L 452.910485 143.869733 
L 453.976184 143.747439 
L 461.436077 143.688384 
L 462.501776 144.01013 
L 467.830271 144.007875 
L 468.89597 144.122814 
L 482.750057 144.148562 
L 483.815756 144.513868 
L 491.275649 144.544832 
L 492.341348 147.982698 
L 493.407047 147.811267 
L 507.261134 147.73192 
L 508.326833 148.173379 
L 512.589629 148.16444 
L 513.655328 147.797183 
L 521.115222 147.812492 
L 522.180921 148.50126 
L 541.363503 148.503985 
L 541.363503 148.503985 
" clip-path="url(#pbaf77adbcf)" style="fill: none; stroke: #d62728; stroke-width: 1.5; stroke-linecap: square"/>
   </g>
   <g id="line2d_24">
    <path d="M 332.486497 155.376 
L 343.143487 155.375913 
L 344.209186 155.199852 
L 348.471982 155.375749 
L 358.063273 155.375972 
L 359.128972 151.709198 
L 362.32607 148.050388 
L 363.391769 155.375945 
L 364.457468 155.375972 
L 365.523167 149.454573 
L 366.588866 155.375897 
L 369.785963 155.375643 
L 370.851662 149.863156 
L 371.917361 155.375714 
L 430.530806 155.37596 
L 431.596505 147.580261 
L 433.727903 147.570884 
L 436.925 155.375823 
L 541.363503 155.375994 
L 541.363503 155.375994 
" clip-path="url(#pbaf77adbcf)" style="fill: none; stroke: #9467bd; stroke-width: 1.5; stroke-linecap: square"/>
   </g>
   <g id="line2d_25">
    <path d="M 332.486497 155.376 
L 333.552196 153.663633 
L 339.94639 153.676306 
L 341.012089 154.197244 
L 343.143487 154.191506 
L 344.209186 153.533719 
L 347.406283 154.243602 
L 354.866176 154.628551 
L 358.063273 154.639817 
L 359.128972 155.375991 
L 362.32607 155.375981 
L 363.391769 154.638844 
L 364.457468 154.638288 
L 365.523167 155.376 
L 366.588866 154.363678 
L 369.785963 154.289379 
L 370.851662 155.375997 
L 371.917361 154.283614 
L 387.902846 154.282487 
L 403.888331 154.21568 
L 408.151127 154.194321 
L 409.216826 154.035605 
L 410.282525 154.032379 
L 411.348224 155.375442 
L 430.530806 155.375873 
L 431.596505 153.229385 
L 433.727903 153.231113 
L 436.925 155.375669 
L 437.990699 148.701544 
L 439.056398 155.375985 
L 541.363503 155.375999 
L 541.363503 155.375999 
" clip-path="url(#pbaf77adbcf)" style="fill: none; stroke: #8c564b; stroke-width: 1.5; stroke-linecap: square"/>
   </g>
   <g id="line2d_26">
    <path d="M 332.486497 155.376 
L 333.552196 136.332083 
L 339.94639 136.316014 
L 341.012089 142.228172 
L 343.143487 142.231487 
L 344.209186 142.856295 
L 347.406283 142.263705 
L 351.669079 142.302327 
L 358.063273 142.290057 
L 359.128972 133.931292 
L 362.32607 134.459696 
L 363.391769 142.297034 
L 364.457468 142.292698 
L 365.523167 135.110201 
L 366.588866 142.180247 
L 369.785963 142.384421 
L 370.851662 137.979478 
L 371.917361 142.379325 
L 387.902846 142.393461 
L 399.625535 141.938976 
L 400.691234 142.523223 
L 410.282525 142.594448 
L 411.348224 143.463855 
L 415.61102 143.37206 
L 430.530806 143.442553 
L 431.596505 148.922277 
L 433.727903 148.926778 
L 436.925 139.969012 
L 437.990699 139.844246 
L 439.056398 142.442141 
L 441.187796 142.470718 
L 444.384893 142.052556 
L 452.910485 142.067274 
L 453.976184 141.859058 
L 461.436077 141.8797 
L 462.501776 142.110801 
L 469.961669 142.077651 
L 474.224465 142.084158 
L 475.290164 142.199667 
L 482.750057 142.153693 
L 483.815756 142.011632 
L 491.275649 142.023592 
L 492.341348 145.805374 
L 493.407047 145.732205 
L 507.261134 145.802065 
L 508.326833 146.351574 
L 512.589629 146.358839 
L 513.655328 146.04853 
L 521.115222 146.051683 
L 522.180921 146.173404 
L 541.363503 146.161565 
L 541.363503 146.161565 
" clip-path="url(#pbaf77adbcf)" style="fill: none; stroke: #e377c2; stroke-width: 1.5; stroke-linecap: square"/>
   </g>
   <g id="line2d_27">
    <path d="M 332.486497 155.376 
L 333.552196 104.110629 
L 339.94639 104.112168 
L 341.012089 103.408479 
L 343.143487 103.414683 
L 344.209186 103.828097 
L 347.406283 103.431211 
L 358.063273 103.409701 
L 359.128972 99.625971 
L 362.32607 93.46854 
L 363.391769 103.405824 
L 364.457468 103.405102 
L 365.523167 97.928558 
L 366.588866 103.376928 
L 369.785963 103.248362 
L 370.851662 93.869276 
L 371.917361 103.245857 
L 381.508652 103.253801 
L 387.902846 103.245687 
L 399.625535 103.593846 
L 400.691234 103.376254 
L 408.151127 103.368889 
L 409.216826 103.222215 
L 410.282525 103.218897 
L 411.348224 101.46957 
L 416.676719 101.771145 
L 417.742418 102.092894 
L 430.530806 102.035766 
L 431.596505 103.572306 
L 433.727903 103.565235 
L 436.925 74.340856 
L 437.990699 79.621935 
L 439.056398 82.952593 
L 441.187796 82.954344 
L 444.384893 81.077217 
L 452.910485 81.08605 
L 453.976184 80.872988 
L 461.436077 80.936842 
L 462.501776 79.941848 
L 467.830271 79.947078 
L 468.89597 79.833852 
L 477.421562 79.908252 
L 478.487261 79.730648 
L 491.275649 79.840292 
L 492.341348 73.810736 
L 493.407047 74.064493 
L 507.261134 74.141827 
L 508.326833 72.717007 
L 512.589629 72.78567 
L 513.655328 70.840867 
L 521.115222 70.81363 
L 522.180921 69.979651 
L 541.363503 69.945429 
L 541.363503 69.945429 
" clip-path="url(#pbaf77adbcf)" style="fill: none; stroke: #7f7f7f; stroke-width: 1.5; stroke-linecap: square"/>
   </g>
   <g id="line2d_28">
    <path d="M 332.486497 155.376 
L 333.552196 146.587933 
L 339.94639 146.598186 
L 341.012089 132.580226 
L 348.471982 132.483345 
L 349.537681 132.351497 
L 351.669079 132.382546 
L 358.063273 132.408581 
L 359.128972 138.416839 
L 362.32607 147.820855 
L 363.391769 132.403145 
L 364.457468 132.411642 
L 365.523167 139.56243 
L 366.588866 132.063296 
L 369.785963 131.748991 
L 370.851662 137.198906 
L 371.917361 131.760312 
L 387.902846 131.73143 
L 399.625535 131.353854 
L 400.691234 130.411322 
L 408.151127 130.43107 
L 409.216826 129.965029 
L 410.282525 129.973811 
L 411.348224 126.115793 
L 415.61102 126.264729 
L 416.676719 126.513383 
L 417.742418 127.275397 
L 418.808117 127.272642 
L 424.136612 127.415826 
L 430.530806 127.420602 
L 431.596505 130.519881 
L 433.727903 130.520851 
L 436.925 133.075781 
L 437.990699 130.271242 
L 439.056398 138.601531 
L 441.187796 138.595933 
L 444.384893 139.364046 
L 452.910485 139.380423 
L 453.976184 139.500918 
L 461.436077 139.449676 
L 462.501776 139.308731 
L 477.421562 139.287811 
L 491.275649 139.473945 
L 492.341348 140.713699 
L 493.407047 140.833496 
L 507.261134 140.770153 
L 508.326833 140.99838 
L 512.589629 141.009613 
L 513.655328 142.268754 
L 520.049523 142.292633 
L 521.115222 142.291862 
L 522.180921 141.35723 
L 541.363503 141.422127 
L 541.363503 141.422127 
" clip-path="url(#pbaf77adbcf)" style="fill: none; stroke: #bcbd22; stroke-width: 1.5; stroke-linecap: square"/>
   </g>
   <g id="line2d_29">
    <path d="M 332.486497 155.376 
L 333.552196 136.323013 
L 339.94639 136.319554 
L 341.012089 146.491287 
L 343.143487 146.496963 
L 344.209186 146.321419 
L 347.406283 146.52945 
L 351.669079 146.430188 
L 358.063273 146.413816 
L 359.128972 138.668794 
L 362.32607 137.726847 
L 363.391769 146.41722 
L 364.457468 146.412469 
L 365.523167 141.381057 
L 366.588866 146.570791 
L 369.785963 146.618746 
L 370.851662 144.935333 
L 371.917361 146.607633 
L 387.902846 146.626803 
L 399.625535 147.078066 
L 400.691234 147.257113 
L 410.282525 147.265061 
L 411.348224 155.375896 
L 541.363503 155.375999 
L 541.363503 155.375999 
" clip-path="url(#pbaf77adbcf)" style="fill: none; stroke: #17becf; stroke-width: 1.5; stroke-linecap: square"/>
   </g>
   <g id="line2d_30">
    <path d="M 332.486497 14.256 
L 333.552196 155.376 
L 541.363503 155.376 
L 541.363503 155.376 
" clip-path="url(#pbaf77adbcf)" style="fill: none; stroke: #1f77b4; stroke-width: 1.5; stroke-linecap: square"/>
   </g>
   <g id="patch_8">
    <path d="M 322.042647 162.432 
L 322.042647 7.2 
" style="fill: none; stroke: #000000; stroke-width: 0.8; stroke-linejoin: miter; stroke-linecap: square"/>
   </g>
   <g id="patch_9">
    <path d="M 551.807353 162.432 
L 551.807353 7.2 
" style="fill: none; stroke: #000000; stroke-width: 0.8; stroke-linejoin: miter; stroke-linecap: square"/>
   </g>
   <g id="patch_10">
    <path d="M 322.042647 162.432 
L 551.807353 162.432 
" style="fill: none; stroke: #000000; stroke-width: 0.8; stroke-linejoin: miter; stroke-linecap: square"/>
   </g>
   <g id="patch_11">
    <path d="M 322.042647 7.2 
L 551.807353 7.2 
" style="fill: none; stroke: #000000; stroke-width: 0.8; stroke-linejoin: miter; stroke-linecap: square"/>
   </g>
   <g id="legend_1">
    <g id="patch_12">
     <path d="M 457.807353 148.60625 
L 544.807353 148.60625 
Q 546.807353 148.60625 546.807353 146.60625 
L 546.807353 14.2 
Q 546.807353 12.2 544.807353 12.2 
L 457.807353 12.2 
Q 455.807353 12.2 455.807353 14.2 
L 455.807353 146.60625 
Q 455.807353 148.60625 457.807353 148.60625 
z
" style="fill: #ffffff; opacity: 0.8; stroke: #cccccc; stroke-linejoin: miter"/>
    </g>
    <g id="line2d_31">
     <path d="M 459.807353 19.73125 
L 469.807353 19.73125 
L 479.807353 19.73125 
" style="fill: none; stroke: #1f77b4; stroke-width: 1.5; stroke-linecap: square"/>
    </g>
    <g id="text_20">
     <!-- w_002027.SZ -->
     <g transform="translate(487.807353 23.23125) scale(0.1 -0.1)">
      <defs>
       <path id="SimHei-77" d="M 3075 2925 
L 2450 75 
L 1975 75 
L 1575 2250 
L 1525 2250 
L 1125 75 
L 650 75 
L 25 2925 
L 550 2925 
L 875 1050 
L 925 1050 
L 1275 2925 
L 1825 2925 
L 2175 1050 
L 2225 1050 
L 2550 2925 
L 3075 2925 
z
" transform="scale(0.015625)"/>
       <path id="SimHei-5f" d="M 3150 -850 
L 0 -850 
L 0 -550 
L 3150 -550 
L 3150 -850 
z
" transform="scale(0.015625)"/>
       <path id="SimHei-37" d="M 850 150 
Q 1300 2050 2425 3925 
L 275 3925 
L 275 4375 
L 2950 4375 
L 2950 3950 
Q 1775 2050 1400 150 
L 850 150 
z
" transform="scale(0.015625)"/>
       <path id="SimHei-53" d="M 2900 1325 
Q 2900 750 2537 412 
Q 2175 75 1550 75 
Q 925 75 575 425 
Q 225 775 225 1300 
L 225 1475 
L 800 1475 
L 800 1325 
Q 800 950 1025 750 
Q 1250 550 1550 550 
Q 1950 550 2137 762 
Q 2325 975 2325 1275 
Q 2325 1525 2100 1737 
Q 1875 1950 1450 2125 
Q 850 2350 587 2625 
Q 325 2900 325 3275 
Q 325 3800 687 4125 
Q 1050 4450 1550 4450 
Q 2200 4450 2487 4062 
Q 2775 3675 2775 3225 
L 2200 3225 
Q 2225 3500 2050 3725 
Q 1875 3950 1550 3950 
Q 1250 3950 1075 3787 
Q 900 3625 900 3350 
Q 900 3125 1037 2962 
Q 1175 2800 1750 2575 
Q 2300 2350 2600 2037 
Q 2900 1725 2900 1325 
z
" transform="scale(0.015625)"/>
       <path id="SimHei-5a" d="M 2900 125 
L 225 125 
L 225 600 
L 2250 3925 
L 375 3925 
L 375 4400 
L 2825 4400 
L 2825 3925 
L 800 600 
L 2900 600 
L 2900 125 
z
" transform="scale(0.015625)"/>
      </defs>
      <use xlink:href="#SimHei-77"/>
      <use xlink:href="#SimHei-5f" x="50"/>
      <use xlink:href="#SimHei-30" x="100"/>
      <use xlink:href="#SimHei-30" x="150"/>
      <use xlink:href="#SimHei-32" x="200"/>
      <use xlink:href="#SimHei-30" x="250"/>
      <use xlink:href="#SimHei-32" x="300"/>
      <use xlink:href="#SimHei-37" x="350"/>
      <use xlink:href="#SimHei-2e" x="400"/>
      <use xlink:href="#SimHei-53" x="450"/>
      <use xlink:href="#SimHei-5a" x="500"/>
     </g>
    </g>
    <g id="line2d_32">
     <path d="M 459.807353 33.090625 
L 469.807353 33.090625 
L 479.807353 33.090625 
" style="fill: none; stroke: #ff7f0e; stroke-width: 1.5; stroke-linecap: square"/>
    </g>
    <g id="text_21">
     <!-- w_002371.SZ -->
     <g transform="translate(487.807353 36.590625) scale(0.1 -0.1)">
      <use xlink:href="#SimHei-77"/>
      <use xlink:href="#SimHei-5f" x="50"/>
      <use xlink:href="#SimHei-30" x="100"/>
      <use xlink:href="#SimHei-30" x="150"/>
      <use xlink:href="#SimHei-32" x="200"/>
      <use xlink:href="#SimHei-33" x="250"/>
      <use xlink:href="#SimHei-37" x="300"/>
      <use xlink:href="#SimHei-31" x="350"/>
      <use xlink:href="#SimHei-2e" x="400"/>
      <use xlink:href="#SimHei-53" x="450"/>
      <use xlink:href="#SimHei-5a" x="500"/>
     </g>
    </g>
    <g id="line2d_33">
     <path d="M 459.807353 46.41875 
L 469.807353 46.41875 
L 479.807353 46.41875 
" style="fill: none; stroke: #2ca02c; stroke-width: 1.5; stroke-linecap: square"/>
    </g>
    <g id="text_22">
     <!-- w_600009.SH -->
     <g transform="translate(487.807353 49.91875) scale(0.1 -0.1)">
      <defs>
       <path id="SimHei-48" d="M 2850 125 
L 2275 125 
L 2275 2125 
L 850 2125 
L 850 125 
L 275 125 
L 275 4400 
L 850 4400 
L 850 2600 
L 2275 2600 
L 2275 4400 
L 2850 4400 
L 2850 125 
z
" transform="scale(0.015625)"/>
      </defs>
      <use xlink:href="#SimHei-77"/>
      <use xlink:href="#SimHei-5f" x="50"/>
      <use xlink:href="#SimHei-36" x="100"/>
      <use xlink:href="#SimHei-30" x="150"/>
      <use xlink:href="#SimHei-30" x="200"/>
      <use xlink:href="#SimHei-30" x="250"/>
      <use xlink:href="#SimHei-30" x="300"/>
      <use xlink:href="#SimHei-39" x="350"/>
      <use xlink:href="#SimHei-2e" x="400"/>
      <use xlink:href="#SimHei-53" x="450"/>
      <use xlink:href="#SimHei-48" x="500"/>
     </g>
    </g>
    <g id="line2d_34">
     <path d="M 459.807353 59.778125 
L 469.807353 59.778125 
L 479.807353 59.778125 
" style="fill: none; stroke: #d62728; stroke-width: 1.5; stroke-linecap: square"/>
    </g>
    <g id="text_23">
     <!-- w_600029.SH -->
     <g transform="translate(487.807353 63.278125) scale(0.1 -0.1)">
      <use xlink:href="#SimHei-77"/>
      <use xlink:href="#SimHei-5f" x="50"/>
      <use xlink:href="#SimHei-36" x="100"/>
      <use xlink:href="#SimHei-30" x="150"/>
      <use xlink:href="#SimHei-30" x="200"/>
      <use xlink:href="#SimHei-30" x="250"/>
      <use xlink:href="#SimHei-32" x="300"/>
      <use xlink:href="#SimHei-39" x="350"/>
      <use xlink:href="#SimHei-2e" x="400"/>
      <use xlink:href="#SimHei-53" x="450"/>
      <use xlink:href="#SimHei-48" x="500"/>
     </g>
    </g>
    <g id="line2d_35">
     <path d="M 459.807353 73.1375 
L 469.807353 73.1375 
L 479.807353 73.1375 
" style="fill: none; stroke: #9467bd; stroke-width: 1.5; stroke-linecap: square"/>
    </g>
    <g id="text_24">
     <!-- w_600183.SH -->
     <g transform="translate(487.807353 76.6375) scale(0.1 -0.1)">
      <use xlink:href="#SimHei-77"/>
      <use xlink:href="#SimHei-5f" x="50"/>
      <use xlink:href="#SimHei-36" x="100"/>
      <use xlink:href="#SimHei-30" x="150"/>
      <use xlink:href="#SimHei-30" x="200"/>
      <use xlink:href="#SimHei-31" x="250"/>
      <use xlink:href="#SimHei-38" x="300"/>
      <use xlink:href="#SimHei-33" x="350"/>
      <use xlink:href="#SimHei-2e" x="400"/>
      <use xlink:href="#SimHei-53" x="450"/>
      <use xlink:href="#SimHei-48" x="500"/>
     </g>
    </g>
    <g id="line2d_36">
     <path d="M 459.807353 86.465625 
L 469.807353 86.465625 
L 479.807353 86.465625 
" style="fill: none; stroke: #8c564b; stroke-width: 1.5; stroke-linecap: square"/>
    </g>
    <g id="text_25">
     <!-- w_600406.SH -->
     <g transform="translate(487.807353 89.965625) scale(0.1 -0.1)">
      <use xlink:href="#SimHei-77"/>
      <use xlink:href="#SimHei-5f" x="50"/>
      <use xlink:href="#SimHei-36" x="100"/>
      <use xlink:href="#SimHei-30" x="150"/>
      <use xlink:href="#SimHei-30" x="200"/>
      <use xlink:href="#SimHei-34" x="250"/>
      <use xlink:href="#SimHei-30" x="300"/>
      <use xlink:href="#SimHei-36" x="350"/>
      <use xlink:href="#SimHei-2e" x="400"/>
      <use xlink:href="#SimHei-53" x="450"/>
      <use xlink:href="#SimHei-48" x="500"/>
     </g>
    </g>
    <g id="line2d_37">
     <path d="M 459.807353 99.79375 
L 469.807353 99.79375 
L 479.807353 99.79375 
" style="fill: none; stroke: #e377c2; stroke-width: 1.5; stroke-linecap: square"/>
    </g>
    <g id="text_26">
     <!-- w_600900.SH -->
     <g transform="translate(487.807353 103.29375) scale(0.1 -0.1)">
      <use xlink:href="#SimHei-77"/>
      <use xlink:href="#SimHei-5f" x="50"/>
      <use xlink:href="#SimHei-36" x="100"/>
      <use xlink:href="#SimHei-30" x="150"/>
      <use xlink:href="#SimHei-30" x="200"/>
      <use xlink:href="#SimHei-39" x="250"/>
      <use xlink:href="#SimHei-30" x="300"/>
      <use xlink:href="#SimHei-30" x="350"/>
      <use xlink:href="#SimHei-2e" x="400"/>
      <use xlink:href="#SimHei-53" x="450"/>
      <use xlink:href="#SimHei-48" x="500"/>
     </g>
    </g>
    <g id="line2d_38">
     <path d="M 459.807353 113.121875 
L 469.807353 113.121875 
L 479.807353 113.121875 
" style="fill: none; stroke: #7f7f7f; stroke-width: 1.5; stroke-linecap: square"/>
    </g>
    <g id="text_27">
     <!-- w_601989.SH -->
     <g transform="translate(487.807353 116.621875) scale(0.1 -0.1)">
      <use xlink:href="#SimHei-77"/>
      <use xlink:href="#SimHei-5f" x="50"/>
      <use xlink:href="#SimHei-36" x="100"/>
      <use xlink:href="#SimHei-30" x="150"/>
      <use xlink:href="#SimHei-31" x="200"/>
      <use xlink:href="#SimHei-39" x="250"/>
      <use xlink:href="#SimHei-38" x="300"/>
      <use xlink:href="#SimHei-39" x="350"/>
      <use xlink:href="#SimHei-2e" x="400"/>
      <use xlink:href="#SimHei-53" x="450"/>
      <use xlink:href="#SimHei-48" x="500"/>
     </g>
    </g>
    <g id="line2d_39">
     <path d="M 459.807353 126.45 
L 469.807353 126.45 
L 479.807353 126.45 
" style="fill: none; stroke: #bcbd22; stroke-width: 1.5; stroke-linecap: square"/>
    </g>
    <g id="text_28">
     <!-- w_601998.SH -->
     <g transform="translate(487.807353 129.95) scale(0.1 -0.1)">
      <use xlink:href="#SimHei-77"/>
      <use xlink:href="#SimHei-5f" x="50"/>
      <use xlink:href="#SimHei-36" x="100"/>
      <use xlink:href="#SimHei-30" x="150"/>
      <use xlink:href="#SimHei-31" x="200"/>
      <use xlink:href="#SimHei-39" x="250"/>
      <use xlink:href="#SimHei-39" x="300"/>
      <use xlink:href="#SimHei-38" x="350"/>
      <use xlink:href="#SimHei-2e" x="400"/>
      <use xlink:href="#SimHei-53" x="450"/>
      <use xlink:href="#SimHei-48" x="500"/>
     </g>
    </g>
    <g id="line2d_40">
     <path d="M 459.807353 139.778125 
L 469.807353 139.778125 
L 479.807353 139.778125 
" style="fill: none; stroke: #17becf; stroke-width: 1.5; stroke-linecap: square"/>
    </g>
    <g id="text_29">
     <!-- w_CASH -->
     <g transform="translate(487.807353 143.278125) scale(0.1 -0.1)">
      <defs>
       <path id="SimHei-43" d="M 2975 1825 
Q 2950 875 2575 475 
Q 2200 75 1675 75 
Q 1075 75 650 562 
Q 225 1050 225 2125 
Q 225 3300 637 3875 
Q 1050 4450 1700 4450 
Q 2250 4450 2612 4037 
Q 2975 3625 2950 2875 
L 2400 2875 
Q 2400 3425 2225 3700 
Q 2050 3975 1700 3975 
Q 1300 3975 1062 3562 
Q 825 3150 825 2175 
Q 825 1275 1062 912 
Q 1300 550 1675 550 
Q 1950 550 2175 812 
Q 2400 1075 2400 1825 
L 2975 1825 
z
" transform="scale(0.015625)"/>
       <path id="SimHei-41" d="M 3075 125 
L 2475 125 
L 2125 1450 
L 1025 1450 
L 675 125 
L 75 125 
L 1325 4450 
L 1825 4450 
L 3075 125 
z
M 2000 1925 
L 1600 3450 
L 1550 3450 
L 1150 1925 
L 2000 1925 
z
" transform="scale(0.015625)"/>
      </defs>
      <use xlink:href="#SimHei-77"/>
      <use xlink:href="#SimHei-5f" x="50"/>
      <use xlink:href="#SimHei-43" x="100"/>
      <use xlink:href="#SimHei-41" x="150"/>
      <use xlink:href="#SimHei-53" x="200"/>
      <use xlink:href="#SimHei-48" x="250"/>
     </g>
    </g>
   </g>
  </g>
  <g id="axes_3">
   <g id="patch_13">
    <path d="M 597.760294 162.432 
L 827.525 162.432 
L 827.525 7.2 
L 597.760294 7.2 
z
" style="fill: #ffffff"/>
   </g>
   <g id="matplotlib.axis_5">
    <g id="xtick_7">
     <g id="line2d_41">
      <g>
       <use xlink:href="#m05bb1d4c23" x="654.029202" y="162.432" style="stroke: #000000; stroke-width: 0.8"/>
      </g>
     </g>
     <g id="text_30">
      <!-- 2023-09-20 -->
      <g transform="translate(629.029202 176.307) scale(0.1 -0.1)">
       <use xlink:href="#SimHei-32"/>
       <use xlink:href="#SimHei-30" x="50"/>
       <use xlink:href="#SimHei-32" x="100"/>
       <use xlink:href="#SimHei-33" x="150"/>
       <use xlink:href="#SimHei-2d" x="200"/>
       <use xlink:href="#SimHei-30" x="250"/>
       <use xlink:href="#SimHei-39" x="300"/>
       <use xlink:href="#SimHei-2d" x="350"/>
       <use xlink:href="#SimHei-32" x="400"/>
       <use xlink:href="#SimHei-30" x="450"/>
      </g>
     </g>
    </g>
    <g id="xtick_8">
     <g id="line2d_42">
      <g>
       <use xlink:href="#m05bb1d4c23" x="717.971142" y="162.432" style="stroke: #000000; stroke-width: 0.8"/>
      </g>
     </g>
     <g id="text_31">
      <!-- 2023-11-19 -->
      <g transform="translate(692.971142 176.307) scale(0.1 -0.1)">
       <use xlink:href="#SimHei-32"/>
       <use xlink:href="#SimHei-30" x="50"/>
       <use xlink:href="#SimHei-32" x="100"/>
       <use xlink:href="#SimHei-33" x="150"/>
       <use xlink:href="#SimHei-2d" x="200"/>
       <use xlink:href="#SimHei-31" x="250"/>
       <use xlink:href="#SimHei-31" x="300"/>
       <use xlink:href="#SimHei-2d" x="350"/>
       <use xlink:href="#SimHei-31" x="400"/>
       <use xlink:href="#SimHei-39" x="450"/>
      </g>
     </g>
    </g>
    <g id="xtick_9">
     <g id="line2d_43">
      <g>
       <use xlink:href="#m05bb1d4c23" x="781.913083" y="162.432" style="stroke: #000000; stroke-width: 0.8"/>
      </g>
     </g>
     <g id="text_32">
      <!-- 2024-01-18 -->
      <g transform="translate(756.913083 176.307) scale(0.1 -0.1)">
       <use xlink:href="#SimHei-32"/>
       <use xlink:href="#SimHei-30" x="50"/>
       <use xlink:href="#SimHei-32" x="100"/>
       <use xlink:href="#SimHei-34" x="150"/>
       <use xlink:href="#SimHei-2d" x="200"/>
       <use xlink:href="#SimHei-30" x="250"/>
       <use xlink:href="#SimHei-31" x="300"/>
       <use xlink:href="#SimHei-2d" x="350"/>
       <use xlink:href="#SimHei-31" x="400"/>
       <use xlink:href="#SimHei-38" x="450"/>
      </g>
     </g>
    </g>
   </g>
   <g id="matplotlib.axis_6">
    <g id="ytick_13">
     <g id="line2d_44">
      <g>
       <use xlink:href="#md269b38f85" x="597.760294" y="155.376" style="stroke: #000000; stroke-width: 0.8"/>
      </g>
     </g>
     <g id="text_33">
      <!-- 0.0000 -->
      <g transform="translate(560.760294 158.8135) scale(0.1 -0.1)">
       <use xlink:href="#SimHei-30"/>
       <use xlink:href="#SimHei-2e" x="50"/>
       <use xlink:href="#SimHei-30" x="100"/>
       <use xlink:href="#SimHei-30" x="150"/>
       <use xlink:href="#SimHei-30" x="200"/>
       <use xlink:href="#SimHei-30" x="250"/>
      </g>
     </g>
    </g>
    <g id="ytick_14">
     <g id="line2d_45">
      <g>
       <use xlink:href="#md269b38f85" x="597.760294" y="127.152" style="stroke: #000000; stroke-width: 0.8"/>
      </g>
     </g>
     <g id="text_34">
      <!-- 0.0005 -->
      <g transform="translate(560.760294 130.5895) scale(0.1 -0.1)">
       <defs>
        <path id="SimHei-35" d="M 550 1325 
Q 725 650 1150 575 
Q 1575 500 1837 662 
Q 2100 825 2212 1087 
Q 2325 1350 2312 1675 
Q 2300 2000 2137 2225 
Q 1975 2450 1725 2525 
Q 1475 2600 1162 2525 
Q 850 2450 650 2175 
L 225 2225 
Q 275 2375 700 4375 
L 2675 4375 
L 2675 3925 
L 1075 3925 
Q 950 3250 825 2850 
Q 1200 3025 1525 3012 
Q 1850 3000 2150 2862 
Q 2450 2725 2587 2487 
Q 2725 2250 2787 2012 
Q 2850 1775 2837 1500 
Q 2825 1225 2725 937 
Q 2625 650 2425 462 
Q 2225 275 1937 162 
Q 1650 50 1275 75 
Q 900 100 562 350 
Q 225 600 100 1200 
L 550 1325 
z
" transform="scale(0.015625)"/>
       </defs>
       <use xlink:href="#SimHei-30"/>
       <use xlink:href="#SimHei-2e" x="50"/>
       <use xlink:href="#SimHei-30" x="100"/>
       <use xlink:href="#SimHei-30" x="150"/>
       <use xlink:href="#SimHei-30" x="200"/>
       <use xlink:href="#SimHei-35" x="250"/>
      </g>
     </g>
    </g>
    <g id="ytick_15">
     <g id="line2d_46">
      <g>
       <use xlink:href="#md269b38f85" x="597.760294" y="98.928" style="stroke: #000000; stroke-width: 0.8"/>
      </g>
     </g>
     <g id="text_35">
      <!-- 0.0010 -->
      <g transform="translate(560.760294 102.3655) scale(0.1 -0.1)">
       <use xlink:href="#SimHei-30"/>
       <use xlink:href="#SimHei-2e" x="50"/>
       <use xlink:href="#SimHei-30" x="100"/>
       <use xlink:href="#SimHei-30" x="150"/>
       <use xlink:href="#SimHei-31" x="200"/>
       <use xlink:href="#SimHei-30" x="250"/>
      </g>
     </g>
    </g>
    <g id="ytick_16">
     <g id="line2d_47">
      <g>
       <use xlink:href="#md269b38f85" x="597.760294" y="70.704" style="stroke: #000000; stroke-width: 0.8"/>
      </g>
     </g>
     <g id="text_36">
      <!-- 0.0015 -->
      <g transform="translate(560.760294 74.1415) scale(0.1 -0.1)">
       <use xlink:href="#SimHei-30"/>
       <use xlink:href="#SimHei-2e" x="50"/>
       <use xlink:href="#SimHei-30" x="100"/>
       <use xlink:href="#SimHei-30" x="150"/>
       <use xlink:href="#SimHei-31" x="200"/>
       <use xlink:href="#SimHei-35" x="250"/>
      </g>
     </g>
    </g>
    <g id="ytick_17">
     <g id="line2d_48">
      <g>
       <use xlink:href="#md269b38f85" x="597.760294" y="42.48" style="stroke: #000000; stroke-width: 0.8"/>
      </g>
     </g>
     <g id="text_37">
      <!-- 0.0020 -->
      <g transform="translate(560.760294 45.9175) scale(0.1 -0.1)">
       <use xlink:href="#SimHei-30"/>
       <use xlink:href="#SimHei-2e" x="50"/>
       <use xlink:href="#SimHei-30" x="100"/>
       <use xlink:href="#SimHei-30" x="150"/>
       <use xlink:href="#SimHei-32" x="200"/>
       <use xlink:href="#SimHei-30" x="250"/>
      </g>
     </g>
    </g>
    <g id="ytick_18">
     <g id="line2d_49">
      <g>
       <use xlink:href="#md269b38f85" x="597.760294" y="14.256" style="stroke: #000000; stroke-width: 0.8"/>
      </g>
     </g>
     <g id="text_38">
      <!-- 0.0025 -->
      <g transform="translate(560.760294 17.6935) scale(0.1 -0.1)">
       <use xlink:href="#SimHei-30"/>
       <use xlink:href="#SimHei-2e" x="50"/>
       <use xlink:href="#SimHei-30" x="100"/>
       <use xlink:href="#SimHei-30" x="150"/>
       <use xlink:href="#SimHei-32" x="200"/>
       <use xlink:href="#SimHei-35" x="250"/>
      </g>
     </g>
    </g>
   </g>
   <g id="line2d_50">
    <path d="M 608.204144 14.256 
L 609.269843 154.746041 
L 611.401241 154.433574 
L 614.598338 154.138835 
L 615.664037 113.36904 
L 616.729736 154.303483 
L 617.795435 154.580811 
L 618.861134 151.29548 
L 622.058231 151.802434 
L 623.12393 154.752971 
L 624.189629 153.467771 
L 625.255328 153.180133 
L 626.321028 153.107477 
L 629.518125 154.186635 
L 630.583824 153.614167 
L 631.649523 153.635081 
L 632.715222 154.400869 
L 633.780921 107.158248 
L 636.978018 121.30687 
L 638.043717 76.261587 
L 639.109416 153.962493 
L 640.175115 106.731965 
L 641.240814 105.164953 
L 644.437911 154.631935 
L 645.50361 111.823523 
L 646.569309 110.573146 
L 647.635008 153.274169 
L 648.700707 154.808486 
L 652.963503 153.949149 
L 654.029202 154.094257 
L 655.094901 155.010241 
L 656.1606 154.34614 
L 659.357697 154.71867 
L 661.489095 154.667363 
L 662.554794 153.603186 
L 674.277483 153.157293 
L 675.343182 151.062985 
L 676.408881 154.673884 
L 677.47458 153.86052 
L 678.540279 153.816041 
L 681.737376 153.841357 
L 682.803075 154.728433 
L 683.868774 153.217272 
L 684.934473 154.445425 
L 686.000172 113.600691 
L 689.197269 153.613534 
L 690.262968 153.541543 
L 691.328667 150.826648 
L 692.394366 151.648752 
L 693.460065 154.116032 
L 696.657162 154.279484 
L 697.722861 154.631702 
L 698.78856 154.583191 
L 699.854259 154.296425 
L 700.919958 154.164084 
L 704.117055 153.648163 
L 705.182754 154.794366 
L 706.248453 123.115407 
L 707.314152 154.597048 
L 708.379851 154.831048 
L 711.576948 78.890909 
L 712.642647 120.747119 
L 713.708346 111.809214 
L 714.774045 154.440336 
L 715.839744 155.090578 
L 719.036841 149.971572 
L 720.10254 154.761546 
L 721.168239 154.457005 
L 722.233938 154.77071 
L 723.299637 154.55251 
L 726.496734 155.018563 
L 727.562433 154.83391 
L 728.628132 154.249019 
L 729.693831 154.044791 
L 733.956627 154.652653 
L 735.022326 154.040673 
L 736.088025 154.988521 
L 737.153724 152.563302 
L 738.219423 154.510904 
L 741.41652 154.761808 
L 742.482219 153.78 
L 743.547918 154.43942 
L 744.613617 154.856484 
L 745.679316 154.733568 
L 748.876413 153.721613 
L 749.942112 154.428083 
L 751.007811 153.661953 
L 752.07351 153.807127 
L 753.139209 154.230426 
L 756.336306 154.516205 
L 757.402005 154.43484 
L 758.467704 153.34076 
L 759.533403 152.740678 
L 760.599102 154.495057 
L 764.861898 153.196797 
L 765.927597 154.820451 
L 766.993296 129.065529 
L 768.058995 154.491522 
L 771.256092 154.512797 
L 773.38749 154.936576 
L 774.453189 154.027025 
L 775.518888 153.765848 
L 778.715985 154.740584 
L 779.781684 154.050066 
L 780.847383 154.652791 
L 781.913083 153.687968 
L 782.978782 150.950034 
L 786.175879 154.506165 
L 787.241578 154.817562 
L 788.307277 146.548062 
L 789.372976 153.738555 
L 790.438675 154.349477 
L 793.635772 154.338879 
L 794.701471 154.022299 
L 795.76717 153.496737 
L 796.832869 150.347498 
L 797.898568 154.528671 
L 801.095665 153.734956 
L 802.161364 152.752692 
L 803.227063 154.451779 
L 804.292762 154.742017 
L 816.015451 154.651815 
L 817.08115 155.376 
L 817.08115 155.376 
" clip-path="url(#p1f2614987e)" style="fill: none; stroke: #1f77b4; stroke-width: 1.5; stroke-linecap: square"/>
   </g>
   <g id="patch_14">
    <path d="M 597.760294 162.432 
L 597.760294 7.2 
" style="fill: none; stroke: #000000; stroke-width: 0.8; stroke-linejoin: miter; stroke-linecap: square"/>
   </g>
   <g id="patch_15">
    <path d="M 827.525 162.432 
L 827.525 7.2 
" style="fill: none; stroke: #000000; stroke-width: 0.8; stroke-linejoin: miter; stroke-linecap: square"/>
   </g>
   <g id="patch_16">
    <path d="M 597.760294 162.432 
L 827.525 162.432 
" style="fill: none; stroke: #000000; stroke-width: 0.8; stroke-linejoin: miter; stroke-linecap: square"/>
   </g>
   <g id="patch_17">
    <path d="M 597.760294 7.2 
L 827.525 7.2 
" style="fill: none; stroke: #000000; stroke-width: 0.8; stroke-linejoin: miter; stroke-linecap: square"/>
   </g>
  </g>
 </g>
 <defs>
  <clipPath id="p4122a75bbf">
   <rect x="46.325" y="7.2" width="229.764706" height="155.232"/>
  </clipPath>
  <clipPath id="pbaf77adbcf">
   <rect x="322.042647" y="7.2" width="229.764706" height="155.232"/>
  </clipPath>
  <clipPath id="p1f2614987e">
   <rect x="597.760294" y="7.2" width="229.764706" height="155.232"/>
  </clipPath>
 </defs>
</svg>
