<?xml version="1.0" encoding="utf-8" standalone="no"?>
<!DOCTYPE svg PUBLIC "-//W3C//DTD SVG 1.1//EN"
  "http://www.w3.org/Graphics/SVG/1.1/DTD/svg11.dtd">
<svg xmlns:xlink="http://www.w3.org/1999/xlink" width="839.803125pt" height="184.757pt" viewBox="0 0 839.803125 184.757" xmlns="http://www.w3.org/2000/svg" version="1.1">
 <metadata>
  <rdf:RDF xmlns:dc="http://purl.org/dc/elements/1.1/" xmlns:cc="http://creativecommons.org/ns#" xmlns:rdf="http://www.w3.org/1999/02/22-rdf-syntax-ns#">
   <cc:Work>
    <dc:type rdf:resource="http://purl.org/dc/dcmitype/StillImage"/>
    <dc:date>2024-12-25T17:32:58.803020</dc:date>
    <dc:format>image/svg+xml</dc:format>
    <dc:creator>
     <cc:Agent>
      <dc:title>Matplotlib v3.9.3, https://matplotlib.org/</dc:title>
     </cc:Agent>
    </dc:creator>
   </cc:Work>
  </rdf:RDF>
 </metadata>
 <defs>
  <style type="text/css">*{stroke-linejoin: round; stroke-linecap: butt}</style>
 </defs>
 <g id="figure_1">
  <g id="patch_1">
   <path d="M 0 184.757 
L 839.803125 184.757 
L 839.803125 0 
L 0 0 
z
" style="fill: #ffffff"/>
  </g>
  <g id="axes_1">
   <g id="patch_2">
    <path d="M 51.403125 162.432 
L 281.167831 162.432 
L 281.167831 7.2 
L 51.403125 7.2 
z
" style="fill: #ffffff"/>
   </g>
   <g id="matplotlib.axis_1">
    <g id="xtick_1">
     <g id="line2d_1">
      <defs>
       <path id="m997eddd4aa" d="M 0 0 
L 0 3.5 
" style="stroke: #000000; stroke-width: 0.8"/>
      </defs>
      <g>
       <use xlink:href="#m997eddd4aa" x="107.672033" y="162.432" style="stroke: #000000; stroke-width: 0.8"/>
      </g>
     </g>
     <g id="text_1">
      <!-- 2023-09-20 -->
      <g transform="translate(82.672033 176.307) scale(0.1 -0.1)">
       <defs>
        <path id="SimHei-32" d="M 300 250 
Q 325 625 650 925 
Q 975 1225 1475 1862 
Q 1975 2500 2125 2850 
Q 2275 3200 2237 3450 
Q 2200 3700 2000 3862 
Q 1800 4025 1537 4000 
Q 1275 3975 1037 3800 
Q 800 3625 675 3275 
L 200 3350 
Q 400 3925 712 4187 
Q 1025 4450 1450 4475 
Q 1700 4500 1900 4462 
Q 2100 4425 2312 4287 
Q 2525 4150 2662 3875 
Q 2800 3600 2762 3212 
Q 2725 2825 2375 2287 
Q 2025 1750 1025 600 
L 2825 600 
L 2825 150 
L 300 150 
L 300 250 
z
" transform="scale(0.015625)"/>
        <path id="SimHei-30" d="M 225 2537 
Q 250 3200 412 3587 
Q 575 3975 875 4225 
Q 1175 4475 1612 4475 
Q 2050 4475 2375 4112 
Q 2700 3750 2800 3200 
Q 2900 2650 2862 1937 
Q 2825 1225 2612 775 
Q 2400 325 1975 150 
Q 1550 -25 1125 187 
Q 700 400 525 750 
Q 350 1100 275 1487 
Q 200 1875 225 2537 
z
M 750 2687 
Q 675 2000 800 1462 
Q 925 925 1212 700 
Q 1500 475 1800 612 
Q 2100 750 2237 1162 
Q 2375 1575 2375 2062 
Q 2375 2550 2337 2950 
Q 2300 3350 2112 3675 
Q 1925 4000 1612 4012 
Q 1300 4025 1062 3700 
Q 825 3375 750 2687 
z
" transform="scale(0.015625)"/>
        <path id="SimHei-33" d="M 250 1225 
L 700 1300 
Q 800 975 1025 762 
Q 1250 550 1587 562 
Q 1925 575 2125 837 
Q 2325 1100 2300 1437 
Q 2275 1775 2037 1962 
Q 1800 2150 1275 2225 
L 1275 2550 
Q 1800 2600 2037 2825 
Q 2275 3050 2250 3412 
Q 2225 3775 1925 3937 
Q 1625 4100 1287 3975 
Q 950 3850 750 3275 
L 300 3350 
Q 450 3800 712 4100 
Q 975 4400 1425 4450 
Q 1875 4500 2212 4337 
Q 2550 4175 2687 3837 
Q 2825 3500 2725 3100 
Q 2625 2700 2150 2400 
Q 2500 2250 2687 1950 
Q 2875 1650 2812 1162 
Q 2750 675 2375 375 
Q 2000 75 1525 87 
Q 1050 100 700 387 
Q 350 675 250 1225 
z
" transform="scale(0.015625)"/>
        <path id="SimHei-2d" d="M 2975 2125 
L 125 2125 
L 125 2525 
L 2975 2525 
L 2975 2125 
z
" transform="scale(0.015625)"/>
        <path id="SimHei-39" d="M 800 75 
Q 1350 1000 1700 1750 
Q 1075 1650 662 1912 
Q 250 2175 162 2625 
Q 75 3075 175 3437 
Q 275 3800 487 4037 
Q 700 4275 1000 4375 
Q 1300 4475 1537 4475 
Q 1775 4475 2025 4375 
Q 2275 4275 2475 4075 
Q 2675 3875 2750 3662 
Q 2825 3450 2825 3112 
Q 2825 2775 2575 2250 
Q 2325 1725 1350 75 
L 800 75 
z
M 662 2875 
Q 700 2550 937 2337 
Q 1175 2125 1450 2150 
Q 1725 2175 1887 2300 
Q 2050 2425 2200 2725 
Q 2300 3100 2250 3362 
Q 2200 3625 1987 3800 
Q 1775 3975 1525 3975 
Q 1375 4000 1137 3900 
Q 900 3800 762 3500 
Q 625 3200 662 2875 
z
" transform="scale(0.015625)"/>
       </defs>
       <use xlink:href="#SimHei-32"/>
       <use xlink:href="#SimHei-30" x="50"/>
       <use xlink:href="#SimHei-32" x="100"/>
       <use xlink:href="#SimHei-33" x="150"/>
       <use xlink:href="#SimHei-2d" x="200"/>
       <use xlink:href="#SimHei-30" x="250"/>
       <use xlink:href="#SimHei-39" x="300"/>
       <use xlink:href="#SimHei-2d" x="350"/>
       <use xlink:href="#SimHei-32" x="400"/>
       <use xlink:href="#SimHei-30" x="450"/>
      </g>
     </g>
    </g>
    <g id="xtick_2">
     <g id="line2d_2">
      <g>
       <use xlink:href="#m997eddd4aa" x="171.613973" y="162.432" style="stroke: #000000; stroke-width: 0.8"/>
      </g>
     </g>
     <g id="text_2">
      <!-- 2023-11-19 -->
      <g transform="translate(146.613973 176.307) scale(0.1 -0.1)">
       <defs>
        <path id="SimHei-31" d="M 1400 3600 
Q 1075 3275 575 2975 
L 575 3450 
Q 1200 3875 1600 4450 
L 1900 4450 
L 1900 150 
L 1400 150 
L 1400 3600 
z
" transform="scale(0.015625)"/>
       </defs>
       <use xlink:href="#SimHei-32"/>
       <use xlink:href="#SimHei-30" x="50"/>
       <use xlink:href="#SimHei-32" x="100"/>
       <use xlink:href="#SimHei-33" x="150"/>
       <use xlink:href="#SimHei-2d" x="200"/>
       <use xlink:href="#SimHei-31" x="250"/>
       <use xlink:href="#SimHei-31" x="300"/>
       <use xlink:href="#SimHei-2d" x="350"/>
       <use xlink:href="#SimHei-31" x="400"/>
       <use xlink:href="#SimHei-39" x="450"/>
      </g>
     </g>
    </g>
    <g id="xtick_3">
     <g id="line2d_3">
      <g>
       <use xlink:href="#m997eddd4aa" x="235.555913" y="162.432" style="stroke: #000000; stroke-width: 0.8"/>
      </g>
     </g>
     <g id="text_3">
      <!-- 2024-01-18 -->
      <g transform="translate(210.555913 176.307) scale(0.1 -0.1)">
       <defs>
        <path id="SimHei-34" d="M 2000 1100 
L 75 1100 
L 75 1525 
L 2100 4450 
L 2475 4450 
L 2475 1525 
L 3075 1525 
L 3075 1100 
L 2475 1100 
L 2475 150 
L 2000 150 
L 2000 1100 
z
M 2000 1525 
L 2000 3500 
L 600 1525 
L 2000 1525 
z
" transform="scale(0.015625)"/>
        <path id="SimHei-38" d="M 175 1375 
Q 175 1675 325 1962 
Q 475 2250 825 2425 
Q 525 2600 425 2812 
Q 325 3025 312 3300 
Q 300 3575 387 3775 
Q 475 3975 650 4150 
Q 825 4325 1037 4387 
Q 1250 4450 1500 4450 
Q 1750 4450 1950 4400 
Q 2150 4350 2375 4187 
Q 2600 4025 2700 3725 
Q 2800 3425 2687 3025 
Q 2575 2625 2100 2400 
Q 2525 2275 2700 2012 
Q 2875 1750 2875 1375 
Q 2875 1000 2762 775 
Q 2650 550 2512 400 
Q 2375 250 2137 162 
Q 1900 75 1537 75 
Q 1175 75 912 162 
Q 650 250 475 425 
Q 300 600 237 837 
Q 175 1075 175 1375 
z
M 687 1400 
Q 675 1100 787 875 
Q 900 650 1200 587 
Q 1500 525 1825 600 
Q 2150 675 2275 950 
Q 2400 1225 2362 1500 
Q 2325 1775 2050 1962 
Q 1775 2150 1450 2125 
Q 1125 2100 912 1900 
Q 700 1700 687 1400 
z
M 775 3350 
Q 775 3100 950 2875 
Q 1125 2650 1500 2650 
Q 1875 2650 2062 2875 
Q 2250 3100 2237 3412 
Q 2225 3725 2012 3875 
Q 1800 4025 1437 4000 
Q 1075 3975 925 3787 
Q 775 3600 775 3350 
z
" transform="scale(0.015625)"/>
       </defs>
       <use xlink:href="#SimHei-32"/>
       <use xlink:href="#SimHei-30" x="50"/>
       <use xlink:href="#SimHei-32" x="100"/>
       <use xlink:href="#SimHei-34" x="150"/>
       <use xlink:href="#SimHei-2d" x="200"/>
       <use xlink:href="#SimHei-30" x="250"/>
       <use xlink:href="#SimHei-31" x="300"/>
       <use xlink:href="#SimHei-2d" x="350"/>
       <use xlink:href="#SimHei-31" x="400"/>
       <use xlink:href="#SimHei-38" x="450"/>
      </g>
     </g>
    </g>
   </g>
   <g id="matplotlib.axis_2">
    <g id="ytick_1">
     <g id="line2d_4">
      <defs>
       <path id="mee0742d08d" d="M 0 0 
L -3.5 0 
" style="stroke: #000000; stroke-width: 0.8"/>
      </defs>
      <g>
       <use xlink:href="#mee0742d08d" x="51.403125" y="143.347878" style="stroke: #000000; stroke-width: 0.8"/>
      </g>
     </g>
     <g id="text_4">
      <!-- 0.950 -->
      <g transform="translate(19.403125 146.785378) scale(0.1 -0.1)">
       <defs>
        <path id="SimHei-2e" d="M 1075 125 
L 500 125 
L 500 675 
L 1075 675 
L 1075 125 
z
" transform="scale(0.015625)"/>
        <path id="SimHei-35" d="M 550 1325 
Q 725 650 1150 575 
Q 1575 500 1837 662 
Q 2100 825 2212 1087 
Q 2325 1350 2312 1675 
Q 2300 2000 2137 2225 
Q 1975 2450 1725 2525 
Q 1475 2600 1162 2525 
Q 850 2450 650 2175 
L 225 2225 
Q 275 2375 700 4375 
L 2675 4375 
L 2675 3925 
L 1075 3925 
Q 950 3250 825 2850 
Q 1200 3025 1525 3012 
Q 1850 3000 2150 2862 
Q 2450 2725 2587 2487 
Q 2725 2250 2787 2012 
Q 2850 1775 2837 1500 
Q 2825 1225 2725 937 
Q 2625 650 2425 462 
Q 2225 275 1937 162 
Q 1650 50 1275 75 
Q 900 100 562 350 
Q 225 600 100 1200 
L 550 1325 
z
" transform="scale(0.015625)"/>
       </defs>
       <use xlink:href="#SimHei-30"/>
       <use xlink:href="#SimHei-2e" x="50"/>
       <use xlink:href="#SimHei-39" x="100"/>
       <use xlink:href="#SimHei-35" x="150"/>
       <use xlink:href="#SimHei-30" x="200"/>
      </g>
     </g>
    </g>
    <g id="ytick_2">
     <g id="line2d_5">
      <g>
       <use xlink:href="#mee0742d08d" x="51.403125" y="117.822178" style="stroke: #000000; stroke-width: 0.8"/>
      </g>
     </g>
     <g id="text_5">
      <!-- 0.975 -->
      <g transform="translate(19.403125 121.259678) scale(0.1 -0.1)">
       <defs>
        <path id="SimHei-37" d="M 850 150 
Q 1300 2050 2425 3925 
L 275 3925 
L 275 4375 
L 2950 4375 
L 2950 3950 
Q 1775 2050 1400 150 
L 850 150 
z
" transform="scale(0.015625)"/>
       </defs>
       <use xlink:href="#SimHei-30"/>
       <use xlink:href="#SimHei-2e" x="50"/>
       <use xlink:href="#SimHei-39" x="100"/>
       <use xlink:href="#SimHei-37" x="150"/>
       <use xlink:href="#SimHei-35" x="200"/>
      </g>
     </g>
    </g>
    <g id="ytick_3">
     <g id="line2d_6">
      <g>
       <use xlink:href="#mee0742d08d" x="51.403125" y="92.296477" style="stroke: #000000; stroke-width: 0.8"/>
      </g>
     </g>
     <g id="text_6">
      <!-- 1.000 -->
      <g transform="translate(19.403125 95.733977) scale(0.1 -0.1)">
       <use xlink:href="#SimHei-31"/>
       <use xlink:href="#SimHei-2e" x="50"/>
       <use xlink:href="#SimHei-30" x="100"/>
       <use xlink:href="#SimHei-30" x="150"/>
       <use xlink:href="#SimHei-30" x="200"/>
      </g>
     </g>
    </g>
    <g id="ytick_4">
     <g id="line2d_7">
      <g>
       <use xlink:href="#mee0742d08d" x="51.403125" y="66.770777" style="stroke: #000000; stroke-width: 0.8"/>
      </g>
     </g>
     <g id="text_7">
      <!-- 1.025 -->
      <g transform="translate(19.403125 70.208277) scale(0.1 -0.1)">
       <use xlink:href="#SimHei-31"/>
       <use xlink:href="#SimHei-2e" x="50"/>
       <use xlink:href="#SimHei-30" x="100"/>
       <use xlink:href="#SimHei-32" x="150"/>
       <use xlink:href="#SimHei-35" x="200"/>
      </g>
     </g>
    </g>
    <g id="ytick_5">
     <g id="line2d_8">
      <g>
       <use xlink:href="#mee0742d08d" x="51.403125" y="41.245077" style="stroke: #000000; stroke-width: 0.8"/>
      </g>
     </g>
     <g id="text_8">
      <!-- 1.050 -->
      <g transform="translate(19.403125 44.682577) scale(0.1 -0.1)">
       <use xlink:href="#SimHei-31"/>
       <use xlink:href="#SimHei-2e" x="50"/>
       <use xlink:href="#SimHei-30" x="100"/>
       <use xlink:href="#SimHei-35" x="150"/>
       <use xlink:href="#SimHei-30" x="200"/>
      </g>
     </g>
    </g>
    <g id="ytick_6">
     <g id="line2d_9">
      <g>
       <use xlink:href="#mee0742d08d" x="51.403125" y="15.719377" style="stroke: #000000; stroke-width: 0.8"/>
      </g>
     </g>
     <g id="text_9">
      <!-- 1.075 -->
      <g transform="translate(19.403125 19.156877) scale(0.1 -0.1)">
       <use xlink:href="#SimHei-31"/>
       <use xlink:href="#SimHei-2e" x="50"/>
       <use xlink:href="#SimHei-30" x="100"/>
       <use xlink:href="#SimHei-37" x="150"/>
       <use xlink:href="#SimHei-35" x="200"/>
      </g>
     </g>
    </g>
    <g id="text_10">
     <!-- EVaR-MinRisk-4yr -->
     <g transform="translate(14.153125 124.816) rotate(-90) scale(0.1 -0.1)">
      <defs>
       <path id="SimHei-45" d="M 2900 125 
L 350 125 
L 350 4400 
L 2775 4400 
L 2775 3925 
L 925 3925 
L 925 2600 
L 2625 2600 
L 2625 2125 
L 925 2125 
L 925 600 
L 2900 600 
L 2900 125 
z
" transform="scale(0.015625)"/>
       <path id="SimHei-56" d="M 3050 4400 
L 1800 75 
L 1300 75 
L 50 4400 
L 650 4400 
L 1525 1125 
L 1575 1125 
L 2450 4400 
L 3050 4400 
z
" transform="scale(0.015625)"/>
       <path id="SimHei-61" d="M 2875 125 
L 2275 125 
Q 2225 175 2200 262 
Q 2175 350 2175 475 
Q 2000 275 1750 175 
Q 1500 75 1225 75 
Q 825 75 550 275 
Q 275 475 275 850 
Q 275 1225 525 1450 
Q 775 1675 1300 1750 
Q 1650 1800 1912 1875 
Q 2175 1950 2175 2075 
Q 2175 2225 2062 2375 
Q 1950 2525 1575 2525 
Q 1275 2525 1137 2412 
Q 1000 2300 950 2100 
L 400 2100 
Q 450 2500 762 2737 
Q 1075 2975 1575 2975 
Q 2125 2975 2400 2725 
Q 2675 2475 2675 2025 
L 2675 650 
Q 2675 500 2725 375 
Q 2775 250 2875 125 
z
M 2175 1050 
L 2175 1550 
Q 2025 1500 1887 1462 
Q 1750 1425 1425 1375 
Q 1050 1325 937 1200 
Q 825 1075 825 900 
Q 825 750 937 637 
Q 1050 525 1275 525 
Q 1500 525 1762 650 
Q 2025 775 2175 1050 
z
" transform="scale(0.015625)"/>
       <path id="SimHei-52" d="M 3000 125 
L 2400 125 
L 1500 1975 
L 850 1975 
L 850 125 
L 275 125 
L 275 4400 
L 1525 4400 
Q 2125 4400 2500 4112 
Q 2875 3825 2875 3175 
Q 2875 2675 2625 2400 
Q 2375 2125 2050 2050 
L 3000 125 
z
M 2300 3175 
Q 2300 3525 2087 3725 
Q 1875 3925 1400 3925 
L 850 3925 
L 850 2450 
L 1550 2450 
Q 1850 2450 2075 2612 
Q 2300 2775 2300 3175 
z
" transform="scale(0.015625)"/>
       <path id="SimHei-4d" d="M 2925 125 
L 2425 125 
L 2425 3175 
L 2375 3175 
L 1775 125 
L 1375 125 
L 775 3175 
L 725 3175 
L 725 125 
L 225 125 
L 225 4400 
L 1000 4400 
L 1550 1575 
L 1600 1575 
L 2150 4400 
L 2925 4400 
L 2925 125 
z
" transform="scale(0.015625)"/>
       <path id="SimHei-69" d="M 1800 3725 
L 1300 3725 
L 1300 4375 
L 1800 4375 
L 1800 3725 
z
M 1800 125 
L 1300 125 
L 1300 2925 
L 1800 2925 
L 1800 125 
z
" transform="scale(0.015625)"/>
       <path id="SimHei-6e" d="M 2800 125 
L 2300 125 
L 2300 1925 
Q 2300 2225 2150 2400 
Q 2000 2575 1750 2575 
Q 1425 2575 1137 2237 
Q 850 1900 850 1400 
L 850 125 
L 350 125 
L 350 2925 
L 850 2925 
L 850 2400 
Q 1050 2675 1287 2825 
Q 1525 2975 1900 2975 
Q 2350 2975 2575 2725 
Q 2800 2475 2800 2100 
L 2800 125 
z
" transform="scale(0.015625)"/>
       <path id="SimHei-73" d="M 2750 900 
Q 2750 500 2437 287 
Q 2125 75 1650 75 
Q 1050 75 725 312 
Q 400 550 400 1000 
L 900 1000 
Q 900 700 1112 600 
Q 1325 500 1625 500 
Q 1925 500 2075 612 
Q 2225 725 2225 900 
Q 2225 1025 2100 1150 
Q 1975 1275 1475 1350 
Q 900 1425 687 1637 
Q 475 1850 475 2200 
Q 475 2500 762 2737 
Q 1050 2975 1600 2975 
Q 2100 2975 2387 2750 
Q 2675 2525 2675 2150 
L 2175 2150 
Q 2175 2375 2012 2462 
Q 1850 2550 1600 2550 
Q 1275 2550 1137 2437 
Q 1000 2325 1000 2175 
Q 1000 2000 1125 1900 
Q 1250 1800 1650 1750 
Q 2300 1650 2525 1437 
Q 2750 1225 2750 900 
z
" transform="scale(0.015625)"/>
       <path id="SimHei-6b" d="M 2925 125 
L 2350 125 
L 1450 1650 
L 875 1100 
L 875 125 
L 375 125 
L 375 4400 
L 875 4400 
L 875 1675 
L 2125 2925 
L 2750 2925 
L 1775 1975 
L 2925 125 
z
" transform="scale(0.015625)"/>
       <path id="SimHei-79" d="M 2900 2925 
L 1750 -100 
Q 1650 -450 1450 -625 
Q 1250 -800 950 -800 
Q 825 -800 712 -787 
Q 600 -775 500 -725 
L 500 -225 
Q 600 -275 700 -300 
Q 800 -325 875 -325 
Q 1075 -325 1150 -262 
Q 1225 -200 1300 25 
L 200 2925 
L 750 2925 
L 1550 725 
L 1575 725 
L 2350 2925 
L 2900 2925 
z
" transform="scale(0.015625)"/>
       <path id="SimHei-72" d="M 2500 2425 
Q 2025 2500 1700 2287 
Q 1375 2075 1150 1550 
L 1150 125 
L 650 125 
L 650 2925 
L 1150 2925 
L 1150 2200 
Q 1375 2600 1712 2787 
Q 2050 2975 2500 2975 
L 2500 2425 
z
" transform="scale(0.015625)"/>
      </defs>
      <use xlink:href="#SimHei-45"/>
      <use xlink:href="#SimHei-56" x="50"/>
      <use xlink:href="#SimHei-61" x="100"/>
      <use xlink:href="#SimHei-52" x="150"/>
      <use xlink:href="#SimHei-2d" x="200"/>
      <use xlink:href="#SimHei-4d" x="250"/>
      <use xlink:href="#SimHei-69" x="300"/>
      <use xlink:href="#SimHei-6e" x="350"/>
      <use xlink:href="#SimHei-52" x="400"/>
      <use xlink:href="#SimHei-69" x="450"/>
      <use xlink:href="#SimHei-73" x="500"/>
      <use xlink:href="#SimHei-6b" x="550"/>
      <use xlink:href="#SimHei-2d" x="600"/>
      <use xlink:href="#SimHei-34" x="650"/>
      <use xlink:href="#SimHei-79" x="700"/>
      <use xlink:href="#SimHei-72" x="750"/>
     </g>
    </g>
   </g>
   <g id="line2d_10">
    <path d="M 61.846975 94.849047 
L 62.912674 95.202263 
L 63.978373 94.216112 
L 65.044072 112.975199 
L 68.241169 120.013443 
L 69.306868 110.753959 
L 70.372567 117.978873 
L 71.438266 114.183123 
L 72.503965 113.772683 
L 75.701062 128.853947 
L 76.766761 122.416533 
L 77.83246 124.606191 
L 78.898159 129.05516 
L 79.963858 122.162951 
L 83.160955 118.436243 
L 84.226654 124.605005 
L 85.292353 127.938278 
L 86.358052 127.869498 
L 87.423751 132.709629 
L 90.620848 123.324078 
L 91.686547 123.721285 
L 92.752246 123.155187 
L 93.817945 127.848264 
L 94.883644 129.514999 
L 99.146441 121.70436 
L 100.21214 121.867747 
L 101.277839 103.968211 
L 102.343538 112.087061 
L 105.540635 112.002431 
L 106.606334 109.759819 
L 107.672033 107.937775 
L 108.737732 115.754843 
L 109.803431 107.966282 
L 113.000528 107.374179 
L 114.066227 112.445616 
L 115.131926 119.200456 
L 116.197625 117.519729 
L 127.920314 109.901162 
L 128.986013 112.16198 
L 130.051712 114.82661 
L 131.117411 101.865276 
L 132.18311 99.937993 
L 135.380207 100.441933 
L 136.445906 93.033903 
L 137.511605 92.764458 
L 138.577304 113.179344 
L 139.643003 122.854064 
L 142.8401 127.367177 
L 143.905799 121.249221 
L 144.971498 136.357238 
L 146.037197 122.786633 
L 147.102896 126.052907 
L 150.299993 134.970931 
L 151.365692 130.239856 
L 152.431391 126.584496 
L 153.49709 120.840461 
L 154.562789 121.525593 
L 157.759886 133.966763 
L 158.825585 133.553798 
L 159.891284 133.264639 
L 160.956983 125.829577 
L 162.022682 129.419961 
L 165.219779 130.812374 
L 166.285478 134.034891 
L 167.351177 126.139642 
L 168.416876 126.229131 
L 169.482575 131.618244 
L 172.679672 129.543794 
L 173.745371 125.37452 
L 174.81107 128.754496 
L 175.876769 129.698548 
L 176.942468 129.6697 
L 180.139565 133.561491 
L 181.205264 135.666632 
L 182.270963 143.237366 
L 183.336662 131.996839 
L 184.402361 131.030648 
L 187.599458 136.122407 
L 188.665157 148.374688 
L 189.730856 155.376 
L 190.796555 153.077898 
L 191.862254 148.345963 
L 195.059351 145.088035 
L 196.12505 136.160681 
L 197.190749 139.555123 
L 198.256448 141.820215 
L 199.322147 150.284617 
L 202.519244 144.807638 
L 203.584943 144.198679 
L 204.650642 139.397982 
L 205.716341 140.984508 
L 206.78204 140.063883 
L 209.979137 133.836811 
L 211.044836 136.045272 
L 212.110535 133.245523 
L 213.176234 130.098415 
L 214.241933 131.340235 
L 218.504729 125.679695 
L 219.570428 118.547022 
L 220.636127 115.558083 
L 221.701826 102.120451 
L 224.898923 116.020811 
L 225.964622 116.426064 
L 227.030321 121.210545 
L 228.09602 127.350609 
L 229.161719 115.083093 
L 232.358816 110.448718 
L 233.424515 99.432427 
L 234.490214 112.088642 
L 235.555913 109.300918 
L 236.621612 107.662314 
L 239.818709 119.510777 
L 240.884408 116.096577 
L 241.950107 92.602931 
L 243.015806 76.288244 
L 244.081505 68.541988 
L 247.278602 48.401571 
L 248.344301 62.072327 
L 249.41 55.775176 
L 250.475699 64.950272 
L 251.541398 68.616774 
L 254.738496 38.837813 
L 255.804195 36.386171 
L 256.869894 45.538913 
L 257.935593 51.450062 
L 269.658282 25.121252 
L 270.723981 14.256 
L 270.723981 14.256 
" clip-path="url(#pad17a4e5a3)" style="fill: none; stroke: #1f77b4; stroke-width: 1.5; stroke-linecap: square"/>
   </g>
   <g id="patch_3">
    <path d="M 51.403125 162.432 
L 51.403125 7.2 
" style="fill: none; stroke: #000000; stroke-width: 0.8; stroke-linejoin: miter; stroke-linecap: square"/>
   </g>
   <g id="patch_4">
    <path d="M 281.167831 162.432 
L 281.167831 7.2 
" style="fill: none; stroke: #000000; stroke-width: 0.8; stroke-linejoin: miter; stroke-linecap: square"/>
   </g>
   <g id="patch_5">
    <path d="M 51.403125 162.432 
L 281.167831 162.432 
" style="fill: none; stroke: #000000; stroke-width: 0.8; stroke-linejoin: miter; stroke-linecap: square"/>
   </g>
   <g id="patch_6">
    <path d="M 51.403125 7.2 
L 281.167831 7.2 
" style="fill: none; stroke: #000000; stroke-width: 0.8; stroke-linejoin: miter; stroke-linecap: square"/>
   </g>
  </g>
  <g id="axes_2">
   <g id="patch_7">
    <path d="M 327.120772 162.432 
L 556.885478 162.432 
L 556.885478 7.2 
L 327.120772 7.2 
z
" style="fill: #ffffff"/>
   </g>
   <g id="matplotlib.axis_3">
    <g id="xtick_4">
     <g id="line2d_11">
      <g>
       <use xlink:href="#m997eddd4aa" x="384.455379" y="162.432" style="stroke: #000000; stroke-width: 0.8"/>
      </g>
     </g>
     <g id="text_11">
      <!-- 2023-09-20 -->
      <g transform="translate(359.455379 176.307) scale(0.1 -0.1)">
       <use xlink:href="#SimHei-32"/>
       <use xlink:href="#SimHei-30" x="50"/>
       <use xlink:href="#SimHei-32" x="100"/>
       <use xlink:href="#SimHei-33" x="150"/>
       <use xlink:href="#SimHei-2d" x="200"/>
       <use xlink:href="#SimHei-30" x="250"/>
       <use xlink:href="#SimHei-39" x="300"/>
       <use xlink:href="#SimHei-2d" x="350"/>
       <use xlink:href="#SimHei-32" x="400"/>
       <use xlink:href="#SimHei-30" x="450"/>
      </g>
     </g>
    </g>
    <g id="xtick_5">
     <g id="line2d_12">
      <g>
       <use xlink:href="#m997eddd4aa" x="448.397319" y="162.432" style="stroke: #000000; stroke-width: 0.8"/>
      </g>
     </g>
     <g id="text_12">
      <!-- 2023-11-19 -->
      <g transform="translate(423.397319 176.307) scale(0.1 -0.1)">
       <use xlink:href="#SimHei-32"/>
       <use xlink:href="#SimHei-30" x="50"/>
       <use xlink:href="#SimHei-32" x="100"/>
       <use xlink:href="#SimHei-33" x="150"/>
       <use xlink:href="#SimHei-2d" x="200"/>
       <use xlink:href="#SimHei-31" x="250"/>
       <use xlink:href="#SimHei-31" x="300"/>
       <use xlink:href="#SimHei-2d" x="350"/>
       <use xlink:href="#SimHei-31" x="400"/>
       <use xlink:href="#SimHei-39" x="450"/>
      </g>
     </g>
    </g>
    <g id="xtick_6">
     <g id="line2d_13">
      <g>
       <use xlink:href="#m997eddd4aa" x="512.339259" y="162.432" style="stroke: #000000; stroke-width: 0.8"/>
      </g>
     </g>
     <g id="text_13">
      <!-- 2024-01-18 -->
      <g transform="translate(487.339259 176.307) scale(0.1 -0.1)">
       <use xlink:href="#SimHei-32"/>
       <use xlink:href="#SimHei-30" x="50"/>
       <use xlink:href="#SimHei-32" x="100"/>
       <use xlink:href="#SimHei-34" x="150"/>
       <use xlink:href="#SimHei-2d" x="200"/>
       <use xlink:href="#SimHei-30" x="250"/>
       <use xlink:href="#SimHei-31" x="300"/>
       <use xlink:href="#SimHei-2d" x="350"/>
       <use xlink:href="#SimHei-31" x="400"/>
       <use xlink:href="#SimHei-38" x="450"/>
      </g>
     </g>
    </g>
   </g>
   <g id="matplotlib.axis_4">
    <g id="ytick_7">
     <g id="line2d_14">
      <g>
       <use xlink:href="#mee0742d08d" x="327.120772" y="155.376" style="stroke: #000000; stroke-width: 0.8"/>
      </g>
     </g>
     <g id="text_14">
      <!-- 0.0 -->
      <g transform="translate(305.120772 158.8135) scale(0.1 -0.1)">
       <use xlink:href="#SimHei-30"/>
       <use xlink:href="#SimHei-2e" x="50"/>
       <use xlink:href="#SimHei-30" x="100"/>
      </g>
     </g>
    </g>
    <g id="ytick_8">
     <g id="line2d_15">
      <g>
       <use xlink:href="#mee0742d08d" x="327.120772" y="127.152" style="stroke: #000000; stroke-width: 0.8"/>
      </g>
     </g>
     <g id="text_15">
      <!-- 0.2 -->
      <g transform="translate(305.120772 130.5895) scale(0.1 -0.1)">
       <use xlink:href="#SimHei-30"/>
       <use xlink:href="#SimHei-2e" x="50"/>
       <use xlink:href="#SimHei-32" x="100"/>
      </g>
     </g>
    </g>
    <g id="ytick_9">
     <g id="line2d_16">
      <g>
       <use xlink:href="#mee0742d08d" x="327.120772" y="98.928" style="stroke: #000000; stroke-width: 0.8"/>
      </g>
     </g>
     <g id="text_16">
      <!-- 0.4 -->
      <g transform="translate(305.120772 102.3655) scale(0.1 -0.1)">
       <use xlink:href="#SimHei-30"/>
       <use xlink:href="#SimHei-2e" x="50"/>
       <use xlink:href="#SimHei-34" x="100"/>
      </g>
     </g>
    </g>
    <g id="ytick_10">
     <g id="line2d_17">
      <g>
       <use xlink:href="#mee0742d08d" x="327.120772" y="70.704" style="stroke: #000000; stroke-width: 0.8"/>
      </g>
     </g>
     <g id="text_17">
      <!-- 0.6 -->
      <g transform="translate(305.120772 74.1415) scale(0.1 -0.1)">
       <defs>
        <path id="SimHei-36" d="M 250 1612 
Q 275 1975 387 2225 
Q 500 2475 725 2850 
L 1750 4450 
L 2325 4450 
L 1275 2800 
Q 1950 2975 2350 2750 
Q 2750 2525 2887 2237 
Q 3025 1950 3037 1612 
Q 3050 1275 2937 950 
Q 2825 625 2537 362 
Q 2250 100 1737 75 
Q 1225 50 862 262 
Q 500 475 362 862 
Q 225 1250 250 1612 
z
M 1025 787 
Q 1250 550 1625 525 
Q 2000 500 2250 775 
Q 2500 1050 2500 1575 
Q 2500 2100 2187 2300 
Q 1875 2500 1487 2450 
Q 1100 2400 925 2075 
Q 750 1750 775 1387 
Q 800 1025 1025 787 
z
" transform="scale(0.015625)"/>
       </defs>
       <use xlink:href="#SimHei-30"/>
       <use xlink:href="#SimHei-2e" x="50"/>
       <use xlink:href="#SimHei-36" x="100"/>
      </g>
     </g>
    </g>
    <g id="ytick_11">
     <g id="line2d_18">
      <g>
       <use xlink:href="#mee0742d08d" x="327.120772" y="42.48" style="stroke: #000000; stroke-width: 0.8"/>
      </g>
     </g>
     <g id="text_18">
      <!-- 0.8 -->
      <g transform="translate(305.120772 45.9175) scale(0.1 -0.1)">
       <use xlink:href="#SimHei-30"/>
       <use xlink:href="#SimHei-2e" x="50"/>
       <use xlink:href="#SimHei-38" x="100"/>
      </g>
     </g>
    </g>
    <g id="ytick_12">
     <g id="line2d_19">
      <g>
       <use xlink:href="#mee0742d08d" x="327.120772" y="14.256" style="stroke: #000000; stroke-width: 0.8"/>
      </g>
     </g>
     <g id="text_19">
      <!-- 1.0 -->
      <g transform="translate(305.120772 17.6935) scale(0.1 -0.1)">
       <use xlink:href="#SimHei-31"/>
       <use xlink:href="#SimHei-2e" x="50"/>
       <use xlink:href="#SimHei-30" x="100"/>
      </g>
     </g>
    </g>
   </g>
   <g id="line2d_20">
    <path d="M 337.564622 155.376 
L 546.441628 155.375998 
L 546.441628 155.375998 
" clip-path="url(#p1365c57915)" style="fill: none; stroke: #1f77b4; stroke-width: 1.5; stroke-linecap: square"/>
   </g>
   <g id="line2d_21">
    <path d="M 337.564622 155.376 
L 546.441628 155.375998 
L 546.441628 155.375998 
" clip-path="url(#p1365c57915)" style="fill: none; stroke: #ff7f0e; stroke-width: 1.5; stroke-linecap: square"/>
   </g>
   <g id="line2d_22">
    <path d="M 337.564622 155.376 
L 338.630321 146.564816 
L 341.827418 146.529725 
L 346.090214 146.543283 
L 347.155913 149.62145 
L 348.221612 150.28932 
L 349.287311 148.67468 
L 352.484408 146.554113 
L 353.550107 146.553516 
L 354.615806 146.364894 
L 361.01 146.368599 
L 362.075699 150.170675 
L 363.141398 146.406467 
L 364.207097 148.669602 
L 367.404195 147.759247 
L 368.469894 146.385119 
L 370.601292 146.380985 
L 371.666991 148.66792 
L 374.864088 146.380718 
L 375.929787 146.392247 
L 376.995486 148.216116 
L 378.061185 146.382462 
L 384.455379 146.385749 
L 385.521078 149.245349 
L 386.586777 146.384062 
L 391.915272 146.385582 
L 392.980971 148.488349 
L 404.70366 148.364272 
L 405.769359 146.516037 
L 412.163553 146.495633 
L 413.229252 148.666048 
L 414.294951 146.499149 
L 422.820543 146.382192 
L 423.886242 148.066227 
L 427.083339 147.955495 
L 428.149038 146.432049 
L 429.214737 146.433651 
L 430.280436 135.336528 
L 431.346135 146.44297 
L 436.67463 146.458782 
L 437.740329 148.558787 
L 438.806028 146.460481 
L 442.003125 147.966585 
L 443.068824 146.455356 
L 445.200222 146.441803 
L 446.265921 148.768273 
L 449.463018 146.356386 
L 453.725814 146.375491 
L 456.922911 146.327219 
L 457.98861 148.27974 
L 459.054309 146.281008 
L 460.120008 148.692034 
L 461.185707 146.27356 
L 486.762483 146.219249 
L 487.828182 148.434036 
L 488.893881 146.22425 
L 489.95958 146.223688 
L 491.025279 148.884598 
L 495.288075 146.215284 
L 498.485172 146.224475 
L 501.682269 154.479982 
L 502.747968 146.237271 
L 512.339259 146.247645 
L 513.404958 155.234469 
L 516.602055 146.224411 
L 520.864852 146.245826 
L 533.65324 146.241813 
L 534.718939 143.2739 
L 546.441628 148.583655 
L 546.441628 148.583655 
" clip-path="url(#p1365c57915)" style="fill: none; stroke: #2ca02c; stroke-width: 1.5; stroke-linecap: square"/>
   </g>
   <g id="line2d_23">
    <path d="M 337.564622 155.376 
L 338.630321 148.038211 
L 345.024515 148.056803 
L 346.090214 147.991676 
L 347.155913 151.285269 
L 348.221612 150.43249 
L 349.287311 150.64026 
L 352.484408 147.972357 
L 353.550107 147.98641 
L 354.615806 148.613465 
L 361.01 148.593986 
L 362.075699 150.384808 
L 363.141398 148.533973 
L 364.207097 151.605597 
L 367.404195 152.860917 
L 368.469894 148.560877 
L 370.601292 148.563984 
L 371.666991 151.580068 
L 374.864088 148.554161 
L 375.929787 148.555914 
L 376.995486 150.97945 
L 378.061185 148.563719 
L 384.455379 148.557861 
L 385.521078 151.773045 
L 386.586777 148.555353 
L 391.915272 148.559519 
L 392.980971 151.015646 
L 404.70366 150.800326 
L 405.769359 148.215632 
L 412.163553 148.229261 
L 413.229252 151.371971 
L 414.294951 148.240484 
L 422.820543 148.34129 
L 423.886242 150.552759 
L 427.083339 152.199747 
L 428.149038 148.18132 
L 429.214737 148.072306 
L 430.280436 155.125576 
L 431.346135 148.067225 
L 436.67463 147.986873 
L 437.740329 149.102852 
L 438.806028 147.983705 
L 442.003125 150.009779 
L 443.068824 147.972856 
L 445.200222 147.974702 
L 446.265921 151.381867 
L 449.463018 148.197494 
L 453.725814 148.165226 
L 456.922911 148.28762 
L 457.98861 151.080567 
L 459.054309 148.363247 
L 460.120008 151.660104 
L 461.185707 148.394166 
L 471.842697 148.489538 
L 479.30259 148.520137 
L 483.565386 148.444231 
L 486.762483 148.449733 
L 487.828182 151.755119 
L 488.893881 148.441698 
L 489.95958 148.443411 
L 491.025279 151.973792 
L 495.288075 148.4483 
L 498.485172 148.469036 
L 501.682269 150.68995 
L 502.747968 148.454535 
L 509.142162 148.405819 
L 512.339259 148.413179 
L 513.404958 151.122467 
L 516.602055 148.465534 
L 519.799153 148.457202 
L 533.65324 148.534128 
L 534.718939 152.891718 
L 546.441628 151.745124 
L 546.441628 151.745124 
" clip-path="url(#p1365c57915)" style="fill: none; stroke: #d62728; stroke-width: 1.5; stroke-linecap: square"/>
   </g>
   <g id="line2d_24">
    <path d="M 337.564622 155.376 
L 546.441628 155.375999 
L 546.441628 155.375999 
" clip-path="url(#p1365c57915)" style="fill: none; stroke: #9467bd; stroke-width: 1.5; stroke-linecap: square"/>
   </g>
   <g id="line2d_25">
    <path d="M 337.564622 155.376 
L 546.441628 155.375998 
L 546.441628 155.375998 
" clip-path="url(#p1365c57915)" style="fill: none; stroke: #8c564b; stroke-width: 1.5; stroke-linecap: square"/>
   </g>
   <g id="line2d_26">
    <path d="M 337.564622 155.376 
L 346.090214 155.375829 
L 347.155913 152.151714 
L 348.221612 149.545617 
L 349.287311 151.354003 
L 352.484408 155.375962 
L 361.01 155.37569 
L 362.075699 154.376561 
L 363.141398 155.375767 
L 364.207097 150.793271 
L 367.404195 151.246014 
L 368.469894 155.375664 
L 370.601292 155.37574 
L 371.666991 150.794457 
L 374.864088 155.375913 
L 375.929787 155.375753 
L 376.995486 152.015904 
L 378.061185 155.375965 
L 384.455379 155.375951 
L 385.521078 150.369655 
L 386.586777 155.375772 
L 391.915272 155.375817 
L 392.980971 151.314553 
L 404.70366 151.6982 
L 405.769359 155.375811 
L 412.163553 155.375709 
L 413.229252 150.823037 
L 414.294951 155.37596 
L 422.820543 155.375918 
L 423.886242 151.836072 
L 427.083339 150.172701 
L 428.149038 155.37476 
L 429.214737 155.375559 
L 430.280436 152.909542 
L 431.346135 155.375846 
L 436.67463 155.375699 
L 437.740329 152.124681 
L 438.806028 155.375757 
L 442.003125 152.157635 
L 443.068824 155.375927 
L 445.200222 155.375849 
L 446.265921 150.246763 
L 449.463018 155.375911 
L 456.922911 155.37595 
L 457.98861 151.135693 
L 459.054309 155.37579 
L 460.120008 150.184508 
L 461.185707 155.375758 
L 486.762483 155.375945 
L 487.828182 150.488135 
L 488.893881 155.375851 
L 489.95958 155.375942 
L 491.025279 150.201738 
L 495.288075 155.375935 
L 498.485172 155.375675 
L 501.682269 149.727639 
L 502.747968 155.375588 
L 512.339259 155.375873 
L 513.404958 149.828735 
L 516.602055 155.375757 
L 533.65324 155.375959 
L 534.718939 150.879899 
L 546.441628 150.723729 
L 546.441628 150.723729 
" clip-path="url(#p1365c57915)" style="fill: none; stroke: #e377c2; stroke-width: 1.5; stroke-linecap: square"/>
   </g>
   <g id="line2d_27">
    <path d="M 337.564622 155.376 
L 338.630321 82.096181 
L 346.090214 82.080439 
L 347.155913 83.385139 
L 348.221612 84.47056 
L 349.287311 81.906646 
L 353.550107 82.080093 
L 354.615806 81.911084 
L 361.01 81.918317 
L 362.075699 68.176149 
L 363.141398 81.947472 
L 364.207097 81.787694 
L 367.404195 80.570042 
L 368.469894 81.931214 
L 370.601292 81.928393 
L 371.666991 81.811881 
L 375.929787 81.929064 
L 376.995486 81.643306 
L 378.061185 81.92879 
L 384.455379 81.931445 
L 385.521078 81.403734 
L 386.586777 81.930261 
L 391.915272 81.942446 
L 392.980971 81.728826 
L 404.70366 81.732976 
L 405.769359 81.956365 
L 412.163553 81.953415 
L 413.229252 81.820829 
L 414.294951 81.951168 
L 416.426349 81.950111 
L 420.689145 81.729171 
L 422.820543 81.725429 
L 423.886242 81.537849 
L 429.214737 81.798752 
L 430.280436 89.660449 
L 431.346135 81.798353 
L 436.67463 81.831402 
L 437.740329 82.298797 
L 438.806028 81.836207 
L 442.003125 81.424218 
L 443.068824 81.829339 
L 445.200222 81.841764 
L 446.265921 81.221069 
L 449.463018 81.702862 
L 456.922911 81.614826 
L 457.98861 80.993387 
L 459.054309 81.576127 
L 460.120008 80.820853 
L 461.185707 81.582702 
L 486.762483 81.48746 
L 487.828182 80.595632 
L 488.893881 81.485717 
L 489.95958 81.489578 
L 491.025279 80.044087 
L 495.288075 81.489856 
L 498.485172 81.485133 
L 501.682269 80.484918 
L 502.747968 81.499553 
L 512.339259 81.492238 
L 513.404958 76.145998 
L 516.602055 81.471471 
L 525.127648 81.485699 
L 533.65324 81.465535 
L 534.718939 79.226275 
L 546.441628 80.530928 
L 546.441628 80.530928 
" clip-path="url(#p1365c57915)" style="fill: none; stroke: #7f7f7f; stroke-width: 1.5; stroke-linecap: square"/>
   </g>
   <g id="line2d_28">
    <path d="M 337.564622 155.376 
L 346.090214 155.375802 
L 347.155913 142.36952 
L 348.221612 155.375937 
L 349.287311 150.046386 
L 352.484408 155.375963 
L 361.01 155.375647 
L 362.075699 140.545983 
L 363.141398 155.375669 
L 364.207097 149.456017 
L 367.404195 149.359576 
L 368.469894 155.375638 
L 370.601292 155.375701 
L 371.666991 149.46182 
L 374.864088 155.375867 
L 375.929787 155.375711 
L 376.995486 150.935208 
L 378.061185 155.37596 
L 384.455379 155.375936 
L 385.521078 148.738712 
L 386.586777 155.375728 
L 391.915272 155.375776 
L 392.980971 150.672661 
L 404.70366 151.026428 
L 405.769359 155.375786 
L 412.163553 155.375719 
L 413.229252 149.865763 
L 414.294951 155.375955 
L 422.820543 155.375911 
L 423.886242 152.0816 
L 427.083339 149.774094 
L 428.149038 155.374799 
L 429.214737 155.37556 
L 430.280436 148.38045 
L 431.346135 155.375864 
L 436.67463 155.375685 
L 437.740329 149.380061 
L 438.806028 155.375783 
L 442.003125 152.359902 
L 443.068824 155.375926 
L 445.200222 155.375854 
L 446.265921 149.163899 
L 449.463018 155.375908 
L 456.922911 155.375953 
L 457.98861 150.156732 
L 459.054309 155.375816 
L 460.120008 148.841692 
L 461.185707 155.375737 
L 486.762483 155.375947 
L 487.828182 148.316458 
L 488.893881 155.375874 
L 489.95958 155.375941 
L 491.025279 148.197963 
L 495.288075 155.375954 
L 498.485172 155.375669 
L 501.682269 146.742045 
L 502.747968 155.375603 
L 512.339259 155.375855 
L 513.404958 145.518631 
L 516.602055 155.375711 
L 533.65324 155.375956 
L 534.718939 143.501771 
L 546.441628 148.311222 
L 546.441628 148.311222 
" clip-path="url(#p1365c57915)" style="fill: none; stroke: #bcbd22; stroke-width: 1.5; stroke-linecap: square"/>
   </g>
   <g id="line2d_29">
    <path d="M 337.564622 155.376 
L 338.630321 103.686062 
L 346.090214 103.769049 
L 347.155913 112.32295 
L 348.221612 101.022129 
L 349.287311 108.51403 
L 352.484408 103.778359 
L 353.550107 103.764399 
L 354.615806 103.494745 
L 361.01 103.503923 
L 362.075699 127.481877 
L 363.141398 103.496801 
L 364.207097 108.823824 
L 367.404195 109.340253 
L 368.469894 103.507636 
L 370.601292 103.511328 
L 371.666991 108.81986 
L 374.864088 103.511346 
L 375.929787 103.507421 
L 376.995486 107.346017 
L 378.061185 103.50912 
L 384.455379 103.509083 
L 385.521078 109.605522 
L 386.586777 103.514956 
L 391.915272 103.496947 
L 392.980971 107.915969 
L 404.70366 107.513801 
L 405.769359 103.696483 
L 412.163553 103.70638 
L 413.229252 108.588357 
L 414.294951 103.693304 
L 416.426349 103.685562 
L 420.689145 103.936117 
L 422.820543 103.935303 
L 423.886242 107.061495 
L 427.083339 109.349617 
L 428.149038 103.948988 
L 429.214737 104.08038 
L 430.280436 109.723964 
L 431.346135 104.075804 
L 436.67463 104.107715 
L 437.740329 109.67087 
L 438.806028 104.104186 
L 442.003125 107.217884 
L 443.068824 104.126642 
L 445.200222 104.126103 
L 446.265921 110.354144 
L 449.463018 104.12748 
L 456.922911 104.154453 
L 457.98861 109.489885 
L 459.054309 104.164087 
L 460.120008 110.936824 
L 461.185707 104.134228 
L 486.762483 104.22769 
L 487.828182 111.546632 
L 488.893881 104.232664 
L 489.95958 104.22747 
L 491.025279 111.833839 
L 495.288075 104.230693 
L 498.485172 104.206174 
L 501.682269 109.011677 
L 502.747968 104.193621 
L 505.945065 104.230178 
L 512.339259 104.231282 
L 513.404958 113.285912 
L 516.602055 104.223268 
L 528.324745 104.123824 
L 533.65324 104.142631 
L 534.718939 121.362626 
L 546.441628 111.241348 
L 546.441628 111.241348 
" clip-path="url(#p1365c57915)" style="fill: none; stroke: #17becf; stroke-width: 1.5; stroke-linecap: square"/>
   </g>
   <g id="line2d_30">
    <path d="M 337.564622 14.256 
L 338.630321 155.376 
L 546.441628 155.376 
L 546.441628 155.376 
" clip-path="url(#p1365c57915)" style="fill: none; stroke: #1f77b4; stroke-width: 1.5; stroke-linecap: square"/>
   </g>
   <g id="patch_8">
    <path d="M 327.120772 162.432 
L 327.120772 7.2 
" style="fill: none; stroke: #000000; stroke-width: 0.8; stroke-linejoin: miter; stroke-linecap: square"/>
   </g>
   <g id="patch_9">
    <path d="M 556.885478 162.432 
L 556.885478 7.2 
" style="fill: none; stroke: #000000; stroke-width: 0.8; stroke-linejoin: miter; stroke-linecap: square"/>
   </g>
   <g id="patch_10">
    <path d="M 327.120772 162.432 
L 556.885478 162.432 
" style="fill: none; stroke: #000000; stroke-width: 0.8; stroke-linejoin: miter; stroke-linecap: square"/>
   </g>
   <g id="patch_11">
    <path d="M 327.120772 7.2 
L 556.885478 7.2 
" style="fill: none; stroke: #000000; stroke-width: 0.8; stroke-linejoin: miter; stroke-linecap: square"/>
   </g>
   <g id="legend_1">
    <g id="patch_12">
     <path d="M 334.120772 148.60625 
L 421.120772 148.60625 
Q 423.120772 148.60625 423.120772 146.60625 
L 423.120772 14.2 
Q 423.120772 12.2 421.120772 12.2 
L 334.120772 12.2 
Q 332.120772 12.2 332.120772 14.2 
L 332.120772 146.60625 
Q 332.120772 148.60625 334.120772 148.60625 
z
" style="fill: #ffffff; opacity: 0.8; stroke: #cccccc; stroke-linejoin: miter"/>
    </g>
    <g id="line2d_31">
     <path d="M 336.120772 19.73125 
L 346.120772 19.73125 
L 356.120772 19.73125 
" style="fill: none; stroke: #1f77b4; stroke-width: 1.5; stroke-linecap: square"/>
    </g>
    <g id="text_20">
     <!-- w_002027.SZ -->
     <g transform="translate(364.120772 23.23125) scale(0.1 -0.1)">
      <defs>
       <path id="SimHei-77" d="M 3075 2925 
L 2450 75 
L 1975 75 
L 1575 2250 
L 1525 2250 
L 1125 75 
L 650 75 
L 25 2925 
L 550 2925 
L 875 1050 
L 925 1050 
L 1275 2925 
L 1825 2925 
L 2175 1050 
L 2225 1050 
L 2550 2925 
L 3075 2925 
z
" transform="scale(0.015625)"/>
       <path id="SimHei-5f" d="M 3150 -850 
L 0 -850 
L 0 -550 
L 3150 -550 
L 3150 -850 
z
" transform="scale(0.015625)"/>
       <path id="SimHei-53" d="M 2900 1325 
Q 2900 750 2537 412 
Q 2175 75 1550 75 
Q 925 75 575 425 
Q 225 775 225 1300 
L 225 1475 
L 800 1475 
L 800 1325 
Q 800 950 1025 750 
Q 1250 550 1550 550 
Q 1950 550 2137 762 
Q 2325 975 2325 1275 
Q 2325 1525 2100 1737 
Q 1875 1950 1450 2125 
Q 850 2350 587 2625 
Q 325 2900 325 3275 
Q 325 3800 687 4125 
Q 1050 4450 1550 4450 
Q 2200 4450 2487 4062 
Q 2775 3675 2775 3225 
L 2200 3225 
Q 2225 3500 2050 3725 
Q 1875 3950 1550 3950 
Q 1250 3950 1075 3787 
Q 900 3625 900 3350 
Q 900 3125 1037 2962 
Q 1175 2800 1750 2575 
Q 2300 2350 2600 2037 
Q 2900 1725 2900 1325 
z
" transform="scale(0.015625)"/>
       <path id="SimHei-5a" d="M 2900 125 
L 225 125 
L 225 600 
L 2250 3925 
L 375 3925 
L 375 4400 
L 2825 4400 
L 2825 3925 
L 800 600 
L 2900 600 
L 2900 125 
z
" transform="scale(0.015625)"/>
      </defs>
      <use xlink:href="#SimHei-77"/>
      <use xlink:href="#SimHei-5f" x="50"/>
      <use xlink:href="#SimHei-30" x="100"/>
      <use xlink:href="#SimHei-30" x="150"/>
      <use xlink:href="#SimHei-32" x="200"/>
      <use xlink:href="#SimHei-30" x="250"/>
      <use xlink:href="#SimHei-32" x="300"/>
      <use xlink:href="#SimHei-37" x="350"/>
      <use xlink:href="#SimHei-2e" x="400"/>
      <use xlink:href="#SimHei-53" x="450"/>
      <use xlink:href="#SimHei-5a" x="500"/>
     </g>
    </g>
    <g id="line2d_32">
     <path d="M 336.120772 33.090625 
L 346.120772 33.090625 
L 356.120772 33.090625 
" style="fill: none; stroke: #ff7f0e; stroke-width: 1.5; stroke-linecap: square"/>
    </g>
    <g id="text_21">
     <!-- w_002371.SZ -->
     <g transform="translate(364.120772 36.590625) scale(0.1 -0.1)">
      <use xlink:href="#SimHei-77"/>
      <use xlink:href="#SimHei-5f" x="50"/>
      <use xlink:href="#SimHei-30" x="100"/>
      <use xlink:href="#SimHei-30" x="150"/>
      <use xlink:href="#SimHei-32" x="200"/>
      <use xlink:href="#SimHei-33" x="250"/>
      <use xlink:href="#SimHei-37" x="300"/>
      <use xlink:href="#SimHei-31" x="350"/>
      <use xlink:href="#SimHei-2e" x="400"/>
      <use xlink:href="#SimHei-53" x="450"/>
      <use xlink:href="#SimHei-5a" x="500"/>
     </g>
    </g>
    <g id="line2d_33">
     <path d="M 336.120772 46.41875 
L 346.120772 46.41875 
L 356.120772 46.41875 
" style="fill: none; stroke: #2ca02c; stroke-width: 1.5; stroke-linecap: square"/>
    </g>
    <g id="text_22">
     <!-- w_600009.SH -->
     <g transform="translate(364.120772 49.91875) scale(0.1 -0.1)">
      <defs>
       <path id="SimHei-48" d="M 2850 125 
L 2275 125 
L 2275 2125 
L 850 2125 
L 850 125 
L 275 125 
L 275 4400 
L 850 4400 
L 850 2600 
L 2275 2600 
L 2275 4400 
L 2850 4400 
L 2850 125 
z
" transform="scale(0.015625)"/>
      </defs>
      <use xlink:href="#SimHei-77"/>
      <use xlink:href="#SimHei-5f" x="50"/>
      <use xlink:href="#SimHei-36" x="100"/>
      <use xlink:href="#SimHei-30" x="150"/>
      <use xlink:href="#SimHei-30" x="200"/>
      <use xlink:href="#SimHei-30" x="250"/>
      <use xlink:href="#SimHei-30" x="300"/>
      <use xlink:href="#SimHei-39" x="350"/>
      <use xlink:href="#SimHei-2e" x="400"/>
      <use xlink:href="#SimHei-53" x="450"/>
      <use xlink:href="#SimHei-48" x="500"/>
     </g>
    </g>
    <g id="line2d_34">
     <path d="M 336.120772 59.778125 
L 346.120772 59.778125 
L 356.120772 59.778125 
" style="fill: none; stroke: #d62728; stroke-width: 1.5; stroke-linecap: square"/>
    </g>
    <g id="text_23">
     <!-- w_600029.SH -->
     <g transform="translate(364.120772 63.278125) scale(0.1 -0.1)">
      <use xlink:href="#SimHei-77"/>
      <use xlink:href="#SimHei-5f" x="50"/>
      <use xlink:href="#SimHei-36" x="100"/>
      <use xlink:href="#SimHei-30" x="150"/>
      <use xlink:href="#SimHei-30" x="200"/>
      <use xlink:href="#SimHei-30" x="250"/>
      <use xlink:href="#SimHei-32" x="300"/>
      <use xlink:href="#SimHei-39" x="350"/>
      <use xlink:href="#SimHei-2e" x="400"/>
      <use xlink:href="#SimHei-53" x="450"/>
      <use xlink:href="#SimHei-48" x="500"/>
     </g>
    </g>
    <g id="line2d_35">
     <path d="M 336.120772 73.1375 
L 346.120772 73.1375 
L 356.120772 73.1375 
" style="fill: none; stroke: #9467bd; stroke-width: 1.5; stroke-linecap: square"/>
    </g>
    <g id="text_24">
     <!-- w_600183.SH -->
     <g transform="translate(364.120772 76.6375) scale(0.1 -0.1)">
      <use xlink:href="#SimHei-77"/>
      <use xlink:href="#SimHei-5f" x="50"/>
      <use xlink:href="#SimHei-36" x="100"/>
      <use xlink:href="#SimHei-30" x="150"/>
      <use xlink:href="#SimHei-30" x="200"/>
      <use xlink:href="#SimHei-31" x="250"/>
      <use xlink:href="#SimHei-38" x="300"/>
      <use xlink:href="#SimHei-33" x="350"/>
      <use xlink:href="#SimHei-2e" x="400"/>
      <use xlink:href="#SimHei-53" x="450"/>
      <use xlink:href="#SimHei-48" x="500"/>
     </g>
    </g>
    <g id="line2d_36">
     <path d="M 336.120772 86.465625 
L 346.120772 86.465625 
L 356.120772 86.465625 
" style="fill: none; stroke: #8c564b; stroke-width: 1.5; stroke-linecap: square"/>
    </g>
    <g id="text_25">
     <!-- w_600406.SH -->
     <g transform="translate(364.120772 89.965625) scale(0.1 -0.1)">
      <use xlink:href="#SimHei-77"/>
      <use xlink:href="#SimHei-5f" x="50"/>
      <use xlink:href="#SimHei-36" x="100"/>
      <use xlink:href="#SimHei-30" x="150"/>
      <use xlink:href="#SimHei-30" x="200"/>
      <use xlink:href="#SimHei-34" x="250"/>
      <use xlink:href="#SimHei-30" x="300"/>
      <use xlink:href="#SimHei-36" x="350"/>
      <use xlink:href="#SimHei-2e" x="400"/>
      <use xlink:href="#SimHei-53" x="450"/>
      <use xlink:href="#SimHei-48" x="500"/>
     </g>
    </g>
    <g id="line2d_37">
     <path d="M 336.120772 99.79375 
L 346.120772 99.79375 
L 356.120772 99.79375 
" style="fill: none; stroke: #e377c2; stroke-width: 1.5; stroke-linecap: square"/>
    </g>
    <g id="text_26">
     <!-- w_600900.SH -->
     <g transform="translate(364.120772 103.29375) scale(0.1 -0.1)">
      <use xlink:href="#SimHei-77"/>
      <use xlink:href="#SimHei-5f" x="50"/>
      <use xlink:href="#SimHei-36" x="100"/>
      <use xlink:href="#SimHei-30" x="150"/>
      <use xlink:href="#SimHei-30" x="200"/>
      <use xlink:href="#SimHei-39" x="250"/>
      <use xlink:href="#SimHei-30" x="300"/>
      <use xlink:href="#SimHei-30" x="350"/>
      <use xlink:href="#SimHei-2e" x="400"/>
      <use xlink:href="#SimHei-53" x="450"/>
      <use xlink:href="#SimHei-48" x="500"/>
     </g>
    </g>
    <g id="line2d_38">
     <path d="M 336.120772 113.121875 
L 346.120772 113.121875 
L 356.120772 113.121875 
" style="fill: none; stroke: #7f7f7f; stroke-width: 1.5; stroke-linecap: square"/>
    </g>
    <g id="text_27">
     <!-- w_601989.SH -->
     <g transform="translate(364.120772 116.621875) scale(0.1 -0.1)">
      <use xlink:href="#SimHei-77"/>
      <use xlink:href="#SimHei-5f" x="50"/>
      <use xlink:href="#SimHei-36" x="100"/>
      <use xlink:href="#SimHei-30" x="150"/>
      <use xlink:href="#SimHei-31" x="200"/>
      <use xlink:href="#SimHei-39" x="250"/>
      <use xlink:href="#SimHei-38" x="300"/>
      <use xlink:href="#SimHei-39" x="350"/>
      <use xlink:href="#SimHei-2e" x="400"/>
      <use xlink:href="#SimHei-53" x="450"/>
      <use xlink:href="#SimHei-48" x="500"/>
     </g>
    </g>
    <g id="line2d_39">
     <path d="M 336.120772 126.45 
L 346.120772 126.45 
L 356.120772 126.45 
" style="fill: none; stroke: #bcbd22; stroke-width: 1.5; stroke-linecap: square"/>
    </g>
    <g id="text_28">
     <!-- w_601998.SH -->
     <g transform="translate(364.120772 129.95) scale(0.1 -0.1)">
      <use xlink:href="#SimHei-77"/>
      <use xlink:href="#SimHei-5f" x="50"/>
      <use xlink:href="#SimHei-36" x="100"/>
      <use xlink:href="#SimHei-30" x="150"/>
      <use xlink:href="#SimHei-31" x="200"/>
      <use xlink:href="#SimHei-39" x="250"/>
      <use xlink:href="#SimHei-39" x="300"/>
      <use xlink:href="#SimHei-38" x="350"/>
      <use xlink:href="#SimHei-2e" x="400"/>
      <use xlink:href="#SimHei-53" x="450"/>
      <use xlink:href="#SimHei-48" x="500"/>
     </g>
    </g>
    <g id="line2d_40">
     <path d="M 336.120772 139.778125 
L 346.120772 139.778125 
L 356.120772 139.778125 
" style="fill: none; stroke: #17becf; stroke-width: 1.5; stroke-linecap: square"/>
    </g>
    <g id="text_29">
     <!-- w_CASH -->
     <g transform="translate(364.120772 143.278125) scale(0.1 -0.1)">
      <defs>
       <path id="SimHei-43" d="M 2975 1825 
Q 2950 875 2575 475 
Q 2200 75 1675 75 
Q 1075 75 650 562 
Q 225 1050 225 2125 
Q 225 3300 637 3875 
Q 1050 4450 1700 4450 
Q 2250 4450 2612 4037 
Q 2975 3625 2950 2875 
L 2400 2875 
Q 2400 3425 2225 3700 
Q 2050 3975 1700 3975 
Q 1300 3975 1062 3562 
Q 825 3150 825 2175 
Q 825 1275 1062 912 
Q 1300 550 1675 550 
Q 1950 550 2175 812 
Q 2400 1075 2400 1825 
L 2975 1825 
z
" transform="scale(0.015625)"/>
       <path id="SimHei-41" d="M 3075 125 
L 2475 125 
L 2125 1450 
L 1025 1450 
L 675 125 
L 75 125 
L 1325 4450 
L 1825 4450 
L 3075 125 
z
M 2000 1925 
L 1600 3450 
L 1550 3450 
L 1150 1925 
L 2000 1925 
z
" transform="scale(0.015625)"/>
      </defs>
      <use xlink:href="#SimHei-77"/>
      <use xlink:href="#SimHei-5f" x="50"/>
      <use xlink:href="#SimHei-43" x="100"/>
      <use xlink:href="#SimHei-41" x="150"/>
      <use xlink:href="#SimHei-53" x="200"/>
      <use xlink:href="#SimHei-48" x="250"/>
     </g>
    </g>
   </g>
  </g>
  <g id="axes_3">
   <g id="patch_13">
    <path d="M 602.838419 162.432 
L 832.603125 162.432 
L 832.603125 7.2 
L 602.838419 7.2 
z
" style="fill: #ffffff"/>
   </g>
   <g id="matplotlib.axis_5">
    <g id="xtick_7">
     <g id="line2d_41">
      <g>
       <use xlink:href="#m997eddd4aa" x="659.107327" y="162.432" style="stroke: #000000; stroke-width: 0.8"/>
      </g>
     </g>
     <g id="text_30">
      <!-- 2023-09-20 -->
      <g transform="translate(634.107327 176.307) scale(0.1 -0.1)">
       <use xlink:href="#SimHei-32"/>
       <use xlink:href="#SimHei-30" x="50"/>
       <use xlink:href="#SimHei-32" x="100"/>
       <use xlink:href="#SimHei-33" x="150"/>
       <use xlink:href="#SimHei-2d" x="200"/>
       <use xlink:href="#SimHei-30" x="250"/>
       <use xlink:href="#SimHei-39" x="300"/>
       <use xlink:href="#SimHei-2d" x="350"/>
       <use xlink:href="#SimHei-32" x="400"/>
       <use xlink:href="#SimHei-30" x="450"/>
      </g>
     </g>
    </g>
    <g id="xtick_8">
     <g id="line2d_42">
      <g>
       <use xlink:href="#m997eddd4aa" x="723.049267" y="162.432" style="stroke: #000000; stroke-width: 0.8"/>
      </g>
     </g>
     <g id="text_31">
      <!-- 2023-11-19 -->
      <g transform="translate(698.049267 176.307) scale(0.1 -0.1)">
       <use xlink:href="#SimHei-32"/>
       <use xlink:href="#SimHei-30" x="50"/>
       <use xlink:href="#SimHei-32" x="100"/>
       <use xlink:href="#SimHei-33" x="150"/>
       <use xlink:href="#SimHei-2d" x="200"/>
       <use xlink:href="#SimHei-31" x="250"/>
       <use xlink:href="#SimHei-31" x="300"/>
       <use xlink:href="#SimHei-2d" x="350"/>
       <use xlink:href="#SimHei-31" x="400"/>
       <use xlink:href="#SimHei-39" x="450"/>
      </g>
     </g>
    </g>
    <g id="xtick_9">
     <g id="line2d_43">
      <g>
       <use xlink:href="#m997eddd4aa" x="786.991208" y="162.432" style="stroke: #000000; stroke-width: 0.8"/>
      </g>
     </g>
     <g id="text_32">
      <!-- 2024-01-18 -->
      <g transform="translate(761.991208 176.307) scale(0.1 -0.1)">
       <use xlink:href="#SimHei-32"/>
       <use xlink:href="#SimHei-30" x="50"/>
       <use xlink:href="#SimHei-32" x="100"/>
       <use xlink:href="#SimHei-34" x="150"/>
       <use xlink:href="#SimHei-2d" x="200"/>
       <use xlink:href="#SimHei-30" x="250"/>
       <use xlink:href="#SimHei-31" x="300"/>
       <use xlink:href="#SimHei-2d" x="350"/>
       <use xlink:href="#SimHei-31" x="400"/>
       <use xlink:href="#SimHei-38" x="450"/>
      </g>
     </g>
    </g>
   </g>
   <g id="matplotlib.axis_6">
    <g id="ytick_13">
     <g id="line2d_44">
      <g>
       <use xlink:href="#mee0742d08d" x="602.838419" y="155.376" style="stroke: #000000; stroke-width: 0.8"/>
      </g>
     </g>
     <g id="text_33">
      <!-- 0.0000 -->
      <g transform="translate(565.838419 158.8135) scale(0.1 -0.1)">
       <use xlink:href="#SimHei-30"/>
       <use xlink:href="#SimHei-2e" x="50"/>
       <use xlink:href="#SimHei-30" x="100"/>
       <use xlink:href="#SimHei-30" x="150"/>
       <use xlink:href="#SimHei-30" x="200"/>
       <use xlink:href="#SimHei-30" x="250"/>
      </g>
     </g>
    </g>
    <g id="ytick_14">
     <g id="line2d_45">
      <g>
       <use xlink:href="#mee0742d08d" x="602.838419" y="127.152" style="stroke: #000000; stroke-width: 0.8"/>
      </g>
     </g>
     <g id="text_34">
      <!-- 0.0005 -->
      <g transform="translate(565.838419 130.5895) scale(0.1 -0.1)">
       <use xlink:href="#SimHei-30"/>
       <use xlink:href="#SimHei-2e" x="50"/>
       <use xlink:href="#SimHei-30" x="100"/>
       <use xlink:href="#SimHei-30" x="150"/>
       <use xlink:href="#SimHei-30" x="200"/>
       <use xlink:href="#SimHei-35" x="250"/>
      </g>
     </g>
    </g>
    <g id="ytick_15">
     <g id="line2d_46">
      <g>
       <use xlink:href="#mee0742d08d" x="602.838419" y="98.928" style="stroke: #000000; stroke-width: 0.8"/>
      </g>
     </g>
     <g id="text_35">
      <!-- 0.0010 -->
      <g transform="translate(565.838419 102.3655) scale(0.1 -0.1)">
       <use xlink:href="#SimHei-30"/>
       <use xlink:href="#SimHei-2e" x="50"/>
       <use xlink:href="#SimHei-30" x="100"/>
       <use xlink:href="#SimHei-30" x="150"/>
       <use xlink:href="#SimHei-31" x="200"/>
       <use xlink:href="#SimHei-30" x="250"/>
      </g>
     </g>
    </g>
    <g id="ytick_16">
     <g id="line2d_47">
      <g>
       <use xlink:href="#mee0742d08d" x="602.838419" y="70.704" style="stroke: #000000; stroke-width: 0.8"/>
      </g>
     </g>
     <g id="text_36">
      <!-- 0.0015 -->
      <g transform="translate(565.838419 74.1415) scale(0.1 -0.1)">
       <use xlink:href="#SimHei-30"/>
       <use xlink:href="#SimHei-2e" x="50"/>
       <use xlink:href="#SimHei-30" x="100"/>
       <use xlink:href="#SimHei-30" x="150"/>
       <use xlink:href="#SimHei-31" x="200"/>
       <use xlink:href="#SimHei-35" x="250"/>
      </g>
     </g>
    </g>
    <g id="ytick_17">
     <g id="line2d_48">
      <g>
       <use xlink:href="#mee0742d08d" x="602.838419" y="42.48" style="stroke: #000000; stroke-width: 0.8"/>
      </g>
     </g>
     <g id="text_37">
      <!-- 0.0020 -->
      <g transform="translate(565.838419 45.9175) scale(0.1 -0.1)">
       <use xlink:href="#SimHei-30"/>
       <use xlink:href="#SimHei-2e" x="50"/>
       <use xlink:href="#SimHei-30" x="100"/>
       <use xlink:href="#SimHei-30" x="150"/>
       <use xlink:href="#SimHei-32" x="200"/>
       <use xlink:href="#SimHei-30" x="250"/>
      </g>
     </g>
    </g>
    <g id="ytick_18">
     <g id="line2d_49">
      <g>
       <use xlink:href="#mee0742d08d" x="602.838419" y="14.256" style="stroke: #000000; stroke-width: 0.8"/>
      </g>
     </g>
     <g id="text_38">
      <!-- 0.0025 -->
      <g transform="translate(565.838419 17.6935) scale(0.1 -0.1)">
       <use xlink:href="#SimHei-30"/>
       <use xlink:href="#SimHei-2e" x="50"/>
       <use xlink:href="#SimHei-30" x="100"/>
       <use xlink:href="#SimHei-30" x="150"/>
       <use xlink:href="#SimHei-32" x="200"/>
       <use xlink:href="#SimHei-35" x="250"/>
      </g>
     </g>
    </g>
   </g>
   <g id="line2d_50">
    <path d="M 613.282269 14.256 
L 614.347968 155.151248 
L 615.413667 154.61806 
L 616.479366 154.871039 
L 619.676463 153.921834 
L 620.742162 154.683662 
L 621.807861 122.915204 
L 622.87356 124.605825 
L 623.939259 135.578846 
L 627.136356 135.460188 
L 628.202055 154.889358 
L 629.267754 154.225924 
L 630.333453 154.504457 
L 631.399153 153.785961 
L 634.59625 154.064162 
L 635.661949 154.302869 
L 636.727648 96.906707 
L 637.793347 96.168819 
L 638.859046 133.04264 
L 642.056143 148.399963 
L 643.121842 131.021353 
L 644.187541 154.677348 
L 645.25324 154.301756 
L 646.318939 134.277578 
L 649.516036 133.896574 
L 650.581735 155.128185 
L 651.647434 139.775282 
L 652.713133 139.238123 
L 653.778832 155.245568 
L 656.975929 154.381922 
L 658.041628 154.771011 
L 659.107327 154.668021 
L 660.173026 130.93973 
L 661.238725 131.285764 
L 664.435822 155.208916 
L 665.501521 155.175501 
L 666.56722 154.997266 
L 667.632919 137.316957 
L 679.355608 152.753431 
L 680.421307 138.364459 
L 681.487006 154.862269 
L 682.552705 153.374546 
L 683.618404 154.728627 
L 686.815501 154.831927 
L 687.8812 135.017988 
L 688.946899 135.26889 
L 690.012598 154.611324 
L 691.078297 155.193617 
L 694.275394 154.759411 
L 695.341093 153.157041 
L 696.406792 153.063941 
L 697.472491 154.624091 
L 698.53819 141.184174 
L 701.735287 147.522793 
L 702.800986 133.618307 
L 703.866685 154.731789 
L 704.932384 113.983472 
L 705.998083 113.100207 
L 709.19518 154.164672 
L 710.260879 155.062642 
L 711.326578 154.430597 
L 712.392277 136.882711 
L 713.457976 136.985406 
L 716.655073 141.996711 
L 717.720772 142.659559 
L 718.786471 154.934313 
L 719.85217 154.62602 
L 720.917869 131.611203 
L 724.114966 131.6321 
L 725.180665 154.858349 
L 726.246364 154.856806 
L 727.312063 155.001209 
L 728.377762 155.001464 
L 731.574859 154.807034 
L 732.640558 134.758184 
L 733.706257 134.386133 
L 734.771956 131.060194 
L 735.837655 131.316138 
L 739.034752 154.821874 
L 740.100451 154.302717 
L 741.16615 154.773503 
L 742.231849 154.647094 
L 743.297548 154.677006 
L 746.494645 154.172317 
L 747.560344 154.605007 
L 750.757441 155.08279 
L 753.954538 154.362256 
L 755.020237 154.703529 
L 756.085936 154.517997 
L 757.151635 154.613011 
L 758.217334 154.971208 
L 761.414431 154.93003 
L 762.48013 130.784501 
L 763.545829 130.162785 
L 764.611528 153.321556 
L 765.677227 128.276356 
L 769.940023 126.699955 
L 771.005722 154.560903 
L 772.071421 154.569345 
L 773.13712 152.349196 
L 776.334217 125.905323 
L 777.399916 125.447682 
L 778.465615 154.79863 
L 779.531314 154.620937 
L 780.597013 154.95337 
L 783.79411 154.429279 
L 784.859809 154.050824 
L 785.925508 154.848723 
L 786.991208 154.117002 
L 788.056907 114.661283 
L 791.254004 114.209791 
L 792.319703 154.840119 
L 793.385402 155.009803 
L 794.451101 153.447805 
L 795.5168 154.737893 
L 798.713897 152.608482 
L 799.779596 154.337904 
L 800.845295 154.431913 
L 802.976693 154.070297 
L 806.17379 153.560835 
L 807.239489 154.037696 
L 808.305188 153.960553 
L 809.370887 112.741323 
L 821.093576 132.766717 
L 822.159275 155.376 
L 822.159275 155.376 
" clip-path="url(#pbf46a50717)" style="fill: none; stroke: #1f77b4; stroke-width: 1.5; stroke-linecap: square"/>
   </g>
   <g id="patch_14">
    <path d="M 602.838419 162.432 
L 602.838419 7.2 
" style="fill: none; stroke: #000000; stroke-width: 0.8; stroke-linejoin: miter; stroke-linecap: square"/>
   </g>
   <g id="patch_15">
    <path d="M 832.603125 162.432 
L 832.603125 7.2 
" style="fill: none; stroke: #000000; stroke-width: 0.8; stroke-linejoin: miter; stroke-linecap: square"/>
   </g>
   <g id="patch_16">
    <path d="M 602.838419 162.432 
L 832.603125 162.432 
" style="fill: none; stroke: #000000; stroke-width: 0.8; stroke-linejoin: miter; stroke-linecap: square"/>
   </g>
   <g id="patch_17">
    <path d="M 602.838419 7.2 
L 832.603125 7.2 
" style="fill: none; stroke: #000000; stroke-width: 0.8; stroke-linejoin: miter; stroke-linecap: square"/>
   </g>
  </g>
 </g>
 <defs>
  <clipPath id="pad17a4e5a3">
   <rect x="51.403125" y="7.2" width="229.764706" height="155.232"/>
  </clipPath>
  <clipPath id="p1365c57915">
   <rect x="327.120772" y="7.2" width="229.764706" height="155.232"/>
  </clipPath>
  <clipPath id="pbf46a50717">
   <rect x="602.838419" y="7.2" width="229.764706" height="155.232"/>
  </clipPath>
 </defs>
</svg>
