<?xml version="1.0" encoding="utf-8" standalone="no"?>
<!DOCTYPE svg PUBLIC "-//W3C//DTD SVG 1.1//EN"
  "http://www.w3.org/Graphics/SVG/1.1/DTD/svg11.dtd">
<svg xmlns:xlink="http://www.w3.org/1999/xlink" width="834.725pt" height="184.757pt" viewBox="0 0 834.725 184.757" xmlns="http://www.w3.org/2000/svg" version="1.1">
 <metadata>
  <rdf:RDF xmlns:dc="http://purl.org/dc/elements/1.1/" xmlns:cc="http://creativecommons.org/ns#" xmlns:rdf="http://www.w3.org/1999/02/22-rdf-syntax-ns#">
   <cc:Work>
    <dc:type rdf:resource="http://purl.org/dc/dcmitype/StillImage"/>
    <dc:date>2024-12-25T17:33:01.872249</dc:date>
    <dc:format>image/svg+xml</dc:format>
    <dc:creator>
     <cc:Agent>
      <dc:title>Matplotlib v3.9.3, https://matplotlib.org/</dc:title>
     </cc:Agent>
    </dc:creator>
   </cc:Work>
  </rdf:RDF>
 </metadata>
 <defs>
  <style type="text/css">*{stroke-linejoin: round; stroke-linecap: butt}</style>
 </defs>
 <g id="figure_1">
  <g id="patch_1">
   <path d="M 0 184.757 
L 834.725 184.757 
L 834.725 0 
L 0 0 
z
" style="fill: #ffffff"/>
  </g>
  <g id="axes_1">
   <g id="patch_2">
    <path d="M 46.325 162.432 
L 276.089706 162.432 
L 276.089706 7.2 
L 46.325 7.2 
z
" style="fill: #ffffff"/>
   </g>
   <g id="matplotlib.axis_1">
    <g id="xtick_1">
     <g id="line2d_1">
      <defs>
       <path id="m213c788bd9" d="M 0 0 
L 0 3.5 
" style="stroke: #000000; stroke-width: 0.8"/>
      </defs>
      <g>
       <use xlink:href="#m213c788bd9" x="102.593908" y="162.432" style="stroke: #000000; stroke-width: 0.8"/>
      </g>
     </g>
     <g id="text_1">
      <!-- 2023-09-20 -->
      <g transform="translate(77.593908 176.307) scale(0.1 -0.1)">
       <defs>
        <path id="SimHei-32" d="M 300 250 
Q 325 625 650 925 
Q 975 1225 1475 1862 
Q 1975 2500 2125 2850 
Q 2275 3200 2237 3450 
Q 2200 3700 2000 3862 
Q 1800 4025 1537 4000 
Q 1275 3975 1037 3800 
Q 800 3625 675 3275 
L 200 3350 
Q 400 3925 712 4187 
Q 1025 4450 1450 4475 
Q 1700 4500 1900 4462 
Q 2100 4425 2312 4287 
Q 2525 4150 2662 3875 
Q 2800 3600 2762 3212 
Q 2725 2825 2375 2287 
Q 2025 1750 1025 600 
L 2825 600 
L 2825 150 
L 300 150 
L 300 250 
z
" transform="scale(0.015625)"/>
        <path id="SimHei-30" d="M 225 2537 
Q 250 3200 412 3587 
Q 575 3975 875 4225 
Q 1175 4475 1612 4475 
Q 2050 4475 2375 4112 
Q 2700 3750 2800 3200 
Q 2900 2650 2862 1937 
Q 2825 1225 2612 775 
Q 2400 325 1975 150 
Q 1550 -25 1125 187 
Q 700 400 525 750 
Q 350 1100 275 1487 
Q 200 1875 225 2537 
z
M 750 2687 
Q 675 2000 800 1462 
Q 925 925 1212 700 
Q 1500 475 1800 612 
Q 2100 750 2237 1162 
Q 2375 1575 2375 2062 
Q 2375 2550 2337 2950 
Q 2300 3350 2112 3675 
Q 1925 4000 1612 4012 
Q 1300 4025 1062 3700 
Q 825 3375 750 2687 
z
" transform="scale(0.015625)"/>
        <path id="SimHei-33" d="M 250 1225 
L 700 1300 
Q 800 975 1025 762 
Q 1250 550 1587 562 
Q 1925 575 2125 837 
Q 2325 1100 2300 1437 
Q 2275 1775 2037 1962 
Q 1800 2150 1275 2225 
L 1275 2550 
Q 1800 2600 2037 2825 
Q 2275 3050 2250 3412 
Q 2225 3775 1925 3937 
Q 1625 4100 1287 3975 
Q 950 3850 750 3275 
L 300 3350 
Q 450 3800 712 4100 
Q 975 4400 1425 4450 
Q 1875 4500 2212 4337 
Q 2550 4175 2687 3837 
Q 2825 3500 2725 3100 
Q 2625 2700 2150 2400 
Q 2500 2250 2687 1950 
Q 2875 1650 2812 1162 
Q 2750 675 2375 375 
Q 2000 75 1525 87 
Q 1050 100 700 387 
Q 350 675 250 1225 
z
" transform="scale(0.015625)"/>
        <path id="SimHei-2d" d="M 2975 2125 
L 125 2125 
L 125 2525 
L 2975 2525 
L 2975 2125 
z
" transform="scale(0.015625)"/>
        <path id="SimHei-39" d="M 800 75 
Q 1350 1000 1700 1750 
Q 1075 1650 662 1912 
Q 250 2175 162 2625 
Q 75 3075 175 3437 
Q 275 3800 487 4037 
Q 700 4275 1000 4375 
Q 1300 4475 1537 4475 
Q 1775 4475 2025 4375 
Q 2275 4275 2475 4075 
Q 2675 3875 2750 3662 
Q 2825 3450 2825 3112 
Q 2825 2775 2575 2250 
Q 2325 1725 1350 75 
L 800 75 
z
M 662 2875 
Q 700 2550 937 2337 
Q 1175 2125 1450 2150 
Q 1725 2175 1887 2300 
Q 2050 2425 2200 2725 
Q 2300 3100 2250 3362 
Q 2200 3625 1987 3800 
Q 1775 3975 1525 3975 
Q 1375 4000 1137 3900 
Q 900 3800 762 3500 
Q 625 3200 662 2875 
z
" transform="scale(0.015625)"/>
       </defs>
       <use xlink:href="#SimHei-32"/>
       <use xlink:href="#SimHei-30" x="50"/>
       <use xlink:href="#SimHei-32" x="100"/>
       <use xlink:href="#SimHei-33" x="150"/>
       <use xlink:href="#SimHei-2d" x="200"/>
       <use xlink:href="#SimHei-30" x="250"/>
       <use xlink:href="#SimHei-39" x="300"/>
       <use xlink:href="#SimHei-2d" x="350"/>
       <use xlink:href="#SimHei-32" x="400"/>
       <use xlink:href="#SimHei-30" x="450"/>
      </g>
     </g>
    </g>
    <g id="xtick_2">
     <g id="line2d_2">
      <g>
       <use xlink:href="#m213c788bd9" x="166.535848" y="162.432" style="stroke: #000000; stroke-width: 0.8"/>
      </g>
     </g>
     <g id="text_2">
      <!-- 2023-11-19 -->
      <g transform="translate(141.535848 176.307) scale(0.1 -0.1)">
       <defs>
        <path id="SimHei-31" d="M 1400 3600 
Q 1075 3275 575 2975 
L 575 3450 
Q 1200 3875 1600 4450 
L 1900 4450 
L 1900 150 
L 1400 150 
L 1400 3600 
z
" transform="scale(0.015625)"/>
       </defs>
       <use xlink:href="#SimHei-32"/>
       <use xlink:href="#SimHei-30" x="50"/>
       <use xlink:href="#SimHei-32" x="100"/>
       <use xlink:href="#SimHei-33" x="150"/>
       <use xlink:href="#SimHei-2d" x="200"/>
       <use xlink:href="#SimHei-31" x="250"/>
       <use xlink:href="#SimHei-31" x="300"/>
       <use xlink:href="#SimHei-2d" x="350"/>
       <use xlink:href="#SimHei-31" x="400"/>
       <use xlink:href="#SimHei-39" x="450"/>
      </g>
     </g>
    </g>
    <g id="xtick_3">
     <g id="line2d_3">
      <g>
       <use xlink:href="#m213c788bd9" x="230.477788" y="162.432" style="stroke: #000000; stroke-width: 0.8"/>
      </g>
     </g>
     <g id="text_3">
      <!-- 2024-01-18 -->
      <g transform="translate(205.477788 176.307) scale(0.1 -0.1)">
       <defs>
        <path id="SimHei-34" d="M 2000 1100 
L 75 1100 
L 75 1525 
L 2100 4450 
L 2475 4450 
L 2475 1525 
L 3075 1525 
L 3075 1100 
L 2475 1100 
L 2475 150 
L 2000 150 
L 2000 1100 
z
M 2000 1525 
L 2000 3500 
L 600 1525 
L 2000 1525 
z
" transform="scale(0.015625)"/>
        <path id="SimHei-38" d="M 175 1375 
Q 175 1675 325 1962 
Q 475 2250 825 2425 
Q 525 2600 425 2812 
Q 325 3025 312 3300 
Q 300 3575 387 3775 
Q 475 3975 650 4150 
Q 825 4325 1037 4387 
Q 1250 4450 1500 4450 
Q 1750 4450 1950 4400 
Q 2150 4350 2375 4187 
Q 2600 4025 2700 3725 
Q 2800 3425 2687 3025 
Q 2575 2625 2100 2400 
Q 2525 2275 2700 2012 
Q 2875 1750 2875 1375 
Q 2875 1000 2762 775 
Q 2650 550 2512 400 
Q 2375 250 2137 162 
Q 1900 75 1537 75 
Q 1175 75 912 162 
Q 650 250 475 425 
Q 300 600 237 837 
Q 175 1075 175 1375 
z
M 687 1400 
Q 675 1100 787 875 
Q 900 650 1200 587 
Q 1500 525 1825 600 
Q 2150 675 2275 950 
Q 2400 1225 2362 1500 
Q 2325 1775 2050 1962 
Q 1775 2150 1450 2125 
Q 1125 2100 912 1900 
Q 700 1700 687 1400 
z
M 775 3350 
Q 775 3100 950 2875 
Q 1125 2650 1500 2650 
Q 1875 2650 2062 2875 
Q 2250 3100 2237 3412 
Q 2225 3725 2012 3875 
Q 1800 4025 1437 4000 
Q 1075 3975 925 3787 
Q 775 3600 775 3350 
z
" transform="scale(0.015625)"/>
       </defs>
       <use xlink:href="#SimHei-32"/>
       <use xlink:href="#SimHei-30" x="50"/>
       <use xlink:href="#SimHei-32" x="100"/>
       <use xlink:href="#SimHei-34" x="150"/>
       <use xlink:href="#SimHei-2d" x="200"/>
       <use xlink:href="#SimHei-30" x="250"/>
       <use xlink:href="#SimHei-31" x="300"/>
       <use xlink:href="#SimHei-2d" x="350"/>
       <use xlink:href="#SimHei-31" x="400"/>
       <use xlink:href="#SimHei-38" x="450"/>
      </g>
     </g>
    </g>
   </g>
   <g id="matplotlib.axis_2">
    <g id="ytick_1">
     <g id="line2d_4">
      <defs>
       <path id="m88f0b9c268" d="M 0 0 
L -3.5 0 
" style="stroke: #000000; stroke-width: 0.8"/>
      </defs>
      <g>
       <use xlink:href="#m88f0b9c268" x="46.325" y="156.937159" style="stroke: #000000; stroke-width: 0.8"/>
      </g>
     </g>
     <g id="text_4">
      <!-- 0.88 -->
      <g transform="translate(19.325 160.374659) scale(0.1 -0.1)">
       <defs>
        <path id="SimHei-2e" d="M 1075 125 
L 500 125 
L 500 675 
L 1075 675 
L 1075 125 
z
" transform="scale(0.015625)"/>
       </defs>
       <use xlink:href="#SimHei-30"/>
       <use xlink:href="#SimHei-2e" x="50"/>
       <use xlink:href="#SimHei-38" x="100"/>
       <use xlink:href="#SimHei-38" x="150"/>
      </g>
     </g>
    </g>
    <g id="ytick_2">
     <g id="line2d_5">
      <g>
       <use xlink:href="#m88f0b9c268" x="46.325" y="133.149428" style="stroke: #000000; stroke-width: 0.8"/>
      </g>
     </g>
     <g id="text_5">
      <!-- 0.90 -->
      <g transform="translate(19.325 136.586928) scale(0.1 -0.1)">
       <use xlink:href="#SimHei-30"/>
       <use xlink:href="#SimHei-2e" x="50"/>
       <use xlink:href="#SimHei-39" x="100"/>
       <use xlink:href="#SimHei-30" x="150"/>
      </g>
     </g>
    </g>
    <g id="ytick_3">
     <g id="line2d_6">
      <g>
       <use xlink:href="#m88f0b9c268" x="46.325" y="109.361698" style="stroke: #000000; stroke-width: 0.8"/>
      </g>
     </g>
     <g id="text_6">
      <!-- 0.92 -->
      <g transform="translate(19.325 112.799198) scale(0.1 -0.1)">
       <use xlink:href="#SimHei-30"/>
       <use xlink:href="#SimHei-2e" x="50"/>
       <use xlink:href="#SimHei-39" x="100"/>
       <use xlink:href="#SimHei-32" x="150"/>
      </g>
     </g>
    </g>
    <g id="ytick_4">
     <g id="line2d_7">
      <g>
       <use xlink:href="#m88f0b9c268" x="46.325" y="85.573967" style="stroke: #000000; stroke-width: 0.8"/>
      </g>
     </g>
     <g id="text_7">
      <!-- 0.94 -->
      <g transform="translate(19.325 89.011467) scale(0.1 -0.1)">
       <use xlink:href="#SimHei-30"/>
       <use xlink:href="#SimHei-2e" x="50"/>
       <use xlink:href="#SimHei-39" x="100"/>
       <use xlink:href="#SimHei-34" x="150"/>
      </g>
     </g>
    </g>
    <g id="ytick_5">
     <g id="line2d_8">
      <g>
       <use xlink:href="#m88f0b9c268" x="46.325" y="61.786236" style="stroke: #000000; stroke-width: 0.8"/>
      </g>
     </g>
     <g id="text_8">
      <!-- 0.96 -->
      <g transform="translate(19.325 65.223736) scale(0.1 -0.1)">
       <defs>
        <path id="SimHei-36" d="M 250 1612 
Q 275 1975 387 2225 
Q 500 2475 725 2850 
L 1750 4450 
L 2325 4450 
L 1275 2800 
Q 1950 2975 2350 2750 
Q 2750 2525 2887 2237 
Q 3025 1950 3037 1612 
Q 3050 1275 2937 950 
Q 2825 625 2537 362 
Q 2250 100 1737 75 
Q 1225 50 862 262 
Q 500 475 362 862 
Q 225 1250 250 1612 
z
M 1025 787 
Q 1250 550 1625 525 
Q 2000 500 2250 775 
Q 2500 1050 2500 1575 
Q 2500 2100 2187 2300 
Q 1875 2500 1487 2450 
Q 1100 2400 925 2075 
Q 750 1750 775 1387 
Q 800 1025 1025 787 
z
" transform="scale(0.015625)"/>
       </defs>
       <use xlink:href="#SimHei-30"/>
       <use xlink:href="#SimHei-2e" x="50"/>
       <use xlink:href="#SimHei-39" x="100"/>
       <use xlink:href="#SimHei-36" x="150"/>
      </g>
     </g>
    </g>
    <g id="ytick_6">
     <g id="line2d_9">
      <g>
       <use xlink:href="#m88f0b9c268" x="46.325" y="37.998506" style="stroke: #000000; stroke-width: 0.8"/>
      </g>
     </g>
     <g id="text_9">
      <!-- 0.98 -->
      <g transform="translate(19.325 41.436006) scale(0.1 -0.1)">
       <use xlink:href="#SimHei-30"/>
       <use xlink:href="#SimHei-2e" x="50"/>
       <use xlink:href="#SimHei-39" x="100"/>
       <use xlink:href="#SimHei-38" x="150"/>
      </g>
     </g>
    </g>
    <g id="ytick_7">
     <g id="line2d_10">
      <g>
       <use xlink:href="#m88f0b9c268" x="46.325" y="14.210775" style="stroke: #000000; stroke-width: 0.8"/>
      </g>
     </g>
     <g id="text_10">
      <!-- 1.00 -->
      <g transform="translate(19.325 17.648275) scale(0.1 -0.1)">
       <use xlink:href="#SimHei-31"/>
       <use xlink:href="#SimHei-2e" x="50"/>
       <use xlink:href="#SimHei-30" x="100"/>
       <use xlink:href="#SimHei-30" x="150"/>
      </g>
     </g>
    </g>
    <g id="text_11">
     <!-- HERC -->
     <g transform="translate(14.075 94.816) rotate(-90) scale(0.1 -0.1)">
      <defs>
       <path id="SimHei-48" d="M 2850 125 
L 2275 125 
L 2275 2125 
L 850 2125 
L 850 125 
L 275 125 
L 275 4400 
L 850 4400 
L 850 2600 
L 2275 2600 
L 2275 4400 
L 2850 4400 
L 2850 125 
z
" transform="scale(0.015625)"/>
       <path id="SimHei-45" d="M 2900 125 
L 350 125 
L 350 4400 
L 2775 4400 
L 2775 3925 
L 925 3925 
L 925 2600 
L 2625 2600 
L 2625 2125 
L 925 2125 
L 925 600 
L 2900 600 
L 2900 125 
z
" transform="scale(0.015625)"/>
       <path id="SimHei-52" d="M 3000 125 
L 2400 125 
L 1500 1975 
L 850 1975 
L 850 125 
L 275 125 
L 275 4400 
L 1525 4400 
Q 2125 4400 2500 4112 
Q 2875 3825 2875 3175 
Q 2875 2675 2625 2400 
Q 2375 2125 2050 2050 
L 3000 125 
z
M 2300 3175 
Q 2300 3525 2087 3725 
Q 1875 3925 1400 3925 
L 850 3925 
L 850 2450 
L 1550 2450 
Q 1850 2450 2075 2612 
Q 2300 2775 2300 3175 
z
" transform="scale(0.015625)"/>
       <path id="SimHei-43" d="M 2975 1825 
Q 2950 875 2575 475 
Q 2200 75 1675 75 
Q 1075 75 650 562 
Q 225 1050 225 2125 
Q 225 3300 637 3875 
Q 1050 4450 1700 4450 
Q 2250 4450 2612 4037 
Q 2975 3625 2950 2875 
L 2400 2875 
Q 2400 3425 2225 3700 
Q 2050 3975 1700 3975 
Q 1300 3975 1062 3562 
Q 825 3150 825 2175 
Q 825 1275 1062 912 
Q 1300 550 1675 550 
Q 1950 550 2175 812 
Q 2400 1075 2400 1825 
L 2975 1825 
z
" transform="scale(0.015625)"/>
      </defs>
      <use xlink:href="#SimHei-48"/>
      <use xlink:href="#SimHei-45" x="50"/>
      <use xlink:href="#SimHei-52" x="100"/>
      <use xlink:href="#SimHei-43" x="150"/>
     </g>
    </g>
   </g>
   <g id="line2d_11">
    <path d="M 56.76885 17.184242 
L 57.834549 21.821137 
L 58.900248 14.256 
L 59.965947 40.850323 
L 63.163044 44.19785 
L 64.228743 44.117733 
L 65.294442 54.147812 
L 66.360141 48.036924 
L 67.42584 60.389042 
L 70.622937 82.291061 
L 71.688636 74.315267 
L 72.754335 90.242638 
L 73.820034 89.725893 
L 74.885733 88.396756 
L 78.08283 82.633652 
L 79.148529 75.821863 
L 80.214228 76.755781 
L 81.279927 77.268929 
L 82.345626 80.382754 
L 85.542723 66.88216 
L 86.608422 68.1495 
L 87.674121 73.81761 
L 88.73982 84.027854 
L 89.805519 86.489975 
L 93.002617 75.227851 
L 94.068316 75.787699 
L 95.134015 81.571254 
L 96.199714 73.776953 
L 97.265413 79.852033 
L 100.46251 81.361898 
L 101.528209 82.127738 
L 102.593908 86.528002 
L 103.659607 94.282862 
L 104.725306 79.958485 
L 107.922403 82.271931 
L 110.053801 95.645711 
L 111.1195 91.001651 
L 122.842189 81.860359 
L 123.907888 84.443973 
L 124.973587 84.949021 
L 126.039286 72.237731 
L 127.104985 78.486389 
L 130.302082 78.81005 
L 131.367781 74.262131 
L 132.43348 80.081957 
L 133.499179 98.350718 
L 134.564878 108.81505 
L 137.761975 118.037061 
L 138.827674 108.111595 
L 139.893373 103.05906 
L 140.959072 92.859159 
L 142.024771 79.091438 
L 145.221868 77.38627 
L 146.287567 75.355938 
L 147.353266 71.913275 
L 148.418965 72.036576 
L 149.484664 72.033394 
L 152.681761 77.124028 
L 153.74746 78.573201 
L 154.813159 80.397586 
L 155.878858 75.478871 
L 156.944557 79.139116 
L 160.141654 82.278583 
L 161.207353 83.963056 
L 162.273052 73.934126 
L 163.338751 77.210197 
L 164.40445 77.479272 
L 167.601547 70.753187 
L 168.667246 72.228316 
L 169.732945 79.59976 
L 170.798644 73.432581 
L 171.864343 78.495956 
L 175.06144 77.836723 
L 176.127139 78.869522 
L 177.192838 88.150998 
L 178.258537 86.152266 
L 179.324236 95.520001 
L 182.521333 97.346951 
L 183.587032 117.605438 
L 184.652731 122.864934 
L 185.71843 129.347022 
L 186.784129 122.366955 
L 189.981226 115.960998 
L 191.046925 110.409927 
L 192.112624 115.698647 
L 193.178323 123.463063 
L 194.244022 129.449342 
L 197.441119 135.09168 
L 198.506818 127.953398 
L 199.572517 137.268341 
L 200.638216 129.6887 
L 201.703915 131.727621 
L 204.901012 124.280143 
L 205.966711 132.970704 
L 207.03241 130.997396 
L 208.098109 125.269332 
L 209.163808 121.544655 
L 213.426604 127.576907 
L 214.492303 126.338833 
L 215.558002 135.733423 
L 216.623701 139.598883 
L 219.820798 155.376 
L 220.886497 143.979308 
L 221.952196 150.039511 
L 223.017895 146.053466 
L 224.083594 140.618821 
L 227.280691 126.090494 
L 228.34639 113.398731 
L 229.412089 136.096331 
L 230.477788 122.861837 
L 231.543487 124.230023 
L 234.740584 143.535226 
L 235.806283 143.347261 
L 237.937681 100.171851 
L 239.00338 102.813895 
L 242.200477 96.908373 
L 243.266176 125.63454 
L 244.331875 135.475255 
L 245.397574 135.778436 
L 246.463273 145.822396 
L 249.660371 143.372814 
L 250.72607 110.025947 
L 251.791769 104.651576 
L 252.857468 96.246902 
L 264.580157 76.436753 
L 265.645856 73.531484 
L 265.645856 73.531484 
" clip-path="url(#pf43086dda6)" style="fill: none; stroke: #1f77b4; stroke-width: 1.5; stroke-linecap: square"/>
   </g>
   <g id="patch_3">
    <path d="M 46.325 162.432 
L 46.325 7.2 
" style="fill: none; stroke: #000000; stroke-width: 0.8; stroke-linejoin: miter; stroke-linecap: square"/>
   </g>
   <g id="patch_4">
    <path d="M 276.089706 162.432 
L 276.089706 7.2 
" style="fill: none; stroke: #000000; stroke-width: 0.8; stroke-linejoin: miter; stroke-linecap: square"/>
   </g>
   <g id="patch_5">
    <path d="M 46.325 162.432 
L 276.089706 162.432 
" style="fill: none; stroke: #000000; stroke-width: 0.8; stroke-linejoin: miter; stroke-linecap: square"/>
   </g>
   <g id="patch_6">
    <path d="M 46.325 7.2 
L 276.089706 7.2 
" style="fill: none; stroke: #000000; stroke-width: 0.8; stroke-linejoin: miter; stroke-linecap: square"/>
   </g>
  </g>
  <g id="axes_2">
   <g id="patch_7">
    <path d="M 322.042647 162.432 
L 551.807353 162.432 
L 551.807353 7.2 
L 322.042647 7.2 
z
" style="fill: #ffffff"/>
   </g>
   <g id="matplotlib.axis_3">
    <g id="xtick_4">
     <g id="line2d_12">
      <g>
       <use xlink:href="#m213c788bd9" x="379.377254" y="162.432" style="stroke: #000000; stroke-width: 0.8"/>
      </g>
     </g>
     <g id="text_12">
      <!-- 2023-09-20 -->
      <g transform="translate(354.377254 176.307) scale(0.1 -0.1)">
       <use xlink:href="#SimHei-32"/>
       <use xlink:href="#SimHei-30" x="50"/>
       <use xlink:href="#SimHei-32" x="100"/>
       <use xlink:href="#SimHei-33" x="150"/>
       <use xlink:href="#SimHei-2d" x="200"/>
       <use xlink:href="#SimHei-30" x="250"/>
       <use xlink:href="#SimHei-39" x="300"/>
       <use xlink:href="#SimHei-2d" x="350"/>
       <use xlink:href="#SimHei-32" x="400"/>
       <use xlink:href="#SimHei-30" x="450"/>
      </g>
     </g>
    </g>
    <g id="xtick_5">
     <g id="line2d_13">
      <g>
       <use xlink:href="#m213c788bd9" x="443.319194" y="162.432" style="stroke: #000000; stroke-width: 0.8"/>
      </g>
     </g>
     <g id="text_13">
      <!-- 2023-11-19 -->
      <g transform="translate(418.319194 176.307) scale(0.1 -0.1)">
       <use xlink:href="#SimHei-32"/>
       <use xlink:href="#SimHei-30" x="50"/>
       <use xlink:href="#SimHei-32" x="100"/>
       <use xlink:href="#SimHei-33" x="150"/>
       <use xlink:href="#SimHei-2d" x="200"/>
       <use xlink:href="#SimHei-31" x="250"/>
       <use xlink:href="#SimHei-31" x="300"/>
       <use xlink:href="#SimHei-2d" x="350"/>
       <use xlink:href="#SimHei-31" x="400"/>
       <use xlink:href="#SimHei-39" x="450"/>
      </g>
     </g>
    </g>
    <g id="xtick_6">
     <g id="line2d_14">
      <g>
       <use xlink:href="#m213c788bd9" x="507.261134" y="162.432" style="stroke: #000000; stroke-width: 0.8"/>
      </g>
     </g>
     <g id="text_14">
      <!-- 2024-01-18 -->
      <g transform="translate(482.261134 176.307) scale(0.1 -0.1)">
       <use xlink:href="#SimHei-32"/>
       <use xlink:href="#SimHei-30" x="50"/>
       <use xlink:href="#SimHei-32" x="100"/>
       <use xlink:href="#SimHei-34" x="150"/>
       <use xlink:href="#SimHei-2d" x="200"/>
       <use xlink:href="#SimHei-30" x="250"/>
       <use xlink:href="#SimHei-31" x="300"/>
       <use xlink:href="#SimHei-2d" x="350"/>
       <use xlink:href="#SimHei-31" x="400"/>
       <use xlink:href="#SimHei-38" x="450"/>
      </g>
     </g>
    </g>
   </g>
   <g id="matplotlib.axis_4">
    <g id="ytick_8">
     <g id="line2d_15">
      <g>
       <use xlink:href="#m88f0b9c268" x="322.042647" y="155.376" style="stroke: #000000; stroke-width: 0.8"/>
      </g>
     </g>
     <g id="text_15">
      <!-- 0.0 -->
      <g transform="translate(300.042647 158.8135) scale(0.1 -0.1)">
       <use xlink:href="#SimHei-30"/>
       <use xlink:href="#SimHei-2e" x="50"/>
       <use xlink:href="#SimHei-30" x="100"/>
      </g>
     </g>
    </g>
    <g id="ytick_9">
     <g id="line2d_16">
      <g>
       <use xlink:href="#m88f0b9c268" x="322.042647" y="127.152" style="stroke: #000000; stroke-width: 0.8"/>
      </g>
     </g>
     <g id="text_16">
      <!-- 0.2 -->
      <g transform="translate(300.042647 130.5895) scale(0.1 -0.1)">
       <use xlink:href="#SimHei-30"/>
       <use xlink:href="#SimHei-2e" x="50"/>
       <use xlink:href="#SimHei-32" x="100"/>
      </g>
     </g>
    </g>
    <g id="ytick_10">
     <g id="line2d_17">
      <g>
       <use xlink:href="#m88f0b9c268" x="322.042647" y="98.928" style="stroke: #000000; stroke-width: 0.8"/>
      </g>
     </g>
     <g id="text_17">
      <!-- 0.4 -->
      <g transform="translate(300.042647 102.3655) scale(0.1 -0.1)">
       <use xlink:href="#SimHei-30"/>
       <use xlink:href="#SimHei-2e" x="50"/>
       <use xlink:href="#SimHei-34" x="100"/>
      </g>
     </g>
    </g>
    <g id="ytick_11">
     <g id="line2d_18">
      <g>
       <use xlink:href="#m88f0b9c268" x="322.042647" y="70.704" style="stroke: #000000; stroke-width: 0.8"/>
      </g>
     </g>
     <g id="text_18">
      <!-- 0.6 -->
      <g transform="translate(300.042647 74.1415) scale(0.1 -0.1)">
       <use xlink:href="#SimHei-30"/>
       <use xlink:href="#SimHei-2e" x="50"/>
       <use xlink:href="#SimHei-36" x="100"/>
      </g>
     </g>
    </g>
    <g id="ytick_12">
     <g id="line2d_19">
      <g>
       <use xlink:href="#m88f0b9c268" x="322.042647" y="42.48" style="stroke: #000000; stroke-width: 0.8"/>
      </g>
     </g>
     <g id="text_19">
      <!-- 0.8 -->
      <g transform="translate(300.042647 45.9175) scale(0.1 -0.1)">
       <use xlink:href="#SimHei-30"/>
       <use xlink:href="#SimHei-2e" x="50"/>
       <use xlink:href="#SimHei-38" x="100"/>
      </g>
     </g>
    </g>
    <g id="ytick_13">
     <g id="line2d_20">
      <g>
       <use xlink:href="#m88f0b9c268" x="322.042647" y="14.256" style="stroke: #000000; stroke-width: 0.8"/>
      </g>
     </g>
     <g id="text_20">
      <!-- 1.0 -->
      <g transform="translate(300.042647 17.6935) scale(0.1 -0.1)">
       <use xlink:href="#SimHei-31"/>
       <use xlink:href="#SimHei-2e" x="50"/>
       <use xlink:href="#SimHei-30" x="100"/>
      </g>
     </g>
    </g>
   </g>
   <g id="line2d_21">
    <path d="M 332.486497 155.376 
L 333.552196 143.850086 
L 334.617895 143.790102 
L 335.683594 140.923061 
L 339.94639 140.844697 
L 341.012089 141.158566 
L 342.077788 141.170197 
L 343.143487 140.759596 
L 350.60338 140.707236 
L 354.866176 140.596105 
L 355.931875 143.714975 
L 356.997574 143.834564 
L 363.391769 143.765379 
L 364.457468 140.895761 
L 365.523167 140.879933 
L 366.588866 143.963872 
L 369.785963 144.14482 
L 370.851662 141.013285 
L 374.048759 141.21149 
L 379.377254 141.208665 
L 381.508652 141.231558 
L 384.705749 144.303579 
L 386.837147 144.423802 
L 387.902846 144.367329 
L 399.625535 144.330313 
L 400.691234 144.117079 
L 401.756933 141.008845 
L 407.085428 140.983713 
L 408.151127 140.925299 
L 409.216826 144.282512 
L 410.282525 141.296372 
L 411.348224 141.006653 
L 417.742418 140.969938 
L 418.808117 144.714106 
L 426.26801 144.544911 
L 433.727903 144.529744 
L 436.925 144.829712 
L 437.990699 144.581588 
L 439.056398 144.711439 
L 440.122097 141.242469 
L 441.187796 141.410131 
L 444.384893 141.497211 
L 445.450592 141.378957 
L 446.516291 141.501664 
L 448.647689 141.5667 
L 451.844786 141.707318 
L 452.910485 141.609241 
L 453.976184 146.995367 
L 455.041883 147.270731 
L 459.304679 147.258556 
L 460.370378 142.866857 
L 461.436077 147.913945 
L 475.290164 148.075951 
L 477.421562 148.058308 
L 481.684358 148.115165 
L 482.750057 148.876938 
L 483.815756 145.934554 
L 484.881455 145.945862 
L 485.947154 148.955725 
L 493.407047 148.96659 
L 514.721028 148.877538 
L 515.786727 148.99327 
L 523.24662 149.018991 
L 529.640814 149.015121 
L 541.363503 148.987556 
L 541.363503 148.987556 
" clip-path="url(#pcced2f69d6)" style="fill: none; stroke: #1f77b4; stroke-width: 1.5; stroke-linecap: square"/>
   </g>
   <g id="line2d_22">
    <path d="M 332.486497 155.376 
L 333.552196 149.773426 
L 334.617895 149.750959 
L 335.683594 148.335444 
L 350.60338 148.233468 
L 354.866176 148.16519 
L 355.931875 149.685852 
L 363.391769 149.685808 
L 364.457468 148.12105 
L 365.523167 148.108164 
L 366.588866 149.680848 
L 369.785963 149.728731 
L 370.851662 148.166155 
L 378.311555 148.184786 
L 380.442953 148.205825 
L 381.508652 148.180293 
L 384.705749 149.737426 
L 387.902846 149.75822 
L 400.691234 149.749698 
L 401.756933 148.220034 
L 408.151127 148.124745 
L 409.216826 149.727004 
L 410.282525 148.053325 
L 411.348224 148.103715 
L 417.742418 148.227086 
L 418.808117 149.592534 
L 433.727903 149.405472 
L 436.925 149.580786 
L 439.056398 149.468469 
L 440.122097 147.636417 
L 441.187796 147.529385 
L 444.384893 147.568051 
L 445.450592 147.419092 
L 447.58199 147.452849 
L 451.844786 147.355239 
L 452.910485 147.158777 
L 453.976184 150.382763 
L 455.041883 150.526775 
L 459.304679 150.507396 
L 460.370378 147.417347 
L 461.436077 150.553921 
L 463.567475 150.590699 
L 468.89597 150.66796 
L 469.961669 150.4579 
L 471.027368 150.481782 
L 475.290164 150.291634 
L 476.355863 150.117118 
L 478.487261 150.19454 
L 481.684358 150.153937 
L 482.750057 150.704191 
L 483.815756 148.503654 
L 484.881455 148.522245 
L 485.947154 150.650082 
L 508.326833 150.618557 
L 511.52393 150.386894 
L 512.589629 150.161763 
L 520.049523 150.199096 
L 521.115222 150.256849 
L 523.24662 150.121293 
L 528.575115 150.059685 
L 529.640814 150.160076 
L 541.363503 150.15467 
L 541.363503 150.15467 
" clip-path="url(#pcced2f69d6)" style="fill: none; stroke: #ff7f0e; stroke-width: 1.5; stroke-linecap: square"/>
   </g>
   <g id="line2d_23">
    <path d="M 332.486497 155.376 
L 333.552196 151.694495 
L 334.617895 151.685997 
L 335.683594 150.249697 
L 347.406283 150.13324 
L 349.537681 149.869734 
L 351.669079 149.856807 
L 354.866176 149.903481 
L 355.931875 151.440309 
L 363.391769 151.410701 
L 364.457468 149.865688 
L 365.523167 149.851177 
L 366.588866 151.385137 
L 369.785963 151.506066 
L 370.851662 149.939312 
L 381.508652 149.844649 
L 384.705749 151.456854 
L 387.902846 151.437721 
L 400.691234 151.423381 
L 401.756933 149.893053 
L 408.151127 149.824076 
L 409.216826 151.413316 
L 410.282525 149.905411 
L 411.348224 149.948645 
L 415.61102 149.829853 
L 417.742418 149.347458 
L 418.808117 150.907644 
L 426.26801 150.714317 
L 429.465107 150.468727 
L 439.056398 150.764509 
L 440.122097 149.720386 
L 444.384893 149.760784 
L 445.450592 149.822531 
L 447.58199 149.750886 
L 451.844786 149.639022 
L 452.910485 149.828644 
L 453.976184 144.138975 
L 456.107582 144.002157 
L 459.304679 143.985316 
L 460.370378 149.815166 
L 461.436077 143.823435 
L 468.89597 144.099098 
L 469.961669 144.187127 
L 471.027368 143.999709 
L 475.290164 143.892688 
L 476.355863 144.002963 
L 477.421562 143.85639 
L 478.487261 143.923136 
L 481.684358 143.981263 
L 482.750057 144.225356 
L 483.815756 150.968612 
L 484.881455 150.948878 
L 485.947154 144.381424 
L 506.195435 144.436761 
L 507.261134 144.680583 
L 508.326833 144.65479 
L 513.655328 145.027774 
L 514.721028 145.030731 
L 515.786727 144.8992 
L 520.049523 144.829243 
L 521.115222 145.07852 
L 522.180921 145.181011 
L 523.24662 145.148339 
L 529.640814 145.119017 
L 541.363503 145.09218 
L 541.363503 145.09218 
" clip-path="url(#pcced2f69d6)" style="fill: none; stroke: #2ca02c; stroke-width: 1.5; stroke-linecap: square"/>
   </g>
   <g id="line2d_24">
    <path d="M 332.486497 155.376 
L 333.552196 146.294902 
L 334.617895 146.262536 
L 335.683594 142.643198 
L 336.749293 142.646437 
L 339.94639 142.91293 
L 342.077788 142.073789 
L 344.209186 142.266063 
L 347.406283 142.232922 
L 348.471982 142.351592 
L 349.537681 143.280176 
L 354.866176 143.36663 
L 355.931875 146.706886 
L 363.391769 146.704567 
L 364.457468 143.350917 
L 365.523167 143.373148 
L 366.588866 146.727675 
L 369.785963 146.796701 
L 370.851662 143.352854 
L 379.377254 143.283084 
L 380.442953 143.134627 
L 381.508652 143.194474 
L 384.705749 146.653439 
L 387.902846 146.689549 
L 400.691234 146.714725 
L 401.756933 143.138704 
L 408.151127 143.1131 
L 409.216826 146.624449 
L 410.282525 143.031028 
L 411.348224 143.15901 
L 416.676719 142.955724 
L 417.742418 143.104499 
L 418.808117 146.212847 
L 426.26801 146.13304 
L 430.530806 146.204438 
L 432.662204 145.93225 
L 433.727903 145.904429 
L 437.990699 146.198458 
L 439.056398 146.027882 
L 440.122097 142.803054 
L 441.187796 142.601578 
L 445.450592 142.61009 
L 446.516291 142.506992 
L 451.844786 142.60908 
L 452.910485 142.78732 
L 453.976184 128.441137 
L 455.041883 128.18935 
L 456.107582 128.271252 
L 459.304679 128.229034 
L 460.370378 142.289369 
L 461.436077 127.840498 
L 462.501776 128.151324 
L 466.764572 128.229074 
L 467.830271 128.407551 
L 468.89597 128.174695 
L 469.961669 127.687717 
L 471.027368 127.595087 
L 478.487261 127.477538 
L 481.684358 127.464507 
L 482.750057 128.120819 
L 483.815756 144.579337 
L 484.881455 144.611835 
L 485.947154 128.171216 
L 490.20995 129.004874 
L 491.275649 128.946112 
L 492.341348 129.169655 
L 493.407047 128.708874 
L 497.669843 128.526172 
L 500.86694 128.777537 
L 505.129736 128.648174 
L 506.195435 129.057522 
L 508.326833 129.404382 
L 512.589629 129.238369 
L 515.786727 129.004737 
L 518.983824 129.041259 
L 520.049523 128.826464 
L 521.115222 126.611008 
L 522.180921 127.12059 
L 523.24662 127.267399 
L 526.443717 127.140378 
L 527.509416 127.29288 
L 528.575115 127.021968 
L 529.640814 127.693532 
L 541.363503 127.735054 
L 541.363503 127.735054 
" clip-path="url(#pcced2f69d6)" style="fill: none; stroke: #d62728; stroke-width: 1.5; stroke-linecap: square"/>
   </g>
   <g id="line2d_25">
    <path d="M 332.486497 155.376 
L 333.552196 146.948811 
L 334.617895 146.928476 
L 335.683594 143.631785 
L 336.749293 143.642101 
L 339.94639 143.83239 
L 341.012089 143.52168 
L 344.209186 143.693079 
L 354.866176 143.75779 
L 355.931875 147.010371 
L 363.391769 147.073157 
L 364.457468 143.811759 
L 365.523167 143.832118 
L 366.588866 147.119984 
L 369.785963 147.229248 
L 370.851662 143.945234 
L 374.048759 144.033557 
L 377.245856 143.752313 
L 379.377254 143.771121 
L 380.442953 143.68055 
L 381.508652 143.73683 
L 384.705749 147.094565 
L 400.691234 147.117792 
L 401.756933 143.902613 
L 408.151127 143.915616 
L 409.216826 147.150617 
L 410.282525 143.723926 
L 411.348224 143.893716 
L 417.742418 143.86745 
L 418.808117 146.927304 
L 422.005214 146.874651 
L 423.070913 147.048116 
L 426.26801 147.004992 
L 430.530806 146.816781 
L 431.596505 146.41531 
L 432.662204 146.417316 
L 433.727903 146.256407 
L 437.990699 146.543752 
L 439.056398 146.561867 
L 440.122097 144.1097 
L 441.187796 143.996953 
L 444.384893 144.088955 
L 445.450592 143.909691 
L 448.647689 143.889128 
L 451.844786 143.97255 
L 452.910485 144.352568 
L 453.976184 131.478297 
L 455.041883 131.817026 
L 456.107582 131.893061 
L 459.304679 131.831548 
L 460.370378 144.110367 
L 461.436077 131.910469 
L 468.89597 131.923595 
L 471.027368 131.419728 
L 477.421562 131.65823 
L 478.487261 131.69545 
L 481.684358 131.670236 
L 482.750057 132.231694 
L 483.815756 146.117299 
L 484.881455 146.117068 
L 485.947154 132.019891 
L 491.275649 131.902175 
L 498.735542 132.238112 
L 499.801241 132.623979 
L 500.86694 132.591586 
L 506.195435 132.163319 
L 507.261134 132.435977 
L 508.326833 132.15876 
L 511.52393 132.275552 
L 512.589629 132.048601 
L 513.655328 132.360479 
L 514.721028 132.395497 
L 515.786727 132.093206 
L 518.983824 131.994156 
L 520.049523 131.822118 
L 521.115222 132.383507 
L 522.180921 132.621728 
L 523.24662 132.615402 
L 527.509416 132.728389 
L 529.640814 132.399214 
L 541.363503 132.376772 
L 541.363503 132.376772 
" clip-path="url(#pcced2f69d6)" style="fill: none; stroke: #9467bd; stroke-width: 1.5; stroke-linecap: square"/>
   </g>
   <g id="line2d_26">
    <path d="M 332.486497 155.376 
L 333.552196 147.751809 
L 334.617895 147.728489 
L 335.683594 144.782657 
L 336.749293 144.82993 
L 339.94639 144.833323 
L 341.012089 144.708267 
L 343.143487 144.829537 
L 344.209186 144.920547 
L 348.471982 144.978817 
L 349.537681 144.873535 
L 354.866176 144.98392 
L 355.931875 147.915151 
L 363.391769 147.927453 
L 364.457468 145.1352 
L 365.523167 145.102833 
L 366.588866 147.911534 
L 369.785963 148.041777 
L 370.851662 145.087878 
L 381.508652 145.176014 
L 384.705749 148.12007 
L 400.691234 148.154383 
L 401.756933 145.325978 
L 408.151127 145.392087 
L 409.216826 148.22622 
L 410.282525 145.514172 
L 411.348224 145.589315 
L 417.742418 145.574071 
L 418.808117 148.060201 
L 422.005214 148.036487 
L 424.136612 148.306104 
L 431.596505 148.414384 
L 439.056398 148.505802 
L 440.122097 146.952311 
L 441.187796 146.925943 
L 451.844786 147.110891 
L 452.910485 147.361658 
L 453.976184 139.098029 
L 455.041883 138.915902 
L 459.304679 138.871547 
L 460.370378 147.440745 
L 461.436077 138.904363 
L 463.567475 138.961519 
L 467.830271 139.02926 
L 469.961669 139.320948 
L 471.027368 139.782875 
L 478.487261 140.150491 
L 481.684358 140.149312 
L 482.750057 140.509332 
L 483.815756 149.429084 
L 484.881455 149.466298 
L 485.947154 140.496819 
L 491.275649 140.478986 
L 496.604144 140.752403 
L 504.064037 140.971711 
L 505.129736 140.960433 
L 506.195435 141.349579 
L 507.261134 141.171053 
L 508.326833 141.478697 
L 512.589629 141.599413 
L 513.655328 141.804467 
L 514.721028 141.823437 
L 515.786727 141.65995 
L 518.983824 141.769053 
L 522.180921 142.713492 
L 526.443717 142.762163 
L 527.509416 143.055275 
L 528.575115 142.96635 
L 529.640814 143.183768 
L 541.363503 143.128992 
L 541.363503 143.128992 
" clip-path="url(#pcced2f69d6)" style="fill: none; stroke: #8c564b; stroke-width: 1.5; stroke-linecap: square"/>
   </g>
   <g id="line2d_27">
    <path d="M 332.486497 155.376 
L 333.552196 143.715635 
L 334.617895 143.409932 
L 335.683594 140.374022 
L 336.749293 140.394963 
L 339.94639 140.282628 
L 342.077788 140.471913 
L 343.143487 140.284614 
L 350.60338 140.095617 
L 354.866176 140.128034 
L 355.931875 143.292027 
L 362.32607 143.356397 
L 363.391769 143.393305 
L 364.457468 140.117845 
L 365.523167 140.102404 
L 366.588866 143.295475 
L 369.785963 143.211299 
L 370.851662 139.689664 
L 371.917361 139.457982 
L 377.245856 139.340519 
L 378.311555 139.055045 
L 380.442953 139.158425 
L 381.508652 139.243471 
L 384.705749 142.699225 
L 385.771448 142.894979 
L 386.837147 142.905425 
L 387.902846 142.707097 
L 400.691234 142.553611 
L 401.756933 138.985527 
L 407.085428 138.995365 
L 408.151127 139.086266 
L 409.216826 142.56344 
L 410.282525 139.062874 
L 411.348224 138.716699 
L 414.545321 138.442346 
L 415.61102 138.545271 
L 416.676719 138.817736 
L 417.742418 138.644897 
L 418.808117 141.697301 
L 426.26801 141.802079 
L 433.727903 141.796198 
L 436.925 142.170043 
L 437.990699 141.789659 
L 439.056398 141.950752 
L 440.122097 137.239381 
L 441.187796 137.369165 
L 444.384893 137.506597 
L 445.450592 137.993511 
L 446.516291 137.53871 
L 447.58199 137.574941 
L 448.647689 137.439767 
L 452.910485 137.272431 
L 453.976184 144.408871 
L 455.041883 144.727454 
L 456.107582 144.602475 
L 459.304679 144.554273 
L 460.370378 138.033197 
L 461.436077 144.264149 
L 462.501776 144.350592 
L 463.567475 144.299672 
L 467.830271 144.352853 
L 471.027368 144.621675 
L 474.224465 144.624865 
L 476.355863 144.780938 
L 478.487261 144.906783 
L 481.684358 144.968298 
L 482.750057 146.08746 
L 483.815756 141.835912 
L 484.881455 141.765126 
L 485.947154 145.905643 
L 490.20995 145.801855 
L 491.275649 145.9397 
L 498.735542 145.91383 
L 499.801241 145.49926 
L 505.129736 145.559084 
L 508.326833 144.806968 
L 511.52393 144.809081 
L 512.589629 144.933055 
L 513.655328 144.259348 
L 522.180921 144.349794 
L 523.24662 144.264986 
L 526.443717 144.26502 
L 527.509416 144.410754 
L 528.575115 144.419051 
L 529.640814 144.87381 
L 541.363503 144.95134 
L 541.363503 144.95134 
" clip-path="url(#pcced2f69d6)" style="fill: none; stroke: #e377c2; stroke-width: 1.5; stroke-linecap: square"/>
   </g>
   <g id="line2d_28">
    <path d="M 332.486497 155.376 
L 333.552196 106.212154 
L 334.617895 106.683846 
L 335.683594 117.536674 
L 339.94639 117.321465 
L 341.012089 117.728591 
L 344.209186 117.979883 
L 348.471982 117.755649 
L 349.537681 117.520943 
L 350.60338 117.55325 
L 351.669079 117.377048 
L 354.866176 117.462817 
L 355.931875 106.531115 
L 358.063273 106.253889 
L 362.32607 106.186718 
L 363.391769 106.281042 
L 364.457468 117.141263 
L 365.523167 117.130447 
L 366.588866 106.097949 
L 369.785963 105.511883 
L 370.851662 117.01729 
L 372.98306 117.147054 
L 374.048759 116.470291 
L 378.311555 117.1134 
L 379.377254 117.148402 
L 380.442953 117.314702 
L 381.508652 117.236677 
L 384.705749 105.689397 
L 385.771448 105.390025 
L 386.837147 105.363822 
L 387.902846 105.489221 
L 400.691234 105.959864 
L 401.756933 117.520116 
L 407.085428 117.473644 
L 408.151127 117.478866 
L 409.216826 105.975423 
L 410.282525 117.352835 
L 411.348224 117.410158 
L 414.545321 117.847655 
L 415.61102 117.788979 
L 416.676719 117.284633 
L 417.742418 117.466037 
L 418.808117 107.161363 
L 422.005214 107.583478 
L 424.136612 107.216336 
L 426.26801 107.13914 
L 430.530806 107.212619 
L 431.596505 107.449907 
L 432.662204 107.459668 
L 433.727903 107.717273 
L 436.925 105.003125 
L 437.990699 105.299425 
L 439.056398 104.833524 
L 440.122097 116.249457 
L 441.187796 116.392232 
L 444.384893 115.68194 
L 445.450592 115.576811 
L 446.516291 115.867197 
L 448.647689 115.804186 
L 451.844786 115.835024 
L 452.910485 115.179457 
L 453.976184 131.139153 
L 455.041883 130.165366 
L 456.107582 130.157245 
L 459.304679 130.37016 
L 460.370378 113.051531 
L 461.436077 130.343659 
L 462.501776 130.046936 
L 463.567475 130.12993 
L 466.764572 130.114095 
L 467.830271 129.634075 
L 468.89597 129.520861 
L 469.961669 130.035725 
L 471.027368 129.981374 
L 474.224465 129.945201 
L 476.355863 130.217021 
L 477.421562 130.083771 
L 478.487261 129.759209 
L 481.684358 129.728768 
L 482.750057 125.708092 
L 483.815756 103.49873 
L 484.881455 103.509188 
L 485.947154 125.788075 
L 490.20995 125.501049 
L 492.341348 124.896543 
L 493.407047 125.065577 
L 496.604144 124.982099 
L 497.669843 124.74865 
L 500.86694 124.534301 
L 504.064037 124.66912 
L 505.129736 124.945086 
L 506.195435 124.632856 
L 508.326833 124.489997 
L 511.52393 124.452342 
L 513.655328 124.77586 
L 514.721028 124.687962 
L 515.786727 125.271065 
L 518.983824 124.934352 
L 520.049523 124.941637 
L 521.115222 125.379822 
L 522.180921 124.681318 
L 523.24662 124.704031 
L 526.443717 124.648359 
L 527.509416 123.713503 
L 528.575115 124.194164 
L 529.640814 123.277691 
L 541.363503 123.204545 
L 541.363503 123.204545 
" clip-path="url(#pcced2f69d6)" style="fill: none; stroke: #7f7f7f; stroke-width: 1.5; stroke-linecap: square"/>
   </g>
   <g id="line2d_29">
    <path d="M 332.486497 155.376 
L 333.552196 138.076529 
L 334.617895 138.05392 
L 335.683594 142.027517 
L 344.209186 142.029867 
L 354.866176 141.998767 
L 355.931875 137.977148 
L 363.391769 137.907091 
L 364.457468 141.7896 
L 365.523167 141.813352 
L 366.588866 137.750265 
L 369.785963 137.771277 
L 370.851662 141.844337 
L 374.048759 142.064255 
L 379.377254 142.008345 
L 380.442953 141.895294 
L 381.508652 141.910933 
L 384.705749 137.80065 
L 400.691234 137.686973 
L 401.756933 141.789856 
L 403.888331 141.854542 
L 408.151127 141.88068 
L 409.216826 137.562705 
L 410.282525 141.756881 
L 415.61102 141.904938 
L 416.676719 142.165866 
L 417.742418 142.14277 
L 418.808117 137.950782 
L 423.070913 137.843601 
L 425.202311 137.769633 
L 429.465107 137.881218 
L 430.530806 137.818968 
L 431.596505 138.053099 
L 433.727903 138.221909 
L 439.056398 139.11493 
L 440.122097 142.77564 
L 445.450592 142.834005 
L 447.58199 142.976618 
L 452.910485 143.055726 
L 453.976184 148.00654 
L 455.041883 148.238105 
L 459.304679 148.247167 
L 460.370378 143.344578 
L 461.436077 148.269831 
L 462.501776 148.157361 
L 468.89597 148.179904 
L 469.961669 148.450767 
L 475.290164 148.469854 
L 476.355863 148.307966 
L 481.684358 148.322764 
L 482.750057 149.238546 
L 483.815756 141.141222 
L 484.881455 141.136643 
L 485.947154 149.316004 
L 492.341348 149.302936 
L 496.604144 149.320581 
L 505.129736 149.318933 
L 511.52393 149.26671 
L 515.786727 149.431834 
L 521.115222 149.682518 
L 522.180921 149.609435 
L 523.24662 149.672612 
L 541.363503 149.763104 
L 541.363503 149.763104 
" clip-path="url(#pcced2f69d6)" style="fill: none; stroke: #bcbd22; stroke-width: 1.5; stroke-linecap: square"/>
   </g>
   <g id="line2d_30">
    <path d="M 332.486497 155.376 
L 333.552196 138.322152 
L 334.617895 138.345743 
L 335.683594 142.135945 
L 341.012089 142.186069 
L 343.143487 142.305085 
L 354.866176 142.277266 
L 355.931875 138.366166 
L 362.32607 138.497861 
L 363.391769 138.491497 
L 364.457468 142.410917 
L 365.523167 142.446425 
L 366.588866 138.707261 
L 369.785963 138.698198 
L 370.851662 142.583991 
L 372.98306 142.56767 
L 374.048759 142.739733 
L 381.508652 142.8851 
L 384.705749 139.084794 
L 387.902846 139.099253 
L 400.691234 139.162493 
L 401.756933 142.855275 
L 408.151127 142.899266 
L 409.216826 139.114314 
L 410.282525 142.943178 
L 411.348224 143.019548 
L 415.61102 143.153115 
L 416.676719 143.301369 
L 417.742418 143.295794 
L 418.808117 139.415918 
L 423.070913 139.284038 
L 424.136612 139.646687 
L 426.26801 139.655504 
L 430.530806 139.69688 
L 431.596505 139.88248 
L 433.727903 139.915427 
L 439.056398 140.700826 
L 440.122097 143.911186 
L 452.910485 144.034179 
L 453.976184 148.550869 
L 455.041883 148.764902 
L 459.304679 148.785004 
L 460.370378 144.270844 
L 461.436077 148.81573 
L 463.567475 148.606539 
L 467.830271 148.540631 
L 471.027368 148.273991 
L 477.421562 148.183086 
L 478.487261 148.123751 
L 481.684358 148.085751 
L 482.750057 146.937573 
L 483.815756 140.631595 
L 484.881455 140.616856 
L 485.947154 146.955122 
L 492.341348 146.826318 
L 493.407047 146.869971 
L 496.604144 146.859871 
L 497.669843 147.013886 
L 520.049523 146.946351 
L 521.115222 147.2615 
L 523.24662 147.099636 
L 527.509416 147.245515 
L 528.575115 147.427722 
L 529.640814 147.21003 
L 541.363503 147.245787 
L 541.363503 147.245787 
" clip-path="url(#pcced2f69d6)" style="fill: none; stroke: #17becf; stroke-width: 1.5; stroke-linecap: square"/>
   </g>
   <g id="line2d_31">
    <path d="M 332.486497 14.256 
L 333.552196 155.376 
L 541.363503 155.376 
L 541.363503 155.376 
" clip-path="url(#pcced2f69d6)" style="fill: none; stroke: #1f77b4; stroke-width: 1.5; stroke-linecap: square"/>
   </g>
   <g id="patch_8">
    <path d="M 322.042647 162.432 
L 322.042647 7.2 
" style="fill: none; stroke: #000000; stroke-width: 0.8; stroke-linejoin: miter; stroke-linecap: square"/>
   </g>
   <g id="patch_9">
    <path d="M 551.807353 162.432 
L 551.807353 7.2 
" style="fill: none; stroke: #000000; stroke-width: 0.8; stroke-linejoin: miter; stroke-linecap: square"/>
   </g>
   <g id="patch_10">
    <path d="M 322.042647 162.432 
L 551.807353 162.432 
" style="fill: none; stroke: #000000; stroke-width: 0.8; stroke-linejoin: miter; stroke-linecap: square"/>
   </g>
   <g id="patch_11">
    <path d="M 322.042647 7.2 
L 551.807353 7.2 
" style="fill: none; stroke: #000000; stroke-width: 0.8; stroke-linejoin: miter; stroke-linecap: square"/>
   </g>
   <g id="legend_1">
    <g id="patch_12">
     <path d="M 457.807353 148.60625 
L 544.807353 148.60625 
Q 546.807353 148.60625 546.807353 146.60625 
L 546.807353 14.2 
Q 546.807353 12.2 544.807353 12.2 
L 457.807353 12.2 
Q 455.807353 12.2 455.807353 14.2 
L 455.807353 146.60625 
Q 455.807353 148.60625 457.807353 148.60625 
z
" style="fill: #ffffff; opacity: 0.8; stroke: #cccccc; stroke-linejoin: miter"/>
    </g>
    <g id="line2d_32">
     <path d="M 459.807353 19.73125 
L 469.807353 19.73125 
L 479.807353 19.73125 
" style="fill: none; stroke: #1f77b4; stroke-width: 1.5; stroke-linecap: square"/>
    </g>
    <g id="text_21">
     <!-- w_002027.SZ -->
     <g transform="translate(487.807353 23.23125) scale(0.1 -0.1)">
      <defs>
       <path id="SimHei-77" d="M 3075 2925 
L 2450 75 
L 1975 75 
L 1575 2250 
L 1525 2250 
L 1125 75 
L 650 75 
L 25 2925 
L 550 2925 
L 875 1050 
L 925 1050 
L 1275 2925 
L 1825 2925 
L 2175 1050 
L 2225 1050 
L 2550 2925 
L 3075 2925 
z
" transform="scale(0.015625)"/>
       <path id="SimHei-5f" d="M 3150 -850 
L 0 -850 
L 0 -550 
L 3150 -550 
L 3150 -850 
z
" transform="scale(0.015625)"/>
       <path id="SimHei-37" d="M 850 150 
Q 1300 2050 2425 3925 
L 275 3925 
L 275 4375 
L 2950 4375 
L 2950 3950 
Q 1775 2050 1400 150 
L 850 150 
z
" transform="scale(0.015625)"/>
       <path id="SimHei-53" d="M 2900 1325 
Q 2900 750 2537 412 
Q 2175 75 1550 75 
Q 925 75 575 425 
Q 225 775 225 1300 
L 225 1475 
L 800 1475 
L 800 1325 
Q 800 950 1025 750 
Q 1250 550 1550 550 
Q 1950 550 2137 762 
Q 2325 975 2325 1275 
Q 2325 1525 2100 1737 
Q 1875 1950 1450 2125 
Q 850 2350 587 2625 
Q 325 2900 325 3275 
Q 325 3800 687 4125 
Q 1050 4450 1550 4450 
Q 2200 4450 2487 4062 
Q 2775 3675 2775 3225 
L 2200 3225 
Q 2225 3500 2050 3725 
Q 1875 3950 1550 3950 
Q 1250 3950 1075 3787 
Q 900 3625 900 3350 
Q 900 3125 1037 2962 
Q 1175 2800 1750 2575 
Q 2300 2350 2600 2037 
Q 2900 1725 2900 1325 
z
" transform="scale(0.015625)"/>
       <path id="SimHei-5a" d="M 2900 125 
L 225 125 
L 225 600 
L 2250 3925 
L 375 3925 
L 375 4400 
L 2825 4400 
L 2825 3925 
L 800 600 
L 2900 600 
L 2900 125 
z
" transform="scale(0.015625)"/>
      </defs>
      <use xlink:href="#SimHei-77"/>
      <use xlink:href="#SimHei-5f" x="50"/>
      <use xlink:href="#SimHei-30" x="100"/>
      <use xlink:href="#SimHei-30" x="150"/>
      <use xlink:href="#SimHei-32" x="200"/>
      <use xlink:href="#SimHei-30" x="250"/>
      <use xlink:href="#SimHei-32" x="300"/>
      <use xlink:href="#SimHei-37" x="350"/>
      <use xlink:href="#SimHei-2e" x="400"/>
      <use xlink:href="#SimHei-53" x="450"/>
      <use xlink:href="#SimHei-5a" x="500"/>
     </g>
    </g>
    <g id="line2d_33">
     <path d="M 459.807353 33.090625 
L 469.807353 33.090625 
L 479.807353 33.090625 
" style="fill: none; stroke: #ff7f0e; stroke-width: 1.5; stroke-linecap: square"/>
    </g>
    <g id="text_22">
     <!-- w_002371.SZ -->
     <g transform="translate(487.807353 36.590625) scale(0.1 -0.1)">
      <use xlink:href="#SimHei-77"/>
      <use xlink:href="#SimHei-5f" x="50"/>
      <use xlink:href="#SimHei-30" x="100"/>
      <use xlink:href="#SimHei-30" x="150"/>
      <use xlink:href="#SimHei-32" x="200"/>
      <use xlink:href="#SimHei-33" x="250"/>
      <use xlink:href="#SimHei-37" x="300"/>
      <use xlink:href="#SimHei-31" x="350"/>
      <use xlink:href="#SimHei-2e" x="400"/>
      <use xlink:href="#SimHei-53" x="450"/>
      <use xlink:href="#SimHei-5a" x="500"/>
     </g>
    </g>
    <g id="line2d_34">
     <path d="M 459.807353 46.41875 
L 469.807353 46.41875 
L 479.807353 46.41875 
" style="fill: none; stroke: #2ca02c; stroke-width: 1.5; stroke-linecap: square"/>
    </g>
    <g id="text_23">
     <!-- w_600009.SH -->
     <g transform="translate(487.807353 49.91875) scale(0.1 -0.1)">
      <use xlink:href="#SimHei-77"/>
      <use xlink:href="#SimHei-5f" x="50"/>
      <use xlink:href="#SimHei-36" x="100"/>
      <use xlink:href="#SimHei-30" x="150"/>
      <use xlink:href="#SimHei-30" x="200"/>
      <use xlink:href="#SimHei-30" x="250"/>
      <use xlink:href="#SimHei-30" x="300"/>
      <use xlink:href="#SimHei-39" x="350"/>
      <use xlink:href="#SimHei-2e" x="400"/>
      <use xlink:href="#SimHei-53" x="450"/>
      <use xlink:href="#SimHei-48" x="500"/>
     </g>
    </g>
    <g id="line2d_35">
     <path d="M 459.807353 59.778125 
L 469.807353 59.778125 
L 479.807353 59.778125 
" style="fill: none; stroke: #d62728; stroke-width: 1.5; stroke-linecap: square"/>
    </g>
    <g id="text_24">
     <!-- w_600029.SH -->
     <g transform="translate(487.807353 63.278125) scale(0.1 -0.1)">
      <use xlink:href="#SimHei-77"/>
      <use xlink:href="#SimHei-5f" x="50"/>
      <use xlink:href="#SimHei-36" x="100"/>
      <use xlink:href="#SimHei-30" x="150"/>
      <use xlink:href="#SimHei-30" x="200"/>
      <use xlink:href="#SimHei-30" x="250"/>
      <use xlink:href="#SimHei-32" x="300"/>
      <use xlink:href="#SimHei-39" x="350"/>
      <use xlink:href="#SimHei-2e" x="400"/>
      <use xlink:href="#SimHei-53" x="450"/>
      <use xlink:href="#SimHei-48" x="500"/>
     </g>
    </g>
    <g id="line2d_36">
     <path d="M 459.807353 73.1375 
L 469.807353 73.1375 
L 479.807353 73.1375 
" style="fill: none; stroke: #9467bd; stroke-width: 1.5; stroke-linecap: square"/>
    </g>
    <g id="text_25">
     <!-- w_600183.SH -->
     <g transform="translate(487.807353 76.6375) scale(0.1 -0.1)">
      <use xlink:href="#SimHei-77"/>
      <use xlink:href="#SimHei-5f" x="50"/>
      <use xlink:href="#SimHei-36" x="100"/>
      <use xlink:href="#SimHei-30" x="150"/>
      <use xlink:href="#SimHei-30" x="200"/>
      <use xlink:href="#SimHei-31" x="250"/>
      <use xlink:href="#SimHei-38" x="300"/>
      <use xlink:href="#SimHei-33" x="350"/>
      <use xlink:href="#SimHei-2e" x="400"/>
      <use xlink:href="#SimHei-53" x="450"/>
      <use xlink:href="#SimHei-48" x="500"/>
     </g>
    </g>
    <g id="line2d_37">
     <path d="M 459.807353 86.465625 
L 469.807353 86.465625 
L 479.807353 86.465625 
" style="fill: none; stroke: #8c564b; stroke-width: 1.5; stroke-linecap: square"/>
    </g>
    <g id="text_26">
     <!-- w_600406.SH -->
     <g transform="translate(487.807353 89.965625) scale(0.1 -0.1)">
      <use xlink:href="#SimHei-77"/>
      <use xlink:href="#SimHei-5f" x="50"/>
      <use xlink:href="#SimHei-36" x="100"/>
      <use xlink:href="#SimHei-30" x="150"/>
      <use xlink:href="#SimHei-30" x="200"/>
      <use xlink:href="#SimHei-34" x="250"/>
      <use xlink:href="#SimHei-30" x="300"/>
      <use xlink:href="#SimHei-36" x="350"/>
      <use xlink:href="#SimHei-2e" x="400"/>
      <use xlink:href="#SimHei-53" x="450"/>
      <use xlink:href="#SimHei-48" x="500"/>
     </g>
    </g>
    <g id="line2d_38">
     <path d="M 459.807353 99.79375 
L 469.807353 99.79375 
L 479.807353 99.79375 
" style="fill: none; stroke: #e377c2; stroke-width: 1.5; stroke-linecap: square"/>
    </g>
    <g id="text_27">
     <!-- w_600900.SH -->
     <g transform="translate(487.807353 103.29375) scale(0.1 -0.1)">
      <use xlink:href="#SimHei-77"/>
      <use xlink:href="#SimHei-5f" x="50"/>
      <use xlink:href="#SimHei-36" x="100"/>
      <use xlink:href="#SimHei-30" x="150"/>
      <use xlink:href="#SimHei-30" x="200"/>
      <use xlink:href="#SimHei-39" x="250"/>
      <use xlink:href="#SimHei-30" x="300"/>
      <use xlink:href="#SimHei-30" x="350"/>
      <use xlink:href="#SimHei-2e" x="400"/>
      <use xlink:href="#SimHei-53" x="450"/>
      <use xlink:href="#SimHei-48" x="500"/>
     </g>
    </g>
    <g id="line2d_39">
     <path d="M 459.807353 113.121875 
L 469.807353 113.121875 
L 479.807353 113.121875 
" style="fill: none; stroke: #7f7f7f; stroke-width: 1.5; stroke-linecap: square"/>
    </g>
    <g id="text_28">
     <!-- w_601989.SH -->
     <g transform="translate(487.807353 116.621875) scale(0.1 -0.1)">
      <use xlink:href="#SimHei-77"/>
      <use xlink:href="#SimHei-5f" x="50"/>
      <use xlink:href="#SimHei-36" x="100"/>
      <use xlink:href="#SimHei-30" x="150"/>
      <use xlink:href="#SimHei-31" x="200"/>
      <use xlink:href="#SimHei-39" x="250"/>
      <use xlink:href="#SimHei-38" x="300"/>
      <use xlink:href="#SimHei-39" x="350"/>
      <use xlink:href="#SimHei-2e" x="400"/>
      <use xlink:href="#SimHei-53" x="450"/>
      <use xlink:href="#SimHei-48" x="500"/>
     </g>
    </g>
    <g id="line2d_40">
     <path d="M 459.807353 126.45 
L 469.807353 126.45 
L 479.807353 126.45 
" style="fill: none; stroke: #bcbd22; stroke-width: 1.5; stroke-linecap: square"/>
    </g>
    <g id="text_29">
     <!-- w_601998.SH -->
     <g transform="translate(487.807353 129.95) scale(0.1 -0.1)">
      <use xlink:href="#SimHei-77"/>
      <use xlink:href="#SimHei-5f" x="50"/>
      <use xlink:href="#SimHei-36" x="100"/>
      <use xlink:href="#SimHei-30" x="150"/>
      <use xlink:href="#SimHei-31" x="200"/>
      <use xlink:href="#SimHei-39" x="250"/>
      <use xlink:href="#SimHei-39" x="300"/>
      <use xlink:href="#SimHei-38" x="350"/>
      <use xlink:href="#SimHei-2e" x="400"/>
      <use xlink:href="#SimHei-53" x="450"/>
      <use xlink:href="#SimHei-48" x="500"/>
     </g>
    </g>
    <g id="line2d_41">
     <path d="M 459.807353 139.778125 
L 469.807353 139.778125 
L 479.807353 139.778125 
" style="fill: none; stroke: #17becf; stroke-width: 1.5; stroke-linecap: square"/>
    </g>
    <g id="text_30">
     <!-- w_CASH -->
     <g transform="translate(487.807353 143.278125) scale(0.1 -0.1)">
      <defs>
       <path id="SimHei-41" d="M 3075 125 
L 2475 125 
L 2125 1450 
L 1025 1450 
L 675 125 
L 75 125 
L 1325 4450 
L 1825 4450 
L 3075 125 
z
M 2000 1925 
L 1600 3450 
L 1550 3450 
L 1150 1925 
L 2000 1925 
z
" transform="scale(0.015625)"/>
      </defs>
      <use xlink:href="#SimHei-77"/>
      <use xlink:href="#SimHei-5f" x="50"/>
      <use xlink:href="#SimHei-43" x="100"/>
      <use xlink:href="#SimHei-41" x="150"/>
      <use xlink:href="#SimHei-53" x="200"/>
      <use xlink:href="#SimHei-48" x="250"/>
     </g>
    </g>
   </g>
  </g>
  <g id="axes_3">
   <g id="patch_13">
    <path d="M 597.760294 162.432 
L 827.525 162.432 
L 827.525 7.2 
L 597.760294 7.2 
z
" style="fill: #ffffff"/>
   </g>
   <g id="matplotlib.axis_5">
    <g id="xtick_7">
     <g id="line2d_42">
      <g>
       <use xlink:href="#m213c788bd9" x="654.029202" y="162.432" style="stroke: #000000; stroke-width: 0.8"/>
      </g>
     </g>
     <g id="text_31">
      <!-- 2023-09-20 -->
      <g transform="translate(629.029202 176.307) scale(0.1 -0.1)">
       <use xlink:href="#SimHei-32"/>
       <use xlink:href="#SimHei-30" x="50"/>
       <use xlink:href="#SimHei-32" x="100"/>
       <use xlink:href="#SimHei-33" x="150"/>
       <use xlink:href="#SimHei-2d" x="200"/>
       <use xlink:href="#SimHei-30" x="250"/>
       <use xlink:href="#SimHei-39" x="300"/>
       <use xlink:href="#SimHei-2d" x="350"/>
       <use xlink:href="#SimHei-32" x="400"/>
       <use xlink:href="#SimHei-30" x="450"/>
      </g>
     </g>
    </g>
    <g id="xtick_8">
     <g id="line2d_43">
      <g>
       <use xlink:href="#m213c788bd9" x="717.971142" y="162.432" style="stroke: #000000; stroke-width: 0.8"/>
      </g>
     </g>
     <g id="text_32">
      <!-- 2023-11-19 -->
      <g transform="translate(692.971142 176.307) scale(0.1 -0.1)">
       <use xlink:href="#SimHei-32"/>
       <use xlink:href="#SimHei-30" x="50"/>
       <use xlink:href="#SimHei-32" x="100"/>
       <use xlink:href="#SimHei-33" x="150"/>
       <use xlink:href="#SimHei-2d" x="200"/>
       <use xlink:href="#SimHei-31" x="250"/>
       <use xlink:href="#SimHei-31" x="300"/>
       <use xlink:href="#SimHei-2d" x="350"/>
       <use xlink:href="#SimHei-31" x="400"/>
       <use xlink:href="#SimHei-39" x="450"/>
      </g>
     </g>
    </g>
    <g id="xtick_9">
     <g id="line2d_44">
      <g>
       <use xlink:href="#m213c788bd9" x="781.913083" y="162.432" style="stroke: #000000; stroke-width: 0.8"/>
      </g>
     </g>
     <g id="text_33">
      <!-- 2024-01-18 -->
      <g transform="translate(756.913083 176.307) scale(0.1 -0.1)">
       <use xlink:href="#SimHei-32"/>
       <use xlink:href="#SimHei-30" x="50"/>
       <use xlink:href="#SimHei-32" x="100"/>
       <use xlink:href="#SimHei-34" x="150"/>
       <use xlink:href="#SimHei-2d" x="200"/>
       <use xlink:href="#SimHei-30" x="250"/>
       <use xlink:href="#SimHei-31" x="300"/>
       <use xlink:href="#SimHei-2d" x="350"/>
       <use xlink:href="#SimHei-31" x="400"/>
       <use xlink:href="#SimHei-38" x="450"/>
      </g>
     </g>
    </g>
   </g>
   <g id="matplotlib.axis_6">
    <g id="ytick_14">
     <g id="line2d_45">
      <g>
       <use xlink:href="#m88f0b9c268" x="597.760294" y="155.376" style="stroke: #000000; stroke-width: 0.8"/>
      </g>
     </g>
     <g id="text_34">
      <!-- 0.0000 -->
      <g transform="translate(560.760294 158.8135) scale(0.1 -0.1)">
       <use xlink:href="#SimHei-30"/>
       <use xlink:href="#SimHei-2e" x="50"/>
       <use xlink:href="#SimHei-30" x="100"/>
       <use xlink:href="#SimHei-30" x="150"/>
       <use xlink:href="#SimHei-30" x="200"/>
       <use xlink:href="#SimHei-30" x="250"/>
      </g>
     </g>
    </g>
    <g id="ytick_15">
     <g id="line2d_46">
      <g>
       <use xlink:href="#m88f0b9c268" x="597.760294" y="127.152" style="stroke: #000000; stroke-width: 0.8"/>
      </g>
     </g>
     <g id="text_35">
      <!-- 0.0005 -->
      <g transform="translate(560.760294 130.5895) scale(0.1 -0.1)">
       <defs>
        <path id="SimHei-35" d="M 550 1325 
Q 725 650 1150 575 
Q 1575 500 1837 662 
Q 2100 825 2212 1087 
Q 2325 1350 2312 1675 
Q 2300 2000 2137 2225 
Q 1975 2450 1725 2525 
Q 1475 2600 1162 2525 
Q 850 2450 650 2175 
L 225 2225 
Q 275 2375 700 4375 
L 2675 4375 
L 2675 3925 
L 1075 3925 
Q 950 3250 825 2850 
Q 1200 3025 1525 3012 
Q 1850 3000 2150 2862 
Q 2450 2725 2587 2487 
Q 2725 2250 2787 2012 
Q 2850 1775 2837 1500 
Q 2825 1225 2725 937 
Q 2625 650 2425 462 
Q 2225 275 1937 162 
Q 1650 50 1275 75 
Q 900 100 562 350 
Q 225 600 100 1200 
L 550 1325 
z
" transform="scale(0.015625)"/>
       </defs>
       <use xlink:href="#SimHei-30"/>
       <use xlink:href="#SimHei-2e" x="50"/>
       <use xlink:href="#SimHei-30" x="100"/>
       <use xlink:href="#SimHei-30" x="150"/>
       <use xlink:href="#SimHei-30" x="200"/>
       <use xlink:href="#SimHei-35" x="250"/>
      </g>
     </g>
    </g>
    <g id="ytick_16">
     <g id="line2d_47">
      <g>
       <use xlink:href="#m88f0b9c268" x="597.760294" y="98.928" style="stroke: #000000; stroke-width: 0.8"/>
      </g>
     </g>
     <g id="text_36">
      <!-- 0.0010 -->
      <g transform="translate(560.760294 102.3655) scale(0.1 -0.1)">
       <use xlink:href="#SimHei-30"/>
       <use xlink:href="#SimHei-2e" x="50"/>
       <use xlink:href="#SimHei-30" x="100"/>
       <use xlink:href="#SimHei-30" x="150"/>
       <use xlink:href="#SimHei-31" x="200"/>
       <use xlink:href="#SimHei-30" x="250"/>
      </g>
     </g>
    </g>
    <g id="ytick_17">
     <g id="line2d_48">
      <g>
       <use xlink:href="#m88f0b9c268" x="597.760294" y="70.704" style="stroke: #000000; stroke-width: 0.8"/>
      </g>
     </g>
     <g id="text_37">
      <!-- 0.0015 -->
      <g transform="translate(560.760294 74.1415) scale(0.1 -0.1)">
       <use xlink:href="#SimHei-30"/>
       <use xlink:href="#SimHei-2e" x="50"/>
       <use xlink:href="#SimHei-30" x="100"/>
       <use xlink:href="#SimHei-30" x="150"/>
       <use xlink:href="#SimHei-31" x="200"/>
       <use xlink:href="#SimHei-35" x="250"/>
      </g>
     </g>
    </g>
    <g id="ytick_18">
     <g id="line2d_49">
      <g>
       <use xlink:href="#m88f0b9c268" x="597.760294" y="42.48" style="stroke: #000000; stroke-width: 0.8"/>
      </g>
     </g>
     <g id="text_38">
      <!-- 0.0020 -->
      <g transform="translate(560.760294 45.9175) scale(0.1 -0.1)">
       <use xlink:href="#SimHei-30"/>
       <use xlink:href="#SimHei-2e" x="50"/>
       <use xlink:href="#SimHei-30" x="100"/>
       <use xlink:href="#SimHei-30" x="150"/>
       <use xlink:href="#SimHei-32" x="200"/>
       <use xlink:href="#SimHei-30" x="250"/>
      </g>
     </g>
    </g>
    <g id="ytick_19">
     <g id="line2d_50">
      <g>
       <use xlink:href="#m88f0b9c268" x="597.760294" y="14.256" style="stroke: #000000; stroke-width: 0.8"/>
      </g>
     </g>
     <g id="text_39">
      <!-- 0.0025 -->
      <g transform="translate(560.760294 17.6935) scale(0.1 -0.1)">
       <use xlink:href="#SimHei-30"/>
       <use xlink:href="#SimHei-2e" x="50"/>
       <use xlink:href="#SimHei-30" x="100"/>
       <use xlink:href="#SimHei-30" x="150"/>
       <use xlink:href="#SimHei-32" x="200"/>
       <use xlink:href="#SimHei-35" x="250"/>
      </g>
     </g>
    </g>
   </g>
   <g id="line2d_51">
    <path d="M 608.204144 14.256 
L 609.269843 153.80127 
L 610.335542 119.371628 
L 611.401241 154.430574 
L 614.598338 154.121044 
L 615.664037 152.244828 
L 616.729736 154.181465 
L 617.795435 153.591502 
L 618.861134 154.19494 
L 622.058231 153.314511 
L 623.12393 153.932395 
L 624.189629 153.00653 
L 625.255328 154.181664 
L 626.321028 154.191201 
L 629.518125 154.356787 
L 630.583824 115.880831 
L 631.649523 153.960382 
L 632.715222 154.479764 
L 633.780921 153.706668 
L 636.978018 153.232918 
L 638.043717 153.979789 
L 639.109416 117.882696 
L 640.175115 153.985467 
L 641.240814 117.924994 
L 644.437911 153.465981 
L 645.50361 116.226353 
L 646.569309 153.993094 
L 647.635008 153.678541 
L 651.897804 153.798495 
L 652.963503 154.187496 
L 654.029202 154.340565 
L 655.094901 154.765541 
L 656.1606 154.039893 
L 659.357697 116.452855 
L 660.423396 154.316906 
L 661.489095 154.644205 
L 662.554794 154.063889 
L 674.277483 153.249964 
L 675.343182 153.878901 
L 676.408881 116.961315 
L 677.47458 154.184457 
L 678.540279 153.373091 
L 681.737376 153.804073 
L 682.803075 154.401878 
L 683.868774 116.410077 
L 684.934473 117.20626 
L 686.000172 153.985777 
L 689.197269 153.355597 
L 690.262968 154.399029 
L 691.328667 150.770016 
L 692.394366 154.051736 
L 693.460065 116.890386 
L 696.657162 152.971696 
L 697.722861 154.531941 
L 698.78856 154.216144 
L 699.854259 154.450378 
L 700.919958 154.383233 
L 704.117055 153.540651 
L 705.182754 154.73416 
L 706.248453 153.808169 
L 707.314152 154.589314 
L 708.379851 154.352205 
L 711.576948 150.034435 
L 712.642647 153.543756 
L 713.708346 153.870601 
L 714.774045 118.243776 
L 715.839744 154.324137 
L 719.036841 153.061496 
L 720.10254 154.28073 
L 721.168239 153.575942 
L 722.233938 154.240732 
L 723.299637 154.497122 
L 726.496734 154.324033 
L 727.562433 153.202265 
L 728.628132 72.810736 
L 729.693831 152.329278 
L 730.75953 153.699704 
L 733.956627 153.931261 
L 735.022326 74.628242 
L 736.088025 73.123927 
L 737.153724 154.418858 
L 738.219423 154.048541 
L 741.41652 154.287485 
L 742.482219 153.977981 
L 743.547918 151.924802 
L 744.613617 152.361768 
L 745.679316 154.132869 
L 748.876413 153.433534 
L 749.942112 153.58813 
L 751.007811 153.441492 
L 752.07351 154.108134 
L 753.139209 154.046866 
L 756.336306 154.705925 
L 757.402005 145.734355 
L 758.467704 62.946133 
L 759.533403 153.284807 
L 760.599102 62.893512 
L 764.861898 153.565211 
L 766.993296 154.591277 
L 768.058995 153.857432 
L 771.256092 154.179941 
L 772.321791 153.194422 
L 773.38749 154.37051 
L 774.453189 152.701788 
L 775.518888 153.881294 
L 778.715985 153.097126 
L 779.781684 154.092811 
L 780.847383 154.404751 
L 781.913083 152.536229 
L 782.978782 153.144636 
L 786.175879 153.807252 
L 787.241578 154.386578 
L 788.307277 153.130802 
L 789.372976 153.796782 
L 790.438675 152.626384 
L 794.701471 152.978955 
L 795.76717 149.904501 
L 797.898568 153.747338 
L 801.095665 152.161301 
L 802.161364 151.105749 
L 803.227063 154.347334 
L 804.292762 151.628877 
L 816.015451 153.780286 
L 817.08115 155.376 
L 817.08115 155.376 
" clip-path="url(#pf7b6fd973e)" style="fill: none; stroke: #1f77b4; stroke-width: 1.5; stroke-linecap: square"/>
   </g>
   <g id="patch_14">
    <path d="M 597.760294 162.432 
L 597.760294 7.2 
" style="fill: none; stroke: #000000; stroke-width: 0.8; stroke-linejoin: miter; stroke-linecap: square"/>
   </g>
   <g id="patch_15">
    <path d="M 827.525 162.432 
L 827.525 7.2 
" style="fill: none; stroke: #000000; stroke-width: 0.8; stroke-linejoin: miter; stroke-linecap: square"/>
   </g>
   <g id="patch_16">
    <path d="M 597.760294 162.432 
L 827.525 162.432 
" style="fill: none; stroke: #000000; stroke-width: 0.8; stroke-linejoin: miter; stroke-linecap: square"/>
   </g>
   <g id="patch_17">
    <path d="M 597.760294 7.2 
L 827.525 7.2 
" style="fill: none; stroke: #000000; stroke-width: 0.8; stroke-linejoin: miter; stroke-linecap: square"/>
   </g>
  </g>
 </g>
 <defs>
  <clipPath id="pf43086dda6">
   <rect x="46.325" y="7.2" width="229.764706" height="155.232"/>
  </clipPath>
  <clipPath id="pcced2f69d6">
   <rect x="322.042647" y="7.2" width="229.764706" height="155.232"/>
  </clipPath>
  <clipPath id="pf7b6fd973e">
   <rect x="597.760294" y="7.2" width="229.764706" height="155.232"/>
  </clipPath>
 </defs>
</svg>
