<?xml version="1.0" encoding="utf-8" standalone="no"?>
<!DOCTYPE svg PUBLIC "-//W3C//DTD SVG 1.1//EN"
  "http://www.w3.org/Graphics/SVG/1.1/DTD/svg11.dtd">
<svg xmlns:xlink="http://www.w3.org/1999/xlink" width="834.803125pt" height="187.301667pt" viewBox="0 0 834.803125 187.301667" xmlns="http://www.w3.org/2000/svg" version="1.1">
 <metadata>
  <rdf:RDF xmlns:dc="http://purl.org/dc/elements/1.1/" xmlns:cc="http://creativecommons.org/ns#" xmlns:rdf="http://www.w3.org/1999/02/22-rdf-syntax-ns#">
   <cc:Work>
    <dc:type rdf:resource="http://purl.org/dc/dcmitype/StillImage"/>
    <dc:date>2024-12-25T17:33:01.298278</dc:date>
    <dc:format>image/svg+xml</dc:format>
    <dc:creator>
     <cc:Agent>
      <dc:title>Matplotlib v3.9.3, https://matplotlib.org/</dc:title>
     </cc:Agent>
    </dc:creator>
   </cc:Work>
  </rdf:RDF>
 </metadata>
 <defs>
  <style type="text/css">*{stroke-linejoin: round; stroke-linecap: butt}</style>
 </defs>
 <g id="figure_1">
  <g id="patch_1">
   <path d="M 0 187.301667 
L 834.803125 187.301667 
L 834.803125 0 
L 0 0 
z
" style="fill: #ffffff"/>
  </g>
  <g id="axes_1">
   <g id="patch_2">
    <path d="M 46.403125 164.976667 
L 276.167831 164.976667 
L 276.167831 9.744667 
L 46.403125 9.744667 
z
" style="fill: #ffffff"/>
   </g>
   <g id="matplotlib.axis_1">
    <g id="xtick_1">
     <g id="line2d_1">
      <defs>
       <path id="m303824b582" d="M 0 0 
L 0 3.5 
" style="stroke: #000000; stroke-width: 0.8"/>
      </defs>
      <g>
       <use xlink:href="#m303824b582" x="102.672033" y="164.976667" style="stroke: #000000; stroke-width: 0.8"/>
      </g>
     </g>
     <g id="text_1">
      <!-- 2023-09-20 -->
      <g transform="translate(77.672033 178.851667) scale(0.1 -0.1)">
       <defs>
        <path id="SimHei-32" d="M 300 250 
Q 325 625 650 925 
Q 975 1225 1475 1862 
Q 1975 2500 2125 2850 
Q 2275 3200 2237 3450 
Q 2200 3700 2000 3862 
Q 1800 4025 1537 4000 
Q 1275 3975 1037 3800 
Q 800 3625 675 3275 
L 200 3350 
Q 400 3925 712 4187 
Q 1025 4450 1450 4475 
Q 1700 4500 1900 4462 
Q 2100 4425 2312 4287 
Q 2525 4150 2662 3875 
Q 2800 3600 2762 3212 
Q 2725 2825 2375 2287 
Q 2025 1750 1025 600 
L 2825 600 
L 2825 150 
L 300 150 
L 300 250 
z
" transform="scale(0.015625)"/>
        <path id="SimHei-30" d="M 225 2537 
Q 250 3200 412 3587 
Q 575 3975 875 4225 
Q 1175 4475 1612 4475 
Q 2050 4475 2375 4112 
Q 2700 3750 2800 3200 
Q 2900 2650 2862 1937 
Q 2825 1225 2612 775 
Q 2400 325 1975 150 
Q 1550 -25 1125 187 
Q 700 400 525 750 
Q 350 1100 275 1487 
Q 200 1875 225 2537 
z
M 750 2687 
Q 675 2000 800 1462 
Q 925 925 1212 700 
Q 1500 475 1800 612 
Q 2100 750 2237 1162 
Q 2375 1575 2375 2062 
Q 2375 2550 2337 2950 
Q 2300 3350 2112 3675 
Q 1925 4000 1612 4012 
Q 1300 4025 1062 3700 
Q 825 3375 750 2687 
z
" transform="scale(0.015625)"/>
        <path id="SimHei-33" d="M 250 1225 
L 700 1300 
Q 800 975 1025 762 
Q 1250 550 1587 562 
Q 1925 575 2125 837 
Q 2325 1100 2300 1437 
Q 2275 1775 2037 1962 
Q 1800 2150 1275 2225 
L 1275 2550 
Q 1800 2600 2037 2825 
Q 2275 3050 2250 3412 
Q 2225 3775 1925 3937 
Q 1625 4100 1287 3975 
Q 950 3850 750 3275 
L 300 3350 
Q 450 3800 712 4100 
Q 975 4400 1425 4450 
Q 1875 4500 2212 4337 
Q 2550 4175 2687 3837 
Q 2825 3500 2725 3100 
Q 2625 2700 2150 2400 
Q 2500 2250 2687 1950 
Q 2875 1650 2812 1162 
Q 2750 675 2375 375 
Q 2000 75 1525 87 
Q 1050 100 700 387 
Q 350 675 250 1225 
z
" transform="scale(0.015625)"/>
        <path id="SimHei-2d" d="M 2975 2125 
L 125 2125 
L 125 2525 
L 2975 2525 
L 2975 2125 
z
" transform="scale(0.015625)"/>
        <path id="SimHei-39" d="M 800 75 
Q 1350 1000 1700 1750 
Q 1075 1650 662 1912 
Q 250 2175 162 2625 
Q 75 3075 175 3437 
Q 275 3800 487 4037 
Q 700 4275 1000 4375 
Q 1300 4475 1537 4475 
Q 1775 4475 2025 4375 
Q 2275 4275 2475 4075 
Q 2675 3875 2750 3662 
Q 2825 3450 2825 3112 
Q 2825 2775 2575 2250 
Q 2325 1725 1350 75 
L 800 75 
z
M 662 2875 
Q 700 2550 937 2337 
Q 1175 2125 1450 2150 
Q 1725 2175 1887 2300 
Q 2050 2425 2200 2725 
Q 2300 3100 2250 3362 
Q 2200 3625 1987 3800 
Q 1775 3975 1525 3975 
Q 1375 4000 1137 3900 
Q 900 3800 762 3500 
Q 625 3200 662 2875 
z
" transform="scale(0.015625)"/>
       </defs>
       <use xlink:href="#SimHei-32"/>
       <use xlink:href="#SimHei-30" x="50"/>
       <use xlink:href="#SimHei-32" x="100"/>
       <use xlink:href="#SimHei-33" x="150"/>
       <use xlink:href="#SimHei-2d" x="200"/>
       <use xlink:href="#SimHei-30" x="250"/>
       <use xlink:href="#SimHei-39" x="300"/>
       <use xlink:href="#SimHei-2d" x="350"/>
       <use xlink:href="#SimHei-32" x="400"/>
       <use xlink:href="#SimHei-30" x="450"/>
      </g>
     </g>
    </g>
    <g id="xtick_2">
     <g id="line2d_2">
      <g>
       <use xlink:href="#m303824b582" x="166.613973" y="164.976667" style="stroke: #000000; stroke-width: 0.8"/>
      </g>
     </g>
     <g id="text_2">
      <!-- 2023-11-19 -->
      <g transform="translate(141.613973 178.851667) scale(0.1 -0.1)">
       <defs>
        <path id="SimHei-31" d="M 1400 3600 
Q 1075 3275 575 2975 
L 575 3450 
Q 1200 3875 1600 4450 
L 1900 4450 
L 1900 150 
L 1400 150 
L 1400 3600 
z
" transform="scale(0.015625)"/>
       </defs>
       <use xlink:href="#SimHei-32"/>
       <use xlink:href="#SimHei-30" x="50"/>
       <use xlink:href="#SimHei-32" x="100"/>
       <use xlink:href="#SimHei-33" x="150"/>
       <use xlink:href="#SimHei-2d" x="200"/>
       <use xlink:href="#SimHei-31" x="250"/>
       <use xlink:href="#SimHei-31" x="300"/>
       <use xlink:href="#SimHei-2d" x="350"/>
       <use xlink:href="#SimHei-31" x="400"/>
       <use xlink:href="#SimHei-39" x="450"/>
      </g>
     </g>
    </g>
    <g id="xtick_3">
     <g id="line2d_3">
      <g>
       <use xlink:href="#m303824b582" x="230.555913" y="164.976667" style="stroke: #000000; stroke-width: 0.8"/>
      </g>
     </g>
     <g id="text_3">
      <!-- 2024-01-18 -->
      <g transform="translate(205.555913 178.851667) scale(0.1 -0.1)">
       <defs>
        <path id="SimHei-34" d="M 2000 1100 
L 75 1100 
L 75 1525 
L 2100 4450 
L 2475 4450 
L 2475 1525 
L 3075 1525 
L 3075 1100 
L 2475 1100 
L 2475 150 
L 2000 150 
L 2000 1100 
z
M 2000 1525 
L 2000 3500 
L 600 1525 
L 2000 1525 
z
" transform="scale(0.015625)"/>
        <path id="SimHei-38" d="M 175 1375 
Q 175 1675 325 1962 
Q 475 2250 825 2425 
Q 525 2600 425 2812 
Q 325 3025 312 3300 
Q 300 3575 387 3775 
Q 475 3975 650 4150 
Q 825 4325 1037 4387 
Q 1250 4450 1500 4450 
Q 1750 4450 1950 4400 
Q 2150 4350 2375 4187 
Q 2600 4025 2700 3725 
Q 2800 3425 2687 3025 
Q 2575 2625 2100 2400 
Q 2525 2275 2700 2012 
Q 2875 1750 2875 1375 
Q 2875 1000 2762 775 
Q 2650 550 2512 400 
Q 2375 250 2137 162 
Q 1900 75 1537 75 
Q 1175 75 912 162 
Q 650 250 475 425 
Q 300 600 237 837 
Q 175 1075 175 1375 
z
M 687 1400 
Q 675 1100 787 875 
Q 900 650 1200 587 
Q 1500 525 1825 600 
Q 2150 675 2275 950 
Q 2400 1225 2362 1500 
Q 2325 1775 2050 1962 
Q 1775 2150 1450 2125 
Q 1125 2100 912 1900 
Q 700 1700 687 1400 
z
M 775 3350 
Q 775 3100 950 2875 
Q 1125 2650 1500 2650 
Q 1875 2650 2062 2875 
Q 2250 3100 2237 3412 
Q 2225 3725 2012 3875 
Q 1800 4025 1437 4000 
Q 1075 3975 925 3787 
Q 775 3600 775 3350 
z
" transform="scale(0.015625)"/>
       </defs>
       <use xlink:href="#SimHei-32"/>
       <use xlink:href="#SimHei-30" x="50"/>
       <use xlink:href="#SimHei-32" x="100"/>
       <use xlink:href="#SimHei-34" x="150"/>
       <use xlink:href="#SimHei-2d" x="200"/>
       <use xlink:href="#SimHei-30" x="250"/>
       <use xlink:href="#SimHei-31" x="300"/>
       <use xlink:href="#SimHei-2d" x="350"/>
       <use xlink:href="#SimHei-31" x="400"/>
       <use xlink:href="#SimHei-38" x="450"/>
      </g>
     </g>
    </g>
   </g>
   <g id="matplotlib.axis_2">
    <g id="ytick_1">
     <g id="line2d_4">
      <defs>
       <path id="md128fcb1cf" d="M 0 0 
L -3.5 0 
" style="stroke: #000000; stroke-width: 0.8"/>
      </defs>
      <g>
       <use xlink:href="#md128fcb1cf" x="46.403125" y="159.942406" style="stroke: #000000; stroke-width: 0.8"/>
      </g>
     </g>
     <g id="text_4">
      <!-- 0.92 -->
      <g transform="translate(19.403125 163.379906) scale(0.1 -0.1)">
       <defs>
        <path id="SimHei-2e" d="M 1075 125 
L 500 125 
L 500 675 
L 1075 675 
L 1075 125 
z
" transform="scale(0.015625)"/>
       </defs>
       <use xlink:href="#SimHei-30"/>
       <use xlink:href="#SimHei-2e" x="50"/>
       <use xlink:href="#SimHei-39" x="100"/>
       <use xlink:href="#SimHei-32" x="150"/>
      </g>
     </g>
    </g>
    <g id="ytick_2">
     <g id="line2d_5">
      <g>
       <use xlink:href="#md128fcb1cf" x="46.403125" y="130.081425" style="stroke: #000000; stroke-width: 0.8"/>
      </g>
     </g>
     <g id="text_5">
      <!-- 0.94 -->
      <g transform="translate(19.403125 133.518925) scale(0.1 -0.1)">
       <use xlink:href="#SimHei-30"/>
       <use xlink:href="#SimHei-2e" x="50"/>
       <use xlink:href="#SimHei-39" x="100"/>
       <use xlink:href="#SimHei-34" x="150"/>
      </g>
     </g>
    </g>
    <g id="ytick_3">
     <g id="line2d_6">
      <g>
       <use xlink:href="#md128fcb1cf" x="46.403125" y="100.220444" style="stroke: #000000; stroke-width: 0.8"/>
      </g>
     </g>
     <g id="text_6">
      <!-- 0.96 -->
      <g transform="translate(19.403125 103.657944) scale(0.1 -0.1)">
       <defs>
        <path id="SimHei-36" d="M 250 1612 
Q 275 1975 387 2225 
Q 500 2475 725 2850 
L 1750 4450 
L 2325 4450 
L 1275 2800 
Q 1950 2975 2350 2750 
Q 2750 2525 2887 2237 
Q 3025 1950 3037 1612 
Q 3050 1275 2937 950 
Q 2825 625 2537 362 
Q 2250 100 1737 75 
Q 1225 50 862 262 
Q 500 475 362 862 
Q 225 1250 250 1612 
z
M 1025 787 
Q 1250 550 1625 525 
Q 2000 500 2250 775 
Q 2500 1050 2500 1575 
Q 2500 2100 2187 2300 
Q 1875 2500 1487 2450 
Q 1100 2400 925 2075 
Q 750 1750 775 1387 
Q 800 1025 1025 787 
z
" transform="scale(0.015625)"/>
       </defs>
       <use xlink:href="#SimHei-30"/>
       <use xlink:href="#SimHei-2e" x="50"/>
       <use xlink:href="#SimHei-39" x="100"/>
       <use xlink:href="#SimHei-36" x="150"/>
      </g>
     </g>
    </g>
    <g id="ytick_4">
     <g id="line2d_7">
      <g>
       <use xlink:href="#md128fcb1cf" x="46.403125" y="70.359462" style="stroke: #000000; stroke-width: 0.8"/>
      </g>
     </g>
     <g id="text_7">
      <!-- 0.98 -->
      <g transform="translate(19.403125 73.796962) scale(0.1 -0.1)">
       <use xlink:href="#SimHei-30"/>
       <use xlink:href="#SimHei-2e" x="50"/>
       <use xlink:href="#SimHei-39" x="100"/>
       <use xlink:href="#SimHei-38" x="150"/>
      </g>
     </g>
    </g>
    <g id="ytick_5">
     <g id="line2d_8">
      <g>
       <use xlink:href="#md128fcb1cf" x="46.403125" y="40.498481" style="stroke: #000000; stroke-width: 0.8"/>
      </g>
     </g>
     <g id="text_8">
      <!-- 1.00 -->
      <g transform="translate(19.403125 43.935981) scale(0.1 -0.1)">
       <use xlink:href="#SimHei-31"/>
       <use xlink:href="#SimHei-2e" x="50"/>
       <use xlink:href="#SimHei-30" x="100"/>
       <use xlink:href="#SimHei-30" x="150"/>
      </g>
     </g>
    </g>
    <g id="ytick_6">
     <g id="line2d_9">
      <g>
       <use xlink:href="#md128fcb1cf" x="46.403125" y="10.6375" style="stroke: #000000; stroke-width: 0.8"/>
      </g>
     </g>
     <g id="text_9">
      <!-- 1.02 -->
      <g transform="translate(19.403125 14.075) scale(0.1 -0.1)">
       <use xlink:href="#SimHei-31"/>
       <use xlink:href="#SimHei-2e" x="50"/>
       <use xlink:href="#SimHei-30" x="100"/>
       <use xlink:href="#SimHei-32" x="150"/>
      </g>
     </g>
    </g>
    <g id="text_10">
     <!-- HRP-4yr -->
     <g transform="translate(14.153125 104.860667) rotate(-90) scale(0.1 -0.1)">
      <defs>
       <path id="SimHei-48" d="M 2850 125 
L 2275 125 
L 2275 2125 
L 850 2125 
L 850 125 
L 275 125 
L 275 4400 
L 850 4400 
L 850 2600 
L 2275 2600 
L 2275 4400 
L 2850 4400 
L 2850 125 
z
" transform="scale(0.015625)"/>
       <path id="SimHei-52" d="M 3000 125 
L 2400 125 
L 1500 1975 
L 850 1975 
L 850 125 
L 275 125 
L 275 4400 
L 1525 4400 
Q 2125 4400 2500 4112 
Q 2875 3825 2875 3175 
Q 2875 2675 2625 2400 
Q 2375 2125 2050 2050 
L 3000 125 
z
M 2300 3175 
Q 2300 3525 2087 3725 
Q 1875 3925 1400 3925 
L 850 3925 
L 850 2450 
L 1550 2450 
Q 1850 2450 2075 2612 
Q 2300 2775 2300 3175 
z
" transform="scale(0.015625)"/>
       <path id="SimHei-50" d="M 2950 3100 
Q 2950 2500 2600 2150 
Q 2250 1800 1625 1800 
L 900 1800 
L 900 125 
L 325 125 
L 325 4400 
L 1625 4400 
Q 2250 4400 2600 4050 
Q 2950 3700 2950 3100 
z
M 2375 3100 
Q 2375 3575 2150 3750 
Q 1925 3925 1475 3925 
L 900 3925 
L 900 2275 
L 1475 2275 
Q 1925 2275 2150 2450 
Q 2375 2625 2375 3100 
z
" transform="scale(0.015625)"/>
       <path id="SimHei-79" d="M 2900 2925 
L 1750 -100 
Q 1650 -450 1450 -625 
Q 1250 -800 950 -800 
Q 825 -800 712 -787 
Q 600 -775 500 -725 
L 500 -225 
Q 600 -275 700 -300 
Q 800 -325 875 -325 
Q 1075 -325 1150 -262 
Q 1225 -200 1300 25 
L 200 2925 
L 750 2925 
L 1550 725 
L 1575 725 
L 2350 2925 
L 2900 2925 
z
" transform="scale(0.015625)"/>
       <path id="SimHei-72" d="M 2500 2425 
Q 2025 2500 1700 2287 
Q 1375 2075 1150 1550 
L 1150 125 
L 650 125 
L 650 2925 
L 1150 2925 
L 1150 2200 
Q 1375 2600 1712 2787 
Q 2050 2975 2500 2975 
L 2500 2425 
z
" transform="scale(0.015625)"/>
      </defs>
      <use xlink:href="#SimHei-48"/>
      <use xlink:href="#SimHei-52" x="50"/>
      <use xlink:href="#SimHei-50" x="100"/>
      <use xlink:href="#SimHei-2d" x="150"/>
      <use xlink:href="#SimHei-34" x="200"/>
      <use xlink:href="#SimHei-79" x="250"/>
      <use xlink:href="#SimHei-72" x="300"/>
     </g>
    </g>
   </g>
   <g id="line2d_10">
    <path d="M 56.846975 44.231104 
L 57.912674 50.07377 
L 58.978373 38.468926 
L 60.044072 69.546633 
L 63.241169 75.897044 
L 64.306868 72.86564 
L 65.372567 83.27494 
L 66.438266 77.432001 
L 67.503965 87.73071 
L 70.701062 114.929173 
L 71.766761 103.945535 
L 72.83246 119.358606 
L 73.898159 121.889471 
L 74.963858 119.460284 
L 78.160955 111.549376 
L 79.226654 107.008707 
L 80.292353 112.27442 
L 81.358052 113.600275 
L 82.423751 115.517869 
L 85.620848 94.411697 
L 86.686547 99.596684 
L 87.752246 106.000299 
L 88.817945 116.660862 
L 89.883644 117.62609 
L 93.080742 103.843795 
L 94.146441 103.641626 
L 95.21214 110.038252 
L 96.277839 94.267017 
L 97.343538 103.416468 
L 100.540635 102.938698 
L 101.606334 102.428637 
L 102.672033 105.220554 
L 103.737732 114.50086 
L 104.803431 98.554877 
L 108.000528 101.043688 
L 109.066227 111.112704 
L 110.131926 118.340557 
L 111.197625 113.184546 
L 122.920314 105.48296 
L 123.986013 110.249232 
L 125.051712 111.60073 
L 126.117411 93.822864 
L 127.18311 100.559987 
L 130.380207 101.751756 
L 131.445906 95.267414 
L 132.511605 100.794687 
L 133.577304 125.712063 
L 134.643003 138.480509 
L 137.8401 149.719069 
L 138.905799 141.403714 
L 139.971498 140.267941 
L 142.102896 112.542998 
L 145.299993 117.811168 
L 146.365692 114.368639 
L 147.431391 110.13011 
L 148.49709 109.039742 
L 149.562789 110.351052 
L 153.825585 117.86134 
L 154.891284 121.754456 
L 155.956983 114.720607 
L 157.022682 120.615806 
L 160.219779 123.588307 
L 161.285478 123.629935 
L 162.351177 112.203143 
L 163.416876 115.546607 
L 164.482575 118.021162 
L 167.679672 110.255516 
L 168.745371 109.98923 
L 169.81107 118.216941 
L 170.876769 112.744829 
L 171.942468 118.174248 
L 175.139565 119.78468 
L 176.205264 121.369863 
L 177.270963 131.577667 
L 178.336662 121.927283 
L 179.402361 128.582571 
L 182.599458 130.449813 
L 183.665157 150.590106 
L 184.730856 156.386314 
L 185.796555 157.920667 
L 186.862254 155.013418 
L 190.059351 150.437442 
L 191.12505 133.822506 
L 192.190749 136.597575 
L 193.256448 142.347792 
L 194.322147 153.600602 
L 197.519244 152.235701 
L 198.584943 147.170156 
L 199.650642 153.948542 
L 200.716341 148.415022 
L 201.78204 148.174362 
L 204.979137 140.537843 
L 206.044836 146.962151 
L 207.110535 144.018415 
L 208.176234 134.06665 
L 209.241933 128.73716 
L 213.504729 128.075685 
L 214.570428 121.664589 
L 215.636127 124.535078 
L 216.701826 118.368223 
L 219.898923 136.519435 
L 220.964622 130.37429 
L 222.030321 137.893377 
L 223.09602 137.979037 
L 224.161719 125.939545 
L 227.358816 113.352585 
L 228.424515 99.595282 
L 229.490214 125.698789 
L 230.555913 120.784302 
L 231.621612 120.530974 
L 234.818709 143.637137 
L 235.884408 141.556015 
L 238.015806 74.337516 
L 239.081505 71.501807 
L 242.278602 55.334746 
L 243.344301 79.716429 
L 244.41 88.986557 
L 245.475699 96.473069 
L 246.541398 106.24613 
L 249.738496 92.21745 
L 250.804195 64.652805 
L 251.869894 63.029302 
L 252.935593 60.578241 
L 264.658282 27.393351 
L 265.723981 16.800667 
L 265.723981 16.800667 
" clip-path="url(#pa1220de6a5)" style="fill: none; stroke: #1f77b4; stroke-width: 1.5; stroke-linecap: square"/>
   </g>
   <g id="patch_3">
    <path d="M 46.403125 164.976667 
L 46.403125 9.744667 
" style="fill: none; stroke: #000000; stroke-width: 0.8; stroke-linejoin: miter; stroke-linecap: square"/>
   </g>
   <g id="patch_4">
    <path d="M 276.167831 164.976667 
L 276.167831 9.744667 
" style="fill: none; stroke: #000000; stroke-width: 0.8; stroke-linejoin: miter; stroke-linecap: square"/>
   </g>
   <g id="patch_5">
    <path d="M 46.403125 164.976667 
L 276.167831 164.976667 
" style="fill: none; stroke: #000000; stroke-width: 0.8; stroke-linejoin: miter; stroke-linecap: square"/>
   </g>
   <g id="patch_6">
    <path d="M 46.403125 9.744667 
L 276.167831 9.744667 
" style="fill: none; stroke: #000000; stroke-width: 0.8; stroke-linejoin: miter; stroke-linecap: square"/>
   </g>
  </g>
  <g id="axes_2">
   <g id="patch_7">
    <path d="M 322.120772 164.976667 
L 551.885478 164.976667 
L 551.885478 9.744667 
L 322.120772 9.744667 
z
" style="fill: #ffffff"/>
   </g>
   <g id="matplotlib.axis_3">
    <g id="xtick_4">
     <g id="line2d_11">
      <g>
       <use xlink:href="#m303824b582" x="379.455379" y="164.976667" style="stroke: #000000; stroke-width: 0.8"/>
      </g>
     </g>
     <g id="text_11">
      <!-- 2023-09-20 -->
      <g transform="translate(354.455379 178.851667) scale(0.1 -0.1)">
       <use xlink:href="#SimHei-32"/>
       <use xlink:href="#SimHei-30" x="50"/>
       <use xlink:href="#SimHei-32" x="100"/>
       <use xlink:href="#SimHei-33" x="150"/>
       <use xlink:href="#SimHei-2d" x="200"/>
       <use xlink:href="#SimHei-30" x="250"/>
       <use xlink:href="#SimHei-39" x="300"/>
       <use xlink:href="#SimHei-2d" x="350"/>
       <use xlink:href="#SimHei-32" x="400"/>
       <use xlink:href="#SimHei-30" x="450"/>
      </g>
     </g>
    </g>
    <g id="xtick_5">
     <g id="line2d_12">
      <g>
       <use xlink:href="#m303824b582" x="443.397319" y="164.976667" style="stroke: #000000; stroke-width: 0.8"/>
      </g>
     </g>
     <g id="text_12">
      <!-- 2023-11-19 -->
      <g transform="translate(418.397319 178.851667) scale(0.1 -0.1)">
       <use xlink:href="#SimHei-32"/>
       <use xlink:href="#SimHei-30" x="50"/>
       <use xlink:href="#SimHei-32" x="100"/>
       <use xlink:href="#SimHei-33" x="150"/>
       <use xlink:href="#SimHei-2d" x="200"/>
       <use xlink:href="#SimHei-31" x="250"/>
       <use xlink:href="#SimHei-31" x="300"/>
       <use xlink:href="#SimHei-2d" x="350"/>
       <use xlink:href="#SimHei-31" x="400"/>
       <use xlink:href="#SimHei-39" x="450"/>
      </g>
     </g>
    </g>
    <g id="xtick_6">
     <g id="line2d_13">
      <g>
       <use xlink:href="#m303824b582" x="507.339259" y="164.976667" style="stroke: #000000; stroke-width: 0.8"/>
      </g>
     </g>
     <g id="text_13">
      <!-- 2024-01-18 -->
      <g transform="translate(482.339259 178.851667) scale(0.1 -0.1)">
       <use xlink:href="#SimHei-32"/>
       <use xlink:href="#SimHei-30" x="50"/>
       <use xlink:href="#SimHei-32" x="100"/>
       <use xlink:href="#SimHei-34" x="150"/>
       <use xlink:href="#SimHei-2d" x="200"/>
       <use xlink:href="#SimHei-30" x="250"/>
       <use xlink:href="#SimHei-31" x="300"/>
       <use xlink:href="#SimHei-2d" x="350"/>
       <use xlink:href="#SimHei-31" x="400"/>
       <use xlink:href="#SimHei-38" x="450"/>
      </g>
     </g>
    </g>
   </g>
   <g id="matplotlib.axis_4">
    <g id="ytick_7">
     <g id="line2d_14">
      <g>
       <use xlink:href="#md128fcb1cf" x="322.120772" y="157.920667" style="stroke: #000000; stroke-width: 0.8"/>
      </g>
     </g>
     <g id="text_14">
      <!-- 0.0 -->
      <g transform="translate(300.120772 161.358167) scale(0.1 -0.1)">
       <use xlink:href="#SimHei-30"/>
       <use xlink:href="#SimHei-2e" x="50"/>
       <use xlink:href="#SimHei-30" x="100"/>
      </g>
     </g>
    </g>
    <g id="ytick_8">
     <g id="line2d_15">
      <g>
       <use xlink:href="#md128fcb1cf" x="322.120772" y="129.696667" style="stroke: #000000; stroke-width: 0.8"/>
      </g>
     </g>
     <g id="text_15">
      <!-- 0.2 -->
      <g transform="translate(300.120772 133.134167) scale(0.1 -0.1)">
       <use xlink:href="#SimHei-30"/>
       <use xlink:href="#SimHei-2e" x="50"/>
       <use xlink:href="#SimHei-32" x="100"/>
      </g>
     </g>
    </g>
    <g id="ytick_9">
     <g id="line2d_16">
      <g>
       <use xlink:href="#md128fcb1cf" x="322.120772" y="101.472667" style="stroke: #000000; stroke-width: 0.8"/>
      </g>
     </g>
     <g id="text_16">
      <!-- 0.4 -->
      <g transform="translate(300.120772 104.910167) scale(0.1 -0.1)">
       <use xlink:href="#SimHei-30"/>
       <use xlink:href="#SimHei-2e" x="50"/>
       <use xlink:href="#SimHei-34" x="100"/>
      </g>
     </g>
    </g>
    <g id="ytick_10">
     <g id="line2d_17">
      <g>
       <use xlink:href="#md128fcb1cf" x="322.120772" y="73.248667" style="stroke: #000000; stroke-width: 0.8"/>
      </g>
     </g>
     <g id="text_17">
      <!-- 0.6 -->
      <g transform="translate(300.120772 76.686167) scale(0.1 -0.1)">
       <use xlink:href="#SimHei-30"/>
       <use xlink:href="#SimHei-2e" x="50"/>
       <use xlink:href="#SimHei-36" x="100"/>
      </g>
     </g>
    </g>
    <g id="ytick_11">
     <g id="line2d_18">
      <g>
       <use xlink:href="#md128fcb1cf" x="322.120772" y="45.024667" style="stroke: #000000; stroke-width: 0.8"/>
      </g>
     </g>
     <g id="text_18">
      <!-- 0.8 -->
      <g transform="translate(300.120772 48.462167) scale(0.1 -0.1)">
       <use xlink:href="#SimHei-30"/>
       <use xlink:href="#SimHei-2e" x="50"/>
       <use xlink:href="#SimHei-38" x="100"/>
      </g>
     </g>
    </g>
    <g id="ytick_12">
     <g id="line2d_19">
      <g>
       <use xlink:href="#md128fcb1cf" x="322.120772" y="16.800667" style="stroke: #000000; stroke-width: 0.8"/>
      </g>
     </g>
     <g id="text_19">
      <!-- 1.0 -->
      <g transform="translate(300.120772 20.238167) scale(0.1 -0.1)">
       <use xlink:href="#SimHei-31"/>
       <use xlink:href="#SimHei-2e" x="50"/>
       <use xlink:href="#SimHei-30" x="100"/>
      </g>
     </g>
    </g>
   </g>
   <g id="line2d_20">
    <path d="M 332.564622 157.920667 
L 333.630321 147.803725 
L 334.69602 150.654593 
L 340.024515 150.652967 
L 341.090214 147.793977 
L 343.221612 147.79882 
L 344.287311 150.637134 
L 364.535593 150.657481 
L 365.601292 151.452166 
L 370.929787 151.464583 
L 371.995486 150.660626 
L 416.754844 150.715669 
L 454.054309 150.779539 
L 471.105493 150.83718 
L 482.828182 150.814125 
L 483.893881 150.698294 
L 499.879366 150.674095 
L 505.207861 150.628491 
L 528.65324 150.535657 
L 529.718939 147.255913 
L 541.441628 147.238193 
L 541.441628 147.238193 
" clip-path="url(#p1302ec1f79)" style="fill: none; stroke: #1f77b4; stroke-width: 1.5; stroke-linecap: square"/>
   </g>
   <g id="line2d_21">
    <path d="M 332.564622 157.920667 
L 333.630321 150.862987 
L 334.69602 152.857295 
L 340.024515 152.855246 
L 341.090214 150.866168 
L 343.221612 150.863839 
L 344.287311 152.840011 
L 364.535593 152.891909 
L 365.601292 153.445528 
L 370.929787 153.44857 
L 371.995486 152.898451 
L 400.769359 152.873888 
L 407.163553 152.892644 
L 418.886242 152.864899 
L 455.120008 152.855348 
L 467.908396 152.843572 
L 519.061949 152.846629 
L 541.441628 152.891783 
L 541.441628 152.891783 
" clip-path="url(#p1302ec1f79)" style="fill: none; stroke: #ff7f0e; stroke-width: 1.5; stroke-linecap: square"/>
   </g>
   <g id="line2d_22">
    <path d="M 332.564622 157.920667 
L 333.630321 154.886697 
L 334.69602 154.556322 
L 340.024515 154.549807 
L 341.090214 154.879675 
L 343.221612 154.873177 
L 344.287311 154.545694 
L 364.535593 154.55239 
L 365.601292 154.701477 
L 370.929787 154.696872 
L 371.995486 154.538981 
L 400.769359 154.566305 
L 408.229252 154.590546 
L 440.200222 154.598104 
L 441.265921 154.432888 
L 515.864852 154.358659 
L 528.65324 154.360062 
L 529.718939 154.742902 
L 541.441628 154.740108 
L 541.441628 154.740108 
" clip-path="url(#p1302ec1f79)" style="fill: none; stroke: #2ca02c; stroke-width: 1.5; stroke-linecap: square"/>
   </g>
   <g id="line2d_23">
    <path d="M 332.564622 157.920667 
L 333.630321 150.567644 
L 334.69602 147.482054 
L 340.024515 147.499305 
L 341.090214 150.570603 
L 343.221612 150.570937 
L 344.287311 147.479879 
L 348.550107 147.471431 
L 349.615806 147.609963 
L 356.01 147.597555 
L 364.535593 147.612498 
L 365.601292 146.477626 
L 370.929787 146.493663 
L 371.995486 147.610073 
L 478.565386 147.871252 
L 486.025279 147.882706 
L 504.142162 147.965889 
L 511.602055 148.014246 
L 514.799153 148.015656 
L 515.864852 147.964254 
L 528.65324 147.927844 
L 529.718939 148.299086 
L 541.441628 148.302723 
L 541.441628 148.302723 
" clip-path="url(#p1302ec1f79)" style="fill: none; stroke: #d62728; stroke-width: 1.5; stroke-linecap: square"/>
   </g>
   <g id="line2d_24">
    <path d="M 332.564622 157.920667 
L 333.630321 149.224113 
L 334.69602 145.569785 
L 340.024515 145.604662 
L 341.090214 149.232815 
L 343.221612 149.235405 
L 344.287311 145.583738 
L 359.207097 145.680612 
L 364.535593 145.671415 
L 365.601292 146.870798 
L 370.929787 146.903786 
L 371.995486 145.676808 
L 433.806028 145.923518 
L 452.98861 145.999212 
L 474.30259 145.996268 
L 507.339259 145.929082 
L 515.864852 145.931708 
L 528.65324 145.920635 
L 529.718939 149.186995 
L 541.441628 149.193136 
L 541.441628 149.193136 
" clip-path="url(#p1302ec1f79)" style="fill: none; stroke: #9467bd; stroke-width: 1.5; stroke-linecap: square"/>
   </g>
   <g id="line2d_25">
    <path d="M 332.564622 157.920667 
L 333.630321 151.886184 
L 334.69602 151.238491 
L 340.024515 151.237588 
L 341.090214 151.901243 
L 343.221612 151.881982 
L 344.287311 151.233774 
L 364.535593 151.247685 
L 365.601292 151.55515 
L 370.929787 151.525908 
L 371.995486 151.215109 
L 377.323981 151.203471 
L 380.521078 151.058887 
L 414.623446 150.983092 
L 418.886242 150.895282 
L 433.806028 150.786434 
L 440.200222 150.750008 
L 441.265921 148.672364 
L 454.054309 148.644747 
L 455.120008 148.494024 
L 462.579901 148.453447 
L 463.6456 148.372463 
L 470.039794 148.355908 
L 471.105493 150.508742 
L 474.30259 148.405243 
L 497.747968 148.19904 
L 528.65324 148.296057 
L 529.718939 149.353096 
L 541.441628 149.340147 
L 541.441628 149.340147 
" clip-path="url(#p1302ec1f79)" style="fill: none; stroke: #8c564b; stroke-width: 1.5; stroke-linecap: square"/>
   </g>
   <g id="line2d_26">
    <path d="M 332.564622 157.920667 
L 333.630321 149.016526 
L 334.69602 148.066256 
L 340.024515 148.056552 
L 341.090214 149.02557 
L 343.221612 149.023224 
L 344.287311 148.057215 
L 364.535593 148.106033 
L 365.601292 148.559384 
L 370.929787 148.552838 
L 371.995486 148.097983 
L 426.346135 148.273281 
L 440.200222 148.260063 
L 441.265921 150.549019 
L 470.039794 150.503377 
L 471.105493 148.188109 
L 474.30259 150.466737 
L 528.65324 150.463343 
L 529.718939 151.27565 
L 541.441628 151.269271 
L 541.441628 151.269271 
" clip-path="url(#p1302ec1f79)" style="fill: none; stroke: #e377c2; stroke-width: 1.5; stroke-linecap: square"/>
   </g>
   <g id="line2d_27">
    <path d="M 332.564622 157.920667 
L 333.630321 119.276634 
L 334.69602 120.582568 
L 340.024515 120.535712 
L 341.090214 119.27047 
L 343.221612 119.205236 
L 344.287311 120.534382 
L 363.469894 120.509091 
L 364.535593 120.417544 
L 365.601292 120.77792 
L 370.929787 120.770423 
L 371.995486 120.395957 
L 379.455379 120.493419 
L 381.586777 120.471518 
L 386.915272 120.528777 
L 387.980971 120.362469 
L 410.36065 120.37446 
L 411.426349 120.286143 
L 416.754844 120.171458 
L 417.820543 120.154946 
L 418.886242 120.263658 
L 423.149038 120.226823 
L 424.214737 120.04544 
L 440.200222 120.173276 
L 441.265921 120.061711 
L 448.725814 119.956229 
L 452.98861 119.870702 
L 456.185707 119.826168 
L 463.6456 119.910308 
L 474.30259 119.984321 
L 478.565386 120.079457 
L 483.893881 120.154221 
L 486.025279 120.19108 
L 496.682269 120.197191 
L 498.813667 120.023027 
L 500.945065 120.0018 
L 511.602055 119.918331 
L 514.799153 119.872629 
L 515.864852 119.957892 
L 528.65324 119.570141 
L 529.718939 118.343112 
L 541.441628 118.268905 
L 541.441628 118.268905 
" clip-path="url(#p1302ec1f79)" style="fill: none; stroke: #7f7f7f; stroke-width: 1.5; stroke-linecap: square"/>
   </g>
   <g id="line2d_28">
    <path d="M 332.564622 157.920667 
L 333.630321 139.32114 
L 334.69602 140.729875 
L 336.827418 140.774109 
L 340.024515 140.765908 
L 341.090214 139.267655 
L 343.221612 139.257703 
L 344.287311 140.728476 
L 350.681505 140.69395 
L 351.747204 140.52088 
L 356.01 140.31079 
L 364.535593 140.21389 
L 365.601292 137.978717 
L 370.929787 137.963488 
L 371.995486 140.186986 
L 374.126884 140.095844 
L 381.586777 140.057995 
L 400.769359 139.964626 
L 401.835058 139.559117 
L 411.426349 139.498896 
L 422.083339 139.463366 
L 433.806028 139.421076 
L 468.974095 139.423328 
L 471.105493 139.518392 
L 483.893881 139.536508 
L 486.025279 139.572883 
L 515.864852 139.636941 
L 520.127648 139.744989 
L 523.324745 139.724976 
L 528.65324 139.651919 
L 529.718939 139.175026 
L 541.441628 139.196976 
L 541.441628 139.196976 
" clip-path="url(#p1302ec1f79)" style="fill: none; stroke: #bcbd22; stroke-width: 1.5; stroke-linecap: square"/>
   </g>
   <g id="line2d_29">
    <path d="M 332.564622 157.920667 
L 333.630321 125.241019 
L 334.69602 126.349429 
L 340.024515 126.32892 
L 341.090214 125.278492 
L 343.221612 125.376344 
L 344.287311 126.446364 
L 363.469894 126.604837 
L 364.535593 126.715823 
L 365.601292 126.267902 
L 370.929787 126.266537 
L 371.995486 126.805695 
L 378.38968 126.933299 
L 385.849573 126.973233 
L 400.769359 126.914639 
L 401.835058 127.041409 
L 410.36065 127.162371 
L 417.820543 127.367557 
L 418.886242 127.242919 
L 423.149038 127.224267 
L 424.214737 127.448863 
L 430.608931 127.580192 
L 437.003125 127.594768 
L 468.974095 127.883692 
L 470.039794 127.77624 
L 484.95958 127.827875 
L 493.485172 127.80746 
L 496.682269 127.819267 
L 497.747968 128.005657 
L 500.945065 128.036169 
L 512.667754 127.994269 
L 515.864852 128.020791 
L 520.127648 128.145561 
L 521.193347 128.389459 
L 523.324745 128.312651 
L 527.587541 128.324898 
L 528.65324 128.56696 
L 529.718939 127.563757 
L 541.441628 127.645427 
L 541.441628 127.645427 
" clip-path="url(#p1302ec1f79)" style="fill: none; stroke: #17becf; stroke-width: 1.5; stroke-linecap: square"/>
   </g>
   <g id="line2d_30">
    <path d="M 332.564622 16.800667 
L 333.630321 157.920667 
L 541.441628 157.920667 
L 541.441628 157.920667 
" clip-path="url(#p1302ec1f79)" style="fill: none; stroke: #1f77b4; stroke-width: 1.5; stroke-linecap: square"/>
   </g>
   <g id="patch_8">
    <path d="M 322.120772 164.976667 
L 322.120772 9.744667 
" style="fill: none; stroke: #000000; stroke-width: 0.8; stroke-linejoin: miter; stroke-linecap: square"/>
   </g>
   <g id="patch_9">
    <path d="M 551.885478 164.976667 
L 551.885478 9.744667 
" style="fill: none; stroke: #000000; stroke-width: 0.8; stroke-linejoin: miter; stroke-linecap: square"/>
   </g>
   <g id="patch_10">
    <path d="M 322.120772 164.976667 
L 551.885478 164.976667 
" style="fill: none; stroke: #000000; stroke-width: 0.8; stroke-linejoin: miter; stroke-linecap: square"/>
   </g>
   <g id="patch_11">
    <path d="M 322.120772 9.744667 
L 551.885478 9.744667 
" style="fill: none; stroke: #000000; stroke-width: 0.8; stroke-linejoin: miter; stroke-linecap: square"/>
   </g>
   <g id="legend_1">
    <g id="patch_12">
     <path d="M 329.120772 151.150917 
L 416.120772 151.150917 
Q 418.120772 151.150917 418.120772 149.150917 
L 418.120772 16.744667 
Q 418.120772 14.744667 416.120772 14.744667 
L 329.120772 14.744667 
Q 327.120772 14.744667 327.120772 16.744667 
L 327.120772 149.150917 
Q 327.120772 151.150917 329.120772 151.150917 
z
" style="fill: #ffffff; opacity: 0.8; stroke: #cccccc; stroke-linejoin: miter"/>
    </g>
    <g id="line2d_31">
     <path d="M 331.120772 22.275917 
L 341.120772 22.275917 
L 351.120772 22.275917 
" style="fill: none; stroke: #1f77b4; stroke-width: 1.5; stroke-linecap: square"/>
    </g>
    <g id="text_20">
     <!-- w_002027.SZ -->
     <g transform="translate(359.120772 25.775917) scale(0.1 -0.1)">
      <defs>
       <path id="SimHei-77" d="M 3075 2925 
L 2450 75 
L 1975 75 
L 1575 2250 
L 1525 2250 
L 1125 75 
L 650 75 
L 25 2925 
L 550 2925 
L 875 1050 
L 925 1050 
L 1275 2925 
L 1825 2925 
L 2175 1050 
L 2225 1050 
L 2550 2925 
L 3075 2925 
z
" transform="scale(0.015625)"/>
       <path id="SimHei-5f" d="M 3150 -850 
L 0 -850 
L 0 -550 
L 3150 -550 
L 3150 -850 
z
" transform="scale(0.015625)"/>
       <path id="SimHei-37" d="M 850 150 
Q 1300 2050 2425 3925 
L 275 3925 
L 275 4375 
L 2950 4375 
L 2950 3950 
Q 1775 2050 1400 150 
L 850 150 
z
" transform="scale(0.015625)"/>
       <path id="SimHei-53" d="M 2900 1325 
Q 2900 750 2537 412 
Q 2175 75 1550 75 
Q 925 75 575 425 
Q 225 775 225 1300 
L 225 1475 
L 800 1475 
L 800 1325 
Q 800 950 1025 750 
Q 1250 550 1550 550 
Q 1950 550 2137 762 
Q 2325 975 2325 1275 
Q 2325 1525 2100 1737 
Q 1875 1950 1450 2125 
Q 850 2350 587 2625 
Q 325 2900 325 3275 
Q 325 3800 687 4125 
Q 1050 4450 1550 4450 
Q 2200 4450 2487 4062 
Q 2775 3675 2775 3225 
L 2200 3225 
Q 2225 3500 2050 3725 
Q 1875 3950 1550 3950 
Q 1250 3950 1075 3787 
Q 900 3625 900 3350 
Q 900 3125 1037 2962 
Q 1175 2800 1750 2575 
Q 2300 2350 2600 2037 
Q 2900 1725 2900 1325 
z
" transform="scale(0.015625)"/>
       <path id="SimHei-5a" d="M 2900 125 
L 225 125 
L 225 600 
L 2250 3925 
L 375 3925 
L 375 4400 
L 2825 4400 
L 2825 3925 
L 800 600 
L 2900 600 
L 2900 125 
z
" transform="scale(0.015625)"/>
      </defs>
      <use xlink:href="#SimHei-77"/>
      <use xlink:href="#SimHei-5f" x="50"/>
      <use xlink:href="#SimHei-30" x="100"/>
      <use xlink:href="#SimHei-30" x="150"/>
      <use xlink:href="#SimHei-32" x="200"/>
      <use xlink:href="#SimHei-30" x="250"/>
      <use xlink:href="#SimHei-32" x="300"/>
      <use xlink:href="#SimHei-37" x="350"/>
      <use xlink:href="#SimHei-2e" x="400"/>
      <use xlink:href="#SimHei-53" x="450"/>
      <use xlink:href="#SimHei-5a" x="500"/>
     </g>
    </g>
    <g id="line2d_32">
     <path d="M 331.120772 35.635292 
L 341.120772 35.635292 
L 351.120772 35.635292 
" style="fill: none; stroke: #ff7f0e; stroke-width: 1.5; stroke-linecap: square"/>
    </g>
    <g id="text_21">
     <!-- w_002371.SZ -->
     <g transform="translate(359.120772 39.135292) scale(0.1 -0.1)">
      <use xlink:href="#SimHei-77"/>
      <use xlink:href="#SimHei-5f" x="50"/>
      <use xlink:href="#SimHei-30" x="100"/>
      <use xlink:href="#SimHei-30" x="150"/>
      <use xlink:href="#SimHei-32" x="200"/>
      <use xlink:href="#SimHei-33" x="250"/>
      <use xlink:href="#SimHei-37" x="300"/>
      <use xlink:href="#SimHei-31" x="350"/>
      <use xlink:href="#SimHei-2e" x="400"/>
      <use xlink:href="#SimHei-53" x="450"/>
      <use xlink:href="#SimHei-5a" x="500"/>
     </g>
    </g>
    <g id="line2d_33">
     <path d="M 331.120772 48.963417 
L 341.120772 48.963417 
L 351.120772 48.963417 
" style="fill: none; stroke: #2ca02c; stroke-width: 1.5; stroke-linecap: square"/>
    </g>
    <g id="text_22">
     <!-- w_600009.SH -->
     <g transform="translate(359.120772 52.463417) scale(0.1 -0.1)">
      <use xlink:href="#SimHei-77"/>
      <use xlink:href="#SimHei-5f" x="50"/>
      <use xlink:href="#SimHei-36" x="100"/>
      <use xlink:href="#SimHei-30" x="150"/>
      <use xlink:href="#SimHei-30" x="200"/>
      <use xlink:href="#SimHei-30" x="250"/>
      <use xlink:href="#SimHei-30" x="300"/>
      <use xlink:href="#SimHei-39" x="350"/>
      <use xlink:href="#SimHei-2e" x="400"/>
      <use xlink:href="#SimHei-53" x="450"/>
      <use xlink:href="#SimHei-48" x="500"/>
     </g>
    </g>
    <g id="line2d_34">
     <path d="M 331.120772 62.322792 
L 341.120772 62.322792 
L 351.120772 62.322792 
" style="fill: none; stroke: #d62728; stroke-width: 1.5; stroke-linecap: square"/>
    </g>
    <g id="text_23">
     <!-- w_600029.SH -->
     <g transform="translate(359.120772 65.822792) scale(0.1 -0.1)">
      <use xlink:href="#SimHei-77"/>
      <use xlink:href="#SimHei-5f" x="50"/>
      <use xlink:href="#SimHei-36" x="100"/>
      <use xlink:href="#SimHei-30" x="150"/>
      <use xlink:href="#SimHei-30" x="200"/>
      <use xlink:href="#SimHei-30" x="250"/>
      <use xlink:href="#SimHei-32" x="300"/>
      <use xlink:href="#SimHei-39" x="350"/>
      <use xlink:href="#SimHei-2e" x="400"/>
      <use xlink:href="#SimHei-53" x="450"/>
      <use xlink:href="#SimHei-48" x="500"/>
     </g>
    </g>
    <g id="line2d_35">
     <path d="M 331.120772 75.682167 
L 341.120772 75.682167 
L 351.120772 75.682167 
" style="fill: none; stroke: #9467bd; stroke-width: 1.5; stroke-linecap: square"/>
    </g>
    <g id="text_24">
     <!-- w_600183.SH -->
     <g transform="translate(359.120772 79.182167) scale(0.1 -0.1)">
      <use xlink:href="#SimHei-77"/>
      <use xlink:href="#SimHei-5f" x="50"/>
      <use xlink:href="#SimHei-36" x="100"/>
      <use xlink:href="#SimHei-30" x="150"/>
      <use xlink:href="#SimHei-30" x="200"/>
      <use xlink:href="#SimHei-31" x="250"/>
      <use xlink:href="#SimHei-38" x="300"/>
      <use xlink:href="#SimHei-33" x="350"/>
      <use xlink:href="#SimHei-2e" x="400"/>
      <use xlink:href="#SimHei-53" x="450"/>
      <use xlink:href="#SimHei-48" x="500"/>
     </g>
    </g>
    <g id="line2d_36">
     <path d="M 331.120772 89.010292 
L 341.120772 89.010292 
L 351.120772 89.010292 
" style="fill: none; stroke: #8c564b; stroke-width: 1.5; stroke-linecap: square"/>
    </g>
    <g id="text_25">
     <!-- w_600406.SH -->
     <g transform="translate(359.120772 92.510292) scale(0.1 -0.1)">
      <use xlink:href="#SimHei-77"/>
      <use xlink:href="#SimHei-5f" x="50"/>
      <use xlink:href="#SimHei-36" x="100"/>
      <use xlink:href="#SimHei-30" x="150"/>
      <use xlink:href="#SimHei-30" x="200"/>
      <use xlink:href="#SimHei-34" x="250"/>
      <use xlink:href="#SimHei-30" x="300"/>
      <use xlink:href="#SimHei-36" x="350"/>
      <use xlink:href="#SimHei-2e" x="400"/>
      <use xlink:href="#SimHei-53" x="450"/>
      <use xlink:href="#SimHei-48" x="500"/>
     </g>
    </g>
    <g id="line2d_37">
     <path d="M 331.120772 102.338417 
L 341.120772 102.338417 
L 351.120772 102.338417 
" style="fill: none; stroke: #e377c2; stroke-width: 1.5; stroke-linecap: square"/>
    </g>
    <g id="text_26">
     <!-- w_600900.SH -->
     <g transform="translate(359.120772 105.838417) scale(0.1 -0.1)">
      <use xlink:href="#SimHei-77"/>
      <use xlink:href="#SimHei-5f" x="50"/>
      <use xlink:href="#SimHei-36" x="100"/>
      <use xlink:href="#SimHei-30" x="150"/>
      <use xlink:href="#SimHei-30" x="200"/>
      <use xlink:href="#SimHei-39" x="250"/>
      <use xlink:href="#SimHei-30" x="300"/>
      <use xlink:href="#SimHei-30" x="350"/>
      <use xlink:href="#SimHei-2e" x="400"/>
      <use xlink:href="#SimHei-53" x="450"/>
      <use xlink:href="#SimHei-48" x="500"/>
     </g>
    </g>
    <g id="line2d_38">
     <path d="M 331.120772 115.666542 
L 341.120772 115.666542 
L 351.120772 115.666542 
" style="fill: none; stroke: #7f7f7f; stroke-width: 1.5; stroke-linecap: square"/>
    </g>
    <g id="text_27">
     <!-- w_601989.SH -->
     <g transform="translate(359.120772 119.166542) scale(0.1 -0.1)">
      <use xlink:href="#SimHei-77"/>
      <use xlink:href="#SimHei-5f" x="50"/>
      <use xlink:href="#SimHei-36" x="100"/>
      <use xlink:href="#SimHei-30" x="150"/>
      <use xlink:href="#SimHei-31" x="200"/>
      <use xlink:href="#SimHei-39" x="250"/>
      <use xlink:href="#SimHei-38" x="300"/>
      <use xlink:href="#SimHei-39" x="350"/>
      <use xlink:href="#SimHei-2e" x="400"/>
      <use xlink:href="#SimHei-53" x="450"/>
      <use xlink:href="#SimHei-48" x="500"/>
     </g>
    </g>
    <g id="line2d_39">
     <path d="M 331.120772 128.994667 
L 341.120772 128.994667 
L 351.120772 128.994667 
" style="fill: none; stroke: #bcbd22; stroke-width: 1.5; stroke-linecap: square"/>
    </g>
    <g id="text_28">
     <!-- w_601998.SH -->
     <g transform="translate(359.120772 132.494667) scale(0.1 -0.1)">
      <use xlink:href="#SimHei-77"/>
      <use xlink:href="#SimHei-5f" x="50"/>
      <use xlink:href="#SimHei-36" x="100"/>
      <use xlink:href="#SimHei-30" x="150"/>
      <use xlink:href="#SimHei-31" x="200"/>
      <use xlink:href="#SimHei-39" x="250"/>
      <use xlink:href="#SimHei-39" x="300"/>
      <use xlink:href="#SimHei-38" x="350"/>
      <use xlink:href="#SimHei-2e" x="400"/>
      <use xlink:href="#SimHei-53" x="450"/>
      <use xlink:href="#SimHei-48" x="500"/>
     </g>
    </g>
    <g id="line2d_40">
     <path d="M 331.120772 142.322792 
L 341.120772 142.322792 
L 351.120772 142.322792 
" style="fill: none; stroke: #17becf; stroke-width: 1.5; stroke-linecap: square"/>
    </g>
    <g id="text_29">
     <!-- w_CASH -->
     <g transform="translate(359.120772 145.822792) scale(0.1 -0.1)">
      <defs>
       <path id="SimHei-43" d="M 2975 1825 
Q 2950 875 2575 475 
Q 2200 75 1675 75 
Q 1075 75 650 562 
Q 225 1050 225 2125 
Q 225 3300 637 3875 
Q 1050 4450 1700 4450 
Q 2250 4450 2612 4037 
Q 2975 3625 2950 2875 
L 2400 2875 
Q 2400 3425 2225 3700 
Q 2050 3975 1700 3975 
Q 1300 3975 1062 3562 
Q 825 3150 825 2175 
Q 825 1275 1062 912 
Q 1300 550 1675 550 
Q 1950 550 2175 812 
Q 2400 1075 2400 1825 
L 2975 1825 
z
" transform="scale(0.015625)"/>
       <path id="SimHei-41" d="M 3075 125 
L 2475 125 
L 2125 1450 
L 1025 1450 
L 675 125 
L 75 125 
L 1325 4450 
L 1825 4450 
L 3075 125 
z
M 2000 1925 
L 1600 3450 
L 1550 3450 
L 1150 1925 
L 2000 1925 
z
" transform="scale(0.015625)"/>
      </defs>
      <use xlink:href="#SimHei-77"/>
      <use xlink:href="#SimHei-5f" x="50"/>
      <use xlink:href="#SimHei-43" x="100"/>
      <use xlink:href="#SimHei-41" x="150"/>
      <use xlink:href="#SimHei-53" x="200"/>
      <use xlink:href="#SimHei-48" x="250"/>
     </g>
    </g>
   </g>
  </g>
  <g id="axes_3">
   <g id="patch_13">
    <path d="M 597.838419 164.976667 
L 827.603125 164.976667 
L 827.603125 9.744667 
L 597.838419 9.744667 
z
" style="fill: #ffffff"/>
   </g>
   <g id="matplotlib.axis_5">
    <g id="xtick_7">
     <g id="line2d_41">
      <g>
       <use xlink:href="#m303824b582" x="654.107327" y="164.976667" style="stroke: #000000; stroke-width: 0.8"/>
      </g>
     </g>
     <g id="text_30">
      <!-- 2023-09-20 -->
      <g transform="translate(629.107327 178.851667) scale(0.1 -0.1)">
       <use xlink:href="#SimHei-32"/>
       <use xlink:href="#SimHei-30" x="50"/>
       <use xlink:href="#SimHei-32" x="100"/>
       <use xlink:href="#SimHei-33" x="150"/>
       <use xlink:href="#SimHei-2d" x="200"/>
       <use xlink:href="#SimHei-30" x="250"/>
       <use xlink:href="#SimHei-39" x="300"/>
       <use xlink:href="#SimHei-2d" x="350"/>
       <use xlink:href="#SimHei-32" x="400"/>
       <use xlink:href="#SimHei-30" x="450"/>
      </g>
     </g>
    </g>
    <g id="xtick_8">
     <g id="line2d_42">
      <g>
       <use xlink:href="#m303824b582" x="718.049267" y="164.976667" style="stroke: #000000; stroke-width: 0.8"/>
      </g>
     </g>
     <g id="text_31">
      <!-- 2023-11-19 -->
      <g transform="translate(693.049267 178.851667) scale(0.1 -0.1)">
       <use xlink:href="#SimHei-32"/>
       <use xlink:href="#SimHei-30" x="50"/>
       <use xlink:href="#SimHei-32" x="100"/>
       <use xlink:href="#SimHei-33" x="150"/>
       <use xlink:href="#SimHei-2d" x="200"/>
       <use xlink:href="#SimHei-31" x="250"/>
       <use xlink:href="#SimHei-31" x="300"/>
       <use xlink:href="#SimHei-2d" x="350"/>
       <use xlink:href="#SimHei-31" x="400"/>
       <use xlink:href="#SimHei-39" x="450"/>
      </g>
     </g>
    </g>
    <g id="xtick_9">
     <g id="line2d_43">
      <g>
       <use xlink:href="#m303824b582" x="781.991208" y="164.976667" style="stroke: #000000; stroke-width: 0.8"/>
      </g>
     </g>
     <g id="text_32">
      <!-- 2024-01-18 -->
      <g transform="translate(756.991208 178.851667) scale(0.1 -0.1)">
       <use xlink:href="#SimHei-32"/>
       <use xlink:href="#SimHei-30" x="50"/>
       <use xlink:href="#SimHei-32" x="100"/>
       <use xlink:href="#SimHei-34" x="150"/>
       <use xlink:href="#SimHei-2d" x="200"/>
       <use xlink:href="#SimHei-30" x="250"/>
       <use xlink:href="#SimHei-31" x="300"/>
       <use xlink:href="#SimHei-2d" x="350"/>
       <use xlink:href="#SimHei-31" x="400"/>
       <use xlink:href="#SimHei-38" x="450"/>
      </g>
     </g>
    </g>
   </g>
   <g id="matplotlib.axis_6">
    <g id="ytick_13">
     <g id="line2d_44">
      <g>
       <use xlink:href="#md128fcb1cf" x="597.838419" y="157.920667" style="stroke: #000000; stroke-width: 0.8"/>
      </g>
     </g>
     <g id="text_33">
      <!-- 0.0000 -->
      <g transform="translate(560.838419 161.358167) scale(0.1 -0.1)">
       <use xlink:href="#SimHei-30"/>
       <use xlink:href="#SimHei-2e" x="50"/>
       <use xlink:href="#SimHei-30" x="100"/>
       <use xlink:href="#SimHei-30" x="150"/>
       <use xlink:href="#SimHei-30" x="200"/>
       <use xlink:href="#SimHei-30" x="250"/>
      </g>
     </g>
    </g>
    <g id="ytick_14">
     <g id="line2d_45">
      <g>
       <use xlink:href="#md128fcb1cf" x="597.838419" y="129.696667" style="stroke: #000000; stroke-width: 0.8"/>
      </g>
     </g>
     <g id="text_34">
      <!-- 0.0005 -->
      <g transform="translate(560.838419 133.134167) scale(0.1 -0.1)">
       <defs>
        <path id="SimHei-35" d="M 550 1325 
Q 725 650 1150 575 
Q 1575 500 1837 662 
Q 2100 825 2212 1087 
Q 2325 1350 2312 1675 
Q 2300 2000 2137 2225 
Q 1975 2450 1725 2525 
Q 1475 2600 1162 2525 
Q 850 2450 650 2175 
L 225 2225 
Q 275 2375 700 4375 
L 2675 4375 
L 2675 3925 
L 1075 3925 
Q 950 3250 825 2850 
Q 1200 3025 1525 3012 
Q 1850 3000 2150 2862 
Q 2450 2725 2587 2487 
Q 2725 2250 2787 2012 
Q 2850 1775 2837 1500 
Q 2825 1225 2725 937 
Q 2625 650 2425 462 
Q 2225 275 1937 162 
Q 1650 50 1275 75 
Q 900 100 562 350 
Q 225 600 100 1200 
L 550 1325 
z
" transform="scale(0.015625)"/>
       </defs>
       <use xlink:href="#SimHei-30"/>
       <use xlink:href="#SimHei-2e" x="50"/>
       <use xlink:href="#SimHei-30" x="100"/>
       <use xlink:href="#SimHei-30" x="150"/>
       <use xlink:href="#SimHei-30" x="200"/>
       <use xlink:href="#SimHei-35" x="250"/>
      </g>
     </g>
    </g>
    <g id="ytick_15">
     <g id="line2d_46">
      <g>
       <use xlink:href="#md128fcb1cf" x="597.838419" y="101.472667" style="stroke: #000000; stroke-width: 0.8"/>
      </g>
     </g>
     <g id="text_35">
      <!-- 0.0010 -->
      <g transform="translate(560.838419 104.910167) scale(0.1 -0.1)">
       <use xlink:href="#SimHei-30"/>
       <use xlink:href="#SimHei-2e" x="50"/>
       <use xlink:href="#SimHei-30" x="100"/>
       <use xlink:href="#SimHei-30" x="150"/>
       <use xlink:href="#SimHei-31" x="200"/>
       <use xlink:href="#SimHei-30" x="250"/>
      </g>
     </g>
    </g>
    <g id="ytick_16">
     <g id="line2d_47">
      <g>
       <use xlink:href="#md128fcb1cf" x="597.838419" y="73.248667" style="stroke: #000000; stroke-width: 0.8"/>
      </g>
     </g>
     <g id="text_36">
      <!-- 0.0015 -->
      <g transform="translate(560.838419 76.686167) scale(0.1 -0.1)">
       <use xlink:href="#SimHei-30"/>
       <use xlink:href="#SimHei-2e" x="50"/>
       <use xlink:href="#SimHei-30" x="100"/>
       <use xlink:href="#SimHei-30" x="150"/>
       <use xlink:href="#SimHei-31" x="200"/>
       <use xlink:href="#SimHei-35" x="250"/>
      </g>
     </g>
    </g>
    <g id="ytick_17">
     <g id="line2d_48">
      <g>
       <use xlink:href="#md128fcb1cf" x="597.838419" y="45.024667" style="stroke: #000000; stroke-width: 0.8"/>
      </g>
     </g>
     <g id="text_37">
      <!-- 0.0020 -->
      <g transform="translate(560.838419 48.462167) scale(0.1 -0.1)">
       <use xlink:href="#SimHei-30"/>
       <use xlink:href="#SimHei-2e" x="50"/>
       <use xlink:href="#SimHei-30" x="100"/>
       <use xlink:href="#SimHei-30" x="150"/>
       <use xlink:href="#SimHei-32" x="200"/>
       <use xlink:href="#SimHei-30" x="250"/>
      </g>
     </g>
    </g>
    <g id="ytick_18">
     <g id="line2d_49">
      <g>
       <use xlink:href="#md128fcb1cf" x="597.838419" y="16.800667" style="stroke: #000000; stroke-width: 0.8"/>
      </g>
     </g>
     <g id="text_38">
      <!-- 0.0025 -->
      <g transform="translate(560.838419 20.238167) scale(0.1 -0.1)">
       <use xlink:href="#SimHei-30"/>
       <use xlink:href="#SimHei-2e" x="50"/>
       <use xlink:href="#SimHei-30" x="100"/>
       <use xlink:href="#SimHei-30" x="150"/>
       <use xlink:href="#SimHei-32" x="200"/>
       <use xlink:href="#SimHei-35" x="250"/>
      </g>
     </g>
    </g>
   </g>
   <g id="line2d_50">
    <path d="M 608.282269 16.800667 
L 609.347968 140.189683 
L 610.413667 156.257139 
L 611.479366 157.112907 
L 614.676463 156.7146 
L 615.742162 141.330962 
L 616.807861 157.248308 
L 617.87356 156.834371 
L 618.939259 139.86393 
L 622.136356 156.165994 
L 623.202055 156.916569 
L 624.267754 156.361595 
L 625.333453 156.750928 
L 629.59625 156.381754 
L 630.661949 155.943584 
L 631.727648 156.257554 
L 632.793347 157.023036 
L 633.859046 156.452763 
L 637.056143 155.893017 
L 638.121842 156.705238 
L 639.187541 156.850078 
L 640.25324 149.930557 
L 641.318939 157.21198 
L 644.516036 157.124688 
L 645.581735 157.299395 
L 646.647434 150.374563 
L 647.713133 156.064171 
L 648.778832 157.345002 
L 651.975929 156.724246 
L 653.041628 157.057252 
L 654.107327 156.903987 
L 655.173026 157.58308 
L 656.238725 157.107655 
L 659.435822 157.232009 
L 660.501521 157.054133 
L 661.56722 157.116588 
L 662.632919 156.311938 
L 674.355608 156.164831 
L 675.421307 156.91202 
L 676.487006 156.898061 
L 677.552705 156.449875 
L 678.618404 156.200319 
L 682.8812 157.224167 
L 683.946899 156.696606 
L 685.012598 157.134923 
L 686.078297 157.293818 
L 689.275394 156.817175 
L 690.341093 156.280757 
L 691.406792 155.340698 
L 692.472491 157.115859 
L 693.53819 155.811984 
L 696.735287 155.31873 
L 697.800986 157.172951 
L 699.932384 156.62251 
L 700.998083 157.033566 
L 704.19518 156.441812 
L 705.260879 157.38208 
L 706.326578 157.016376 
L 708.457976 157.388704 
L 711.655073 157.335339 
L 712.720772 157.034284 
L 713.786471 157.19065 
L 714.85217 157.129397 
L 715.917869 152.660939 
L 719.114966 156.765135 
L 720.180665 157.100062 
L 721.246364 157.153891 
L 722.312063 157.049123 
L 723.377762 157.217536 
L 726.574859 156.969824 
L 728.706257 157.138928 
L 730.837655 156.289518 
L 735.100451 156.893862 
L 736.16615 157.258626 
L 737.231849 156.666013 
L 738.297548 156.89988 
L 741.494645 157.002419 
L 743.626043 156.068732 
L 744.691742 156.554522 
L 745.757441 152.76234 
L 748.954538 152.157719 
L 750.020237 156.793425 
L 751.085936 156.360371 
L 753.217334 157.129859 
L 758.545829 156.997404 
L 759.611528 156.069038 
L 760.677227 156.744391 
L 764.940023 156.379968 
L 766.005722 156.976653 
L 767.071421 156.695051 
L 768.13712 155.507674 
L 771.334217 157.019395 
L 772.399916 156.114119 
L 773.465615 157.117283 
L 774.531314 156.198064 
L 775.597013 156.630234 
L 778.79411 156.403592 
L 780.925508 157.083664 
L 781.991208 156.536646 
L 783.056907 156.94104 
L 786.254004 156.811664 
L 787.319703 157.054603 
L 788.385402 156.711263 
L 789.451101 155.820241 
L 790.5168 156.045895 
L 793.713897 155.434517 
L 794.779596 155.971936 
L 795.845295 155.523017 
L 796.910994 156.260522 
L 797.976693 156.451379 
L 801.17379 154.660325 
L 802.239489 154.83673 
L 803.305188 156.524821 
L 804.370887 144.961367 
L 816.093576 156.536241 
L 817.159275 157.920667 
L 817.159275 157.920667 
" clip-path="url(#pf44ea86b61)" style="fill: none; stroke: #1f77b4; stroke-width: 1.5; stroke-linecap: square"/>
   </g>
   <g id="patch_14">
    <path d="M 597.838419 164.976667 
L 597.838419 9.744667 
" style="fill: none; stroke: #000000; stroke-width: 0.8; stroke-linejoin: miter; stroke-linecap: square"/>
   </g>
   <g id="patch_15">
    <path d="M 827.603125 164.976667 
L 827.603125 9.744667 
" style="fill: none; stroke: #000000; stroke-width: 0.8; stroke-linejoin: miter; stroke-linecap: square"/>
   </g>
   <g id="patch_16">
    <path d="M 597.838419 164.976667 
L 827.603125 164.976667 
" style="fill: none; stroke: #000000; stroke-width: 0.8; stroke-linejoin: miter; stroke-linecap: square"/>
   </g>
   <g id="patch_17">
    <path d="M 597.838419 9.744667 
L 827.603125 9.744667 
" style="fill: none; stroke: #000000; stroke-width: 0.8; stroke-linejoin: miter; stroke-linecap: square"/>
   </g>
  </g>
 </g>
 <defs>
  <clipPath id="pa1220de6a5">
   <rect x="46.403125" y="9.744667" width="229.764706" height="155.232"/>
  </clipPath>
  <clipPath id="p1302ec1f79">
   <rect x="322.120772" y="9.744667" width="229.764706" height="155.232"/>
  </clipPath>
  <clipPath id="pf44ea86b61">
   <rect x="597.838419" y="9.744667" width="229.764706" height="155.232"/>
  </clipPath>
 </defs>
</svg>
