<?xml version="1.0" encoding="utf-8" standalone="no"?>
<!DOCTYPE svg PUBLIC "-//W3C//DTD SVG 1.1//EN"
  "http://www.w3.org/Graphics/SVG/1.1/DTD/svg11.dtd">
<svg xmlns:xlink="http://www.w3.org/1999/xlink" width="834.725pt" height="184.757pt" viewBox="0 0 834.725 184.757" xmlns="http://www.w3.org/2000/svg" version="1.1">
 <metadata>
  <rdf:RDF xmlns:dc="http://purl.org/dc/elements/1.1/" xmlns:cc="http://creativecommons.org/ns#" xmlns:rdf="http://www.w3.org/1999/02/22-rdf-syntax-ns#">
   <cc:Work>
    <dc:type rdf:resource="http://purl.org/dc/dcmitype/StillImage"/>
    <dc:date>2024-12-25T17:33:01.141771</dc:date>
    <dc:format>image/svg+xml</dc:format>
    <dc:creator>
     <cc:Agent>
      <dc:title>Matplotlib v3.9.3, https://matplotlib.org/</dc:title>
     </cc:Agent>
    </dc:creator>
   </cc:Work>
  </rdf:RDF>
 </metadata>
 <defs>
  <style type="text/css">*{stroke-linejoin: round; stroke-linecap: butt}</style>
 </defs>
 <g id="figure_1">
  <g id="patch_1">
   <path d="M 0 184.757 
L 834.725 184.757 
L 834.725 0 
L 0 0 
z
" style="fill: #ffffff"/>
  </g>
  <g id="axes_1">
   <g id="patch_2">
    <path d="M 46.325 162.432 
L 276.089706 162.432 
L 276.089706 7.2 
L 46.325 7.2 
z
" style="fill: #ffffff"/>
   </g>
   <g id="matplotlib.axis_1">
    <g id="xtick_1">
     <g id="line2d_1">
      <defs>
       <path id="mddfad28f7f" d="M 0 0 
L 0 3.5 
" style="stroke: #000000; stroke-width: 0.8"/>
      </defs>
      <g>
       <use xlink:href="#mddfad28f7f" x="102.593908" y="162.432" style="stroke: #000000; stroke-width: 0.8"/>
      </g>
     </g>
     <g id="text_1">
      <!-- 2023-09-20 -->
      <g transform="translate(77.593908 176.307) scale(0.1 -0.1)">
       <defs>
        <path id="SimHei-32" d="M 300 250 
Q 325 625 650 925 
Q 975 1225 1475 1862 
Q 1975 2500 2125 2850 
Q 2275 3200 2237 3450 
Q 2200 3700 2000 3862 
Q 1800 4025 1537 4000 
Q 1275 3975 1037 3800 
Q 800 3625 675 3275 
L 200 3350 
Q 400 3925 712 4187 
Q 1025 4450 1450 4475 
Q 1700 4500 1900 4462 
Q 2100 4425 2312 4287 
Q 2525 4150 2662 3875 
Q 2800 3600 2762 3212 
Q 2725 2825 2375 2287 
Q 2025 1750 1025 600 
L 2825 600 
L 2825 150 
L 300 150 
L 300 250 
z
" transform="scale(0.015625)"/>
        <path id="SimHei-30" d="M 225 2537 
Q 250 3200 412 3587 
Q 575 3975 875 4225 
Q 1175 4475 1612 4475 
Q 2050 4475 2375 4112 
Q 2700 3750 2800 3200 
Q 2900 2650 2862 1937 
Q 2825 1225 2612 775 
Q 2400 325 1975 150 
Q 1550 -25 1125 187 
Q 700 400 525 750 
Q 350 1100 275 1487 
Q 200 1875 225 2537 
z
M 750 2687 
Q 675 2000 800 1462 
Q 925 925 1212 700 
Q 1500 475 1800 612 
Q 2100 750 2237 1162 
Q 2375 1575 2375 2062 
Q 2375 2550 2337 2950 
Q 2300 3350 2112 3675 
Q 1925 4000 1612 4012 
Q 1300 4025 1062 3700 
Q 825 3375 750 2687 
z
" transform="scale(0.015625)"/>
        <path id="SimHei-33" d="M 250 1225 
L 700 1300 
Q 800 975 1025 762 
Q 1250 550 1587 562 
Q 1925 575 2125 837 
Q 2325 1100 2300 1437 
Q 2275 1775 2037 1962 
Q 1800 2150 1275 2225 
L 1275 2550 
Q 1800 2600 2037 2825 
Q 2275 3050 2250 3412 
Q 2225 3775 1925 3937 
Q 1625 4100 1287 3975 
Q 950 3850 750 3275 
L 300 3350 
Q 450 3800 712 4100 
Q 975 4400 1425 4450 
Q 1875 4500 2212 4337 
Q 2550 4175 2687 3837 
Q 2825 3500 2725 3100 
Q 2625 2700 2150 2400 
Q 2500 2250 2687 1950 
Q 2875 1650 2812 1162 
Q 2750 675 2375 375 
Q 2000 75 1525 87 
Q 1050 100 700 387 
Q 350 675 250 1225 
z
" transform="scale(0.015625)"/>
        <path id="SimHei-2d" d="M 2975 2125 
L 125 2125 
L 125 2525 
L 2975 2525 
L 2975 2125 
z
" transform="scale(0.015625)"/>
        <path id="SimHei-39" d="M 800 75 
Q 1350 1000 1700 1750 
Q 1075 1650 662 1912 
Q 250 2175 162 2625 
Q 75 3075 175 3437 
Q 275 3800 487 4037 
Q 700 4275 1000 4375 
Q 1300 4475 1537 4475 
Q 1775 4475 2025 4375 
Q 2275 4275 2475 4075 
Q 2675 3875 2750 3662 
Q 2825 3450 2825 3112 
Q 2825 2775 2575 2250 
Q 2325 1725 1350 75 
L 800 75 
z
M 662 2875 
Q 700 2550 937 2337 
Q 1175 2125 1450 2150 
Q 1725 2175 1887 2300 
Q 2050 2425 2200 2725 
Q 2300 3100 2250 3362 
Q 2200 3625 1987 3800 
Q 1775 3975 1525 3975 
Q 1375 4000 1137 3900 
Q 900 3800 762 3500 
Q 625 3200 662 2875 
z
" transform="scale(0.015625)"/>
       </defs>
       <use xlink:href="#SimHei-32"/>
       <use xlink:href="#SimHei-30" x="50"/>
       <use xlink:href="#SimHei-32" x="100"/>
       <use xlink:href="#SimHei-33" x="150"/>
       <use xlink:href="#SimHei-2d" x="200"/>
       <use xlink:href="#SimHei-30" x="250"/>
       <use xlink:href="#SimHei-39" x="300"/>
       <use xlink:href="#SimHei-2d" x="350"/>
       <use xlink:href="#SimHei-32" x="400"/>
       <use xlink:href="#SimHei-30" x="450"/>
      </g>
     </g>
    </g>
    <g id="xtick_2">
     <g id="line2d_2">
      <g>
       <use xlink:href="#mddfad28f7f" x="166.535848" y="162.432" style="stroke: #000000; stroke-width: 0.8"/>
      </g>
     </g>
     <g id="text_2">
      <!-- 2023-11-19 -->
      <g transform="translate(141.535848 176.307) scale(0.1 -0.1)">
       <defs>
        <path id="SimHei-31" d="M 1400 3600 
Q 1075 3275 575 2975 
L 575 3450 
Q 1200 3875 1600 4450 
L 1900 4450 
L 1900 150 
L 1400 150 
L 1400 3600 
z
" transform="scale(0.015625)"/>
       </defs>
       <use xlink:href="#SimHei-32"/>
       <use xlink:href="#SimHei-30" x="50"/>
       <use xlink:href="#SimHei-32" x="100"/>
       <use xlink:href="#SimHei-33" x="150"/>
       <use xlink:href="#SimHei-2d" x="200"/>
       <use xlink:href="#SimHei-31" x="250"/>
       <use xlink:href="#SimHei-31" x="300"/>
       <use xlink:href="#SimHei-2d" x="350"/>
       <use xlink:href="#SimHei-31" x="400"/>
       <use xlink:href="#SimHei-39" x="450"/>
      </g>
     </g>
    </g>
    <g id="xtick_3">
     <g id="line2d_3">
      <g>
       <use xlink:href="#mddfad28f7f" x="230.477788" y="162.432" style="stroke: #000000; stroke-width: 0.8"/>
      </g>
     </g>
     <g id="text_3">
      <!-- 2024-01-18 -->
      <g transform="translate(205.477788 176.307) scale(0.1 -0.1)">
       <defs>
        <path id="SimHei-34" d="M 2000 1100 
L 75 1100 
L 75 1525 
L 2100 4450 
L 2475 4450 
L 2475 1525 
L 3075 1525 
L 3075 1100 
L 2475 1100 
L 2475 150 
L 2000 150 
L 2000 1100 
z
M 2000 1525 
L 2000 3500 
L 600 1525 
L 2000 1525 
z
" transform="scale(0.015625)"/>
        <path id="SimHei-38" d="M 175 1375 
Q 175 1675 325 1962 
Q 475 2250 825 2425 
Q 525 2600 425 2812 
Q 325 3025 312 3300 
Q 300 3575 387 3775 
Q 475 3975 650 4150 
Q 825 4325 1037 4387 
Q 1250 4450 1500 4450 
Q 1750 4450 1950 4400 
Q 2150 4350 2375 4187 
Q 2600 4025 2700 3725 
Q 2800 3425 2687 3025 
Q 2575 2625 2100 2400 
Q 2525 2275 2700 2012 
Q 2875 1750 2875 1375 
Q 2875 1000 2762 775 
Q 2650 550 2512 400 
Q 2375 250 2137 162 
Q 1900 75 1537 75 
Q 1175 75 912 162 
Q 650 250 475 425 
Q 300 600 237 837 
Q 175 1075 175 1375 
z
M 687 1400 
Q 675 1100 787 875 
Q 900 650 1200 587 
Q 1500 525 1825 600 
Q 2150 675 2275 950 
Q 2400 1225 2362 1500 
Q 2325 1775 2050 1962 
Q 1775 2150 1450 2125 
Q 1125 2100 912 1900 
Q 700 1700 687 1400 
z
M 775 3350 
Q 775 3100 950 2875 
Q 1125 2650 1500 2650 
Q 1875 2650 2062 2875 
Q 2250 3100 2237 3412 
Q 2225 3725 2012 3875 
Q 1800 4025 1437 4000 
Q 1075 3975 925 3787 
Q 775 3600 775 3350 
z
" transform="scale(0.015625)"/>
       </defs>
       <use xlink:href="#SimHei-32"/>
       <use xlink:href="#SimHei-30" x="50"/>
       <use xlink:href="#SimHei-32" x="100"/>
       <use xlink:href="#SimHei-34" x="150"/>
       <use xlink:href="#SimHei-2d" x="200"/>
       <use xlink:href="#SimHei-30" x="250"/>
       <use xlink:href="#SimHei-31" x="300"/>
       <use xlink:href="#SimHei-2d" x="350"/>
       <use xlink:href="#SimHei-31" x="400"/>
       <use xlink:href="#SimHei-38" x="450"/>
      </g>
     </g>
    </g>
   </g>
   <g id="matplotlib.axis_2">
    <g id="ytick_1">
     <g id="line2d_4">
      <defs>
       <path id="m93c330698f" d="M 0 0 
L -3.5 0 
" style="stroke: #000000; stroke-width: 0.8"/>
      </defs>
      <g>
       <use xlink:href="#m93c330698f" x="46.325" y="138.735876" style="stroke: #000000; stroke-width: 0.8"/>
      </g>
     </g>
     <g id="text_4">
      <!-- 0.94 -->
      <g transform="translate(19.325 142.173376) scale(0.1 -0.1)">
       <defs>
        <path id="SimHei-2e" d="M 1075 125 
L 500 125 
L 500 675 
L 1075 675 
L 1075 125 
z
" transform="scale(0.015625)"/>
       </defs>
       <use xlink:href="#SimHei-30"/>
       <use xlink:href="#SimHei-2e" x="50"/>
       <use xlink:href="#SimHei-39" x="100"/>
       <use xlink:href="#SimHei-34" x="150"/>
      </g>
     </g>
    </g>
    <g id="ytick_2">
     <g id="line2d_5">
      <g>
       <use xlink:href="#m93c330698f" x="46.325" y="106.984016" style="stroke: #000000; stroke-width: 0.8"/>
      </g>
     </g>
     <g id="text_5">
      <!-- 0.96 -->
      <g transform="translate(19.325 110.421516) scale(0.1 -0.1)">
       <defs>
        <path id="SimHei-36" d="M 250 1612 
Q 275 1975 387 2225 
Q 500 2475 725 2850 
L 1750 4450 
L 2325 4450 
L 1275 2800 
Q 1950 2975 2350 2750 
Q 2750 2525 2887 2237 
Q 3025 1950 3037 1612 
Q 3050 1275 2937 950 
Q 2825 625 2537 362 
Q 2250 100 1737 75 
Q 1225 50 862 262 
Q 500 475 362 862 
Q 225 1250 250 1612 
z
M 1025 787 
Q 1250 550 1625 525 
Q 2000 500 2250 775 
Q 2500 1050 2500 1575 
Q 2500 2100 2187 2300 
Q 1875 2500 1487 2450 
Q 1100 2400 925 2075 
Q 750 1750 775 1387 
Q 800 1025 1025 787 
z
" transform="scale(0.015625)"/>
       </defs>
       <use xlink:href="#SimHei-30"/>
       <use xlink:href="#SimHei-2e" x="50"/>
       <use xlink:href="#SimHei-39" x="100"/>
       <use xlink:href="#SimHei-36" x="150"/>
      </g>
     </g>
    </g>
    <g id="ytick_3">
     <g id="line2d_6">
      <g>
       <use xlink:href="#m93c330698f" x="46.325" y="75.232156" style="stroke: #000000; stroke-width: 0.8"/>
      </g>
     </g>
     <g id="text_6">
      <!-- 0.98 -->
      <g transform="translate(19.325 78.669656) scale(0.1 -0.1)">
       <use xlink:href="#SimHei-30"/>
       <use xlink:href="#SimHei-2e" x="50"/>
       <use xlink:href="#SimHei-39" x="100"/>
       <use xlink:href="#SimHei-38" x="150"/>
      </g>
     </g>
    </g>
    <g id="ytick_4">
     <g id="line2d_7">
      <g>
       <use xlink:href="#m93c330698f" x="46.325" y="43.480296" style="stroke: #000000; stroke-width: 0.8"/>
      </g>
     </g>
     <g id="text_7">
      <!-- 1.00 -->
      <g transform="translate(19.325 46.917796) scale(0.1 -0.1)">
       <use xlink:href="#SimHei-31"/>
       <use xlink:href="#SimHei-2e" x="50"/>
       <use xlink:href="#SimHei-30" x="100"/>
       <use xlink:href="#SimHei-30" x="150"/>
      </g>
     </g>
    </g>
    <g id="ytick_5">
     <g id="line2d_8">
      <g>
       <use xlink:href="#m93c330698f" x="46.325" y="11.728436" style="stroke: #000000; stroke-width: 0.8"/>
      </g>
     </g>
     <g id="text_8">
      <!-- 1.02 -->
      <g transform="translate(19.325 15.165936) scale(0.1 -0.1)">
       <use xlink:href="#SimHei-31"/>
       <use xlink:href="#SimHei-2e" x="50"/>
       <use xlink:href="#SimHei-30" x="100"/>
       <use xlink:href="#SimHei-32" x="150"/>
      </g>
     </g>
    </g>
    <g id="text_9">
     <!-- HRP -->
     <g transform="translate(14.075 92.316) rotate(-90) scale(0.1 -0.1)">
      <defs>
       <path id="SimHei-48" d="M 2850 125 
L 2275 125 
L 2275 2125 
L 850 2125 
L 850 125 
L 275 125 
L 275 4400 
L 850 4400 
L 850 2600 
L 2275 2600 
L 2275 4400 
L 2850 4400 
L 2850 125 
z
" transform="scale(0.015625)"/>
       <path id="SimHei-52" d="M 3000 125 
L 2400 125 
L 1500 1975 
L 850 1975 
L 850 125 
L 275 125 
L 275 4400 
L 1525 4400 
Q 2125 4400 2500 4112 
Q 2875 3825 2875 3175 
Q 2875 2675 2625 2400 
Q 2375 2125 2050 2050 
L 3000 125 
z
M 2300 3175 
Q 2300 3525 2087 3725 
Q 1875 3925 1400 3925 
L 850 3925 
L 850 2450 
L 1550 2450 
Q 1850 2450 2075 2612 
Q 2300 2775 2300 3175 
z
" transform="scale(0.015625)"/>
       <path id="SimHei-50" d="M 2950 3100 
Q 2950 2500 2600 2150 
Q 2250 1800 1625 1800 
L 900 1800 
L 900 125 
L 325 125 
L 325 4400 
L 1625 4400 
Q 2250 4400 2600 4050 
Q 2950 3700 2950 3100 
z
M 2375 3100 
Q 2375 3575 2150 3750 
Q 1925 3925 1475 3925 
L 900 3925 
L 900 2275 
L 1475 2275 
Q 1925 2275 2150 2450 
Q 2375 2625 2375 3100 
z
" transform="scale(0.015625)"/>
      </defs>
      <use xlink:href="#SimHei-48"/>
      <use xlink:href="#SimHei-52" x="50"/>
      <use xlink:href="#SimHei-50" x="100"/>
     </g>
    </g>
   </g>
   <g id="line2d_9">
    <path d="M 56.76885 47.449278 
L 57.834549 54.479074 
L 58.900248 40.903149 
L 59.965947 75.528409 
L 63.163044 79.389432 
L 64.228743 76.856108 
L 65.294442 91.397986 
L 66.360141 83.814912 
L 67.42584 100.420072 
L 70.622937 124.569879 
L 71.688636 111.024201 
L 72.754335 132.967571 
L 73.820034 132.800582 
L 74.885733 130.551706 
L 78.08283 121.34951 
L 79.148529 111.191156 
L 80.214228 109.205563 
L 81.279927 109.767611 
L 82.345626 114.47826 
L 85.542723 93.407364 
L 86.608422 95.903334 
L 87.674121 101.375872 
L 88.73982 117.354445 
L 89.805519 119.85352 
L 93.002617 105.105798 
L 94.068316 105.789614 
L 95.134015 114.639269 
L 96.199714 104.272627 
L 97.265413 112.129052 
L 100.46251 116.679374 
L 101.528209 117.242329 
L 102.593908 124.149926 
L 103.659607 134.538233 
L 104.725306 113.526373 
L 107.922403 115.479312 
L 108.988102 124.587847 
L 110.053801 134.657829 
L 111.1195 126.417235 
L 122.842189 114.107728 
L 123.907888 116.872627 
L 124.973587 115.197137 
L 126.039286 97.886809 
L 127.104985 105.974841 
L 130.302082 106.57667 
L 131.367781 100.017043 
L 132.43348 105.942407 
L 133.499179 126.894611 
L 134.564878 142.050184 
L 137.761975 155.376 
L 138.827674 142.741474 
L 139.893373 136.219104 
L 140.959072 122.256893 
L 142.024771 102.894093 
L 145.221868 98.170447 
L 146.287567 96.984046 
L 147.353266 92.954197 
L 148.418965 94.589054 
L 149.484664 93.221696 
L 152.681761 95.897801 
L 153.74746 98.296166 
L 154.813159 101.185049 
L 155.878858 96.19912 
L 156.944557 101.100981 
L 160.141654 106.835516 
L 161.207353 109.098074 
L 162.273052 94.950557 
L 163.338751 101.090265 
L 164.40445 101.829408 
L 167.601547 93.506238 
L 168.667246 96.708702 
L 169.732945 107.080161 
L 170.798644 98.211253 
L 171.864343 105.564013 
L 175.06144 104.296277 
L 176.127139 104.614038 
L 177.192838 114.635139 
L 178.258537 107.973548 
L 179.324236 123.970099 
L 182.521333 125.141472 
L 183.587032 146.14955 
L 184.652731 151.269527 
L 185.71843 155.086694 
L 186.784129 153.119765 
L 189.981226 144.671494 
L 191.046925 131.651862 
L 193.178323 140.23941 
L 194.244022 153.6901 
L 197.441119 152.522499 
L 198.506818 143.115372 
L 199.572517 150.599966 
L 200.638216 141.731734 
L 201.703915 142.458943 
L 204.901012 133.60951 
L 205.966711 138.858424 
L 207.03241 134.186024 
L 209.163808 113.710178 
L 213.426604 114.607903 
L 214.492303 107.067641 
L 215.558002 111.292071 
L 216.623701 113.073973 
L 219.820798 129.838105 
L 220.886497 126.77118 
L 221.952196 136.968518 
L 223.017895 138.743113 
L 224.083594 129.400748 
L 227.280691 118.772238 
L 228.34639 105.825928 
L 229.412089 132.59781 
L 230.477788 122.076764 
L 231.543487 124.634416 
L 234.740584 149.183253 
L 235.806283 148.954373 
L 236.871982 113.573705 
L 237.937681 84.527147 
L 239.00338 81.207304 
L 242.200477 70.182711 
L 243.266176 96.072002 
L 244.331875 101.896095 
L 246.463273 115.711111 
L 249.660371 100.982732 
L 250.72607 67.075942 
L 251.791769 61.333265 
L 252.857468 56.833637 
L 264.580157 26.736521 
L 265.645856 14.256 
L 265.645856 14.256 
" clip-path="url(#p5c616c5f38)" style="fill: none; stroke: #1f77b4; stroke-width: 1.5; stroke-linecap: square"/>
   </g>
   <g id="patch_3">
    <path d="M 46.325 162.432 
L 46.325 7.2 
" style="fill: none; stroke: #000000; stroke-width: 0.8; stroke-linejoin: miter; stroke-linecap: square"/>
   </g>
   <g id="patch_4">
    <path d="M 276.089706 162.432 
L 276.089706 7.2 
" style="fill: none; stroke: #000000; stroke-width: 0.8; stroke-linejoin: miter; stroke-linecap: square"/>
   </g>
   <g id="patch_5">
    <path d="M 46.325 162.432 
L 276.089706 162.432 
" style="fill: none; stroke: #000000; stroke-width: 0.8; stroke-linejoin: miter; stroke-linecap: square"/>
   </g>
   <g id="patch_6">
    <path d="M 46.325 7.2 
L 276.089706 7.2 
" style="fill: none; stroke: #000000; stroke-width: 0.8; stroke-linejoin: miter; stroke-linecap: square"/>
   </g>
  </g>
  <g id="axes_2">
   <g id="patch_7">
    <path d="M 322.042647 162.432 
L 551.807353 162.432 
L 551.807353 7.2 
L 322.042647 7.2 
z
" style="fill: #ffffff"/>
   </g>
   <g id="matplotlib.axis_3">
    <g id="xtick_4">
     <g id="line2d_10">
      <g>
       <use xlink:href="#mddfad28f7f" x="379.377254" y="162.432" style="stroke: #000000; stroke-width: 0.8"/>
      </g>
     </g>
     <g id="text_10">
      <!-- 2023-09-20 -->
      <g transform="translate(354.377254 176.307) scale(0.1 -0.1)">
       <use xlink:href="#SimHei-32"/>
       <use xlink:href="#SimHei-30" x="50"/>
       <use xlink:href="#SimHei-32" x="100"/>
       <use xlink:href="#SimHei-33" x="150"/>
       <use xlink:href="#SimHei-2d" x="200"/>
       <use xlink:href="#SimHei-30" x="250"/>
       <use xlink:href="#SimHei-39" x="300"/>
       <use xlink:href="#SimHei-2d" x="350"/>
       <use xlink:href="#SimHei-32" x="400"/>
       <use xlink:href="#SimHei-30" x="450"/>
      </g>
     </g>
    </g>
    <g id="xtick_5">
     <g id="line2d_11">
      <g>
       <use xlink:href="#mddfad28f7f" x="443.319194" y="162.432" style="stroke: #000000; stroke-width: 0.8"/>
      </g>
     </g>
     <g id="text_11">
      <!-- 2023-11-19 -->
      <g transform="translate(418.319194 176.307) scale(0.1 -0.1)">
       <use xlink:href="#SimHei-32"/>
       <use xlink:href="#SimHei-30" x="50"/>
       <use xlink:href="#SimHei-32" x="100"/>
       <use xlink:href="#SimHei-33" x="150"/>
       <use xlink:href="#SimHei-2d" x="200"/>
       <use xlink:href="#SimHei-31" x="250"/>
       <use xlink:href="#SimHei-31" x="300"/>
       <use xlink:href="#SimHei-2d" x="350"/>
       <use xlink:href="#SimHei-31" x="400"/>
       <use xlink:href="#SimHei-39" x="450"/>
      </g>
     </g>
    </g>
    <g id="xtick_6">
     <g id="line2d_12">
      <g>
       <use xlink:href="#mddfad28f7f" x="507.261134" y="162.432" style="stroke: #000000; stroke-width: 0.8"/>
      </g>
     </g>
     <g id="text_12">
      <!-- 2024-01-18 -->
      <g transform="translate(482.261134 176.307) scale(0.1 -0.1)">
       <use xlink:href="#SimHei-32"/>
       <use xlink:href="#SimHei-30" x="50"/>
       <use xlink:href="#SimHei-32" x="100"/>
       <use xlink:href="#SimHei-34" x="150"/>
       <use xlink:href="#SimHei-2d" x="200"/>
       <use xlink:href="#SimHei-30" x="250"/>
       <use xlink:href="#SimHei-31" x="300"/>
       <use xlink:href="#SimHei-2d" x="350"/>
       <use xlink:href="#SimHei-31" x="400"/>
       <use xlink:href="#SimHei-38" x="450"/>
      </g>
     </g>
    </g>
   </g>
   <g id="matplotlib.axis_4">
    <g id="ytick_6">
     <g id="line2d_13">
      <g>
       <use xlink:href="#m93c330698f" x="322.042647" y="155.376" style="stroke: #000000; stroke-width: 0.8"/>
      </g>
     </g>
     <g id="text_13">
      <!-- 0.0 -->
      <g transform="translate(300.042647 158.8135) scale(0.1 -0.1)">
       <use xlink:href="#SimHei-30"/>
       <use xlink:href="#SimHei-2e" x="50"/>
       <use xlink:href="#SimHei-30" x="100"/>
      </g>
     </g>
    </g>
    <g id="ytick_7">
     <g id="line2d_14">
      <g>
       <use xlink:href="#m93c330698f" x="322.042647" y="127.152" style="stroke: #000000; stroke-width: 0.8"/>
      </g>
     </g>
     <g id="text_14">
      <!-- 0.2 -->
      <g transform="translate(300.042647 130.5895) scale(0.1 -0.1)">
       <use xlink:href="#SimHei-30"/>
       <use xlink:href="#SimHei-2e" x="50"/>
       <use xlink:href="#SimHei-32" x="100"/>
      </g>
     </g>
    </g>
    <g id="ytick_8">
     <g id="line2d_15">
      <g>
       <use xlink:href="#m93c330698f" x="322.042647" y="98.928" style="stroke: #000000; stroke-width: 0.8"/>
      </g>
     </g>
     <g id="text_15">
      <!-- 0.4 -->
      <g transform="translate(300.042647 102.3655) scale(0.1 -0.1)">
       <use xlink:href="#SimHei-30"/>
       <use xlink:href="#SimHei-2e" x="50"/>
       <use xlink:href="#SimHei-34" x="100"/>
      </g>
     </g>
    </g>
    <g id="ytick_9">
     <g id="line2d_16">
      <g>
       <use xlink:href="#m93c330698f" x="322.042647" y="70.704" style="stroke: #000000; stroke-width: 0.8"/>
      </g>
     </g>
     <g id="text_16">
      <!-- 0.6 -->
      <g transform="translate(300.042647 74.1415) scale(0.1 -0.1)">
       <use xlink:href="#SimHei-30"/>
       <use xlink:href="#SimHei-2e" x="50"/>
       <use xlink:href="#SimHei-36" x="100"/>
      </g>
     </g>
    </g>
    <g id="ytick_10">
     <g id="line2d_17">
      <g>
       <use xlink:href="#m93c330698f" x="322.042647" y="42.48" style="stroke: #000000; stroke-width: 0.8"/>
      </g>
     </g>
     <g id="text_17">
      <!-- 0.8 -->
      <g transform="translate(300.042647 45.9175) scale(0.1 -0.1)">
       <use xlink:href="#SimHei-30"/>
       <use xlink:href="#SimHei-2e" x="50"/>
       <use xlink:href="#SimHei-38" x="100"/>
      </g>
     </g>
    </g>
    <g id="ytick_11">
     <g id="line2d_18">
      <g>
       <use xlink:href="#m93c330698f" x="322.042647" y="14.256" style="stroke: #000000; stroke-width: 0.8"/>
      </g>
     </g>
     <g id="text_18">
      <!-- 1.0 -->
      <g transform="translate(300.042647 17.6935) scale(0.1 -0.1)">
       <use xlink:href="#SimHei-31"/>
       <use xlink:href="#SimHei-2e" x="50"/>
       <use xlink:href="#SimHei-30" x="100"/>
      </g>
     </g>
    </g>
   </g>
   <g id="line2d_19">
    <path d="M 332.486497 155.376 
L 333.552196 145.282065 
L 335.683594 145.234782 
L 341.012089 145.186641 
L 342.077788 141.300471 
L 343.143487 140.903344 
L 344.209186 140.876442 
L 348.471982 140.908289 
L 350.60338 140.785422 
L 355.931875 140.566422 
L 356.997574 145.222714 
L 358.063273 140.58059 
L 362.32607 140.469504 
L 363.391769 140.503472 
L 364.457468 140.789887 
L 366.588866 140.80682 
L 369.785963 145.350157 
L 370.851662 140.973017 
L 372.98306 140.989076 
L 374.048759 145.554694 
L 377.245856 140.983945 
L 384.705749 141.046427 
L 386.837147 141.143608 
L 387.902846 141.055126 
L 399.625535 141.090668 
L 400.691234 140.750049 
L 408.151127 140.62494 
L 410.282525 141.011787 
L 411.348224 140.856106 
L 417.742418 140.692658 
L 418.808117 141.442726 
L 422.005214 141.295097 
L 423.070913 140.988272 
L 430.530806 141.147171 
L 432.662204 141.037782 
L 436.925 141.460577 
L 437.990699 141.170597 
L 439.056398 141.266138 
L 440.122097 140.851281 
L 441.187796 141.014981 
L 446.516291 141.089184 
L 448.647689 141.123561 
L 451.844786 141.301276 
L 452.910485 141.182578 
L 453.976184 141.208482 
L 455.041883 141.586225 
L 456.107582 141.631812 
L 459.304679 141.600273 
L 460.370378 142.591636 
L 463.567475 142.650762 
L 471.027368 142.626594 
L 474.224465 142.762013 
L 476.355863 142.526666 
L 478.487261 142.643487 
L 485.947154 142.681797 
L 492.341348 142.515591 
L 493.407047 142.573677 
L 508.326833 142.435886 
L 511.52393 145.682228 
L 513.655328 145.943958 
L 514.721028 145.913564 
L 515.786727 146.218115 
L 522.180921 146.102503 
L 523.24662 146.061281 
L 527.509416 146.178963 
L 528.575115 142.728726 
L 529.640814 145.909305 
L 541.363503 145.870319 
L 541.363503 145.870319 
" clip-path="url(#pa0a513f566)" style="fill: none; stroke: #1f77b4; stroke-width: 1.5; stroke-linecap: square"/>
   </g>
   <g id="line2d_20">
    <path d="M 332.486497 155.376 
L 333.552196 148.644626 
L 341.012089 148.652023 
L 342.077788 148.400886 
L 344.209186 148.377511 
L 351.669079 148.240694 
L 355.931875 148.149475 
L 356.997574 150.362387 
L 358.063273 148.073782 
L 362.32607 148.109535 
L 366.588866 148.10534 
L 369.785963 150.334799 
L 370.851662 148.145942 
L 372.98306 148.15795 
L 374.048759 150.411848 
L 377.245856 148.066316 
L 387.902846 148.067986 
L 403.888331 148.080536 
L 410.282525 147.905316 
L 411.348224 148.027524 
L 415.61102 148.0243 
L 416.676719 148.116928 
L 417.742418 148.089487 
L 418.808117 147.817999 
L 422.005214 147.776022 
L 423.070913 147.648605 
L 426.26801 147.622813 
L 430.530806 147.654576 
L 431.596505 147.474962 
L 433.727903 147.544226 
L 436.925 147.729437 
L 441.187796 147.307374 
L 444.384893 147.345381 
L 445.450592 147.235912 
L 448.647689 147.19686 
L 451.844786 147.116974 
L 452.910485 146.904107 
L 453.976184 146.934897 
L 455.041883 147.125846 
L 460.370378 147.242244 
L 461.436077 147.135057 
L 463.567475 147.167965 
L 467.830271 147.242304 
L 468.89597 147.287444 
L 469.961669 146.867014 
L 471.027368 146.884317 
L 474.224465 146.725477 
L 476.355863 146.186237 
L 478.487261 146.312699 
L 491.275649 145.994573 
L 493.407047 146.042327 
L 508.326833 145.871725 
L 511.52393 148.021485 
L 512.589629 147.650268 
L 515.786727 148.000529 
L 521.115222 147.853505 
L 523.24662 147.676448 
L 527.509416 147.67628 
L 528.575115 144.792365 
L 529.640814 147.613305 
L 541.363503 147.606926 
L 541.363503 147.606926 
" clip-path="url(#pa0a513f566)" style="fill: none; stroke: #ff7f0e; stroke-width: 1.5; stroke-linecap: square"/>
   </g>
   <g id="line2d_21">
    <path d="M 332.486497 155.376 
L 333.552196 151.603836 
L 339.94639 151.641728 
L 341.012089 148.87933 
L 342.077788 149.433036 
L 343.143487 148.679614 
L 344.209186 148.627797 
L 347.406283 148.62046 
L 348.471982 148.418741 
L 350.60338 148.346627 
L 354.866176 148.462561 
L 355.931875 148.458981 
L 356.997574 150.459281 
L 358.063273 148.470356 
L 359.128972 148.494043 
L 362.32607 149.249109 
L 363.391769 148.464301 
L 366.588866 148.391335 
L 369.785963 149.886997 
L 370.851662 148.650369 
L 372.98306 148.651968 
L 374.048759 149.960167 
L 377.245856 148.727044 
L 380.442953 148.778537 
L 381.508652 148.621953 
L 399.625535 148.538505 
L 400.691234 149.317148 
L 410.282525 149.28241 
L 411.348224 148.700318 
L 415.61102 148.606484 
L 416.676719 148.798747 
L 417.742418 148.633221 
L 426.26801 148.307349 
L 429.465107 147.934634 
L 430.530806 147.977347 
L 431.596505 148.157665 
L 433.727903 148.201024 
L 437.990699 148.516912 
L 439.056398 148.062735 
L 440.122097 148.177842 
L 444.384893 148.238267 
L 447.58199 148.192154 
L 451.844786 147.985987 
L 452.910485 148.153339 
L 456.107582 148.217219 
L 461.436077 148.263009 
L 463.567475 148.34817 
L 467.830271 148.471284 
L 469.961669 148.604561 
L 478.487261 148.62137 
L 484.881455 148.680461 
L 485.947154 148.871533 
L 500.86694 149.002384 
L 506.195435 148.948029 
L 508.326833 149.057254 
L 511.52393 151.801848 
L 514.721028 151.835357 
L 515.786727 151.710342 
L 521.115222 151.740115 
L 522.180921 151.864712 
L 527.509416 151.956054 
L 528.575115 149.226526 
L 529.640814 152.021179 
L 541.363503 152.00792 
L 541.363503 152.00792 
" clip-path="url(#pa0a513f566)" style="fill: none; stroke: #2ca02c; stroke-width: 1.5; stroke-linecap: square"/>
   </g>
   <g id="line2d_22">
    <path d="M 332.486497 155.376 
L 333.552196 144.465254 
L 341.012089 144.471521 
L 342.077788 145.928973 
L 343.143487 146.903299 
L 344.209186 146.976253 
L 347.406283 146.9244 
L 348.471982 147.019593 
L 349.537681 147.697817 
L 355.931875 147.686209 
L 356.997574 145.083344 
L 358.063273 147.793681 
L 359.128972 147.747786 
L 362.32607 146.94487 
L 363.391769 147.74271 
L 366.588866 147.793963 
L 369.785963 145.230404 
L 370.851662 147.847319 
L 372.98306 147.858815 
L 374.048759 145.380645 
L 377.245856 147.882236 
L 379.377254 147.875778 
L 380.442953 147.736399 
L 384.705749 147.705392 
L 387.902846 147.730696 
L 399.625535 147.779692 
L 400.691234 147.106036 
L 401.756933 146.929132 
L 408.151127 146.991461 
L 409.216826 147.122245 
L 410.282525 146.844545 
L 411.348224 147.590003 
L 415.61102 147.481089 
L 416.676719 146.863824 
L 417.742418 146.972857 
L 431.596505 146.903094 
L 433.727903 146.727792 
L 437.990699 147.055554 
L 439.056398 147.595898 
L 440.122097 146.789925 
L 441.187796 146.631022 
L 444.384893 146.659867 
L 446.516291 146.480203 
L 451.844786 146.641454 
L 452.910485 146.766531 
L 453.976184 146.267473 
L 461.436077 146.164618 
L 462.501776 146.348293 
L 466.764572 146.341738 
L 467.830271 146.481857 
L 468.89597 146.432291 
L 469.961669 146.135937 
L 474.224465 146.002956 
L 476.355863 145.997676 
L 477.421562 145.961256 
L 478.487261 146.106607 
L 485.947154 146.175637 
L 490.20995 146.587478 
L 491.275649 146.564238 
L 492.341348 146.715479 
L 493.407047 146.499495 
L 498.735542 146.530848 
L 499.801241 146.706963 
L 504.064037 146.62661 
L 505.129736 146.540195 
L 506.195435 146.782768 
L 508.326833 147.107987 
L 511.52393 143.412244 
L 513.655328 143.255492 
L 514.721028 143.310021 
L 515.786727 142.980466 
L 520.049523 143.006911 
L 521.115222 141.712678 
L 522.180921 142.163391 
L 523.24662 142.281412 
L 526.443717 142.246709 
L 527.509416 142.428141 
L 528.575115 146.261748 
L 529.640814 142.962123 
L 541.363503 142.977599 
L 541.363503 142.977599 
" clip-path="url(#pa0a513f566)" style="fill: none; stroke: #d62728; stroke-width: 1.5; stroke-linecap: square"/>
   </g>
   <g id="line2d_23">
    <path d="M 332.486497 155.376 
L 333.552196 144.223993 
L 336.749293 144.249129 
L 339.94639 144.469687 
L 341.012089 144.412529 
L 342.077788 147.005657 
L 343.143487 147.88337 
L 355.931875 147.955411 
L 356.997574 145.457296 
L 358.063273 148.058348 
L 359.128972 148.06852 
L 362.32607 147.29133 
L 363.391769 148.067171 
L 365.523167 148.062427 
L 366.588866 148.137902 
L 369.785963 145.741919 
L 370.851662 148.218257 
L 372.98306 148.255562 
L 374.048759 145.896753 
L 377.245856 148.175285 
L 379.377254 148.178467 
L 380.442953 148.077098 
L 385.771448 148.066223 
L 399.625535 148.181501 
L 400.691234 147.490892 
L 403.888331 147.453661 
L 408.151127 147.540167 
L 409.216826 147.618484 
L 410.282525 147.323398 
L 411.348224 148.058237 
L 415.61102 148.03255 
L 416.676719 147.474293 
L 422.005214 147.607123 
L 423.070913 147.812069 
L 430.530806 147.582935 
L 431.596505 147.239213 
L 432.662204 147.234535 
L 433.727903 147.049173 
L 437.990699 147.368601 
L 439.056398 148.040314 
L 440.122097 147.682235 
L 441.187796 147.586253 
L 444.384893 147.633051 
L 445.450592 147.416315 
L 451.844786 147.574278 
L 452.910485 147.837013 
L 453.976184 147.294546 
L 455.041883 147.473264 
L 456.107582 147.525466 
L 461.436077 147.526135 
L 463.567475 147.578991 
L 467.830271 147.651902 
L 468.89597 147.664919 
L 471.027368 147.356263 
L 477.421562 147.411904 
L 478.487261 147.508028 
L 493.407047 147.580761 
L 498.735542 147.729346 
L 499.801241 147.955102 
L 500.86694 147.946917 
L 506.195435 147.79684 
L 508.326833 147.984838 
L 511.52393 143.665711 
L 513.655328 143.549161 
L 514.721028 143.568494 
L 515.786727 143.149411 
L 520.049523 143.15203 
L 522.180921 143.595036 
L 526.443717 143.609402 
L 527.509416 143.744395 
L 528.575115 148.037699 
L 529.640814 143.733234 
L 541.363503 143.767949 
L 541.363503 143.767949 
" clip-path="url(#pa0a513f566)" style="fill: none; stroke: #9467bd; stroke-width: 1.5; stroke-linecap: square"/>
   </g>
   <g id="line2d_24">
    <path d="M 332.486497 155.376 
L 333.552196 147.564059 
L 339.94639 147.657546 
L 341.012089 147.220655 
L 342.077788 143.312036 
L 343.143487 144.162847 
L 344.209186 144.275826 
L 350.60338 144.34094 
L 351.669079 144.460627 
L 355.931875 144.436296 
L 356.997574 146.052261 
L 358.063273 144.555686 
L 359.128972 144.550076 
L 362.32607 143.830168 
L 363.391769 144.53024 
L 365.523167 144.59873 
L 366.588866 144.544099 
L 374.048759 144.796064 
L 379.377254 144.874293 
L 381.508652 144.867986 
L 399.625535 144.904684 
L 400.691234 144.306199 
L 403.888331 144.264184 
L 410.282525 144.391089 
L 411.348224 145.122528 
L 415.61102 145.140577 
L 416.676719 144.218612 
L 417.742418 144.412778 
L 418.808117 144.254647 
L 422.005214 144.247206 
L 424.136612 144.634447 
L 426.26801 144.697605 
L 430.530806 144.759081 
L 431.596505 144.999146 
L 432.662204 145.026526 
L 433.727903 144.924177 
L 437.990699 145.21092 
L 439.056398 146.030493 
L 441.187796 146.064119 
L 451.844786 146.30678 
L 452.910485 146.546859 
L 455.041883 146.644504 
L 459.304679 146.639203 
L 461.436077 146.682591 
L 463.567475 146.765408 
L 466.764572 146.743692 
L 471.027368 147.186825 
L 477.421562 147.356317 
L 478.487261 147.444668 
L 485.947154 147.495352 
L 496.604144 147.78317 
L 504.064037 147.940979 
L 505.129736 147.894635 
L 506.195435 148.191358 
L 507.261134 148.14796 
L 508.326833 148.403144 
L 511.52393 150.661509 
L 518.983824 150.645472 
L 520.049523 150.780757 
L 521.115222 150.800583 
L 522.180921 151.014867 
L 527.509416 151.213629 
L 528.575115 148.86014 
L 529.640814 151.388203 
L 541.363503 151.364951 
L 541.363503 151.364951 
" clip-path="url(#pa0a513f566)" style="fill: none; stroke: #8c564b; stroke-width: 1.5; stroke-linecap: square"/>
   </g>
   <g id="line2d_25">
    <path d="M 332.486497 155.376 
L 333.552196 136.564197 
L 334.617895 136.126347 
L 335.683594 136.022015 
L 336.749293 136.048863 
L 339.94639 135.92423 
L 341.012089 142.544892 
L 342.077788 135.826158 
L 343.143487 134.000175 
L 347.406283 133.78617 
L 348.471982 133.9954 
L 349.537681 133.884933 
L 350.60338 133.894947 
L 351.669079 134.111454 
L 355.931875 134.138288 
L 356.997574 135.653696 
L 358.063273 134.363287 
L 359.128972 134.358592 
L 362.32607 135.990277 
L 363.391769 134.48961 
L 364.457468 134.437658 
L 365.523167 134.501673 
L 366.588866 134.2331 
L 369.785963 138.121936 
L 370.851662 134.101096 
L 371.917361 133.76925 
L 372.98306 133.759126 
L 374.048759 137.632706 
L 377.245856 133.517286 
L 378.311555 133.23576 
L 379.377254 133.367905 
L 380.442953 133.291618 
L 381.508652 133.565605 
L 384.705749 133.543668 
L 385.771448 133.831506 
L 387.902846 133.765319 
L 399.625535 133.310209 
L 400.691234 135.236785 
L 401.756933 135.056329 
L 407.085428 135.098477 
L 409.216826 135.440304 
L 410.282525 135.233335 
L 411.348224 133.22836 
L 414.545321 132.733663 
L 415.61102 132.881752 
L 416.676719 134.757673 
L 418.808117 134.645566 
L 422.005214 134.689191 
L 423.070913 134.943932 
L 426.26801 135.008414 
L 430.530806 135.056642 
L 431.596505 135.331781 
L 432.662204 135.383816 
L 433.727903 135.045136 
L 436.925 135.516169 
L 437.990699 135.180643 
L 439.056398 134.085184 
L 440.122097 132.782374 
L 444.384893 133.136453 
L 446.516291 133.053566 
L 447.58199 133.137532 
L 448.647689 132.976636 
L 451.844786 132.74681 
L 452.910485 133.123713 
L 453.976184 133.146277 
L 455.041883 133.703047 
L 456.107582 133.433698 
L 459.304679 133.363636 
L 460.370378 133.075183 
L 461.436077 133.05302 
L 462.501776 133.328538 
L 463.567475 133.220069 
L 466.764572 133.259661 
L 469.961669 133.83029 
L 471.027368 133.862354 
L 474.224465 133.837607 
L 475.290164 133.969616 
L 476.355863 134.356841 
L 477.421562 134.421246 
L 478.487261 134.599308 
L 482.750057 134.75837 
L 483.815756 134.926747 
L 485.947154 134.607302 
L 490.20995 134.687744 
L 492.341348 135.185261 
L 496.604144 135.114759 
L 498.735542 135.282573 
L 499.801241 134.28629 
L 500.86694 134.345676 
L 505.129736 134.28801 
L 507.261134 133.605875 
L 508.326833 133.115653 
L 511.52393 136.449385 
L 512.589629 136.560175 
L 513.655328 135.236563 
L 514.721028 135.260983 
L 515.786727 134.513242 
L 520.049523 134.694623 
L 521.115222 135.201014 
L 522.180921 135.381252 
L 523.24662 135.325392 
L 526.443717 135.271039 
L 527.509416 135.675693 
L 528.575115 132.087492 
L 529.640814 136.62039 
L 541.363503 136.741654 
L 541.363503 136.741654 
" clip-path="url(#pa0a513f566)" style="fill: none; stroke: #e377c2; stroke-width: 1.5; stroke-linecap: square"/>
   </g>
   <g id="line2d_26">
    <path d="M 332.486497 155.376 
L 333.552196 105.971813 
L 334.617895 106.562274 
L 336.749293 106.475252 
L 339.94639 106.332748 
L 341.012089 103.373763 
L 342.077788 119.515942 
L 343.143487 119.685412 
L 347.406283 119.671151 
L 349.537681 119.292704 
L 350.60338 119.334174 
L 351.669079 119.066688 
L 354.866176 119.168471 
L 355.931875 119.39332 
L 356.997574 112.522554 
L 358.063273 119.067815 
L 363.391769 119.02637 
L 364.457468 118.725112 
L 365.523167 118.606261 
L 366.588866 118.804627 
L 369.785963 111.517902 
L 370.851662 118.192311 
L 372.98306 118.354119 
L 374.048759 110.730131 
L 377.245856 118.229001 
L 380.442953 118.641285 
L 381.508652 118.522526 
L 384.705749 118.570479 
L 385.771448 118.342307 
L 387.902846 118.308541 
L 399.625535 118.697845 
L 400.691234 118.506066 
L 401.756933 118.820582 
L 403.888331 118.818539 
L 408.151127 118.673795 
L 409.216826 118.359603 
L 411.348224 118.815621 
L 414.545321 119.341204 
L 415.61102 119.240134 
L 416.676719 118.726691 
L 417.742418 118.776648 
L 418.808117 119.163384 
L 422.005214 119.500979 
L 425.202311 118.976079 
L 426.26801 118.966801 
L 430.530806 119.11317 
L 431.596505 118.988764 
L 432.662204 119.016323 
L 433.727903 119.285922 
L 436.925 116.89691 
L 437.990699 116.957413 
L 439.056398 116.346173 
L 440.122097 118.091093 
L 441.187796 118.244538 
L 444.384893 117.495029 
L 445.450592 117.790014 
L 451.844786 117.766899 
L 452.910485 116.953897 
L 453.976184 117.426105 
L 455.041883 115.584767 
L 459.304679 115.921688 
L 460.370378 115.344193 
L 461.436077 115.370903 
L 462.501776 114.953502 
L 463.567475 115.183042 
L 466.764572 115.177352 
L 467.830271 114.395617 
L 468.89597 114.036666 
L 469.961669 114.814264 
L 471.027368 114.752422 
L 474.224465 114.835835 
L 475.290164 115.147826 
L 476.355863 115.343225 
L 477.421562 115.122822 
L 478.487261 114.528122 
L 485.947154 114.456684 
L 490.20995 114.216373 
L 491.275649 113.783895 
L 492.341348 113.195896 
L 493.407047 113.356865 
L 496.604144 113.273603 
L 497.669843 112.913383 
L 498.735542 112.872401 
L 499.801241 113.142759 
L 500.86694 113.138877 
L 504.064037 113.29395 
L 505.129736 113.697151 
L 506.195435 113.448191 
L 507.261134 113.4518 
L 508.326833 113.580135 
L 511.52393 107.670461 
L 512.589629 107.902608 
L 513.655328 108.608219 
L 514.721028 108.473685 
L 515.786727 109.520588 
L 520.049523 108.922819 
L 521.115222 109.056302 
L 522.180921 108.307113 
L 526.443717 108.265001 
L 527.509416 106.882575 
L 528.575115 113.718126 
L 529.640814 105.921719 
L 541.363503 105.75028 
L 541.363503 105.75028 
" clip-path="url(#pa0a513f566)" style="fill: none; stroke: #7f7f7f; stroke-width: 1.5; stroke-linecap: square"/>
   </g>
   <g id="line2d_27">
    <path d="M 332.486497 155.376 
L 333.552196 145.939356 
L 334.617895 145.898435 
L 335.683594 146.009748 
L 339.94639 145.994847 
L 341.012089 145.778836 
L 342.077788 139.053473 
L 344.209186 139.072417 
L 348.471982 139.215622 
L 349.537681 139.067597 
L 351.669079 139.088535 
L 355.931875 139.010275 
L 356.997574 141.293458 
L 358.063273 138.873664 
L 359.128972 138.847796 
L 365.523167 138.866379 
L 366.588866 138.817406 
L 369.785963 141.139848 
L 370.851662 138.81118 
L 372.98306 138.887929 
L 374.048759 141.401618 
L 377.245856 138.947929 
L 379.377254 138.890361 
L 381.508652 138.806082 
L 402.822632 138.766729 
L 408.151127 138.783073 
L 409.216826 138.47278 
L 411.348224 138.764329 
L 415.61102 138.839049 
L 416.676719 139.192366 
L 417.742418 139.167584 
L 418.808117 138.748254 
L 426.26801 138.703411 
L 432.662204 138.890833 
L 433.727903 139.04569 
L 439.056398 139.609526 
L 440.122097 140.299223 
L 441.187796 140.285455 
L 452.910485 140.637108 
L 455.041883 141.062281 
L 459.304679 141.034968 
L 460.370378 140.900687 
L 461.436077 140.929542 
L 462.501776 140.760933 
L 468.89597 140.90495 
L 469.961669 141.241777 
L 475.290164 141.346722 
L 476.355863 141.032637 
L 508.326833 141.261129 
L 511.52393 143.092262 
L 512.589629 143.104257 
L 513.655328 143.373754 
L 514.721028 143.364834 
L 515.786727 143.579449 
L 520.049523 143.850042 
L 521.115222 143.848458 
L 522.180921 143.718117 
L 523.24662 143.846266 
L 526.443717 143.843881 
L 527.509416 143.960703 
L 528.575115 142.169807 
L 529.640814 143.675958 
L 541.363503 143.717573 
L 541.363503 143.717573 
" clip-path="url(#pa0a513f566)" style="fill: none; stroke: #bcbd22; stroke-width: 1.5; stroke-linecap: square"/>
   </g>
   <g id="line2d_28">
    <path d="M 332.486497 155.376 
L 333.552196 142.3808 
L 339.94639 142.327273 
L 341.012089 142.119809 
L 342.077788 142.863369 
L 347.406283 142.985681 
L 355.931875 142.845324 
L 356.997574 140.53301 
L 358.063273 142.80279 
L 359.128972 142.900378 
L 365.523167 142.945349 
L 366.588866 143.005408 
L 369.785963 140.707001 
L 370.851662 142.975841 
L 372.98306 142.972088 
L 374.048759 140.875374 
L 377.245856 143.218692 
L 381.508652 143.306225 
L 408.151127 143.292669 
L 409.216826 143.190939 
L 411.348224 143.476974 
L 417.742418 143.713427 
L 418.808117 143.388845 
L 423.070913 143.289325 
L 424.136612 143.520985 
L 426.26801 143.510164 
L 433.727903 143.668317 
L 439.056398 144.043562 
L 440.122097 144.45082 
L 453.976184 144.689254 
L 455.041883 144.941366 
L 459.304679 144.9767 
L 460.370378 144.872396 
L 461.436077 144.891794 
L 463.567475 144.598692 
L 467.830271 144.494295 
L 469.961669 144.069938 
L 471.027368 144.014973 
L 475.290164 144.073695 
L 476.355863 143.889122 
L 477.421562 143.928308 
L 478.487261 143.81175 
L 496.604144 143.579244 
L 497.669843 143.782531 
L 508.326833 143.822249 
L 511.52393 142.182868 
L 520.049523 142.509491 
L 521.115222 142.845698 
L 523.24662 142.666092 
L 526.443717 142.762983 
L 527.509416 142.923568 
L 528.575115 144.757371 
L 529.640814 142.794584 
L 541.363503 142.83483 
L 541.363503 142.83483 
" clip-path="url(#pa0a513f566)" style="fill: none; stroke: #17becf; stroke-width: 1.5; stroke-linecap: square"/>
   </g>
   <g id="line2d_29">
    <path d="M 332.486497 14.256 
L 333.552196 155.376 
L 541.363503 155.376 
L 541.363503 155.376 
" clip-path="url(#pa0a513f566)" style="fill: none; stroke: #1f77b4; stroke-width: 1.5; stroke-linecap: square"/>
   </g>
   <g id="patch_8">
    <path d="M 322.042647 162.432 
L 322.042647 7.2 
" style="fill: none; stroke: #000000; stroke-width: 0.8; stroke-linejoin: miter; stroke-linecap: square"/>
   </g>
   <g id="patch_9">
    <path d="M 551.807353 162.432 
L 551.807353 7.2 
" style="fill: none; stroke: #000000; stroke-width: 0.8; stroke-linejoin: miter; stroke-linecap: square"/>
   </g>
   <g id="patch_10">
    <path d="M 322.042647 162.432 
L 551.807353 162.432 
" style="fill: none; stroke: #000000; stroke-width: 0.8; stroke-linejoin: miter; stroke-linecap: square"/>
   </g>
   <g id="patch_11">
    <path d="M 322.042647 7.2 
L 551.807353 7.2 
" style="fill: none; stroke: #000000; stroke-width: 0.8; stroke-linejoin: miter; stroke-linecap: square"/>
   </g>
   <g id="legend_1">
    <g id="patch_12">
     <path d="M 457.807353 148.60625 
L 544.807353 148.60625 
Q 546.807353 148.60625 546.807353 146.60625 
L 546.807353 14.2 
Q 546.807353 12.2 544.807353 12.2 
L 457.807353 12.2 
Q 455.807353 12.2 455.807353 14.2 
L 455.807353 146.60625 
Q 455.807353 148.60625 457.807353 148.60625 
z
" style="fill: #ffffff; opacity: 0.8; stroke: #cccccc; stroke-linejoin: miter"/>
    </g>
    <g id="line2d_30">
     <path d="M 459.807353 19.73125 
L 469.807353 19.73125 
L 479.807353 19.73125 
" style="fill: none; stroke: #1f77b4; stroke-width: 1.5; stroke-linecap: square"/>
    </g>
    <g id="text_19">
     <!-- w_002027.SZ -->
     <g transform="translate(487.807353 23.23125) scale(0.1 -0.1)">
      <defs>
       <path id="SimHei-77" d="M 3075 2925 
L 2450 75 
L 1975 75 
L 1575 2250 
L 1525 2250 
L 1125 75 
L 650 75 
L 25 2925 
L 550 2925 
L 875 1050 
L 925 1050 
L 1275 2925 
L 1825 2925 
L 2175 1050 
L 2225 1050 
L 2550 2925 
L 3075 2925 
z
" transform="scale(0.015625)"/>
       <path id="SimHei-5f" d="M 3150 -850 
L 0 -850 
L 0 -550 
L 3150 -550 
L 3150 -850 
z
" transform="scale(0.015625)"/>
       <path id="SimHei-37" d="M 850 150 
Q 1300 2050 2425 3925 
L 275 3925 
L 275 4375 
L 2950 4375 
L 2950 3950 
Q 1775 2050 1400 150 
L 850 150 
z
" transform="scale(0.015625)"/>
       <path id="SimHei-53" d="M 2900 1325 
Q 2900 750 2537 412 
Q 2175 75 1550 75 
Q 925 75 575 425 
Q 225 775 225 1300 
L 225 1475 
L 800 1475 
L 800 1325 
Q 800 950 1025 750 
Q 1250 550 1550 550 
Q 1950 550 2137 762 
Q 2325 975 2325 1275 
Q 2325 1525 2100 1737 
Q 1875 1950 1450 2125 
Q 850 2350 587 2625 
Q 325 2900 325 3275 
Q 325 3800 687 4125 
Q 1050 4450 1550 4450 
Q 2200 4450 2487 4062 
Q 2775 3675 2775 3225 
L 2200 3225 
Q 2225 3500 2050 3725 
Q 1875 3950 1550 3950 
Q 1250 3950 1075 3787 
Q 900 3625 900 3350 
Q 900 3125 1037 2962 
Q 1175 2800 1750 2575 
Q 2300 2350 2600 2037 
Q 2900 1725 2900 1325 
z
" transform="scale(0.015625)"/>
       <path id="SimHei-5a" d="M 2900 125 
L 225 125 
L 225 600 
L 2250 3925 
L 375 3925 
L 375 4400 
L 2825 4400 
L 2825 3925 
L 800 600 
L 2900 600 
L 2900 125 
z
" transform="scale(0.015625)"/>
      </defs>
      <use xlink:href="#SimHei-77"/>
      <use xlink:href="#SimHei-5f" x="50"/>
      <use xlink:href="#SimHei-30" x="100"/>
      <use xlink:href="#SimHei-30" x="150"/>
      <use xlink:href="#SimHei-32" x="200"/>
      <use xlink:href="#SimHei-30" x="250"/>
      <use xlink:href="#SimHei-32" x="300"/>
      <use xlink:href="#SimHei-37" x="350"/>
      <use xlink:href="#SimHei-2e" x="400"/>
      <use xlink:href="#SimHei-53" x="450"/>
      <use xlink:href="#SimHei-5a" x="500"/>
     </g>
    </g>
    <g id="line2d_31">
     <path d="M 459.807353 33.090625 
L 469.807353 33.090625 
L 479.807353 33.090625 
" style="fill: none; stroke: #ff7f0e; stroke-width: 1.5; stroke-linecap: square"/>
    </g>
    <g id="text_20">
     <!-- w_002371.SZ -->
     <g transform="translate(487.807353 36.590625) scale(0.1 -0.1)">
      <use xlink:href="#SimHei-77"/>
      <use xlink:href="#SimHei-5f" x="50"/>
      <use xlink:href="#SimHei-30" x="100"/>
      <use xlink:href="#SimHei-30" x="150"/>
      <use xlink:href="#SimHei-32" x="200"/>
      <use xlink:href="#SimHei-33" x="250"/>
      <use xlink:href="#SimHei-37" x="300"/>
      <use xlink:href="#SimHei-31" x="350"/>
      <use xlink:href="#SimHei-2e" x="400"/>
      <use xlink:href="#SimHei-53" x="450"/>
      <use xlink:href="#SimHei-5a" x="500"/>
     </g>
    </g>
    <g id="line2d_32">
     <path d="M 459.807353 46.41875 
L 469.807353 46.41875 
L 479.807353 46.41875 
" style="fill: none; stroke: #2ca02c; stroke-width: 1.5; stroke-linecap: square"/>
    </g>
    <g id="text_21">
     <!-- w_600009.SH -->
     <g transform="translate(487.807353 49.91875) scale(0.1 -0.1)">
      <use xlink:href="#SimHei-77"/>
      <use xlink:href="#SimHei-5f" x="50"/>
      <use xlink:href="#SimHei-36" x="100"/>
      <use xlink:href="#SimHei-30" x="150"/>
      <use xlink:href="#SimHei-30" x="200"/>
      <use xlink:href="#SimHei-30" x="250"/>
      <use xlink:href="#SimHei-30" x="300"/>
      <use xlink:href="#SimHei-39" x="350"/>
      <use xlink:href="#SimHei-2e" x="400"/>
      <use xlink:href="#SimHei-53" x="450"/>
      <use xlink:href="#SimHei-48" x="500"/>
     </g>
    </g>
    <g id="line2d_33">
     <path d="M 459.807353 59.778125 
L 469.807353 59.778125 
L 479.807353 59.778125 
" style="fill: none; stroke: #d62728; stroke-width: 1.5; stroke-linecap: square"/>
    </g>
    <g id="text_22">
     <!-- w_600029.SH -->
     <g transform="translate(487.807353 63.278125) scale(0.1 -0.1)">
      <use xlink:href="#SimHei-77"/>
      <use xlink:href="#SimHei-5f" x="50"/>
      <use xlink:href="#SimHei-36" x="100"/>
      <use xlink:href="#SimHei-30" x="150"/>
      <use xlink:href="#SimHei-30" x="200"/>
      <use xlink:href="#SimHei-30" x="250"/>
      <use xlink:href="#SimHei-32" x="300"/>
      <use xlink:href="#SimHei-39" x="350"/>
      <use xlink:href="#SimHei-2e" x="400"/>
      <use xlink:href="#SimHei-53" x="450"/>
      <use xlink:href="#SimHei-48" x="500"/>
     </g>
    </g>
    <g id="line2d_34">
     <path d="M 459.807353 73.1375 
L 469.807353 73.1375 
L 479.807353 73.1375 
" style="fill: none; stroke: #9467bd; stroke-width: 1.5; stroke-linecap: square"/>
    </g>
    <g id="text_23">
     <!-- w_600183.SH -->
     <g transform="translate(487.807353 76.6375) scale(0.1 -0.1)">
      <use xlink:href="#SimHei-77"/>
      <use xlink:href="#SimHei-5f" x="50"/>
      <use xlink:href="#SimHei-36" x="100"/>
      <use xlink:href="#SimHei-30" x="150"/>
      <use xlink:href="#SimHei-30" x="200"/>
      <use xlink:href="#SimHei-31" x="250"/>
      <use xlink:href="#SimHei-38" x="300"/>
      <use xlink:href="#SimHei-33" x="350"/>
      <use xlink:href="#SimHei-2e" x="400"/>
      <use xlink:href="#SimHei-53" x="450"/>
      <use xlink:href="#SimHei-48" x="500"/>
     </g>
    </g>
    <g id="line2d_35">
     <path d="M 459.807353 86.465625 
L 469.807353 86.465625 
L 479.807353 86.465625 
" style="fill: none; stroke: #8c564b; stroke-width: 1.5; stroke-linecap: square"/>
    </g>
    <g id="text_24">
     <!-- w_600406.SH -->
     <g transform="translate(487.807353 89.965625) scale(0.1 -0.1)">
      <use xlink:href="#SimHei-77"/>
      <use xlink:href="#SimHei-5f" x="50"/>
      <use xlink:href="#SimHei-36" x="100"/>
      <use xlink:href="#SimHei-30" x="150"/>
      <use xlink:href="#SimHei-30" x="200"/>
      <use xlink:href="#SimHei-34" x="250"/>
      <use xlink:href="#SimHei-30" x="300"/>
      <use xlink:href="#SimHei-36" x="350"/>
      <use xlink:href="#SimHei-2e" x="400"/>
      <use xlink:href="#SimHei-53" x="450"/>
      <use xlink:href="#SimHei-48" x="500"/>
     </g>
    </g>
    <g id="line2d_36">
     <path d="M 459.807353 99.79375 
L 469.807353 99.79375 
L 479.807353 99.79375 
" style="fill: none; stroke: #e377c2; stroke-width: 1.5; stroke-linecap: square"/>
    </g>
    <g id="text_25">
     <!-- w_600900.SH -->
     <g transform="translate(487.807353 103.29375) scale(0.1 -0.1)">
      <use xlink:href="#SimHei-77"/>
      <use xlink:href="#SimHei-5f" x="50"/>
      <use xlink:href="#SimHei-36" x="100"/>
      <use xlink:href="#SimHei-30" x="150"/>
      <use xlink:href="#SimHei-30" x="200"/>
      <use xlink:href="#SimHei-39" x="250"/>
      <use xlink:href="#SimHei-30" x="300"/>
      <use xlink:href="#SimHei-30" x="350"/>
      <use xlink:href="#SimHei-2e" x="400"/>
      <use xlink:href="#SimHei-53" x="450"/>
      <use xlink:href="#SimHei-48" x="500"/>
     </g>
    </g>
    <g id="line2d_37">
     <path d="M 459.807353 113.121875 
L 469.807353 113.121875 
L 479.807353 113.121875 
" style="fill: none; stroke: #7f7f7f; stroke-width: 1.5; stroke-linecap: square"/>
    </g>
    <g id="text_26">
     <!-- w_601989.SH -->
     <g transform="translate(487.807353 116.621875) scale(0.1 -0.1)">
      <use xlink:href="#SimHei-77"/>
      <use xlink:href="#SimHei-5f" x="50"/>
      <use xlink:href="#SimHei-36" x="100"/>
      <use xlink:href="#SimHei-30" x="150"/>
      <use xlink:href="#SimHei-31" x="200"/>
      <use xlink:href="#SimHei-39" x="250"/>
      <use xlink:href="#SimHei-38" x="300"/>
      <use xlink:href="#SimHei-39" x="350"/>
      <use xlink:href="#SimHei-2e" x="400"/>
      <use xlink:href="#SimHei-53" x="450"/>
      <use xlink:href="#SimHei-48" x="500"/>
     </g>
    </g>
    <g id="line2d_38">
     <path d="M 459.807353 126.45 
L 469.807353 126.45 
L 479.807353 126.45 
" style="fill: none; stroke: #bcbd22; stroke-width: 1.5; stroke-linecap: square"/>
    </g>
    <g id="text_27">
     <!-- w_601998.SH -->
     <g transform="translate(487.807353 129.95) scale(0.1 -0.1)">
      <use xlink:href="#SimHei-77"/>
      <use xlink:href="#SimHei-5f" x="50"/>
      <use xlink:href="#SimHei-36" x="100"/>
      <use xlink:href="#SimHei-30" x="150"/>
      <use xlink:href="#SimHei-31" x="200"/>
      <use xlink:href="#SimHei-39" x="250"/>
      <use xlink:href="#SimHei-39" x="300"/>
      <use xlink:href="#SimHei-38" x="350"/>
      <use xlink:href="#SimHei-2e" x="400"/>
      <use xlink:href="#SimHei-53" x="450"/>
      <use xlink:href="#SimHei-48" x="500"/>
     </g>
    </g>
    <g id="line2d_39">
     <path d="M 459.807353 139.778125 
L 469.807353 139.778125 
L 479.807353 139.778125 
" style="fill: none; stroke: #17becf; stroke-width: 1.5; stroke-linecap: square"/>
    </g>
    <g id="text_28">
     <!-- w_CASH -->
     <g transform="translate(487.807353 143.278125) scale(0.1 -0.1)">
      <defs>
       <path id="SimHei-43" d="M 2975 1825 
Q 2950 875 2575 475 
Q 2200 75 1675 75 
Q 1075 75 650 562 
Q 225 1050 225 2125 
Q 225 3300 637 3875 
Q 1050 4450 1700 4450 
Q 2250 4450 2612 4037 
Q 2975 3625 2950 2875 
L 2400 2875 
Q 2400 3425 2225 3700 
Q 2050 3975 1700 3975 
Q 1300 3975 1062 3562 
Q 825 3150 825 2175 
Q 825 1275 1062 912 
Q 1300 550 1675 550 
Q 1950 550 2175 812 
Q 2400 1075 2400 1825 
L 2975 1825 
z
" transform="scale(0.015625)"/>
       <path id="SimHei-41" d="M 3075 125 
L 2475 125 
L 2125 1450 
L 1025 1450 
L 675 125 
L 75 125 
L 1325 4450 
L 1825 4450 
L 3075 125 
z
M 2000 1925 
L 1600 3450 
L 1550 3450 
L 1150 1925 
L 2000 1925 
z
" transform="scale(0.015625)"/>
      </defs>
      <use xlink:href="#SimHei-77"/>
      <use xlink:href="#SimHei-5f" x="50"/>
      <use xlink:href="#SimHei-43" x="100"/>
      <use xlink:href="#SimHei-41" x="150"/>
      <use xlink:href="#SimHei-53" x="200"/>
      <use xlink:href="#SimHei-48" x="250"/>
     </g>
    </g>
   </g>
  </g>
  <g id="axes_3">
   <g id="patch_13">
    <path d="M 597.760294 162.432 
L 827.525 162.432 
L 827.525 7.2 
L 597.760294 7.2 
z
" style="fill: #ffffff"/>
   </g>
   <g id="matplotlib.axis_5">
    <g id="xtick_7">
     <g id="line2d_40">
      <g>
       <use xlink:href="#mddfad28f7f" x="654.029202" y="162.432" style="stroke: #000000; stroke-width: 0.8"/>
      </g>
     </g>
     <g id="text_29">
      <!-- 2023-09-20 -->
      <g transform="translate(629.029202 176.307) scale(0.1 -0.1)">
       <use xlink:href="#SimHei-32"/>
       <use xlink:href="#SimHei-30" x="50"/>
       <use xlink:href="#SimHei-32" x="100"/>
       <use xlink:href="#SimHei-33" x="150"/>
       <use xlink:href="#SimHei-2d" x="200"/>
       <use xlink:href="#SimHei-30" x="250"/>
       <use xlink:href="#SimHei-39" x="300"/>
       <use xlink:href="#SimHei-2d" x="350"/>
       <use xlink:href="#SimHei-32" x="400"/>
       <use xlink:href="#SimHei-30" x="450"/>
      </g>
     </g>
    </g>
    <g id="xtick_8">
     <g id="line2d_41">
      <g>
       <use xlink:href="#mddfad28f7f" x="717.971142" y="162.432" style="stroke: #000000; stroke-width: 0.8"/>
      </g>
     </g>
     <g id="text_30">
      <!-- 2023-11-19 -->
      <g transform="translate(692.971142 176.307) scale(0.1 -0.1)">
       <use xlink:href="#SimHei-32"/>
       <use xlink:href="#SimHei-30" x="50"/>
       <use xlink:href="#SimHei-32" x="100"/>
       <use xlink:href="#SimHei-33" x="150"/>
       <use xlink:href="#SimHei-2d" x="200"/>
       <use xlink:href="#SimHei-31" x="250"/>
       <use xlink:href="#SimHei-31" x="300"/>
       <use xlink:href="#SimHei-2d" x="350"/>
       <use xlink:href="#SimHei-31" x="400"/>
       <use xlink:href="#SimHei-39" x="450"/>
      </g>
     </g>
    </g>
    <g id="xtick_9">
     <g id="line2d_42">
      <g>
       <use xlink:href="#mddfad28f7f" x="781.913083" y="162.432" style="stroke: #000000; stroke-width: 0.8"/>
      </g>
     </g>
     <g id="text_31">
      <!-- 2024-01-18 -->
      <g transform="translate(756.913083 176.307) scale(0.1 -0.1)">
       <use xlink:href="#SimHei-32"/>
       <use xlink:href="#SimHei-30" x="50"/>
       <use xlink:href="#SimHei-32" x="100"/>
       <use xlink:href="#SimHei-34" x="150"/>
       <use xlink:href="#SimHei-2d" x="200"/>
       <use xlink:href="#SimHei-30" x="250"/>
       <use xlink:href="#SimHei-31" x="300"/>
       <use xlink:href="#SimHei-2d" x="350"/>
       <use xlink:href="#SimHei-31" x="400"/>
       <use xlink:href="#SimHei-38" x="450"/>
      </g>
     </g>
    </g>
   </g>
   <g id="matplotlib.axis_6">
    <g id="ytick_12">
     <g id="line2d_43">
      <g>
       <use xlink:href="#m93c330698f" x="597.760294" y="155.376" style="stroke: #000000; stroke-width: 0.8"/>
      </g>
     </g>
     <g id="text_32">
      <!-- 0.0000 -->
      <g transform="translate(560.760294 158.8135) scale(0.1 -0.1)">
       <use xlink:href="#SimHei-30"/>
       <use xlink:href="#SimHei-2e" x="50"/>
       <use xlink:href="#SimHei-30" x="100"/>
       <use xlink:href="#SimHei-30" x="150"/>
       <use xlink:href="#SimHei-30" x="200"/>
       <use xlink:href="#SimHei-30" x="250"/>
      </g>
     </g>
    </g>
    <g id="ytick_13">
     <g id="line2d_44">
      <g>
       <use xlink:href="#m93c330698f" x="597.760294" y="127.152" style="stroke: #000000; stroke-width: 0.8"/>
      </g>
     </g>
     <g id="text_33">
      <!-- 0.0005 -->
      <g transform="translate(560.760294 130.5895) scale(0.1 -0.1)">
       <defs>
        <path id="SimHei-35" d="M 550 1325 
Q 725 650 1150 575 
Q 1575 500 1837 662 
Q 2100 825 2212 1087 
Q 2325 1350 2312 1675 
Q 2300 2000 2137 2225 
Q 1975 2450 1725 2525 
Q 1475 2600 1162 2525 
Q 850 2450 650 2175 
L 225 2225 
Q 275 2375 700 4375 
L 2675 4375 
L 2675 3925 
L 1075 3925 
Q 950 3250 825 2850 
Q 1200 3025 1525 3012 
Q 1850 3000 2150 2862 
Q 2450 2725 2587 2487 
Q 2725 2250 2787 2012 
Q 2850 1775 2837 1500 
Q 2825 1225 2725 937 
Q 2625 650 2425 462 
Q 2225 275 1937 162 
Q 1650 50 1275 75 
Q 900 100 562 350 
Q 225 600 100 1200 
L 550 1325 
z
" transform="scale(0.015625)"/>
       </defs>
       <use xlink:href="#SimHei-30"/>
       <use xlink:href="#SimHei-2e" x="50"/>
       <use xlink:href="#SimHei-30" x="100"/>
       <use xlink:href="#SimHei-30" x="150"/>
       <use xlink:href="#SimHei-30" x="200"/>
       <use xlink:href="#SimHei-35" x="250"/>
      </g>
     </g>
    </g>
    <g id="ytick_14">
     <g id="line2d_45">
      <g>
       <use xlink:href="#m93c330698f" x="597.760294" y="98.928" style="stroke: #000000; stroke-width: 0.8"/>
      </g>
     </g>
     <g id="text_34">
      <!-- 0.0010 -->
      <g transform="translate(560.760294 102.3655) scale(0.1 -0.1)">
       <use xlink:href="#SimHei-30"/>
       <use xlink:href="#SimHei-2e" x="50"/>
       <use xlink:href="#SimHei-30" x="100"/>
       <use xlink:href="#SimHei-30" x="150"/>
       <use xlink:href="#SimHei-31" x="200"/>
       <use xlink:href="#SimHei-30" x="250"/>
      </g>
     </g>
    </g>
    <g id="ytick_15">
     <g id="line2d_46">
      <g>
       <use xlink:href="#m93c330698f" x="597.760294" y="70.704" style="stroke: #000000; stroke-width: 0.8"/>
      </g>
     </g>
     <g id="text_35">
      <!-- 0.0015 -->
      <g transform="translate(560.760294 74.1415) scale(0.1 -0.1)">
       <use xlink:href="#SimHei-30"/>
       <use xlink:href="#SimHei-2e" x="50"/>
       <use xlink:href="#SimHei-30" x="100"/>
       <use xlink:href="#SimHei-30" x="150"/>
       <use xlink:href="#SimHei-31" x="200"/>
       <use xlink:href="#SimHei-35" x="250"/>
      </g>
     </g>
    </g>
    <g id="ytick_16">
     <g id="line2d_47">
      <g>
       <use xlink:href="#m93c330698f" x="597.760294" y="42.48" style="stroke: #000000; stroke-width: 0.8"/>
      </g>
     </g>
     <g id="text_36">
      <!-- 0.0020 -->
      <g transform="translate(560.760294 45.9175) scale(0.1 -0.1)">
       <use xlink:href="#SimHei-30"/>
       <use xlink:href="#SimHei-2e" x="50"/>
       <use xlink:href="#SimHei-30" x="100"/>
       <use xlink:href="#SimHei-30" x="150"/>
       <use xlink:href="#SimHei-32" x="200"/>
       <use xlink:href="#SimHei-30" x="250"/>
      </g>
     </g>
    </g>
    <g id="ytick_17">
     <g id="line2d_48">
      <g>
       <use xlink:href="#m93c330698f" x="597.760294" y="14.256" style="stroke: #000000; stroke-width: 0.8"/>
      </g>
     </g>
     <g id="text_37">
      <!-- 0.0025 -->
      <g transform="translate(560.760294 17.6935) scale(0.1 -0.1)">
       <use xlink:href="#SimHei-30"/>
       <use xlink:href="#SimHei-2e" x="50"/>
       <use xlink:href="#SimHei-30" x="100"/>
       <use xlink:href="#SimHei-30" x="150"/>
       <use xlink:href="#SimHei-32" x="200"/>
       <use xlink:href="#SimHei-35" x="250"/>
      </g>
     </g>
    </g>
   </g>
   <g id="line2d_49">
    <path d="M 608.204144 14.256 
L 609.269843 153.54544 
L 610.335542 153.715226 
L 611.401241 154.512829 
L 614.598338 154.250349 
L 615.664037 141.927026 
L 616.729736 112.3834 
L 617.795435 148.795863 
L 618.861134 154.202983 
L 623.12393 153.714463 
L 624.189629 153.239188 
L 625.255328 154.187835 
L 626.321028 154.374627 
L 629.518125 154.313311 
L 630.583824 153.54686 
L 631.649523 125.801593 
L 632.715222 126.849064 
L 633.780921 153.673124 
L 636.978018 149.496347 
L 638.043717 149.914414 
L 639.109416 153.843166 
L 640.175115 154.211701 
L 641.240814 154.233756 
L 644.437911 125.88572 
L 645.50361 126.78132 
L 646.569309 153.851158 
L 647.635008 153.712106 
L 648.700707 125.788905 
L 651.897804 125.584485 
L 652.963503 154.309998 
L 654.029202 154.236873 
L 655.094901 154.556131 
L 656.1606 153.640578 
L 659.357697 154.502936 
L 660.423396 154.091847 
L 661.489095 154.592191 
L 662.554794 153.669013 
L 674.277483 153.225747 
L 675.343182 149.600378 
L 676.408881 153.89322 
L 677.47458 154.166249 
L 678.540279 153.399759 
L 681.737376 153.811377 
L 682.803075 154.234509 
L 683.868774 153.804097 
L 684.934473 153.827661 
L 686.000172 149.739358 
L 689.197269 152.988113 
L 690.262968 154.261715 
L 691.328667 147.854712 
L 692.394366 154.175837 
L 693.460065 152.579471 
L 696.657162 153.069333 
L 697.722861 153.960774 
L 698.78856 153.919913 
L 699.854259 154.460629 
L 700.919958 154.181105 
L 704.117055 153.510471 
L 705.182754 154.682899 
L 706.248453 153.741999 
L 707.314152 154.49638 
L 708.379851 153.856724 
L 711.576948 150.733616 
L 712.642647 153.025319 
L 713.708346 150.797128 
L 714.774045 149.076532 
L 715.839744 154.371162 
L 719.036841 152.966427 
L 720.10254 153.970167 
L 721.168239 154.439145 
L 722.233938 154.195011 
L 723.299637 154.463306 
L 726.496734 154.111291 
L 727.562433 152.910938 
L 728.628132 152.949291 
L 729.693831 152.243165 
L 730.75953 153.268886 
L 733.956627 154.11009 
L 735.022326 152.935293 
L 736.088025 154.434052 
L 737.153724 154.002606 
L 741.41652 154.505207 
L 742.482219 153.431519 
L 743.547918 153.236797 
L 744.613617 151.817115 
L 745.679316 154.522789 
L 748.876413 153.668231 
L 749.942112 153.915299 
L 751.007811 152.588271 
L 752.07351 153.78548 
L 753.139209 153.562222 
L 756.336306 154.646792 
L 757.402005 154.27254 
L 759.533403 153.135427 
L 760.599102 154.264107 
L 765.927597 153.752667 
L 766.993296 154.312402 
L 768.058995 153.733186 
L 771.256092 154.462558 
L 772.321791 153.388046 
L 773.38749 154.641256 
L 774.453189 152.284648 
L 775.518888 153.804174 
L 778.715985 154.21698 
L 779.781684 154.006432 
L 780.847383 154.527385 
L 781.913083 153.583723 
L 782.978782 153.040378 
L 786.175879 124.577195 
L 787.241578 154.119271 
L 788.307277 151.530672 
L 789.372976 153.382245 
L 790.438675 151.136131 
L 793.635772 152.877205 
L 794.701471 153.836797 
L 795.76717 151.262132 
L 796.832869 152.417657 
L 797.898568 153.863052 
L 801.095665 152.585669 
L 802.161364 150.035824 
L 803.227063 122.531956 
L 804.292762 120.210153 
L 816.015451 154.310933 
L 817.08115 155.376 
L 817.08115 155.376 
" clip-path="url(#p26a142c424)" style="fill: none; stroke: #1f77b4; stroke-width: 1.5; stroke-linecap: square"/>
   </g>
   <g id="patch_14">
    <path d="M 597.760294 162.432 
L 597.760294 7.2 
" style="fill: none; stroke: #000000; stroke-width: 0.8; stroke-linejoin: miter; stroke-linecap: square"/>
   </g>
   <g id="patch_15">
    <path d="M 827.525 162.432 
L 827.525 7.2 
" style="fill: none; stroke: #000000; stroke-width: 0.8; stroke-linejoin: miter; stroke-linecap: square"/>
   </g>
   <g id="patch_16">
    <path d="M 597.760294 162.432 
L 827.525 162.432 
" style="fill: none; stroke: #000000; stroke-width: 0.8; stroke-linejoin: miter; stroke-linecap: square"/>
   </g>
   <g id="patch_17">
    <path d="M 597.760294 7.2 
L 827.525 7.2 
" style="fill: none; stroke: #000000; stroke-width: 0.8; stroke-linejoin: miter; stroke-linecap: square"/>
   </g>
  </g>
 </g>
 <defs>
  <clipPath id="p5c616c5f38">
   <rect x="46.325" y="7.2" width="229.764706" height="155.232"/>
  </clipPath>
  <clipPath id="pa0a513f566">
   <rect x="322.042647" y="7.2" width="229.764706" height="155.232"/>
  </clipPath>
  <clipPath id="p26a142c424">
   <rect x="597.760294" y="7.2" width="229.764706" height="155.232"/>
  </clipPath>
 </defs>
</svg>
