<?xml version="1.0" encoding="utf-8" standalone="no"?>
<!DOCTYPE svg PUBLIC "-//W3C//DTD SVG 1.1//EN"
  "http://www.w3.org/Graphics/SVG/1.1/DTD/svg11.dtd">
<svg xmlns:xlink="http://www.w3.org/1999/xlink" width="834.725pt" height="184.757pt" viewBox="0 0 834.725 184.757" xmlns="http://www.w3.org/2000/svg" version="1.1">
 <metadata>
  <rdf:RDF xmlns:dc="http://purl.org/dc/elements/1.1/" xmlns:cc="http://creativecommons.org/ns#" xmlns:rdf="http://www.w3.org/1999/02/22-rdf-syntax-ns#">
   <cc:Work>
    <dc:type rdf:resource="http://purl.org/dc/dcmitype/StillImage"/>
    <dc:date>2024-12-25T17:32:56.074079</dc:date>
    <dc:format>image/svg+xml</dc:format>
    <dc:creator>
     <cc:Agent>
      <dc:title>Matplotlib v3.9.3, https://matplotlib.org/</dc:title>
     </cc:Agent>
    </dc:creator>
   </cc:Work>
  </rdf:RDF>
 </metadata>
 <defs>
  <style type="text/css">*{stroke-linejoin: round; stroke-linecap: butt}</style>
 </defs>
 <g id="figure_1">
  <g id="patch_1">
   <path d="M 0 184.757 
L 834.725 184.757 
L 834.725 0 
L 0 0 
z
" style="fill: #ffffff"/>
  </g>
  <g id="axes_1">
   <g id="patch_2">
    <path d="M 46.325 162.432 
L 276.089706 162.432 
L 276.089706 7.2 
L 46.325 7.2 
z
" style="fill: #ffffff"/>
   </g>
   <g id="matplotlib.axis_1">
    <g id="xtick_1">
     <g id="line2d_1">
      <defs>
       <path id="m48f64030ef" d="M 0 0 
L 0 3.5 
" style="stroke: #000000; stroke-width: 0.8"/>
      </defs>
      <g>
       <use xlink:href="#m48f64030ef" x="102.593908" y="162.432" style="stroke: #000000; stroke-width: 0.8"/>
      </g>
     </g>
     <g id="text_1">
      <!-- 2023-09-20 -->
      <g transform="translate(77.593908 176.307) scale(0.1 -0.1)">
       <defs>
        <path id="SimHei-32" d="M 300 250 
Q 325 625 650 925 
Q 975 1225 1475 1862 
Q 1975 2500 2125 2850 
Q 2275 3200 2237 3450 
Q 2200 3700 2000 3862 
Q 1800 4025 1537 4000 
Q 1275 3975 1037 3800 
Q 800 3625 675 3275 
L 200 3350 
Q 400 3925 712 4187 
Q 1025 4450 1450 4475 
Q 1700 4500 1900 4462 
Q 2100 4425 2312 4287 
Q 2525 4150 2662 3875 
Q 2800 3600 2762 3212 
Q 2725 2825 2375 2287 
Q 2025 1750 1025 600 
L 2825 600 
L 2825 150 
L 300 150 
L 300 250 
z
" transform="scale(0.015625)"/>
        <path id="SimHei-30" d="M 225 2537 
Q 250 3200 412 3587 
Q 575 3975 875 4225 
Q 1175 4475 1612 4475 
Q 2050 4475 2375 4112 
Q 2700 3750 2800 3200 
Q 2900 2650 2862 1937 
Q 2825 1225 2612 775 
Q 2400 325 1975 150 
Q 1550 -25 1125 187 
Q 700 400 525 750 
Q 350 1100 275 1487 
Q 200 1875 225 2537 
z
M 750 2687 
Q 675 2000 800 1462 
Q 925 925 1212 700 
Q 1500 475 1800 612 
Q 2100 750 2237 1162 
Q 2375 1575 2375 2062 
Q 2375 2550 2337 2950 
Q 2300 3350 2112 3675 
Q 1925 4000 1612 4012 
Q 1300 4025 1062 3700 
Q 825 3375 750 2687 
z
" transform="scale(0.015625)"/>
        <path id="SimHei-33" d="M 250 1225 
L 700 1300 
Q 800 975 1025 762 
Q 1250 550 1587 562 
Q 1925 575 2125 837 
Q 2325 1100 2300 1437 
Q 2275 1775 2037 1962 
Q 1800 2150 1275 2225 
L 1275 2550 
Q 1800 2600 2037 2825 
Q 2275 3050 2250 3412 
Q 2225 3775 1925 3937 
Q 1625 4100 1287 3975 
Q 950 3850 750 3275 
L 300 3350 
Q 450 3800 712 4100 
Q 975 4400 1425 4450 
Q 1875 4500 2212 4337 
Q 2550 4175 2687 3837 
Q 2825 3500 2725 3100 
Q 2625 2700 2150 2400 
Q 2500 2250 2687 1950 
Q 2875 1650 2812 1162 
Q 2750 675 2375 375 
Q 2000 75 1525 87 
Q 1050 100 700 387 
Q 350 675 250 1225 
z
" transform="scale(0.015625)"/>
        <path id="SimHei-2d" d="M 2975 2125 
L 125 2125 
L 125 2525 
L 2975 2525 
L 2975 2125 
z
" transform="scale(0.015625)"/>
        <path id="SimHei-39" d="M 800 75 
Q 1350 1000 1700 1750 
Q 1075 1650 662 1912 
Q 250 2175 162 2625 
Q 75 3075 175 3437 
Q 275 3800 487 4037 
Q 700 4275 1000 4375 
Q 1300 4475 1537 4475 
Q 1775 4475 2025 4375 
Q 2275 4275 2475 4075 
Q 2675 3875 2750 3662 
Q 2825 3450 2825 3112 
Q 2825 2775 2575 2250 
Q 2325 1725 1350 75 
L 800 75 
z
M 662 2875 
Q 700 2550 937 2337 
Q 1175 2125 1450 2150 
Q 1725 2175 1887 2300 
Q 2050 2425 2200 2725 
Q 2300 3100 2250 3362 
Q 2200 3625 1987 3800 
Q 1775 3975 1525 3975 
Q 1375 4000 1137 3900 
Q 900 3800 762 3500 
Q 625 3200 662 2875 
z
" transform="scale(0.015625)"/>
       </defs>
       <use xlink:href="#SimHei-32"/>
       <use xlink:href="#SimHei-30" x="50"/>
       <use xlink:href="#SimHei-32" x="100"/>
       <use xlink:href="#SimHei-33" x="150"/>
       <use xlink:href="#SimHei-2d" x="200"/>
       <use xlink:href="#SimHei-30" x="250"/>
       <use xlink:href="#SimHei-39" x="300"/>
       <use xlink:href="#SimHei-2d" x="350"/>
       <use xlink:href="#SimHei-32" x="400"/>
       <use xlink:href="#SimHei-30" x="450"/>
      </g>
     </g>
    </g>
    <g id="xtick_2">
     <g id="line2d_2">
      <g>
       <use xlink:href="#m48f64030ef" x="166.535848" y="162.432" style="stroke: #000000; stroke-width: 0.8"/>
      </g>
     </g>
     <g id="text_2">
      <!-- 2023-11-19 -->
      <g transform="translate(141.535848 176.307) scale(0.1 -0.1)">
       <defs>
        <path id="SimHei-31" d="M 1400 3600 
Q 1075 3275 575 2975 
L 575 3450 
Q 1200 3875 1600 4450 
L 1900 4450 
L 1900 150 
L 1400 150 
L 1400 3600 
z
" transform="scale(0.015625)"/>
       </defs>
       <use xlink:href="#SimHei-32"/>
       <use xlink:href="#SimHei-30" x="50"/>
       <use xlink:href="#SimHei-32" x="100"/>
       <use xlink:href="#SimHei-33" x="150"/>
       <use xlink:href="#SimHei-2d" x="200"/>
       <use xlink:href="#SimHei-31" x="250"/>
       <use xlink:href="#SimHei-31" x="300"/>
       <use xlink:href="#SimHei-2d" x="350"/>
       <use xlink:href="#SimHei-31" x="400"/>
       <use xlink:href="#SimHei-39" x="450"/>
      </g>
     </g>
    </g>
    <g id="xtick_3">
     <g id="line2d_3">
      <g>
       <use xlink:href="#m48f64030ef" x="230.477788" y="162.432" style="stroke: #000000; stroke-width: 0.8"/>
      </g>
     </g>
     <g id="text_3">
      <!-- 2024-01-18 -->
      <g transform="translate(205.477788 176.307) scale(0.1 -0.1)">
       <defs>
        <path id="SimHei-34" d="M 2000 1100 
L 75 1100 
L 75 1525 
L 2100 4450 
L 2475 4450 
L 2475 1525 
L 3075 1525 
L 3075 1100 
L 2475 1100 
L 2475 150 
L 2000 150 
L 2000 1100 
z
M 2000 1525 
L 2000 3500 
L 600 1525 
L 2000 1525 
z
" transform="scale(0.015625)"/>
        <path id="SimHei-38" d="M 175 1375 
Q 175 1675 325 1962 
Q 475 2250 825 2425 
Q 525 2600 425 2812 
Q 325 3025 312 3300 
Q 300 3575 387 3775 
Q 475 3975 650 4150 
Q 825 4325 1037 4387 
Q 1250 4450 1500 4450 
Q 1750 4450 1950 4400 
Q 2150 4350 2375 4187 
Q 2600 4025 2700 3725 
Q 2800 3425 2687 3025 
Q 2575 2625 2100 2400 
Q 2525 2275 2700 2012 
Q 2875 1750 2875 1375 
Q 2875 1000 2762 775 
Q 2650 550 2512 400 
Q 2375 250 2137 162 
Q 1900 75 1537 75 
Q 1175 75 912 162 
Q 650 250 475 425 
Q 300 600 237 837 
Q 175 1075 175 1375 
z
M 687 1400 
Q 675 1100 787 875 
Q 900 650 1200 587 
Q 1500 525 1825 600 
Q 2150 675 2275 950 
Q 2400 1225 2362 1500 
Q 2325 1775 2050 1962 
Q 1775 2150 1450 2125 
Q 1125 2100 912 1900 
Q 700 1700 687 1400 
z
M 775 3350 
Q 775 3100 950 2875 
Q 1125 2650 1500 2650 
Q 1875 2650 2062 2875 
Q 2250 3100 2237 3412 
Q 2225 3725 2012 3875 
Q 1800 4025 1437 4000 
Q 1075 3975 925 3787 
Q 775 3600 775 3350 
z
" transform="scale(0.015625)"/>
       </defs>
       <use xlink:href="#SimHei-32"/>
       <use xlink:href="#SimHei-30" x="50"/>
       <use xlink:href="#SimHei-32" x="100"/>
       <use xlink:href="#SimHei-34" x="150"/>
       <use xlink:href="#SimHei-2d" x="200"/>
       <use xlink:href="#SimHei-30" x="250"/>
       <use xlink:href="#SimHei-31" x="300"/>
       <use xlink:href="#SimHei-2d" x="350"/>
       <use xlink:href="#SimHei-31" x="400"/>
       <use xlink:href="#SimHei-38" x="450"/>
      </g>
     </g>
    </g>
   </g>
   <g id="matplotlib.axis_2">
    <g id="ytick_1">
     <g id="line2d_4">
      <defs>
       <path id="m4f337b1731" d="M 0 0 
L -3.5 0 
" style="stroke: #000000; stroke-width: 0.8"/>
      </defs>
      <g>
       <use xlink:href="#m4f337b1731" x="46.325" y="157.192454" style="stroke: #000000; stroke-width: 0.8"/>
      </g>
     </g>
     <g id="text_4">
      <!-- 0.94 -->
      <g transform="translate(19.325 160.629954) scale(0.1 -0.1)">
       <defs>
        <path id="SimHei-2e" d="M 1075 125 
L 500 125 
L 500 675 
L 1075 675 
L 1075 125 
z
" transform="scale(0.015625)"/>
       </defs>
       <use xlink:href="#SimHei-30"/>
       <use xlink:href="#SimHei-2e" x="50"/>
       <use xlink:href="#SimHei-39" x="100"/>
       <use xlink:href="#SimHei-34" x="150"/>
      </g>
     </g>
    </g>
    <g id="ytick_2">
     <g id="line2d_5">
      <g>
       <use xlink:href="#m4f337b1731" x="46.325" y="130.319792" style="stroke: #000000; stroke-width: 0.8"/>
      </g>
     </g>
     <g id="text_5">
      <!-- 0.96 -->
      <g transform="translate(19.325 133.757292) scale(0.1 -0.1)">
       <defs>
        <path id="SimHei-36" d="M 250 1612 
Q 275 1975 387 2225 
Q 500 2475 725 2850 
L 1750 4450 
L 2325 4450 
L 1275 2800 
Q 1950 2975 2350 2750 
Q 2750 2525 2887 2237 
Q 3025 1950 3037 1612 
Q 3050 1275 2937 950 
Q 2825 625 2537 362 
Q 2250 100 1737 75 
Q 1225 50 862 262 
Q 500 475 362 862 
Q 225 1250 250 1612 
z
M 1025 787 
Q 1250 550 1625 525 
Q 2000 500 2250 775 
Q 2500 1050 2500 1575 
Q 2500 2100 2187 2300 
Q 1875 2500 1487 2450 
Q 1100 2400 925 2075 
Q 750 1750 775 1387 
Q 800 1025 1025 787 
z
" transform="scale(0.015625)"/>
       </defs>
       <use xlink:href="#SimHei-30"/>
       <use xlink:href="#SimHei-2e" x="50"/>
       <use xlink:href="#SimHei-39" x="100"/>
       <use xlink:href="#SimHei-36" x="150"/>
      </g>
     </g>
    </g>
    <g id="ytick_3">
     <g id="line2d_6">
      <g>
       <use xlink:href="#m4f337b1731" x="46.325" y="103.44713" style="stroke: #000000; stroke-width: 0.8"/>
      </g>
     </g>
     <g id="text_6">
      <!-- 0.98 -->
      <g transform="translate(19.325 106.88463) scale(0.1 -0.1)">
       <use xlink:href="#SimHei-30"/>
       <use xlink:href="#SimHei-2e" x="50"/>
       <use xlink:href="#SimHei-39" x="100"/>
       <use xlink:href="#SimHei-38" x="150"/>
      </g>
     </g>
    </g>
    <g id="ytick_4">
     <g id="line2d_7">
      <g>
       <use xlink:href="#m4f337b1731" x="46.325" y="76.574468" style="stroke: #000000; stroke-width: 0.8"/>
      </g>
     </g>
     <g id="text_7">
      <!-- 1.00 -->
      <g transform="translate(19.325 80.011968) scale(0.1 -0.1)">
       <use xlink:href="#SimHei-31"/>
       <use xlink:href="#SimHei-2e" x="50"/>
       <use xlink:href="#SimHei-30" x="100"/>
       <use xlink:href="#SimHei-30" x="150"/>
      </g>
     </g>
    </g>
    <g id="ytick_5">
     <g id="line2d_8">
      <g>
       <use xlink:href="#m4f337b1731" x="46.325" y="49.701806" style="stroke: #000000; stroke-width: 0.8"/>
      </g>
     </g>
     <g id="text_8">
      <!-- 1.02 -->
      <g transform="translate(19.325 53.139306) scale(0.1 -0.1)">
       <use xlink:href="#SimHei-31"/>
       <use xlink:href="#SimHei-2e" x="50"/>
       <use xlink:href="#SimHei-30" x="100"/>
       <use xlink:href="#SimHei-32" x="150"/>
      </g>
     </g>
    </g>
    <g id="ytick_6">
     <g id="line2d_9">
      <g>
       <use xlink:href="#m4f337b1731" x="46.325" y="22.829144" style="stroke: #000000; stroke-width: 0.8"/>
      </g>
     </g>
     <g id="text_9">
      <!-- 1.04 -->
      <g transform="translate(19.325 26.266644) scale(0.1 -0.1)">
       <use xlink:href="#SimHei-31"/>
       <use xlink:href="#SimHei-2e" x="50"/>
       <use xlink:href="#SimHei-30" x="100"/>
       <use xlink:href="#SimHei-34" x="150"/>
      </g>
     </g>
    </g>
    <g id="text_10">
     <!-- MV-MinRisk -->
     <g transform="translate(14.075 109.816) rotate(-90) scale(0.1 -0.1)">
      <defs>
       <path id="SimHei-4d" d="M 2925 125 
L 2425 125 
L 2425 3175 
L 2375 3175 
L 1775 125 
L 1375 125 
L 775 3175 
L 725 3175 
L 725 125 
L 225 125 
L 225 4400 
L 1000 4400 
L 1550 1575 
L 1600 1575 
L 2150 4400 
L 2925 4400 
L 2925 125 
z
" transform="scale(0.015625)"/>
       <path id="SimHei-56" d="M 3050 4400 
L 1800 75 
L 1300 75 
L 50 4400 
L 650 4400 
L 1525 1125 
L 1575 1125 
L 2450 4400 
L 3050 4400 
z
" transform="scale(0.015625)"/>
       <path id="SimHei-69" d="M 1800 3725 
L 1300 3725 
L 1300 4375 
L 1800 4375 
L 1800 3725 
z
M 1800 125 
L 1300 125 
L 1300 2925 
L 1800 2925 
L 1800 125 
z
" transform="scale(0.015625)"/>
       <path id="SimHei-6e" d="M 2800 125 
L 2300 125 
L 2300 1925 
Q 2300 2225 2150 2400 
Q 2000 2575 1750 2575 
Q 1425 2575 1137 2237 
Q 850 1900 850 1400 
L 850 125 
L 350 125 
L 350 2925 
L 850 2925 
L 850 2400 
Q 1050 2675 1287 2825 
Q 1525 2975 1900 2975 
Q 2350 2975 2575 2725 
Q 2800 2475 2800 2100 
L 2800 125 
z
" transform="scale(0.015625)"/>
       <path id="SimHei-52" d="M 3000 125 
L 2400 125 
L 1500 1975 
L 850 1975 
L 850 125 
L 275 125 
L 275 4400 
L 1525 4400 
Q 2125 4400 2500 4112 
Q 2875 3825 2875 3175 
Q 2875 2675 2625 2400 
Q 2375 2125 2050 2050 
L 3000 125 
z
M 2300 3175 
Q 2300 3525 2087 3725 
Q 1875 3925 1400 3925 
L 850 3925 
L 850 2450 
L 1550 2450 
Q 1850 2450 2075 2612 
Q 2300 2775 2300 3175 
z
" transform="scale(0.015625)"/>
       <path id="SimHei-73" d="M 2750 900 
Q 2750 500 2437 287 
Q 2125 75 1650 75 
Q 1050 75 725 312 
Q 400 550 400 1000 
L 900 1000 
Q 900 700 1112 600 
Q 1325 500 1625 500 
Q 1925 500 2075 612 
Q 2225 725 2225 900 
Q 2225 1025 2100 1150 
Q 1975 1275 1475 1350 
Q 900 1425 687 1637 
Q 475 1850 475 2200 
Q 475 2500 762 2737 
Q 1050 2975 1600 2975 
Q 2100 2975 2387 2750 
Q 2675 2525 2675 2150 
L 2175 2150 
Q 2175 2375 2012 2462 
Q 1850 2550 1600 2550 
Q 1275 2550 1137 2437 
Q 1000 2325 1000 2175 
Q 1000 2000 1125 1900 
Q 1250 1800 1650 1750 
Q 2300 1650 2525 1437 
Q 2750 1225 2750 900 
z
" transform="scale(0.015625)"/>
       <path id="SimHei-6b" d="M 2925 125 
L 2350 125 
L 1450 1650 
L 875 1100 
L 875 125 
L 375 125 
L 375 4400 
L 875 4400 
L 875 1675 
L 2125 2925 
L 2750 2925 
L 1775 1975 
L 2925 125 
z
" transform="scale(0.015625)"/>
      </defs>
      <use xlink:href="#SimHei-4d"/>
      <use xlink:href="#SimHei-56" x="50"/>
      <use xlink:href="#SimHei-2d" x="100"/>
      <use xlink:href="#SimHei-4d" x="150"/>
      <use xlink:href="#SimHei-69" x="200"/>
      <use xlink:href="#SimHei-6e" x="250"/>
      <use xlink:href="#SimHei-52" x="300"/>
      <use xlink:href="#SimHei-69" x="350"/>
      <use xlink:href="#SimHei-73" x="400"/>
      <use xlink:href="#SimHei-6b" x="450"/>
     </g>
    </g>
   </g>
   <g id="line2d_10">
    <path d="M 56.76885 79.93355 
L 57.834549 85.116375 
L 58.900248 76.335005 
L 59.965947 104.092152 
L 63.163044 108.091533 
L 64.228743 102.126317 
L 65.294442 113.923838 
L 66.360141 107.270514 
L 67.42584 117.042903 
L 70.622937 135.874195 
L 71.688636 125.292632 
L 72.754335 139.402118 
L 73.820034 142.195656 
L 74.885733 134.741396 
L 78.08283 131.160045 
L 79.148529 126.54244 
L 80.214228 124.418685 
L 81.279927 121.087813 
L 82.345626 130.704971 
L 85.542723 123.481047 
L 86.608422 120.749447 
L 87.674121 124.388723 
L 88.73982 134.553823 
L 89.805519 134.580373 
L 93.002617 124.201044 
L 94.068316 122.320933 
L 95.134015 125.611771 
L 96.199714 110.745353 
L 97.265413 118.055399 
L 100.46251 125.705858 
L 101.528209 123.575945 
L 102.593908 129.312636 
L 103.659607 138.645077 
L 104.725306 124.244537 
L 107.922403 125.298179 
L 108.988102 134.269414 
L 110.053801 144.330584 
L 111.1195 136.734935 
L 122.842189 124.93623 
L 123.907888 124.582349 
L 124.973587 125.182371 
L 126.039286 113.647448 
L 127.104985 118.610476 
L 130.302082 121.058864 
L 131.367781 111.944197 
L 132.43348 114.318282 
L 133.499179 131.929151 
L 134.564878 144.504287 
L 137.761975 155.376 
L 138.827674 141.155986 
L 139.893373 150.56005 
L 140.959072 133.646532 
L 142.024771 124.436007 
L 145.221868 118.759525 
L 147.353266 111.274656 
L 148.418965 109.499059 
L 149.484664 109.821418 
L 152.681761 120.272347 
L 153.74746 121.132635 
L 154.813159 120.880303 
L 155.878858 113.636001 
L 156.944557 117.109973 
L 160.141654 121.323428 
L 161.207353 126.916375 
L 162.273052 112.7831 
L 163.338751 114.798471 
L 164.40445 115.553807 
L 167.601547 109.182153 
L 168.667246 110.468153 
L 169.732945 117.376516 
L 170.798644 112.417334 
L 171.864343 115.732381 
L 175.06144 115.333117 
L 176.127139 118.905721 
L 177.192838 125.999801 
L 178.258537 115.881761 
L 179.324236 127.504958 
L 182.521333 127.863813 
L 183.587032 142.264728 
L 184.652731 146.90991 
L 185.71843 148.881475 
L 186.784129 146.232082 
L 189.981226 137.759631 
L 191.046925 130.886486 
L 192.112624 136.099375 
L 193.178323 138.158831 
L 194.244022 150.659732 
L 197.441119 144.489566 
L 198.506818 139.36394 
L 199.572517 138.797124 
L 200.638216 136.222375 
L 201.703915 134.330272 
L 204.901012 125.054484 
L 205.966711 127.011488 
L 207.03241 123.215863 
L 208.098109 121.4361 
L 209.163808 114.395491 
L 213.426604 109.282904 
L 214.492303 103.419781 
L 215.558002 105.727155 
L 216.623701 108.917298 
L 219.820798 122.808551 
L 220.886497 119.703577 
L 221.952196 129.122747 
L 223.017895 134.833289 
L 224.083594 123.305515 
L 227.280691 116.093972 
L 228.34639 106.337285 
L 229.412089 126.588372 
L 230.477788 118.261992 
L 231.543487 117.495955 
L 234.740584 135.263778 
L 235.806283 136.470576 
L 236.871982 107.69514 
L 237.937681 88.679484 
L 239.00338 85.673041 
L 242.200477 77.536588 
L 243.266176 98.553109 
L 244.331875 95.62626 
L 245.397574 100.738489 
L 246.463273 104.522104 
L 249.660371 84.39389 
L 250.72607 60.841221 
L 251.791769 56.742798 
L 252.857468 53.616536 
L 264.580157 27.808288 
L 265.645856 14.256 
L 265.645856 14.256 
" clip-path="url(#pd6b2ec0d41)" style="fill: none; stroke: #1f77b4; stroke-width: 1.5; stroke-linecap: square"/>
   </g>
   <g id="patch_3">
    <path d="M 46.325 162.432 
L 46.325 7.2 
" style="fill: none; stroke: #000000; stroke-width: 0.8; stroke-linejoin: miter; stroke-linecap: square"/>
   </g>
   <g id="patch_4">
    <path d="M 276.089706 162.432 
L 276.089706 7.2 
" style="fill: none; stroke: #000000; stroke-width: 0.8; stroke-linejoin: miter; stroke-linecap: square"/>
   </g>
   <g id="patch_5">
    <path d="M 46.325 162.432 
L 276.089706 162.432 
" style="fill: none; stroke: #000000; stroke-width: 0.8; stroke-linejoin: miter; stroke-linecap: square"/>
   </g>
   <g id="patch_6">
    <path d="M 46.325 7.2 
L 276.089706 7.2 
" style="fill: none; stroke: #000000; stroke-width: 0.8; stroke-linejoin: miter; stroke-linecap: square"/>
   </g>
  </g>
  <g id="axes_2">
   <g id="patch_7">
    <path d="M 322.042647 162.432 
L 551.807353 162.432 
L 551.807353 7.2 
L 322.042647 7.2 
z
" style="fill: #ffffff"/>
   </g>
   <g id="matplotlib.axis_3">
    <g id="xtick_4">
     <g id="line2d_11">
      <g>
       <use xlink:href="#m48f64030ef" x="379.377254" y="162.432" style="stroke: #000000; stroke-width: 0.8"/>
      </g>
     </g>
     <g id="text_11">
      <!-- 2023-09-20 -->
      <g transform="translate(354.377254 176.307) scale(0.1 -0.1)">
       <use xlink:href="#SimHei-32"/>
       <use xlink:href="#SimHei-30" x="50"/>
       <use xlink:href="#SimHei-32" x="100"/>
       <use xlink:href="#SimHei-33" x="150"/>
       <use xlink:href="#SimHei-2d" x="200"/>
       <use xlink:href="#SimHei-30" x="250"/>
       <use xlink:href="#SimHei-39" x="300"/>
       <use xlink:href="#SimHei-2d" x="350"/>
       <use xlink:href="#SimHei-32" x="400"/>
       <use xlink:href="#SimHei-30" x="450"/>
      </g>
     </g>
    </g>
    <g id="xtick_5">
     <g id="line2d_12">
      <g>
       <use xlink:href="#m48f64030ef" x="443.319194" y="162.432" style="stroke: #000000; stroke-width: 0.8"/>
      </g>
     </g>
     <g id="text_12">
      <!-- 2023-11-19 -->
      <g transform="translate(418.319194 176.307) scale(0.1 -0.1)">
       <use xlink:href="#SimHei-32"/>
       <use xlink:href="#SimHei-30" x="50"/>
       <use xlink:href="#SimHei-32" x="100"/>
       <use xlink:href="#SimHei-33" x="150"/>
       <use xlink:href="#SimHei-2d" x="200"/>
       <use xlink:href="#SimHei-31" x="250"/>
       <use xlink:href="#SimHei-31" x="300"/>
       <use xlink:href="#SimHei-2d" x="350"/>
       <use xlink:href="#SimHei-31" x="400"/>
       <use xlink:href="#SimHei-39" x="450"/>
      </g>
     </g>
    </g>
    <g id="xtick_6">
     <g id="line2d_13">
      <g>
       <use xlink:href="#m48f64030ef" x="507.261134" y="162.432" style="stroke: #000000; stroke-width: 0.8"/>
      </g>
     </g>
     <g id="text_13">
      <!-- 2024-01-18 -->
      <g transform="translate(482.261134 176.307) scale(0.1 -0.1)">
       <use xlink:href="#SimHei-32"/>
       <use xlink:href="#SimHei-30" x="50"/>
       <use xlink:href="#SimHei-32" x="100"/>
       <use xlink:href="#SimHei-34" x="150"/>
       <use xlink:href="#SimHei-2d" x="200"/>
       <use xlink:href="#SimHei-30" x="250"/>
       <use xlink:href="#SimHei-31" x="300"/>
       <use xlink:href="#SimHei-2d" x="350"/>
       <use xlink:href="#SimHei-31" x="400"/>
       <use xlink:href="#SimHei-38" x="450"/>
      </g>
     </g>
    </g>
   </g>
   <g id="matplotlib.axis_4">
    <g id="ytick_7">
     <g id="line2d_14">
      <g>
       <use xlink:href="#m4f337b1731" x="322.042647" y="155.376" style="stroke: #000000; stroke-width: 0.8"/>
      </g>
     </g>
     <g id="text_14">
      <!-- 0.0 -->
      <g transform="translate(300.042647 158.8135) scale(0.1 -0.1)">
       <use xlink:href="#SimHei-30"/>
       <use xlink:href="#SimHei-2e" x="50"/>
       <use xlink:href="#SimHei-30" x="100"/>
      </g>
     </g>
    </g>
    <g id="ytick_8">
     <g id="line2d_15">
      <g>
       <use xlink:href="#m4f337b1731" x="322.042647" y="127.152" style="stroke: #000000; stroke-width: 0.8"/>
      </g>
     </g>
     <g id="text_15">
      <!-- 0.2 -->
      <g transform="translate(300.042647 130.5895) scale(0.1 -0.1)">
       <use xlink:href="#SimHei-30"/>
       <use xlink:href="#SimHei-2e" x="50"/>
       <use xlink:href="#SimHei-32" x="100"/>
      </g>
     </g>
    </g>
    <g id="ytick_9">
     <g id="line2d_16">
      <g>
       <use xlink:href="#m4f337b1731" x="322.042647" y="98.928" style="stroke: #000000; stroke-width: 0.8"/>
      </g>
     </g>
     <g id="text_16">
      <!-- 0.4 -->
      <g transform="translate(300.042647 102.3655) scale(0.1 -0.1)">
       <use xlink:href="#SimHei-30"/>
       <use xlink:href="#SimHei-2e" x="50"/>
       <use xlink:href="#SimHei-34" x="100"/>
      </g>
     </g>
    </g>
    <g id="ytick_10">
     <g id="line2d_17">
      <g>
       <use xlink:href="#m4f337b1731" x="322.042647" y="70.704" style="stroke: #000000; stroke-width: 0.8"/>
      </g>
     </g>
     <g id="text_17">
      <!-- 0.6 -->
      <g transform="translate(300.042647 74.1415) scale(0.1 -0.1)">
       <use xlink:href="#SimHei-30"/>
       <use xlink:href="#SimHei-2e" x="50"/>
       <use xlink:href="#SimHei-36" x="100"/>
      </g>
     </g>
    </g>
    <g id="ytick_11">
     <g id="line2d_18">
      <g>
       <use xlink:href="#m4f337b1731" x="322.042647" y="42.48" style="stroke: #000000; stroke-width: 0.8"/>
      </g>
     </g>
     <g id="text_18">
      <!-- 0.8 -->
      <g transform="translate(300.042647 45.9175) scale(0.1 -0.1)">
       <use xlink:href="#SimHei-30"/>
       <use xlink:href="#SimHei-2e" x="50"/>
       <use xlink:href="#SimHei-38" x="100"/>
      </g>
     </g>
    </g>
    <g id="ytick_12">
     <g id="line2d_19">
      <g>
       <use xlink:href="#m4f337b1731" x="322.042647" y="14.256" style="stroke: #000000; stroke-width: 0.8"/>
      </g>
     </g>
     <g id="text_19">
      <!-- 1.0 -->
      <g transform="translate(300.042647 17.6935) scale(0.1 -0.1)">
       <use xlink:href="#SimHei-31"/>
       <use xlink:href="#SimHei-2e" x="50"/>
       <use xlink:href="#SimHei-30" x="100"/>
      </g>
     </g>
    </g>
   </g>
   <g id="line2d_20">
    <path d="M 332.486497 155.376 
L 333.552196 153.292192 
L 339.94639 153.006803 
L 341.012089 153.937506 
L 342.077788 153.926001 
L 343.143487 153.025738 
L 344.209186 153.015007 
L 347.406283 153.210082 
L 349.537681 152.313167 
L 351.669079 151.956228 
L 355.931875 151.787302 
L 356.997574 151.937651 
L 358.063273 151.629408 
L 362.32607 151.447078 
L 363.391769 150.856762 
L 364.457468 151.20017 
L 366.588866 151.005004 
L 369.785963 150.936344 
L 372.98306 151.149172 
L 374.048759 150.752628 
L 377.245856 150.390963 
L 378.311555 150.387269 
L 379.377254 150.208486 
L 380.442953 150.452261 
L 381.508652 150.399084 
L 384.705749 150.577748 
L 385.771448 150.816127 
L 386.837147 150.854336 
L 387.902846 150.108387 
L 399.625535 150.408149 
L 400.691234 149.193036 
L 401.756933 149.478964 
L 403.888331 149.516413 
L 407.085428 149.269728 
L 408.151127 148.994031 
L 409.216826 148.573883 
L 410.282525 148.465718 
L 411.348224 147.330436 
L 414.545321 147.414854 
L 415.61102 147.293906 
L 416.676719 147.390284 
L 417.742418 147.14486 
L 418.808117 145.58296 
L 422.005214 144.688172 
L 423.070913 144.118922 
L 424.136612 144.014141 
L 426.26801 144.094049 
L 429.465107 144.276688 
L 430.530806 144.456824 
L 431.596505 144.000699 
L 432.662204 143.847457 
L 433.727903 143.988621 
L 436.925 145.09405 
L 437.990699 143.774345 
L 439.056398 143.855548 
L 440.122097 142.413151 
L 441.187796 143.426577 
L 444.384893 143.702861 
L 445.450592 143.555072 
L 447.58199 143.527892 
L 448.647689 143.807067 
L 451.844786 143.792003 
L 452.910485 143.507318 
L 453.976184 144.551818 
L 455.041883 144.991326 
L 456.107582 144.990725 
L 459.304679 144.812526 
L 460.370378 146.328177 
L 461.436077 146.299161 
L 462.501776 145.974003 
L 463.567475 145.964118 
L 466.764572 146.098991 
L 468.89597 145.170002 
L 475.290164 145.315174 
L 476.355863 145.668168 
L 477.421562 145.607223 
L 478.487261 145.332019 
L 482.750057 145.303707 
L 484.881455 145.50358 
L 485.947154 145.51917 
L 490.20995 145.451452 
L 491.275649 145.578309 
L 492.341348 145.447983 
L 493.407047 145.675489 
L 497.669843 145.581069 
L 499.801241 145.894586 
L 500.86694 145.906207 
L 504.064037 145.759254 
L 505.129736 146.302165 
L 506.195435 146.301197 
L 507.261134 146.734496 
L 511.52393 146.207818 
L 512.589629 146.282034 
L 514.721028 145.996742 
L 515.786727 146.727031 
L 521.115222 146.693279 
L 522.180921 146.369684 
L 523.24662 146.394561 
L 526.443717 146.187669 
L 527.509416 146.399638 
L 528.575115 147.29749 
L 529.640814 146.598237 
L 541.363503 146.430143 
L 541.363503 146.430143 
" clip-path="url(#pa534d596dc)" style="fill: none; stroke: #1f77b4; stroke-width: 1.5; stroke-linecap: square"/>
   </g>
   <g id="line2d_21">
    <path d="M 332.486497 155.376 
L 439.056398 155.375989 
L 440.122097 154.95801 
L 441.187796 154.263143 
L 444.384893 154.164932 
L 445.450592 153.522546 
L 446.516291 153.58013 
L 447.58199 153.512969 
L 448.647689 153.290767 
L 451.844786 153.789718 
L 452.910485 152.535191 
L 455.041883 153.733655 
L 456.107582 153.805206 
L 459.304679 153.561393 
L 460.370378 153.741183 
L 461.436077 153.763101 
L 463.567475 154.210043 
L 466.764572 154.094828 
L 467.830271 154.464238 
L 468.89597 154.57151 
L 469.961669 154.21802 
L 471.027368 154.394473 
L 474.224465 154.718884 
L 475.290164 154.634815 
L 476.355863 153.593608 
L 477.421562 153.637744 
L 478.487261 153.871062 
L 481.684358 153.935355 
L 484.881455 153.388481 
L 485.947154 153.4658 
L 490.20995 153.336129 
L 491.275649 153.500275 
L 493.407047 153.240186 
L 497.669843 153.363814 
L 498.735542 152.775904 
L 499.801241 153.021245 
L 500.86694 152.92356 
L 504.064037 152.921265 
L 505.129736 152.372152 
L 506.195435 152.13419 
L 507.261134 151.709964 
L 508.326833 151.904134 
L 511.52393 151.556022 
L 512.589629 151.294375 
L 513.655328 151.619487 
L 514.721028 151.555737 
L 515.786727 152.344155 
L 518.983824 151.624819 
L 520.049523 151.099783 
L 521.115222 151.124879 
L 522.180921 150.797039 
L 523.24662 150.76137 
L 527.509416 151.336146 
L 528.575115 150.755255 
L 529.640814 151.481516 
L 541.363503 151.605733 
L 541.363503 151.605733 
" clip-path="url(#pa534d596dc)" style="fill: none; stroke: #ff7f0e; stroke-width: 1.5; stroke-linecap: square"/>
   </g>
   <g id="line2d_22">
    <path d="M 332.486497 155.376 
L 333.552196 146.981035 
L 336.749293 146.947156 
L 339.94639 146.914637 
L 341.012089 146.7295 
L 342.077788 146.778535 
L 343.143487 147.10839 
L 344.209186 147.16589 
L 347.406283 147.169551 
L 348.471982 146.614254 
L 350.60338 146.381397 
L 351.669079 146.537457 
L 356.997574 146.535669 
L 358.063273 146.417318 
L 363.391769 146.497507 
L 365.523167 146.32571 
L 366.588866 146.069241 
L 369.785963 146.384596 
L 379.377254 146.22044 
L 381.508652 146.313775 
L 386.837147 146.439999 
L 387.902846 146.691691 
L 399.625535 146.41762 
L 400.691234 146.873232 
L 401.756933 147.008721 
L 403.888331 146.924549 
L 408.151127 147.103393 
L 409.216826 147.444344 
L 410.282525 147.561669 
L 411.348224 147.407686 
L 414.545321 147.305237 
L 415.61102 147.460027 
L 416.676719 147.740503 
L 417.742418 147.883113 
L 425.202311 146.958316 
L 426.26801 147.030295 
L 429.465107 146.46072 
L 430.530806 146.495259 
L 431.596505 147.398876 
L 433.727903 147.734963 
L 436.925 148.25178 
L 437.990699 149.08129 
L 439.056398 149.122629 
L 440.122097 149.789812 
L 441.187796 149.783048 
L 444.384893 150.220134 
L 446.516291 149.932107 
L 448.647689 149.813635 
L 452.910485 149.311262 
L 453.976184 149.645097 
L 456.107582 149.407997 
L 461.436077 149.323584 
L 463.567475 149.544061 
L 466.764572 149.65414 
L 467.830271 149.937878 
L 471.027368 149.929458 
L 476.355863 150.272055 
L 478.487261 150.655192 
L 482.750057 150.610574 
L 484.881455 150.268681 
L 485.947154 150.501621 
L 490.20995 150.563988 
L 491.275649 150.887585 
L 492.341348 150.575866 
L 493.407047 150.642067 
L 496.604144 150.671405 
L 497.669843 150.56514 
L 498.735542 150.738313 
L 500.86694 150.492958 
L 505.129736 150.366046 
L 506.195435 150.196797 
L 507.261134 150.515554 
L 508.326833 150.052091 
L 512.589629 150.291879 
L 513.655328 150.007809 
L 515.786727 150.000571 
L 521.115222 149.50891 
L 522.180921 149.888199 
L 523.24662 149.871852 
L 526.443717 150.009547 
L 527.509416 150.297055 
L 528.575115 151.035576 
L 529.640814 150.787938 
L 541.363503 150.728965 
L 541.363503 150.728965 
" clip-path="url(#pa534d596dc)" style="fill: none; stroke: #2ca02c; stroke-width: 1.5; stroke-linecap: square"/>
   </g>
   <g id="line2d_23">
    <path d="M 332.486497 155.376 
L 333.552196 150.283351 
L 334.617895 149.666027 
L 336.749293 149.476632 
L 339.94639 149.823388 
L 341.012089 149.181282 
L 342.077788 149.171871 
L 343.143487 149.64555 
L 344.209186 149.355744 
L 347.406283 148.68254 
L 348.471982 149.268507 
L 349.537681 151.73035 
L 350.60338 150.930591 
L 351.669079 151.157841 
L 356.997574 150.984029 
L 358.063273 151.265228 
L 359.128972 151.316192 
L 363.391769 151.372352 
L 364.457468 151.517874 
L 365.523167 151.547822 
L 366.588866 152.018918 
L 370.851662 151.976303 
L 371.917361 152.159865 
L 374.048759 152.025508 
L 377.245856 151.442237 
L 379.377254 151.320459 
L 380.442953 151.020634 
L 381.508652 151.031794 
L 384.705749 150.873546 
L 386.837147 151.001354 
L 387.902846 150.961019 
L 399.625535 150.752513 
L 400.691234 151.501673 
L 401.756933 150.79566 
L 402.822632 150.867626 
L 403.888331 150.814583 
L 408.151127 150.967451 
L 409.216826 151.130338 
L 410.282525 151.089376 
L 411.348224 150.607879 
L 414.545321 150.426464 
L 415.61102 150.63029 
L 416.676719 150.475992 
L 417.742418 150.910342 
L 418.808117 151.708133 
L 422.005214 152.412024 
L 424.136612 152.591325 
L 425.202311 152.396495 
L 430.530806 152.944012 
L 432.662204 152.324119 
L 433.727903 152.554368 
L 436.925 152.179393 
L 437.990699 152.821337 
L 439.056398 151.322845 
L 440.122097 148.21611 
L 441.187796 147.820106 
L 444.384893 147.467507 
L 445.450592 147.528249 
L 447.58199 147.253469 
L 448.647689 147.460916 
L 451.844786 147.843492 
L 452.910485 151.118183 
L 453.976184 149.928924 
L 455.041883 148.060229 
L 459.304679 148.016847 
L 460.370378 147.147857 
L 461.436077 147.167 
L 462.501776 147.68989 
L 463.567475 147.857912 
L 466.764572 147.889481 
L 467.830271 147.675988 
L 468.89597 148.307048 
L 469.961669 147.753285 
L 471.027368 147.804183 
L 474.224465 147.527391 
L 475.290164 147.138997 
L 476.355863 146.364173 
L 477.421562 146.499163 
L 478.487261 146.803668 
L 484.881455 147.041526 
L 485.947154 146.904165 
L 490.20995 147.131375 
L 491.275649 146.80857 
L 492.341348 147.578093 
L 493.407047 146.745567 
L 497.669843 146.637012 
L 498.735542 146.813116 
L 499.801241 147.208822 
L 500.86694 147.129632 
L 505.129736 147.05838 
L 507.261134 148.086078 
L 511.52393 147.948254 
L 512.589629 147.958439 
L 513.655328 147.13831 
L 514.721028 147.049395 
L 515.786727 147.21498 
L 520.049523 147.253467 
L 521.115222 144.389867 
L 522.180921 144.853542 
L 523.24662 144.818882 
L 526.443717 143.740148 
L 528.575115 144.344587 
L 529.640814 145.503979 
L 541.363503 145.498284 
L 541.363503 145.498284 
" clip-path="url(#pa534d596dc)" style="fill: none; stroke: #d62728; stroke-width: 1.5; stroke-linecap: square"/>
   </g>
   <g id="line2d_24">
    <path d="M 332.486497 155.376 
L 333.552196 148.357471 
L 334.617895 148.698626 
L 339.94639 148.87641 
L 342.077788 148.848763 
L 343.143487 148.630491 
L 344.209186 148.918948 
L 347.406283 149.437887 
L 348.471982 149.336139 
L 349.537681 148.412462 
L 350.60338 148.836559 
L 351.669079 148.632505 
L 354.866176 148.597914 
L 355.931875 148.285981 
L 358.063273 148.20566 
L 359.128972 148.095313 
L 362.32607 148.018867 
L 364.457468 147.57342 
L 366.588866 147.628803 
L 369.785963 147.29604 
L 374.048759 147.436549 
L 377.245856 147.562811 
L 378.311555 147.803155 
L 381.508652 147.638513 
L 384.705749 147.703119 
L 385.771448 147.545875 
L 386.837147 147.629109 
L 387.902846 147.925567 
L 399.625535 148.188435 
L 400.691234 147.409373 
L 403.888331 147.378743 
L 407.085428 147.354134 
L 408.151127 147.46297 
L 409.216826 148.192315 
L 410.282525 148.032318 
L 411.348224 149.242581 
L 414.545321 149.686169 
L 415.61102 149.493465 
L 416.676719 149.615833 
L 417.742418 149.30772 
L 418.808117 148.848872 
L 422.005214 148.41524 
L 423.070913 148.816544 
L 424.136612 148.659534 
L 425.202311 148.756583 
L 426.26801 148.546014 
L 429.465107 148.057235 
L 430.530806 147.711678 
L 431.596505 145.775453 
L 432.662204 145.88533 
L 433.727903 145.382819 
L 440.122097 147.067907 
L 444.384893 146.994076 
L 445.450592 145.91556 
L 447.58199 146.416301 
L 448.647689 146.300627 
L 451.844786 146.45133 
L 452.910485 145.415092 
L 453.976184 144.223487 
L 455.041883 145.957148 
L 456.107582 146.035498 
L 459.304679 146.032232 
L 460.370378 146.481011 
L 461.436077 146.447578 
L 463.567475 146.042102 
L 466.764572 145.985162 
L 468.89597 146.509587 
L 469.961669 146.363351 
L 471.027368 146.891375 
L 476.355863 147.135353 
L 477.421562 146.880372 
L 478.487261 147.411822 
L 482.750057 147.340581 
L 483.815756 147.964412 
L 485.947154 148.213707 
L 490.20995 147.964821 
L 492.341348 147.565556 
L 493.407047 147.837255 
L 498.735542 147.951522 
L 504.064037 147.385184 
L 505.129736 147.656023 
L 506.195435 147.349051 
L 507.261134 147.431263 
L 508.326833 148.070277 
L 511.52393 148.049173 
L 512.589629 147.906552 
L 513.655328 148.657429 
L 514.721028 148.702502 
L 515.786727 149.093011 
L 518.983824 148.96996 
L 520.049523 148.759226 
L 521.115222 150.857365 
L 522.180921 150.972122 
L 523.24662 150.944714 
L 526.443717 151.738919 
L 527.509416 151.125298 
L 528.575115 148.962734 
L 529.640814 148.365715 
L 541.363503 148.505466 
L 541.363503 148.505466 
" clip-path="url(#pa534d596dc)" style="fill: none; stroke: #9467bd; stroke-width: 1.5; stroke-linecap: square"/>
   </g>
   <g id="line2d_25">
    <path d="M 332.486497 155.376 
L 333.552196 149.156137 
L 335.683594 149.130112 
L 339.94639 149.551001 
L 341.012089 149.750515 
L 344.209186 149.676072 
L 348.471982 149.787065 
L 349.537681 149.829979 
L 350.60338 150.204962 
L 351.669079 150.411442 
L 356.997574 150.225409 
L 358.063273 150.52274 
L 359.128972 150.567395 
L 362.32607 150.449423 
L 364.457468 150.708052 
L 366.588866 150.334661 
L 370.851662 150.266156 
L 371.917361 150.520994 
L 378.311555 150.544831 
L 380.442953 150.597951 
L 381.508652 150.494648 
L 384.705749 150.413431 
L 385.771448 150.148306 
L 386.837147 150.085854 
L 387.902846 150.189694 
L 407.085428 150.072602 
L 410.282525 149.240634 
L 411.348224 149.284612 
L 415.61102 149.319985 
L 416.676719 149.04063 
L 418.808117 149.357295 
L 422.005214 149.249609 
L 423.070913 149.658752 
L 424.136612 149.921904 
L 425.202311 149.950717 
L 426.26801 149.853254 
L 430.530806 150.032378 
L 431.596505 149.782526 
L 432.662204 149.840731 
L 433.727903 149.493798 
L 436.925 149.832757 
L 437.990699 148.939294 
L 440.122097 150.986021 
L 441.187796 150.888511 
L 444.384893 151.050302 
L 445.450592 151.76501 
L 446.516291 151.53102 
L 447.58199 151.524631 
L 448.647689 151.64895 
L 452.910485 151.312771 
L 453.976184 151.74554 
L 455.041883 150.530676 
L 456.107582 150.705341 
L 459.304679 150.640639 
L 460.370378 150.368201 
L 463.567475 150.371236 
L 466.764572 150.297026 
L 467.830271 150.478726 
L 468.89597 150.455121 
L 469.961669 150.687967 
L 471.027368 150.135716 
L 476.355863 150.215376 
L 477.421562 150.284522 
L 478.487261 149.667496 
L 482.750057 149.644134 
L 483.815756 149.998621 
L 485.947154 149.973794 
L 491.275649 150.104943 
L 493.407047 149.812754 
L 497.669843 149.948417 
L 498.735542 150.112934 
L 499.801241 150.104245 
L 500.86694 150.390293 
L 504.064037 150.343041 
L 505.129736 150.087282 
L 506.195435 150.507175 
L 507.261134 149.965395 
L 508.326833 150.77266 
L 512.589629 150.905518 
L 513.655328 151.712044 
L 514.721028 151.747045 
L 515.786727 150.725435 
L 518.983824 151.243923 
L 521.115222 151.273987 
L 522.180921 151.943907 
L 527.509416 151.885671 
L 528.575115 151.605714 
L 529.640814 152.223205 
L 541.363503 152.16274 
L 541.363503 152.16274 
" clip-path="url(#pa534d596dc)" style="fill: none; stroke: #8c564b; stroke-width: 1.5; stroke-linecap: square"/>
   </g>
   <g id="line2d_26">
    <path d="M 332.486497 155.376 
L 333.552196 131.111478 
L 334.617895 130.689922 
L 335.683594 130.624219 
L 336.749293 130.696389 
L 339.94639 130.567248 
L 341.012089 131.297893 
L 342.077788 131.362964 
L 344.209186 131.073752 
L 347.406283 130.424936 
L 348.471982 130.834994 
L 349.537681 130.618095 
L 351.669079 130.826496 
L 359.128972 131.342778 
L 362.32607 131.574055 
L 363.391769 132.026691 
L 364.457468 131.988876 
L 365.523167 132.254557 
L 366.588866 131.985659 
L 369.785963 132.779625 
L 370.851662 132.869925 
L 371.917361 132.32161 
L 372.98306 132.324741 
L 374.048759 133.09614 
L 377.245856 133.258651 
L 378.311555 132.704901 
L 379.377254 133.050706 
L 380.442953 132.977116 
L 381.508652 133.151302 
L 384.705749 133.213681 
L 385.771448 133.718864 
L 386.837147 133.70974 
L 387.902846 133.397054 
L 399.625535 133.017307 
L 400.691234 133.538946 
L 401.756933 133.37578 
L 407.085428 133.510933 
L 408.151127 133.880245 
L 409.216826 133.556626 
L 410.282525 133.747027 
L 411.348224 132.789415 
L 414.545321 132.027408 
L 415.61102 132.099867 
L 416.676719 132.459408 
L 418.808117 131.981684 
L 423.070913 132.52097 
L 424.136612 132.522209 
L 425.202311 132.740503 
L 426.26801 132.801283 
L 430.530806 132.944783 
L 431.596505 133.932196 
L 432.662204 134.018925 
L 433.727903 133.689915 
L 436.925 133.813044 
L 437.990699 132.74881 
L 439.056398 133.077942 
L 440.122097 130.852982 
L 441.187796 131.199758 
L 447.58199 131.750648 
L 448.647689 131.547773 
L 452.910485 131.029863 
L 453.976184 131.069215 
L 455.041883 133.012216 
L 456.107582 132.669624 
L 461.436077 132.668986 
L 462.501776 133.187597 
L 463.567475 132.999171 
L 466.764572 132.989097 
L 467.830271 133.279718 
L 471.027368 133.29263 
L 474.224465 133.011942 
L 475.290164 133.45312 
L 476.355863 134.146451 
L 478.487261 134.531052 
L 482.750057 134.679721 
L 483.815756 134.320835 
L 485.947154 133.961455 
L 490.20995 134.219235 
L 493.407047 134.793127 
L 497.669843 134.826965 
L 498.735542 134.927046 
L 499.801241 133.8968 
L 500.86694 134.198771 
L 504.064037 134.597971 
L 505.129736 134.258582 
L 506.195435 134.395224 
L 507.261134 133.947855 
L 508.326833 133.31376 
L 512.589629 133.795277 
L 513.655328 131.752988 
L 514.721028 132.063439 
L 515.786727 130.412955 
L 518.983824 131.001619 
L 520.049523 131.530811 
L 521.115222 131.853853 
L 522.180921 132.328262 
L 526.443717 132.417182 
L 527.509416 133.642429 
L 528.575115 134.562964 
L 529.640814 136.11506 
L 541.363503 136.186663 
L 541.363503 136.186663 
" clip-path="url(#pa534d596dc)" style="fill: none; stroke: #e377c2; stroke-width: 1.5; stroke-linecap: square"/>
   </g>
   <g id="line2d_27">
    <path d="M 332.486497 155.376 
L 333.552196 88.108567 
L 334.617895 89.277138 
L 335.683594 89.349163 
L 336.749293 89.154172 
L 339.94639 88.937185 
L 341.012089 88.49636 
L 342.077788 88.368825 
L 343.143487 88.564636 
L 344.209186 88.598848 
L 347.406283 88.308629 
L 348.471982 88.014277 
L 349.537681 87.137855 
L 350.60338 87.134774 
L 351.669079 86.768655 
L 354.866176 87.097263 
L 355.931875 87.521957 
L 356.997574 87.353517 
L 358.063273 87.060898 
L 359.128972 87.017597 
L 362.32607 87.090989 
L 363.391769 87.404431 
L 364.457468 86.847162 
L 365.523167 86.791206 
L 366.588866 87.404227 
L 369.785963 86.617441 
L 370.851662 86.54774 
L 371.917361 86.910357 
L 372.98306 86.931828 
L 374.048759 85.820153 
L 377.245856 86.352223 
L 379.377254 86.512827 
L 380.442953 87.018504 
L 381.508652 86.89754 
L 384.705749 86.946271 
L 385.771448 86.240445 
L 387.902846 86.266143 
L 399.625535 86.884204 
L 400.691234 87.118315 
L 401.756933 87.610367 
L 403.888331 87.599962 
L 407.085428 87.063269 
L 408.151127 86.704782 
L 409.216826 86.86482 
L 410.282525 87.144017 
L 411.348224 87.690215 
L 414.545321 87.8521 
L 415.61102 87.502431 
L 416.676719 86.836076 
L 417.742418 87.431809 
L 418.808117 89.063454 
L 422.005214 89.541458 
L 423.070913 89.320805 
L 424.136612 89.751456 
L 425.202311 89.775704 
L 426.26801 89.658628 
L 430.530806 90.17851 
L 431.596505 90.15939 
L 432.662204 89.941039 
L 433.727903 90.207829 
L 436.925 86.081759 
L 437.990699 85.905575 
L 439.056398 85.450182 
L 440.122097 89.607467 
L 441.187796 89.724565 
L 444.384893 88.414326 
L 445.450592 89.294528 
L 447.58199 89.132643 
L 448.647689 89.149711 
L 451.844786 89.053612 
L 452.910485 88.337926 
L 453.976184 87.886795 
L 455.041883 84.101833 
L 456.107582 84.252073 
L 461.436077 84.396533 
L 462.501776 83.723921 
L 463.567475 83.983323 
L 466.764572 83.98953 
L 467.830271 83.318823 
L 468.89597 83.372537 
L 469.961669 84.313191 
L 471.027368 84.0593 
L 475.290164 84.119491 
L 476.355863 85.549415 
L 477.421562 85.272186 
L 478.487261 84.579541 
L 482.750057 84.459405 
L 483.815756 84.513598 
L 485.947154 84.320258 
L 490.20995 84.174938 
L 491.275649 83.505418 
L 492.341348 83.378661 
L 493.407047 83.772925 
L 496.604144 83.725323 
L 497.669843 83.829155 
L 498.735542 83.421105 
L 499.801241 83.802261 
L 500.86694 83.983057 
L 504.064037 84.229115 
L 505.129736 84.568598 
L 507.261134 84.173844 
L 508.326833 83.541288 
L 511.52393 83.553944 
L 512.589629 83.703517 
L 513.655328 84.884089 
L 514.721028 84.764252 
L 515.786727 85.151286 
L 518.983824 83.623354 
L 521.115222 83.454872 
L 522.180921 82.231846 
L 523.24662 82.425389 
L 526.443717 81.864354 
L 527.509416 79.581115 
L 528.575115 79.831459 
L 529.640814 77.597122 
L 541.363503 77.542759 
L 541.363503 77.542759 
" clip-path="url(#pa534d596dc)" style="fill: none; stroke: #7f7f7f; stroke-width: 1.5; stroke-linecap: square"/>
   </g>
   <g id="line2d_28">
    <path d="M 332.486497 155.376 
L 333.552196 145.395407 
L 334.617895 145.288294 
L 339.94639 145.511747 
L 341.012089 144.774589 
L 342.077788 144.719973 
L 343.143487 144.983252 
L 344.209186 144.97268 
L 347.406283 145.906469 
L 348.471982 146.50792 
L 349.537681 146.303912 
L 351.669079 146.799512 
L 354.866176 146.634413 
L 355.931875 146.786061 
L 356.997574 146.744628 
L 358.063273 146.886545 
L 359.128972 146.905994 
L 365.523167 146.749556 
L 366.588866 146.358743 
L 372.98306 146.487167 
L 374.048759 146.807171 
L 377.245856 146.47428 
L 379.377254 146.534135 
L 380.442953 146.129095 
L 381.508652 146.223412 
L 384.705749 146.069363 
L 385.771448 146.132441 
L 386.837147 146.021556 
L 387.902846 146.313981 
L 400.691234 145.766878 
L 401.756933 146.361178 
L 403.888331 146.423822 
L 407.085428 146.336006 
L 408.151127 146.519863 
L 409.216826 145.988017 
L 414.545321 146.000575 
L 415.61102 146.06961 
L 416.676719 146.327197 
L 418.808117 146.456117 
L 424.136612 146.957067 
L 425.202311 146.879122 
L 426.26801 147.095405 
L 429.465107 147.114732 
L 430.530806 146.969572 
L 431.596505 147.683351 
L 433.727903 147.821136 
L 436.925 148.153598 
L 437.990699 148.766253 
L 439.056398 149.226901 
L 440.122097 150.641446 
L 441.187796 150.092436 
L 444.384893 150.432252 
L 445.450592 150.665877 
L 448.647689 150.837556 
L 451.844786 150.722418 
L 452.910485 150.999924 
L 453.976184 150.818679 
L 455.041883 151.199051 
L 459.304679 151.458643 
L 460.370378 151.018642 
L 461.436077 150.999832 
L 462.501776 150.797306 
L 467.830271 150.95413 
L 468.89597 151.00304 
L 469.961669 151.582826 
L 471.027368 151.545091 
L 475.290164 151.611123 
L 476.355863 150.867713 
L 482.750057 151.084167 
L 483.815756 150.858987 
L 485.947154 150.858196 
L 490.20995 150.822088 
L 491.275649 151.188697 
L 492.341348 151.188605 
L 493.407047 151.343012 
L 498.735542 151.352228 
L 506.195435 150.883195 
L 507.261134 150.77668 
L 508.326833 150.849575 
L 512.589629 150.795055 
L 513.655328 151.586654 
L 514.721028 151.58898 
L 515.786727 152.099849 
L 518.983824 152.981575 
L 520.049523 153.158576 
L 521.115222 152.925006 
L 522.180921 152.375865 
L 523.24662 152.232777 
L 527.509416 152.459569 
L 528.575115 151.384195 
L 529.640814 151.803385 
L 541.363503 151.956674 
L 541.363503 151.956674 
" clip-path="url(#pa534d596dc)" style="fill: none; stroke: #bcbd22; stroke-width: 1.5; stroke-linecap: square"/>
   </g>
   <g id="line2d_29">
    <path d="M 332.486497 155.376 
L 333.552196 144.578364 
L 334.617895 144.263066 
L 336.749293 144.25139 
L 339.94639 144.075581 
L 343.143487 144.549657 
L 344.209186 144.48706 
L 347.406283 144.430146 
L 348.471982 144.168438 
L 349.537681 144.469065 
L 350.60338 144.44332 
L 351.669079 144.173866 
L 354.866176 144.218815 
L 355.931875 144.007826 
L 356.997574 144.069811 
L 359.128972 143.974123 
L 363.391769 144.012272 
L 364.457468 144.29734 
L 365.523167 144.309575 
L 366.588866 144.458744 
L 370.851662 144.539066 
L 371.917361 144.224636 
L 372.98306 144.232004 
L 374.048759 144.513257 
L 378.311555 145.23389 
L 379.377254 145.090259 
L 380.442953 145.176132 
L 381.508652 145.113934 
L 384.705749 145.137574 
L 386.837147 145.317721 
L 387.902846 145.410464 
L 400.691234 145.729186 
L 401.756933 145.232489 
L 402.822632 145.179371 
L 403.888331 145.2636 
L 409.216826 145.986791 
L 410.282525 146.006188 
L 411.348224 146.94074 
L 415.61102 147.394419 
L 416.676719 147.378077 
L 417.742418 146.70622 
L 418.808117 146.527234 
L 422.005214 146.388617 
L 423.070913 146.206414 
L 424.136612 145.794488 
L 426.26801 145.696713 
L 430.530806 145.530985 
L 433.727903 146.390555 
L 436.925 147.618 
L 437.990699 148.664528 
L 439.056398 148.505478 
L 440.122097 148.107095 
L 441.187796 148.41007 
L 447.58199 148.853385 
L 448.647689 148.782997 
L 451.844786 148.90412 
L 452.910485 149.07247 
L 453.976184 149.673293 
L 455.041883 151.531599 
L 456.107582 151.506421 
L 459.304679 151.70778 
L 460.370378 151.172515 
L 462.501776 151.143343 
L 463.567475 150.860499 
L 466.764572 150.856873 
L 467.830271 150.663756 
L 469.961669 149.347958 
L 471.027368 149.277129 
L 475.290164 149.186333 
L 476.355863 148.82769 
L 483.815756 148.73127 
L 485.947154 148.921835 
L 492.341348 148.889325 
L 493.407047 148.777619 
L 496.604144 148.720783 
L 497.669843 148.432272 
L 498.735542 148.784879 
L 499.801241 148.911045 
L 500.86694 148.670592 
L 506.195435 149.017838 
L 508.326833 149.520912 
L 512.589629 149.707354 
L 513.655328 149.194247 
L 514.721028 149.160119 
L 515.786727 148.870727 
L 520.049523 149.578222 
L 521.115222 150.557982 
L 522.180921 150.879533 
L 523.24662 150.883135 
L 526.443717 151.152733 
L 527.509416 151.858742 
L 528.575115 152.860025 
L 529.640814 152.163844 
L 541.363503 152.022575 
L 541.363503 152.022575 
" clip-path="url(#pa534d596dc)" style="fill: none; stroke: #17becf; stroke-width: 1.5; stroke-linecap: square"/>
   </g>
   <g id="line2d_30">
    <path d="M 332.486497 14.256 
L 333.552196 155.376 
L 541.363503 155.376 
L 541.363503 155.376 
" clip-path="url(#pa534d596dc)" style="fill: none; stroke: #1f77b4; stroke-width: 1.5; stroke-linecap: square"/>
   </g>
   <g id="patch_8">
    <path d="M 322.042647 162.432 
L 322.042647 7.2 
" style="fill: none; stroke: #000000; stroke-width: 0.8; stroke-linejoin: miter; stroke-linecap: square"/>
   </g>
   <g id="patch_9">
    <path d="M 551.807353 162.432 
L 551.807353 7.2 
" style="fill: none; stroke: #000000; stroke-width: 0.8; stroke-linejoin: miter; stroke-linecap: square"/>
   </g>
   <g id="patch_10">
    <path d="M 322.042647 162.432 
L 551.807353 162.432 
" style="fill: none; stroke: #000000; stroke-width: 0.8; stroke-linejoin: miter; stroke-linecap: square"/>
   </g>
   <g id="patch_11">
    <path d="M 322.042647 7.2 
L 551.807353 7.2 
" style="fill: none; stroke: #000000; stroke-width: 0.8; stroke-linejoin: miter; stroke-linecap: square"/>
   </g>
   <g id="legend_1">
    <g id="patch_12">
     <path d="M 457.807353 148.60625 
L 544.807353 148.60625 
Q 546.807353 148.60625 546.807353 146.60625 
L 546.807353 14.2 
Q 546.807353 12.2 544.807353 12.2 
L 457.807353 12.2 
Q 455.807353 12.2 455.807353 14.2 
L 455.807353 146.60625 
Q 455.807353 148.60625 457.807353 148.60625 
z
" style="fill: #ffffff; opacity: 0.8; stroke: #cccccc; stroke-linejoin: miter"/>
    </g>
    <g id="line2d_31">
     <path d="M 459.807353 19.73125 
L 469.807353 19.73125 
L 479.807353 19.73125 
" style="fill: none; stroke: #1f77b4; stroke-width: 1.5; stroke-linecap: square"/>
    </g>
    <g id="text_20">
     <!-- w_002027.SZ -->
     <g transform="translate(487.807353 23.23125) scale(0.1 -0.1)">
      <defs>
       <path id="SimHei-77" d="M 3075 2925 
L 2450 75 
L 1975 75 
L 1575 2250 
L 1525 2250 
L 1125 75 
L 650 75 
L 25 2925 
L 550 2925 
L 875 1050 
L 925 1050 
L 1275 2925 
L 1825 2925 
L 2175 1050 
L 2225 1050 
L 2550 2925 
L 3075 2925 
z
" transform="scale(0.015625)"/>
       <path id="SimHei-5f" d="M 3150 -850 
L 0 -850 
L 0 -550 
L 3150 -550 
L 3150 -850 
z
" transform="scale(0.015625)"/>
       <path id="SimHei-37" d="M 850 150 
Q 1300 2050 2425 3925 
L 275 3925 
L 275 4375 
L 2950 4375 
L 2950 3950 
Q 1775 2050 1400 150 
L 850 150 
z
" transform="scale(0.015625)"/>
       <path id="SimHei-53" d="M 2900 1325 
Q 2900 750 2537 412 
Q 2175 75 1550 75 
Q 925 75 575 425 
Q 225 775 225 1300 
L 225 1475 
L 800 1475 
L 800 1325 
Q 800 950 1025 750 
Q 1250 550 1550 550 
Q 1950 550 2137 762 
Q 2325 975 2325 1275 
Q 2325 1525 2100 1737 
Q 1875 1950 1450 2125 
Q 850 2350 587 2625 
Q 325 2900 325 3275 
Q 325 3800 687 4125 
Q 1050 4450 1550 4450 
Q 2200 4450 2487 4062 
Q 2775 3675 2775 3225 
L 2200 3225 
Q 2225 3500 2050 3725 
Q 1875 3950 1550 3950 
Q 1250 3950 1075 3787 
Q 900 3625 900 3350 
Q 900 3125 1037 2962 
Q 1175 2800 1750 2575 
Q 2300 2350 2600 2037 
Q 2900 1725 2900 1325 
z
" transform="scale(0.015625)"/>
       <path id="SimHei-5a" d="M 2900 125 
L 225 125 
L 225 600 
L 2250 3925 
L 375 3925 
L 375 4400 
L 2825 4400 
L 2825 3925 
L 800 600 
L 2900 600 
L 2900 125 
z
" transform="scale(0.015625)"/>
      </defs>
      <use xlink:href="#SimHei-77"/>
      <use xlink:href="#SimHei-5f" x="50"/>
      <use xlink:href="#SimHei-30" x="100"/>
      <use xlink:href="#SimHei-30" x="150"/>
      <use xlink:href="#SimHei-32" x="200"/>
      <use xlink:href="#SimHei-30" x="250"/>
      <use xlink:href="#SimHei-32" x="300"/>
      <use xlink:href="#SimHei-37" x="350"/>
      <use xlink:href="#SimHei-2e" x="400"/>
      <use xlink:href="#SimHei-53" x="450"/>
      <use xlink:href="#SimHei-5a" x="500"/>
     </g>
    </g>
    <g id="line2d_32">
     <path d="M 459.807353 33.090625 
L 469.807353 33.090625 
L 479.807353 33.090625 
" style="fill: none; stroke: #ff7f0e; stroke-width: 1.5; stroke-linecap: square"/>
    </g>
    <g id="text_21">
     <!-- w_002371.SZ -->
     <g transform="translate(487.807353 36.590625) scale(0.1 -0.1)">
      <use xlink:href="#SimHei-77"/>
      <use xlink:href="#SimHei-5f" x="50"/>
      <use xlink:href="#SimHei-30" x="100"/>
      <use xlink:href="#SimHei-30" x="150"/>
      <use xlink:href="#SimHei-32" x="200"/>
      <use xlink:href="#SimHei-33" x="250"/>
      <use xlink:href="#SimHei-37" x="300"/>
      <use xlink:href="#SimHei-31" x="350"/>
      <use xlink:href="#SimHei-2e" x="400"/>
      <use xlink:href="#SimHei-53" x="450"/>
      <use xlink:href="#SimHei-5a" x="500"/>
     </g>
    </g>
    <g id="line2d_33">
     <path d="M 459.807353 46.41875 
L 469.807353 46.41875 
L 479.807353 46.41875 
" style="fill: none; stroke: #2ca02c; stroke-width: 1.5; stroke-linecap: square"/>
    </g>
    <g id="text_22">
     <!-- w_600009.SH -->
     <g transform="translate(487.807353 49.91875) scale(0.1 -0.1)">
      <defs>
       <path id="SimHei-48" d="M 2850 125 
L 2275 125 
L 2275 2125 
L 850 2125 
L 850 125 
L 275 125 
L 275 4400 
L 850 4400 
L 850 2600 
L 2275 2600 
L 2275 4400 
L 2850 4400 
L 2850 125 
z
" transform="scale(0.015625)"/>
      </defs>
      <use xlink:href="#SimHei-77"/>
      <use xlink:href="#SimHei-5f" x="50"/>
      <use xlink:href="#SimHei-36" x="100"/>
      <use xlink:href="#SimHei-30" x="150"/>
      <use xlink:href="#SimHei-30" x="200"/>
      <use xlink:href="#SimHei-30" x="250"/>
      <use xlink:href="#SimHei-30" x="300"/>
      <use xlink:href="#SimHei-39" x="350"/>
      <use xlink:href="#SimHei-2e" x="400"/>
      <use xlink:href="#SimHei-53" x="450"/>
      <use xlink:href="#SimHei-48" x="500"/>
     </g>
    </g>
    <g id="line2d_34">
     <path d="M 459.807353 59.778125 
L 469.807353 59.778125 
L 479.807353 59.778125 
" style="fill: none; stroke: #d62728; stroke-width: 1.5; stroke-linecap: square"/>
    </g>
    <g id="text_23">
     <!-- w_600029.SH -->
     <g transform="translate(487.807353 63.278125) scale(0.1 -0.1)">
      <use xlink:href="#SimHei-77"/>
      <use xlink:href="#SimHei-5f" x="50"/>
      <use xlink:href="#SimHei-36" x="100"/>
      <use xlink:href="#SimHei-30" x="150"/>
      <use xlink:href="#SimHei-30" x="200"/>
      <use xlink:href="#SimHei-30" x="250"/>
      <use xlink:href="#SimHei-32" x="300"/>
      <use xlink:href="#SimHei-39" x="350"/>
      <use xlink:href="#SimHei-2e" x="400"/>
      <use xlink:href="#SimHei-53" x="450"/>
      <use xlink:href="#SimHei-48" x="500"/>
     </g>
    </g>
    <g id="line2d_35">
     <path d="M 459.807353 73.1375 
L 469.807353 73.1375 
L 479.807353 73.1375 
" style="fill: none; stroke: #9467bd; stroke-width: 1.5; stroke-linecap: square"/>
    </g>
    <g id="text_24">
     <!-- w_600183.SH -->
     <g transform="translate(487.807353 76.6375) scale(0.1 -0.1)">
      <use xlink:href="#SimHei-77"/>
      <use xlink:href="#SimHei-5f" x="50"/>
      <use xlink:href="#SimHei-36" x="100"/>
      <use xlink:href="#SimHei-30" x="150"/>
      <use xlink:href="#SimHei-30" x="200"/>
      <use xlink:href="#SimHei-31" x="250"/>
      <use xlink:href="#SimHei-38" x="300"/>
      <use xlink:href="#SimHei-33" x="350"/>
      <use xlink:href="#SimHei-2e" x="400"/>
      <use xlink:href="#SimHei-53" x="450"/>
      <use xlink:href="#SimHei-48" x="500"/>
     </g>
    </g>
    <g id="line2d_36">
     <path d="M 459.807353 86.465625 
L 469.807353 86.465625 
L 479.807353 86.465625 
" style="fill: none; stroke: #8c564b; stroke-width: 1.5; stroke-linecap: square"/>
    </g>
    <g id="text_25">
     <!-- w_600406.SH -->
     <g transform="translate(487.807353 89.965625) scale(0.1 -0.1)">
      <use xlink:href="#SimHei-77"/>
      <use xlink:href="#SimHei-5f" x="50"/>
      <use xlink:href="#SimHei-36" x="100"/>
      <use xlink:href="#SimHei-30" x="150"/>
      <use xlink:href="#SimHei-30" x="200"/>
      <use xlink:href="#SimHei-34" x="250"/>
      <use xlink:href="#SimHei-30" x="300"/>
      <use xlink:href="#SimHei-36" x="350"/>
      <use xlink:href="#SimHei-2e" x="400"/>
      <use xlink:href="#SimHei-53" x="450"/>
      <use xlink:href="#SimHei-48" x="500"/>
     </g>
    </g>
    <g id="line2d_37">
     <path d="M 459.807353 99.79375 
L 469.807353 99.79375 
L 479.807353 99.79375 
" style="fill: none; stroke: #e377c2; stroke-width: 1.5; stroke-linecap: square"/>
    </g>
    <g id="text_26">
     <!-- w_600900.SH -->
     <g transform="translate(487.807353 103.29375) scale(0.1 -0.1)">
      <use xlink:href="#SimHei-77"/>
      <use xlink:href="#SimHei-5f" x="50"/>
      <use xlink:href="#SimHei-36" x="100"/>
      <use xlink:href="#SimHei-30" x="150"/>
      <use xlink:href="#SimHei-30" x="200"/>
      <use xlink:href="#SimHei-39" x="250"/>
      <use xlink:href="#SimHei-30" x="300"/>
      <use xlink:href="#SimHei-30" x="350"/>
      <use xlink:href="#SimHei-2e" x="400"/>
      <use xlink:href="#SimHei-53" x="450"/>
      <use xlink:href="#SimHei-48" x="500"/>
     </g>
    </g>
    <g id="line2d_38">
     <path d="M 459.807353 113.121875 
L 469.807353 113.121875 
L 479.807353 113.121875 
" style="fill: none; stroke: #7f7f7f; stroke-width: 1.5; stroke-linecap: square"/>
    </g>
    <g id="text_27">
     <!-- w_601989.SH -->
     <g transform="translate(487.807353 116.621875) scale(0.1 -0.1)">
      <use xlink:href="#SimHei-77"/>
      <use xlink:href="#SimHei-5f" x="50"/>
      <use xlink:href="#SimHei-36" x="100"/>
      <use xlink:href="#SimHei-30" x="150"/>
      <use xlink:href="#SimHei-31" x="200"/>
      <use xlink:href="#SimHei-39" x="250"/>
      <use xlink:href="#SimHei-38" x="300"/>
      <use xlink:href="#SimHei-39" x="350"/>
      <use xlink:href="#SimHei-2e" x="400"/>
      <use xlink:href="#SimHei-53" x="450"/>
      <use xlink:href="#SimHei-48" x="500"/>
     </g>
    </g>
    <g id="line2d_39">
     <path d="M 459.807353 126.45 
L 469.807353 126.45 
L 479.807353 126.45 
" style="fill: none; stroke: #bcbd22; stroke-width: 1.5; stroke-linecap: square"/>
    </g>
    <g id="text_28">
     <!-- w_601998.SH -->
     <g transform="translate(487.807353 129.95) scale(0.1 -0.1)">
      <use xlink:href="#SimHei-77"/>
      <use xlink:href="#SimHei-5f" x="50"/>
      <use xlink:href="#SimHei-36" x="100"/>
      <use xlink:href="#SimHei-30" x="150"/>
      <use xlink:href="#SimHei-31" x="200"/>
      <use xlink:href="#SimHei-39" x="250"/>
      <use xlink:href="#SimHei-39" x="300"/>
      <use xlink:href="#SimHei-38" x="350"/>
      <use xlink:href="#SimHei-2e" x="400"/>
      <use xlink:href="#SimHei-53" x="450"/>
      <use xlink:href="#SimHei-48" x="500"/>
     </g>
    </g>
    <g id="line2d_40">
     <path d="M 459.807353 139.778125 
L 469.807353 139.778125 
L 479.807353 139.778125 
" style="fill: none; stroke: #17becf; stroke-width: 1.5; stroke-linecap: square"/>
    </g>
    <g id="text_29">
     <!-- w_CASH -->
     <g transform="translate(487.807353 143.278125) scale(0.1 -0.1)">
      <defs>
       <path id="SimHei-43" d="M 2975 1825 
Q 2950 875 2575 475 
Q 2200 75 1675 75 
Q 1075 75 650 562 
Q 225 1050 225 2125 
Q 225 3300 637 3875 
Q 1050 4450 1700 4450 
Q 2250 4450 2612 4037 
Q 2975 3625 2950 2875 
L 2400 2875 
Q 2400 3425 2225 3700 
Q 2050 3975 1700 3975 
Q 1300 3975 1062 3562 
Q 825 3150 825 2175 
Q 825 1275 1062 912 
Q 1300 550 1675 550 
Q 1950 550 2175 812 
Q 2400 1075 2400 1825 
L 2975 1825 
z
" transform="scale(0.015625)"/>
       <path id="SimHei-41" d="M 3075 125 
L 2475 125 
L 2125 1450 
L 1025 1450 
L 675 125 
L 75 125 
L 1325 4450 
L 1825 4450 
L 3075 125 
z
M 2000 1925 
L 1600 3450 
L 1550 3450 
L 1150 1925 
L 2000 1925 
z
" transform="scale(0.015625)"/>
      </defs>
      <use xlink:href="#SimHei-77"/>
      <use xlink:href="#SimHei-5f" x="50"/>
      <use xlink:href="#SimHei-43" x="100"/>
      <use xlink:href="#SimHei-41" x="150"/>
      <use xlink:href="#SimHei-53" x="200"/>
      <use xlink:href="#SimHei-48" x="250"/>
     </g>
    </g>
   </g>
  </g>
  <g id="axes_3">
   <g id="patch_13">
    <path d="M 597.760294 162.432 
L 827.525 162.432 
L 827.525 7.2 
L 597.760294 7.2 
z
" style="fill: #ffffff"/>
   </g>
   <g id="matplotlib.axis_5">
    <g id="xtick_7">
     <g id="line2d_41">
      <g>
       <use xlink:href="#m48f64030ef" x="654.029202" y="162.432" style="stroke: #000000; stroke-width: 0.8"/>
      </g>
     </g>
     <g id="text_30">
      <!-- 2023-09-20 -->
      <g transform="translate(629.029202 176.307) scale(0.1 -0.1)">
       <use xlink:href="#SimHei-32"/>
       <use xlink:href="#SimHei-30" x="50"/>
       <use xlink:href="#SimHei-32" x="100"/>
       <use xlink:href="#SimHei-33" x="150"/>
       <use xlink:href="#SimHei-2d" x="200"/>
       <use xlink:href="#SimHei-30" x="250"/>
       <use xlink:href="#SimHei-39" x="300"/>
       <use xlink:href="#SimHei-2d" x="350"/>
       <use xlink:href="#SimHei-32" x="400"/>
       <use xlink:href="#SimHei-30" x="450"/>
      </g>
     </g>
    </g>
    <g id="xtick_8">
     <g id="line2d_42">
      <g>
       <use xlink:href="#m48f64030ef" x="717.971142" y="162.432" style="stroke: #000000; stroke-width: 0.8"/>
      </g>
     </g>
     <g id="text_31">
      <!-- 2023-11-19 -->
      <g transform="translate(692.971142 176.307) scale(0.1 -0.1)">
       <use xlink:href="#SimHei-32"/>
       <use xlink:href="#SimHei-30" x="50"/>
       <use xlink:href="#SimHei-32" x="100"/>
       <use xlink:href="#SimHei-33" x="150"/>
       <use xlink:href="#SimHei-2d" x="200"/>
       <use xlink:href="#SimHei-31" x="250"/>
       <use xlink:href="#SimHei-31" x="300"/>
       <use xlink:href="#SimHei-2d" x="350"/>
       <use xlink:href="#SimHei-31" x="400"/>
       <use xlink:href="#SimHei-39" x="450"/>
      </g>
     </g>
    </g>
    <g id="xtick_9">
     <g id="line2d_43">
      <g>
       <use xlink:href="#m48f64030ef" x="781.913083" y="162.432" style="stroke: #000000; stroke-width: 0.8"/>
      </g>
     </g>
     <g id="text_32">
      <!-- 2024-01-18 -->
      <g transform="translate(756.913083 176.307) scale(0.1 -0.1)">
       <use xlink:href="#SimHei-32"/>
       <use xlink:href="#SimHei-30" x="50"/>
       <use xlink:href="#SimHei-32" x="100"/>
       <use xlink:href="#SimHei-34" x="150"/>
       <use xlink:href="#SimHei-2d" x="200"/>
       <use xlink:href="#SimHei-30" x="250"/>
       <use xlink:href="#SimHei-31" x="300"/>
       <use xlink:href="#SimHei-2d" x="350"/>
       <use xlink:href="#SimHei-31" x="400"/>
       <use xlink:href="#SimHei-38" x="450"/>
      </g>
     </g>
    </g>
   </g>
   <g id="matplotlib.axis_6">
    <g id="ytick_13">
     <g id="line2d_44">
      <g>
       <use xlink:href="#m4f337b1731" x="597.760294" y="155.376" style="stroke: #000000; stroke-width: 0.8"/>
      </g>
     </g>
     <g id="text_33">
      <!-- 0.0000 -->
      <g transform="translate(560.760294 158.8135) scale(0.1 -0.1)">
       <use xlink:href="#SimHei-30"/>
       <use xlink:href="#SimHei-2e" x="50"/>
       <use xlink:href="#SimHei-30" x="100"/>
       <use xlink:href="#SimHei-30" x="150"/>
       <use xlink:href="#SimHei-30" x="200"/>
       <use xlink:href="#SimHei-30" x="250"/>
      </g>
     </g>
    </g>
    <g id="ytick_14">
     <g id="line2d_45">
      <g>
       <use xlink:href="#m4f337b1731" x="597.760294" y="127.152" style="stroke: #000000; stroke-width: 0.8"/>
      </g>
     </g>
     <g id="text_34">
      <!-- 0.0005 -->
      <g transform="translate(560.760294 130.5895) scale(0.1 -0.1)">
       <defs>
        <path id="SimHei-35" d="M 550 1325 
Q 725 650 1150 575 
Q 1575 500 1837 662 
Q 2100 825 2212 1087 
Q 2325 1350 2312 1675 
Q 2300 2000 2137 2225 
Q 1975 2450 1725 2525 
Q 1475 2600 1162 2525 
Q 850 2450 650 2175 
L 225 2225 
Q 275 2375 700 4375 
L 2675 4375 
L 2675 3925 
L 1075 3925 
Q 950 3250 825 2850 
Q 1200 3025 1525 3012 
Q 1850 3000 2150 2862 
Q 2450 2725 2587 2487 
Q 2725 2250 2787 2012 
Q 2850 1775 2837 1500 
Q 2825 1225 2725 937 
Q 2625 650 2425 462 
Q 2225 275 1937 162 
Q 1650 50 1275 75 
Q 900 100 562 350 
Q 225 600 100 1200 
L 550 1325 
z
" transform="scale(0.015625)"/>
       </defs>
       <use xlink:href="#SimHei-30"/>
       <use xlink:href="#SimHei-2e" x="50"/>
       <use xlink:href="#SimHei-30" x="100"/>
       <use xlink:href="#SimHei-30" x="150"/>
       <use xlink:href="#SimHei-30" x="200"/>
       <use xlink:href="#SimHei-35" x="250"/>
      </g>
     </g>
    </g>
    <g id="ytick_15">
     <g id="line2d_46">
      <g>
       <use xlink:href="#m4f337b1731" x="597.760294" y="98.928" style="stroke: #000000; stroke-width: 0.8"/>
      </g>
     </g>
     <g id="text_35">
      <!-- 0.0010 -->
      <g transform="translate(560.760294 102.3655) scale(0.1 -0.1)">
       <use xlink:href="#SimHei-30"/>
       <use xlink:href="#SimHei-2e" x="50"/>
       <use xlink:href="#SimHei-30" x="100"/>
       <use xlink:href="#SimHei-30" x="150"/>
       <use xlink:href="#SimHei-31" x="200"/>
       <use xlink:href="#SimHei-30" x="250"/>
      </g>
     </g>
    </g>
    <g id="ytick_16">
     <g id="line2d_47">
      <g>
       <use xlink:href="#m4f337b1731" x="597.760294" y="70.704" style="stroke: #000000; stroke-width: 0.8"/>
      </g>
     </g>
     <g id="text_36">
      <!-- 0.0015 -->
      <g transform="translate(560.760294 74.1415) scale(0.1 -0.1)">
       <use xlink:href="#SimHei-30"/>
       <use xlink:href="#SimHei-2e" x="50"/>
       <use xlink:href="#SimHei-30" x="100"/>
       <use xlink:href="#SimHei-30" x="150"/>
       <use xlink:href="#SimHei-31" x="200"/>
       <use xlink:href="#SimHei-35" x="250"/>
      </g>
     </g>
    </g>
    <g id="ytick_17">
     <g id="line2d_48">
      <g>
       <use xlink:href="#m4f337b1731" x="597.760294" y="42.48" style="stroke: #000000; stroke-width: 0.8"/>
      </g>
     </g>
     <g id="text_37">
      <!-- 0.0020 -->
      <g transform="translate(560.760294 45.9175) scale(0.1 -0.1)">
       <use xlink:href="#SimHei-30"/>
       <use xlink:href="#SimHei-2e" x="50"/>
       <use xlink:href="#SimHei-30" x="100"/>
       <use xlink:href="#SimHei-30" x="150"/>
       <use xlink:href="#SimHei-32" x="200"/>
       <use xlink:href="#SimHei-30" x="250"/>
      </g>
     </g>
    </g>
    <g id="ytick_18">
     <g id="line2d_49">
      <g>
       <use xlink:href="#m4f337b1731" x="597.760294" y="14.256" style="stroke: #000000; stroke-width: 0.8"/>
      </g>
     </g>
     <g id="text_38">
      <!-- 0.0025 -->
      <g transform="translate(560.760294 17.6935) scale(0.1 -0.1)">
       <use xlink:href="#SimHei-30"/>
       <use xlink:href="#SimHei-2e" x="50"/>
       <use xlink:href="#SimHei-30" x="100"/>
       <use xlink:href="#SimHei-30" x="150"/>
       <use xlink:href="#SimHei-32" x="200"/>
       <use xlink:href="#SimHei-35" x="250"/>
      </g>
     </g>
    </g>
   </g>
   <g id="line2d_50">
    <path d="M 608.204144 14.256 
L 609.269843 151.874839 
L 610.335542 154.282527 
L 611.401241 154.384439 
L 614.598338 153.513266 
L 615.664037 151.193663 
L 616.729736 154.564594 
L 617.795435 151.822775 
L 618.861134 153.859716 
L 622.058231 151.916426 
L 623.12393 151.782979 
L 624.189629 149.669689 
L 625.255328 152.525091 
L 626.321028 153.20268 
L 629.518125 154.112583 
L 630.583824 153.225165 
L 631.649523 153.707139 
L 633.780921 154.042563 
L 636.978018 153.571214 
L 638.043717 152.720929 
L 639.109416 152.885743 
L 640.175115 153.565916 
L 641.240814 153.003886 
L 644.437911 152.891722 
L 645.50361 154.720098 
L 646.569309 152.087386 
L 647.635008 153.767942 
L 648.700707 151.900556 
L 651.897804 152.083265 
L 652.963503 153.935344 
L 654.029202 154.105645 
L 655.094901 153.708262 
L 656.1606 153.7175 
L 659.357697 154.319157 
L 660.423396 153.181407 
L 661.489095 154.355468 
L 662.554794 152.577938 
L 674.277483 152.168714 
L 675.343182 150.721241 
L 676.408881 152.242806 
L 677.47458 154.068465 
L 678.540279 153.564623 
L 681.737376 154.120561 
L 682.803075 153.208697 
L 683.868774 152.474143 
L 684.934473 153.824027 
L 686.000172 149.694381 
L 690.262968 153.41537 
L 691.328667 150.193229 
L 692.394366 152.188329 
L 693.460065 150.816789 
L 696.657162 150.95115 
L 697.722861 153.408413 
L 698.78856 153.60766 
L 699.854259 154.028509 
L 700.919958 153.973746 
L 704.117055 152.574644 
L 705.182754 154.014143 
L 706.248453 149.374813 
L 707.314152 154.202657 
L 708.379851 152.780551 
L 711.576948 146.569283 
L 712.642647 147.929127 
L 713.708346 150.769003 
L 714.774045 139.672476 
L 715.839744 151.627789 
L 719.036841 151.502761 
L 720.10254 150.892764 
L 721.168239 153.768402 
L 723.299637 153.642712 
L 726.496734 152.983569 
L 727.562433 147.726403 
L 728.628132 149.711217 
L 729.693831 142.130318 
L 730.75953 153.568888 
L 733.956627 154.134864 
L 735.022326 150.166129 
L 736.088025 155.077452 
L 737.153724 153.061488 
L 738.219423 153.595446 
L 741.41652 154.402482 
L 742.482219 152.348392 
L 743.547918 152.681553 
L 744.613617 151.147064 
L 745.679316 152.957241 
L 748.876413 153.530212 
L 749.942112 153.176305 
L 751.007811 148.791975 
L 752.07351 152.901035 
L 753.139209 152.035629 
L 756.336306 154.914185 
L 757.402005 154.10501 
L 758.467704 152.997394 
L 759.533403 153.364327 
L 760.599102 154.311176 
L 764.861898 153.982809 
L 765.927597 152.472874 
L 766.993296 152.969731 
L 768.058995 152.926987 
L 771.256092 154.395564 
L 772.321791 153.942007 
L 773.38749 153.011734 
L 774.453189 152.485635 
L 775.518888 153.581178 
L 778.715985 153.173371 
L 779.781684 152.513241 
L 780.847383 153.578795 
L 781.913083 151.599998 
L 782.978782 151.633087 
L 786.175879 152.997774 
L 787.241578 154.454213 
L 788.307277 147.173738 
L 789.372976 153.236399 
L 790.438675 148.551906 
L 793.635772 149.211712 
L 794.701471 152.493284 
L 795.76717 147.459986 
L 796.832869 150.012785 
L 797.898568 153.77573 
L 801.095665 151.244072 
L 802.161364 146.903518 
L 803.227063 147.294434 
L 804.292762 145.973359 
L 816.015451 153.979291 
L 817.08115 155.376 
L 817.08115 155.376 
" clip-path="url(#p1cf5d01ac5)" style="fill: none; stroke: #1f77b4; stroke-width: 1.5; stroke-linecap: square"/>
   </g>
   <g id="patch_14">
    <path d="M 597.760294 162.432 
L 597.760294 7.2 
" style="fill: none; stroke: #000000; stroke-width: 0.8; stroke-linejoin: miter; stroke-linecap: square"/>
   </g>
   <g id="patch_15">
    <path d="M 827.525 162.432 
L 827.525 7.2 
" style="fill: none; stroke: #000000; stroke-width: 0.8; stroke-linejoin: miter; stroke-linecap: square"/>
   </g>
   <g id="patch_16">
    <path d="M 597.760294 162.432 
L 827.525 162.432 
" style="fill: none; stroke: #000000; stroke-width: 0.8; stroke-linejoin: miter; stroke-linecap: square"/>
   </g>
   <g id="patch_17">
    <path d="M 597.760294 7.2 
L 827.525 7.2 
" style="fill: none; stroke: #000000; stroke-width: 0.8; stroke-linejoin: miter; stroke-linecap: square"/>
   </g>
  </g>
 </g>
 <defs>
  <clipPath id="pd6b2ec0d41">
   <rect x="46.325" y="7.2" width="229.764706" height="155.232"/>
  </clipPath>
  <clipPath id="pa534d596dc">
   <rect x="322.042647" y="7.2" width="229.764706" height="155.232"/>
  </clipPath>
  <clipPath id="p1cf5d01ac5">
   <rect x="597.760294" y="7.2" width="229.764706" height="155.232"/>
  </clipPath>
 </defs>
</svg>
