<?xml version="1.0" encoding="utf-8" standalone="no"?>
<!DOCTYPE svg PUBLIC "-//W3C//DTD SVG 1.1//EN"
  "http://www.w3.org/Graphics/SVG/1.1/DTD/svg11.dtd">
<svg xmlns:xlink="http://www.w3.org/1999/xlink" width="834.803125pt" height="188.13099pt" viewBox="0 0 834.803125 188.13099" xmlns="http://www.w3.org/2000/svg" version="1.1">
 <metadata>
  <rdf:RDF xmlns:dc="http://purl.org/dc/elements/1.1/" xmlns:cc="http://creativecommons.org/ns#" xmlns:rdf="http://www.w3.org/1999/02/22-rdf-syntax-ns#">
   <cc:Work>
    <dc:type rdf:resource="http://purl.org/dc/dcmitype/StillImage"/>
    <dc:date>2024-12-25T17:32:56.878117</dc:date>
    <dc:format>image/svg+xml</dc:format>
    <dc:creator>
     <cc:Agent>
      <dc:title>Matplotlib v3.9.3, https://matplotlib.org/</dc:title>
     </cc:Agent>
    </dc:creator>
   </cc:Work>
  </rdf:RDF>
 </metadata>
 <defs>
  <style type="text/css">*{stroke-linejoin: round; stroke-linecap: butt}</style>
 </defs>
 <g id="figure_1">
  <g id="patch_1">
   <path d="M 0 188.13099 
L 834.803125 188.13099 
L 834.803125 0 
L 0 0 
z
" style="fill: #ffffff"/>
  </g>
  <g id="axes_1">
   <g id="patch_2">
    <path d="M 46.403125 165.80599 
L 276.167831 165.80599 
L 276.167831 10.57399 
L 46.403125 10.57399 
z
" style="fill: #ffffff"/>
   </g>
   <g id="matplotlib.axis_1">
    <g id="xtick_1">
     <g id="line2d_1">
      <defs>
       <path id="md3119fda7e" d="M 0 0 
L 0 3.5 
" style="stroke: #000000; stroke-width: 0.8"/>
      </defs>
      <g>
       <use xlink:href="#md3119fda7e" x="102.672033" y="165.80599" style="stroke: #000000; stroke-width: 0.8"/>
      </g>
     </g>
     <g id="text_1">
      <!-- 2023-09-20 -->
      <g transform="translate(77.672033 179.68099) scale(0.1 -0.1)">
       <defs>
        <path id="SimHei-32" d="M 300 250 
Q 325 625 650 925 
Q 975 1225 1475 1862 
Q 1975 2500 2125 2850 
Q 2275 3200 2237 3450 
Q 2200 3700 2000 3862 
Q 1800 4025 1537 4000 
Q 1275 3975 1037 3800 
Q 800 3625 675 3275 
L 200 3350 
Q 400 3925 712 4187 
Q 1025 4450 1450 4475 
Q 1700 4500 1900 4462 
Q 2100 4425 2312 4287 
Q 2525 4150 2662 3875 
Q 2800 3600 2762 3212 
Q 2725 2825 2375 2287 
Q 2025 1750 1025 600 
L 2825 600 
L 2825 150 
L 300 150 
L 300 250 
z
" transform="scale(0.015625)"/>
        <path id="SimHei-30" d="M 225 2537 
Q 250 3200 412 3587 
Q 575 3975 875 4225 
Q 1175 4475 1612 4475 
Q 2050 4475 2375 4112 
Q 2700 3750 2800 3200 
Q 2900 2650 2862 1937 
Q 2825 1225 2612 775 
Q 2400 325 1975 150 
Q 1550 -25 1125 187 
Q 700 400 525 750 
Q 350 1100 275 1487 
Q 200 1875 225 2537 
z
M 750 2687 
Q 675 2000 800 1462 
Q 925 925 1212 700 
Q 1500 475 1800 612 
Q 2100 750 2237 1162 
Q 2375 1575 2375 2062 
Q 2375 2550 2337 2950 
Q 2300 3350 2112 3675 
Q 1925 4000 1612 4012 
Q 1300 4025 1062 3700 
Q 825 3375 750 2687 
z
" transform="scale(0.015625)"/>
        <path id="SimHei-33" d="M 250 1225 
L 700 1300 
Q 800 975 1025 762 
Q 1250 550 1587 562 
Q 1925 575 2125 837 
Q 2325 1100 2300 1437 
Q 2275 1775 2037 1962 
Q 1800 2150 1275 2225 
L 1275 2550 
Q 1800 2600 2037 2825 
Q 2275 3050 2250 3412 
Q 2225 3775 1925 3937 
Q 1625 4100 1287 3975 
Q 950 3850 750 3275 
L 300 3350 
Q 450 3800 712 4100 
Q 975 4400 1425 4450 
Q 1875 4500 2212 4337 
Q 2550 4175 2687 3837 
Q 2825 3500 2725 3100 
Q 2625 2700 2150 2400 
Q 2500 2250 2687 1950 
Q 2875 1650 2812 1162 
Q 2750 675 2375 375 
Q 2000 75 1525 87 
Q 1050 100 700 387 
Q 350 675 250 1225 
z
" transform="scale(0.015625)"/>
        <path id="SimHei-2d" d="M 2975 2125 
L 125 2125 
L 125 2525 
L 2975 2525 
L 2975 2125 
z
" transform="scale(0.015625)"/>
        <path id="SimHei-39" d="M 800 75 
Q 1350 1000 1700 1750 
Q 1075 1650 662 1912 
Q 250 2175 162 2625 
Q 75 3075 175 3437 
Q 275 3800 487 4037 
Q 700 4275 1000 4375 
Q 1300 4475 1537 4475 
Q 1775 4475 2025 4375 
Q 2275 4275 2475 4075 
Q 2675 3875 2750 3662 
Q 2825 3450 2825 3112 
Q 2825 2775 2575 2250 
Q 2325 1725 1350 75 
L 800 75 
z
M 662 2875 
Q 700 2550 937 2337 
Q 1175 2125 1450 2150 
Q 1725 2175 1887 2300 
Q 2050 2425 2200 2725 
Q 2300 3100 2250 3362 
Q 2200 3625 1987 3800 
Q 1775 3975 1525 3975 
Q 1375 4000 1137 3900 
Q 900 3800 762 3500 
Q 625 3200 662 2875 
z
" transform="scale(0.015625)"/>
       </defs>
       <use xlink:href="#SimHei-32"/>
       <use xlink:href="#SimHei-30" x="50"/>
       <use xlink:href="#SimHei-32" x="100"/>
       <use xlink:href="#SimHei-33" x="150"/>
       <use xlink:href="#SimHei-2d" x="200"/>
       <use xlink:href="#SimHei-30" x="250"/>
       <use xlink:href="#SimHei-39" x="300"/>
       <use xlink:href="#SimHei-2d" x="350"/>
       <use xlink:href="#SimHei-32" x="400"/>
       <use xlink:href="#SimHei-30" x="450"/>
      </g>
     </g>
    </g>
    <g id="xtick_2">
     <g id="line2d_2">
      <g>
       <use xlink:href="#md3119fda7e" x="166.613973" y="165.80599" style="stroke: #000000; stroke-width: 0.8"/>
      </g>
     </g>
     <g id="text_2">
      <!-- 2023-11-19 -->
      <g transform="translate(141.613973 179.68099) scale(0.1 -0.1)">
       <defs>
        <path id="SimHei-31" d="M 1400 3600 
Q 1075 3275 575 2975 
L 575 3450 
Q 1200 3875 1600 4450 
L 1900 4450 
L 1900 150 
L 1400 150 
L 1400 3600 
z
" transform="scale(0.015625)"/>
       </defs>
       <use xlink:href="#SimHei-32"/>
       <use xlink:href="#SimHei-30" x="50"/>
       <use xlink:href="#SimHei-32" x="100"/>
       <use xlink:href="#SimHei-33" x="150"/>
       <use xlink:href="#SimHei-2d" x="200"/>
       <use xlink:href="#SimHei-31" x="250"/>
       <use xlink:href="#SimHei-31" x="300"/>
       <use xlink:href="#SimHei-2d" x="350"/>
       <use xlink:href="#SimHei-31" x="400"/>
       <use xlink:href="#SimHei-39" x="450"/>
      </g>
     </g>
    </g>
    <g id="xtick_3">
     <g id="line2d_3">
      <g>
       <use xlink:href="#md3119fda7e" x="230.555913" y="165.80599" style="stroke: #000000; stroke-width: 0.8"/>
      </g>
     </g>
     <g id="text_3">
      <!-- 2024-01-18 -->
      <g transform="translate(205.555913 179.68099) scale(0.1 -0.1)">
       <defs>
        <path id="SimHei-34" d="M 2000 1100 
L 75 1100 
L 75 1525 
L 2100 4450 
L 2475 4450 
L 2475 1525 
L 3075 1525 
L 3075 1100 
L 2475 1100 
L 2475 150 
L 2000 150 
L 2000 1100 
z
M 2000 1525 
L 2000 3500 
L 600 1525 
L 2000 1525 
z
" transform="scale(0.015625)"/>
        <path id="SimHei-38" d="M 175 1375 
Q 175 1675 325 1962 
Q 475 2250 825 2425 
Q 525 2600 425 2812 
Q 325 3025 312 3300 
Q 300 3575 387 3775 
Q 475 3975 650 4150 
Q 825 4325 1037 4387 
Q 1250 4450 1500 4450 
Q 1750 4450 1950 4400 
Q 2150 4350 2375 4187 
Q 2600 4025 2700 3725 
Q 2800 3425 2687 3025 
Q 2575 2625 2100 2400 
Q 2525 2275 2700 2012 
Q 2875 1750 2875 1375 
Q 2875 1000 2762 775 
Q 2650 550 2512 400 
Q 2375 250 2137 162 
Q 1900 75 1537 75 
Q 1175 75 912 162 
Q 650 250 475 425 
Q 300 600 237 837 
Q 175 1075 175 1375 
z
M 687 1400 
Q 675 1100 787 875 
Q 900 650 1200 587 
Q 1500 525 1825 600 
Q 2150 675 2275 950 
Q 2400 1225 2362 1500 
Q 2325 1775 2050 1962 
Q 1775 2150 1450 2125 
Q 1125 2100 912 1900 
Q 700 1700 687 1400 
z
M 775 3350 
Q 775 3100 950 2875 
Q 1125 2650 1500 2650 
Q 1875 2650 2062 2875 
Q 2250 3100 2237 3412 
Q 2225 3725 2012 3875 
Q 1800 4025 1437 4000 
Q 1075 3975 925 3787 
Q 775 3600 775 3350 
z
" transform="scale(0.015625)"/>
       </defs>
       <use xlink:href="#SimHei-32"/>
       <use xlink:href="#SimHei-30" x="50"/>
       <use xlink:href="#SimHei-32" x="100"/>
       <use xlink:href="#SimHei-34" x="150"/>
       <use xlink:href="#SimHei-2d" x="200"/>
       <use xlink:href="#SimHei-30" x="250"/>
       <use xlink:href="#SimHei-31" x="300"/>
       <use xlink:href="#SimHei-2d" x="350"/>
       <use xlink:href="#SimHei-31" x="400"/>
       <use xlink:href="#SimHei-38" x="450"/>
      </g>
     </g>
    </g>
   </g>
   <g id="matplotlib.axis_2">
    <g id="ytick_1">
     <g id="line2d_4">
      <defs>
       <path id="meefc65f3ad" d="M 0 0 
L -3.5 0 
" style="stroke: #000000; stroke-width: 0.8"/>
      </defs>
      <g>
       <use xlink:href="#meefc65f3ad" x="46.403125" y="163.319323" style="stroke: #000000; stroke-width: 0.8"/>
      </g>
     </g>
     <g id="text_4">
      <!-- 0.90 -->
      <g transform="translate(19.403125 166.756823) scale(0.1 -0.1)">
       <defs>
        <path id="SimHei-2e" d="M 1075 125 
L 500 125 
L 500 675 
L 1075 675 
L 1075 125 
z
" transform="scale(0.015625)"/>
       </defs>
       <use xlink:href="#SimHei-30"/>
       <use xlink:href="#SimHei-2e" x="50"/>
       <use xlink:href="#SimHei-39" x="100"/>
       <use xlink:href="#SimHei-30" x="150"/>
      </g>
     </g>
    </g>
    <g id="ytick_2">
     <g id="line2d_5">
      <g>
       <use xlink:href="#meefc65f3ad" x="46.403125" y="137.872353" style="stroke: #000000; stroke-width: 0.8"/>
      </g>
     </g>
     <g id="text_5">
      <!-- 0.92 -->
      <g transform="translate(19.403125 141.309853) scale(0.1 -0.1)">
       <use xlink:href="#SimHei-30"/>
       <use xlink:href="#SimHei-2e" x="50"/>
       <use xlink:href="#SimHei-39" x="100"/>
       <use xlink:href="#SimHei-32" x="150"/>
      </g>
     </g>
    </g>
    <g id="ytick_3">
     <g id="line2d_6">
      <g>
       <use xlink:href="#meefc65f3ad" x="46.403125" y="112.425382" style="stroke: #000000; stroke-width: 0.8"/>
      </g>
     </g>
     <g id="text_6">
      <!-- 0.94 -->
      <g transform="translate(19.403125 115.862882) scale(0.1 -0.1)">
       <use xlink:href="#SimHei-30"/>
       <use xlink:href="#SimHei-2e" x="50"/>
       <use xlink:href="#SimHei-39" x="100"/>
       <use xlink:href="#SimHei-34" x="150"/>
      </g>
     </g>
    </g>
    <g id="ytick_4">
     <g id="line2d_7">
      <g>
       <use xlink:href="#meefc65f3ad" x="46.403125" y="86.978412" style="stroke: #000000; stroke-width: 0.8"/>
      </g>
     </g>
     <g id="text_7">
      <!-- 0.96 -->
      <g transform="translate(19.403125 90.415912) scale(0.1 -0.1)">
       <defs>
        <path id="SimHei-36" d="M 250 1612 
Q 275 1975 387 2225 
Q 500 2475 725 2850 
L 1750 4450 
L 2325 4450 
L 1275 2800 
Q 1950 2975 2350 2750 
Q 2750 2525 2887 2237 
Q 3025 1950 3037 1612 
Q 3050 1275 2937 950 
Q 2825 625 2537 362 
Q 2250 100 1737 75 
Q 1225 50 862 262 
Q 500 475 362 862 
Q 225 1250 250 1612 
z
M 1025 787 
Q 1250 550 1625 525 
Q 2000 500 2250 775 
Q 2500 1050 2500 1575 
Q 2500 2100 2187 2300 
Q 1875 2500 1487 2450 
Q 1100 2400 925 2075 
Q 750 1750 775 1387 
Q 800 1025 1025 787 
z
" transform="scale(0.015625)"/>
       </defs>
       <use xlink:href="#SimHei-30"/>
       <use xlink:href="#SimHei-2e" x="50"/>
       <use xlink:href="#SimHei-39" x="100"/>
       <use xlink:href="#SimHei-36" x="150"/>
      </g>
     </g>
    </g>
    <g id="ytick_5">
     <g id="line2d_8">
      <g>
       <use xlink:href="#meefc65f3ad" x="46.403125" y="61.531441" style="stroke: #000000; stroke-width: 0.8"/>
      </g>
     </g>
     <g id="text_8">
      <!-- 0.98 -->
      <g transform="translate(19.403125 64.968941) scale(0.1 -0.1)">
       <use xlink:href="#SimHei-30"/>
       <use xlink:href="#SimHei-2e" x="50"/>
       <use xlink:href="#SimHei-39" x="100"/>
       <use xlink:href="#SimHei-38" x="150"/>
      </g>
     </g>
    </g>
    <g id="ytick_6">
     <g id="line2d_9">
      <g>
       <use xlink:href="#meefc65f3ad" x="46.403125" y="36.084471" style="stroke: #000000; stroke-width: 0.8"/>
      </g>
     </g>
     <g id="text_9">
      <!-- 1.00 -->
      <g transform="translate(19.403125 39.521971) scale(0.1 -0.1)">
       <use xlink:href="#SimHei-31"/>
       <use xlink:href="#SimHei-2e" x="50"/>
       <use xlink:href="#SimHei-30" x="100"/>
       <use xlink:href="#SimHei-30" x="150"/>
      </g>
     </g>
    </g>
    <g id="ytick_7">
     <g id="line2d_10">
      <g>
       <use xlink:href="#meefc65f3ad" x="46.403125" y="10.6375" style="stroke: #000000; stroke-width: 0.8"/>
      </g>
     </g>
     <g id="text_10">
      <!-- 1.02 -->
      <g transform="translate(19.403125 14.075) scale(0.1 -0.1)">
       <use xlink:href="#SimHei-31"/>
       <use xlink:href="#SimHei-2e" x="50"/>
       <use xlink:href="#SimHei-30" x="100"/>
       <use xlink:href="#SimHei-32" x="150"/>
      </g>
     </g>
    </g>
    <g id="text_11">
     <!-- MV-Sharpe-4yr -->
     <g transform="translate(14.153125 120.68999) rotate(-90) scale(0.1 -0.1)">
      <defs>
       <path id="SimHei-4d" d="M 2925 125 
L 2425 125 
L 2425 3175 
L 2375 3175 
L 1775 125 
L 1375 125 
L 775 3175 
L 725 3175 
L 725 125 
L 225 125 
L 225 4400 
L 1000 4400 
L 1550 1575 
L 1600 1575 
L 2150 4400 
L 2925 4400 
L 2925 125 
z
" transform="scale(0.015625)"/>
       <path id="SimHei-56" d="M 3050 4400 
L 1800 75 
L 1300 75 
L 50 4400 
L 650 4400 
L 1525 1125 
L 1575 1125 
L 2450 4400 
L 3050 4400 
z
" transform="scale(0.015625)"/>
       <path id="SimHei-53" d="M 2900 1325 
Q 2900 750 2537 412 
Q 2175 75 1550 75 
Q 925 75 575 425 
Q 225 775 225 1300 
L 225 1475 
L 800 1475 
L 800 1325 
Q 800 950 1025 750 
Q 1250 550 1550 550 
Q 1950 550 2137 762 
Q 2325 975 2325 1275 
Q 2325 1525 2100 1737 
Q 1875 1950 1450 2125 
Q 850 2350 587 2625 
Q 325 2900 325 3275 
Q 325 3800 687 4125 
Q 1050 4450 1550 4450 
Q 2200 4450 2487 4062 
Q 2775 3675 2775 3225 
L 2200 3225 
Q 2225 3500 2050 3725 
Q 1875 3950 1550 3950 
Q 1250 3950 1075 3787 
Q 900 3625 900 3350 
Q 900 3125 1037 2962 
Q 1175 2800 1750 2575 
Q 2300 2350 2600 2037 
Q 2900 1725 2900 1325 
z
" transform="scale(0.015625)"/>
       <path id="SimHei-68" d="M 2800 125 
L 2300 125 
L 2300 1925 
Q 2300 2225 2150 2400 
Q 2000 2575 1750 2575 
Q 1425 2575 1137 2237 
Q 850 1900 850 1400 
L 850 125 
L 350 125 
L 350 4400 
L 850 4400 
L 850 2400 
Q 1050 2675 1287 2825 
Q 1525 2975 1900 2975 
Q 2350 2975 2575 2725 
Q 2800 2475 2800 2100 
L 2800 125 
z
" transform="scale(0.015625)"/>
       <path id="SimHei-61" d="M 2875 125 
L 2275 125 
Q 2225 175 2200 262 
Q 2175 350 2175 475 
Q 2000 275 1750 175 
Q 1500 75 1225 75 
Q 825 75 550 275 
Q 275 475 275 850 
Q 275 1225 525 1450 
Q 775 1675 1300 1750 
Q 1650 1800 1912 1875 
Q 2175 1950 2175 2075 
Q 2175 2225 2062 2375 
Q 1950 2525 1575 2525 
Q 1275 2525 1137 2412 
Q 1000 2300 950 2100 
L 400 2100 
Q 450 2500 762 2737 
Q 1075 2975 1575 2975 
Q 2125 2975 2400 2725 
Q 2675 2475 2675 2025 
L 2675 650 
Q 2675 500 2725 375 
Q 2775 250 2875 125 
z
M 2175 1050 
L 2175 1550 
Q 2025 1500 1887 1462 
Q 1750 1425 1425 1375 
Q 1050 1325 937 1200 
Q 825 1075 825 900 
Q 825 750 937 637 
Q 1050 525 1275 525 
Q 1500 525 1762 650 
Q 2025 775 2175 1050 
z
" transform="scale(0.015625)"/>
       <path id="SimHei-72" d="M 2500 2425 
Q 2025 2500 1700 2287 
Q 1375 2075 1150 1550 
L 1150 125 
L 650 125 
L 650 2925 
L 1150 2925 
L 1150 2200 
Q 1375 2600 1712 2787 
Q 2050 2975 2500 2975 
L 2500 2425 
z
" transform="scale(0.015625)"/>
       <path id="SimHei-70" d="M 2825 1525 
Q 2825 800 2475 425 
Q 2125 50 1625 50 
Q 1350 50 1150 162 
Q 950 275 800 500 
L 800 -800 
L 300 -800 
L 300 2925 
L 800 2925 
L 800 2550 
Q 950 2775 1150 2875 
Q 1350 2975 1625 2975 
Q 2125 2975 2475 2612 
Q 2825 2250 2825 1525 
z
M 2275 1525 
Q 2275 2000 2087 2262 
Q 1900 2525 1525 2525 
Q 1225 2525 1012 2262 
Q 800 2000 800 1525 
Q 800 1050 1012 775 
Q 1225 500 1525 500 
Q 1900 500 2087 775 
Q 2275 1050 2275 1525 
z
" transform="scale(0.015625)"/>
       <path id="SimHei-65" d="M 2850 1075 
Q 2800 625 2450 350 
Q 2100 75 1625 75 
Q 1025 75 637 462 
Q 250 850 250 1525 
Q 250 2200 637 2587 
Q 1025 2975 1625 2975 
Q 2150 2975 2487 2637 
Q 2825 2300 2825 1525 
L 800 1525 
Q 800 975 1037 750 
Q 1275 525 1625 525 
Q 1900 525 2075 662 
Q 2250 800 2300 1075 
L 2850 1075 
z
M 2250 1925 
Q 2200 2275 2025 2412 
Q 1850 2550 1575 2550 
Q 1325 2550 1125 2412 
Q 925 2275 825 1925 
L 2250 1925 
z
" transform="scale(0.015625)"/>
       <path id="SimHei-79" d="M 2900 2925 
L 1750 -100 
Q 1650 -450 1450 -625 
Q 1250 -800 950 -800 
Q 825 -800 712 -787 
Q 600 -775 500 -725 
L 500 -225 
Q 600 -275 700 -300 
Q 800 -325 875 -325 
Q 1075 -325 1150 -262 
Q 1225 -200 1300 25 
L 200 2925 
L 750 2925 
L 1550 725 
L 1575 725 
L 2350 2925 
L 2900 2925 
z
" transform="scale(0.015625)"/>
      </defs>
      <use xlink:href="#SimHei-4d"/>
      <use xlink:href="#SimHei-56" x="50"/>
      <use xlink:href="#SimHei-2d" x="100"/>
      <use xlink:href="#SimHei-53" x="150"/>
      <use xlink:href="#SimHei-68" x="200"/>
      <use xlink:href="#SimHei-61" x="250"/>
      <use xlink:href="#SimHei-72" x="300"/>
      <use xlink:href="#SimHei-70" x="350"/>
      <use xlink:href="#SimHei-65" x="400"/>
      <use xlink:href="#SimHei-2d" x="450"/>
      <use xlink:href="#SimHei-34" x="500"/>
      <use xlink:href="#SimHei-79" x="550"/>
      <use xlink:href="#SimHei-72" x="600"/>
     </g>
    </g>
   </g>
   <g id="line2d_11">
    <path d="M 56.846975 39.265342 
L 57.912674 44.446218 
L 58.978373 39.402335 
L 60.044072 65.962961 
L 63.241169 73.129544 
L 64.306868 66.180166 
L 65.372567 82.30333 
L 66.438266 74.621541 
L 67.503965 85.493408 
L 70.701062 96.128402 
L 71.766761 85.770558 
L 72.83246 98.908011 
L 73.898159 94.666018 
L 74.963858 86.488372 
L 78.160955 87.090599 
L 79.226654 79.759267 
L 80.292353 67.461449 
L 81.358052 60.57622 
L 82.423751 73.822265 
L 85.620848 75.384515 
L 86.686547 70.088944 
L 87.752246 65.817079 
L 88.817945 84.388258 
L 89.883644 84.212713 
L 93.080742 77.818393 
L 94.146441 77.617801 
L 95.21214 82.689188 
L 96.277839 75.648175 
L 97.343538 83.319613 
L 101.606334 96.778007 
L 103.737732 116.245873 
L 104.803431 100.973173 
L 108.000528 101.2685 
L 109.066227 108.786809 
L 110.131926 118.537492 
L 111.197625 109.280909 
L 122.920314 95.058718 
L 123.986013 93.063955 
L 125.051712 97.703488 
L 126.117411 80.965397 
L 127.18311 88.66655 
L 130.380207 98.500653 
L 131.445906 85.630141 
L 132.511605 85.871106 
L 134.643003 115.394188 
L 137.8401 127.655381 
L 138.905799 109.032792 
L 139.971498 125.282202 
L 141.037197 108.15651 
L 142.102896 103.936466 
L 145.299993 101.665995 
L 146.365692 98.665941 
L 147.431391 98.24929 
L 148.49709 97.181537 
L 149.562789 93.404728 
L 152.759886 104.541878 
L 153.825585 106.540592 
L 155.956983 96.807182 
L 157.022682 100.044181 
L 160.219779 102.350187 
L 161.285478 110.407768 
L 162.351177 102.554941 
L 163.416876 108.556737 
L 164.482575 112.781307 
L 167.679672 114.103519 
L 168.745371 116.597398 
L 169.81107 123.919258 
L 170.876769 121.254304 
L 171.942468 124.198748 
L 175.139565 122.487958 
L 176.205264 126.87667 
L 177.270963 134.225688 
L 178.336662 123.509251 
L 179.402361 129.266932 
L 182.599458 134.063936 
L 183.665157 147.828844 
L 185.796555 158.74999 
L 186.862254 151.655375 
L 190.059351 138.018478 
L 191.12505 134.349303 
L 192.190749 137.22701 
L 193.256448 135.9926 
L 194.322147 148.01978 
L 197.519244 141.583641 
L 198.584943 130.860317 
L 199.650642 123.33235 
L 200.716341 118.975772 
L 201.78204 121.451294 
L 204.979137 115.132014 
L 206.044836 116.60912 
L 207.110535 101.338286 
L 208.176234 101.336069 
L 209.241933 96.143989 
L 213.504729 91.69434 
L 214.570428 86.734112 
L 215.636127 90.105982 
L 216.701826 95.773301 
L 219.898923 111.150536 
L 220.964622 111.813855 
L 222.030321 121.560479 
L 223.09602 125.282989 
L 224.161719 114.46446 
L 227.358816 114.608443 
L 228.424515 99.819757 
L 229.490214 112.027538 
L 230.555913 96.615389 
L 231.621612 96.664688 
L 234.818709 107.537409 
L 235.884408 109.074202 
L 236.950107 85.208691 
L 238.015806 76.408681 
L 239.081505 77.50992 
L 242.278602 75.801137 
L 243.344301 97.241796 
L 244.41 88.720024 
L 245.475699 93.814039 
L 246.541398 96.968213 
L 249.738496 64.905809 
L 250.804195 51.964926 
L 251.869894 54.277442 
L 252.935593 57.324663 
L 264.658282 28.47969 
L 265.723981 17.62999 
L 265.723981 17.62999 
" clip-path="url(#p77d4d5aff1)" style="fill: none; stroke: #1f77b4; stroke-width: 1.5; stroke-linecap: square"/>
   </g>
   <g id="patch_3">
    <path d="M 46.403125 165.80599 
L 46.403125 10.57399 
" style="fill: none; stroke: #000000; stroke-width: 0.8; stroke-linejoin: miter; stroke-linecap: square"/>
   </g>
   <g id="patch_4">
    <path d="M 276.167831 165.80599 
L 276.167831 10.57399 
" style="fill: none; stroke: #000000; stroke-width: 0.8; stroke-linejoin: miter; stroke-linecap: square"/>
   </g>
   <g id="patch_5">
    <path d="M 46.403125 165.80599 
L 276.167831 165.80599 
" style="fill: none; stroke: #000000; stroke-width: 0.8; stroke-linejoin: miter; stroke-linecap: square"/>
   </g>
   <g id="patch_6">
    <path d="M 46.403125 10.57399 
L 276.167831 10.57399 
" style="fill: none; stroke: #000000; stroke-width: 0.8; stroke-linejoin: miter; stroke-linecap: square"/>
   </g>
  </g>
  <g id="axes_2">
   <g id="patch_7">
    <path d="M 322.120772 165.80599 
L 551.885478 165.80599 
L 551.885478 10.57399 
L 322.120772 10.57399 
z
" style="fill: #ffffff"/>
   </g>
   <g id="matplotlib.axis_3">
    <g id="xtick_4">
     <g id="line2d_12">
      <g>
       <use xlink:href="#md3119fda7e" x="379.455379" y="165.80599" style="stroke: #000000; stroke-width: 0.8"/>
      </g>
     </g>
     <g id="text_12">
      <!-- 2023-09-20 -->
      <g transform="translate(354.455379 179.68099) scale(0.1 -0.1)">
       <use xlink:href="#SimHei-32"/>
       <use xlink:href="#SimHei-30" x="50"/>
       <use xlink:href="#SimHei-32" x="100"/>
       <use xlink:href="#SimHei-33" x="150"/>
       <use xlink:href="#SimHei-2d" x="200"/>
       <use xlink:href="#SimHei-30" x="250"/>
       <use xlink:href="#SimHei-39" x="300"/>
       <use xlink:href="#SimHei-2d" x="350"/>
       <use xlink:href="#SimHei-32" x="400"/>
       <use xlink:href="#SimHei-30" x="450"/>
      </g>
     </g>
    </g>
    <g id="xtick_5">
     <g id="line2d_13">
      <g>
       <use xlink:href="#md3119fda7e" x="443.397319" y="165.80599" style="stroke: #000000; stroke-width: 0.8"/>
      </g>
     </g>
     <g id="text_13">
      <!-- 2023-11-19 -->
      <g transform="translate(418.397319 179.68099) scale(0.1 -0.1)">
       <use xlink:href="#SimHei-32"/>
       <use xlink:href="#SimHei-30" x="50"/>
       <use xlink:href="#SimHei-32" x="100"/>
       <use xlink:href="#SimHei-33" x="150"/>
       <use xlink:href="#SimHei-2d" x="200"/>
       <use xlink:href="#SimHei-31" x="250"/>
       <use xlink:href="#SimHei-31" x="300"/>
       <use xlink:href="#SimHei-2d" x="350"/>
       <use xlink:href="#SimHei-31" x="400"/>
       <use xlink:href="#SimHei-39" x="450"/>
      </g>
     </g>
    </g>
    <g id="xtick_6">
     <g id="line2d_14">
      <g>
       <use xlink:href="#md3119fda7e" x="507.339259" y="165.80599" style="stroke: #000000; stroke-width: 0.8"/>
      </g>
     </g>
     <g id="text_14">
      <!-- 2024-01-18 -->
      <g transform="translate(482.339259 179.68099) scale(0.1 -0.1)">
       <use xlink:href="#SimHei-32"/>
       <use xlink:href="#SimHei-30" x="50"/>
       <use xlink:href="#SimHei-32" x="100"/>
       <use xlink:href="#SimHei-34" x="150"/>
       <use xlink:href="#SimHei-2d" x="200"/>
       <use xlink:href="#SimHei-30" x="250"/>
       <use xlink:href="#SimHei-31" x="300"/>
       <use xlink:href="#SimHei-2d" x="350"/>
       <use xlink:href="#SimHei-31" x="400"/>
       <use xlink:href="#SimHei-38" x="450"/>
      </g>
     </g>
    </g>
   </g>
   <g id="matplotlib.axis_4">
    <g id="ytick_8">
     <g id="line2d_15">
      <g>
       <use xlink:href="#meefc65f3ad" x="322.120772" y="158.74999" style="stroke: #000000; stroke-width: 0.8"/>
      </g>
     </g>
     <g id="text_15">
      <!-- 0.0 -->
      <g transform="translate(300.120772 162.18749) scale(0.1 -0.1)">
       <use xlink:href="#SimHei-30"/>
       <use xlink:href="#SimHei-2e" x="50"/>
       <use xlink:href="#SimHei-30" x="100"/>
      </g>
     </g>
    </g>
    <g id="ytick_9">
     <g id="line2d_16">
      <g>
       <use xlink:href="#meefc65f3ad" x="322.120772" y="130.52599" style="stroke: #000000; stroke-width: 0.8"/>
      </g>
     </g>
     <g id="text_16">
      <!-- 0.2 -->
      <g transform="translate(300.120772 133.96349) scale(0.1 -0.1)">
       <use xlink:href="#SimHei-30"/>
       <use xlink:href="#SimHei-2e" x="50"/>
       <use xlink:href="#SimHei-32" x="100"/>
      </g>
     </g>
    </g>
    <g id="ytick_10">
     <g id="line2d_17">
      <g>
       <use xlink:href="#meefc65f3ad" x="322.120772" y="102.30199" style="stroke: #000000; stroke-width: 0.8"/>
      </g>
     </g>
     <g id="text_17">
      <!-- 0.4 -->
      <g transform="translate(300.120772 105.73949) scale(0.1 -0.1)">
       <use xlink:href="#SimHei-30"/>
       <use xlink:href="#SimHei-2e" x="50"/>
       <use xlink:href="#SimHei-34" x="100"/>
      </g>
     </g>
    </g>
    <g id="ytick_11">
     <g id="line2d_18">
      <g>
       <use xlink:href="#meefc65f3ad" x="322.120772" y="74.07799" style="stroke: #000000; stroke-width: 0.8"/>
      </g>
     </g>
     <g id="text_18">
      <!-- 0.6 -->
      <g transform="translate(300.120772 77.51549) scale(0.1 -0.1)">
       <use xlink:href="#SimHei-30"/>
       <use xlink:href="#SimHei-2e" x="50"/>
       <use xlink:href="#SimHei-36" x="100"/>
      </g>
     </g>
    </g>
    <g id="ytick_12">
     <g id="line2d_19">
      <g>
       <use xlink:href="#meefc65f3ad" x="322.120772" y="45.85399" style="stroke: #000000; stroke-width: 0.8"/>
      </g>
     </g>
     <g id="text_19">
      <!-- 0.8 -->
      <g transform="translate(300.120772 49.29149) scale(0.1 -0.1)">
       <use xlink:href="#SimHei-30"/>
       <use xlink:href="#SimHei-2e" x="50"/>
       <use xlink:href="#SimHei-38" x="100"/>
      </g>
     </g>
    </g>
    <g id="ytick_13">
     <g id="line2d_20">
      <g>
       <use xlink:href="#meefc65f3ad" x="322.120772" y="17.62999" style="stroke: #000000; stroke-width: 0.8"/>
      </g>
     </g>
     <g id="text_20">
      <!-- 1.0 -->
      <g transform="translate(300.120772 21.06749) scale(0.1 -0.1)">
       <use xlink:href="#SimHei-31"/>
       <use xlink:href="#SimHei-2e" x="50"/>
       <use xlink:href="#SimHei-30" x="100"/>
      </g>
     </g>
    </g>
   </g>
   <g id="line2d_21">
    <path d="M 332.564622 158.74999 
L 451.922911 158.74999 
L 452.98861 157.351041 
L 454.054309 158.170938 
L 456.185707 155.340854 
L 459.382804 157.254679 
L 460.448503 158.74999 
L 541.441628 158.74999 
L 541.441628 158.74999 
" clip-path="url(#pf84adbed48)" style="fill: none; stroke: #1f77b4; stroke-width: 1.5; stroke-linecap: square"/>
   </g>
   <g id="line2d_22">
    <path d="M 332.564622 158.74999 
L 333.630321 158.256059 
L 335.761719 157.957562 
L 336.827418 158.080356 
L 340.024515 158.212978 
L 342.155913 158.045809 
L 343.221612 158.169784 
L 344.287311 156.991299 
L 347.484408 156.022022 
L 348.550107 156.701324 
L 349.615806 154.843558 
L 350.681505 155.965387 
L 351.747204 156.534553 
L 354.944301 153.920915 
L 356.01 153.696414 
L 357.075699 153.612921 
L 358.141398 152.942916 
L 359.207097 151.801183 
L 362.404195 151.509355 
L 363.469894 152.22916 
L 364.535593 152.222285 
L 365.601292 152.466502 
L 366.666991 152.853427 
L 369.864088 153.412728 
L 370.929787 153.048386 
L 371.995486 151.174654 
L 373.061185 150.250457 
L 374.126884 149.988413 
L 377.323981 151.055295 
L 378.38968 150.481259 
L 379.455379 149.096974 
L 380.521078 150.147938 
L 381.586777 153.941158 
L 384.783874 152.572817 
L 385.849573 152.501443 
L 386.915272 153.044073 
L 387.980971 152.482082 
L 399.70366 152.216946 
L 400.769359 153.747392 
L 401.835058 153.833628 
L 402.900757 155.180716 
L 403.966456 154.808121 
L 407.163553 154.223833 
L 408.229252 153.898103 
L 409.294951 155.14413 
L 410.36065 155.249946 
L 411.426349 156.469502 
L 414.623446 158.394997 
L 415.689145 157.904414 
L 416.754844 158.749987 
L 417.820543 158.659614 
L 418.886242 157.783304 
L 422.083339 158.74999 
L 426.346135 158.74999 
L 430.608931 158.74999 
L 431.67463 157.882227 
L 433.806028 158.74999 
L 446.594416 158.749989 
L 447.660115 158.451639 
L 448.725814 156.706499 
L 451.922911 158.404772 
L 452.98861 158.74999 
L 455.120008 158.74999 
L 456.185707 158.067092 
L 459.382804 157.517904 
L 460.448503 158.749988 
L 541.441628 158.74999 
L 541.441628 158.74999 
" clip-path="url(#pf84adbed48)" style="fill: none; stroke: #ff7f0e; stroke-width: 1.5; stroke-linecap: square"/>
   </g>
   <g id="line2d_23">
    <path d="M 332.564622 158.74999 
L 333.630321 131.135294 
L 334.69602 130.90335 
L 335.761719 129.980341 
L 340.024515 129.455177 
L 341.090214 127.381549 
L 342.155913 128.909683 
L 343.221612 129.664519 
L 344.287311 130.171135 
L 347.484408 130.53465 
L 348.550107 131.597089 
L 349.615806 130.919222 
L 350.681505 131.320114 
L 351.747204 131.033874 
L 354.944301 128.554122 
L 356.01 129.186673 
L 357.075699 130.290707 
L 358.141398 130.739441 
L 359.207097 130.867197 
L 362.404195 131.006374 
L 363.469894 128.978286 
L 364.535593 129.719546 
L 365.601292 130.768878 
L 366.666991 130.069072 
L 369.864088 131.360145 
L 370.929787 129.302428 
L 371.995486 129.878479 
L 373.061185 128.876078 
L 374.126884 129.033639 
L 377.323981 130.487948 
L 378.38968 129.978375 
L 379.455379 129.271179 
L 380.521078 129.595058 
L 381.586777 129.204994 
L 384.783874 128.986931 
L 385.849573 128.58944 
L 386.915272 129.247164 
L 387.980971 130.985417 
L 399.70366 130.426508 
L 400.769359 127.896791 
L 401.835058 127.397971 
L 402.900757 127.246257 
L 403.966456 127.680916 
L 407.163553 128.009196 
L 409.294951 129.279399 
L 410.36065 129.529289 
L 411.426349 129.213739 
L 414.623446 128.595024 
L 415.689145 128.529134 
L 416.754844 129.324777 
L 417.820543 127.914414 
L 418.886242 128.723945 
L 422.083339 128.812781 
L 423.149038 128.268831 
L 424.214737 127.182708 
L 426.346135 129.622611 
L 429.543232 130.002402 
L 430.608931 128.835762 
L 431.67463 128.072089 
L 432.740329 126.825043 
L 433.806028 126.734226 
L 437.003125 126.758055 
L 439.134523 125.134507 
L 440.200222 124.94642 
L 441.265921 127.689619 
L 444.463018 127.616991 
L 445.528717 128.190793 
L 446.594416 128.398082 
L 447.660115 131.463491 
L 448.725814 131.921739 
L 451.922911 132.038343 
L 452.98861 129.602261 
L 454.054309 128.349241 
L 455.120008 127.576237 
L 456.185707 126.099715 
L 460.448503 127.56304 
L 461.514202 126.490969 
L 462.579901 126.478804 
L 463.6456 126.821536 
L 466.842697 127.487619 
L 467.908396 126.453891 
L 468.974095 126.698034 
L 470.039794 128.681216 
L 471.105493 127.962908 
L 474.30259 127.760491 
L 475.368289 127.101784 
L 476.433988 128.712232 
L 477.499687 128.794922 
L 478.565386 129.70508 
L 481.762483 129.261021 
L 482.828182 129.84051 
L 483.893881 129.967503 
L 484.95958 130.40469 
L 486.025279 129.553976 
L 490.288075 127.785855 
L 491.353774 129.001 
L 492.419473 129.206969 
L 493.485172 129.134741 
L 496.682269 129.210784 
L 497.747968 131.786826 
L 498.813667 132.877015 
L 499.879366 131.472326 
L 500.945065 130.265906 
L 504.142162 129.060818 
L 505.207861 129.137264 
L 506.27356 129.829353 
L 507.339259 128.562711 
L 508.404958 125.922951 
L 511.602055 124.798745 
L 512.667754 128.013484 
L 513.733453 127.5405 
L 514.799153 128.028633 
L 515.864852 130.568341 
L 519.061949 132.115969 
L 520.127648 136.054373 
L 521.193347 138.429183 
L 522.259046 139.576953 
L 523.324745 139.485374 
L 526.521842 138.865686 
L 527.587541 138.501715 
L 528.65324 139.016409 
L 529.718939 137.752793 
L 541.441628 137.525158 
L 541.441628 137.525158 
" clip-path="url(#pf84adbed48)" style="fill: none; stroke: #2ca02c; stroke-width: 1.5; stroke-linecap: square"/>
   </g>
   <g id="line2d_24">
    <path d="M 332.564622 158.74999 
L 541.441628 158.74999 
L 541.441628 158.74999 
" clip-path="url(#pf84adbed48)" style="fill: none; stroke: #d62728; stroke-width: 1.5; stroke-linecap: square"/>
   </g>
   <g id="line2d_25">
    <path d="M 332.564622 158.74999 
L 541.441628 158.74999 
L 541.441628 158.74999 
" clip-path="url(#pf84adbed48)" style="fill: none; stroke: #9467bd; stroke-width: 1.5; stroke-linecap: square"/>
   </g>
   <g id="line2d_26">
    <path d="M 332.564622 158.74999 
L 541.441628 158.74999 
L 541.441628 158.74999 
" clip-path="url(#pf84adbed48)" style="fill: none; stroke: #8c564b; stroke-width: 1.5; stroke-linecap: square"/>
   </g>
   <g id="line2d_27">
    <path d="M 332.564622 158.74999 
L 333.630321 128.498629 
L 334.69602 129.060904 
L 335.761719 128.440581 
L 340.024515 128.284772 
L 341.090214 128.062584 
L 342.155913 128.675368 
L 343.221612 129.563211 
L 344.287311 129.09383 
L 348.550107 129.46757 
L 349.615806 128.551932 
L 350.681505 128.483177 
L 351.747204 129.739913 
L 354.944301 129.389718 
L 356.01 130.647427 
L 358.141398 128.513792 
L 359.207097 128.469514 
L 363.469894 129.14591 
L 364.535593 129.095256 
L 365.601292 128.430703 
L 366.666991 128.608296 
L 369.864088 128.330949 
L 370.929787 127.600691 
L 371.995486 127.185075 
L 374.126884 129.430947 
L 377.323981 131.535108 
L 378.38968 130.100474 
L 379.455379 130.916197 
L 380.521078 130.007526 
L 381.586777 129.839369 
L 384.783874 130.022841 
L 386.915272 128.961031 
L 387.980971 130.434738 
L 399.70366 130.648827 
L 400.769359 131.774115 
L 401.835058 130.426859 
L 402.900757 129.612402 
L 403.966456 130.010208 
L 407.163553 131.846254 
L 408.229252 132.918642 
L 409.294951 133.217278 
L 410.36065 132.289453 
L 411.426349 130.991034 
L 414.623446 130.626004 
L 415.689145 129.641317 
L 417.820543 129.013977 
L 418.886242 126.532476 
L 422.083339 126.176318 
L 423.149038 125.280902 
L 424.214737 124.558636 
L 425.280436 125.335318 
L 426.346135 127.193683 
L 429.543232 127.984203 
L 430.608931 129.223594 
L 431.67463 128.870444 
L 432.740329 129.8896 
L 433.806028 130.571403 
L 437.003125 131.392922 
L 438.068824 131.027051 
L 439.134523 130.446496 
L 440.200222 130.517051 
L 441.265921 131.130882 
L 444.463018 131.665052 
L 445.528717 130.909742 
L 446.594416 131.52041 
L 448.725814 133.44842 
L 451.922911 133.334693 
L 452.98861 133.666622 
L 455.120008 135.751146 
L 456.185707 134.599282 
L 460.448503 136.575524 
L 461.514202 136.35538 
L 462.579901 139.310691 
L 463.6456 139.039939 
L 466.842697 139.690433 
L 467.908396 140.259035 
L 468.974095 140.964792 
L 470.039794 140.63579 
L 471.105493 141.690272 
L 474.30259 140.136383 
L 475.368289 140.409089 
L 476.433988 140.24209 
L 477.499687 140.51236 
L 478.565386 141.379807 
L 481.762483 140.795258 
L 482.828182 139.6935 
L 483.893881 141.137044 
L 490.288075 140.237824 
L 491.353774 140.496767 
L 492.419473 140.994564 
L 493.485172 140.635932 
L 496.682269 141.41691 
L 497.747968 139.998689 
L 498.813667 141.979842 
L 499.879366 142.532689 
L 500.945065 143.627014 
L 504.142162 144.789657 
L 505.207861 145.529026 
L 506.27356 145.172705 
L 507.339259 145.691092 
L 508.404958 146.053013 
L 511.602055 144.747085 
L 513.733453 144.29972 
L 514.799153 144.538736 
L 515.864852 145.71072 
L 519.061949 143.825907 
L 520.127648 139.714824 
L 521.193347 139.383464 
L 522.259046 139.188906 
L 523.324745 139.809007 
L 527.587541 139.320686 
L 528.65324 138.2782 
L 529.718939 136.654112 
L 541.441628 135.328771 
L 541.441628 135.328771 
" clip-path="url(#pf84adbed48)" style="fill: none; stroke: #e377c2; stroke-width: 1.5; stroke-linecap: square"/>
   </g>
   <g id="line2d_28">
    <path d="M 332.564622 158.74999 
L 333.630321 93.225726 
L 334.69602 89.269573 
L 335.761719 87.580484 
L 336.827418 87.800405 
L 340.024515 87.106196 
L 341.090214 84.383188 
L 342.155913 78.249104 
L 343.221612 77.808345 
L 344.287311 81.545922 
L 347.484408 79.498608 
L 348.550107 79.657762 
L 349.615806 80.690596 
L 350.681505 78.111287 
L 351.747204 78.978443 
L 354.944301 83.197213 
L 356.01 80.349449 
L 357.075699 83.743608 
L 358.141398 85.483701 
L 359.207097 82.742115 
L 362.404195 83.978662 
L 364.535593 91.83852 
L 365.601292 88.12217 
L 366.666991 87.966825 
L 369.864088 86.09032 
L 370.929787 89.886728 
L 371.995486 91.218745 
L 373.061185 94.305287 
L 374.126884 90.671749 
L 377.323981 88.560302 
L 378.38968 87.189457 
L 379.455379 91.27557 
L 380.521078 92.28236 
L 381.586777 89.429841 
L 384.783874 90.103673 
L 385.849573 93.2755 
L 386.915272 96.069332 
L 387.980971 94.345874 
L 399.70366 97.909999 
L 400.769359 96.316162 
L 401.835058 98.078538 
L 402.900757 97.304775 
L 403.966456 94.90009 
L 407.163553 99.650088 
L 408.229252 99.197368 
L 409.294951 99.111484 
L 410.36065 101.059215 
L 411.426349 103.59114 
L 414.623446 98.546881 
L 415.689145 97.113483 
L 416.754844 96.995378 
L 417.820543 94.22188 
L 418.886242 100.843972 
L 422.083339 100.976825 
L 423.149038 99.706958 
L 424.214737 90.093103 
L 425.280436 88.941079 
L 426.346135 85.08686 
L 429.543232 86.454753 
L 430.608931 82.053895 
L 431.67463 84.163703 
L 432.740329 84.067805 
L 433.806028 80.291877 
L 437.003125 82.333592 
L 438.068824 80.38515 
L 439.134523 81.41868 
L 440.200222 84.663795 
L 441.265921 83.182147 
L 444.463018 83.681522 
L 445.528717 81.711162 
L 446.594416 83.374247 
L 447.660115 82.580237 
L 448.725814 82.345182 
L 451.922911 78.031629 
L 452.98861 77.256003 
L 454.054309 76.298548 
L 455.120008 80.45619 
L 456.185707 79.104816 
L 459.382804 74.695556 
L 460.448503 70.991417 
L 461.514202 72.283622 
L 462.579901 69.340477 
L 463.6456 69.268497 
L 466.842697 67.95192 
L 467.908396 68.417046 
L 468.974095 67.467146 
L 470.039794 65.812965 
L 471.105493 65.476793 
L 474.30259 67.233097 
L 475.368289 67.6191 
L 476.433988 66.175649 
L 477.499687 65.82269 
L 478.565386 64.045084 
L 481.762483 65.073693 
L 482.828182 65.595961 
L 483.893881 64.025425 
L 484.95958 63.724126 
L 486.025279 64.647935 
L 490.288075 67.106293 
L 491.353774 65.632205 
L 492.419473 64.928439 
L 493.485172 65.359299 
L 496.682269 64.502278 
L 497.747968 63.344457 
L 498.813667 60.273114 
L 499.879366 61.124958 
L 500.945065 61.237054 
L 504.142162 61.279497 
L 505.207861 60.463687 
L 506.27356 61.198663 
L 507.339259 64.15885 
L 508.404958 63.154009 
L 511.602055 65.584142 
L 512.667754 62.5862 
L 513.733453 63.289756 
L 514.799153 63.671494 
L 515.864852 63.390652 
L 520.127648 70.852674 
L 521.193347 74.623398 
L 522.259046 72.818343 
L 523.324745 72.564093 
L 526.521842 72.600727 
L 527.587541 69.376552 
L 528.65324 75.79322 
L 529.718939 74.511086 
L 541.441628 73.493505 
L 541.441628 73.493505 
" clip-path="url(#pf84adbed48)" style="fill: none; stroke: #7f7f7f; stroke-width: 1.5; stroke-linecap: square"/>
   </g>
   <g id="line2d_29">
    <path d="M 332.564622 158.74999 
L 541.441628 158.74999 
L 541.441628 158.74999 
" clip-path="url(#pf84adbed48)" style="fill: none; stroke: #bcbd22; stroke-width: 1.5; stroke-linecap: square"/>
   </g>
   <g id="line2d_30">
    <path d="M 332.564622 158.74999 
L 333.630321 141.514243 
L 335.761719 148.670985 
L 336.827418 148.458481 
L 340.024515 149.57083 
L 341.090214 154.688253 
L 342.155913 158.749989 
L 343.221612 157.424093 
L 344.287311 154.827766 
L 347.484408 157.134042 
L 348.550107 155.206209 
L 349.615806 157.624644 
L 350.681505 158.749988 
L 351.747204 156.343171 
L 354.944301 157.567985 
L 356.01 158.74999 
L 357.075699 155.428463 
L 358.141398 154.950102 
L 359.207097 158.749944 
L 362.404195 157.089118 
L 363.469894 154.35274 
L 364.535593 149.754346 
L 365.601292 152.841699 
L 366.666991 153.132334 
L 369.864088 153.435812 
L 370.929787 152.791719 
L 371.995486 153.173 
L 373.061185 150.926322 
L 374.126884 153.505205 
L 377.323981 150.9913 
L 378.38968 154.880387 
L 379.455379 152.070033 
L 380.521078 150.597071 
L 381.586777 150.214591 
L 384.783874 150.943691 
L 385.849573 148.758878 
L 386.915272 145.308352 
L 387.980971 144.381842 
L 399.70366 141.427672 
L 400.769359 142.895493 
L 401.835058 142.892956 
L 402.900757 143.285801 
L 403.966456 145.230618 
L 407.163553 138.900582 
L 408.229252 137.977709 
L 409.294951 135.877663 
L 410.36065 134.502051 
L 411.426349 132.364536 
L 414.623446 136.467046 
L 415.689145 139.441605 
L 416.754844 138.283803 
L 417.820543 142.820068 
L 418.886242 138.746256 
L 422.083339 137.914038 
L 423.149038 140.647123 
L 424.214737 152.045515 
L 425.280436 151.129146 
L 426.346135 151.976808 
L 429.543232 149.438604 
L 430.608931 153.766711 
L 432.740329 153.548889 
L 433.806028 156.282456 
L 437.003125 153.395394 
L 438.068824 156.588827 
L 439.134523 156.880279 
L 440.200222 153.752697 
L 441.265921 151.877315 
L 444.463018 150.916398 
L 445.528717 153.068266 
L 446.594416 150.587225 
L 447.660115 147.722291 
L 448.725814 148.208113 
L 451.922911 150.820515 
L 452.98861 154.754025 
L 454.054309 155.153941 
L 455.120008 152.103711 
L 456.185707 158.168184 
L 459.382804 158.749983 
L 505.207861 158.749985 
L 506.27356 157.679241 
L 507.339259 155.46731 
L 508.404958 158.74999 
L 513.733453 158.749987 
L 514.799153 157.641099 
L 515.864852 154.210249 
L 519.061949 148.811592 
L 520.127648 147.25809 
L 521.193347 141.443917 
L 522.259046 142.295761 
L 523.324745 142.021488 
L 526.521842 142.991413 
L 527.587541 146.681009 
L 528.65324 140.792133 
L 529.718939 144.961971 
L 541.441628 147.532527 
L 541.441628 147.532527 
" clip-path="url(#pf84adbed48)" style="fill: none; stroke: #17becf; stroke-width: 1.5; stroke-linecap: square"/>
   </g>
   <g id="line2d_31">
    <path d="M 332.564622 17.62999 
L 333.630321 158.74999 
L 541.441628 158.74999 
L 541.441628 158.74999 
" clip-path="url(#pf84adbed48)" style="fill: none; stroke: #1f77b4; stroke-width: 1.5; stroke-linecap: square"/>
   </g>
   <g id="patch_8">
    <path d="M 322.120772 165.80599 
L 322.120772 10.57399 
" style="fill: none; stroke: #000000; stroke-width: 0.8; stroke-linejoin: miter; stroke-linecap: square"/>
   </g>
   <g id="patch_9">
    <path d="M 551.885478 165.80599 
L 551.885478 10.57399 
" style="fill: none; stroke: #000000; stroke-width: 0.8; stroke-linejoin: miter; stroke-linecap: square"/>
   </g>
   <g id="patch_10">
    <path d="M 322.120772 165.80599 
L 551.885478 165.80599 
" style="fill: none; stroke: #000000; stroke-width: 0.8; stroke-linejoin: miter; stroke-linecap: square"/>
   </g>
   <g id="patch_11">
    <path d="M 322.120772 10.57399 
L 551.885478 10.57399 
" style="fill: none; stroke: #000000; stroke-width: 0.8; stroke-linejoin: miter; stroke-linecap: square"/>
   </g>
   <g id="legend_1">
    <g id="patch_12">
     <path d="M 457.885478 151.98024 
L 544.885478 151.98024 
Q 546.885478 151.98024 546.885478 149.98024 
L 546.885478 17.57399 
Q 546.885478 15.57399 544.885478 15.57399 
L 457.885478 15.57399 
Q 455.885478 15.57399 455.885478 17.57399 
L 455.885478 149.98024 
Q 455.885478 151.98024 457.885478 151.98024 
z
" style="fill: #ffffff; opacity: 0.8; stroke: #cccccc; stroke-linejoin: miter"/>
    </g>
    <g id="line2d_32">
     <path d="M 459.885478 23.10524 
L 469.885478 23.10524 
L 479.885478 23.10524 
" style="fill: none; stroke: #1f77b4; stroke-width: 1.5; stroke-linecap: square"/>
    </g>
    <g id="text_21">
     <!-- w_002027.SZ -->
     <g transform="translate(487.885478 26.60524) scale(0.1 -0.1)">
      <defs>
       <path id="SimHei-77" d="M 3075 2925 
L 2450 75 
L 1975 75 
L 1575 2250 
L 1525 2250 
L 1125 75 
L 650 75 
L 25 2925 
L 550 2925 
L 875 1050 
L 925 1050 
L 1275 2925 
L 1825 2925 
L 2175 1050 
L 2225 1050 
L 2550 2925 
L 3075 2925 
z
" transform="scale(0.015625)"/>
       <path id="SimHei-5f" d="M 3150 -850 
L 0 -850 
L 0 -550 
L 3150 -550 
L 3150 -850 
z
" transform="scale(0.015625)"/>
       <path id="SimHei-37" d="M 850 150 
Q 1300 2050 2425 3925 
L 275 3925 
L 275 4375 
L 2950 4375 
L 2950 3950 
Q 1775 2050 1400 150 
L 850 150 
z
" transform="scale(0.015625)"/>
       <path id="SimHei-5a" d="M 2900 125 
L 225 125 
L 225 600 
L 2250 3925 
L 375 3925 
L 375 4400 
L 2825 4400 
L 2825 3925 
L 800 600 
L 2900 600 
L 2900 125 
z
" transform="scale(0.015625)"/>
      </defs>
      <use xlink:href="#SimHei-77"/>
      <use xlink:href="#SimHei-5f" x="50"/>
      <use xlink:href="#SimHei-30" x="100"/>
      <use xlink:href="#SimHei-30" x="150"/>
      <use xlink:href="#SimHei-32" x="200"/>
      <use xlink:href="#SimHei-30" x="250"/>
      <use xlink:href="#SimHei-32" x="300"/>
      <use xlink:href="#SimHei-37" x="350"/>
      <use xlink:href="#SimHei-2e" x="400"/>
      <use xlink:href="#SimHei-53" x="450"/>
      <use xlink:href="#SimHei-5a" x="500"/>
     </g>
    </g>
    <g id="line2d_33">
     <path d="M 459.885478 36.464615 
L 469.885478 36.464615 
L 479.885478 36.464615 
" style="fill: none; stroke: #ff7f0e; stroke-width: 1.5; stroke-linecap: square"/>
    </g>
    <g id="text_22">
     <!-- w_002371.SZ -->
     <g transform="translate(487.885478 39.964615) scale(0.1 -0.1)">
      <use xlink:href="#SimHei-77"/>
      <use xlink:href="#SimHei-5f" x="50"/>
      <use xlink:href="#SimHei-30" x="100"/>
      <use xlink:href="#SimHei-30" x="150"/>
      <use xlink:href="#SimHei-32" x="200"/>
      <use xlink:href="#SimHei-33" x="250"/>
      <use xlink:href="#SimHei-37" x="300"/>
      <use xlink:href="#SimHei-31" x="350"/>
      <use xlink:href="#SimHei-2e" x="400"/>
      <use xlink:href="#SimHei-53" x="450"/>
      <use xlink:href="#SimHei-5a" x="500"/>
     </g>
    </g>
    <g id="line2d_34">
     <path d="M 459.885478 49.79274 
L 469.885478 49.79274 
L 479.885478 49.79274 
" style="fill: none; stroke: #2ca02c; stroke-width: 1.5; stroke-linecap: square"/>
    </g>
    <g id="text_23">
     <!-- w_600009.SH -->
     <g transform="translate(487.885478 53.29274) scale(0.1 -0.1)">
      <defs>
       <path id="SimHei-48" d="M 2850 125 
L 2275 125 
L 2275 2125 
L 850 2125 
L 850 125 
L 275 125 
L 275 4400 
L 850 4400 
L 850 2600 
L 2275 2600 
L 2275 4400 
L 2850 4400 
L 2850 125 
z
" transform="scale(0.015625)"/>
      </defs>
      <use xlink:href="#SimHei-77"/>
      <use xlink:href="#SimHei-5f" x="50"/>
      <use xlink:href="#SimHei-36" x="100"/>
      <use xlink:href="#SimHei-30" x="150"/>
      <use xlink:href="#SimHei-30" x="200"/>
      <use xlink:href="#SimHei-30" x="250"/>
      <use xlink:href="#SimHei-30" x="300"/>
      <use xlink:href="#SimHei-39" x="350"/>
      <use xlink:href="#SimHei-2e" x="400"/>
      <use xlink:href="#SimHei-53" x="450"/>
      <use xlink:href="#SimHei-48" x="500"/>
     </g>
    </g>
    <g id="line2d_35">
     <path d="M 459.885478 63.152115 
L 469.885478 63.152115 
L 479.885478 63.152115 
" style="fill: none; stroke: #d62728; stroke-width: 1.5; stroke-linecap: square"/>
    </g>
    <g id="text_24">
     <!-- w_600029.SH -->
     <g transform="translate(487.885478 66.652115) scale(0.1 -0.1)">
      <use xlink:href="#SimHei-77"/>
      <use xlink:href="#SimHei-5f" x="50"/>
      <use xlink:href="#SimHei-36" x="100"/>
      <use xlink:href="#SimHei-30" x="150"/>
      <use xlink:href="#SimHei-30" x="200"/>
      <use xlink:href="#SimHei-30" x="250"/>
      <use xlink:href="#SimHei-32" x="300"/>
      <use xlink:href="#SimHei-39" x="350"/>
      <use xlink:href="#SimHei-2e" x="400"/>
      <use xlink:href="#SimHei-53" x="450"/>
      <use xlink:href="#SimHei-48" x="500"/>
     </g>
    </g>
    <g id="line2d_36">
     <path d="M 459.885478 76.51149 
L 469.885478 76.51149 
L 479.885478 76.51149 
" style="fill: none; stroke: #9467bd; stroke-width: 1.5; stroke-linecap: square"/>
    </g>
    <g id="text_25">
     <!-- w_600183.SH -->
     <g transform="translate(487.885478 80.01149) scale(0.1 -0.1)">
      <use xlink:href="#SimHei-77"/>
      <use xlink:href="#SimHei-5f" x="50"/>
      <use xlink:href="#SimHei-36" x="100"/>
      <use xlink:href="#SimHei-30" x="150"/>
      <use xlink:href="#SimHei-30" x="200"/>
      <use xlink:href="#SimHei-31" x="250"/>
      <use xlink:href="#SimHei-38" x="300"/>
      <use xlink:href="#SimHei-33" x="350"/>
      <use xlink:href="#SimHei-2e" x="400"/>
      <use xlink:href="#SimHei-53" x="450"/>
      <use xlink:href="#SimHei-48" x="500"/>
     </g>
    </g>
    <g id="line2d_37">
     <path d="M 459.885478 89.839615 
L 469.885478 89.839615 
L 479.885478 89.839615 
" style="fill: none; stroke: #8c564b; stroke-width: 1.5; stroke-linecap: square"/>
    </g>
    <g id="text_26">
     <!-- w_600406.SH -->
     <g transform="translate(487.885478 93.339615) scale(0.1 -0.1)">
      <use xlink:href="#SimHei-77"/>
      <use xlink:href="#SimHei-5f" x="50"/>
      <use xlink:href="#SimHei-36" x="100"/>
      <use xlink:href="#SimHei-30" x="150"/>
      <use xlink:href="#SimHei-30" x="200"/>
      <use xlink:href="#SimHei-34" x="250"/>
      <use xlink:href="#SimHei-30" x="300"/>
      <use xlink:href="#SimHei-36" x="350"/>
      <use xlink:href="#SimHei-2e" x="400"/>
      <use xlink:href="#SimHei-53" x="450"/>
      <use xlink:href="#SimHei-48" x="500"/>
     </g>
    </g>
    <g id="line2d_38">
     <path d="M 459.885478 103.16774 
L 469.885478 103.16774 
L 479.885478 103.16774 
" style="fill: none; stroke: #e377c2; stroke-width: 1.5; stroke-linecap: square"/>
    </g>
    <g id="text_27">
     <!-- w_600900.SH -->
     <g transform="translate(487.885478 106.66774) scale(0.1 -0.1)">
      <use xlink:href="#SimHei-77"/>
      <use xlink:href="#SimHei-5f" x="50"/>
      <use xlink:href="#SimHei-36" x="100"/>
      <use xlink:href="#SimHei-30" x="150"/>
      <use xlink:href="#SimHei-30" x="200"/>
      <use xlink:href="#SimHei-39" x="250"/>
      <use xlink:href="#SimHei-30" x="300"/>
      <use xlink:href="#SimHei-30" x="350"/>
      <use xlink:href="#SimHei-2e" x="400"/>
      <use xlink:href="#SimHei-53" x="450"/>
      <use xlink:href="#SimHei-48" x="500"/>
     </g>
    </g>
    <g id="line2d_39">
     <path d="M 459.885478 116.495865 
L 469.885478 116.495865 
L 479.885478 116.495865 
" style="fill: none; stroke: #7f7f7f; stroke-width: 1.5; stroke-linecap: square"/>
    </g>
    <g id="text_28">
     <!-- w_601989.SH -->
     <g transform="translate(487.885478 119.995865) scale(0.1 -0.1)">
      <use xlink:href="#SimHei-77"/>
      <use xlink:href="#SimHei-5f" x="50"/>
      <use xlink:href="#SimHei-36" x="100"/>
      <use xlink:href="#SimHei-30" x="150"/>
      <use xlink:href="#SimHei-31" x="200"/>
      <use xlink:href="#SimHei-39" x="250"/>
      <use xlink:href="#SimHei-38" x="300"/>
      <use xlink:href="#SimHei-39" x="350"/>
      <use xlink:href="#SimHei-2e" x="400"/>
      <use xlink:href="#SimHei-53" x="450"/>
      <use xlink:href="#SimHei-48" x="500"/>
     </g>
    </g>
    <g id="line2d_40">
     <path d="M 459.885478 129.82399 
L 469.885478 129.82399 
L 479.885478 129.82399 
" style="fill: none; stroke: #bcbd22; stroke-width: 1.5; stroke-linecap: square"/>
    </g>
    <g id="text_29">
     <!-- w_601998.SH -->
     <g transform="translate(487.885478 133.32399) scale(0.1 -0.1)">
      <use xlink:href="#SimHei-77"/>
      <use xlink:href="#SimHei-5f" x="50"/>
      <use xlink:href="#SimHei-36" x="100"/>
      <use xlink:href="#SimHei-30" x="150"/>
      <use xlink:href="#SimHei-31" x="200"/>
      <use xlink:href="#SimHei-39" x="250"/>
      <use xlink:href="#SimHei-39" x="300"/>
      <use xlink:href="#SimHei-38" x="350"/>
      <use xlink:href="#SimHei-2e" x="400"/>
      <use xlink:href="#SimHei-53" x="450"/>
      <use xlink:href="#SimHei-48" x="500"/>
     </g>
    </g>
    <g id="line2d_41">
     <path d="M 459.885478 143.152115 
L 469.885478 143.152115 
L 479.885478 143.152115 
" style="fill: none; stroke: #17becf; stroke-width: 1.5; stroke-linecap: square"/>
    </g>
    <g id="text_30">
     <!-- w_CASH -->
     <g transform="translate(487.885478 146.652115) scale(0.1 -0.1)">
      <defs>
       <path id="SimHei-43" d="M 2975 1825 
Q 2950 875 2575 475 
Q 2200 75 1675 75 
Q 1075 75 650 562 
Q 225 1050 225 2125 
Q 225 3300 637 3875 
Q 1050 4450 1700 4450 
Q 2250 4450 2612 4037 
Q 2975 3625 2950 2875 
L 2400 2875 
Q 2400 3425 2225 3700 
Q 2050 3975 1700 3975 
Q 1300 3975 1062 3562 
Q 825 3150 825 2175 
Q 825 1275 1062 912 
Q 1300 550 1675 550 
Q 1950 550 2175 812 
Q 2400 1075 2400 1825 
L 2975 1825 
z
" transform="scale(0.015625)"/>
       <path id="SimHei-41" d="M 3075 125 
L 2475 125 
L 2125 1450 
L 1025 1450 
L 675 125 
L 75 125 
L 1325 4450 
L 1825 4450 
L 3075 125 
z
M 2000 1925 
L 1600 3450 
L 1550 3450 
L 1150 1925 
L 2000 1925 
z
" transform="scale(0.015625)"/>
      </defs>
      <use xlink:href="#SimHei-77"/>
      <use xlink:href="#SimHei-5f" x="50"/>
      <use xlink:href="#SimHei-43" x="100"/>
      <use xlink:href="#SimHei-41" x="150"/>
      <use xlink:href="#SimHei-53" x="200"/>
      <use xlink:href="#SimHei-48" x="250"/>
     </g>
    </g>
   </g>
  </g>
  <g id="axes_3">
   <g id="patch_13">
    <path d="M 597.838419 165.80599 
L 827.603125 165.80599 
L 827.603125 10.57399 
L 597.838419 10.57399 
z
" style="fill: #ffffff"/>
   </g>
   <g id="matplotlib.axis_5">
    <g id="xtick_7">
     <g id="line2d_42">
      <g>
       <use xlink:href="#md3119fda7e" x="654.107327" y="165.80599" style="stroke: #000000; stroke-width: 0.8"/>
      </g>
     </g>
     <g id="text_31">
      <!-- 2023-09-20 -->
      <g transform="translate(629.107327 179.68099) scale(0.1 -0.1)">
       <use xlink:href="#SimHei-32"/>
       <use xlink:href="#SimHei-30" x="50"/>
       <use xlink:href="#SimHei-32" x="100"/>
       <use xlink:href="#SimHei-33" x="150"/>
       <use xlink:href="#SimHei-2d" x="200"/>
       <use xlink:href="#SimHei-30" x="250"/>
       <use xlink:href="#SimHei-39" x="300"/>
       <use xlink:href="#SimHei-2d" x="350"/>
       <use xlink:href="#SimHei-32" x="400"/>
       <use xlink:href="#SimHei-30" x="450"/>
      </g>
     </g>
    </g>
    <g id="xtick_8">
     <g id="line2d_43">
      <g>
       <use xlink:href="#md3119fda7e" x="718.049267" y="165.80599" style="stroke: #000000; stroke-width: 0.8"/>
      </g>
     </g>
     <g id="text_32">
      <!-- 2023-11-19 -->
      <g transform="translate(693.049267 179.68099) scale(0.1 -0.1)">
       <use xlink:href="#SimHei-32"/>
       <use xlink:href="#SimHei-30" x="50"/>
       <use xlink:href="#SimHei-32" x="100"/>
       <use xlink:href="#SimHei-33" x="150"/>
       <use xlink:href="#SimHei-2d" x="200"/>
       <use xlink:href="#SimHei-31" x="250"/>
       <use xlink:href="#SimHei-31" x="300"/>
       <use xlink:href="#SimHei-2d" x="350"/>
       <use xlink:href="#SimHei-31" x="400"/>
       <use xlink:href="#SimHei-39" x="450"/>
      </g>
     </g>
    </g>
    <g id="xtick_9">
     <g id="line2d_44">
      <g>
       <use xlink:href="#md3119fda7e" x="781.991208" y="165.80599" style="stroke: #000000; stroke-width: 0.8"/>
      </g>
     </g>
     <g id="text_33">
      <!-- 2024-01-18 -->
      <g transform="translate(756.991208 179.68099) scale(0.1 -0.1)">
       <use xlink:href="#SimHei-32"/>
       <use xlink:href="#SimHei-30" x="50"/>
       <use xlink:href="#SimHei-32" x="100"/>
       <use xlink:href="#SimHei-34" x="150"/>
       <use xlink:href="#SimHei-2d" x="200"/>
       <use xlink:href="#SimHei-30" x="250"/>
       <use xlink:href="#SimHei-31" x="300"/>
       <use xlink:href="#SimHei-2d" x="350"/>
       <use xlink:href="#SimHei-31" x="400"/>
       <use xlink:href="#SimHei-38" x="450"/>
      </g>
     </g>
    </g>
   </g>
   <g id="matplotlib.axis_6">
    <g id="ytick_14">
     <g id="line2d_45">
      <g>
       <use xlink:href="#meefc65f3ad" x="597.838419" y="158.74999" style="stroke: #000000; stroke-width: 0.8"/>
      </g>
     </g>
     <g id="text_34">
      <!-- 0.0000 -->
      <g transform="translate(560.838419 162.18749) scale(0.1 -0.1)">
       <use xlink:href="#SimHei-30"/>
       <use xlink:href="#SimHei-2e" x="50"/>
       <use xlink:href="#SimHei-30" x="100"/>
       <use xlink:href="#SimHei-30" x="150"/>
       <use xlink:href="#SimHei-30" x="200"/>
       <use xlink:href="#SimHei-30" x="250"/>
      </g>
     </g>
    </g>
    <g id="ytick_15">
     <g id="line2d_46">
      <g>
       <use xlink:href="#meefc65f3ad" x="597.838419" y="130.52599" style="stroke: #000000; stroke-width: 0.8"/>
      </g>
     </g>
     <g id="text_35">
      <!-- 0.0005 -->
      <g transform="translate(560.838419 133.96349) scale(0.1 -0.1)">
       <defs>
        <path id="SimHei-35" d="M 550 1325 
Q 725 650 1150 575 
Q 1575 500 1837 662 
Q 2100 825 2212 1087 
Q 2325 1350 2312 1675 
Q 2300 2000 2137 2225 
Q 1975 2450 1725 2525 
Q 1475 2600 1162 2525 
Q 850 2450 650 2175 
L 225 2225 
Q 275 2375 700 4375 
L 2675 4375 
L 2675 3925 
L 1075 3925 
Q 950 3250 825 2850 
Q 1200 3025 1525 3012 
Q 1850 3000 2150 2862 
Q 2450 2725 2587 2487 
Q 2725 2250 2787 2012 
Q 2850 1775 2837 1500 
Q 2825 1225 2725 937 
Q 2625 650 2425 462 
Q 2225 275 1937 162 
Q 1650 50 1275 75 
Q 900 100 562 350 
Q 225 600 100 1200 
L 550 1325 
z
" transform="scale(0.015625)"/>
       </defs>
       <use xlink:href="#SimHei-30"/>
       <use xlink:href="#SimHei-2e" x="50"/>
       <use xlink:href="#SimHei-30" x="100"/>
       <use xlink:href="#SimHei-30" x="150"/>
       <use xlink:href="#SimHei-30" x="200"/>
       <use xlink:href="#SimHei-35" x="250"/>
      </g>
     </g>
    </g>
    <g id="ytick_16">
     <g id="line2d_47">
      <g>
       <use xlink:href="#meefc65f3ad" x="597.838419" y="102.30199" style="stroke: #000000; stroke-width: 0.8"/>
      </g>
     </g>
     <g id="text_36">
      <!-- 0.0010 -->
      <g transform="translate(560.838419 105.73949) scale(0.1 -0.1)">
       <use xlink:href="#SimHei-30"/>
       <use xlink:href="#SimHei-2e" x="50"/>
       <use xlink:href="#SimHei-30" x="100"/>
       <use xlink:href="#SimHei-30" x="150"/>
       <use xlink:href="#SimHei-31" x="200"/>
       <use xlink:href="#SimHei-30" x="250"/>
      </g>
     </g>
    </g>
    <g id="ytick_17">
     <g id="line2d_48">
      <g>
       <use xlink:href="#meefc65f3ad" x="597.838419" y="74.07799" style="stroke: #000000; stroke-width: 0.8"/>
      </g>
     </g>
     <g id="text_37">
      <!-- 0.0015 -->
      <g transform="translate(560.838419 77.51549) scale(0.1 -0.1)">
       <use xlink:href="#SimHei-30"/>
       <use xlink:href="#SimHei-2e" x="50"/>
       <use xlink:href="#SimHei-30" x="100"/>
       <use xlink:href="#SimHei-30" x="150"/>
       <use xlink:href="#SimHei-31" x="200"/>
       <use xlink:href="#SimHei-35" x="250"/>
      </g>
     </g>
    </g>
    <g id="ytick_18">
     <g id="line2d_49">
      <g>
       <use xlink:href="#meefc65f3ad" x="597.838419" y="45.85399" style="stroke: #000000; stroke-width: 0.8"/>
      </g>
     </g>
     <g id="text_38">
      <!-- 0.0020 -->
      <g transform="translate(560.838419 49.29149) scale(0.1 -0.1)">
       <use xlink:href="#SimHei-30"/>
       <use xlink:href="#SimHei-2e" x="50"/>
       <use xlink:href="#SimHei-30" x="100"/>
       <use xlink:href="#SimHei-30" x="150"/>
       <use xlink:href="#SimHei-32" x="200"/>
       <use xlink:href="#SimHei-30" x="250"/>
      </g>
     </g>
    </g>
    <g id="ytick_19">
     <g id="line2d_50">
      <g>
       <use xlink:href="#meefc65f3ad" x="597.838419" y="17.62999" style="stroke: #000000; stroke-width: 0.8"/>
      </g>
     </g>
     <g id="text_39">
      <!-- 0.0025 -->
      <g transform="translate(560.838419 21.06749) scale(0.1 -0.1)">
       <use xlink:href="#SimHei-30"/>
       <use xlink:href="#SimHei-2e" x="50"/>
       <use xlink:href="#SimHei-30" x="100"/>
       <use xlink:href="#SimHei-30" x="150"/>
       <use xlink:href="#SimHei-32" x="200"/>
       <use xlink:href="#SimHei-35" x="250"/>
      </g>
     </g>
    </g>
   </g>
   <g id="line2d_51">
    <path d="M 608.282269 17.62999 
L 609.347968 150.330335 
L 610.413667 152.159332 
L 611.479366 157.265474 
L 614.676463 156.484092 
L 615.742162 148.356078 
L 616.807861 147.245145 
L 617.87356 156.029374 
L 618.939259 150.310675 
L 622.136356 152.626565 
L 623.202055 154.901765 
L 624.267754 150.410136 
L 625.333453 151.522085 
L 626.399153 152.392758 
L 629.59625 147.968011 
L 630.661949 150.292376 
L 631.727648 149.969886 
L 632.793347 154.264193 
L 633.859046 149.844404 
L 637.056143 154.992403 
L 638.121842 148.755016 
L 639.187541 148.714915 
L 640.25324 151.780518 
L 641.318939 157.362019 
L 644.516036 154.762463 
L 645.581735 150.675025 
L 646.647434 153.277213 
L 647.713133 148.430496 
L 648.778832 150.667709 
L 651.975929 150.119398 
L 653.041628 150.878853 
L 654.107327 148.242506 
L 655.173026 153.975882 
L 656.238725 150.102105 
L 659.435822 155.624209 
L 660.501521 152.036446 
L 661.56722 150.1484 
L 662.632919 150.772117 
L 674.355608 151.3128 
L 675.421307 150.819969 
L 676.487006 154.423963 
L 677.552705 153.732565 
L 678.618404 154.500103 
L 681.815501 144.819941 
L 682.8812 154.796622 
L 683.946899 154.627282 
L 685.012598 154.343088 
L 686.078297 150.982023 
L 689.275394 146.275294 
L 690.341093 151.538582 
L 691.406792 154.644692 
L 692.472491 149.906705 
L 693.53819 144.52473 
L 696.735287 154.242789 
L 697.800986 153.002469 
L 698.866685 135.665043 
L 699.932384 155.271584 
L 700.998083 150.269994 
L 704.19518 153.696091 
L 705.260879 147.572609 
L 706.326578 154.4793 
L 707.392277 155.204273 
L 708.457976 151.299555 
L 711.655073 152.975602 
L 712.720772 152.272474 
L 713.786471 155.527138 
L 714.85217 150.762471 
L 715.917869 151.911912 
L 719.114966 155.62881 
L 720.180665 153.455114 
L 721.246364 153.336533 
L 722.312063 149.90027 
L 723.377762 155.257605 
L 726.574859 149.179451 
L 727.640558 149.46487 
L 728.706257 154.357759 
L 729.771956 147.295241 
L 730.837655 146.386047 
L 734.034752 149.225264 
L 735.100451 152.412134 
L 736.16615 155.992817 
L 737.231849 152.839915 
L 738.297548 156.774937 
L 741.494645 155.580415 
L 742.560344 156.308669 
L 743.626043 157.366408 
L 744.691742 155.070462 
L 745.757441 157.04764 
L 748.954538 153.934191 
L 750.020237 157.673996 
L 751.085936 155.880662 
L 752.151635 156.150008 
L 753.217334 155.803354 
L 756.414431 155.920844 
L 757.48013 156.42082 
L 758.545829 153.187251 
L 759.611528 156.101332 
L 760.677227 156.82813 
L 764.940023 151.836061 
L 766.005722 155.66295 
L 767.071421 157.687754 
L 768.13712 157.492172 
L 771.334217 157.172481 
L 772.399916 153.075231 
L 773.465615 152.518329 
L 774.531314 157.423949 
L 775.597013 155.698366 
L 778.79411 156.191773 
L 779.859809 155.092563 
L 780.925508 155.659813 
L 781.991208 154.173565 
L 783.056907 151.686864 
L 786.254004 154.391193 
L 787.319703 152.299115 
L 788.385402 156.24433 
L 789.451101 156.532216 
L 790.5168 151.919635 
L 793.713897 144.825669 
L 794.779596 147.434614 
L 795.845295 146.198481 
L 796.910994 153.602154 
L 797.976693 157.084184 
L 801.17379 156.228044 
L 802.239489 150.189832 
L 803.305188 144.995229 
L 804.370887 150.794494 
L 816.093576 153.349808 
L 817.159275 158.74999 
L 817.159275 158.74999 
" clip-path="url(#pd5d3cfaa12)" style="fill: none; stroke: #1f77b4; stroke-width: 1.5; stroke-linecap: square"/>
   </g>
   <g id="patch_14">
    <path d="M 597.838419 165.80599 
L 597.838419 10.57399 
" style="fill: none; stroke: #000000; stroke-width: 0.8; stroke-linejoin: miter; stroke-linecap: square"/>
   </g>
   <g id="patch_15">
    <path d="M 827.603125 165.80599 
L 827.603125 10.57399 
" style="fill: none; stroke: #000000; stroke-width: 0.8; stroke-linejoin: miter; stroke-linecap: square"/>
   </g>
   <g id="patch_16">
    <path d="M 597.838419 165.80599 
L 827.603125 165.80599 
" style="fill: none; stroke: #000000; stroke-width: 0.8; stroke-linejoin: miter; stroke-linecap: square"/>
   </g>
   <g id="patch_17">
    <path d="M 597.838419 10.57399 
L 827.603125 10.57399 
" style="fill: none; stroke: #000000; stroke-width: 0.8; stroke-linejoin: miter; stroke-linecap: square"/>
   </g>
  </g>
 </g>
 <defs>
  <clipPath id="p77d4d5aff1">
   <rect x="46.403125" y="10.57399" width="229.764706" height="155.232"/>
  </clipPath>
  <clipPath id="pf84adbed48">
   <rect x="322.120772" y="10.57399" width="229.764706" height="155.232"/>
  </clipPath>
  <clipPath id="pd5d3cfaa12">
   <rect x="597.838419" y="10.57399" width="229.764706" height="155.232"/>
  </clipPath>
 </defs>
</svg>
