<?xml version="1.0" encoding="utf-8" standalone="no"?>
<!DOCTYPE svg PUBLIC "-//W3C//DTD SVG 1.1//EN"
  "http://www.w3.org/Graphics/SVG/1.1/DTD/svg11.dtd">
<svg xmlns:xlink="http://www.w3.org/1999/xlink" width="834.803125pt" height="184.757pt" viewBox="0 0 834.803125 184.757" xmlns="http://www.w3.org/2000/svg" version="1.1">
 <metadata>
  <rdf:RDF xmlns:dc="http://purl.org/dc/elements/1.1/" xmlns:cc="http://creativecommons.org/ns#" xmlns:rdf="http://www.w3.org/1999/02/22-rdf-syntax-ns#">
   <cc:Work>
    <dc:type rdf:resource="http://purl.org/dc/dcmitype/StillImage"/>
    <dc:date>2024-12-25T17:32:56.726969</dc:date>
    <dc:format>image/svg+xml</dc:format>
    <dc:creator>
     <cc:Agent>
      <dc:title>Matplotlib v3.9.3, https://matplotlib.org/</dc:title>
     </cc:Agent>
    </dc:creator>
   </cc:Work>
  </rdf:RDF>
 </metadata>
 <defs>
  <style type="text/css">*{stroke-linejoin: round; stroke-linecap: butt}</style>
 </defs>
 <g id="figure_1">
  <g id="patch_1">
   <path d="M 0 184.757 
L 834.803125 184.757 
L 834.803125 0 
L 0 0 
z
" style="fill: #ffffff"/>
  </g>
  <g id="axes_1">
   <g id="patch_2">
    <path d="M 46.403125 162.432 
L 276.167831 162.432 
L 276.167831 7.2 
L 46.403125 7.2 
z
" style="fill: #ffffff"/>
   </g>
   <g id="matplotlib.axis_1">
    <g id="xtick_1">
     <g id="line2d_1">
      <defs>
       <path id="m82c1e4c242" d="M 0 0 
L 0 3.5 
" style="stroke: #000000; stroke-width: 0.8"/>
      </defs>
      <g>
       <use xlink:href="#m82c1e4c242" x="102.672033" y="162.432" style="stroke: #000000; stroke-width: 0.8"/>
      </g>
     </g>
     <g id="text_1">
      <!-- 2023-09-20 -->
      <g transform="translate(77.672033 176.307) scale(0.1 -0.1)">
       <defs>
        <path id="SimHei-32" d="M 300 250 
Q 325 625 650 925 
Q 975 1225 1475 1862 
Q 1975 2500 2125 2850 
Q 2275 3200 2237 3450 
Q 2200 3700 2000 3862 
Q 1800 4025 1537 4000 
Q 1275 3975 1037 3800 
Q 800 3625 675 3275 
L 200 3350 
Q 400 3925 712 4187 
Q 1025 4450 1450 4475 
Q 1700 4500 1900 4462 
Q 2100 4425 2312 4287 
Q 2525 4150 2662 3875 
Q 2800 3600 2762 3212 
Q 2725 2825 2375 2287 
Q 2025 1750 1025 600 
L 2825 600 
L 2825 150 
L 300 150 
L 300 250 
z
" transform="scale(0.015625)"/>
        <path id="SimHei-30" d="M 225 2537 
Q 250 3200 412 3587 
Q 575 3975 875 4225 
Q 1175 4475 1612 4475 
Q 2050 4475 2375 4112 
Q 2700 3750 2800 3200 
Q 2900 2650 2862 1937 
Q 2825 1225 2612 775 
Q 2400 325 1975 150 
Q 1550 -25 1125 187 
Q 700 400 525 750 
Q 350 1100 275 1487 
Q 200 1875 225 2537 
z
M 750 2687 
Q 675 2000 800 1462 
Q 925 925 1212 700 
Q 1500 475 1800 612 
Q 2100 750 2237 1162 
Q 2375 1575 2375 2062 
Q 2375 2550 2337 2950 
Q 2300 3350 2112 3675 
Q 1925 4000 1612 4012 
Q 1300 4025 1062 3700 
Q 825 3375 750 2687 
z
" transform="scale(0.015625)"/>
        <path id="SimHei-33" d="M 250 1225 
L 700 1300 
Q 800 975 1025 762 
Q 1250 550 1587 562 
Q 1925 575 2125 837 
Q 2325 1100 2300 1437 
Q 2275 1775 2037 1962 
Q 1800 2150 1275 2225 
L 1275 2550 
Q 1800 2600 2037 2825 
Q 2275 3050 2250 3412 
Q 2225 3775 1925 3937 
Q 1625 4100 1287 3975 
Q 950 3850 750 3275 
L 300 3350 
Q 450 3800 712 4100 
Q 975 4400 1425 4450 
Q 1875 4500 2212 4337 
Q 2550 4175 2687 3837 
Q 2825 3500 2725 3100 
Q 2625 2700 2150 2400 
Q 2500 2250 2687 1950 
Q 2875 1650 2812 1162 
Q 2750 675 2375 375 
Q 2000 75 1525 87 
Q 1050 100 700 387 
Q 350 675 250 1225 
z
" transform="scale(0.015625)"/>
        <path id="SimHei-2d" d="M 2975 2125 
L 125 2125 
L 125 2525 
L 2975 2525 
L 2975 2125 
z
" transform="scale(0.015625)"/>
        <path id="SimHei-39" d="M 800 75 
Q 1350 1000 1700 1750 
Q 1075 1650 662 1912 
Q 250 2175 162 2625 
Q 75 3075 175 3437 
Q 275 3800 487 4037 
Q 700 4275 1000 4375 
Q 1300 4475 1537 4475 
Q 1775 4475 2025 4375 
Q 2275 4275 2475 4075 
Q 2675 3875 2750 3662 
Q 2825 3450 2825 3112 
Q 2825 2775 2575 2250 
Q 2325 1725 1350 75 
L 800 75 
z
M 662 2875 
Q 700 2550 937 2337 
Q 1175 2125 1450 2150 
Q 1725 2175 1887 2300 
Q 2050 2425 2200 2725 
Q 2300 3100 2250 3362 
Q 2200 3625 1987 3800 
Q 1775 3975 1525 3975 
Q 1375 4000 1137 3900 
Q 900 3800 762 3500 
Q 625 3200 662 2875 
z
" transform="scale(0.015625)"/>
       </defs>
       <use xlink:href="#SimHei-32"/>
       <use xlink:href="#SimHei-30" x="50"/>
       <use xlink:href="#SimHei-32" x="100"/>
       <use xlink:href="#SimHei-33" x="150"/>
       <use xlink:href="#SimHei-2d" x="200"/>
       <use xlink:href="#SimHei-30" x="250"/>
       <use xlink:href="#SimHei-39" x="300"/>
       <use xlink:href="#SimHei-2d" x="350"/>
       <use xlink:href="#SimHei-32" x="400"/>
       <use xlink:href="#SimHei-30" x="450"/>
      </g>
     </g>
    </g>
    <g id="xtick_2">
     <g id="line2d_2">
      <g>
       <use xlink:href="#m82c1e4c242" x="166.613973" y="162.432" style="stroke: #000000; stroke-width: 0.8"/>
      </g>
     </g>
     <g id="text_2">
      <!-- 2023-11-19 -->
      <g transform="translate(141.613973 176.307) scale(0.1 -0.1)">
       <defs>
        <path id="SimHei-31" d="M 1400 3600 
Q 1075 3275 575 2975 
L 575 3450 
Q 1200 3875 1600 4450 
L 1900 4450 
L 1900 150 
L 1400 150 
L 1400 3600 
z
" transform="scale(0.015625)"/>
       </defs>
       <use xlink:href="#SimHei-32"/>
       <use xlink:href="#SimHei-30" x="50"/>
       <use xlink:href="#SimHei-32" x="100"/>
       <use xlink:href="#SimHei-33" x="150"/>
       <use xlink:href="#SimHei-2d" x="200"/>
       <use xlink:href="#SimHei-31" x="250"/>
       <use xlink:href="#SimHei-31" x="300"/>
       <use xlink:href="#SimHei-2d" x="350"/>
       <use xlink:href="#SimHei-31" x="400"/>
       <use xlink:href="#SimHei-39" x="450"/>
      </g>
     </g>
    </g>
    <g id="xtick_3">
     <g id="line2d_3">
      <g>
       <use xlink:href="#m82c1e4c242" x="230.555913" y="162.432" style="stroke: #000000; stroke-width: 0.8"/>
      </g>
     </g>
     <g id="text_3">
      <!-- 2024-01-18 -->
      <g transform="translate(205.555913 176.307) scale(0.1 -0.1)">
       <defs>
        <path id="SimHei-34" d="M 2000 1100 
L 75 1100 
L 75 1525 
L 2100 4450 
L 2475 4450 
L 2475 1525 
L 3075 1525 
L 3075 1100 
L 2475 1100 
L 2475 150 
L 2000 150 
L 2000 1100 
z
M 2000 1525 
L 2000 3500 
L 600 1525 
L 2000 1525 
z
" transform="scale(0.015625)"/>
        <path id="SimHei-38" d="M 175 1375 
Q 175 1675 325 1962 
Q 475 2250 825 2425 
Q 525 2600 425 2812 
Q 325 3025 312 3300 
Q 300 3575 387 3775 
Q 475 3975 650 4150 
Q 825 4325 1037 4387 
Q 1250 4450 1500 4450 
Q 1750 4450 1950 4400 
Q 2150 4350 2375 4187 
Q 2600 4025 2700 3725 
Q 2800 3425 2687 3025 
Q 2575 2625 2100 2400 
Q 2525 2275 2700 2012 
Q 2875 1750 2875 1375 
Q 2875 1000 2762 775 
Q 2650 550 2512 400 
Q 2375 250 2137 162 
Q 1900 75 1537 75 
Q 1175 75 912 162 
Q 650 250 475 425 
Q 300 600 237 837 
Q 175 1075 175 1375 
z
M 687 1400 
Q 675 1100 787 875 
Q 900 650 1200 587 
Q 1500 525 1825 600 
Q 2150 675 2275 950 
Q 2400 1225 2362 1500 
Q 2325 1775 2050 1962 
Q 1775 2150 1450 2125 
Q 1125 2100 912 1900 
Q 700 1700 687 1400 
z
M 775 3350 
Q 775 3100 950 2875 
Q 1125 2650 1500 2650 
Q 1875 2650 2062 2875 
Q 2250 3100 2237 3412 
Q 2225 3725 2012 3875 
Q 1800 4025 1437 4000 
Q 1075 3975 925 3787 
Q 775 3600 775 3350 
z
" transform="scale(0.015625)"/>
       </defs>
       <use xlink:href="#SimHei-32"/>
       <use xlink:href="#SimHei-30" x="50"/>
       <use xlink:href="#SimHei-32" x="100"/>
       <use xlink:href="#SimHei-34" x="150"/>
       <use xlink:href="#SimHei-2d" x="200"/>
       <use xlink:href="#SimHei-30" x="250"/>
       <use xlink:href="#SimHei-31" x="300"/>
       <use xlink:href="#SimHei-2d" x="350"/>
       <use xlink:href="#SimHei-31" x="400"/>
       <use xlink:href="#SimHei-38" x="450"/>
      </g>
     </g>
    </g>
   </g>
   <g id="matplotlib.axis_2">
    <g id="ytick_1">
     <g id="line2d_4">
      <defs>
       <path id="m6c634199a2" d="M 0 0 
L -3.5 0 
" style="stroke: #000000; stroke-width: 0.8"/>
      </defs>
      <g>
       <use xlink:href="#m6c634199a2" x="46.403125" y="150.322683" style="stroke: #000000; stroke-width: 0.8"/>
      </g>
     </g>
     <g id="text_4">
      <!-- 0.92 -->
      <g transform="translate(19.403125 153.760183) scale(0.1 -0.1)">
       <defs>
        <path id="SimHei-2e" d="M 1075 125 
L 500 125 
L 500 675 
L 1075 675 
L 1075 125 
z
" transform="scale(0.015625)"/>
       </defs>
       <use xlink:href="#SimHei-30"/>
       <use xlink:href="#SimHei-2e" x="50"/>
       <use xlink:href="#SimHei-39" x="100"/>
       <use xlink:href="#SimHei-32" x="150"/>
      </g>
     </g>
    </g>
    <g id="ytick_2">
     <g id="line2d_5">
      <g>
       <use xlink:href="#m6c634199a2" x="46.403125" y="127.306298" style="stroke: #000000; stroke-width: 0.8"/>
      </g>
     </g>
     <g id="text_5">
      <!-- 0.94 -->
      <g transform="translate(19.403125 130.743798) scale(0.1 -0.1)">
       <use xlink:href="#SimHei-30"/>
       <use xlink:href="#SimHei-2e" x="50"/>
       <use xlink:href="#SimHei-39" x="100"/>
       <use xlink:href="#SimHei-34" x="150"/>
      </g>
     </g>
    </g>
    <g id="ytick_3">
     <g id="line2d_6">
      <g>
       <use xlink:href="#m6c634199a2" x="46.403125" y="104.289913" style="stroke: #000000; stroke-width: 0.8"/>
      </g>
     </g>
     <g id="text_6">
      <!-- 0.96 -->
      <g transform="translate(19.403125 107.727413) scale(0.1 -0.1)">
       <defs>
        <path id="SimHei-36" d="M 250 1612 
Q 275 1975 387 2225 
Q 500 2475 725 2850 
L 1750 4450 
L 2325 4450 
L 1275 2800 
Q 1950 2975 2350 2750 
Q 2750 2525 2887 2237 
Q 3025 1950 3037 1612 
Q 3050 1275 2937 950 
Q 2825 625 2537 362 
Q 2250 100 1737 75 
Q 1225 50 862 262 
Q 500 475 362 862 
Q 225 1250 250 1612 
z
M 1025 787 
Q 1250 550 1625 525 
Q 2000 500 2250 775 
Q 2500 1050 2500 1575 
Q 2500 2100 2187 2300 
Q 1875 2500 1487 2450 
Q 1100 2400 925 2075 
Q 750 1750 775 1387 
Q 800 1025 1025 787 
z
" transform="scale(0.015625)"/>
       </defs>
       <use xlink:href="#SimHei-30"/>
       <use xlink:href="#SimHei-2e" x="50"/>
       <use xlink:href="#SimHei-39" x="100"/>
       <use xlink:href="#SimHei-36" x="150"/>
      </g>
     </g>
    </g>
    <g id="ytick_4">
     <g id="line2d_7">
      <g>
       <use xlink:href="#m6c634199a2" x="46.403125" y="81.273528" style="stroke: #000000; stroke-width: 0.8"/>
      </g>
     </g>
     <g id="text_7">
      <!-- 0.98 -->
      <g transform="translate(19.403125 84.711028) scale(0.1 -0.1)">
       <use xlink:href="#SimHei-30"/>
       <use xlink:href="#SimHei-2e" x="50"/>
       <use xlink:href="#SimHei-39" x="100"/>
       <use xlink:href="#SimHei-38" x="150"/>
      </g>
     </g>
    </g>
    <g id="ytick_5">
     <g id="line2d_8">
      <g>
       <use xlink:href="#m6c634199a2" x="46.403125" y="58.257143" style="stroke: #000000; stroke-width: 0.8"/>
      </g>
     </g>
     <g id="text_8">
      <!-- 1.00 -->
      <g transform="translate(19.403125 61.694643) scale(0.1 -0.1)">
       <use xlink:href="#SimHei-31"/>
       <use xlink:href="#SimHei-2e" x="50"/>
       <use xlink:href="#SimHei-30" x="100"/>
       <use xlink:href="#SimHei-30" x="150"/>
      </g>
     </g>
    </g>
    <g id="ytick_6">
     <g id="line2d_9">
      <g>
       <use xlink:href="#m6c634199a2" x="46.403125" y="35.240759" style="stroke: #000000; stroke-width: 0.8"/>
      </g>
     </g>
     <g id="text_9">
      <!-- 1.02 -->
      <g transform="translate(19.403125 38.678259) scale(0.1 -0.1)">
       <use xlink:href="#SimHei-31"/>
       <use xlink:href="#SimHei-2e" x="50"/>
       <use xlink:href="#SimHei-30" x="100"/>
       <use xlink:href="#SimHei-32" x="150"/>
      </g>
     </g>
    </g>
    <g id="ytick_7">
     <g id="line2d_10">
      <g>
       <use xlink:href="#m6c634199a2" x="46.403125" y="12.224374" style="stroke: #000000; stroke-width: 0.8"/>
      </g>
     </g>
     <g id="text_10">
      <!-- 1.04 -->
      <g transform="translate(19.403125 15.661874) scale(0.1 -0.1)">
       <use xlink:href="#SimHei-31"/>
       <use xlink:href="#SimHei-2e" x="50"/>
       <use xlink:href="#SimHei-30" x="100"/>
       <use xlink:href="#SimHei-34" x="150"/>
      </g>
     </g>
    </g>
    <g id="text_11">
     <!-- MV-Sharpe -->
     <g transform="translate(14.153125 107.316) rotate(-90) scale(0.1 -0.1)">
      <defs>
       <path id="SimHei-4d" d="M 2925 125 
L 2425 125 
L 2425 3175 
L 2375 3175 
L 1775 125 
L 1375 125 
L 775 3175 
L 725 3175 
L 725 125 
L 225 125 
L 225 4400 
L 1000 4400 
L 1550 1575 
L 1600 1575 
L 2150 4400 
L 2925 4400 
L 2925 125 
z
" transform="scale(0.015625)"/>
       <path id="SimHei-56" d="M 3050 4400 
L 1800 75 
L 1300 75 
L 50 4400 
L 650 4400 
L 1525 1125 
L 1575 1125 
L 2450 4400 
L 3050 4400 
z
" transform="scale(0.015625)"/>
       <path id="SimHei-53" d="M 2900 1325 
Q 2900 750 2537 412 
Q 2175 75 1550 75 
Q 925 75 575 425 
Q 225 775 225 1300 
L 225 1475 
L 800 1475 
L 800 1325 
Q 800 950 1025 750 
Q 1250 550 1550 550 
Q 1950 550 2137 762 
Q 2325 975 2325 1275 
Q 2325 1525 2100 1737 
Q 1875 1950 1450 2125 
Q 850 2350 587 2625 
Q 325 2900 325 3275 
Q 325 3800 687 4125 
Q 1050 4450 1550 4450 
Q 2200 4450 2487 4062 
Q 2775 3675 2775 3225 
L 2200 3225 
Q 2225 3500 2050 3725 
Q 1875 3950 1550 3950 
Q 1250 3950 1075 3787 
Q 900 3625 900 3350 
Q 900 3125 1037 2962 
Q 1175 2800 1750 2575 
Q 2300 2350 2600 2037 
Q 2900 1725 2900 1325 
z
" transform="scale(0.015625)"/>
       <path id="SimHei-68" d="M 2800 125 
L 2300 125 
L 2300 1925 
Q 2300 2225 2150 2400 
Q 2000 2575 1750 2575 
Q 1425 2575 1137 2237 
Q 850 1900 850 1400 
L 850 125 
L 350 125 
L 350 4400 
L 850 4400 
L 850 2400 
Q 1050 2675 1287 2825 
Q 1525 2975 1900 2975 
Q 2350 2975 2575 2725 
Q 2800 2475 2800 2100 
L 2800 125 
z
" transform="scale(0.015625)"/>
       <path id="SimHei-61" d="M 2875 125 
L 2275 125 
Q 2225 175 2200 262 
Q 2175 350 2175 475 
Q 2000 275 1750 175 
Q 1500 75 1225 75 
Q 825 75 550 275 
Q 275 475 275 850 
Q 275 1225 525 1450 
Q 775 1675 1300 1750 
Q 1650 1800 1912 1875 
Q 2175 1950 2175 2075 
Q 2175 2225 2062 2375 
Q 1950 2525 1575 2525 
Q 1275 2525 1137 2412 
Q 1000 2300 950 2100 
L 400 2100 
Q 450 2500 762 2737 
Q 1075 2975 1575 2975 
Q 2125 2975 2400 2725 
Q 2675 2475 2675 2025 
L 2675 650 
Q 2675 500 2725 375 
Q 2775 250 2875 125 
z
M 2175 1050 
L 2175 1550 
Q 2025 1500 1887 1462 
Q 1750 1425 1425 1375 
Q 1050 1325 937 1200 
Q 825 1075 825 900 
Q 825 750 937 637 
Q 1050 525 1275 525 
Q 1500 525 1762 650 
Q 2025 775 2175 1050 
z
" transform="scale(0.015625)"/>
       <path id="SimHei-72" d="M 2500 2425 
Q 2025 2500 1700 2287 
Q 1375 2075 1150 1550 
L 1150 125 
L 650 125 
L 650 2925 
L 1150 2925 
L 1150 2200 
Q 1375 2600 1712 2787 
Q 2050 2975 2500 2975 
L 2500 2425 
z
" transform="scale(0.015625)"/>
       <path id="SimHei-70" d="M 2825 1525 
Q 2825 800 2475 425 
Q 2125 50 1625 50 
Q 1350 50 1150 162 
Q 950 275 800 500 
L 800 -800 
L 300 -800 
L 300 2925 
L 800 2925 
L 800 2550 
Q 950 2775 1150 2875 
Q 1350 2975 1625 2975 
Q 2125 2975 2475 2612 
Q 2825 2250 2825 1525 
z
M 2275 1525 
Q 2275 2000 2087 2262 
Q 1900 2525 1525 2525 
Q 1225 2525 1012 2262 
Q 800 2000 800 1525 
Q 800 1050 1012 775 
Q 1225 500 1525 500 
Q 1900 500 2087 775 
Q 2275 1050 2275 1525 
z
" transform="scale(0.015625)"/>
       <path id="SimHei-65" d="M 2850 1075 
Q 2800 625 2450 350 
Q 2100 75 1625 75 
Q 1025 75 637 462 
Q 250 850 250 1525 
Q 250 2200 637 2587 
Q 1025 2975 1625 2975 
Q 2150 2975 2487 2637 
Q 2825 2300 2825 1525 
L 800 1525 
Q 800 975 1037 750 
Q 1275 525 1625 525 
Q 1900 525 2075 662 
Q 2250 800 2300 1075 
L 2850 1075 
z
M 2250 1925 
Q 2200 2275 2025 2412 
Q 1850 2550 1575 2550 
Q 1325 2550 1125 2412 
Q 925 2275 825 1925 
L 2250 1925 
z
" transform="scale(0.015625)"/>
      </defs>
      <use xlink:href="#SimHei-4d"/>
      <use xlink:href="#SimHei-56" x="50"/>
      <use xlink:href="#SimHei-2d" x="100"/>
      <use xlink:href="#SimHei-53" x="150"/>
      <use xlink:href="#SimHei-68" x="200"/>
      <use xlink:href="#SimHei-61" x="250"/>
      <use xlink:href="#SimHei-72" x="300"/>
      <use xlink:href="#SimHei-70" x="350"/>
      <use xlink:href="#SimHei-65" x="400"/>
     </g>
    </g>
   </g>
   <g id="line2d_11">
    <path d="M 56.846975 61.134192 
L 57.912674 65.326903 
L 58.978373 66.011128 
L 60.044072 89.755245 
L 63.241169 99.817227 
L 64.306868 94.454115 
L 65.372567 101.958524 
L 66.438266 103.442981 
L 67.503965 105.7919 
L 70.701062 120.514714 
L 71.766761 109.114801 
L 72.83246 112.649915 
L 73.898159 109.106929 
L 74.963858 111.765368 
L 78.160955 96.93025 
L 79.226654 105.293546 
L 80.292353 104.785953 
L 81.358052 108.147082 
L 82.423751 112.281221 
L 85.620848 81.21311 
L 86.686547 94.701017 
L 87.752246 95.921246 
L 88.817945 101.124608 
L 89.883644 111.745587 
L 93.080742 104.167079 
L 94.146441 106.97277 
L 95.21214 112.739855 
L 96.277839 93.619475 
L 97.343538 104.882316 
L 100.540635 90.303352 
L 101.606334 97.703121 
L 102.672033 93.993073 
L 103.737732 104.586737 
L 104.803431 87.216857 
L 108.000528 90.068293 
L 109.066227 90.853299 
L 110.131926 93.895534 
L 111.197625 107.11208 
L 122.920314 102.422117 
L 123.986013 108.74635 
L 125.051712 112.647857 
L 126.117411 96.357455 
L 127.18311 103.81701 
L 130.380207 111.664622 
L 131.445906 110.254364 
L 132.511605 113.828342 
L 133.577304 134.186099 
L 134.643003 146.639113 
L 137.8401 152.200117 
L 138.905799 155.376 
L 139.971498 106.363177 
L 141.037197 109.25983 
L 142.102896 99.04439 
L 145.299993 107.24676 
L 146.365692 103.183466 
L 147.431391 95.794886 
L 148.49709 92.618507 
L 149.562789 93.55231 
L 152.759886 91.853055 
L 153.825585 88.43546 
L 154.891284 93.990079 
L 157.022682 92.582505 
L 160.219779 105.122456 
L 161.285478 106.238076 
L 162.351177 88.117553 
L 163.416876 89.804418 
L 164.482575 86.537711 
L 168.745371 80.278504 
L 169.81107 89.750452 
L 170.876769 77.83363 
L 171.942468 79.278641 
L 175.139565 78.145982 
L 176.205264 70.841364 
L 177.270963 78.614674 
L 178.336662 76.773203 
L 179.402361 118.800755 
L 182.599458 112.976106 
L 183.665157 120.128877 
L 185.796555 122.323511 
L 186.862254 124.316492 
L 190.059351 117.807186 
L 191.12505 110.846894 
L 192.190749 107.618981 
L 193.256448 119.85732 
L 194.322147 128.804064 
L 197.519244 124.744539 
L 198.584943 120.917088 
L 199.650642 124.411036 
L 201.78204 125.939677 
L 204.979137 113.779833 
L 206.044836 115.775232 
L 207.110535 113.654846 
L 208.176234 123.203759 
L 209.241933 117.093426 
L 213.504729 104.925081 
L 214.570428 102.375164 
L 215.636127 100.962493 
L 216.701826 103.911016 
L 219.898923 114.361918 
L 220.964622 112.351499 
L 222.030321 121.31966 
L 223.09602 124.069179 
L 224.161719 106.877042 
L 227.358816 101.504176 
L 228.424515 89.692893 
L 229.490214 105.947707 
L 230.555913 108.732828 
L 231.621612 113.520781 
L 234.818709 129.54232 
L 235.884408 127.498918 
L 236.950107 94.949845 
L 238.015806 81.123357 
L 239.081505 74.739826 
L 242.278602 74.136906 
L 243.344301 84.636548 
L 244.41 81.808899 
L 245.475699 84.218613 
L 246.541398 83.725289 
L 249.738496 62.472167 
L 250.804195 57.42886 
L 251.869894 58.396973 
L 252.935593 56.531482 
L 264.658282 35.646418 
L 265.723981 14.256 
L 265.723981 14.256 
" clip-path="url(#pd86a46ce0f)" style="fill: none; stroke: #1f77b4; stroke-width: 1.5; stroke-linecap: square"/>
   </g>
   <g id="patch_3">
    <path d="M 46.403125 162.432 
L 46.403125 7.2 
" style="fill: none; stroke: #000000; stroke-width: 0.8; stroke-linejoin: miter; stroke-linecap: square"/>
   </g>
   <g id="patch_4">
    <path d="M 276.167831 162.432 
L 276.167831 7.2 
" style="fill: none; stroke: #000000; stroke-width: 0.8; stroke-linejoin: miter; stroke-linecap: square"/>
   </g>
   <g id="patch_5">
    <path d="M 46.403125 162.432 
L 276.167831 162.432 
" style="fill: none; stroke: #000000; stroke-width: 0.8; stroke-linejoin: miter; stroke-linecap: square"/>
   </g>
   <g id="patch_6">
    <path d="M 46.403125 7.2 
L 276.167831 7.2 
" style="fill: none; stroke: #000000; stroke-width: 0.8; stroke-linejoin: miter; stroke-linecap: square"/>
   </g>
  </g>
  <g id="axes_2">
   <g id="patch_7">
    <path d="M 322.120772 162.432 
L 551.885478 162.432 
L 551.885478 7.2 
L 322.120772 7.2 
z
" style="fill: #ffffff"/>
   </g>
   <g id="matplotlib.axis_3">
    <g id="xtick_4">
     <g id="line2d_12">
      <g>
       <use xlink:href="#m82c1e4c242" x="379.455379" y="162.432" style="stroke: #000000; stroke-width: 0.8"/>
      </g>
     </g>
     <g id="text_12">
      <!-- 2023-09-20 -->
      <g transform="translate(354.455379 176.307) scale(0.1 -0.1)">
       <use xlink:href="#SimHei-32"/>
       <use xlink:href="#SimHei-30" x="50"/>
       <use xlink:href="#SimHei-32" x="100"/>
       <use xlink:href="#SimHei-33" x="150"/>
       <use xlink:href="#SimHei-2d" x="200"/>
       <use xlink:href="#SimHei-30" x="250"/>
       <use xlink:href="#SimHei-39" x="300"/>
       <use xlink:href="#SimHei-2d" x="350"/>
       <use xlink:href="#SimHei-32" x="400"/>
       <use xlink:href="#SimHei-30" x="450"/>
      </g>
     </g>
    </g>
    <g id="xtick_5">
     <g id="line2d_13">
      <g>
       <use xlink:href="#m82c1e4c242" x="443.397319" y="162.432" style="stroke: #000000; stroke-width: 0.8"/>
      </g>
     </g>
     <g id="text_13">
      <!-- 2023-11-19 -->
      <g transform="translate(418.397319 176.307) scale(0.1 -0.1)">
       <use xlink:href="#SimHei-32"/>
       <use xlink:href="#SimHei-30" x="50"/>
       <use xlink:href="#SimHei-32" x="100"/>
       <use xlink:href="#SimHei-33" x="150"/>
       <use xlink:href="#SimHei-2d" x="200"/>
       <use xlink:href="#SimHei-31" x="250"/>
       <use xlink:href="#SimHei-31" x="300"/>
       <use xlink:href="#SimHei-2d" x="350"/>
       <use xlink:href="#SimHei-31" x="400"/>
       <use xlink:href="#SimHei-39" x="450"/>
      </g>
     </g>
    </g>
    <g id="xtick_6">
     <g id="line2d_14">
      <g>
       <use xlink:href="#m82c1e4c242" x="507.339259" y="162.432" style="stroke: #000000; stroke-width: 0.8"/>
      </g>
     </g>
     <g id="text_14">
      <!-- 2024-01-18 -->
      <g transform="translate(482.339259 176.307) scale(0.1 -0.1)">
       <use xlink:href="#SimHei-32"/>
       <use xlink:href="#SimHei-30" x="50"/>
       <use xlink:href="#SimHei-32" x="100"/>
       <use xlink:href="#SimHei-34" x="150"/>
       <use xlink:href="#SimHei-2d" x="200"/>
       <use xlink:href="#SimHei-30" x="250"/>
       <use xlink:href="#SimHei-31" x="300"/>
       <use xlink:href="#SimHei-2d" x="350"/>
       <use xlink:href="#SimHei-31" x="400"/>
       <use xlink:href="#SimHei-38" x="450"/>
      </g>
     </g>
    </g>
   </g>
   <g id="matplotlib.axis_4">
    <g id="ytick_8">
     <g id="line2d_15">
      <g>
       <use xlink:href="#m6c634199a2" x="322.120772" y="155.376" style="stroke: #000000; stroke-width: 0.8"/>
      </g>
     </g>
     <g id="text_15">
      <!-- 0.0 -->
      <g transform="translate(300.120772 158.8135) scale(0.1 -0.1)">
       <use xlink:href="#SimHei-30"/>
       <use xlink:href="#SimHei-2e" x="50"/>
       <use xlink:href="#SimHei-30" x="100"/>
      </g>
     </g>
    </g>
    <g id="ytick_9">
     <g id="line2d_16">
      <g>
       <use xlink:href="#m6c634199a2" x="322.120772" y="127.152" style="stroke: #000000; stroke-width: 0.8"/>
      </g>
     </g>
     <g id="text_16">
      <!-- 0.2 -->
      <g transform="translate(300.120772 130.5895) scale(0.1 -0.1)">
       <use xlink:href="#SimHei-30"/>
       <use xlink:href="#SimHei-2e" x="50"/>
       <use xlink:href="#SimHei-32" x="100"/>
      </g>
     </g>
    </g>
    <g id="ytick_10">
     <g id="line2d_17">
      <g>
       <use xlink:href="#m6c634199a2" x="322.120772" y="98.928" style="stroke: #000000; stroke-width: 0.8"/>
      </g>
     </g>
     <g id="text_17">
      <!-- 0.4 -->
      <g transform="translate(300.120772 102.3655) scale(0.1 -0.1)">
       <use xlink:href="#SimHei-30"/>
       <use xlink:href="#SimHei-2e" x="50"/>
       <use xlink:href="#SimHei-34" x="100"/>
      </g>
     </g>
    </g>
    <g id="ytick_11">
     <g id="line2d_18">
      <g>
       <use xlink:href="#m6c634199a2" x="322.120772" y="70.704" style="stroke: #000000; stroke-width: 0.8"/>
      </g>
     </g>
     <g id="text_18">
      <!-- 0.6 -->
      <g transform="translate(300.120772 74.1415) scale(0.1 -0.1)">
       <use xlink:href="#SimHei-30"/>
       <use xlink:href="#SimHei-2e" x="50"/>
       <use xlink:href="#SimHei-36" x="100"/>
      </g>
     </g>
    </g>
    <g id="ytick_12">
     <g id="line2d_19">
      <g>
       <use xlink:href="#m6c634199a2" x="322.120772" y="42.48" style="stroke: #000000; stroke-width: 0.8"/>
      </g>
     </g>
     <g id="text_19">
      <!-- 0.8 -->
      <g transform="translate(300.120772 45.9175) scale(0.1 -0.1)">
       <use xlink:href="#SimHei-30"/>
       <use xlink:href="#SimHei-2e" x="50"/>
       <use xlink:href="#SimHei-38" x="100"/>
      </g>
     </g>
    </g>
    <g id="ytick_13">
     <g id="line2d_20">
      <g>
       <use xlink:href="#m6c634199a2" x="322.120772" y="14.256" style="stroke: #000000; stroke-width: 0.8"/>
      </g>
     </g>
     <g id="text_20">
      <!-- 1.0 -->
      <g transform="translate(300.120772 17.6935) scale(0.1 -0.1)">
       <use xlink:href="#SimHei-31"/>
       <use xlink:href="#SimHei-2e" x="50"/>
       <use xlink:href="#SimHei-30" x="100"/>
      </g>
     </g>
    </g>
   </g>
   <g id="line2d_21">
    <path d="M 332.564622 155.376 
L 400.769359 155.375994 
L 401.835058 152.082934 
L 402.900757 152.265147 
L 403.966456 153.051919 
L 407.163553 150.855077 
L 408.229252 139.046723 
L 409.294951 111.257405 
L 410.36065 105.664933 
L 411.426349 95.946351 
L 414.623446 84.610585 
L 415.689145 80.032681 
L 416.754844 74.933678 
L 417.820543 76.958436 
L 418.886242 62.836692 
L 422.083339 64.444408 
L 423.149038 69.171575 
L 424.214737 66.063656 
L 426.346135 68.774562 
L 429.543232 66.815545 
L 430.608931 64.694097 
L 431.67463 73.285242 
L 432.740329 76.113581 
L 433.806028 76.717797 
L 437.003125 94.121388 
L 438.068824 95.127075 
L 439.134523 99.489444 
L 440.200222 100.434463 
L 441.265921 95.293709 
L 444.463018 101.51425 
L 445.528717 97.374744 
L 446.594416 93.783889 
L 447.660115 95.260798 
L 448.725814 98.138253 
L 451.922911 93.66649 
L 452.98861 91.294329 
L 454.054309 93.674196 
L 455.120008 81.128061 
L 456.185707 78.759744 
L 459.382804 81.914199 
L 460.448503 99.548574 
L 461.514202 93.535826 
L 462.579901 84.549746 
L 463.6456 79.328482 
L 466.842697 83.998519 
L 467.908396 83.2381 
L 468.974095 91.808352 
L 470.039794 97.540394 
L 471.105493 106.5843 
L 474.30259 109.07573 
L 475.368289 101.073978 
L 477.499687 112.484492 
L 478.565386 119.094107 
L 481.762483 118.812396 
L 482.828182 118.536956 
L 483.893881 115.702831 
L 486.025279 120.096066 
L 490.288075 119.0274 
L 491.353774 116.584213 
L 492.419473 117.675186 
L 493.485172 117.462493 
L 496.682269 115.961089 
L 497.747968 115.927752 
L 498.813667 112.408345 
L 499.879366 111.064383 
L 500.945065 108.374521 
L 504.142162 102.445479 
L 505.207861 101.693419 
L 506.27356 102.518577 
L 508.404958 97.140463 
L 511.602055 103.514831 
L 512.667754 106.39052 
L 513.733453 108.465107 
L 514.799153 107.793014 
L 515.864852 106.111335 
L 519.061949 108.563344 
L 520.127648 108.839674 
L 521.193347 110.997982 
L 522.259046 111.545862 
L 523.324745 114.717159 
L 526.521842 113.645884 
L 527.587541 111.205311 
L 528.65324 116.501376 
L 529.718939 115.396274 
L 541.441628 116.149199 
L 541.441628 116.149199 
" clip-path="url(#p1cfe2ea553)" style="fill: none; stroke: #1f77b4; stroke-width: 1.5; stroke-linecap: square"/>
   </g>
   <g id="line2d_22">
    <path d="M 332.564622 155.376 
L 333.630321 131.331253 
L 334.69602 126.93609 
L 335.761719 126.726334 
L 336.827418 125.955775 
L 340.024515 129.528145 
L 341.090214 126.873168 
L 342.155913 125.569065 
L 343.221612 126.020209 
L 344.287311 122.432246 
L 347.484408 126.8582 
L 348.550107 132.295307 
L 349.615806 119.001883 
L 350.681505 120.601385 
L 351.747204 120.905405 
L 354.944301 118.37123 
L 356.01 117.734193 
L 358.141398 113.145497 
L 359.207097 103.141673 
L 362.404195 103.341211 
L 363.469894 107.967434 
L 364.535593 110.307512 
L 365.601292 106.454528 
L 366.666991 108.875658 
L 369.864088 112.00588 
L 370.929787 114.175045 
L 371.995486 109.990091 
L 373.061185 108.394048 
L 374.126884 113.752289 
L 377.323981 111.245707 
L 378.38968 115.477869 
L 379.455379 98.280441 
L 380.521078 104.090107 
L 381.586777 102.426756 
L 384.783874 102.149508 
L 385.849573 102.942426 
L 386.915272 108.843739 
L 387.980971 110.551024 
L 399.70366 106.904792 
L 400.769359 113.103778 
L 401.835058 112.192207 
L 402.900757 112.292248 
L 403.966456 110.4573 
L 407.163553 110.590091 
L 408.229252 114.044875 
L 409.294951 134.244718 
L 410.36065 141.188929 
L 411.426349 153.098427 
L 414.623446 155.375998 
L 430.608931 155.375999 
L 431.67463 146.47156 
L 432.740329 144.627282 
L 433.806028 142.246016 
L 437.003125 144.45356 
L 438.068824 142.604486 
L 439.134523 139.660316 
L 440.200222 142.641345 
L 441.265921 148.981693 
L 444.463018 148.082405 
L 445.528717 153.004728 
L 446.594416 153.587655 
L 447.660115 152.077872 
L 448.725814 148.601867 
L 451.922911 155.375999 
L 541.441628 155.376 
L 541.441628 155.376 
" clip-path="url(#p1cfe2ea553)" style="fill: none; stroke: #ff7f0e; stroke-width: 1.5; stroke-linecap: square"/>
   </g>
   <g id="line2d_23">
    <path d="M 332.564622 155.376 
L 333.630321 148.637698 
L 335.761719 146.819074 
L 336.827418 144.574687 
L 340.024515 145.509368 
L 341.090214 141.454874 
L 342.155913 145.297602 
L 343.221612 151.598114 
L 344.287311 155.376 
L 365.601292 155.376 
L 366.666991 153.523286 
L 369.864088 155.376 
L 416.754844 155.376 
L 417.820543 152.73052 
L 418.886242 154.623164 
L 422.083339 146.957443 
L 423.149038 149.287424 
L 424.214737 155.376 
L 425.280436 154.586469 
L 426.346135 155.376 
L 506.27356 155.376 
L 507.339259 154.778149 
L 508.404958 152.215741 
L 511.602055 148.67352 
L 512.667754 150.998992 
L 513.733453 150.33502 
L 514.799153 150.465057 
L 515.864852 149.971531 
L 519.061949 149.200804 
L 520.127648 150.689941 
L 521.193347 154.285739 
L 522.259046 155.376 
L 528.65324 155.376 
L 529.718939 153.18775 
L 541.441628 154.6383 
L 541.441628 154.6383 
" clip-path="url(#p1cfe2ea553)" style="fill: none; stroke: #2ca02c; stroke-width: 1.5; stroke-linecap: square"/>
   </g>
   <g id="line2d_24">
    <path d="M 332.564622 155.376 
L 541.441628 155.376 
L 541.441628 155.376 
" clip-path="url(#p1cfe2ea553)" style="fill: none; stroke: #d62728; stroke-width: 1.5; stroke-linecap: square"/>
   </g>
   <g id="line2d_25">
    <path d="M 332.564622 155.376 
L 336.827418 155.376 
L 340.024515 154.986946 
L 341.090214 152.959693 
L 342.155913 149.652645 
L 343.221612 149.561386 
L 344.287311 143.58694 
L 347.484408 144.335481 
L 348.550107 144.990226 
L 349.615806 153.228295 
L 350.681505 155.375999 
L 351.747204 155.06669 
L 354.944301 153.456049 
L 356.01 155.376 
L 541.441628 155.376 
L 541.441628 155.376 
" clip-path="url(#p1cfe2ea553)" style="fill: none; stroke: #9467bd; stroke-width: 1.5; stroke-linecap: square"/>
   </g>
   <g id="line2d_26">
    <path d="M 332.564622 155.376 
L 401.835058 155.376 
L 402.900757 153.361014 
L 403.966456 141.416614 
L 407.163553 134.82465 
L 408.229252 122.932167 
L 410.36065 131.915385 
L 411.426349 134.758063 
L 415.689145 134.215026 
L 416.754844 128.908605 
L 417.820543 127.89831 
L 418.886242 133.923817 
L 422.083339 143.062321 
L 423.149038 133.604401 
L 424.214737 121.730267 
L 425.280436 126.719928 
L 426.346135 129.240521 
L 429.543232 135.714653 
L 430.608931 131.770404 
L 431.67463 130.758305 
L 432.740329 129.117317 
L 433.806028 135.00001 
L 437.003125 140.268667 
L 438.068824 137.967914 
L 439.134523 144.043748 
L 440.200222 141.002787 
L 441.265921 141.953087 
L 444.463018 145.512814 
L 445.528717 143.757901 
L 446.594416 145.895717 
L 447.660115 146.542426 
L 448.725814 148.082613 
L 451.922911 143.707195 
L 452.98861 145.761779 
L 454.054309 145.294359 
L 455.120008 148.18574 
L 456.185707 149.972297 
L 459.382804 151.363801 
L 460.448503 146.402453 
L 461.514202 150.494117 
L 462.579901 153.143939 
L 463.6456 152.982374 
L 466.842697 150.308529 
L 467.908396 144.360184 
L 468.974095 142.967361 
L 470.039794 143.110361 
L 471.105493 134.777341 
L 474.30259 136.637051 
L 475.368289 136.641917 
L 476.433988 137.484503 
L 477.499687 135.264601 
L 478.565386 136.104513 
L 481.762483 133.741827 
L 482.828182 135.725939 
L 483.893881 142.132382 
L 484.95958 143.498307 
L 486.025279 140.724329 
L 490.288075 141.190012 
L 491.353774 139.288192 
L 492.419473 142.018016 
L 493.485172 144.051119 
L 496.682269 145.544483 
L 497.747968 147.307806 
L 498.813667 147.808171 
L 499.879366 147.843969 
L 500.945065 149.289583 
L 504.142162 147.157792 
L 505.207861 148.324671 
L 506.27356 142.741503 
L 508.404958 154.645934 
L 511.602055 154.172964 
L 512.667754 151.480153 
L 514.799153 155.315799 
L 515.864852 155.376 
L 519.061949 154.275938 
L 520.127648 155.376 
L 541.441628 155.376 
L 541.441628 155.376 
" clip-path="url(#p1cfe2ea553)" style="fill: none; stroke: #8c564b; stroke-width: 1.5; stroke-linecap: square"/>
   </g>
   <g id="line2d_27">
    <path d="M 332.564622 155.376 
L 333.630321 155.376 
L 334.69602 153.595069 
L 335.761719 155.37599 
L 336.827418 155.375999 
L 340.024515 149.896844 
L 341.090214 155.376 
L 377.323981 155.376 
L 378.38968 141.504096 
L 379.455379 152.14662 
L 380.521078 155.375994 
L 384.783874 155.376 
L 385.849573 153.555009 
L 386.915272 151.192533 
L 387.980971 141.392131 
L 399.70366 135.342086 
L 400.769359 133.11968 
L 401.835058 141.825619 
L 402.900757 138.711549 
L 403.966456 140.978822 
L 407.163553 142.732321 
L 408.229252 155.376 
L 410.36065 155.375999 
L 411.426349 142.217824 
L 414.623446 151.720654 
L 415.689145 155.376 
L 492.419473 155.376 
L 493.485172 151.918976 
L 496.682269 149.490909 
L 497.747968 150.519415 
L 498.813667 153.424038 
L 499.879366 155.376 
L 541.441628 155.376 
L 541.441628 155.376 
" clip-path="url(#p1cfe2ea553)" style="fill: none; stroke: #e377c2; stroke-width: 1.5; stroke-linecap: square"/>
   </g>
   <g id="line2d_28">
    <path d="M 332.564622 155.376 
L 425.280436 155.376 
L 426.346135 149.451651 
L 429.543232 147.226288 
L 430.608931 148.458424 
L 431.67463 144.915145 
L 432.740329 151.585969 
L 433.806028 148.82618 
L 437.003125 117.6024 
L 438.068824 112.332577 
L 439.134523 104.828381 
L 440.200222 105.359343 
L 441.265921 105.719867 
L 444.463018 94.10686 
L 445.528717 95.173398 
L 446.594416 94.632553 
L 447.660115 93.612138 
L 448.725814 93.707759 
L 451.922911 93.375142 
L 452.98861 93.760576 
L 454.054309 86.073429 
L 455.120008 100.598295 
L 456.185707 100.796156 
L 459.382804 99.377311 
L 460.448503 96.460109 
L 461.514202 96.414071 
L 462.579901 95.522181 
L 463.6456 92.697144 
L 466.842697 90.700952 
L 467.908396 97.409716 
L 470.039794 84.357247 
L 471.105493 83.646359 
L 474.30259 79.295219 
L 475.368289 87.292106 
L 476.433988 81.012375 
L 477.499687 77.258908 
L 478.565386 69.80938 
L 481.762483 72.453777 
L 482.828182 70.745105 
L 484.95958 63.729714 
L 486.025279 64.187605 
L 490.288075 64.790588 
L 491.353774 69.135595 
L 492.419473 65.314798 
L 493.485172 66.951412 
L 497.747968 70.111861 
L 498.813667 69.389811 
L 500.945065 72.562693 
L 504.142162 75.838134 
L 505.207861 77.588241 
L 506.27356 82.762995 
L 507.339259 81.957431 
L 508.404958 77.288972 
L 511.602055 76.886653 
L 512.667754 73.851822 
L 513.733453 70.429598 
L 514.799153 71.179125 
L 515.864852 73.555749 
L 519.061949 75.871092 
L 520.127648 75.770548 
L 521.193347 76.552079 
L 522.259046 71.164288 
L 523.324745 68.051605 
L 526.521842 65.634814 
L 527.587541 68.279525 
L 528.65324 65.613502 
L 529.718939 67.543252 
L 541.441628 62.916336 
L 541.441628 62.916336 
" clip-path="url(#p1cfe2ea553)" style="fill: none; stroke: #7f7f7f; stroke-width: 1.5; stroke-linecap: square"/>
   </g>
   <g id="line2d_29">
    <path d="M 332.564622 155.376 
L 333.630321 129.414613 
L 334.69602 128.076822 
L 335.761719 132.328908 
L 336.827418 137.878229 
L 340.024515 139.350698 
L 341.090214 136.208923 
L 342.155913 133.624867 
L 343.221612 137.856513 
L 344.287311 149.509277 
L 347.484408 137.754583 
L 349.615806 146.208291 
L 350.681505 142.689469 
L 351.747204 147.891948 
L 354.944301 155.376 
L 356.01 149.892316 
L 357.075699 149.426076 
L 358.141398 147.618642 
L 359.207097 155.376 
L 370.929787 155.376 
L 371.995486 154.648935 
L 373.061185 155.375999 
L 374.126884 153.0927 
L 377.323981 151.79155 
L 378.38968 155.146454 
L 379.455379 155.376 
L 399.70366 155.376 
L 400.769359 147.62934 
L 401.835058 130.406513 
L 402.900757 139.893218 
L 403.966456 141.779308 
L 407.163553 150.215482 
L 408.229252 155.375999 
L 409.294951 155.375998 
L 410.36065 154.882299 
L 411.426349 155.376 
L 515.864852 155.376 
L 519.061949 154.266751 
L 520.127648 153.255199 
L 521.193347 155.376 
L 541.441628 155.376 
L 541.441628 155.376 
" clip-path="url(#p1cfe2ea553)" style="fill: none; stroke: #bcbd22; stroke-width: 1.5; stroke-linecap: square"/>
   </g>
   <g id="line2d_30">
    <path d="M 332.564622 155.376 
L 333.630321 71.000435 
L 334.69602 79.380424 
L 335.761719 74.509693 
L 336.827418 71.97531 
L 340.024515 71.863998 
L 341.090214 78.263342 
L 342.155913 81.615821 
L 343.221612 70.723779 
L 344.287311 64.855537 
L 347.484408 71.435737 
L 348.550107 60.915997 
L 349.615806 61.94553 
L 350.681505 61.717147 
L 351.747204 56.519958 
L 354.944301 53.180721 
L 356.01 57.381491 
L 357.075699 60.207047 
L 358.141398 64.243862 
L 359.207097 66.490328 
L 362.404195 66.290789 
L 363.469894 61.664567 
L 364.535593 59.324488 
L 365.601292 63.177472 
L 366.666991 62.609057 
L 369.864088 57.62612 
L 370.929787 55.456956 
L 371.995486 60.368974 
L 373.061185 61.237952 
L 374.126884 58.163011 
L 377.323981 61.970747 
L 379.455379 74.580939 
L 380.521078 65.541899 
L 381.586777 67.205244 
L 384.783874 67.482492 
L 385.849573 68.510566 
L 386.915272 64.971728 
L 387.980971 73.064844 
L 399.70366 82.761122 
L 400.769359 86.531208 
L 401.835058 99.252727 
L 402.900757 94.612824 
L 403.966456 103.452039 
L 407.163553 101.91838 
L 408.229252 104.360237 
L 409.294951 107.55807 
L 410.36065 102.108456 
L 411.426349 109.739335 
L 414.623446 109.679605 
L 415.689145 110.760294 
L 416.754844 121.165718 
L 417.820543 122.796735 
L 418.886242 129.000328 
L 422.083339 125.919828 
L 423.149038 128.3206 
L 424.214737 137.214078 
L 425.280436 131.724497 
L 426.346135 132.917266 
L 429.543232 130.627513 
L 431.67463 140.329748 
L 432.740329 134.315851 
L 433.806028 132.969997 
L 437.003125 139.313986 
L 438.068824 147.727949 
L 439.134523 147.738111 
L 440.200222 146.322061 
L 441.265921 143.811644 
L 444.463018 146.543672 
L 445.528717 146.449229 
L 446.594416 147.860187 
L 447.660115 148.266765 
L 448.725814 147.229507 
L 451.922911 149.635175 
L 452.98861 149.567316 
L 454.054309 155.342016 
L 455.120008 150.471904 
L 456.185707 150.855805 
L 459.382804 147.728689 
L 460.448503 137.972864 
L 461.514202 139.939987 
L 462.579901 147.168134 
L 463.6456 155.376 
L 467.908396 155.376 
L 468.974095 154.673042 
L 470.039794 155.376 
L 496.682269 155.376 
L 497.747968 151.893167 
L 498.813667 152.729635 
L 499.879366 150.582791 
L 500.945065 150.157204 
L 504.142162 154.942594 
L 505.207861 152.777669 
L 506.27356 152.360926 
L 507.339259 150.544769 
L 508.404958 154.46889 
L 511.602055 152.512032 
L 512.667754 153.038513 
L 513.733453 153.182823 
L 514.799153 151.007006 
L 515.864852 150.745386 
L 519.061949 148.958071 
L 520.127648 147.204638 
L 521.193347 138.5482 
L 522.259046 142.297854 
L 523.324745 142.239236 
L 526.521842 145.727302 
L 527.587541 145.523165 
L 528.65324 142.893122 
L 529.718939 144.256724 
L 541.441628 146.680165 
L 541.441628 146.680165 
" clip-path="url(#p1cfe2ea553)" style="fill: none; stroke: #17becf; stroke-width: 1.5; stroke-linecap: square"/>
   </g>
   <g id="line2d_31">
    <path d="M 332.564622 14.256 
L 333.630321 155.376 
L 541.441628 155.376 
L 541.441628 155.376 
" clip-path="url(#p1cfe2ea553)" style="fill: none; stroke: #1f77b4; stroke-width: 1.5; stroke-linecap: square"/>
   </g>
   <g id="patch_8">
    <path d="M 322.120772 162.432 
L 322.120772 7.2 
" style="fill: none; stroke: #000000; stroke-width: 0.8; stroke-linejoin: miter; stroke-linecap: square"/>
   </g>
   <g id="patch_9">
    <path d="M 551.885478 162.432 
L 551.885478 7.2 
" style="fill: none; stroke: #000000; stroke-width: 0.8; stroke-linejoin: miter; stroke-linecap: square"/>
   </g>
   <g id="patch_10">
    <path d="M 322.120772 162.432 
L 551.885478 162.432 
" style="fill: none; stroke: #000000; stroke-width: 0.8; stroke-linejoin: miter; stroke-linecap: square"/>
   </g>
   <g id="patch_11">
    <path d="M 322.120772 7.2 
L 551.885478 7.2 
" style="fill: none; stroke: #000000; stroke-width: 0.8; stroke-linejoin: miter; stroke-linecap: square"/>
   </g>
   <g id="legend_1">
    <g id="patch_12">
     <path d="M 457.885478 148.60625 
L 544.885478 148.60625 
Q 546.885478 148.60625 546.885478 146.60625 
L 546.885478 14.2 
Q 546.885478 12.2 544.885478 12.2 
L 457.885478 12.2 
Q 455.885478 12.2 455.885478 14.2 
L 455.885478 146.60625 
Q 455.885478 148.60625 457.885478 148.60625 
z
" style="fill: #ffffff; opacity: 0.8; stroke: #cccccc; stroke-linejoin: miter"/>
    </g>
    <g id="line2d_32">
     <path d="M 459.885478 19.73125 
L 469.885478 19.73125 
L 479.885478 19.73125 
" style="fill: none; stroke: #1f77b4; stroke-width: 1.5; stroke-linecap: square"/>
    </g>
    <g id="text_21">
     <!-- w_002027.SZ -->
     <g transform="translate(487.885478 23.23125) scale(0.1 -0.1)">
      <defs>
       <path id="SimHei-77" d="M 3075 2925 
L 2450 75 
L 1975 75 
L 1575 2250 
L 1525 2250 
L 1125 75 
L 650 75 
L 25 2925 
L 550 2925 
L 875 1050 
L 925 1050 
L 1275 2925 
L 1825 2925 
L 2175 1050 
L 2225 1050 
L 2550 2925 
L 3075 2925 
z
" transform="scale(0.015625)"/>
       <path id="SimHei-5f" d="M 3150 -850 
L 0 -850 
L 0 -550 
L 3150 -550 
L 3150 -850 
z
" transform="scale(0.015625)"/>
       <path id="SimHei-37" d="M 850 150 
Q 1300 2050 2425 3925 
L 275 3925 
L 275 4375 
L 2950 4375 
L 2950 3950 
Q 1775 2050 1400 150 
L 850 150 
z
" transform="scale(0.015625)"/>
       <path id="SimHei-5a" d="M 2900 125 
L 225 125 
L 225 600 
L 2250 3925 
L 375 3925 
L 375 4400 
L 2825 4400 
L 2825 3925 
L 800 600 
L 2900 600 
L 2900 125 
z
" transform="scale(0.015625)"/>
      </defs>
      <use xlink:href="#SimHei-77"/>
      <use xlink:href="#SimHei-5f" x="50"/>
      <use xlink:href="#SimHei-30" x="100"/>
      <use xlink:href="#SimHei-30" x="150"/>
      <use xlink:href="#SimHei-32" x="200"/>
      <use xlink:href="#SimHei-30" x="250"/>
      <use xlink:href="#SimHei-32" x="300"/>
      <use xlink:href="#SimHei-37" x="350"/>
      <use xlink:href="#SimHei-2e" x="400"/>
      <use xlink:href="#SimHei-53" x="450"/>
      <use xlink:href="#SimHei-5a" x="500"/>
     </g>
    </g>
    <g id="line2d_33">
     <path d="M 459.885478 33.090625 
L 469.885478 33.090625 
L 479.885478 33.090625 
" style="fill: none; stroke: #ff7f0e; stroke-width: 1.5; stroke-linecap: square"/>
    </g>
    <g id="text_22">
     <!-- w_002371.SZ -->
     <g transform="translate(487.885478 36.590625) scale(0.1 -0.1)">
      <use xlink:href="#SimHei-77"/>
      <use xlink:href="#SimHei-5f" x="50"/>
      <use xlink:href="#SimHei-30" x="100"/>
      <use xlink:href="#SimHei-30" x="150"/>
      <use xlink:href="#SimHei-32" x="200"/>
      <use xlink:href="#SimHei-33" x="250"/>
      <use xlink:href="#SimHei-37" x="300"/>
      <use xlink:href="#SimHei-31" x="350"/>
      <use xlink:href="#SimHei-2e" x="400"/>
      <use xlink:href="#SimHei-53" x="450"/>
      <use xlink:href="#SimHei-5a" x="500"/>
     </g>
    </g>
    <g id="line2d_34">
     <path d="M 459.885478 46.41875 
L 469.885478 46.41875 
L 479.885478 46.41875 
" style="fill: none; stroke: #2ca02c; stroke-width: 1.5; stroke-linecap: square"/>
    </g>
    <g id="text_23">
     <!-- w_600009.SH -->
     <g transform="translate(487.885478 49.91875) scale(0.1 -0.1)">
      <defs>
       <path id="SimHei-48" d="M 2850 125 
L 2275 125 
L 2275 2125 
L 850 2125 
L 850 125 
L 275 125 
L 275 4400 
L 850 4400 
L 850 2600 
L 2275 2600 
L 2275 4400 
L 2850 4400 
L 2850 125 
z
" transform="scale(0.015625)"/>
      </defs>
      <use xlink:href="#SimHei-77"/>
      <use xlink:href="#SimHei-5f" x="50"/>
      <use xlink:href="#SimHei-36" x="100"/>
      <use xlink:href="#SimHei-30" x="150"/>
      <use xlink:href="#SimHei-30" x="200"/>
      <use xlink:href="#SimHei-30" x="250"/>
      <use xlink:href="#SimHei-30" x="300"/>
      <use xlink:href="#SimHei-39" x="350"/>
      <use xlink:href="#SimHei-2e" x="400"/>
      <use xlink:href="#SimHei-53" x="450"/>
      <use xlink:href="#SimHei-48" x="500"/>
     </g>
    </g>
    <g id="line2d_35">
     <path d="M 459.885478 59.778125 
L 469.885478 59.778125 
L 479.885478 59.778125 
" style="fill: none; stroke: #d62728; stroke-width: 1.5; stroke-linecap: square"/>
    </g>
    <g id="text_24">
     <!-- w_600029.SH -->
     <g transform="translate(487.885478 63.278125) scale(0.1 -0.1)">
      <use xlink:href="#SimHei-77"/>
      <use xlink:href="#SimHei-5f" x="50"/>
      <use xlink:href="#SimHei-36" x="100"/>
      <use xlink:href="#SimHei-30" x="150"/>
      <use xlink:href="#SimHei-30" x="200"/>
      <use xlink:href="#SimHei-30" x="250"/>
      <use xlink:href="#SimHei-32" x="300"/>
      <use xlink:href="#SimHei-39" x="350"/>
      <use xlink:href="#SimHei-2e" x="400"/>
      <use xlink:href="#SimHei-53" x="450"/>
      <use xlink:href="#SimHei-48" x="500"/>
     </g>
    </g>
    <g id="line2d_36">
     <path d="M 459.885478 73.1375 
L 469.885478 73.1375 
L 479.885478 73.1375 
" style="fill: none; stroke: #9467bd; stroke-width: 1.5; stroke-linecap: square"/>
    </g>
    <g id="text_25">
     <!-- w_600183.SH -->
     <g transform="translate(487.885478 76.6375) scale(0.1 -0.1)">
      <use xlink:href="#SimHei-77"/>
      <use xlink:href="#SimHei-5f" x="50"/>
      <use xlink:href="#SimHei-36" x="100"/>
      <use xlink:href="#SimHei-30" x="150"/>
      <use xlink:href="#SimHei-30" x="200"/>
      <use xlink:href="#SimHei-31" x="250"/>
      <use xlink:href="#SimHei-38" x="300"/>
      <use xlink:href="#SimHei-33" x="350"/>
      <use xlink:href="#SimHei-2e" x="400"/>
      <use xlink:href="#SimHei-53" x="450"/>
      <use xlink:href="#SimHei-48" x="500"/>
     </g>
    </g>
    <g id="line2d_37">
     <path d="M 459.885478 86.465625 
L 469.885478 86.465625 
L 479.885478 86.465625 
" style="fill: none; stroke: #8c564b; stroke-width: 1.5; stroke-linecap: square"/>
    </g>
    <g id="text_26">
     <!-- w_600406.SH -->
     <g transform="translate(487.885478 89.965625) scale(0.1 -0.1)">
      <use xlink:href="#SimHei-77"/>
      <use xlink:href="#SimHei-5f" x="50"/>
      <use xlink:href="#SimHei-36" x="100"/>
      <use xlink:href="#SimHei-30" x="150"/>
      <use xlink:href="#SimHei-30" x="200"/>
      <use xlink:href="#SimHei-34" x="250"/>
      <use xlink:href="#SimHei-30" x="300"/>
      <use xlink:href="#SimHei-36" x="350"/>
      <use xlink:href="#SimHei-2e" x="400"/>
      <use xlink:href="#SimHei-53" x="450"/>
      <use xlink:href="#SimHei-48" x="500"/>
     </g>
    </g>
    <g id="line2d_38">
     <path d="M 459.885478 99.79375 
L 469.885478 99.79375 
L 479.885478 99.79375 
" style="fill: none; stroke: #e377c2; stroke-width: 1.5; stroke-linecap: square"/>
    </g>
    <g id="text_27">
     <!-- w_600900.SH -->
     <g transform="translate(487.885478 103.29375) scale(0.1 -0.1)">
      <use xlink:href="#SimHei-77"/>
      <use xlink:href="#SimHei-5f" x="50"/>
      <use xlink:href="#SimHei-36" x="100"/>
      <use xlink:href="#SimHei-30" x="150"/>
      <use xlink:href="#SimHei-30" x="200"/>
      <use xlink:href="#SimHei-39" x="250"/>
      <use xlink:href="#SimHei-30" x="300"/>
      <use xlink:href="#SimHei-30" x="350"/>
      <use xlink:href="#SimHei-2e" x="400"/>
      <use xlink:href="#SimHei-53" x="450"/>
      <use xlink:href="#SimHei-48" x="500"/>
     </g>
    </g>
    <g id="line2d_39">
     <path d="M 459.885478 113.121875 
L 469.885478 113.121875 
L 479.885478 113.121875 
" style="fill: none; stroke: #7f7f7f; stroke-width: 1.5; stroke-linecap: square"/>
    </g>
    <g id="text_28">
     <!-- w_601989.SH -->
     <g transform="translate(487.885478 116.621875) scale(0.1 -0.1)">
      <use xlink:href="#SimHei-77"/>
      <use xlink:href="#SimHei-5f" x="50"/>
      <use xlink:href="#SimHei-36" x="100"/>
      <use xlink:href="#SimHei-30" x="150"/>
      <use xlink:href="#SimHei-31" x="200"/>
      <use xlink:href="#SimHei-39" x="250"/>
      <use xlink:href="#SimHei-38" x="300"/>
      <use xlink:href="#SimHei-39" x="350"/>
      <use xlink:href="#SimHei-2e" x="400"/>
      <use xlink:href="#SimHei-53" x="450"/>
      <use xlink:href="#SimHei-48" x="500"/>
     </g>
    </g>
    <g id="line2d_40">
     <path d="M 459.885478 126.45 
L 469.885478 126.45 
L 479.885478 126.45 
" style="fill: none; stroke: #bcbd22; stroke-width: 1.5; stroke-linecap: square"/>
    </g>
    <g id="text_29">
     <!-- w_601998.SH -->
     <g transform="translate(487.885478 129.95) scale(0.1 -0.1)">
      <use xlink:href="#SimHei-77"/>
      <use xlink:href="#SimHei-5f" x="50"/>
      <use xlink:href="#SimHei-36" x="100"/>
      <use xlink:href="#SimHei-30" x="150"/>
      <use xlink:href="#SimHei-31" x="200"/>
      <use xlink:href="#SimHei-39" x="250"/>
      <use xlink:href="#SimHei-39" x="300"/>
      <use xlink:href="#SimHei-38" x="350"/>
      <use xlink:href="#SimHei-2e" x="400"/>
      <use xlink:href="#SimHei-53" x="450"/>
      <use xlink:href="#SimHei-48" x="500"/>
     </g>
    </g>
    <g id="line2d_41">
     <path d="M 459.885478 139.778125 
L 469.885478 139.778125 
L 479.885478 139.778125 
" style="fill: none; stroke: #17becf; stroke-width: 1.5; stroke-linecap: square"/>
    </g>
    <g id="text_30">
     <!-- w_CASH -->
     <g transform="translate(487.885478 143.278125) scale(0.1 -0.1)">
      <defs>
       <path id="SimHei-43" d="M 2975 1825 
Q 2950 875 2575 475 
Q 2200 75 1675 75 
Q 1075 75 650 562 
Q 225 1050 225 2125 
Q 225 3300 637 3875 
Q 1050 4450 1700 4450 
Q 2250 4450 2612 4037 
Q 2975 3625 2950 2875 
L 2400 2875 
Q 2400 3425 2225 3700 
Q 2050 3975 1700 3975 
Q 1300 3975 1062 3562 
Q 825 3150 825 2175 
Q 825 1275 1062 912 
Q 1300 550 1675 550 
Q 1950 550 2175 812 
Q 2400 1075 2400 1825 
L 2975 1825 
z
" transform="scale(0.015625)"/>
       <path id="SimHei-41" d="M 3075 125 
L 2475 125 
L 2125 1450 
L 1025 1450 
L 675 125 
L 75 125 
L 1325 4450 
L 1825 4450 
L 3075 125 
z
M 2000 1925 
L 1600 3450 
L 1550 3450 
L 1150 1925 
L 2000 1925 
z
" transform="scale(0.015625)"/>
      </defs>
      <use xlink:href="#SimHei-77"/>
      <use xlink:href="#SimHei-5f" x="50"/>
      <use xlink:href="#SimHei-43" x="100"/>
      <use xlink:href="#SimHei-41" x="150"/>
      <use xlink:href="#SimHei-53" x="200"/>
      <use xlink:href="#SimHei-48" x="250"/>
     </g>
    </g>
   </g>
  </g>
  <g id="axes_3">
   <g id="patch_13">
    <path d="M 597.838419 162.432 
L 827.603125 162.432 
L 827.603125 7.2 
L 597.838419 7.2 
z
" style="fill: #ffffff"/>
   </g>
   <g id="matplotlib.axis_5">
    <g id="xtick_7">
     <g id="line2d_42">
      <g>
       <use xlink:href="#m82c1e4c242" x="654.107327" y="162.432" style="stroke: #000000; stroke-width: 0.8"/>
      </g>
     </g>
     <g id="text_31">
      <!-- 2023-09-20 -->
      <g transform="translate(629.107327 176.307) scale(0.1 -0.1)">
       <use xlink:href="#SimHei-32"/>
       <use xlink:href="#SimHei-30" x="50"/>
       <use xlink:href="#SimHei-32" x="100"/>
       <use xlink:href="#SimHei-33" x="150"/>
       <use xlink:href="#SimHei-2d" x="200"/>
       <use xlink:href="#SimHei-30" x="250"/>
       <use xlink:href="#SimHei-39" x="300"/>
       <use xlink:href="#SimHei-2d" x="350"/>
       <use xlink:href="#SimHei-32" x="400"/>
       <use xlink:href="#SimHei-30" x="450"/>
      </g>
     </g>
    </g>
    <g id="xtick_8">
     <g id="line2d_43">
      <g>
       <use xlink:href="#m82c1e4c242" x="718.049267" y="162.432" style="stroke: #000000; stroke-width: 0.8"/>
      </g>
     </g>
     <g id="text_32">
      <!-- 2023-11-19 -->
      <g transform="translate(693.049267 176.307) scale(0.1 -0.1)">
       <use xlink:href="#SimHei-32"/>
       <use xlink:href="#SimHei-30" x="50"/>
       <use xlink:href="#SimHei-32" x="100"/>
       <use xlink:href="#SimHei-33" x="150"/>
       <use xlink:href="#SimHei-2d" x="200"/>
       <use xlink:href="#SimHei-31" x="250"/>
       <use xlink:href="#SimHei-31" x="300"/>
       <use xlink:href="#SimHei-2d" x="350"/>
       <use xlink:href="#SimHei-31" x="400"/>
       <use xlink:href="#SimHei-39" x="450"/>
      </g>
     </g>
    </g>
    <g id="xtick_9">
     <g id="line2d_44">
      <g>
       <use xlink:href="#m82c1e4c242" x="781.991208" y="162.432" style="stroke: #000000; stroke-width: 0.8"/>
      </g>
     </g>
     <g id="text_33">
      <!-- 2024-01-18 -->
      <g transform="translate(756.991208 176.307) scale(0.1 -0.1)">
       <use xlink:href="#SimHei-32"/>
       <use xlink:href="#SimHei-30" x="50"/>
       <use xlink:href="#SimHei-32" x="100"/>
       <use xlink:href="#SimHei-34" x="150"/>
       <use xlink:href="#SimHei-2d" x="200"/>
       <use xlink:href="#SimHei-30" x="250"/>
       <use xlink:href="#SimHei-31" x="300"/>
       <use xlink:href="#SimHei-2d" x="350"/>
       <use xlink:href="#SimHei-31" x="400"/>
       <use xlink:href="#SimHei-38" x="450"/>
      </g>
     </g>
    </g>
   </g>
   <g id="matplotlib.axis_6">
    <g id="ytick_14">
     <g id="line2d_45">
      <g>
       <use xlink:href="#m6c634199a2" x="597.838419" y="155.376" style="stroke: #000000; stroke-width: 0.8"/>
      </g>
     </g>
     <g id="text_34">
      <!-- 0.0000 -->
      <g transform="translate(560.838419 158.8135) scale(0.1 -0.1)">
       <use xlink:href="#SimHei-30"/>
       <use xlink:href="#SimHei-2e" x="50"/>
       <use xlink:href="#SimHei-30" x="100"/>
       <use xlink:href="#SimHei-30" x="150"/>
       <use xlink:href="#SimHei-30" x="200"/>
       <use xlink:href="#SimHei-30" x="250"/>
      </g>
     </g>
    </g>
    <g id="ytick_15">
     <g id="line2d_46">
      <g>
       <use xlink:href="#m6c634199a2" x="597.838419" y="127.152" style="stroke: #000000; stroke-width: 0.8"/>
      </g>
     </g>
     <g id="text_35">
      <!-- 0.0005 -->
      <g transform="translate(560.838419 130.5895) scale(0.1 -0.1)">
       <defs>
        <path id="SimHei-35" d="M 550 1325 
Q 725 650 1150 575 
Q 1575 500 1837 662 
Q 2100 825 2212 1087 
Q 2325 1350 2312 1675 
Q 2300 2000 2137 2225 
Q 1975 2450 1725 2525 
Q 1475 2600 1162 2525 
Q 850 2450 650 2175 
L 225 2225 
Q 275 2375 700 4375 
L 2675 4375 
L 2675 3925 
L 1075 3925 
Q 950 3250 825 2850 
Q 1200 3025 1525 3012 
Q 1850 3000 2150 2862 
Q 2450 2725 2587 2487 
Q 2725 2250 2787 2012 
Q 2850 1775 2837 1500 
Q 2825 1225 2725 937 
Q 2625 650 2425 462 
Q 2225 275 1937 162 
Q 1650 50 1275 75 
Q 900 100 562 350 
Q 225 600 100 1200 
L 550 1325 
z
" transform="scale(0.015625)"/>
       </defs>
       <use xlink:href="#SimHei-30"/>
       <use xlink:href="#SimHei-2e" x="50"/>
       <use xlink:href="#SimHei-30" x="100"/>
       <use xlink:href="#SimHei-30" x="150"/>
       <use xlink:href="#SimHei-30" x="200"/>
       <use xlink:href="#SimHei-35" x="250"/>
      </g>
     </g>
    </g>
    <g id="ytick_16">
     <g id="line2d_47">
      <g>
       <use xlink:href="#m6c634199a2" x="597.838419" y="98.928" style="stroke: #000000; stroke-width: 0.8"/>
      </g>
     </g>
     <g id="text_36">
      <!-- 0.0010 -->
      <g transform="translate(560.838419 102.3655) scale(0.1 -0.1)">
       <use xlink:href="#SimHei-30"/>
       <use xlink:href="#SimHei-2e" x="50"/>
       <use xlink:href="#SimHei-30" x="100"/>
       <use xlink:href="#SimHei-30" x="150"/>
       <use xlink:href="#SimHei-31" x="200"/>
       <use xlink:href="#SimHei-30" x="250"/>
      </g>
     </g>
    </g>
    <g id="ytick_17">
     <g id="line2d_48">
      <g>
       <use xlink:href="#m6c634199a2" x="597.838419" y="70.704" style="stroke: #000000; stroke-width: 0.8"/>
      </g>
     </g>
     <g id="text_37">
      <!-- 0.0015 -->
      <g transform="translate(560.838419 74.1415) scale(0.1 -0.1)">
       <use xlink:href="#SimHei-30"/>
       <use xlink:href="#SimHei-2e" x="50"/>
       <use xlink:href="#SimHei-30" x="100"/>
       <use xlink:href="#SimHei-30" x="150"/>
       <use xlink:href="#SimHei-31" x="200"/>
       <use xlink:href="#SimHei-35" x="250"/>
      </g>
     </g>
    </g>
    <g id="ytick_18">
     <g id="line2d_49">
      <g>
       <use xlink:href="#m6c634199a2" x="597.838419" y="42.48" style="stroke: #000000; stroke-width: 0.8"/>
      </g>
     </g>
     <g id="text_38">
      <!-- 0.0020 -->
      <g transform="translate(560.838419 45.9175) scale(0.1 -0.1)">
       <use xlink:href="#SimHei-30"/>
       <use xlink:href="#SimHei-2e" x="50"/>
       <use xlink:href="#SimHei-30" x="100"/>
       <use xlink:href="#SimHei-30" x="150"/>
       <use xlink:href="#SimHei-32" x="200"/>
       <use xlink:href="#SimHei-30" x="250"/>
      </g>
     </g>
    </g>
    <g id="ytick_19">
     <g id="line2d_50">
      <g>
       <use xlink:href="#m6c634199a2" x="597.838419" y="14.256" style="stroke: #000000; stroke-width: 0.8"/>
      </g>
     </g>
     <g id="text_39">
      <!-- 0.0025 -->
      <g transform="translate(560.838419 17.6935) scale(0.1 -0.1)">
       <use xlink:href="#SimHei-30"/>
       <use xlink:href="#SimHei-2e" x="50"/>
       <use xlink:href="#SimHei-30" x="100"/>
       <use xlink:href="#SimHei-30" x="150"/>
       <use xlink:href="#SimHei-32" x="200"/>
       <use xlink:href="#SimHei-35" x="250"/>
      </g>
     </g>
    </g>
   </g>
   <g id="line2d_51">
    <path d="M 608.282269 14.256 
L 609.347968 138.051264 
L 610.413667 143.012183 
L 611.479366 143.935533 
L 614.676463 141.86841 
L 615.742162 130.07007 
L 616.807861 141.063104 
L 617.87356 132.275709 
L 618.939259 125.288369 
L 623.202055 134.350846 
L 624.267754 128.148428 
L 625.333453 145.554752 
L 626.399153 144.099699 
L 629.59625 140.507993 
L 630.661949 144.078348 
L 631.727648 152.349321 
L 632.793347 146.752361 
L 633.859046 134.331542 
L 637.056143 154.363316 
L 638.121842 145.703508 
L 639.187541 151.22133 
L 640.25324 147.483582 
L 641.318939 151.302069 
L 644.516036 145.098217 
L 645.581735 151.870065 
L 646.647434 145.971182 
L 647.713133 150.125684 
L 648.778832 144.880726 
L 651.975929 148.629042 
L 653.041628 127.632192 
L 654.107327 120.773834 
L 656.238725 152.99247 
L 659.435822 154.074366 
L 660.501521 151.734017 
L 661.56722 142.738368 
L 662.632919 135.929575 
L 674.355608 137.314825 
L 675.421307 135.816475 
L 676.487006 112.843519 
L 677.552705 136.703286 
L 678.618404 127.416349 
L 681.815501 135.14527 
L 682.8812 107.054154 
L 683.946899 99.821852 
L 685.012598 131.977844 
L 686.078297 110.019986 
L 689.275394 132.165469 
L 690.341093 146.506853 
L 691.406792 138.478074 
L 692.472491 147.455299 
L 693.53819 125.910079 
L 696.735287 131.904595 
L 697.800986 136.016987 
L 698.866685 125.657828 
L 699.932384 143.239599 
L 700.998083 143.527303 
L 704.19518 141.685589 
L 705.260879 143.346419 
L 706.326578 128.525881 
L 707.392277 136.268106 
L 708.457976 142.065467 
L 711.655073 93.039033 
L 712.720772 136.288679 
L 713.786471 133.476727 
L 714.85217 146.20276 
L 715.917869 141.130586 
L 719.114966 130.080119 
L 720.180665 143.377811 
L 721.246364 146.935507 
L 722.312063 148.542271 
L 723.377762 146.333445 
L 726.574859 137.306997 
L 727.640558 151.283531 
L 728.706257 139.840416 
L 729.771956 118.701054 
L 730.837655 145.907773 
L 734.034752 145.404691 
L 735.100451 119.867038 
L 736.16615 143.646034 
L 737.231849 135.344853 
L 738.297548 138.841741 
L 741.494645 146.424856 
L 742.560344 141.908077 
L 743.626043 139.443837 
L 744.691742 143.586039 
L 745.757441 136.878627 
L 748.954538 147.931094 
L 750.020237 139.083024 
L 751.085936 144.696948 
L 752.151635 142.950265 
L 753.217334 140.754088 
L 756.414431 150.389341 
L 757.48013 152.419664 
L 758.545829 141.977305 
L 759.611528 148.125043 
L 760.677227 150.112734 
L 764.940023 153.570841 
L 766.005722 146.527341 
L 767.071421 147.777849 
L 768.13712 148.387803 
L 771.334217 147.289452 
L 772.399916 148.410333 
L 773.465615 147.055292 
L 774.531314 148.975716 
L 775.597013 149.822589 
L 778.79411 140.267291 
L 779.859809 151.050534 
L 780.925508 142.860352 
L 781.991208 143.197775 
L 783.056907 135.429621 
L 786.254004 143.156206 
L 787.319703 143.696017 
L 788.385402 146.303562 
L 789.451101 151.071674 
L 790.5168 150.147828 
L 793.713897 146.002434 
L 794.779596 149.845904 
L 795.845295 138.068173 
L 796.910994 143.270663 
L 797.976693 149.49047 
L 801.17379 147.746235 
L 802.239489 151.183587 
L 803.305188 144.327122 
L 804.370887 149.906751 
L 816.093576 146.882912 
L 817.159275 155.376 
L 817.159275 155.376 
" clip-path="url(#p7b845f818b)" style="fill: none; stroke: #1f77b4; stroke-width: 1.5; stroke-linecap: square"/>
   </g>
   <g id="patch_14">
    <path d="M 597.838419 162.432 
L 597.838419 7.2 
" style="fill: none; stroke: #000000; stroke-width: 0.8; stroke-linejoin: miter; stroke-linecap: square"/>
   </g>
   <g id="patch_15">
    <path d="M 827.603125 162.432 
L 827.603125 7.2 
" style="fill: none; stroke: #000000; stroke-width: 0.8; stroke-linejoin: miter; stroke-linecap: square"/>
   </g>
   <g id="patch_16">
    <path d="M 597.838419 162.432 
L 827.603125 162.432 
" style="fill: none; stroke: #000000; stroke-width: 0.8; stroke-linejoin: miter; stroke-linecap: square"/>
   </g>
   <g id="patch_17">
    <path d="M 597.838419 7.2 
L 827.603125 7.2 
" style="fill: none; stroke: #000000; stroke-width: 0.8; stroke-linejoin: miter; stroke-linecap: square"/>
   </g>
  </g>
 </g>
 <defs>
  <clipPath id="pd86a46ce0f">
   <rect x="46.403125" y="7.2" width="229.764706" height="155.232"/>
  </clipPath>
  <clipPath id="p1cfe2ea553">
   <rect x="322.120772" y="7.2" width="229.764706" height="155.232"/>
  </clipPath>
  <clipPath id="p7b845f818b">
   <rect x="597.838419" y="7.2" width="229.764706" height="155.232"/>
  </clipPath>
 </defs>
</svg>
