<?xml version="1.0" encoding="utf-8" standalone="no"?>
<!DOCTYPE svg PUBLIC "-//W3C//DTD SVG 1.1//EN"
  "http://www.w3.org/Graphics/SVG/1.1/DTD/svg11.dtd">
<svg xmlns:xlink="http://www.w3.org/1999/xlink" width="834.803125pt" height="186.5244pt" viewBox="0 0 834.803125 186.5244" xmlns="http://www.w3.org/2000/svg" version="1.1">
 <metadata>
  <rdf:RDF xmlns:dc="http://purl.org/dc/elements/1.1/" xmlns:cc="http://creativecommons.org/ns#" xmlns:rdf="http://www.w3.org/1999/02/22-rdf-syntax-ns#">
   <cc:Work>
    <dc:type rdf:resource="http://purl.org/dc/dcmitype/StillImage"/>
    <dc:date>2024-12-25T17:33:02.634621</dc:date>
    <dc:format>image/svg+xml</dc:format>
    <dc:creator>
     <cc:Agent>
      <dc:title>Matplotlib v3.9.3, https://matplotlib.org/</dc:title>
     </cc:Agent>
    </dc:creator>
   </cc:Work>
  </rdf:RDF>
 </metadata>
 <defs>
  <style type="text/css">*{stroke-linejoin: round; stroke-linecap: butt}</style>
 </defs>
 <g id="figure_1">
  <g id="patch_1">
   <path d="M 0 186.5244 
L 834.803125 186.5244 
L 834.803125 0 
L 0 0 
z
" style="fill: #ffffff"/>
  </g>
  <g id="axes_1">
   <g id="patch_2">
    <path d="M 46.403125 164.1994 
L 276.167831 164.1994 
L 276.167831 8.9674 
L 46.403125 8.9674 
z
" style="fill: #ffffff"/>
   </g>
   <g id="matplotlib.axis_1">
    <g id="xtick_1">
     <g id="line2d_1">
      <defs>
       <path id="m81dff8cdb1" d="M 0 0 
L 0 3.5 
" style="stroke: #000000; stroke-width: 0.8"/>
      </defs>
      <g>
       <use xlink:href="#m81dff8cdb1" x="102.672033" y="164.1994" style="stroke: #000000; stroke-width: 0.8"/>
      </g>
     </g>
     <g id="text_1">
      <!-- 2023-09-20 -->
      <g transform="translate(77.672033 178.0744) scale(0.1 -0.1)">
       <defs>
        <path id="SimHei-32" d="M 300 250 
Q 325 625 650 925 
Q 975 1225 1475 1862 
Q 1975 2500 2125 2850 
Q 2275 3200 2237 3450 
Q 2200 3700 2000 3862 
Q 1800 4025 1537 4000 
Q 1275 3975 1037 3800 
Q 800 3625 675 3275 
L 200 3350 
Q 400 3925 712 4187 
Q 1025 4450 1450 4475 
Q 1700 4500 1900 4462 
Q 2100 4425 2312 4287 
Q 2525 4150 2662 3875 
Q 2800 3600 2762 3212 
Q 2725 2825 2375 2287 
Q 2025 1750 1025 600 
L 2825 600 
L 2825 150 
L 300 150 
L 300 250 
z
" transform="scale(0.015625)"/>
        <path id="SimHei-30" d="M 225 2537 
Q 250 3200 412 3587 
Q 575 3975 875 4225 
Q 1175 4475 1612 4475 
Q 2050 4475 2375 4112 
Q 2700 3750 2800 3200 
Q 2900 2650 2862 1937 
Q 2825 1225 2612 775 
Q 2400 325 1975 150 
Q 1550 -25 1125 187 
Q 700 400 525 750 
Q 350 1100 275 1487 
Q 200 1875 225 2537 
z
M 750 2687 
Q 675 2000 800 1462 
Q 925 925 1212 700 
Q 1500 475 1800 612 
Q 2100 750 2237 1162 
Q 2375 1575 2375 2062 
Q 2375 2550 2337 2950 
Q 2300 3350 2112 3675 
Q 1925 4000 1612 4012 
Q 1300 4025 1062 3700 
Q 825 3375 750 2687 
z
" transform="scale(0.015625)"/>
        <path id="SimHei-33" d="M 250 1225 
L 700 1300 
Q 800 975 1025 762 
Q 1250 550 1587 562 
Q 1925 575 2125 837 
Q 2325 1100 2300 1437 
Q 2275 1775 2037 1962 
Q 1800 2150 1275 2225 
L 1275 2550 
Q 1800 2600 2037 2825 
Q 2275 3050 2250 3412 
Q 2225 3775 1925 3937 
Q 1625 4100 1287 3975 
Q 950 3850 750 3275 
L 300 3350 
Q 450 3800 712 4100 
Q 975 4400 1425 4450 
Q 1875 4500 2212 4337 
Q 2550 4175 2687 3837 
Q 2825 3500 2725 3100 
Q 2625 2700 2150 2400 
Q 2500 2250 2687 1950 
Q 2875 1650 2812 1162 
Q 2750 675 2375 375 
Q 2000 75 1525 87 
Q 1050 100 700 387 
Q 350 675 250 1225 
z
" transform="scale(0.015625)"/>
        <path id="SimHei-2d" d="M 2975 2125 
L 125 2125 
L 125 2525 
L 2975 2525 
L 2975 2125 
z
" transform="scale(0.015625)"/>
        <path id="SimHei-39" d="M 800 75 
Q 1350 1000 1700 1750 
Q 1075 1650 662 1912 
Q 250 2175 162 2625 
Q 75 3075 175 3437 
Q 275 3800 487 4037 
Q 700 4275 1000 4375 
Q 1300 4475 1537 4475 
Q 1775 4475 2025 4375 
Q 2275 4275 2475 4075 
Q 2675 3875 2750 3662 
Q 2825 3450 2825 3112 
Q 2825 2775 2575 2250 
Q 2325 1725 1350 75 
L 800 75 
z
M 662 2875 
Q 700 2550 937 2337 
Q 1175 2125 1450 2150 
Q 1725 2175 1887 2300 
Q 2050 2425 2200 2725 
Q 2300 3100 2250 3362 
Q 2200 3625 1987 3800 
Q 1775 3975 1525 3975 
Q 1375 4000 1137 3900 
Q 900 3800 762 3500 
Q 625 3200 662 2875 
z
" transform="scale(0.015625)"/>
       </defs>
       <use xlink:href="#SimHei-32"/>
       <use xlink:href="#SimHei-30" x="50"/>
       <use xlink:href="#SimHei-32" x="100"/>
       <use xlink:href="#SimHei-33" x="150"/>
       <use xlink:href="#SimHei-2d" x="200"/>
       <use xlink:href="#SimHei-30" x="250"/>
       <use xlink:href="#SimHei-39" x="300"/>
       <use xlink:href="#SimHei-2d" x="350"/>
       <use xlink:href="#SimHei-32" x="400"/>
       <use xlink:href="#SimHei-30" x="450"/>
      </g>
     </g>
    </g>
    <g id="xtick_2">
     <g id="line2d_2">
      <g>
       <use xlink:href="#m81dff8cdb1" x="166.613973" y="164.1994" style="stroke: #000000; stroke-width: 0.8"/>
      </g>
     </g>
     <g id="text_2">
      <!-- 2023-11-19 -->
      <g transform="translate(141.613973 178.0744) scale(0.1 -0.1)">
       <defs>
        <path id="SimHei-31" d="M 1400 3600 
Q 1075 3275 575 2975 
L 575 3450 
Q 1200 3875 1600 4450 
L 1900 4450 
L 1900 150 
L 1400 150 
L 1400 3600 
z
" transform="scale(0.015625)"/>
       </defs>
       <use xlink:href="#SimHei-32"/>
       <use xlink:href="#SimHei-30" x="50"/>
       <use xlink:href="#SimHei-32" x="100"/>
       <use xlink:href="#SimHei-33" x="150"/>
       <use xlink:href="#SimHei-2d" x="200"/>
       <use xlink:href="#SimHei-31" x="250"/>
       <use xlink:href="#SimHei-31" x="300"/>
       <use xlink:href="#SimHei-2d" x="350"/>
       <use xlink:href="#SimHei-31" x="400"/>
       <use xlink:href="#SimHei-39" x="450"/>
      </g>
     </g>
    </g>
    <g id="xtick_3">
     <g id="line2d_3">
      <g>
       <use xlink:href="#m81dff8cdb1" x="230.555913" y="164.1994" style="stroke: #000000; stroke-width: 0.8"/>
      </g>
     </g>
     <g id="text_3">
      <!-- 2024-01-18 -->
      <g transform="translate(205.555913 178.0744) scale(0.1 -0.1)">
       <defs>
        <path id="SimHei-34" d="M 2000 1100 
L 75 1100 
L 75 1525 
L 2100 4450 
L 2475 4450 
L 2475 1525 
L 3075 1525 
L 3075 1100 
L 2475 1100 
L 2475 150 
L 2000 150 
L 2000 1100 
z
M 2000 1525 
L 2000 3500 
L 600 1525 
L 2000 1525 
z
" transform="scale(0.015625)"/>
        <path id="SimHei-38" d="M 175 1375 
Q 175 1675 325 1962 
Q 475 2250 825 2425 
Q 525 2600 425 2812 
Q 325 3025 312 3300 
Q 300 3575 387 3775 
Q 475 3975 650 4150 
Q 825 4325 1037 4387 
Q 1250 4450 1500 4450 
Q 1750 4450 1950 4400 
Q 2150 4350 2375 4187 
Q 2600 4025 2700 3725 
Q 2800 3425 2687 3025 
Q 2575 2625 2100 2400 
Q 2525 2275 2700 2012 
Q 2875 1750 2875 1375 
Q 2875 1000 2762 775 
Q 2650 550 2512 400 
Q 2375 250 2137 162 
Q 1900 75 1537 75 
Q 1175 75 912 162 
Q 650 250 475 425 
Q 300 600 237 837 
Q 175 1075 175 1375 
z
M 687 1400 
Q 675 1100 787 875 
Q 900 650 1200 587 
Q 1500 525 1825 600 
Q 2150 675 2275 950 
Q 2400 1225 2362 1500 
Q 2325 1775 2050 1962 
Q 1775 2150 1450 2125 
Q 1125 2100 912 1900 
Q 700 1700 687 1400 
z
M 775 3350 
Q 775 3100 950 2875 
Q 1125 2650 1500 2650 
Q 1875 2650 2062 2875 
Q 2250 3100 2237 3412 
Q 2225 3725 2012 3875 
Q 1800 4025 1437 4000 
Q 1075 3975 925 3787 
Q 775 3600 775 3350 
z
" transform="scale(0.015625)"/>
       </defs>
       <use xlink:href="#SimHei-32"/>
       <use xlink:href="#SimHei-30" x="50"/>
       <use xlink:href="#SimHei-32" x="100"/>
       <use xlink:href="#SimHei-34" x="150"/>
       <use xlink:href="#SimHei-2d" x="200"/>
       <use xlink:href="#SimHei-30" x="250"/>
       <use xlink:href="#SimHei-31" x="300"/>
       <use xlink:href="#SimHei-2d" x="350"/>
       <use xlink:href="#SimHei-31" x="400"/>
       <use xlink:href="#SimHei-38" x="450"/>
      </g>
     </g>
    </g>
   </g>
   <g id="matplotlib.axis_2">
    <g id="ytick_1">
     <g id="line2d_4">
      <defs>
       <path id="mb18cb8cdd8" d="M 0 0 
L -3.5 0 
" style="stroke: #000000; stroke-width: 0.8"/>
      </defs>
      <g>
       <use xlink:href="#mb18cb8cdd8" x="46.403125" y="156.460544" style="stroke: #000000; stroke-width: 0.8"/>
      </g>
     </g>
     <g id="text_4">
      <!-- 0.94 -->
      <g transform="translate(19.403125 159.898044) scale(0.1 -0.1)">
       <defs>
        <path id="SimHei-2e" d="M 1075 125 
L 500 125 
L 500 675 
L 1075 675 
L 1075 125 
z
" transform="scale(0.015625)"/>
       </defs>
       <use xlink:href="#SimHei-30"/>
       <use xlink:href="#SimHei-2e" x="50"/>
       <use xlink:href="#SimHei-39" x="100"/>
       <use xlink:href="#SimHei-34" x="150"/>
      </g>
     </g>
    </g>
    <g id="ytick_2">
     <g id="line2d_5">
      <g>
       <use xlink:href="#mb18cb8cdd8" x="46.403125" y="132.156704" style="stroke: #000000; stroke-width: 0.8"/>
      </g>
     </g>
     <g id="text_5">
      <!-- 0.96 -->
      <g transform="translate(19.403125 135.594204) scale(0.1 -0.1)">
       <defs>
        <path id="SimHei-36" d="M 250 1612 
Q 275 1975 387 2225 
Q 500 2475 725 2850 
L 1750 4450 
L 2325 4450 
L 1275 2800 
Q 1950 2975 2350 2750 
Q 2750 2525 2887 2237 
Q 3025 1950 3037 1612 
Q 3050 1275 2937 950 
Q 2825 625 2537 362 
Q 2250 100 1737 75 
Q 1225 50 862 262 
Q 500 475 362 862 
Q 225 1250 250 1612 
z
M 1025 787 
Q 1250 550 1625 525 
Q 2000 500 2250 775 
Q 2500 1050 2500 1575 
Q 2500 2100 2187 2300 
Q 1875 2500 1487 2450 
Q 1100 2400 925 2075 
Q 750 1750 775 1387 
Q 800 1025 1025 787 
z
" transform="scale(0.015625)"/>
       </defs>
       <use xlink:href="#SimHei-30"/>
       <use xlink:href="#SimHei-2e" x="50"/>
       <use xlink:href="#SimHei-39" x="100"/>
       <use xlink:href="#SimHei-36" x="150"/>
      </g>
     </g>
    </g>
    <g id="ytick_3">
     <g id="line2d_6">
      <g>
       <use xlink:href="#mb18cb8cdd8" x="46.403125" y="107.852863" style="stroke: #000000; stroke-width: 0.8"/>
      </g>
     </g>
     <g id="text_6">
      <!-- 0.98 -->
      <g transform="translate(19.403125 111.290363) scale(0.1 -0.1)">
       <use xlink:href="#SimHei-30"/>
       <use xlink:href="#SimHei-2e" x="50"/>
       <use xlink:href="#SimHei-39" x="100"/>
       <use xlink:href="#SimHei-38" x="150"/>
      </g>
     </g>
    </g>
    <g id="ytick_4">
     <g id="line2d_7">
      <g>
       <use xlink:href="#mb18cb8cdd8" x="46.403125" y="83.549022" style="stroke: #000000; stroke-width: 0.8"/>
      </g>
     </g>
     <g id="text_7">
      <!-- 1.00 -->
      <g transform="translate(19.403125 86.986522) scale(0.1 -0.1)">
       <use xlink:href="#SimHei-31"/>
       <use xlink:href="#SimHei-2e" x="50"/>
       <use xlink:href="#SimHei-30" x="100"/>
       <use xlink:href="#SimHei-30" x="150"/>
      </g>
     </g>
    </g>
    <g id="ytick_5">
     <g id="line2d_8">
      <g>
       <use xlink:href="#mb18cb8cdd8" x="46.403125" y="59.245181" style="stroke: #000000; stroke-width: 0.8"/>
      </g>
     </g>
     <g id="text_8">
      <!-- 1.02 -->
      <g transform="translate(19.403125 62.682681) scale(0.1 -0.1)">
       <use xlink:href="#SimHei-31"/>
       <use xlink:href="#SimHei-2e" x="50"/>
       <use xlink:href="#SimHei-30" x="100"/>
       <use xlink:href="#SimHei-32" x="150"/>
      </g>
     </g>
    </g>
    <g id="ytick_6">
     <g id="line2d_9">
      <g>
       <use xlink:href="#mb18cb8cdd8" x="46.403125" y="34.941341" style="stroke: #000000; stroke-width: 0.8"/>
      </g>
     </g>
     <g id="text_9">
      <!-- 1.04 -->
      <g transform="translate(19.403125 38.378841) scale(0.1 -0.1)">
       <use xlink:href="#SimHei-31"/>
       <use xlink:href="#SimHei-2e" x="50"/>
       <use xlink:href="#SimHei-30" x="100"/>
       <use xlink:href="#SimHei-34" x="150"/>
      </g>
     </g>
    </g>
    <g id="ytick_7">
     <g id="line2d_10">
      <g>
       <use xlink:href="#mb18cb8cdd8" x="46.403125" y="10.6375" style="stroke: #000000; stroke-width: 0.8"/>
      </g>
     </g>
     <g id="text_10">
      <!-- 1.06 -->
      <g transform="translate(19.403125 14.075) scale(0.1 -0.1)">
       <use xlink:href="#SimHei-31"/>
       <use xlink:href="#SimHei-2e" x="50"/>
       <use xlink:href="#SimHei-30" x="100"/>
       <use xlink:href="#SimHei-36" x="150"/>
      </g>
     </g>
    </g>
    <g id="text_11">
     <!-- NCO-MinRisk-4yr -->
     <g transform="translate(14.153125 124.0834) rotate(-90) scale(0.1 -0.1)">
      <defs>
       <path id="SimHei-4e" d="M 2850 125 
L 2225 125 
L 850 3225 
L 825 3225 
L 825 125 
L 250 125 
L 250 4400 
L 875 4400 
L 2250 1300 
L 2275 1300 
L 2275 4400 
L 2850 4400 
L 2850 125 
z
" transform="scale(0.015625)"/>
       <path id="SimHei-43" d="M 2975 1825 
Q 2950 875 2575 475 
Q 2200 75 1675 75 
Q 1075 75 650 562 
Q 225 1050 225 2125 
Q 225 3300 637 3875 
Q 1050 4450 1700 4450 
Q 2250 4450 2612 4037 
Q 2975 3625 2950 2875 
L 2400 2875 
Q 2400 3425 2225 3700 
Q 2050 3975 1700 3975 
Q 1300 3975 1062 3562 
Q 825 3150 825 2175 
Q 825 1275 1062 912 
Q 1300 550 1675 550 
Q 1950 550 2175 812 
Q 2400 1075 2400 1825 
L 2975 1825 
z
" transform="scale(0.015625)"/>
       <path id="SimHei-4f" d="M 2950 2275 
Q 2950 1100 2587 587 
Q 2225 75 1575 75 
Q 925 75 550 587 
Q 175 1100 175 2275 
Q 175 3450 550 3950 
Q 925 4450 1575 4450 
Q 2225 4450 2587 3950 
Q 2950 3450 2950 2275 
z
M 2350 2275 
Q 2350 3325 2125 3650 
Q 1900 3975 1575 3975 
Q 1250 3975 1012 3650 
Q 775 3325 775 2275 
Q 775 1225 1012 887 
Q 1250 550 1575 550 
Q 1900 550 2125 887 
Q 2350 1225 2350 2275 
z
" transform="scale(0.015625)"/>
       <path id="SimHei-4d" d="M 2925 125 
L 2425 125 
L 2425 3175 
L 2375 3175 
L 1775 125 
L 1375 125 
L 775 3175 
L 725 3175 
L 725 125 
L 225 125 
L 225 4400 
L 1000 4400 
L 1550 1575 
L 1600 1575 
L 2150 4400 
L 2925 4400 
L 2925 125 
z
" transform="scale(0.015625)"/>
       <path id="SimHei-69" d="M 1800 3725 
L 1300 3725 
L 1300 4375 
L 1800 4375 
L 1800 3725 
z
M 1800 125 
L 1300 125 
L 1300 2925 
L 1800 2925 
L 1800 125 
z
" transform="scale(0.015625)"/>
       <path id="SimHei-6e" d="M 2800 125 
L 2300 125 
L 2300 1925 
Q 2300 2225 2150 2400 
Q 2000 2575 1750 2575 
Q 1425 2575 1137 2237 
Q 850 1900 850 1400 
L 850 125 
L 350 125 
L 350 2925 
L 850 2925 
L 850 2400 
Q 1050 2675 1287 2825 
Q 1525 2975 1900 2975 
Q 2350 2975 2575 2725 
Q 2800 2475 2800 2100 
L 2800 125 
z
" transform="scale(0.015625)"/>
       <path id="SimHei-52" d="M 3000 125 
L 2400 125 
L 1500 1975 
L 850 1975 
L 850 125 
L 275 125 
L 275 4400 
L 1525 4400 
Q 2125 4400 2500 4112 
Q 2875 3825 2875 3175 
Q 2875 2675 2625 2400 
Q 2375 2125 2050 2050 
L 3000 125 
z
M 2300 3175 
Q 2300 3525 2087 3725 
Q 1875 3925 1400 3925 
L 850 3925 
L 850 2450 
L 1550 2450 
Q 1850 2450 2075 2612 
Q 2300 2775 2300 3175 
z
" transform="scale(0.015625)"/>
       <path id="SimHei-73" d="M 2750 900 
Q 2750 500 2437 287 
Q 2125 75 1650 75 
Q 1050 75 725 312 
Q 400 550 400 1000 
L 900 1000 
Q 900 700 1112 600 
Q 1325 500 1625 500 
Q 1925 500 2075 612 
Q 2225 725 2225 900 
Q 2225 1025 2100 1150 
Q 1975 1275 1475 1350 
Q 900 1425 687 1637 
Q 475 1850 475 2200 
Q 475 2500 762 2737 
Q 1050 2975 1600 2975 
Q 2100 2975 2387 2750 
Q 2675 2525 2675 2150 
L 2175 2150 
Q 2175 2375 2012 2462 
Q 1850 2550 1600 2550 
Q 1275 2550 1137 2437 
Q 1000 2325 1000 2175 
Q 1000 2000 1125 1900 
Q 1250 1800 1650 1750 
Q 2300 1650 2525 1437 
Q 2750 1225 2750 900 
z
" transform="scale(0.015625)"/>
       <path id="SimHei-6b" d="M 2925 125 
L 2350 125 
L 1450 1650 
L 875 1100 
L 875 125 
L 375 125 
L 375 4400 
L 875 4400 
L 875 1675 
L 2125 2925 
L 2750 2925 
L 1775 1975 
L 2925 125 
z
" transform="scale(0.015625)"/>
       <path id="SimHei-79" d="M 2900 2925 
L 1750 -100 
Q 1650 -450 1450 -625 
Q 1250 -800 950 -800 
Q 825 -800 712 -787 
Q 600 -775 500 -725 
L 500 -225 
Q 600 -275 700 -300 
Q 800 -325 875 -325 
Q 1075 -325 1150 -262 
Q 1225 -200 1300 25 
L 200 2925 
L 750 2925 
L 1550 725 
L 1575 725 
L 2350 2925 
L 2900 2925 
z
" transform="scale(0.015625)"/>
       <path id="SimHei-72" d="M 2500 2425 
Q 2025 2500 1700 2287 
Q 1375 2075 1150 1550 
L 1150 125 
L 650 125 
L 650 2925 
L 1150 2925 
L 1150 2200 
Q 1375 2600 1712 2787 
Q 2050 2975 2500 2975 
L 2500 2425 
z
" transform="scale(0.015625)"/>
      </defs>
      <use xlink:href="#SimHei-4e"/>
      <use xlink:href="#SimHei-43" x="50"/>
      <use xlink:href="#SimHei-4f" x="100"/>
      <use xlink:href="#SimHei-2d" x="150"/>
      <use xlink:href="#SimHei-4d" x="200"/>
      <use xlink:href="#SimHei-69" x="250"/>
      <use xlink:href="#SimHei-6e" x="300"/>
      <use xlink:href="#SimHei-52" x="350"/>
      <use xlink:href="#SimHei-69" x="400"/>
      <use xlink:href="#SimHei-73" x="450"/>
      <use xlink:href="#SimHei-6b" x="500"/>
      <use xlink:href="#SimHei-2d" x="550"/>
      <use xlink:href="#SimHei-34" x="600"/>
      <use xlink:href="#SimHei-79" x="650"/>
      <use xlink:href="#SimHei-72" x="700"/>
     </g>
    </g>
   </g>
   <g id="line2d_11">
    <path d="M 56.846975 86.587002 
L 57.912674 88.84477 
L 58.978373 84.299439 
L 60.044072 107.320174 
L 63.241169 112.232091 
L 64.306868 105.863596 
L 65.372567 113.279027 
L 66.438266 108.004911 
L 67.503965 112.859054 
L 70.701062 133.099368 
L 71.766761 124.056153 
L 72.83246 132.21924 
L 73.898159 138.536264 
L 74.963858 131.736183 
L 78.160955 125.699155 
L 79.226654 128.639135 
L 80.292353 133.799866 
L 81.358052 134.778183 
L 82.423751 138.274706 
L 85.620848 123.606459 
L 86.686547 126.266666 
L 87.752246 130.728057 
L 88.817945 136.385797 
L 89.883644 137.395218 
L 93.080742 126.689 
L 94.146441 125.543152 
L 95.21214 127.24396 
L 96.277839 109.517378 
L 97.343538 117.517691 
L 100.540635 117.03076 
L 101.606334 114.2465 
L 102.672033 114.101125 
L 103.737732 121.732087 
L 104.803431 110.788186 
L 108.000528 112.350041 
L 110.131926 126.401132 
L 111.197625 123.202918 
L 122.920314 114.102932 
L 123.986013 118.736766 
L 125.051712 120.33078 
L 126.117411 108.436834 
L 127.18311 110.519734 
L 130.380207 110.1196 
L 131.445906 103.719453 
L 132.511605 107.131138 
L 133.577304 129.718429 
L 134.643003 140.239334 
L 137.8401 148.085892 
L 138.905799 142.275846 
L 139.971498 149.683811 
L 141.037197 135.57292 
L 142.102896 130.960605 
L 145.299993 137.63136 
L 146.365692 133.577529 
L 147.431391 128.58144 
L 148.49709 125.918813 
L 149.562789 128.035801 
L 152.759886 137.525759 
L 153.825585 138.135621 
L 154.891284 140.889359 
L 155.956983 133.180634 
L 157.022682 137.705941 
L 161.285478 139.423818 
L 162.351177 130.136046 
L 163.416876 130.936462 
L 164.482575 134.561745 
L 167.679672 127.961954 
L 168.745371 126.414856 
L 169.81107 131.720491 
L 170.876769 130.23395 
L 171.942468 132.615141 
L 176.205264 137.714178 
L 177.270963 145.257165 
L 178.336662 133.439996 
L 179.402361 135.856869 
L 182.599458 137.084238 
L 183.665157 151.723083 
L 184.730856 157.1434 
L 185.796555 156.449122 
L 190.059351 152.251101 
L 191.12505 137.084549 
L 193.256448 141.925833 
L 194.322147 151.980207 
L 198.584943 145.454699 
L 199.650642 146.735785 
L 201.78204 143.097432 
L 204.979137 136.975322 
L 206.044836 139.446657 
L 207.110535 138.738185 
L 208.176234 135.440925 
L 209.241933 131.727609 
L 213.504729 126.128895 
L 214.570428 119.636877 
L 215.636127 118.86684 
L 216.701826 111.555668 
L 219.898923 125.0369 
L 220.964622 123.320829 
L 222.030321 129.35718 
L 223.09602 132.07931 
L 224.161719 118.578176 
L 227.358816 112.002467 
L 228.424515 101.905508 
L 229.490214 120.483829 
L 230.555913 120.212122 
L 231.621612 117.350346 
L 234.818709 134.594597 
L 235.884408 132.534735 
L 236.950107 102.375907 
L 238.015806 76.489547 
L 239.081505 69.263824 
L 242.278602 52.747093 
L 243.344301 67.083595 
L 244.41 70.235527 
L 245.475699 80.489134 
L 246.541398 84.136491 
L 249.738496 67.436688 
L 250.804195 54.115819 
L 251.869894 54.461595 
L 252.935593 55.600446 
L 264.658282 26.692072 
L 265.723981 16.0234 
L 265.723981 16.0234 
" clip-path="url(#pa9f825fdd4)" style="fill: none; stroke: #1f77b4; stroke-width: 1.5; stroke-linecap: square"/>
   </g>
   <g id="patch_3">
    <path d="M 46.403125 164.1994 
L 46.403125 8.9674 
" style="fill: none; stroke: #000000; stroke-width: 0.8; stroke-linejoin: miter; stroke-linecap: square"/>
   </g>
   <g id="patch_4">
    <path d="M 276.167831 164.1994 
L 276.167831 8.9674 
" style="fill: none; stroke: #000000; stroke-width: 0.8; stroke-linejoin: miter; stroke-linecap: square"/>
   </g>
   <g id="patch_5">
    <path d="M 46.403125 164.1994 
L 276.167831 164.1994 
" style="fill: none; stroke: #000000; stroke-width: 0.8; stroke-linejoin: miter; stroke-linecap: square"/>
   </g>
   <g id="patch_6">
    <path d="M 46.403125 8.9674 
L 276.167831 8.9674 
" style="fill: none; stroke: #000000; stroke-width: 0.8; stroke-linejoin: miter; stroke-linecap: square"/>
   </g>
  </g>
  <g id="axes_2">
   <g id="patch_7">
    <path d="M 322.120772 164.1994 
L 551.885478 164.1994 
L 551.885478 8.9674 
L 322.120772 8.9674 
z
" style="fill: #ffffff"/>
   </g>
   <g id="matplotlib.axis_3">
    <g id="xtick_4">
     <g id="line2d_12">
      <g>
       <use xlink:href="#m81dff8cdb1" x="379.455379" y="164.1994" style="stroke: #000000; stroke-width: 0.8"/>
      </g>
     </g>
     <g id="text_12">
      <!-- 2023-09-20 -->
      <g transform="translate(354.455379 178.0744) scale(0.1 -0.1)">
       <use xlink:href="#SimHei-32"/>
       <use xlink:href="#SimHei-30" x="50"/>
       <use xlink:href="#SimHei-32" x="100"/>
       <use xlink:href="#SimHei-33" x="150"/>
       <use xlink:href="#SimHei-2d" x="200"/>
       <use xlink:href="#SimHei-30" x="250"/>
       <use xlink:href="#SimHei-39" x="300"/>
       <use xlink:href="#SimHei-2d" x="350"/>
       <use xlink:href="#SimHei-32" x="400"/>
       <use xlink:href="#SimHei-30" x="450"/>
      </g>
     </g>
    </g>
    <g id="xtick_5">
     <g id="line2d_13">
      <g>
       <use xlink:href="#m81dff8cdb1" x="443.397319" y="164.1994" style="stroke: #000000; stroke-width: 0.8"/>
      </g>
     </g>
     <g id="text_13">
      <!-- 2023-11-19 -->
      <g transform="translate(418.397319 178.0744) scale(0.1 -0.1)">
       <use xlink:href="#SimHei-32"/>
       <use xlink:href="#SimHei-30" x="50"/>
       <use xlink:href="#SimHei-32" x="100"/>
       <use xlink:href="#SimHei-33" x="150"/>
       <use xlink:href="#SimHei-2d" x="200"/>
       <use xlink:href="#SimHei-31" x="250"/>
       <use xlink:href="#SimHei-31" x="300"/>
       <use xlink:href="#SimHei-2d" x="350"/>
       <use xlink:href="#SimHei-31" x="400"/>
       <use xlink:href="#SimHei-39" x="450"/>
      </g>
     </g>
    </g>
    <g id="xtick_6">
     <g id="line2d_14">
      <g>
       <use xlink:href="#m81dff8cdb1" x="507.339259" y="164.1994" style="stroke: #000000; stroke-width: 0.8"/>
      </g>
     </g>
     <g id="text_14">
      <!-- 2024-01-18 -->
      <g transform="translate(482.339259 178.0744) scale(0.1 -0.1)">
       <use xlink:href="#SimHei-32"/>
       <use xlink:href="#SimHei-30" x="50"/>
       <use xlink:href="#SimHei-32" x="100"/>
       <use xlink:href="#SimHei-34" x="150"/>
       <use xlink:href="#SimHei-2d" x="200"/>
       <use xlink:href="#SimHei-30" x="250"/>
       <use xlink:href="#SimHei-31" x="300"/>
       <use xlink:href="#SimHei-2d" x="350"/>
       <use xlink:href="#SimHei-31" x="400"/>
       <use xlink:href="#SimHei-38" x="450"/>
      </g>
     </g>
    </g>
   </g>
   <g id="matplotlib.axis_4">
    <g id="ytick_8">
     <g id="line2d_15">
      <g>
       <use xlink:href="#mb18cb8cdd8" x="322.120772" y="157.1434" style="stroke: #000000; stroke-width: 0.8"/>
      </g>
     </g>
     <g id="text_15">
      <!-- 0.0 -->
      <g transform="translate(300.120772 160.5809) scale(0.1 -0.1)">
       <use xlink:href="#SimHei-30"/>
       <use xlink:href="#SimHei-2e" x="50"/>
       <use xlink:href="#SimHei-30" x="100"/>
      </g>
     </g>
    </g>
    <g id="ytick_9">
     <g id="line2d_16">
      <g>
       <use xlink:href="#mb18cb8cdd8" x="322.120772" y="128.9194" style="stroke: #000000; stroke-width: 0.8"/>
      </g>
     </g>
     <g id="text_16">
      <!-- 0.2 -->
      <g transform="translate(300.120772 132.3569) scale(0.1 -0.1)">
       <use xlink:href="#SimHei-30"/>
       <use xlink:href="#SimHei-2e" x="50"/>
       <use xlink:href="#SimHei-32" x="100"/>
      </g>
     </g>
    </g>
    <g id="ytick_10">
     <g id="line2d_17">
      <g>
       <use xlink:href="#mb18cb8cdd8" x="322.120772" y="100.6954" style="stroke: #000000; stroke-width: 0.8"/>
      </g>
     </g>
     <g id="text_17">
      <!-- 0.4 -->
      <g transform="translate(300.120772 104.1329) scale(0.1 -0.1)">
       <use xlink:href="#SimHei-30"/>
       <use xlink:href="#SimHei-2e" x="50"/>
       <use xlink:href="#SimHei-34" x="100"/>
      </g>
     </g>
    </g>
    <g id="ytick_11">
     <g id="line2d_18">
      <g>
       <use xlink:href="#mb18cb8cdd8" x="322.120772" y="72.4714" style="stroke: #000000; stroke-width: 0.8"/>
      </g>
     </g>
     <g id="text_18">
      <!-- 0.6 -->
      <g transform="translate(300.120772 75.9089) scale(0.1 -0.1)">
       <use xlink:href="#SimHei-30"/>
       <use xlink:href="#SimHei-2e" x="50"/>
       <use xlink:href="#SimHei-36" x="100"/>
      </g>
     </g>
    </g>
    <g id="ytick_12">
     <g id="line2d_19">
      <g>
       <use xlink:href="#mb18cb8cdd8" x="322.120772" y="44.2474" style="stroke: #000000; stroke-width: 0.8"/>
      </g>
     </g>
     <g id="text_19">
      <!-- 0.8 -->
      <g transform="translate(300.120772 47.6849) scale(0.1 -0.1)">
       <use xlink:href="#SimHei-30"/>
       <use xlink:href="#SimHei-2e" x="50"/>
       <use xlink:href="#SimHei-38" x="100"/>
      </g>
     </g>
    </g>
    <g id="ytick_13">
     <g id="line2d_20">
      <g>
       <use xlink:href="#mb18cb8cdd8" x="322.120772" y="16.0234" style="stroke: #000000; stroke-width: 0.8"/>
      </g>
     </g>
     <g id="text_20">
      <!-- 1.0 -->
      <g transform="translate(300.120772 19.4609) scale(0.1 -0.1)">
       <use xlink:href="#SimHei-31"/>
       <use xlink:href="#SimHei-2e" x="50"/>
       <use xlink:href="#SimHei-30" x="100"/>
      </g>
     </g>
    </g>
   </g>
   <g id="line2d_21">
    <path d="M 332.564622 157.1434 
L 333.630321 153.003858 
L 341.090214 153.023448 
L 344.287311 153.033674 
L 374.126884 153.049275 
L 386.915272 153.003173 
L 430.608931 153.128027 
L 437.003125 153.103985 
L 470.039794 153.014053 
L 478.565386 152.981625 
L 482.828182 152.974865 
L 483.893881 152.820304 
L 541.441628 152.728375 
L 541.441628 152.728375 
" clip-path="url(#p5ce180bf9e)" style="fill: none; stroke: #1f77b4; stroke-width: 1.5; stroke-linecap: square"/>
   </g>
   <g id="line2d_22">
    <path d="M 332.564622 157.1434 
L 333.630321 154.509828 
L 400.769359 154.522603 
L 403.966456 154.588534 
L 511.602055 154.460653 
L 520.127648 154.432405 
L 528.65324 154.433914 
L 529.718939 154.483072 
L 541.441628 154.475884 
L 541.441628 154.475884 
" clip-path="url(#p5ce180bf9e)" style="fill: none; stroke: #ff7f0e; stroke-width: 1.5; stroke-linecap: square"/>
   </g>
   <g id="line2d_23">
    <path d="M 332.564622 157.1434 
L 333.630321 156.581889 
L 351.747204 156.561363 
L 386.915272 156.55831 
L 541.441628 156.584773 
L 541.441628 156.584773 
" clip-path="url(#p5ce180bf9e)" style="fill: none; stroke: #2ca02c; stroke-width: 1.5; stroke-linecap: square"/>
   </g>
   <g id="line2d_24">
    <path d="M 332.564622 157.1434 
L 333.630321 149.027296 
L 348.550107 148.997091 
L 349.615806 149.421862 
L 350.681505 149.278743 
L 351.747204 149.389519 
L 358.141398 149.568007 
L 374.126884 149.625195 
L 381.586777 149.354327 
L 385.849573 149.361196 
L 387.980971 149.43654 
L 400.769359 149.446693 
L 401.835058 149.306871 
L 407.163553 149.31602 
L 410.36065 149.289286 
L 411.426349 149.48314 
L 418.886242 149.445838 
L 423.149038 149.487334 
L 425.280436 149.397118 
L 433.806028 149.33877 
L 440.200222 149.298294 
L 441.265921 149.43044 
L 448.725814 149.527443 
L 454.054309 149.678951 
L 461.514202 149.769653 
L 462.579901 149.893751 
L 474.30259 149.873659 
L 483.893881 149.731348 
L 484.95958 149.868968 
L 486.025279 149.824928 
L 513.733453 149.9021 
L 515.864852 149.904307 
L 520.127648 149.912171 
L 521.193347 150.078137 
L 523.324745 150.125805 
L 527.587541 150.115049 
L 529.718939 150.222262 
L 541.441628 150.26592 
L 541.441628 150.26592 
" clip-path="url(#p5ce180bf9e)" style="fill: none; stroke: #d62728; stroke-width: 1.5; stroke-linecap: square"/>
   </g>
   <g id="line2d_25">
    <path d="M 332.564622 157.1434 
L 333.630321 151.633543 
L 342.155913 151.499854 
L 344.287311 151.470001 
L 348.550107 151.447723 
L 349.615806 151.31578 
L 354.944301 151.527106 
L 359.207097 151.350326 
L 377.323981 151.35511 
L 379.455379 151.552879 
L 384.783874 151.58664 
L 387.980971 151.348157 
L 400.769359 151.322049 
L 401.835058 151.710231 
L 403.966456 151.660997 
L 410.36065 151.735945 
L 411.426349 151.566101 
L 417.820543 151.632831 
L 418.886242 151.521066 
L 424.214737 151.381189 
L 433.806028 151.414113 
L 440.200222 151.40567 
L 441.265921 151.250951 
L 461.514202 151.066535 
L 462.579901 150.995014 
L 463.6456 151.040759 
L 478.565386 151.055357 
L 483.893881 151.087703 
L 484.95958 150.736263 
L 486.025279 150.797959 
L 492.419473 150.821255 
L 493.485172 150.659321 
L 512.667754 150.610616 
L 514.799153 150.739396 
L 515.864852 150.750801 
L 520.127648 150.67843 
L 521.193347 150.455733 
L 526.521842 150.580273 
L 527.587541 150.53463 
L 528.65324 150.322427 
L 529.718939 150.292801 
L 541.441628 150.29612 
L 541.441628 150.29612 
" clip-path="url(#p5ce180bf9e)" style="fill: none; stroke: #9467bd; stroke-width: 1.5; stroke-linecap: square"/>
   </g>
   <g id="line2d_26">
    <path d="M 332.564622 157.1434 
L 333.630321 153.797905 
L 379.455379 153.784243 
L 381.586777 153.720617 
L 400.769359 153.784376 
L 402.900757 153.865875 
L 403.966456 153.780597 
L 410.36065 153.797225 
L 411.426349 153.679034 
L 454.054309 153.439754 
L 455.120008 153.307165 
L 460.448503 153.220459 
L 466.842697 153.069698 
L 481.762483 152.979571 
L 499.879366 152.924354 
L 504.142162 152.951338 
L 507.339259 152.941371 
L 508.404958 153.01462 
L 520.127648 153.016588 
L 522.259046 153.045011 
L 541.441628 153.164813 
L 541.441628 153.164813 
" clip-path="url(#p5ce180bf9e)" style="fill: none; stroke: #8c564b; stroke-width: 1.5; stroke-linecap: square"/>
   </g>
   <g id="line2d_27">
    <path d="M 332.564622 157.1434 
L 333.630321 153.321925 
L 377.323981 153.399347 
L 384.783874 153.373601 
L 387.980971 153.401955 
L 407.163553 153.530216 
L 410.36065 153.551839 
L 411.426349 153.49724 
L 444.463018 153.386274 
L 459.382804 153.269776 
L 463.6456 153.132307 
L 504.142162 153.118728 
L 508.404958 153.108356 
L 519.061949 153.123465 
L 521.193347 153.018708 
L 523.324745 153.047148 
L 528.65324 153.053063 
L 529.718939 153.125006 
L 541.441628 153.103747 
L 541.441628 153.103747 
" clip-path="url(#p5ce180bf9e)" style="fill: none; stroke: #e377c2; stroke-width: 1.5; stroke-linecap: square"/>
   </g>
   <g id="line2d_28">
    <path d="M 332.564622 157.1434 
L 333.630321 100.344637 
L 341.090214 100.304443 
L 342.155913 100.166256 
L 348.550107 100.294762 
L 349.615806 100.155797 
L 350.681505 100.259649 
L 357.075699 100.080245 
L 358.141398 100.214133 
L 359.207097 100.113578 
L 363.469894 100.105179 
L 364.535593 99.868049 
L 374.126884 99.804673 
L 379.455379 99.973102 
L 385.849573 99.952788 
L 386.915272 100.075837 
L 387.980971 99.915971 
L 400.769359 100.048948 
L 401.835058 99.84481 
L 411.426349 99.748367 
L 415.689145 99.399769 
L 417.820543 99.432371 
L 418.886242 99.720076 
L 423.149038 99.687315 
L 424.214737 99.47771 
L 430.608931 99.551591 
L 431.67463 99.703519 
L 440.200222 99.658239 
L 441.265921 99.498948 
L 448.725814 99.327351 
L 452.98861 99.117434 
L 454.054309 99.076867 
L 455.120008 99.196991 
L 456.185707 99.053365 
L 463.6456 99.336087 
L 482.828182 99.307733 
L 484.95958 99.516196 
L 497.747968 99.472767 
L 499.879366 99.335946 
L 504.142162 99.355919 
L 505.207861 99.485931 
L 513.733453 99.101589 
L 515.864852 99.094508 
L 519.061949 98.685998 
L 520.127648 98.733613 
L 522.259046 98.488933 
L 523.324745 98.456661 
L 527.587541 98.448766 
L 529.718939 98.204768 
L 541.441628 98.158361 
L 541.441628 98.158361 
" clip-path="url(#p5ce180bf9e)" style="fill: none; stroke: #7f7f7f; stroke-width: 1.5; stroke-linecap: square"/>
   </g>
   <g id="line2d_29">
    <path d="M 332.564622 157.1434 
L 333.630321 138.689761 
L 336.827418 138.826815 
L 342.155913 138.756908 
L 347.484408 138.62512 
L 348.550107 138.665576 
L 349.615806 138.564836 
L 350.681505 138.604805 
L 351.747204 138.320709 
L 354.944301 137.64951 
L 357.075699 137.662037 
L 358.141398 137.523278 
L 362.404195 137.559526 
L 365.601292 137.516963 
L 370.929787 137.566109 
L 371.995486 137.676402 
L 378.38968 137.451904 
L 381.586777 137.401056 
L 386.915272 137.291079 
L 387.980971 137.511762 
L 400.769359 137.392961 
L 401.835058 136.222796 
L 403.966456 136.172684 
L 407.163553 136.126316 
L 408.229252 135.965325 
L 410.36065 135.960265 
L 411.426349 136.084585 
L 415.689145 136.230331 
L 417.820543 136.312429 
L 418.886242 136.244104 
L 468.974095 136.385568 
L 470.039794 136.59618 
L 478.565386 136.550446 
L 483.893881 136.56916 
L 484.95958 136.720954 
L 496.682269 136.68811 
L 497.747968 136.554519 
L 514.799153 136.676806 
L 515.864852 136.815691 
L 520.127648 137.108113 
L 522.259046 136.829251 
L 523.324745 136.862218 
L 527.587541 136.829668 
L 528.65324 136.565338 
L 529.718939 136.632838 
L 541.441628 136.589732 
L 541.441628 136.589732 
" clip-path="url(#p5ce180bf9e)" style="fill: none; stroke: #bcbd22; stroke-width: 1.5; stroke-linecap: square"/>
   </g>
   <g id="line2d_30">
    <path d="M 332.564622 157.1434 
L 333.630321 119.403353 
L 336.827418 119.380898 
L 341.090214 119.467864 
L 343.221612 119.656797 
L 344.287311 119.594998 
L 351.747204 119.720695 
L 354.944301 120.108588 
L 357.075699 120.093118 
L 359.207097 120.249575 
L 363.469894 120.244557 
L 364.535593 120.457231 
L 366.666991 120.503963 
L 374.126884 120.494993 
L 380.521078 120.892884 
L 386.915272 120.856317 
L 400.769359 120.794651 
L 401.835058 121.595668 
L 411.426349 122.031667 
L 415.689145 122.285296 
L 423.149038 122.138203 
L 424.214737 122.45777 
L 433.806028 122.61076 
L 440.200222 122.717849 
L 441.265921 122.857657 
L 448.725814 122.946536 
L 454.054309 123.308661 
L 462.579901 123.278443 
L 463.6456 123.481648 
L 477.499687 123.551355 
L 478.565386 123.659588 
L 496.682269 123.652734 
L 497.747968 123.92484 
L 499.879366 124.013652 
L 500.945065 123.990646 
L 511.602055 124.051296 
L 514.799153 123.844622 
L 515.864852 123.772037 
L 520.127648 124.042075 
L 521.193347 124.537869 
L 527.587541 124.547257 
L 528.65324 125.060383 
L 529.718939 124.807276 
L 541.441628 124.946271 
L 541.441628 124.946271 
" clip-path="url(#p5ce180bf9e)" style="fill: none; stroke: #17becf; stroke-width: 1.5; stroke-linecap: square"/>
   </g>
   <g id="line2d_31">
    <path d="M 332.564622 16.0234 
L 333.630321 157.1434 
L 541.441628 157.1434 
L 541.441628 157.1434 
" clip-path="url(#p5ce180bf9e)" style="fill: none; stroke: #1f77b4; stroke-width: 1.5; stroke-linecap: square"/>
   </g>
   <g id="patch_8">
    <path d="M 322.120772 164.1994 
L 322.120772 8.9674 
" style="fill: none; stroke: #000000; stroke-width: 0.8; stroke-linejoin: miter; stroke-linecap: square"/>
   </g>
   <g id="patch_9">
    <path d="M 551.885478 164.1994 
L 551.885478 8.9674 
" style="fill: none; stroke: #000000; stroke-width: 0.8; stroke-linejoin: miter; stroke-linecap: square"/>
   </g>
   <g id="patch_10">
    <path d="M 322.120772 164.1994 
L 551.885478 164.1994 
" style="fill: none; stroke: #000000; stroke-width: 0.8; stroke-linejoin: miter; stroke-linecap: square"/>
   </g>
   <g id="patch_11">
    <path d="M 322.120772 8.9674 
L 551.885478 8.9674 
" style="fill: none; stroke: #000000; stroke-width: 0.8; stroke-linejoin: miter; stroke-linecap: square"/>
   </g>
   <g id="legend_1">
    <g id="patch_12">
     <path d="M 457.885478 150.37365 
L 544.885478 150.37365 
Q 546.885478 150.37365 546.885478 148.37365 
L 546.885478 15.9674 
Q 546.885478 13.9674 544.885478 13.9674 
L 457.885478 13.9674 
Q 455.885478 13.9674 455.885478 15.9674 
L 455.885478 148.37365 
Q 455.885478 150.37365 457.885478 150.37365 
z
" style="fill: #ffffff; opacity: 0.8; stroke: #cccccc; stroke-linejoin: miter"/>
    </g>
    <g id="line2d_32">
     <path d="M 459.885478 21.49865 
L 469.885478 21.49865 
L 479.885478 21.49865 
" style="fill: none; stroke: #1f77b4; stroke-width: 1.5; stroke-linecap: square"/>
    </g>
    <g id="text_21">
     <!-- w_002027.SZ -->
     <g transform="translate(487.885478 24.99865) scale(0.1 -0.1)">
      <defs>
       <path id="SimHei-77" d="M 3075 2925 
L 2450 75 
L 1975 75 
L 1575 2250 
L 1525 2250 
L 1125 75 
L 650 75 
L 25 2925 
L 550 2925 
L 875 1050 
L 925 1050 
L 1275 2925 
L 1825 2925 
L 2175 1050 
L 2225 1050 
L 2550 2925 
L 3075 2925 
z
" transform="scale(0.015625)"/>
       <path id="SimHei-5f" d="M 3150 -850 
L 0 -850 
L 0 -550 
L 3150 -550 
L 3150 -850 
z
" transform="scale(0.015625)"/>
       <path id="SimHei-37" d="M 850 150 
Q 1300 2050 2425 3925 
L 275 3925 
L 275 4375 
L 2950 4375 
L 2950 3950 
Q 1775 2050 1400 150 
L 850 150 
z
" transform="scale(0.015625)"/>
       <path id="SimHei-53" d="M 2900 1325 
Q 2900 750 2537 412 
Q 2175 75 1550 75 
Q 925 75 575 425 
Q 225 775 225 1300 
L 225 1475 
L 800 1475 
L 800 1325 
Q 800 950 1025 750 
Q 1250 550 1550 550 
Q 1950 550 2137 762 
Q 2325 975 2325 1275 
Q 2325 1525 2100 1737 
Q 1875 1950 1450 2125 
Q 850 2350 587 2625 
Q 325 2900 325 3275 
Q 325 3800 687 4125 
Q 1050 4450 1550 4450 
Q 2200 4450 2487 4062 
Q 2775 3675 2775 3225 
L 2200 3225 
Q 2225 3500 2050 3725 
Q 1875 3950 1550 3950 
Q 1250 3950 1075 3787 
Q 900 3625 900 3350 
Q 900 3125 1037 2962 
Q 1175 2800 1750 2575 
Q 2300 2350 2600 2037 
Q 2900 1725 2900 1325 
z
" transform="scale(0.015625)"/>
       <path id="SimHei-5a" d="M 2900 125 
L 225 125 
L 225 600 
L 2250 3925 
L 375 3925 
L 375 4400 
L 2825 4400 
L 2825 3925 
L 800 600 
L 2900 600 
L 2900 125 
z
" transform="scale(0.015625)"/>
      </defs>
      <use xlink:href="#SimHei-77"/>
      <use xlink:href="#SimHei-5f" x="50"/>
      <use xlink:href="#SimHei-30" x="100"/>
      <use xlink:href="#SimHei-30" x="150"/>
      <use xlink:href="#SimHei-32" x="200"/>
      <use xlink:href="#SimHei-30" x="250"/>
      <use xlink:href="#SimHei-32" x="300"/>
      <use xlink:href="#SimHei-37" x="350"/>
      <use xlink:href="#SimHei-2e" x="400"/>
      <use xlink:href="#SimHei-53" x="450"/>
      <use xlink:href="#SimHei-5a" x="500"/>
     </g>
    </g>
    <g id="line2d_33">
     <path d="M 459.885478 34.858025 
L 469.885478 34.858025 
L 479.885478 34.858025 
" style="fill: none; stroke: #ff7f0e; stroke-width: 1.5; stroke-linecap: square"/>
    </g>
    <g id="text_22">
     <!-- w_002371.SZ -->
     <g transform="translate(487.885478 38.358025) scale(0.1 -0.1)">
      <use xlink:href="#SimHei-77"/>
      <use xlink:href="#SimHei-5f" x="50"/>
      <use xlink:href="#SimHei-30" x="100"/>
      <use xlink:href="#SimHei-30" x="150"/>
      <use xlink:href="#SimHei-32" x="200"/>
      <use xlink:href="#SimHei-33" x="250"/>
      <use xlink:href="#SimHei-37" x="300"/>
      <use xlink:href="#SimHei-31" x="350"/>
      <use xlink:href="#SimHei-2e" x="400"/>
      <use xlink:href="#SimHei-53" x="450"/>
      <use xlink:href="#SimHei-5a" x="500"/>
     </g>
    </g>
    <g id="line2d_34">
     <path d="M 459.885478 48.18615 
L 469.885478 48.18615 
L 479.885478 48.18615 
" style="fill: none; stroke: #2ca02c; stroke-width: 1.5; stroke-linecap: square"/>
    </g>
    <g id="text_23">
     <!-- w_600009.SH -->
     <g transform="translate(487.885478 51.68615) scale(0.1 -0.1)">
      <defs>
       <path id="SimHei-48" d="M 2850 125 
L 2275 125 
L 2275 2125 
L 850 2125 
L 850 125 
L 275 125 
L 275 4400 
L 850 4400 
L 850 2600 
L 2275 2600 
L 2275 4400 
L 2850 4400 
L 2850 125 
z
" transform="scale(0.015625)"/>
      </defs>
      <use xlink:href="#SimHei-77"/>
      <use xlink:href="#SimHei-5f" x="50"/>
      <use xlink:href="#SimHei-36" x="100"/>
      <use xlink:href="#SimHei-30" x="150"/>
      <use xlink:href="#SimHei-30" x="200"/>
      <use xlink:href="#SimHei-30" x="250"/>
      <use xlink:href="#SimHei-30" x="300"/>
      <use xlink:href="#SimHei-39" x="350"/>
      <use xlink:href="#SimHei-2e" x="400"/>
      <use xlink:href="#SimHei-53" x="450"/>
      <use xlink:href="#SimHei-48" x="500"/>
     </g>
    </g>
    <g id="line2d_35">
     <path d="M 459.885478 61.545525 
L 469.885478 61.545525 
L 479.885478 61.545525 
" style="fill: none; stroke: #d62728; stroke-width: 1.5; stroke-linecap: square"/>
    </g>
    <g id="text_24">
     <!-- w_600029.SH -->
     <g transform="translate(487.885478 65.045525) scale(0.1 -0.1)">
      <use xlink:href="#SimHei-77"/>
      <use xlink:href="#SimHei-5f" x="50"/>
      <use xlink:href="#SimHei-36" x="100"/>
      <use xlink:href="#SimHei-30" x="150"/>
      <use xlink:href="#SimHei-30" x="200"/>
      <use xlink:href="#SimHei-30" x="250"/>
      <use xlink:href="#SimHei-32" x="300"/>
      <use xlink:href="#SimHei-39" x="350"/>
      <use xlink:href="#SimHei-2e" x="400"/>
      <use xlink:href="#SimHei-53" x="450"/>
      <use xlink:href="#SimHei-48" x="500"/>
     </g>
    </g>
    <g id="line2d_36">
     <path d="M 459.885478 74.9049 
L 469.885478 74.9049 
L 479.885478 74.9049 
" style="fill: none; stroke: #9467bd; stroke-width: 1.5; stroke-linecap: square"/>
    </g>
    <g id="text_25">
     <!-- w_600183.SH -->
     <g transform="translate(487.885478 78.4049) scale(0.1 -0.1)">
      <use xlink:href="#SimHei-77"/>
      <use xlink:href="#SimHei-5f" x="50"/>
      <use xlink:href="#SimHei-36" x="100"/>
      <use xlink:href="#SimHei-30" x="150"/>
      <use xlink:href="#SimHei-30" x="200"/>
      <use xlink:href="#SimHei-31" x="250"/>
      <use xlink:href="#SimHei-38" x="300"/>
      <use xlink:href="#SimHei-33" x="350"/>
      <use xlink:href="#SimHei-2e" x="400"/>
      <use xlink:href="#SimHei-53" x="450"/>
      <use xlink:href="#SimHei-48" x="500"/>
     </g>
    </g>
    <g id="line2d_37">
     <path d="M 459.885478 88.233025 
L 469.885478 88.233025 
L 479.885478 88.233025 
" style="fill: none; stroke: #8c564b; stroke-width: 1.5; stroke-linecap: square"/>
    </g>
    <g id="text_26">
     <!-- w_600406.SH -->
     <g transform="translate(487.885478 91.733025) scale(0.1 -0.1)">
      <use xlink:href="#SimHei-77"/>
      <use xlink:href="#SimHei-5f" x="50"/>
      <use xlink:href="#SimHei-36" x="100"/>
      <use xlink:href="#SimHei-30" x="150"/>
      <use xlink:href="#SimHei-30" x="200"/>
      <use xlink:href="#SimHei-34" x="250"/>
      <use xlink:href="#SimHei-30" x="300"/>
      <use xlink:href="#SimHei-36" x="350"/>
      <use xlink:href="#SimHei-2e" x="400"/>
      <use xlink:href="#SimHei-53" x="450"/>
      <use xlink:href="#SimHei-48" x="500"/>
     </g>
    </g>
    <g id="line2d_38">
     <path d="M 459.885478 101.56115 
L 469.885478 101.56115 
L 479.885478 101.56115 
" style="fill: none; stroke: #e377c2; stroke-width: 1.5; stroke-linecap: square"/>
    </g>
    <g id="text_27">
     <!-- w_600900.SH -->
     <g transform="translate(487.885478 105.06115) scale(0.1 -0.1)">
      <use xlink:href="#SimHei-77"/>
      <use xlink:href="#SimHei-5f" x="50"/>
      <use xlink:href="#SimHei-36" x="100"/>
      <use xlink:href="#SimHei-30" x="150"/>
      <use xlink:href="#SimHei-30" x="200"/>
      <use xlink:href="#SimHei-39" x="250"/>
      <use xlink:href="#SimHei-30" x="300"/>
      <use xlink:href="#SimHei-30" x="350"/>
      <use xlink:href="#SimHei-2e" x="400"/>
      <use xlink:href="#SimHei-53" x="450"/>
      <use xlink:href="#SimHei-48" x="500"/>
     </g>
    </g>
    <g id="line2d_39">
     <path d="M 459.885478 114.889275 
L 469.885478 114.889275 
L 479.885478 114.889275 
" style="fill: none; stroke: #7f7f7f; stroke-width: 1.5; stroke-linecap: square"/>
    </g>
    <g id="text_28">
     <!-- w_601989.SH -->
     <g transform="translate(487.885478 118.389275) scale(0.1 -0.1)">
      <use xlink:href="#SimHei-77"/>
      <use xlink:href="#SimHei-5f" x="50"/>
      <use xlink:href="#SimHei-36" x="100"/>
      <use xlink:href="#SimHei-30" x="150"/>
      <use xlink:href="#SimHei-31" x="200"/>
      <use xlink:href="#SimHei-39" x="250"/>
      <use xlink:href="#SimHei-38" x="300"/>
      <use xlink:href="#SimHei-39" x="350"/>
      <use xlink:href="#SimHei-2e" x="400"/>
      <use xlink:href="#SimHei-53" x="450"/>
      <use xlink:href="#SimHei-48" x="500"/>
     </g>
    </g>
    <g id="line2d_40">
     <path d="M 459.885478 128.2174 
L 469.885478 128.2174 
L 479.885478 128.2174 
" style="fill: none; stroke: #bcbd22; stroke-width: 1.5; stroke-linecap: square"/>
    </g>
    <g id="text_29">
     <!-- w_601998.SH -->
     <g transform="translate(487.885478 131.7174) scale(0.1 -0.1)">
      <use xlink:href="#SimHei-77"/>
      <use xlink:href="#SimHei-5f" x="50"/>
      <use xlink:href="#SimHei-36" x="100"/>
      <use xlink:href="#SimHei-30" x="150"/>
      <use xlink:href="#SimHei-31" x="200"/>
      <use xlink:href="#SimHei-39" x="250"/>
      <use xlink:href="#SimHei-39" x="300"/>
      <use xlink:href="#SimHei-38" x="350"/>
      <use xlink:href="#SimHei-2e" x="400"/>
      <use xlink:href="#SimHei-53" x="450"/>
      <use xlink:href="#SimHei-48" x="500"/>
     </g>
    </g>
    <g id="line2d_41">
     <path d="M 459.885478 141.545525 
L 469.885478 141.545525 
L 479.885478 141.545525 
" style="fill: none; stroke: #17becf; stroke-width: 1.5; stroke-linecap: square"/>
    </g>
    <g id="text_30">
     <!-- w_CASH -->
     <g transform="translate(487.885478 145.045525) scale(0.1 -0.1)">
      <defs>
       <path id="SimHei-41" d="M 3075 125 
L 2475 125 
L 2125 1450 
L 1025 1450 
L 675 125 
L 75 125 
L 1325 4450 
L 1825 4450 
L 3075 125 
z
M 2000 1925 
L 1600 3450 
L 1550 3450 
L 1150 1925 
L 2000 1925 
z
" transform="scale(0.015625)"/>
      </defs>
      <use xlink:href="#SimHei-77"/>
      <use xlink:href="#SimHei-5f" x="50"/>
      <use xlink:href="#SimHei-43" x="100"/>
      <use xlink:href="#SimHei-41" x="150"/>
      <use xlink:href="#SimHei-53" x="200"/>
      <use xlink:href="#SimHei-48" x="250"/>
     </g>
    </g>
   </g>
  </g>
  <g id="axes_3">
   <g id="patch_13">
    <path d="M 597.838419 164.1994 
L 827.603125 164.1994 
L 827.603125 8.9674 
L 597.838419 8.9674 
z
" style="fill: #ffffff"/>
   </g>
   <g id="matplotlib.axis_5">
    <g id="xtick_7">
     <g id="line2d_42">
      <g>
       <use xlink:href="#m81dff8cdb1" x="654.107327" y="164.1994" style="stroke: #000000; stroke-width: 0.8"/>
      </g>
     </g>
     <g id="text_31">
      <!-- 2023-09-20 -->
      <g transform="translate(629.107327 178.0744) scale(0.1 -0.1)">
       <use xlink:href="#SimHei-32"/>
       <use xlink:href="#SimHei-30" x="50"/>
       <use xlink:href="#SimHei-32" x="100"/>
       <use xlink:href="#SimHei-33" x="150"/>
       <use xlink:href="#SimHei-2d" x="200"/>
       <use xlink:href="#SimHei-30" x="250"/>
       <use xlink:href="#SimHei-39" x="300"/>
       <use xlink:href="#SimHei-2d" x="350"/>
       <use xlink:href="#SimHei-32" x="400"/>
       <use xlink:href="#SimHei-30" x="450"/>
      </g>
     </g>
    </g>
    <g id="xtick_8">
     <g id="line2d_43">
      <g>
       <use xlink:href="#m81dff8cdb1" x="718.049267" y="164.1994" style="stroke: #000000; stroke-width: 0.8"/>
      </g>
     </g>
     <g id="text_32">
      <!-- 2023-11-19 -->
      <g transform="translate(693.049267 178.0744) scale(0.1 -0.1)">
       <use xlink:href="#SimHei-32"/>
       <use xlink:href="#SimHei-30" x="50"/>
       <use xlink:href="#SimHei-32" x="100"/>
       <use xlink:href="#SimHei-33" x="150"/>
       <use xlink:href="#SimHei-2d" x="200"/>
       <use xlink:href="#SimHei-31" x="250"/>
       <use xlink:href="#SimHei-31" x="300"/>
       <use xlink:href="#SimHei-2d" x="350"/>
       <use xlink:href="#SimHei-31" x="400"/>
       <use xlink:href="#SimHei-39" x="450"/>
      </g>
     </g>
    </g>
    <g id="xtick_9">
     <g id="line2d_44">
      <g>
       <use xlink:href="#m81dff8cdb1" x="781.991208" y="164.1994" style="stroke: #000000; stroke-width: 0.8"/>
      </g>
     </g>
     <g id="text_33">
      <!-- 2024-01-18 -->
      <g transform="translate(756.991208 178.0744) scale(0.1 -0.1)">
       <use xlink:href="#SimHei-32"/>
       <use xlink:href="#SimHei-30" x="50"/>
       <use xlink:href="#SimHei-32" x="100"/>
       <use xlink:href="#SimHei-34" x="150"/>
       <use xlink:href="#SimHei-2d" x="200"/>
       <use xlink:href="#SimHei-30" x="250"/>
       <use xlink:href="#SimHei-31" x="300"/>
       <use xlink:href="#SimHei-2d" x="350"/>
       <use xlink:href="#SimHei-31" x="400"/>
       <use xlink:href="#SimHei-38" x="450"/>
      </g>
     </g>
    </g>
   </g>
   <g id="matplotlib.axis_6">
    <g id="ytick_14">
     <g id="line2d_45">
      <g>
       <use xlink:href="#mb18cb8cdd8" x="597.838419" y="157.1434" style="stroke: #000000; stroke-width: 0.8"/>
      </g>
     </g>
     <g id="text_34">
      <!-- 0.0000 -->
      <g transform="translate(560.838419 160.5809) scale(0.1 -0.1)">
       <use xlink:href="#SimHei-30"/>
       <use xlink:href="#SimHei-2e" x="50"/>
       <use xlink:href="#SimHei-30" x="100"/>
       <use xlink:href="#SimHei-30" x="150"/>
       <use xlink:href="#SimHei-30" x="200"/>
       <use xlink:href="#SimHei-30" x="250"/>
      </g>
     </g>
    </g>
    <g id="ytick_15">
     <g id="line2d_46">
      <g>
       <use xlink:href="#mb18cb8cdd8" x="597.838419" y="128.9194" style="stroke: #000000; stroke-width: 0.8"/>
      </g>
     </g>
     <g id="text_35">
      <!-- 0.0005 -->
      <g transform="translate(560.838419 132.3569) scale(0.1 -0.1)">
       <defs>
        <path id="SimHei-35" d="M 550 1325 
Q 725 650 1150 575 
Q 1575 500 1837 662 
Q 2100 825 2212 1087 
Q 2325 1350 2312 1675 
Q 2300 2000 2137 2225 
Q 1975 2450 1725 2525 
Q 1475 2600 1162 2525 
Q 850 2450 650 2175 
L 225 2225 
Q 275 2375 700 4375 
L 2675 4375 
L 2675 3925 
L 1075 3925 
Q 950 3250 825 2850 
Q 1200 3025 1525 3012 
Q 1850 3000 2150 2862 
Q 2450 2725 2587 2487 
Q 2725 2250 2787 2012 
Q 2850 1775 2837 1500 
Q 2825 1225 2725 937 
Q 2625 650 2425 462 
Q 2225 275 1937 162 
Q 1650 50 1275 75 
Q 900 100 562 350 
Q 225 600 100 1200 
L 550 1325 
z
" transform="scale(0.015625)"/>
       </defs>
       <use xlink:href="#SimHei-30"/>
       <use xlink:href="#SimHei-2e" x="50"/>
       <use xlink:href="#SimHei-30" x="100"/>
       <use xlink:href="#SimHei-30" x="150"/>
       <use xlink:href="#SimHei-30" x="200"/>
       <use xlink:href="#SimHei-35" x="250"/>
      </g>
     </g>
    </g>
    <g id="ytick_16">
     <g id="line2d_47">
      <g>
       <use xlink:href="#mb18cb8cdd8" x="597.838419" y="100.6954" style="stroke: #000000; stroke-width: 0.8"/>
      </g>
     </g>
     <g id="text_36">
      <!-- 0.0010 -->
      <g transform="translate(560.838419 104.1329) scale(0.1 -0.1)">
       <use xlink:href="#SimHei-30"/>
       <use xlink:href="#SimHei-2e" x="50"/>
       <use xlink:href="#SimHei-30" x="100"/>
       <use xlink:href="#SimHei-30" x="150"/>
       <use xlink:href="#SimHei-31" x="200"/>
       <use xlink:href="#SimHei-30" x="250"/>
      </g>
     </g>
    </g>
    <g id="ytick_17">
     <g id="line2d_48">
      <g>
       <use xlink:href="#mb18cb8cdd8" x="597.838419" y="72.4714" style="stroke: #000000; stroke-width: 0.8"/>
      </g>
     </g>
     <g id="text_37">
      <!-- 0.0015 -->
      <g transform="translate(560.838419 75.9089) scale(0.1 -0.1)">
       <use xlink:href="#SimHei-30"/>
       <use xlink:href="#SimHei-2e" x="50"/>
       <use xlink:href="#SimHei-30" x="100"/>
       <use xlink:href="#SimHei-30" x="150"/>
       <use xlink:href="#SimHei-31" x="200"/>
       <use xlink:href="#SimHei-35" x="250"/>
      </g>
     </g>
    </g>
    <g id="ytick_18">
     <g id="line2d_49">
      <g>
       <use xlink:href="#mb18cb8cdd8" x="597.838419" y="44.2474" style="stroke: #000000; stroke-width: 0.8"/>
      </g>
     </g>
     <g id="text_38">
      <!-- 0.0020 -->
      <g transform="translate(560.838419 47.6849) scale(0.1 -0.1)">
       <use xlink:href="#SimHei-30"/>
       <use xlink:href="#SimHei-2e" x="50"/>
       <use xlink:href="#SimHei-30" x="100"/>
       <use xlink:href="#SimHei-30" x="150"/>
       <use xlink:href="#SimHei-32" x="200"/>
       <use xlink:href="#SimHei-30" x="250"/>
      </g>
     </g>
    </g>
    <g id="ytick_19">
     <g id="line2d_50">
      <g>
       <use xlink:href="#mb18cb8cdd8" x="597.838419" y="16.0234" style="stroke: #000000; stroke-width: 0.8"/>
      </g>
     </g>
     <g id="text_39">
      <!-- 0.0025 -->
      <g transform="translate(560.838419 19.4609) scale(0.1 -0.1)">
       <use xlink:href="#SimHei-30"/>
       <use xlink:href="#SimHei-2e" x="50"/>
       <use xlink:href="#SimHei-30" x="100"/>
       <use xlink:href="#SimHei-30" x="150"/>
       <use xlink:href="#SimHei-32" x="200"/>
       <use xlink:href="#SimHei-35" x="250"/>
      </g>
     </g>
    </g>
   </g>
   <g id="line2d_51">
    <path d="M 608.282269 16.0234 
L 609.347968 156.740715 
L 610.413667 155.913713 
L 611.479366 156.482927 
L 615.742162 155.733799 
L 616.807861 156.436197 
L 617.87356 156.054472 
L 618.939259 155.890315 
L 622.136356 155.838229 
L 623.202055 156.390958 
L 624.267754 155.242306 
L 625.333453 156.425843 
L 626.399153 155.776274 
L 629.59625 154.639694 
L 630.661949 155.706148 
L 631.727648 155.861877 
L 632.793347 155.872906 
L 633.859046 155.696902 
L 637.056143 154.845949 
L 638.121842 155.67733 
L 639.187541 156.127561 
L 640.25324 156.067089 
L 641.318939 156.536342 
L 644.516036 156.426657 
L 645.581735 156.670184 
L 647.713133 155.562371 
L 648.778832 156.794005 
L 651.975929 155.775321 
L 653.041628 156.345876 
L 654.107327 156.29539 
L 655.173026 156.658601 
L 656.238725 156.528405 
L 660.501521 156.629628 
L 661.56722 156.678704 
L 662.632919 155.682912 
L 674.355608 155.422335 
L 675.421307 156.16684 
L 676.487006 154.165775 
L 677.552705 155.424236 
L 678.618404 155.786278 
L 681.815501 156.403625 
L 682.8812 156.480354 
L 683.946899 156.049384 
L 685.012598 156.531663 
L 686.078297 156.221798 
L 689.275394 156.396583 
L 690.341093 155.71002 
L 691.406792 154.251617 
L 692.472491 156.181703 
L 693.53819 155.889276 
L 696.735287 154.32939 
L 697.800986 156.603262 
L 698.866685 156.152635 
L 699.932384 155.922743 
L 700.998083 156.410205 
L 704.19518 155.695995 
L 705.260879 156.690935 
L 706.326578 155.989308 
L 707.392277 156.61718 
L 708.457976 156.601763 
L 711.655073 156.737999 
L 712.720772 156.145823 
L 713.786471 156.548093 
L 714.85217 156.415731 
L 715.917869 156.49106 
L 719.114966 156.203811 
L 720.180665 156.418188 
L 723.377762 156.576305 
L 726.574859 156.535408 
L 729.771956 156.077207 
L 730.837655 155.722126 
L 734.034752 156.054026 
L 735.100451 155.949113 
L 736.16615 156.441068 
L 737.231849 156.101335 
L 738.297548 156.017152 
L 741.494645 156.19986 
L 742.560344 155.776377 
L 743.626043 156.002699 
L 744.691742 155.999039 
L 745.757441 156.673662 
L 748.954538 156.114197 
L 750.020237 156.334385 
L 751.085936 155.5698 
L 752.151635 155.984685 
L 753.217334 156.61415 
L 757.48013 156.165723 
L 758.545829 156.515057 
L 759.611528 154.988501 
L 760.677227 156.193448 
L 764.940023 155.909314 
L 766.005722 156.229352 
L 767.071421 156.230768 
L 768.13712 154.566945 
L 771.334217 156.272441 
L 772.399916 155.509382 
L 773.465615 156.319756 
L 774.531314 155.714401 
L 775.597013 156.438628 
L 778.79411 155.862283 
L 780.925508 156.568941 
L 781.991208 156.353893 
L 786.254004 156.292041 
L 787.319703 156.630115 
L 788.385402 156.036354 
L 789.451101 154.862943 
L 790.5168 156.231057 
L 793.713897 154.391013 
L 794.779596 155.801061 
L 795.845295 154.334519 
L 796.910994 155.962319 
L 797.976693 155.848091 
L 801.17379 154.258159 
L 802.239489 154.502531 
L 803.305188 156.139745 
L 804.370887 155.468564 
L 816.093576 156.09795 
L 817.159275 157.1434 
L 817.159275 157.1434 
" clip-path="url(#p9ddab671a6)" style="fill: none; stroke: #1f77b4; stroke-width: 1.5; stroke-linecap: square"/>
   </g>
   <g id="patch_14">
    <path d="M 597.838419 164.1994 
L 597.838419 8.9674 
" style="fill: none; stroke: #000000; stroke-width: 0.8; stroke-linejoin: miter; stroke-linecap: square"/>
   </g>
   <g id="patch_15">
    <path d="M 827.603125 164.1994 
L 827.603125 8.9674 
" style="fill: none; stroke: #000000; stroke-width: 0.8; stroke-linejoin: miter; stroke-linecap: square"/>
   </g>
   <g id="patch_16">
    <path d="M 597.838419 164.1994 
L 827.603125 164.1994 
" style="fill: none; stroke: #000000; stroke-width: 0.8; stroke-linejoin: miter; stroke-linecap: square"/>
   </g>
   <g id="patch_17">
    <path d="M 597.838419 8.9674 
L 827.603125 8.9674 
" style="fill: none; stroke: #000000; stroke-width: 0.8; stroke-linejoin: miter; stroke-linecap: square"/>
   </g>
  </g>
 </g>
 <defs>
  <clipPath id="pa9f825fdd4">
   <rect x="46.403125" y="8.9674" width="229.764706" height="155.232"/>
  </clipPath>
  <clipPath id="p5ce180bf9e">
   <rect x="322.120772" y="8.9674" width="229.764706" height="155.232"/>
  </clipPath>
  <clipPath id="p9ddab671a6">
   <rect x="597.838419" y="8.9674" width="229.764706" height="155.232"/>
  </clipPath>
 </defs>
</svg>
