<?xml version="1.0" encoding="utf-8" standalone="no"?>
<!DOCTYPE svg PUBLIC "-//W3C//DTD SVG 1.1//EN"
  "http://www.w3.org/Graphics/SVG/1.1/DTD/svg11.dtd">
<svg xmlns:xlink="http://www.w3.org/1999/xlink" width="834.725pt" height="184.757pt" viewBox="0 0 834.725 184.757" xmlns="http://www.w3.org/2000/svg" version="1.1">
 <metadata>
  <rdf:RDF xmlns:dc="http://purl.org/dc/elements/1.1/" xmlns:cc="http://creativecommons.org/ns#" xmlns:rdf="http://www.w3.org/1999/02/22-rdf-syntax-ns#">
   <cc:Work>
    <dc:type rdf:resource="http://purl.org/dc/dcmitype/StillImage"/>
    <dc:date>2024-12-25T17:33:02.482726</dc:date>
    <dc:format>image/svg+xml</dc:format>
    <dc:creator>
     <cc:Agent>
      <dc:title>Matplotlib v3.9.3, https://matplotlib.org/</dc:title>
     </cc:Agent>
    </dc:creator>
   </cc:Work>
  </rdf:RDF>
 </metadata>
 <defs>
  <style type="text/css">*{stroke-linejoin: round; stroke-linecap: butt}</style>
 </defs>
 <g id="figure_1">
  <g id="patch_1">
   <path d="M 0 184.757 
L 834.725 184.757 
L 834.725 0 
L 0 0 
z
" style="fill: #ffffff"/>
  </g>
  <g id="axes_1">
   <g id="patch_2">
    <path d="M 46.325 162.432 
L 276.089706 162.432 
L 276.089706 7.2 
L 46.325 7.2 
z
" style="fill: #ffffff"/>
   </g>
   <g id="matplotlib.axis_1">
    <g id="xtick_1">
     <g id="line2d_1">
      <defs>
       <path id="m3b7ffab8f3" d="M 0 0 
L 0 3.5 
" style="stroke: #000000; stroke-width: 0.8"/>
      </defs>
      <g>
       <use xlink:href="#m3b7ffab8f3" x="102.593908" y="162.432" style="stroke: #000000; stroke-width: 0.8"/>
      </g>
     </g>
     <g id="text_1">
      <!-- 2023-09-20 -->
      <g transform="translate(77.593908 176.307) scale(0.1 -0.1)">
       <defs>
        <path id="SimHei-32" d="M 300 250 
Q 325 625 650 925 
Q 975 1225 1475 1862 
Q 1975 2500 2125 2850 
Q 2275 3200 2237 3450 
Q 2200 3700 2000 3862 
Q 1800 4025 1537 4000 
Q 1275 3975 1037 3800 
Q 800 3625 675 3275 
L 200 3350 
Q 400 3925 712 4187 
Q 1025 4450 1450 4475 
Q 1700 4500 1900 4462 
Q 2100 4425 2312 4287 
Q 2525 4150 2662 3875 
Q 2800 3600 2762 3212 
Q 2725 2825 2375 2287 
Q 2025 1750 1025 600 
L 2825 600 
L 2825 150 
L 300 150 
L 300 250 
z
" transform="scale(0.015625)"/>
        <path id="SimHei-30" d="M 225 2537 
Q 250 3200 412 3587 
Q 575 3975 875 4225 
Q 1175 4475 1612 4475 
Q 2050 4475 2375 4112 
Q 2700 3750 2800 3200 
Q 2900 2650 2862 1937 
Q 2825 1225 2612 775 
Q 2400 325 1975 150 
Q 1550 -25 1125 187 
Q 700 400 525 750 
Q 350 1100 275 1487 
Q 200 1875 225 2537 
z
M 750 2687 
Q 675 2000 800 1462 
Q 925 925 1212 700 
Q 1500 475 1800 612 
Q 2100 750 2237 1162 
Q 2375 1575 2375 2062 
Q 2375 2550 2337 2950 
Q 2300 3350 2112 3675 
Q 1925 4000 1612 4012 
Q 1300 4025 1062 3700 
Q 825 3375 750 2687 
z
" transform="scale(0.015625)"/>
        <path id="SimHei-33" d="M 250 1225 
L 700 1300 
Q 800 975 1025 762 
Q 1250 550 1587 562 
Q 1925 575 2125 837 
Q 2325 1100 2300 1437 
Q 2275 1775 2037 1962 
Q 1800 2150 1275 2225 
L 1275 2550 
Q 1800 2600 2037 2825 
Q 2275 3050 2250 3412 
Q 2225 3775 1925 3937 
Q 1625 4100 1287 3975 
Q 950 3850 750 3275 
L 300 3350 
Q 450 3800 712 4100 
Q 975 4400 1425 4450 
Q 1875 4500 2212 4337 
Q 2550 4175 2687 3837 
Q 2825 3500 2725 3100 
Q 2625 2700 2150 2400 
Q 2500 2250 2687 1950 
Q 2875 1650 2812 1162 
Q 2750 675 2375 375 
Q 2000 75 1525 87 
Q 1050 100 700 387 
Q 350 675 250 1225 
z
" transform="scale(0.015625)"/>
        <path id="SimHei-2d" d="M 2975 2125 
L 125 2125 
L 125 2525 
L 2975 2525 
L 2975 2125 
z
" transform="scale(0.015625)"/>
        <path id="SimHei-39" d="M 800 75 
Q 1350 1000 1700 1750 
Q 1075 1650 662 1912 
Q 250 2175 162 2625 
Q 75 3075 175 3437 
Q 275 3800 487 4037 
Q 700 4275 1000 4375 
Q 1300 4475 1537 4475 
Q 1775 4475 2025 4375 
Q 2275 4275 2475 4075 
Q 2675 3875 2750 3662 
Q 2825 3450 2825 3112 
Q 2825 2775 2575 2250 
Q 2325 1725 1350 75 
L 800 75 
z
M 662 2875 
Q 700 2550 937 2337 
Q 1175 2125 1450 2150 
Q 1725 2175 1887 2300 
Q 2050 2425 2200 2725 
Q 2300 3100 2250 3362 
Q 2200 3625 1987 3800 
Q 1775 3975 1525 3975 
Q 1375 4000 1137 3900 
Q 900 3800 762 3500 
Q 625 3200 662 2875 
z
" transform="scale(0.015625)"/>
       </defs>
       <use xlink:href="#SimHei-32"/>
       <use xlink:href="#SimHei-30" x="50"/>
       <use xlink:href="#SimHei-32" x="100"/>
       <use xlink:href="#SimHei-33" x="150"/>
       <use xlink:href="#SimHei-2d" x="200"/>
       <use xlink:href="#SimHei-30" x="250"/>
       <use xlink:href="#SimHei-39" x="300"/>
       <use xlink:href="#SimHei-2d" x="350"/>
       <use xlink:href="#SimHei-32" x="400"/>
       <use xlink:href="#SimHei-30" x="450"/>
      </g>
     </g>
    </g>
    <g id="xtick_2">
     <g id="line2d_2">
      <g>
       <use xlink:href="#m3b7ffab8f3" x="166.535848" y="162.432" style="stroke: #000000; stroke-width: 0.8"/>
      </g>
     </g>
     <g id="text_2">
      <!-- 2023-11-19 -->
      <g transform="translate(141.535848 176.307) scale(0.1 -0.1)">
       <defs>
        <path id="SimHei-31" d="M 1400 3600 
Q 1075 3275 575 2975 
L 575 3450 
Q 1200 3875 1600 4450 
L 1900 4450 
L 1900 150 
L 1400 150 
L 1400 3600 
z
" transform="scale(0.015625)"/>
       </defs>
       <use xlink:href="#SimHei-32"/>
       <use xlink:href="#SimHei-30" x="50"/>
       <use xlink:href="#SimHei-32" x="100"/>
       <use xlink:href="#SimHei-33" x="150"/>
       <use xlink:href="#SimHei-2d" x="200"/>
       <use xlink:href="#SimHei-31" x="250"/>
       <use xlink:href="#SimHei-31" x="300"/>
       <use xlink:href="#SimHei-2d" x="350"/>
       <use xlink:href="#SimHei-31" x="400"/>
       <use xlink:href="#SimHei-39" x="450"/>
      </g>
     </g>
    </g>
    <g id="xtick_3">
     <g id="line2d_3">
      <g>
       <use xlink:href="#m3b7ffab8f3" x="230.477788" y="162.432" style="stroke: #000000; stroke-width: 0.8"/>
      </g>
     </g>
     <g id="text_3">
      <!-- 2024-01-18 -->
      <g transform="translate(205.477788 176.307) scale(0.1 -0.1)">
       <defs>
        <path id="SimHei-34" d="M 2000 1100 
L 75 1100 
L 75 1525 
L 2100 4450 
L 2475 4450 
L 2475 1525 
L 3075 1525 
L 3075 1100 
L 2475 1100 
L 2475 150 
L 2000 150 
L 2000 1100 
z
M 2000 1525 
L 2000 3500 
L 600 1525 
L 2000 1525 
z
" transform="scale(0.015625)"/>
        <path id="SimHei-38" d="M 175 1375 
Q 175 1675 325 1962 
Q 475 2250 825 2425 
Q 525 2600 425 2812 
Q 325 3025 312 3300 
Q 300 3575 387 3775 
Q 475 3975 650 4150 
Q 825 4325 1037 4387 
Q 1250 4450 1500 4450 
Q 1750 4450 1950 4400 
Q 2150 4350 2375 4187 
Q 2600 4025 2700 3725 
Q 2800 3425 2687 3025 
Q 2575 2625 2100 2400 
Q 2525 2275 2700 2012 
Q 2875 1750 2875 1375 
Q 2875 1000 2762 775 
Q 2650 550 2512 400 
Q 2375 250 2137 162 
Q 1900 75 1537 75 
Q 1175 75 912 162 
Q 650 250 475 425 
Q 300 600 237 837 
Q 175 1075 175 1375 
z
M 687 1400 
Q 675 1100 787 875 
Q 900 650 1200 587 
Q 1500 525 1825 600 
Q 2150 675 2275 950 
Q 2400 1225 2362 1500 
Q 2325 1775 2050 1962 
Q 1775 2150 1450 2125 
Q 1125 2100 912 1900 
Q 700 1700 687 1400 
z
M 775 3350 
Q 775 3100 950 2875 
Q 1125 2650 1500 2650 
Q 1875 2650 2062 2875 
Q 2250 3100 2237 3412 
Q 2225 3725 2012 3875 
Q 1800 4025 1437 4000 
Q 1075 3975 925 3787 
Q 775 3600 775 3350 
z
" transform="scale(0.015625)"/>
       </defs>
       <use xlink:href="#SimHei-32"/>
       <use xlink:href="#SimHei-30" x="50"/>
       <use xlink:href="#SimHei-32" x="100"/>
       <use xlink:href="#SimHei-34" x="150"/>
       <use xlink:href="#SimHei-2d" x="200"/>
       <use xlink:href="#SimHei-30" x="250"/>
       <use xlink:href="#SimHei-31" x="300"/>
       <use xlink:href="#SimHei-2d" x="350"/>
       <use xlink:href="#SimHei-31" x="400"/>
       <use xlink:href="#SimHei-38" x="450"/>
      </g>
     </g>
    </g>
   </g>
   <g id="matplotlib.axis_2">
    <g id="ytick_1">
     <g id="line2d_4">
      <defs>
       <path id="m5f0cee1cd7" d="M 0 0 
L -3.5 0 
" style="stroke: #000000; stroke-width: 0.8"/>
      </defs>
      <g>
       <use xlink:href="#m5f0cee1cd7" x="46.325" y="155.179851" style="stroke: #000000; stroke-width: 0.8"/>
      </g>
     </g>
     <g id="text_4">
      <!-- 0.94 -->
      <g transform="translate(19.325 158.617351) scale(0.1 -0.1)">
       <defs>
        <path id="SimHei-2e" d="M 1075 125 
L 500 125 
L 500 675 
L 1075 675 
L 1075 125 
z
" transform="scale(0.015625)"/>
       </defs>
       <use xlink:href="#SimHei-30"/>
       <use xlink:href="#SimHei-2e" x="50"/>
       <use xlink:href="#SimHei-39" x="100"/>
       <use xlink:href="#SimHei-34" x="150"/>
      </g>
     </g>
    </g>
    <g id="ytick_2">
     <g id="line2d_5">
      <g>
       <use xlink:href="#m5f0cee1cd7" x="46.325" y="126.94441" style="stroke: #000000; stroke-width: 0.8"/>
      </g>
     </g>
     <g id="text_5">
      <!-- 0.96 -->
      <g transform="translate(19.325 130.38191) scale(0.1 -0.1)">
       <defs>
        <path id="SimHei-36" d="M 250 1612 
Q 275 1975 387 2225 
Q 500 2475 725 2850 
L 1750 4450 
L 2325 4450 
L 1275 2800 
Q 1950 2975 2350 2750 
Q 2750 2525 2887 2237 
Q 3025 1950 3037 1612 
Q 3050 1275 2937 950 
Q 2825 625 2537 362 
Q 2250 100 1737 75 
Q 1225 50 862 262 
Q 500 475 362 862 
Q 225 1250 250 1612 
z
M 1025 787 
Q 1250 550 1625 525 
Q 2000 500 2250 775 
Q 2500 1050 2500 1575 
Q 2500 2100 2187 2300 
Q 1875 2500 1487 2450 
Q 1100 2400 925 2075 
Q 750 1750 775 1387 
Q 800 1025 1025 787 
z
" transform="scale(0.015625)"/>
       </defs>
       <use xlink:href="#SimHei-30"/>
       <use xlink:href="#SimHei-2e" x="50"/>
       <use xlink:href="#SimHei-39" x="100"/>
       <use xlink:href="#SimHei-36" x="150"/>
      </g>
     </g>
    </g>
    <g id="ytick_3">
     <g id="line2d_6">
      <g>
       <use xlink:href="#m5f0cee1cd7" x="46.325" y="98.708969" style="stroke: #000000; stroke-width: 0.8"/>
      </g>
     </g>
     <g id="text_6">
      <!-- 0.98 -->
      <g transform="translate(19.325 102.146469) scale(0.1 -0.1)">
       <use xlink:href="#SimHei-30"/>
       <use xlink:href="#SimHei-2e" x="50"/>
       <use xlink:href="#SimHei-39" x="100"/>
       <use xlink:href="#SimHei-38" x="150"/>
      </g>
     </g>
    </g>
    <g id="ytick_4">
     <g id="line2d_7">
      <g>
       <use xlink:href="#m5f0cee1cd7" x="46.325" y="70.473528" style="stroke: #000000; stroke-width: 0.8"/>
      </g>
     </g>
     <g id="text_7">
      <!-- 1.00 -->
      <g transform="translate(19.325 73.911028) scale(0.1 -0.1)">
       <use xlink:href="#SimHei-31"/>
       <use xlink:href="#SimHei-2e" x="50"/>
       <use xlink:href="#SimHei-30" x="100"/>
       <use xlink:href="#SimHei-30" x="150"/>
      </g>
     </g>
    </g>
    <g id="ytick_5">
     <g id="line2d_8">
      <g>
       <use xlink:href="#m5f0cee1cd7" x="46.325" y="42.238087" style="stroke: #000000; stroke-width: 0.8"/>
      </g>
     </g>
     <g id="text_8">
      <!-- 1.02 -->
      <g transform="translate(19.325 45.675587) scale(0.1 -0.1)">
       <use xlink:href="#SimHei-31"/>
       <use xlink:href="#SimHei-2e" x="50"/>
       <use xlink:href="#SimHei-30" x="100"/>
       <use xlink:href="#SimHei-32" x="150"/>
      </g>
     </g>
    </g>
    <g id="ytick_6">
     <g id="line2d_9">
      <g>
       <use xlink:href="#m5f0cee1cd7" x="46.325" y="14.002646" style="stroke: #000000; stroke-width: 0.8"/>
      </g>
     </g>
     <g id="text_9">
      <!-- 1.04 -->
      <g transform="translate(19.325 17.440146) scale(0.1 -0.1)">
       <use xlink:href="#SimHei-31"/>
       <use xlink:href="#SimHei-2e" x="50"/>
       <use xlink:href="#SimHei-30" x="100"/>
       <use xlink:href="#SimHei-34" x="150"/>
      </g>
     </g>
    </g>
    <g id="text_10">
     <!-- NCO-MinRisk -->
     <g transform="translate(14.075 112.316) rotate(-90) scale(0.1 -0.1)">
      <defs>
       <path id="SimHei-4e" d="M 2850 125 
L 2225 125 
L 850 3225 
L 825 3225 
L 825 125 
L 250 125 
L 250 4400 
L 875 4400 
L 2250 1300 
L 2275 1300 
L 2275 4400 
L 2850 4400 
L 2850 125 
z
" transform="scale(0.015625)"/>
       <path id="SimHei-43" d="M 2975 1825 
Q 2950 875 2575 475 
Q 2200 75 1675 75 
Q 1075 75 650 562 
Q 225 1050 225 2125 
Q 225 3300 637 3875 
Q 1050 4450 1700 4450 
Q 2250 4450 2612 4037 
Q 2975 3625 2950 2875 
L 2400 2875 
Q 2400 3425 2225 3700 
Q 2050 3975 1700 3975 
Q 1300 3975 1062 3562 
Q 825 3150 825 2175 
Q 825 1275 1062 912 
Q 1300 550 1675 550 
Q 1950 550 2175 812 
Q 2400 1075 2400 1825 
L 2975 1825 
z
" transform="scale(0.015625)"/>
       <path id="SimHei-4f" d="M 2950 2275 
Q 2950 1100 2587 587 
Q 2225 75 1575 75 
Q 925 75 550 587 
Q 175 1100 175 2275 
Q 175 3450 550 3950 
Q 925 4450 1575 4450 
Q 2225 4450 2587 3950 
Q 2950 3450 2950 2275 
z
M 2350 2275 
Q 2350 3325 2125 3650 
Q 1900 3975 1575 3975 
Q 1250 3975 1012 3650 
Q 775 3325 775 2275 
Q 775 1225 1012 887 
Q 1250 550 1575 550 
Q 1900 550 2125 887 
Q 2350 1225 2350 2275 
z
" transform="scale(0.015625)"/>
       <path id="SimHei-4d" d="M 2925 125 
L 2425 125 
L 2425 3175 
L 2375 3175 
L 1775 125 
L 1375 125 
L 775 3175 
L 725 3175 
L 725 125 
L 225 125 
L 225 4400 
L 1000 4400 
L 1550 1575 
L 1600 1575 
L 2150 4400 
L 2925 4400 
L 2925 125 
z
" transform="scale(0.015625)"/>
       <path id="SimHei-69" d="M 1800 3725 
L 1300 3725 
L 1300 4375 
L 1800 4375 
L 1800 3725 
z
M 1800 125 
L 1300 125 
L 1300 2925 
L 1800 2925 
L 1800 125 
z
" transform="scale(0.015625)"/>
       <path id="SimHei-6e" d="M 2800 125 
L 2300 125 
L 2300 1925 
Q 2300 2225 2150 2400 
Q 2000 2575 1750 2575 
Q 1425 2575 1137 2237 
Q 850 1900 850 1400 
L 850 125 
L 350 125 
L 350 2925 
L 850 2925 
L 850 2400 
Q 1050 2675 1287 2825 
Q 1525 2975 1900 2975 
Q 2350 2975 2575 2725 
Q 2800 2475 2800 2100 
L 2800 125 
z
" transform="scale(0.015625)"/>
       <path id="SimHei-52" d="M 3000 125 
L 2400 125 
L 1500 1975 
L 850 1975 
L 850 125 
L 275 125 
L 275 4400 
L 1525 4400 
Q 2125 4400 2500 4112 
Q 2875 3825 2875 3175 
Q 2875 2675 2625 2400 
Q 2375 2125 2050 2050 
L 3000 125 
z
M 2300 3175 
Q 2300 3525 2087 3725 
Q 1875 3925 1400 3925 
L 850 3925 
L 850 2450 
L 1550 2450 
Q 1850 2450 2075 2612 
Q 2300 2775 2300 3175 
z
" transform="scale(0.015625)"/>
       <path id="SimHei-73" d="M 2750 900 
Q 2750 500 2437 287 
Q 2125 75 1650 75 
Q 1050 75 725 312 
Q 400 550 400 1000 
L 900 1000 
Q 900 700 1112 600 
Q 1325 500 1625 500 
Q 1925 500 2075 612 
Q 2225 725 2225 900 
Q 2225 1025 2100 1150 
Q 1975 1275 1475 1350 
Q 900 1425 687 1637 
Q 475 1850 475 2200 
Q 475 2500 762 2737 
Q 1050 2975 1600 2975 
Q 2100 2975 2387 2750 
Q 2675 2525 2675 2150 
L 2175 2150 
Q 2175 2375 2012 2462 
Q 1850 2550 1600 2550 
Q 1275 2550 1137 2437 
Q 1000 2325 1000 2175 
Q 1000 2000 1125 1900 
Q 1250 1800 1650 1750 
Q 2300 1650 2525 1437 
Q 2750 1225 2750 900 
z
" transform="scale(0.015625)"/>
       <path id="SimHei-6b" d="M 2925 125 
L 2350 125 
L 1450 1650 
L 875 1100 
L 875 125 
L 375 125 
L 375 4400 
L 875 4400 
L 875 1675 
L 2125 2925 
L 2750 2925 
L 1775 1975 
L 2925 125 
z
" transform="scale(0.015625)"/>
      </defs>
      <use xlink:href="#SimHei-4e"/>
      <use xlink:href="#SimHei-43" x="50"/>
      <use xlink:href="#SimHei-4f" x="100"/>
      <use xlink:href="#SimHei-2d" x="150"/>
      <use xlink:href="#SimHei-4d" x="200"/>
      <use xlink:href="#SimHei-69" x="250"/>
      <use xlink:href="#SimHei-6e" x="300"/>
      <use xlink:href="#SimHei-52" x="350"/>
      <use xlink:href="#SimHei-69" x="400"/>
      <use xlink:href="#SimHei-73" x="450"/>
      <use xlink:href="#SimHei-6b" x="500"/>
     </g>
    </g>
   </g>
   <g id="line2d_10">
    <path d="M 56.76885 74.002958 
L 57.834549 78.960164 
L 58.900248 70.636379 
L 59.965947 101.031124 
L 63.163044 104.42691 
L 64.228743 99.092477 
L 65.294442 110.271029 
L 66.360141 102.961015 
L 67.42584 114.010955 
L 70.622937 136.664092 
L 71.688636 126.405308 
L 72.754335 142.07322 
L 73.820034 146.592191 
L 74.885733 138.87172 
L 78.08283 133.550557 
L 79.148529 129.056979 
L 80.214228 128.408983 
L 81.279927 127.193601 
L 82.345626 133.742728 
L 85.542723 122.414997 
L 86.608422 120.845671 
L 87.674121 126.866296 
L 88.73982 136.185576 
L 89.805519 137.641187 
L 93.002617 124.751631 
L 94.068316 124.16839 
L 95.134015 128.193374 
L 96.199714 113.238491 
L 97.265413 119.482718 
L 100.46251 126.590909 
L 101.528209 123.413179 
L 102.593908 128.604197 
L 103.659607 138.326064 
L 104.725306 121.860383 
L 107.922403 123.473156 
L 108.988102 130.974224 
L 110.053801 141.265625 
L 111.1195 134.641764 
L 122.842189 121.282075 
L 123.907888 122.846356 
L 124.973587 123.110372 
L 126.039286 111.996897 
L 127.104985 116.343996 
L 130.302082 116.582058 
L 131.367781 108.351595 
L 132.43348 111.555782 
L 133.499179 131.251716 
L 134.564878 144.384668 
L 137.761975 155.376 
L 138.827674 142.944319 
L 139.893373 147.79203 
L 140.959072 130.740229 
L 142.024771 120.484315 
L 145.221868 115.018689 
L 146.287567 111.980193 
L 147.353266 107.249367 
L 148.418965 106.665252 
L 149.484664 106.519012 
L 152.681761 115.885356 
L 153.74746 116.992006 
L 154.813159 117.736832 
L 155.878858 110.935945 
L 156.944557 114.791458 
L 160.141654 118.838981 
L 161.207353 123.193864 
L 162.273052 109.39457 
L 163.338751 112.553812 
L 164.40445 113.188137 
L 167.601547 106.007634 
L 168.667246 108.1584 
L 169.732945 116.35108 
L 170.798644 110.729745 
L 171.864343 114.822118 
L 175.06144 114.559296 
L 176.127139 116.985143 
L 177.192838 124.673534 
L 178.258537 114.93231 
L 179.324236 126.982433 
L 182.521333 127.093748 
L 183.587032 143.564771 
L 184.652731 148.278532 
L 185.71843 150.438049 
L 186.784129 148.865525 
L 189.981226 140.73115 
L 191.046925 130.314477 
L 192.112624 134.522727 
L 193.178323 136.755609 
L 194.244022 149.046504 
L 197.441119 144.241339 
L 198.506818 138.74519 
L 199.572517 140.588173 
L 200.638216 136.578508 
L 201.703915 135.330197 
L 204.901012 126.443849 
L 205.966711 128.654859 
L 207.03241 127.302952 
L 208.098109 124.340368 
L 209.163808 116.559741 
L 213.426604 112.531719 
L 214.492303 106.527765 
L 215.558002 109.340606 
L 216.623701 111.401652 
L 219.820798 125.318023 
L 220.886497 122.513623 
L 221.952196 131.919158 
L 223.017895 136.588138 
L 224.083594 124.922354 
L 227.280691 116.857733 
L 228.34639 107.519906 
L 229.412089 129.352559 
L 230.477788 121.6963 
L 231.543487 119.805619 
L 234.740584 139.372435 
L 235.806283 139.972632 
L 236.871982 108.864383 
L 237.937681 87.166147 
L 239.00338 83.297562 
L 242.200477 73.349903 
L 243.266176 94.479365 
L 244.331875 93.954567 
L 245.397574 101.070996 
L 246.463273 104.949841 
L 249.660371 86.687232 
L 250.72607 62.295192 
L 251.791769 57.757214 
L 252.857468 54.949554 
L 264.580157 27.192006 
L 265.645856 14.256 
L 265.645856 14.256 
" clip-path="url(#pdea61950b2)" style="fill: none; stroke: #1f77b4; stroke-width: 1.5; stroke-linecap: square"/>
   </g>
   <g id="patch_3">
    <path d="M 46.325 162.432 
L 46.325 7.2 
" style="fill: none; stroke: #000000; stroke-width: 0.8; stroke-linejoin: miter; stroke-linecap: square"/>
   </g>
   <g id="patch_4">
    <path d="M 276.089706 162.432 
L 276.089706 7.2 
" style="fill: none; stroke: #000000; stroke-width: 0.8; stroke-linejoin: miter; stroke-linecap: square"/>
   </g>
   <g id="patch_5">
    <path d="M 46.325 162.432 
L 276.089706 162.432 
" style="fill: none; stroke: #000000; stroke-width: 0.8; stroke-linejoin: miter; stroke-linecap: square"/>
   </g>
   <g id="patch_6">
    <path d="M 46.325 7.2 
L 276.089706 7.2 
" style="fill: none; stroke: #000000; stroke-width: 0.8; stroke-linejoin: miter; stroke-linecap: square"/>
   </g>
  </g>
  <g id="axes_2">
   <g id="patch_7">
    <path d="M 322.042647 162.432 
L 551.807353 162.432 
L 551.807353 7.2 
L 322.042647 7.2 
z
" style="fill: #ffffff"/>
   </g>
   <g id="matplotlib.axis_3">
    <g id="xtick_4">
     <g id="line2d_11">
      <g>
       <use xlink:href="#m3b7ffab8f3" x="379.377254" y="162.432" style="stroke: #000000; stroke-width: 0.8"/>
      </g>
     </g>
     <g id="text_11">
      <!-- 2023-09-20 -->
      <g transform="translate(354.377254 176.307) scale(0.1 -0.1)">
       <use xlink:href="#SimHei-32"/>
       <use xlink:href="#SimHei-30" x="50"/>
       <use xlink:href="#SimHei-32" x="100"/>
       <use xlink:href="#SimHei-33" x="150"/>
       <use xlink:href="#SimHei-2d" x="200"/>
       <use xlink:href="#SimHei-30" x="250"/>
       <use xlink:href="#SimHei-39" x="300"/>
       <use xlink:href="#SimHei-2d" x="350"/>
       <use xlink:href="#SimHei-32" x="400"/>
       <use xlink:href="#SimHei-30" x="450"/>
      </g>
     </g>
    </g>
    <g id="xtick_5">
     <g id="line2d_12">
      <g>
       <use xlink:href="#m3b7ffab8f3" x="443.319194" y="162.432" style="stroke: #000000; stroke-width: 0.8"/>
      </g>
     </g>
     <g id="text_12">
      <!-- 2023-11-19 -->
      <g transform="translate(418.319194 176.307) scale(0.1 -0.1)">
       <use xlink:href="#SimHei-32"/>
       <use xlink:href="#SimHei-30" x="50"/>
       <use xlink:href="#SimHei-32" x="100"/>
       <use xlink:href="#SimHei-33" x="150"/>
       <use xlink:href="#SimHei-2d" x="200"/>
       <use xlink:href="#SimHei-31" x="250"/>
       <use xlink:href="#SimHei-31" x="300"/>
       <use xlink:href="#SimHei-2d" x="350"/>
       <use xlink:href="#SimHei-31" x="400"/>
       <use xlink:href="#SimHei-39" x="450"/>
      </g>
     </g>
    </g>
    <g id="xtick_6">
     <g id="line2d_13">
      <g>
       <use xlink:href="#m3b7ffab8f3" x="507.261134" y="162.432" style="stroke: #000000; stroke-width: 0.8"/>
      </g>
     </g>
     <g id="text_13">
      <!-- 2024-01-18 -->
      <g transform="translate(482.261134 176.307) scale(0.1 -0.1)">
       <use xlink:href="#SimHei-32"/>
       <use xlink:href="#SimHei-30" x="50"/>
       <use xlink:href="#SimHei-32" x="100"/>
       <use xlink:href="#SimHei-34" x="150"/>
       <use xlink:href="#SimHei-2d" x="200"/>
       <use xlink:href="#SimHei-30" x="250"/>
       <use xlink:href="#SimHei-31" x="300"/>
       <use xlink:href="#SimHei-2d" x="350"/>
       <use xlink:href="#SimHei-31" x="400"/>
       <use xlink:href="#SimHei-38" x="450"/>
      </g>
     </g>
    </g>
   </g>
   <g id="matplotlib.axis_4">
    <g id="ytick_7">
     <g id="line2d_14">
      <g>
       <use xlink:href="#m5f0cee1cd7" x="322.042647" y="155.376" style="stroke: #000000; stroke-width: 0.8"/>
      </g>
     </g>
     <g id="text_14">
      <!-- 0.0 -->
      <g transform="translate(300.042647 158.8135) scale(0.1 -0.1)">
       <use xlink:href="#SimHei-30"/>
       <use xlink:href="#SimHei-2e" x="50"/>
       <use xlink:href="#SimHei-30" x="100"/>
      </g>
     </g>
    </g>
    <g id="ytick_8">
     <g id="line2d_15">
      <g>
       <use xlink:href="#m5f0cee1cd7" x="322.042647" y="127.152" style="stroke: #000000; stroke-width: 0.8"/>
      </g>
     </g>
     <g id="text_15">
      <!-- 0.2 -->
      <g transform="translate(300.042647 130.5895) scale(0.1 -0.1)">
       <use xlink:href="#SimHei-30"/>
       <use xlink:href="#SimHei-2e" x="50"/>
       <use xlink:href="#SimHei-32" x="100"/>
      </g>
     </g>
    </g>
    <g id="ytick_9">
     <g id="line2d_16">
      <g>
       <use xlink:href="#m5f0cee1cd7" x="322.042647" y="98.928" style="stroke: #000000; stroke-width: 0.8"/>
      </g>
     </g>
     <g id="text_16">
      <!-- 0.4 -->
      <g transform="translate(300.042647 102.3655) scale(0.1 -0.1)">
       <use xlink:href="#SimHei-30"/>
       <use xlink:href="#SimHei-2e" x="50"/>
       <use xlink:href="#SimHei-34" x="100"/>
      </g>
     </g>
    </g>
    <g id="ytick_10">
     <g id="line2d_17">
      <g>
       <use xlink:href="#m5f0cee1cd7" x="322.042647" y="70.704" style="stroke: #000000; stroke-width: 0.8"/>
      </g>
     </g>
     <g id="text_17">
      <!-- 0.6 -->
      <g transform="translate(300.042647 74.1415) scale(0.1 -0.1)">
       <use xlink:href="#SimHei-30"/>
       <use xlink:href="#SimHei-2e" x="50"/>
       <use xlink:href="#SimHei-36" x="100"/>
      </g>
     </g>
    </g>
    <g id="ytick_11">
     <g id="line2d_18">
      <g>
       <use xlink:href="#m5f0cee1cd7" x="322.042647" y="42.48" style="stroke: #000000; stroke-width: 0.8"/>
      </g>
     </g>
     <g id="text_18">
      <!-- 0.8 -->
      <g transform="translate(300.042647 45.9175) scale(0.1 -0.1)">
       <use xlink:href="#SimHei-30"/>
       <use xlink:href="#SimHei-2e" x="50"/>
       <use xlink:href="#SimHei-38" x="100"/>
      </g>
     </g>
    </g>
    <g id="ytick_12">
     <g id="line2d_19">
      <g>
       <use xlink:href="#m5f0cee1cd7" x="322.042647" y="14.256" style="stroke: #000000; stroke-width: 0.8"/>
      </g>
     </g>
     <g id="text_19">
      <!-- 1.0 -->
      <g transform="translate(300.042647 17.6935) scale(0.1 -0.1)">
       <use xlink:href="#SimHei-31"/>
       <use xlink:href="#SimHei-2e" x="50"/>
       <use xlink:href="#SimHei-30" x="100"/>
      </g>
     </g>
    </g>
   </g>
   <g id="line2d_20">
    <path d="M 332.486497 155.376 
L 333.552196 143.723698 
L 334.617895 143.758648 
L 335.683594 147.096366 
L 336.749293 147.039579 
L 339.94639 147.151119 
L 341.012089 148.018783 
L 342.077788 148.130379 
L 343.143487 146.888748 
L 344.209186 146.852393 
L 347.406283 146.959011 
L 348.471982 146.817222 
L 349.537681 146.80833 
L 351.669079 146.574274 
L 354.866176 146.431592 
L 355.931875 143.476827 
L 356.997574 143.684903 
L 358.063273 143.241987 
L 359.128972 143.116582 
L 363.391769 142.90331 
L 364.457468 145.936997 
L 365.523167 145.868366 
L 366.588866 143.257054 
L 369.785963 143.409183 
L 370.851662 145.876275 
L 371.917361 146.04667 
L 372.98306 145.985228 
L 374.048759 145.60333 
L 377.245856 145.388579 
L 378.311555 145.433079 
L 379.377254 145.335304 
L 380.442953 145.572456 
L 381.508652 145.505466 
L 384.705749 143.6091 
L 385.771448 143.788493 
L 386.837147 143.822311 
L 387.902846 143.450499 
L 399.625535 143.600935 
L 400.691234 143.125408 
L 401.756933 144.737349 
L 407.085428 144.710923 
L 408.151127 144.560817 
L 409.216826 143.004163 
L 410.282525 144.082378 
L 411.348224 142.986711 
L 415.61102 143.063514 
L 416.676719 143.618404 
L 418.808117 143.561788 
L 422.005214 143.188881 
L 423.070913 142.553815 
L 424.136612 142.370757 
L 431.596505 142.567982 
L 432.662204 142.456633 
L 433.727903 142.583214 
L 436.925 143.182991 
L 437.990699 142.727112 
L 439.056398 142.965203 
L 440.122097 140.926592 
L 441.187796 141.84103 
L 444.384893 142.082491 
L 445.450592 139.403531 
L 446.516291 141.994301 
L 447.58199 141.961287 
L 448.647689 142.172659 
L 451.844786 142.137606 
L 452.910485 142.007157 
L 453.976184 144.13085 
L 455.041883 145.156764 
L 459.304679 145.070711 
L 460.370378 141.770349 
L 461.436077 146.437121 
L 463.567475 146.487204 
L 467.830271 146.544957 
L 468.89597 146.378302 
L 471.027368 146.427525 
L 477.421562 146.503791 
L 481.684358 146.536949 
L 482.750057 149.006941 
L 483.815756 145.863284 
L 484.881455 145.953327 
L 485.947154 149.002261 
L 492.341348 148.82559 
L 493.407047 148.908903 
L 504.064037 148.710066 
L 505.129736 148.667046 
L 508.326833 149.040286 
L 511.52393 148.843922 
L 512.589629 149.024569 
L 513.655328 148.82582 
L 514.721028 148.868091 
L 515.786727 149.067022 
L 521.115222 149.308986 
L 523.24662 149.176949 
L 526.443717 149.234228 
L 528.575115 149.691791 
L 529.640814 149.580346 
L 541.363503 149.446121 
L 541.363503 149.446121 
" clip-path="url(#p7f10acabbd)" style="fill: none; stroke: #1f77b4; stroke-width: 1.5; stroke-linecap: square"/>
   </g>
   <g id="line2d_21">
    <path d="M 332.486497 155.376 
L 333.552196 154.465619 
L 334.617895 154.418835 
L 335.683594 155.375987 
L 354.866176 155.313485 
L 355.931875 153.574429 
L 359.128972 153.622295 
L 363.391769 153.721937 
L 364.457468 155.375993 
L 365.523167 155.350149 
L 366.588866 153.599617 
L 369.785963 153.722927 
L 370.851662 155.363742 
L 372.98306 155.375998 
L 377.245856 154.923259 
L 378.311555 154.995908 
L 381.508652 154.59476 
L 384.705749 154.007943 
L 387.902846 154.119546 
L 399.625535 154.021426 
L 400.691234 153.900391 
L 401.756933 154.587059 
L 403.888331 154.603745 
L 408.151127 154.542696 
L 409.216826 153.866053 
L 410.282525 155.159601 
L 411.348224 155.375985 
L 417.742418 155.375988 
L 418.808117 153.331219 
L 430.530806 153.202262 
L 431.596505 152.73407 
L 433.727903 153.01948 
L 436.925 153.097261 
L 437.990699 152.769415 
L 439.056398 152.589918 
L 440.122097 152.895102 
L 441.187796 152.265759 
L 444.384893 152.138751 
L 445.450592 151.025464 
L 446.516291 151.744961 
L 448.647689 151.543141 
L 451.844786 151.939863 
L 452.910485 150.976163 
L 453.976184 150.499416 
L 455.041883 150.92236 
L 456.107582 150.969693 
L 459.304679 150.918956 
L 460.370378 150.534689 
L 461.436077 151.042838 
L 463.567475 151.255809 
L 468.89597 151.244376 
L 469.961669 150.849072 
L 474.224465 150.920945 
L 475.290164 150.799537 
L 476.355863 150.474574 
L 478.487261 150.601593 
L 481.684358 150.603782 
L 484.881455 149.903224 
L 485.947154 150.292522 
L 491.275649 150.530449 
L 492.341348 150.644043 
L 493.407047 150.600306 
L 497.669843 150.679741 
L 498.735542 150.548507 
L 499.801241 150.81154 
L 504.064037 150.914822 
L 507.261134 150.729945 
L 508.326833 150.930582 
L 511.52393 150.543454 
L 512.589629 150.226596 
L 515.786727 150.296848 
L 520.049523 150.020043 
L 523.24662 149.991528 
L 526.443717 149.984855 
L 527.509416 150.191577 
L 528.575115 150.129797 
L 529.640814 150.68056 
L 541.363503 150.736678 
L 541.363503 150.736678 
" clip-path="url(#p7f10acabbd)" style="fill: none; stroke: #ff7f0e; stroke-width: 1.5; stroke-linecap: square"/>
   </g>
   <g id="line2d_22">
    <path d="M 332.486497 155.376 
L 333.552196 150.252463 
L 334.617895 150.224287 
L 335.683594 152.424917 
L 339.94639 152.436072 
L 341.012089 152.217843 
L 347.406283 152.338917 
L 348.471982 152.137773 
L 354.866176 152.265799 
L 355.931875 150.082364 
L 359.128972 150.089094 
L 363.391769 150.069586 
L 364.457468 152.271954 
L 365.523167 152.235884 
L 366.588866 149.710316 
L 369.785963 150.020529 
L 370.851662 152.287754 
L 380.442953 152.361047 
L 381.508652 152.288706 
L 384.705749 150.193406 
L 387.902846 150.485988 
L 399.625535 150.223993 
L 400.691234 150.454533 
L 401.756933 152.299286 
L 408.151127 152.275674 
L 409.216826 150.619023 
L 410.282525 152.390816 
L 415.61102 152.373806 
L 416.676719 152.10591 
L 417.742418 152.082282 
L 418.808117 149.440486 
L 422.005214 149.225602 
L 423.070913 149.032829 
L 424.136612 148.708291 
L 426.26801 148.734383 
L 429.465107 148.219899 
L 430.530806 148.248405 
L 431.596505 148.536953 
L 433.727903 148.766414 
L 436.925 149.05511 
L 437.990699 149.407946 
L 439.056398 149.415504 
L 440.122097 152.071449 
L 444.384893 152.158048 
L 445.450592 151.400958 
L 446.516291 151.996355 
L 451.844786 151.926133 
L 452.910485 152.174082 
L 456.107582 151.749131 
L 459.304679 151.737384 
L 460.370378 151.069256 
L 461.436077 151.562937 
L 463.567475 151.64116 
L 467.830271 151.831799 
L 468.89597 152.011842 
L 481.684358 152.090488 
L 482.750057 151.905235 
L 483.815756 150.395598 
L 484.881455 150.303782 
L 485.947154 152.129429 
L 499.801241 152.264212 
L 504.064037 152.24315 
L 505.129736 152.278605 
L 506.195435 152.134443 
L 507.261134 152.327135 
L 508.326833 152.338522 
L 513.655328 152.578343 
L 520.049523 152.470358 
L 521.115222 152.264772 
L 522.180921 152.493672 
L 523.24662 152.461223 
L 527.509416 152.49631 
L 528.575115 152.257737 
L 529.640814 152.147635 
L 541.363503 152.123012 
L 541.363503 152.123012 
" clip-path="url(#p7f10acabbd)" style="fill: none; stroke: #2ca02c; stroke-width: 1.5; stroke-linecap: square"/>
   </g>
   <g id="line2d_23">
    <path d="M 332.486497 155.376 
L 333.552196 147.540098 
L 334.617895 147.267104 
L 335.683594 146.269045 
L 336.749293 146.248327 
L 339.94639 146.328087 
L 341.012089 146.024341 
L 342.077788 145.23733 
L 343.143487 145.471209 
L 347.406283 145.298052 
L 348.471982 145.459443 
L 349.537681 146.940122 
L 350.60338 146.892225 
L 351.669079 147.064455 
L 354.866176 146.942614 
L 355.931875 147.881497 
L 356.997574 147.824717 
L 358.063273 148.10132 
L 359.128972 148.179059 
L 363.391769 148.096353 
L 364.457468 146.85662 
L 365.523167 146.836096 
L 366.588866 148.608655 
L 369.785963 149.030182 
L 370.851662 146.934772 
L 379.377254 147.015524 
L 380.442953 146.808599 
L 381.508652 146.868337 
L 384.705749 149.153463 
L 386.837147 149.254553 
L 387.902846 149.224753 
L 399.625535 149.139794 
L 400.691234 149.555288 
L 401.756933 146.656596 
L 408.151127 146.747787 
L 409.216826 149.340311 
L 410.282525 146.896858 
L 411.348224 146.930677 
L 416.676719 146.904752 
L 417.742418 147.345829 
L 418.808117 149.446374 
L 423.070913 149.816616 
L 424.136612 149.637726 
L 426.26801 149.696846 
L 431.596505 150.308988 
L 432.662204 150.08374 
L 433.727903 150.285679 
L 436.925 150.491771 
L 437.990699 150.951008 
L 439.056398 150.427524 
L 440.122097 146.699683 
L 441.187796 146.381844 
L 444.384893 146.481609 
L 445.450592 145.11862 
L 446.516291 146.147182 
L 447.58199 146.107126 
L 448.647689 146.191458 
L 451.844786 146.249545 
L 452.910485 146.764798 
L 453.976184 145.592755 
L 455.041883 144.875075 
L 456.107582 144.919691 
L 459.304679 144.893788 
L 460.370378 145.006716 
L 461.436077 144.417563 
L 462.501776 144.771615 
L 466.764572 144.823343 
L 467.830271 145.110544 
L 468.89597 145.242216 
L 469.961669 144.788719 
L 471.027368 144.90362 
L 474.224465 144.844555 
L 477.421562 144.386574 
L 478.487261 144.577298 
L 481.684358 144.643696 
L 482.750057 144.082229 
L 483.815756 147.797093 
L 484.881455 147.875751 
L 485.947154 144.461793 
L 490.20995 145.016858 
L 491.275649 144.953184 
L 492.341348 145.136685 
L 493.407047 144.633445 
L 497.669843 144.421694 
L 499.801241 144.619874 
L 504.064037 144.487688 
L 505.129736 144.456806 
L 506.195435 144.849117 
L 507.261134 145.023801 
L 508.326833 145.384856 
L 518.983824 145.29278 
L 520.049523 145.142697 
L 521.115222 142.674579 
L 522.180921 143.409812 
L 523.24662 143.491963 
L 527.509416 143.392142 
L 528.575115 142.816837 
L 529.640814 143.584118 
L 541.363503 143.608596 
L 541.363503 143.608596 
" clip-path="url(#p7f10acabbd)" style="fill: none; stroke: #d62728; stroke-width: 1.5; stroke-linecap: square"/>
   </g>
   <g id="line2d_24">
    <path d="M 332.486497 155.376 
L 333.552196 149.43342 
L 334.617895 149.680038 
L 339.94639 150.253234 
L 341.012089 150.169002 
L 342.077788 150.83738 
L 344.209186 151.105487 
L 348.471982 151.12287 
L 349.537681 150.653885 
L 354.866176 150.648362 
L 355.931875 150.397373 
L 358.063273 150.409586 
L 359.128972 150.203032 
L 362.32607 150.159571 
L 365.523167 150.46198 
L 366.588866 149.999543 
L 369.785963 149.767186 
L 370.851662 150.256292 
L 372.98306 150.351795 
L 374.048759 150.358681 
L 377.245856 149.981294 
L 378.311555 150.082599 
L 381.508652 150.021626 
L 384.705749 149.222269 
L 385.771448 149.093415 
L 386.837147 149.099228 
L 387.902846 149.23864 
L 399.625535 149.487155 
L 400.691234 149.131811 
L 401.756933 150.015914 
L 403.888331 150.009358 
L 408.151127 150.031689 
L 409.216826 149.599005 
L 411.348224 150.173002 
L 415.61102 150.281199 
L 416.676719 150.500256 
L 417.742418 150.355858 
L 418.808117 150.399355 
L 422.005214 150.161566 
L 423.070913 150.646974 
L 426.26801 150.506796 
L 430.530806 149.967691 
L 431.596505 148.900896 
L 432.662204 148.956739 
L 433.727903 148.432534 
L 439.056398 148.880549 
L 440.122097 149.261577 
L 441.187796 149.116781 
L 444.384893 149.133347 
L 446.516291 148.781851 
L 448.647689 148.810912 
L 451.844786 148.841691 
L 452.910485 149.319711 
L 453.976184 148.178364 
L 456.107582 148.331382 
L 459.304679 148.275603 
L 460.370378 148.717789 
L 461.436077 148.263299 
L 463.567475 148.213048 
L 467.830271 148.200032 
L 468.89597 148.379676 
L 469.961669 148.092283 
L 474.224465 148.138508 
L 476.355863 147.971939 
L 478.487261 148.206203 
L 481.684358 148.144581 
L 482.750057 147.863262 
L 483.815756 148.495467 
L 484.881455 148.578959 
L 485.947154 148.015512 
L 493.407047 147.514912 
L 498.735542 147.761992 
L 499.801241 147.985035 
L 500.86694 147.93376 
L 506.195435 147.320266 
L 507.261134 147.434222 
L 511.52393 147.456306 
L 512.589629 147.289756 
L 513.655328 147.630354 
L 514.721028 147.634798 
L 515.786727 147.473956 
L 518.983824 147.455387 
L 520.049523 147.260909 
L 521.115222 148.904643 
L 522.180921 149.139686 
L 527.509416 148.851921 
L 529.640814 148.256563 
L 541.363503 148.312995 
L 541.363503 148.312995 
" clip-path="url(#p7f10acabbd)" style="fill: none; stroke: #9467bd; stroke-width: 1.5; stroke-linecap: square"/>
   </g>
   <g id="line2d_25">
    <path d="M 332.486497 155.376 
L 333.552196 149.512408 
L 334.617895 149.52626 
L 335.683594 146.846428 
L 336.749293 146.903317 
L 342.077788 146.970329 
L 343.143487 147.227225 
L 344.209186 147.307502 
L 348.471982 147.303135 
L 349.537681 147.431142 
L 350.60338 147.441274 
L 351.669079 147.616385 
L 354.866176 147.432043 
L 355.931875 150.076163 
L 356.997574 150.092122 
L 359.128972 150.429878 
L 363.391769 150.377792 
L 364.457468 147.429377 
L 365.523167 147.354556 
L 366.588866 150.415157 
L 369.785963 150.504402 
L 370.851662 147.276144 
L 374.048759 147.406233 
L 377.245856 147.308031 
L 378.311555 147.409557 
L 381.508652 147.407415 
L 384.705749 150.767888 
L 385.771448 150.620312 
L 387.902846 150.650895 
L 400.691234 150.594405 
L 401.756933 147.496056 
L 403.888331 147.501312 
L 407.085428 147.613567 
L 408.151127 147.511281 
L 409.216826 150.321257 
L 410.282525 147.809515 
L 411.348224 147.89064 
L 414.545321 147.903755 
L 415.61102 148.106264 
L 416.676719 148.050236 
L 417.742418 148.31486 
L 418.808117 149.843524 
L 422.005214 149.869746 
L 423.070913 150.328266 
L 424.136612 150.549414 
L 432.662204 150.772381 
L 433.727903 150.442701 
L 436.925 150.667846 
L 437.990699 150.164583 
L 439.056398 150.594107 
L 440.122097 149.350655 
L 441.187796 149.228805 
L 444.384893 149.318503 
L 445.450592 149.829645 
L 446.516291 149.361742 
L 451.844786 149.352849 
L 452.910485 149.821628 
L 453.976184 149.775139 
L 455.041883 149.387296 
L 456.107582 149.426264 
L 459.304679 149.395533 
L 460.370378 150.435135 
L 461.436077 149.385604 
L 463.567475 149.486723 
L 466.764572 149.412842 
L 467.830271 149.527636 
L 468.89597 149.863696 
L 469.961669 149.891895 
L 471.027368 149.791051 
L 475.290164 149.776574 
L 476.355863 149.59655 
L 478.487261 150.016373 
L 481.684358 150.017281 
L 482.750057 149.764594 
L 483.815756 152.230291 
L 484.881455 152.310291 
L 485.947154 149.952627 
L 493.407047 149.805976 
L 498.735542 149.988307 
L 500.86694 150.010778 
L 505.129736 149.934635 
L 506.195435 150.307502 
L 507.261134 150.220987 
L 508.326833 150.590167 
L 512.589629 150.635696 
L 513.655328 150.94266 
L 514.721028 150.939802 
L 515.786727 150.809566 
L 521.115222 151.103562 
L 522.180921 151.530079 
L 523.24662 151.566458 
L 526.443717 151.553789 
L 527.509416 151.694164 
L 528.575115 151.648037 
L 529.640814 152.082912 
L 541.363503 152.068499 
L 541.363503 152.068499 
" clip-path="url(#p7f10acabbd)" style="fill: none; stroke: #8c564b; stroke-width: 1.5; stroke-linecap: square"/>
   </g>
   <g id="line2d_26">
    <path d="M 332.486497 155.376 
L 333.552196 138.025082 
L 334.617895 137.336192 
L 335.683594 130.866511 
L 336.749293 130.91547 
L 339.94639 130.673784 
L 341.012089 130.939318 
L 342.077788 130.950851 
L 343.143487 130.645547 
L 344.209186 130.60448 
L 347.406283 130.095108 
L 348.471982 130.268745 
L 349.537681 129.997668 
L 351.669079 130.144281 
L 354.866176 130.237708 
L 355.931875 137.585315 
L 356.997574 137.617013 
L 358.063273 137.840793 
L 359.128972 137.841833 
L 362.32607 137.962812 
L 363.391769 137.879386 
L 364.457468 130.832122 
L 365.523167 130.995149 
L 366.588866 137.604191 
L 369.785963 137.710384 
L 370.851662 131.191084 
L 371.917361 130.668626 
L 372.98306 130.661842 
L 374.048759 131.55345 
L 377.245856 131.723417 
L 378.311555 131.059594 
L 379.377254 131.338001 
L 380.442953 131.32257 
L 381.508652 131.479303 
L 384.705749 136.766237 
L 385.771448 137.2171 
L 386.837147 137.257678 
L 387.902846 136.944076 
L 399.625535 136.404204 
L 400.691234 136.725159 
L 401.756933 131.49727 
L 407.085428 131.562989 
L 408.151127 131.72152 
L 409.216826 136.881477 
L 410.282525 131.606277 
L 411.348224 130.875766 
L 414.545321 130.244169 
L 415.61102 130.285098 
L 416.676719 130.808111 
L 417.742418 130.353456 
L 418.808117 135.166095 
L 422.005214 135.133456 
L 423.070913 135.251905 
L 424.136612 135.63189 
L 426.26801 135.719505 
L 430.530806 135.764412 
L 431.596505 136.074198 
L 432.662204 136.097971 
L 433.727903 135.742014 
L 436.925 136.574192 
L 437.990699 135.734898 
L 439.056398 135.944459 
L 440.122097 129.140232 
L 441.187796 129.466265 
L 444.384893 129.747195 
L 445.450592 133.508491 
L 446.516291 129.895318 
L 447.58199 130.007129 
L 448.647689 129.832309 
L 452.910485 129.412654 
L 453.976184 136.406555 
L 455.041883 138.060527 
L 456.107582 137.812795 
L 459.304679 137.61055 
L 460.370378 133.451683 
L 461.436077 137.386302 
L 462.501776 137.751904 
L 463.567475 137.627157 
L 466.764572 137.62345 
L 467.830271 137.734104 
L 468.89597 137.615946 
L 471.027368 137.780272 
L 474.224465 137.721876 
L 475.290164 138.131427 
L 476.355863 138.363513 
L 478.487261 138.537165 
L 481.684358 138.64919 
L 482.750057 138.926146 
L 483.815756 135.525221 
L 484.881455 135.353671 
L 485.947154 138.281388 
L 490.20995 138.387641 
L 491.275649 138.772909 
L 493.407047 139.048882 
L 498.735542 138.992931 
L 499.801241 138.133941 
L 500.86694 138.269055 
L 504.064037 138.433988 
L 506.195435 137.996827 
L 507.261134 137.588367 
L 508.326833 137.0383 
L 512.589629 137.297875 
L 513.655328 135.660238 
L 514.721028 135.789516 
L 515.786727 135.265438 
L 521.115222 135.955651 
L 523.24662 135.572965 
L 526.443717 135.827333 
L 527.509416 136.712178 
L 528.575115 136.973834 
L 529.640814 138.320756 
L 541.363503 138.384362 
L 541.363503 138.384362 
" clip-path="url(#p7f10acabbd)" style="fill: none; stroke: #e377c2; stroke-width: 1.5; stroke-linecap: square"/>
   </g>
   <g id="line2d_27">
    <path d="M 332.486497 155.376 
L 333.552196 92.572105 
L 334.617895 93.586736 
L 335.683594 91.78712 
L 336.749293 91.628619 
L 339.94639 91.406861 
L 341.012089 91.026616 
L 342.077788 91.030294 
L 343.143487 91.330996 
L 348.471982 90.898262 
L 349.537681 90.118374 
L 350.60338 90.029576 
L 351.669079 89.656841 
L 354.866176 90.028787 
L 355.931875 92.759067 
L 359.128972 92.096208 
L 362.32607 92.113854 
L 363.391769 92.29766 
L 364.457468 89.910652 
L 365.523167 89.996782 
L 366.588866 92.479511 
L 369.785963 91.598177 
L 370.851662 90.07831 
L 371.917361 90.406241 
L 372.98306 90.418088 
L 374.048759 89.181275 
L 377.245856 89.85389 
L 379.377254 89.949388 
L 380.442953 90.393554 
L 381.508652 90.211685 
L 384.705749 91.253686 
L 385.771448 90.653176 
L 386.837147 90.624581 
L 387.902846 90.821917 
L 399.625535 91.38357 
L 400.691234 91.704399 
L 401.756933 91.152123 
L 403.888331 91.185084 
L 408.151127 90.722524 
L 409.216826 92.026208 
L 410.282525 91.005328 
L 411.348224 91.479261 
L 414.545321 91.645602 
L 415.61102 91.084377 
L 416.676719 90.034674 
L 417.742418 90.108838 
L 418.808117 93.764139 
L 422.005214 94.399743 
L 423.070913 94.204232 
L 424.136612 94.299196 
L 426.26801 94.221397 
L 430.530806 94.542304 
L 431.596505 95.075912 
L 432.662204 94.988775 
L 433.727903 95.409435 
L 436.925 91.105772 
L 437.990699 91.84789 
L 439.056398 91.35339 
L 440.122097 91.878462 
L 441.187796 92.126539 
L 444.384893 90.968336 
L 445.450592 92.338793 
L 446.516291 91.642176 
L 448.647689 91.550186 
L 451.844786 91.447989 
L 452.910485 90.491467 
L 453.976184 93.498421 
L 455.041883 90.031776 
L 456.107582 90.083952 
L 459.304679 90.401916 
L 460.370378 89.205345 
L 461.436077 89.967179 
L 462.501776 89.526807 
L 463.567475 89.643129 
L 466.764572 89.674158 
L 467.830271 89.043065 
L 468.89597 89.062415 
L 469.961669 89.430161 
L 471.027368 89.271141 
L 475.290164 89.243867 
L 476.355863 90.535779 
L 478.487261 89.668147 
L 481.684358 89.600843 
L 482.750057 87.536457 
L 483.815756 89.938823 
L 484.881455 90.008454 
L 485.947154 87.536698 
L 490.20995 87.535697 
L 491.275649 86.818332 
L 492.341348 86.73361 
L 493.407047 87.068073 
L 496.604144 86.934379 
L 498.735542 86.439836 
L 499.801241 86.865294 
L 500.86694 86.909364 
L 504.064037 87.21063 
L 505.129736 87.540439 
L 506.195435 87.30538 
L 507.261134 87.263176 
L 508.326833 86.716981 
L 511.52393 86.897204 
L 512.589629 87.136908 
L 513.655328 87.900644 
L 514.721028 87.759456 
L 515.786727 88.141664 
L 518.983824 86.817878 
L 520.049523 86.769951 
L 521.115222 87.061345 
L 522.180921 85.818963 
L 523.24662 85.978541 
L 526.443717 85.591207 
L 527.509416 83.31704 
L 528.575115 83.596108 
L 529.640814 80.969375 
L 541.363503 80.750219 
L 541.363503 80.750219 
" clip-path="url(#p7f10acabbd)" style="fill: none; stroke: #7f7f7f; stroke-width: 1.5; stroke-linecap: square"/>
   </g>
   <g id="line2d_28">
    <path d="M 332.486497 155.376 
L 333.552196 139.843444 
L 334.617895 139.846142 
L 335.683594 145.211106 
L 336.749293 145.285237 
L 339.94639 145.275333 
L 341.012089 144.835909 
L 342.077788 144.814823 
L 343.143487 145.286621 
L 344.209186 145.33462 
L 348.471982 146.372575 
L 349.537681 146.188647 
L 351.669079 146.518911 
L 354.866176 146.471414 
L 355.931875 140.369781 
L 356.997574 140.374652 
L 358.063273 140.226249 
L 359.128972 140.434638 
L 363.391769 140.431854 
L 364.457468 146.496962 
L 365.523167 146.486782 
L 366.588866 140.320453 
L 369.785963 140.154046 
L 370.851662 146.196616 
L 371.917361 146.320697 
L 372.98306 146.327501 
L 374.048759 146.693674 
L 377.245856 146.330816 
L 378.311555 146.47247 
L 379.377254 146.486486 
L 380.442953 146.228932 
L 381.508652 146.327433 
L 384.705749 140.282956 
L 385.771448 140.305964 
L 386.837147 140.187256 
L 387.902846 140.250893 
L 399.625535 140.22921 
L 400.691234 140.018869 
L 401.756933 146.316352 
L 403.888331 146.381209 
L 407.085428 146.322223 
L 408.151127 146.437331 
L 409.216826 139.872489 
L 410.282525 145.78469 
L 411.348224 145.732353 
L 414.545321 145.755146 
L 416.676719 146.190248 
L 417.742418 146.270173 
L 418.808117 140.310423 
L 433.727903 140.586843 
L 439.056398 141.734742 
L 440.122097 149.294295 
L 441.187796 148.748679 
L 444.384893 149.037848 
L 445.450592 147.930516 
L 446.516291 149.288548 
L 448.647689 149.37799 
L 451.844786 149.317509 
L 452.910485 149.800172 
L 453.976184 142.754408 
L 455.041883 143.047891 
L 459.304679 143.113031 
L 460.370378 148.14016 
L 461.436077 143.041592 
L 462.501776 142.734911 
L 466.764572 142.681571 
L 468.89597 142.965411 
L 469.961669 143.474173 
L 471.027368 143.55446 
L 475.290164 143.619684 
L 476.355863 143.137247 
L 478.487261 142.896699 
L 481.684358 142.793453 
L 482.750057 146.858964 
L 483.815756 142.837793 
L 484.881455 142.829041 
L 485.947154 146.754893 
L 490.20995 146.771622 
L 491.275649 146.974158 
L 500.86694 147.122827 
L 508.326833 147.071373 
L 512.589629 147.068768 
L 513.655328 147.43357 
L 515.786727 147.645543 
L 518.983824 148.284663 
L 521.115222 148.346477 
L 522.180921 148.143025 
L 523.24662 148.27927 
L 526.443717 148.35601 
L 527.509416 148.615655 
L 528.575115 148.491037 
L 529.640814 148.720752 
L 541.363503 148.841179 
L 541.363503 148.841179 
" clip-path="url(#p7f10acabbd)" style="fill: none; stroke: #bcbd22; stroke-width: 1.5; stroke-linecap: square"/>
   </g>
   <g id="line2d_29">
    <path d="M 332.486497 155.376 
L 333.552196 147.271665 
L 334.617895 146.995758 
L 339.94639 146.795962 
L 341.012089 147.012268 
L 344.209186 147.050251 
L 350.60338 146.997008 
L 351.669079 146.812586 
L 354.866176 146.868196 
L 355.931875 146.437186 
L 362.32607 146.648293 
L 363.391769 146.580724 
L 364.457468 147.075995 
L 365.523167 147.054256 
L 366.588866 146.645503 
L 369.785963 146.722983 
L 370.851662 147.179011 
L 371.917361 146.893987 
L 372.98306 146.935539 
L 374.048759 147.227206 
L 377.245856 147.869422 
L 378.311555 147.924555 
L 379.377254 147.852957 
L 380.442953 147.953553 
L 381.508652 147.935268 
L 384.705749 147.383052 
L 387.902846 147.452792 
L 399.625535 147.588472 
L 400.691234 147.429736 
L 401.756933 147.881995 
L 403.888331 147.873989 
L 408.151127 148.08868 
L 409.216826 147.110013 
L 411.348224 148.792556 
L 415.61102 149.162234 
L 417.742418 148.841773 
L 418.808117 147.376597 
L 426.26801 147.055414 
L 431.596505 147.209372 
L 433.727903 147.371687 
L 437.990699 148.785326 
L 439.056398 148.734605 
L 440.122097 151.121953 
L 441.187796 151.380579 
L 444.384893 151.573873 
L 445.450592 153.180078 
L 446.516291 151.787566 
L 452.910485 151.872168 
L 453.976184 149.792698 
L 455.041883 151.104851 
L 456.107582 151.173192 
L 459.304679 151.222528 
L 460.370378 154.308877 
L 461.436077 151.135564 
L 462.501776 150.827981 
L 463.567475 150.760856 
L 466.764572 150.773035 
L 467.830271 150.5101 
L 468.89597 149.876119 
L 469.961669 150.01668 
L 471.027368 149.836741 
L 475.290164 149.887432 
L 476.355863 149.487859 
L 477.421562 149.70229 
L 478.487261 149.562133 
L 481.684358 149.559737 
L 482.750057 146.342172 
L 483.815756 149.539099 
L 484.881455 149.523499 
L 485.947154 146.212876 
L 490.20995 145.855082 
L 491.275649 145.938908 
L 492.341348 145.811686 
L 497.669843 145.95745 
L 498.735542 146.069197 
L 499.801241 146.065133 
L 500.86694 145.921719 
L 507.261134 146.042709 
L 508.326833 146.097734 
L 514.721028 146.163068 
L 518.983824 146.368494 
L 520.049523 146.495751 
L 521.115222 146.985563 
L 522.180921 147.149301 
L 523.24662 147.044891 
L 526.443717 147.295849 
L 528.575115 148.524102 
L 529.640814 148.296982 
L 541.363503 148.368338 
L 541.363503 148.368338 
" clip-path="url(#p7f10acabbd)" style="fill: none; stroke: #17becf; stroke-width: 1.5; stroke-linecap: square"/>
   </g>
   <g id="line2d_30">
    <path d="M 332.486497 14.256 
L 333.552196 155.376 
L 541.363503 155.376 
L 541.363503 155.376 
" clip-path="url(#p7f10acabbd)" style="fill: none; stroke: #1f77b4; stroke-width: 1.5; stroke-linecap: square"/>
   </g>
   <g id="patch_8">
    <path d="M 322.042647 162.432 
L 322.042647 7.2 
" style="fill: none; stroke: #000000; stroke-width: 0.8; stroke-linejoin: miter; stroke-linecap: square"/>
   </g>
   <g id="patch_9">
    <path d="M 551.807353 162.432 
L 551.807353 7.2 
" style="fill: none; stroke: #000000; stroke-width: 0.8; stroke-linejoin: miter; stroke-linecap: square"/>
   </g>
   <g id="patch_10">
    <path d="M 322.042647 162.432 
L 551.807353 162.432 
" style="fill: none; stroke: #000000; stroke-width: 0.8; stroke-linejoin: miter; stroke-linecap: square"/>
   </g>
   <g id="patch_11">
    <path d="M 322.042647 7.2 
L 551.807353 7.2 
" style="fill: none; stroke: #000000; stroke-width: 0.8; stroke-linejoin: miter; stroke-linecap: square"/>
   </g>
   <g id="legend_1">
    <g id="patch_12">
     <path d="M 457.807353 148.60625 
L 544.807353 148.60625 
Q 546.807353 148.60625 546.807353 146.60625 
L 546.807353 14.2 
Q 546.807353 12.2 544.807353 12.2 
L 457.807353 12.2 
Q 455.807353 12.2 455.807353 14.2 
L 455.807353 146.60625 
Q 455.807353 148.60625 457.807353 148.60625 
z
" style="fill: #ffffff; opacity: 0.8; stroke: #cccccc; stroke-linejoin: miter"/>
    </g>
    <g id="line2d_31">
     <path d="M 459.807353 19.73125 
L 469.807353 19.73125 
L 479.807353 19.73125 
" style="fill: none; stroke: #1f77b4; stroke-width: 1.5; stroke-linecap: square"/>
    </g>
    <g id="text_20">
     <!-- w_002027.SZ -->
     <g transform="translate(487.807353 23.23125) scale(0.1 -0.1)">
      <defs>
       <path id="SimHei-77" d="M 3075 2925 
L 2450 75 
L 1975 75 
L 1575 2250 
L 1525 2250 
L 1125 75 
L 650 75 
L 25 2925 
L 550 2925 
L 875 1050 
L 925 1050 
L 1275 2925 
L 1825 2925 
L 2175 1050 
L 2225 1050 
L 2550 2925 
L 3075 2925 
z
" transform="scale(0.015625)"/>
       <path id="SimHei-5f" d="M 3150 -850 
L 0 -850 
L 0 -550 
L 3150 -550 
L 3150 -850 
z
" transform="scale(0.015625)"/>
       <path id="SimHei-37" d="M 850 150 
Q 1300 2050 2425 3925 
L 275 3925 
L 275 4375 
L 2950 4375 
L 2950 3950 
Q 1775 2050 1400 150 
L 850 150 
z
" transform="scale(0.015625)"/>
       <path id="SimHei-53" d="M 2900 1325 
Q 2900 750 2537 412 
Q 2175 75 1550 75 
Q 925 75 575 425 
Q 225 775 225 1300 
L 225 1475 
L 800 1475 
L 800 1325 
Q 800 950 1025 750 
Q 1250 550 1550 550 
Q 1950 550 2137 762 
Q 2325 975 2325 1275 
Q 2325 1525 2100 1737 
Q 1875 1950 1450 2125 
Q 850 2350 587 2625 
Q 325 2900 325 3275 
Q 325 3800 687 4125 
Q 1050 4450 1550 4450 
Q 2200 4450 2487 4062 
Q 2775 3675 2775 3225 
L 2200 3225 
Q 2225 3500 2050 3725 
Q 1875 3950 1550 3950 
Q 1250 3950 1075 3787 
Q 900 3625 900 3350 
Q 900 3125 1037 2962 
Q 1175 2800 1750 2575 
Q 2300 2350 2600 2037 
Q 2900 1725 2900 1325 
z
" transform="scale(0.015625)"/>
       <path id="SimHei-5a" d="M 2900 125 
L 225 125 
L 225 600 
L 2250 3925 
L 375 3925 
L 375 4400 
L 2825 4400 
L 2825 3925 
L 800 600 
L 2900 600 
L 2900 125 
z
" transform="scale(0.015625)"/>
      </defs>
      <use xlink:href="#SimHei-77"/>
      <use xlink:href="#SimHei-5f" x="50"/>
      <use xlink:href="#SimHei-30" x="100"/>
      <use xlink:href="#SimHei-30" x="150"/>
      <use xlink:href="#SimHei-32" x="200"/>
      <use xlink:href="#SimHei-30" x="250"/>
      <use xlink:href="#SimHei-32" x="300"/>
      <use xlink:href="#SimHei-37" x="350"/>
      <use xlink:href="#SimHei-2e" x="400"/>
      <use xlink:href="#SimHei-53" x="450"/>
      <use xlink:href="#SimHei-5a" x="500"/>
     </g>
    </g>
    <g id="line2d_32">
     <path d="M 459.807353 33.090625 
L 469.807353 33.090625 
L 479.807353 33.090625 
" style="fill: none; stroke: #ff7f0e; stroke-width: 1.5; stroke-linecap: square"/>
    </g>
    <g id="text_21">
     <!-- w_002371.SZ -->
     <g transform="translate(487.807353 36.590625) scale(0.1 -0.1)">
      <use xlink:href="#SimHei-77"/>
      <use xlink:href="#SimHei-5f" x="50"/>
      <use xlink:href="#SimHei-30" x="100"/>
      <use xlink:href="#SimHei-30" x="150"/>
      <use xlink:href="#SimHei-32" x="200"/>
      <use xlink:href="#SimHei-33" x="250"/>
      <use xlink:href="#SimHei-37" x="300"/>
      <use xlink:href="#SimHei-31" x="350"/>
      <use xlink:href="#SimHei-2e" x="400"/>
      <use xlink:href="#SimHei-53" x="450"/>
      <use xlink:href="#SimHei-5a" x="500"/>
     </g>
    </g>
    <g id="line2d_33">
     <path d="M 459.807353 46.41875 
L 469.807353 46.41875 
L 479.807353 46.41875 
" style="fill: none; stroke: #2ca02c; stroke-width: 1.5; stroke-linecap: square"/>
    </g>
    <g id="text_22">
     <!-- w_600009.SH -->
     <g transform="translate(487.807353 49.91875) scale(0.1 -0.1)">
      <defs>
       <path id="SimHei-48" d="M 2850 125 
L 2275 125 
L 2275 2125 
L 850 2125 
L 850 125 
L 275 125 
L 275 4400 
L 850 4400 
L 850 2600 
L 2275 2600 
L 2275 4400 
L 2850 4400 
L 2850 125 
z
" transform="scale(0.015625)"/>
      </defs>
      <use xlink:href="#SimHei-77"/>
      <use xlink:href="#SimHei-5f" x="50"/>
      <use xlink:href="#SimHei-36" x="100"/>
      <use xlink:href="#SimHei-30" x="150"/>
      <use xlink:href="#SimHei-30" x="200"/>
      <use xlink:href="#SimHei-30" x="250"/>
      <use xlink:href="#SimHei-30" x="300"/>
      <use xlink:href="#SimHei-39" x="350"/>
      <use xlink:href="#SimHei-2e" x="400"/>
      <use xlink:href="#SimHei-53" x="450"/>
      <use xlink:href="#SimHei-48" x="500"/>
     </g>
    </g>
    <g id="line2d_34">
     <path d="M 459.807353 59.778125 
L 469.807353 59.778125 
L 479.807353 59.778125 
" style="fill: none; stroke: #d62728; stroke-width: 1.5; stroke-linecap: square"/>
    </g>
    <g id="text_23">
     <!-- w_600029.SH -->
     <g transform="translate(487.807353 63.278125) scale(0.1 -0.1)">
      <use xlink:href="#SimHei-77"/>
      <use xlink:href="#SimHei-5f" x="50"/>
      <use xlink:href="#SimHei-36" x="100"/>
      <use xlink:href="#SimHei-30" x="150"/>
      <use xlink:href="#SimHei-30" x="200"/>
      <use xlink:href="#SimHei-30" x="250"/>
      <use xlink:href="#SimHei-32" x="300"/>
      <use xlink:href="#SimHei-39" x="350"/>
      <use xlink:href="#SimHei-2e" x="400"/>
      <use xlink:href="#SimHei-53" x="450"/>
      <use xlink:href="#SimHei-48" x="500"/>
     </g>
    </g>
    <g id="line2d_35">
     <path d="M 459.807353 73.1375 
L 469.807353 73.1375 
L 479.807353 73.1375 
" style="fill: none; stroke: #9467bd; stroke-width: 1.5; stroke-linecap: square"/>
    </g>
    <g id="text_24">
     <!-- w_600183.SH -->
     <g transform="translate(487.807353 76.6375) scale(0.1 -0.1)">
      <use xlink:href="#SimHei-77"/>
      <use xlink:href="#SimHei-5f" x="50"/>
      <use xlink:href="#SimHei-36" x="100"/>
      <use xlink:href="#SimHei-30" x="150"/>
      <use xlink:href="#SimHei-30" x="200"/>
      <use xlink:href="#SimHei-31" x="250"/>
      <use xlink:href="#SimHei-38" x="300"/>
      <use xlink:href="#SimHei-33" x="350"/>
      <use xlink:href="#SimHei-2e" x="400"/>
      <use xlink:href="#SimHei-53" x="450"/>
      <use xlink:href="#SimHei-48" x="500"/>
     </g>
    </g>
    <g id="line2d_36">
     <path d="M 459.807353 86.465625 
L 469.807353 86.465625 
L 479.807353 86.465625 
" style="fill: none; stroke: #8c564b; stroke-width: 1.5; stroke-linecap: square"/>
    </g>
    <g id="text_25">
     <!-- w_600406.SH -->
     <g transform="translate(487.807353 89.965625) scale(0.1 -0.1)">
      <use xlink:href="#SimHei-77"/>
      <use xlink:href="#SimHei-5f" x="50"/>
      <use xlink:href="#SimHei-36" x="100"/>
      <use xlink:href="#SimHei-30" x="150"/>
      <use xlink:href="#SimHei-30" x="200"/>
      <use xlink:href="#SimHei-34" x="250"/>
      <use xlink:href="#SimHei-30" x="300"/>
      <use xlink:href="#SimHei-36" x="350"/>
      <use xlink:href="#SimHei-2e" x="400"/>
      <use xlink:href="#SimHei-53" x="450"/>
      <use xlink:href="#SimHei-48" x="500"/>
     </g>
    </g>
    <g id="line2d_37">
     <path d="M 459.807353 99.79375 
L 469.807353 99.79375 
L 479.807353 99.79375 
" style="fill: none; stroke: #e377c2; stroke-width: 1.5; stroke-linecap: square"/>
    </g>
    <g id="text_26">
     <!-- w_600900.SH -->
     <g transform="translate(487.807353 103.29375) scale(0.1 -0.1)">
      <use xlink:href="#SimHei-77"/>
      <use xlink:href="#SimHei-5f" x="50"/>
      <use xlink:href="#SimHei-36" x="100"/>
      <use xlink:href="#SimHei-30" x="150"/>
      <use xlink:href="#SimHei-30" x="200"/>
      <use xlink:href="#SimHei-39" x="250"/>
      <use xlink:href="#SimHei-30" x="300"/>
      <use xlink:href="#SimHei-30" x="350"/>
      <use xlink:href="#SimHei-2e" x="400"/>
      <use xlink:href="#SimHei-53" x="450"/>
      <use xlink:href="#SimHei-48" x="500"/>
     </g>
    </g>
    <g id="line2d_38">
     <path d="M 459.807353 113.121875 
L 469.807353 113.121875 
L 479.807353 113.121875 
" style="fill: none; stroke: #7f7f7f; stroke-width: 1.5; stroke-linecap: square"/>
    </g>
    <g id="text_27">
     <!-- w_601989.SH -->
     <g transform="translate(487.807353 116.621875) scale(0.1 -0.1)">
      <use xlink:href="#SimHei-77"/>
      <use xlink:href="#SimHei-5f" x="50"/>
      <use xlink:href="#SimHei-36" x="100"/>
      <use xlink:href="#SimHei-30" x="150"/>
      <use xlink:href="#SimHei-31" x="200"/>
      <use xlink:href="#SimHei-39" x="250"/>
      <use xlink:href="#SimHei-38" x="300"/>
      <use xlink:href="#SimHei-39" x="350"/>
      <use xlink:href="#SimHei-2e" x="400"/>
      <use xlink:href="#SimHei-53" x="450"/>
      <use xlink:href="#SimHei-48" x="500"/>
     </g>
    </g>
    <g id="line2d_39">
     <path d="M 459.807353 126.45 
L 469.807353 126.45 
L 479.807353 126.45 
" style="fill: none; stroke: #bcbd22; stroke-width: 1.5; stroke-linecap: square"/>
    </g>
    <g id="text_28">
     <!-- w_601998.SH -->
     <g transform="translate(487.807353 129.95) scale(0.1 -0.1)">
      <use xlink:href="#SimHei-77"/>
      <use xlink:href="#SimHei-5f" x="50"/>
      <use xlink:href="#SimHei-36" x="100"/>
      <use xlink:href="#SimHei-30" x="150"/>
      <use xlink:href="#SimHei-31" x="200"/>
      <use xlink:href="#SimHei-39" x="250"/>
      <use xlink:href="#SimHei-39" x="300"/>
      <use xlink:href="#SimHei-38" x="350"/>
      <use xlink:href="#SimHei-2e" x="400"/>
      <use xlink:href="#SimHei-53" x="450"/>
      <use xlink:href="#SimHei-48" x="500"/>
     </g>
    </g>
    <g id="line2d_40">
     <path d="M 459.807353 139.778125 
L 469.807353 139.778125 
L 479.807353 139.778125 
" style="fill: none; stroke: #17becf; stroke-width: 1.5; stroke-linecap: square"/>
    </g>
    <g id="text_29">
     <!-- w_CASH -->
     <g transform="translate(487.807353 143.278125) scale(0.1 -0.1)">
      <defs>
       <path id="SimHei-41" d="M 3075 125 
L 2475 125 
L 2125 1450 
L 1025 1450 
L 675 125 
L 75 125 
L 1325 4450 
L 1825 4450 
L 3075 125 
z
M 2000 1925 
L 1600 3450 
L 1550 3450 
L 1150 1925 
L 2000 1925 
z
" transform="scale(0.015625)"/>
      </defs>
      <use xlink:href="#SimHei-77"/>
      <use xlink:href="#SimHei-5f" x="50"/>
      <use xlink:href="#SimHei-43" x="100"/>
      <use xlink:href="#SimHei-41" x="150"/>
      <use xlink:href="#SimHei-53" x="200"/>
      <use xlink:href="#SimHei-48" x="250"/>
     </g>
    </g>
   </g>
  </g>
  <g id="axes_3">
   <g id="patch_13">
    <path d="M 597.760294 162.432 
L 827.525 162.432 
L 827.525 7.2 
L 597.760294 7.2 
z
" style="fill: #ffffff"/>
   </g>
   <g id="matplotlib.axis_5">
    <g id="xtick_7">
     <g id="line2d_41">
      <g>
       <use xlink:href="#m3b7ffab8f3" x="654.029202" y="162.432" style="stroke: #000000; stroke-width: 0.8"/>
      </g>
     </g>
     <g id="text_30">
      <!-- 2023-09-20 -->
      <g transform="translate(629.029202 176.307) scale(0.1 -0.1)">
       <use xlink:href="#SimHei-32"/>
       <use xlink:href="#SimHei-30" x="50"/>
       <use xlink:href="#SimHei-32" x="100"/>
       <use xlink:href="#SimHei-33" x="150"/>
       <use xlink:href="#SimHei-2d" x="200"/>
       <use xlink:href="#SimHei-30" x="250"/>
       <use xlink:href="#SimHei-39" x="300"/>
       <use xlink:href="#SimHei-2d" x="350"/>
       <use xlink:href="#SimHei-32" x="400"/>
       <use xlink:href="#SimHei-30" x="450"/>
      </g>
     </g>
    </g>
    <g id="xtick_8">
     <g id="line2d_42">
      <g>
       <use xlink:href="#m3b7ffab8f3" x="717.971142" y="162.432" style="stroke: #000000; stroke-width: 0.8"/>
      </g>
     </g>
     <g id="text_31">
      <!-- 2023-11-19 -->
      <g transform="translate(692.971142 176.307) scale(0.1 -0.1)">
       <use xlink:href="#SimHei-32"/>
       <use xlink:href="#SimHei-30" x="50"/>
       <use xlink:href="#SimHei-32" x="100"/>
       <use xlink:href="#SimHei-33" x="150"/>
       <use xlink:href="#SimHei-2d" x="200"/>
       <use xlink:href="#SimHei-31" x="250"/>
       <use xlink:href="#SimHei-31" x="300"/>
       <use xlink:href="#SimHei-2d" x="350"/>
       <use xlink:href="#SimHei-31" x="400"/>
       <use xlink:href="#SimHei-39" x="450"/>
      </g>
     </g>
    </g>
    <g id="xtick_9">
     <g id="line2d_43">
      <g>
       <use xlink:href="#m3b7ffab8f3" x="781.913083" y="162.432" style="stroke: #000000; stroke-width: 0.8"/>
      </g>
     </g>
     <g id="text_32">
      <!-- 2024-01-18 -->
      <g transform="translate(756.913083 176.307) scale(0.1 -0.1)">
       <use xlink:href="#SimHei-32"/>
       <use xlink:href="#SimHei-30" x="50"/>
       <use xlink:href="#SimHei-32" x="100"/>
       <use xlink:href="#SimHei-34" x="150"/>
       <use xlink:href="#SimHei-2d" x="200"/>
       <use xlink:href="#SimHei-30" x="250"/>
       <use xlink:href="#SimHei-31" x="300"/>
       <use xlink:href="#SimHei-2d" x="350"/>
       <use xlink:href="#SimHei-31" x="400"/>
       <use xlink:href="#SimHei-38" x="450"/>
      </g>
     </g>
    </g>
   </g>
   <g id="matplotlib.axis_6">
    <g id="ytick_13">
     <g id="line2d_44">
      <g>
       <use xlink:href="#m5f0cee1cd7" x="597.760294" y="155.376" style="stroke: #000000; stroke-width: 0.8"/>
      </g>
     </g>
     <g id="text_33">
      <!-- 0.0000 -->
      <g transform="translate(560.760294 158.8135) scale(0.1 -0.1)">
       <use xlink:href="#SimHei-30"/>
       <use xlink:href="#SimHei-2e" x="50"/>
       <use xlink:href="#SimHei-30" x="100"/>
       <use xlink:href="#SimHei-30" x="150"/>
       <use xlink:href="#SimHei-30" x="200"/>
       <use xlink:href="#SimHei-30" x="250"/>
      </g>
     </g>
    </g>
    <g id="ytick_14">
     <g id="line2d_45">
      <g>
       <use xlink:href="#m5f0cee1cd7" x="597.760294" y="127.152" style="stroke: #000000; stroke-width: 0.8"/>
      </g>
     </g>
     <g id="text_34">
      <!-- 0.0005 -->
      <g transform="translate(560.760294 130.5895) scale(0.1 -0.1)">
       <defs>
        <path id="SimHei-35" d="M 550 1325 
Q 725 650 1150 575 
Q 1575 500 1837 662 
Q 2100 825 2212 1087 
Q 2325 1350 2312 1675 
Q 2300 2000 2137 2225 
Q 1975 2450 1725 2525 
Q 1475 2600 1162 2525 
Q 850 2450 650 2175 
L 225 2225 
Q 275 2375 700 4375 
L 2675 4375 
L 2675 3925 
L 1075 3925 
Q 950 3250 825 2850 
Q 1200 3025 1525 3012 
Q 1850 3000 2150 2862 
Q 2450 2725 2587 2487 
Q 2725 2250 2787 2012 
Q 2850 1775 2837 1500 
Q 2825 1225 2725 937 
Q 2625 650 2425 462 
Q 2225 275 1937 162 
Q 1650 50 1275 75 
Q 900 100 562 350 
Q 225 600 100 1200 
L 550 1325 
z
" transform="scale(0.015625)"/>
       </defs>
       <use xlink:href="#SimHei-30"/>
       <use xlink:href="#SimHei-2e" x="50"/>
       <use xlink:href="#SimHei-30" x="100"/>
       <use xlink:href="#SimHei-30" x="150"/>
       <use xlink:href="#SimHei-30" x="200"/>
       <use xlink:href="#SimHei-35" x="250"/>
      </g>
     </g>
    </g>
    <g id="ytick_15">
     <g id="line2d_46">
      <g>
       <use xlink:href="#m5f0cee1cd7" x="597.760294" y="98.928" style="stroke: #000000; stroke-width: 0.8"/>
      </g>
     </g>
     <g id="text_35">
      <!-- 0.0010 -->
      <g transform="translate(560.760294 102.3655) scale(0.1 -0.1)">
       <use xlink:href="#SimHei-30"/>
       <use xlink:href="#SimHei-2e" x="50"/>
       <use xlink:href="#SimHei-30" x="100"/>
       <use xlink:href="#SimHei-30" x="150"/>
       <use xlink:href="#SimHei-31" x="200"/>
       <use xlink:href="#SimHei-30" x="250"/>
      </g>
     </g>
    </g>
    <g id="ytick_16">
     <g id="line2d_47">
      <g>
       <use xlink:href="#m5f0cee1cd7" x="597.760294" y="70.704" style="stroke: #000000; stroke-width: 0.8"/>
      </g>
     </g>
     <g id="text_36">
      <!-- 0.0015 -->
      <g transform="translate(560.760294 74.1415) scale(0.1 -0.1)">
       <use xlink:href="#SimHei-30"/>
       <use xlink:href="#SimHei-2e" x="50"/>
       <use xlink:href="#SimHei-30" x="100"/>
       <use xlink:href="#SimHei-30" x="150"/>
       <use xlink:href="#SimHei-31" x="200"/>
       <use xlink:href="#SimHei-35" x="250"/>
      </g>
     </g>
    </g>
    <g id="ytick_17">
     <g id="line2d_48">
      <g>
       <use xlink:href="#m5f0cee1cd7" x="597.760294" y="42.48" style="stroke: #000000; stroke-width: 0.8"/>
      </g>
     </g>
     <g id="text_37">
      <!-- 0.0020 -->
      <g transform="translate(560.760294 45.9175) scale(0.1 -0.1)">
       <use xlink:href="#SimHei-30"/>
       <use xlink:href="#SimHei-2e" x="50"/>
       <use xlink:href="#SimHei-30" x="100"/>
       <use xlink:href="#SimHei-30" x="150"/>
       <use xlink:href="#SimHei-32" x="200"/>
       <use xlink:href="#SimHei-30" x="250"/>
      </g>
     </g>
    </g>
    <g id="ytick_18">
     <g id="line2d_49">
      <g>
       <use xlink:href="#m5f0cee1cd7" x="597.760294" y="14.256" style="stroke: #000000; stroke-width: 0.8"/>
      </g>
     </g>
     <g id="text_38">
      <!-- 0.0025 -->
      <g transform="translate(560.760294 17.6935) scale(0.1 -0.1)">
       <use xlink:href="#SimHei-30"/>
       <use xlink:href="#SimHei-2e" x="50"/>
       <use xlink:href="#SimHei-30" x="100"/>
       <use xlink:href="#SimHei-30" x="150"/>
       <use xlink:href="#SimHei-32" x="200"/>
       <use xlink:href="#SimHei-35" x="250"/>
      </g>
     </g>
    </g>
   </g>
   <g id="line2d_50">
    <path d="M 608.204144 14.256 
L 609.269843 152.382852 
L 610.335542 131.143396 
L 611.401241 154.368346 
L 614.598338 153.910181 
L 615.664037 152.478387 
L 616.729736 153.389858 
L 617.795435 151.522543 
L 618.861134 154.533725 
L 622.058231 152.908082 
L 623.12393 153.620309 
L 624.189629 152.213321 
L 625.255328 154.263944 
L 626.321028 153.827581 
L 629.518125 154.342604 
L 630.583824 128.029814 
L 631.649523 154.104211 
L 633.780921 153.137765 
L 636.978018 153.33133 
L 638.043717 153.528491 
L 639.109416 128.221464 
L 640.175115 153.924557 
L 641.240814 127.296054 
L 644.437911 152.869169 
L 645.50361 128.904998 
L 646.569309 152.741888 
L 647.635008 153.863831 
L 648.700707 151.439942 
L 651.897804 152.4588 
L 652.963503 154.016343 
L 654.029202 154.415205 
L 656.1606 153.592332 
L 659.357697 131.58387 
L 660.423396 153.496034 
L 661.489095 154.664028 
L 662.554794 153.560913 
L 674.277483 152.634067 
L 675.343182 151.905057 
L 676.408881 132.04232 
L 677.47458 154.224624 
L 678.540279 153.541177 
L 681.737376 153.759565 
L 682.803075 154.229359 
L 683.868774 131.318158 
L 684.934473 133.18876 
L 686.000172 151.479332 
L 690.262968 153.774179 
L 691.328667 148.925094 
L 692.394366 153.391988 
L 693.460065 130.891668 
L 696.657162 152.199095 
L 697.722861 153.252648 
L 698.78856 153.582891 
L 699.854259 154.478329 
L 700.919958 154.185663 
L 704.117055 152.501493 
L 705.182754 154.718021 
L 706.248453 152.092997 
L 707.314152 154.338068 
L 708.379851 152.764206 
L 711.576948 146.891731 
L 712.642647 150.93582 
L 713.708346 152.515396 
L 714.774045 127.201004 
L 715.839744 151.965848 
L 719.036841 152.118923 
L 720.10254 140.912373 
L 721.168239 143.473058 
L 722.233938 153.950952 
L 723.299637 154.241566 
L 726.496734 154.093986 
L 727.562433 150.743388 
L 728.628132 130.850098 
L 729.693831 146.381318 
L 730.75953 153.631505 
L 733.956627 154.21565 
L 735.022326 136.414754 
L 736.088025 134.747907 
L 737.153724 153.599701 
L 738.219423 154.381304 
L 741.41652 154.560017 
L 742.482219 153.311749 
L 743.547918 152.578216 
L 744.613617 152.300798 
L 745.679316 154.133967 
L 748.876413 154.013721 
L 749.942112 153.672579 
L 751.007811 150.63713 
L 752.07351 153.250127 
L 753.139209 153.87578 
L 756.336306 154.644874 
L 757.402005 142.004262 
L 758.467704 130.993866 
L 759.533403 153.668514 
L 760.599102 130.253292 
L 764.861898 153.07638 
L 765.927597 153.101278 
L 766.993296 154.36628 
L 768.058995 153.743352 
L 771.256092 154.295293 
L 772.321791 153.746076 
L 773.38749 154.055659 
L 774.453189 152.743279 
L 775.518888 154.000413 
L 778.715985 153.954251 
L 779.781684 154.238649 
L 780.847383 153.720554 
L 782.978782 153.293727 
L 786.175879 153.517931 
L 787.241578 154.062252 
L 788.307277 151.111236 
L 789.372976 153.158254 
L 790.438675 152.840988 
L 793.635772 151.322212 
L 794.701471 153.403859 
L 795.76717 148.801097 
L 797.898568 153.503787 
L 801.095665 152.972481 
L 802.161364 148.154935 
L 803.227063 153.098382 
L 804.292762 148.171534 
L 816.015451 154.287092 
L 817.08115 155.376 
L 817.08115 155.376 
" clip-path="url(#p8eb9ced81a)" style="fill: none; stroke: #1f77b4; stroke-width: 1.5; stroke-linecap: square"/>
   </g>
   <g id="patch_14">
    <path d="M 597.760294 162.432 
L 597.760294 7.2 
" style="fill: none; stroke: #000000; stroke-width: 0.8; stroke-linejoin: miter; stroke-linecap: square"/>
   </g>
   <g id="patch_15">
    <path d="M 827.525 162.432 
L 827.525 7.2 
" style="fill: none; stroke: #000000; stroke-width: 0.8; stroke-linejoin: miter; stroke-linecap: square"/>
   </g>
   <g id="patch_16">
    <path d="M 597.760294 162.432 
L 827.525 162.432 
" style="fill: none; stroke: #000000; stroke-width: 0.8; stroke-linejoin: miter; stroke-linecap: square"/>
   </g>
   <g id="patch_17">
    <path d="M 597.760294 7.2 
L 827.525 7.2 
" style="fill: none; stroke: #000000; stroke-width: 0.8; stroke-linejoin: miter; stroke-linecap: square"/>
   </g>
  </g>
 </g>
 <defs>
  <clipPath id="pdea61950b2">
   <rect x="46.325" y="7.2" width="229.764706" height="155.232"/>
  </clipPath>
  <clipPath id="p7f10acabbd">
   <rect x="322.042647" y="7.2" width="229.764706" height="155.232"/>
  </clipPath>
  <clipPath id="p8eb9ced81a">
   <rect x="597.760294" y="7.2" width="229.764706" height="155.232"/>
  </clipPath>
 </defs>
</svg>
