<?xml version="1.0" encoding="utf-8" standalone="no"?>
<!DOCTYPE svg PUBLIC "-//W3C//DTD SVG 1.1//EN"
  "http://www.w3.org/Graphics/SVG/1.1/DTD/svg11.dtd">
<svg xmlns:xlink="http://www.w3.org/1999/xlink" width="834.803125pt" height="184.757pt" viewBox="0 0 834.803125 184.757" xmlns="http://www.w3.org/2000/svg" version="1.1">
 <metadata>
  <rdf:RDF xmlns:dc="http://purl.org/dc/elements/1.1/" xmlns:cc="http://creativecommons.org/ns#" xmlns:rdf="http://www.w3.org/1999/02/22-rdf-syntax-ns#">
   <cc:Work>
    <dc:type rdf:resource="http://purl.org/dc/dcmitype/StillImage"/>
    <dc:date>2024-12-25T17:33:03.243322</dc:date>
    <dc:format>image/svg+xml</dc:format>
    <dc:creator>
     <cc:Agent>
      <dc:title>Matplotlib v3.9.3, https://matplotlib.org/</dc:title>
     </cc:Agent>
    </dc:creator>
   </cc:Work>
  </rdf:RDF>
 </metadata>
 <defs>
  <style type="text/css">*{stroke-linejoin: round; stroke-linecap: butt}</style>
 </defs>
 <g id="figure_1">
  <g id="patch_1">
   <path d="M 0 184.757 
L 834.803125 184.757 
L 834.803125 0 
L 0 0 
z
" style="fill: #ffffff"/>
  </g>
  <g id="axes_1">
   <g id="patch_2">
    <path d="M 46.403125 162.432 
L 276.167831 162.432 
L 276.167831 7.2 
L 46.403125 7.2 
z
" style="fill: #ffffff"/>
   </g>
   <g id="matplotlib.axis_1">
    <g id="xtick_1">
     <g id="line2d_1">
      <defs>
       <path id="m4a673fb78a" d="M 0 0 
L 0 3.5 
" style="stroke: #000000; stroke-width: 0.8"/>
      </defs>
      <g>
       <use xlink:href="#m4a673fb78a" x="102.672033" y="162.432" style="stroke: #000000; stroke-width: 0.8"/>
      </g>
     </g>
     <g id="text_1">
      <!-- 2023-09-20 -->
      <g transform="translate(77.672033 176.307) scale(0.1 -0.1)">
       <defs>
        <path id="SimHei-32" d="M 300 250 
Q 325 625 650 925 
Q 975 1225 1475 1862 
Q 1975 2500 2125 2850 
Q 2275 3200 2237 3450 
Q 2200 3700 2000 3862 
Q 1800 4025 1537 4000 
Q 1275 3975 1037 3800 
Q 800 3625 675 3275 
L 200 3350 
Q 400 3925 712 4187 
Q 1025 4450 1450 4475 
Q 1700 4500 1900 4462 
Q 2100 4425 2312 4287 
Q 2525 4150 2662 3875 
Q 2800 3600 2762 3212 
Q 2725 2825 2375 2287 
Q 2025 1750 1025 600 
L 2825 600 
L 2825 150 
L 300 150 
L 300 250 
z
" transform="scale(0.015625)"/>
        <path id="SimHei-30" d="M 225 2537 
Q 250 3200 412 3587 
Q 575 3975 875 4225 
Q 1175 4475 1612 4475 
Q 2050 4475 2375 4112 
Q 2700 3750 2800 3200 
Q 2900 2650 2862 1937 
Q 2825 1225 2612 775 
Q 2400 325 1975 150 
Q 1550 -25 1125 187 
Q 700 400 525 750 
Q 350 1100 275 1487 
Q 200 1875 225 2537 
z
M 750 2687 
Q 675 2000 800 1462 
Q 925 925 1212 700 
Q 1500 475 1800 612 
Q 2100 750 2237 1162 
Q 2375 1575 2375 2062 
Q 2375 2550 2337 2950 
Q 2300 3350 2112 3675 
Q 1925 4000 1612 4012 
Q 1300 4025 1062 3700 
Q 825 3375 750 2687 
z
" transform="scale(0.015625)"/>
        <path id="SimHei-33" d="M 250 1225 
L 700 1300 
Q 800 975 1025 762 
Q 1250 550 1587 562 
Q 1925 575 2125 837 
Q 2325 1100 2300 1437 
Q 2275 1775 2037 1962 
Q 1800 2150 1275 2225 
L 1275 2550 
Q 1800 2600 2037 2825 
Q 2275 3050 2250 3412 
Q 2225 3775 1925 3937 
Q 1625 4100 1287 3975 
Q 950 3850 750 3275 
L 300 3350 
Q 450 3800 712 4100 
Q 975 4400 1425 4450 
Q 1875 4500 2212 4337 
Q 2550 4175 2687 3837 
Q 2825 3500 2725 3100 
Q 2625 2700 2150 2400 
Q 2500 2250 2687 1950 
Q 2875 1650 2812 1162 
Q 2750 675 2375 375 
Q 2000 75 1525 87 
Q 1050 100 700 387 
Q 350 675 250 1225 
z
" transform="scale(0.015625)"/>
        <path id="SimHei-2d" d="M 2975 2125 
L 125 2125 
L 125 2525 
L 2975 2525 
L 2975 2125 
z
" transform="scale(0.015625)"/>
        <path id="SimHei-39" d="M 800 75 
Q 1350 1000 1700 1750 
Q 1075 1650 662 1912 
Q 250 2175 162 2625 
Q 75 3075 175 3437 
Q 275 3800 487 4037 
Q 700 4275 1000 4375 
Q 1300 4475 1537 4475 
Q 1775 4475 2025 4375 
Q 2275 4275 2475 4075 
Q 2675 3875 2750 3662 
Q 2825 3450 2825 3112 
Q 2825 2775 2575 2250 
Q 2325 1725 1350 75 
L 800 75 
z
M 662 2875 
Q 700 2550 937 2337 
Q 1175 2125 1450 2150 
Q 1725 2175 1887 2300 
Q 2050 2425 2200 2725 
Q 2300 3100 2250 3362 
Q 2200 3625 1987 3800 
Q 1775 3975 1525 3975 
Q 1375 4000 1137 3900 
Q 900 3800 762 3500 
Q 625 3200 662 2875 
z
" transform="scale(0.015625)"/>
       </defs>
       <use xlink:href="#SimHei-32"/>
       <use xlink:href="#SimHei-30" x="50"/>
       <use xlink:href="#SimHei-32" x="100"/>
       <use xlink:href="#SimHei-33" x="150"/>
       <use xlink:href="#SimHei-2d" x="200"/>
       <use xlink:href="#SimHei-30" x="250"/>
       <use xlink:href="#SimHei-39" x="300"/>
       <use xlink:href="#SimHei-2d" x="350"/>
       <use xlink:href="#SimHei-32" x="400"/>
       <use xlink:href="#SimHei-30" x="450"/>
      </g>
     </g>
    </g>
    <g id="xtick_2">
     <g id="line2d_2">
      <g>
       <use xlink:href="#m4a673fb78a" x="166.613973" y="162.432" style="stroke: #000000; stroke-width: 0.8"/>
      </g>
     </g>
     <g id="text_2">
      <!-- 2023-11-19 -->
      <g transform="translate(141.613973 176.307) scale(0.1 -0.1)">
       <defs>
        <path id="SimHei-31" d="M 1400 3600 
Q 1075 3275 575 2975 
L 575 3450 
Q 1200 3875 1600 4450 
L 1900 4450 
L 1900 150 
L 1400 150 
L 1400 3600 
z
" transform="scale(0.015625)"/>
       </defs>
       <use xlink:href="#SimHei-32"/>
       <use xlink:href="#SimHei-30" x="50"/>
       <use xlink:href="#SimHei-32" x="100"/>
       <use xlink:href="#SimHei-33" x="150"/>
       <use xlink:href="#SimHei-2d" x="200"/>
       <use xlink:href="#SimHei-31" x="250"/>
       <use xlink:href="#SimHei-31" x="300"/>
       <use xlink:href="#SimHei-2d" x="350"/>
       <use xlink:href="#SimHei-31" x="400"/>
       <use xlink:href="#SimHei-39" x="450"/>
      </g>
     </g>
    </g>
    <g id="xtick_3">
     <g id="line2d_3">
      <g>
       <use xlink:href="#m4a673fb78a" x="230.555913" y="162.432" style="stroke: #000000; stroke-width: 0.8"/>
      </g>
     </g>
     <g id="text_3">
      <!-- 2024-01-18 -->
      <g transform="translate(205.555913 176.307) scale(0.1 -0.1)">
       <defs>
        <path id="SimHei-34" d="M 2000 1100 
L 75 1100 
L 75 1525 
L 2100 4450 
L 2475 4450 
L 2475 1525 
L 3075 1525 
L 3075 1100 
L 2475 1100 
L 2475 150 
L 2000 150 
L 2000 1100 
z
M 2000 1525 
L 2000 3500 
L 600 1525 
L 2000 1525 
z
" transform="scale(0.015625)"/>
        <path id="SimHei-38" d="M 175 1375 
Q 175 1675 325 1962 
Q 475 2250 825 2425 
Q 525 2600 425 2812 
Q 325 3025 312 3300 
Q 300 3575 387 3775 
Q 475 3975 650 4150 
Q 825 4325 1037 4387 
Q 1250 4450 1500 4450 
Q 1750 4450 1950 4400 
Q 2150 4350 2375 4187 
Q 2600 4025 2700 3725 
Q 2800 3425 2687 3025 
Q 2575 2625 2100 2400 
Q 2525 2275 2700 2012 
Q 2875 1750 2875 1375 
Q 2875 1000 2762 775 
Q 2650 550 2512 400 
Q 2375 250 2137 162 
Q 1900 75 1537 75 
Q 1175 75 912 162 
Q 650 250 475 425 
Q 300 600 237 837 
Q 175 1075 175 1375 
z
M 687 1400 
Q 675 1100 787 875 
Q 900 650 1200 587 
Q 1500 525 1825 600 
Q 2150 675 2275 950 
Q 2400 1225 2362 1500 
Q 2325 1775 2050 1962 
Q 1775 2150 1450 2125 
Q 1125 2100 912 1900 
Q 700 1700 687 1400 
z
M 775 3350 
Q 775 3100 950 2875 
Q 1125 2650 1500 2650 
Q 1875 2650 2062 2875 
Q 2250 3100 2237 3412 
Q 2225 3725 2012 3875 
Q 1800 4025 1437 4000 
Q 1075 3975 925 3787 
Q 775 3600 775 3350 
z
" transform="scale(0.015625)"/>
       </defs>
       <use xlink:href="#SimHei-32"/>
       <use xlink:href="#SimHei-30" x="50"/>
       <use xlink:href="#SimHei-32" x="100"/>
       <use xlink:href="#SimHei-34" x="150"/>
       <use xlink:href="#SimHei-2d" x="200"/>
       <use xlink:href="#SimHei-30" x="250"/>
       <use xlink:href="#SimHei-31" x="300"/>
       <use xlink:href="#SimHei-2d" x="350"/>
       <use xlink:href="#SimHei-31" x="400"/>
       <use xlink:href="#SimHei-38" x="450"/>
      </g>
     </g>
    </g>
   </g>
   <g id="matplotlib.axis_2">
    <g id="ytick_1">
     <g id="line2d_4">
      <defs>
       <path id="m090f9e5b8b" d="M 0 0 
L -3.5 0 
" style="stroke: #000000; stroke-width: 0.8"/>
      </defs>
      <g>
       <use xlink:href="#m090f9e5b8b" x="46.403125" y="153.770613" style="stroke: #000000; stroke-width: 0.8"/>
      </g>
     </g>
     <g id="text_4">
      <!-- 0.90 -->
      <g transform="translate(19.403125 157.208113) scale(0.1 -0.1)">
       <defs>
        <path id="SimHei-2e" d="M 1075 125 
L 500 125 
L 500 675 
L 1075 675 
L 1075 125 
z
" transform="scale(0.015625)"/>
       </defs>
       <use xlink:href="#SimHei-30"/>
       <use xlink:href="#SimHei-2e" x="50"/>
       <use xlink:href="#SimHei-39" x="100"/>
       <use xlink:href="#SimHei-30" x="150"/>
      </g>
     </g>
    </g>
    <g id="ytick_2">
     <g id="line2d_5">
      <g>
       <use xlink:href="#m090f9e5b8b" x="46.403125" y="127.918365" style="stroke: #000000; stroke-width: 0.8"/>
      </g>
     </g>
     <g id="text_5">
      <!-- 0.92 -->
      <g transform="translate(19.403125 131.355865) scale(0.1 -0.1)">
       <use xlink:href="#SimHei-30"/>
       <use xlink:href="#SimHei-2e" x="50"/>
       <use xlink:href="#SimHei-39" x="100"/>
       <use xlink:href="#SimHei-32" x="150"/>
      </g>
     </g>
    </g>
    <g id="ytick_3">
     <g id="line2d_6">
      <g>
       <use xlink:href="#m090f9e5b8b" x="46.403125" y="102.066116" style="stroke: #000000; stroke-width: 0.8"/>
      </g>
     </g>
     <g id="text_6">
      <!-- 0.94 -->
      <g transform="translate(19.403125 105.503616) scale(0.1 -0.1)">
       <use xlink:href="#SimHei-30"/>
       <use xlink:href="#SimHei-2e" x="50"/>
       <use xlink:href="#SimHei-39" x="100"/>
       <use xlink:href="#SimHei-34" x="150"/>
      </g>
     </g>
    </g>
    <g id="ytick_4">
     <g id="line2d_7">
      <g>
       <use xlink:href="#m090f9e5b8b" x="46.403125" y="76.213868" style="stroke: #000000; stroke-width: 0.8"/>
      </g>
     </g>
     <g id="text_7">
      <!-- 0.96 -->
      <g transform="translate(19.403125 79.651368) scale(0.1 -0.1)">
       <defs>
        <path id="SimHei-36" d="M 250 1612 
Q 275 1975 387 2225 
Q 500 2475 725 2850 
L 1750 4450 
L 2325 4450 
L 1275 2800 
Q 1950 2975 2350 2750 
Q 2750 2525 2887 2237 
Q 3025 1950 3037 1612 
Q 3050 1275 2937 950 
Q 2825 625 2537 362 
Q 2250 100 1737 75 
Q 1225 50 862 262 
Q 500 475 362 862 
Q 225 1250 250 1612 
z
M 1025 787 
Q 1250 550 1625 525 
Q 2000 500 2250 775 
Q 2500 1050 2500 1575 
Q 2500 2100 2187 2300 
Q 1875 2500 1487 2450 
Q 1100 2400 925 2075 
Q 750 1750 775 1387 
Q 800 1025 1025 787 
z
" transform="scale(0.015625)"/>
       </defs>
       <use xlink:href="#SimHei-30"/>
       <use xlink:href="#SimHei-2e" x="50"/>
       <use xlink:href="#SimHei-39" x="100"/>
       <use xlink:href="#SimHei-36" x="150"/>
      </g>
     </g>
    </g>
    <g id="ytick_5">
     <g id="line2d_8">
      <g>
       <use xlink:href="#m090f9e5b8b" x="46.403125" y="50.36162" style="stroke: #000000; stroke-width: 0.8"/>
      </g>
     </g>
     <g id="text_8">
      <!-- 0.98 -->
      <g transform="translate(19.403125 53.79912) scale(0.1 -0.1)">
       <use xlink:href="#SimHei-30"/>
       <use xlink:href="#SimHei-2e" x="50"/>
       <use xlink:href="#SimHei-39" x="100"/>
       <use xlink:href="#SimHei-38" x="150"/>
      </g>
     </g>
    </g>
    <g id="ytick_6">
     <g id="line2d_9">
      <g>
       <use xlink:href="#m090f9e5b8b" x="46.403125" y="24.509371" style="stroke: #000000; stroke-width: 0.8"/>
      </g>
     </g>
     <g id="text_9">
      <!-- 1.00 -->
      <g transform="translate(19.403125 27.946871) scale(0.1 -0.1)">
       <use xlink:href="#SimHei-31"/>
       <use xlink:href="#SimHei-2e" x="50"/>
       <use xlink:href="#SimHei-30" x="100"/>
       <use xlink:href="#SimHei-30" x="150"/>
      </g>
     </g>
    </g>
    <g id="text_10">
     <!-- NCO-Sharpe-4yr -->
     <g transform="translate(14.153125 119.816) rotate(-90) scale(0.1 -0.1)">
      <defs>
       <path id="SimHei-4e" d="M 2850 125 
L 2225 125 
L 850 3225 
L 825 3225 
L 825 125 
L 250 125 
L 250 4400 
L 875 4400 
L 2250 1300 
L 2275 1300 
L 2275 4400 
L 2850 4400 
L 2850 125 
z
" transform="scale(0.015625)"/>
       <path id="SimHei-43" d="M 2975 1825 
Q 2950 875 2575 475 
Q 2200 75 1675 75 
Q 1075 75 650 562 
Q 225 1050 225 2125 
Q 225 3300 637 3875 
Q 1050 4450 1700 4450 
Q 2250 4450 2612 4037 
Q 2975 3625 2950 2875 
L 2400 2875 
Q 2400 3425 2225 3700 
Q 2050 3975 1700 3975 
Q 1300 3975 1062 3562 
Q 825 3150 825 2175 
Q 825 1275 1062 912 
Q 1300 550 1675 550 
Q 1950 550 2175 812 
Q 2400 1075 2400 1825 
L 2975 1825 
z
" transform="scale(0.015625)"/>
       <path id="SimHei-4f" d="M 2950 2275 
Q 2950 1100 2587 587 
Q 2225 75 1575 75 
Q 925 75 550 587 
Q 175 1100 175 2275 
Q 175 3450 550 3950 
Q 925 4450 1575 4450 
Q 2225 4450 2587 3950 
Q 2950 3450 2950 2275 
z
M 2350 2275 
Q 2350 3325 2125 3650 
Q 1900 3975 1575 3975 
Q 1250 3975 1012 3650 
Q 775 3325 775 2275 
Q 775 1225 1012 887 
Q 1250 550 1575 550 
Q 1900 550 2125 887 
Q 2350 1225 2350 2275 
z
" transform="scale(0.015625)"/>
       <path id="SimHei-53" d="M 2900 1325 
Q 2900 750 2537 412 
Q 2175 75 1550 75 
Q 925 75 575 425 
Q 225 775 225 1300 
L 225 1475 
L 800 1475 
L 800 1325 
Q 800 950 1025 750 
Q 1250 550 1550 550 
Q 1950 550 2137 762 
Q 2325 975 2325 1275 
Q 2325 1525 2100 1737 
Q 1875 1950 1450 2125 
Q 850 2350 587 2625 
Q 325 2900 325 3275 
Q 325 3800 687 4125 
Q 1050 4450 1550 4450 
Q 2200 4450 2487 4062 
Q 2775 3675 2775 3225 
L 2200 3225 
Q 2225 3500 2050 3725 
Q 1875 3950 1550 3950 
Q 1250 3950 1075 3787 
Q 900 3625 900 3350 
Q 900 3125 1037 2962 
Q 1175 2800 1750 2575 
Q 2300 2350 2600 2037 
Q 2900 1725 2900 1325 
z
" transform="scale(0.015625)"/>
       <path id="SimHei-68" d="M 2800 125 
L 2300 125 
L 2300 1925 
Q 2300 2225 2150 2400 
Q 2000 2575 1750 2575 
Q 1425 2575 1137 2237 
Q 850 1900 850 1400 
L 850 125 
L 350 125 
L 350 4400 
L 850 4400 
L 850 2400 
Q 1050 2675 1287 2825 
Q 1525 2975 1900 2975 
Q 2350 2975 2575 2725 
Q 2800 2475 2800 2100 
L 2800 125 
z
" transform="scale(0.015625)"/>
       <path id="SimHei-61" d="M 2875 125 
L 2275 125 
Q 2225 175 2200 262 
Q 2175 350 2175 475 
Q 2000 275 1750 175 
Q 1500 75 1225 75 
Q 825 75 550 275 
Q 275 475 275 850 
Q 275 1225 525 1450 
Q 775 1675 1300 1750 
Q 1650 1800 1912 1875 
Q 2175 1950 2175 2075 
Q 2175 2225 2062 2375 
Q 1950 2525 1575 2525 
Q 1275 2525 1137 2412 
Q 1000 2300 950 2100 
L 400 2100 
Q 450 2500 762 2737 
Q 1075 2975 1575 2975 
Q 2125 2975 2400 2725 
Q 2675 2475 2675 2025 
L 2675 650 
Q 2675 500 2725 375 
Q 2775 250 2875 125 
z
M 2175 1050 
L 2175 1550 
Q 2025 1500 1887 1462 
Q 1750 1425 1425 1375 
Q 1050 1325 937 1200 
Q 825 1075 825 900 
Q 825 750 937 637 
Q 1050 525 1275 525 
Q 1500 525 1762 650 
Q 2025 775 2175 1050 
z
" transform="scale(0.015625)"/>
       <path id="SimHei-72" d="M 2500 2425 
Q 2025 2500 1700 2287 
Q 1375 2075 1150 1550 
L 1150 125 
L 650 125 
L 650 2925 
L 1150 2925 
L 1150 2200 
Q 1375 2600 1712 2787 
Q 2050 2975 2500 2975 
L 2500 2425 
z
" transform="scale(0.015625)"/>
       <path id="SimHei-70" d="M 2825 1525 
Q 2825 800 2475 425 
Q 2125 50 1625 50 
Q 1350 50 1150 162 
Q 950 275 800 500 
L 800 -800 
L 300 -800 
L 300 2925 
L 800 2925 
L 800 2550 
Q 950 2775 1150 2875 
Q 1350 2975 1625 2975 
Q 2125 2975 2475 2612 
Q 2825 2250 2825 1525 
z
M 2275 1525 
Q 2275 2000 2087 2262 
Q 1900 2525 1525 2525 
Q 1225 2525 1012 2262 
Q 800 2000 800 1525 
Q 800 1050 1012 775 
Q 1225 500 1525 500 
Q 1900 500 2087 775 
Q 2275 1050 2275 1525 
z
" transform="scale(0.015625)"/>
       <path id="SimHei-65" d="M 2850 1075 
Q 2800 625 2450 350 
Q 2100 75 1625 75 
Q 1025 75 637 462 
Q 250 850 250 1525 
Q 250 2200 637 2587 
Q 1025 2975 1625 2975 
Q 2150 2975 2487 2637 
Q 2825 2300 2825 1525 
L 800 1525 
Q 800 975 1037 750 
Q 1275 525 1625 525 
Q 1900 525 2075 662 
Q 2250 800 2300 1075 
L 2850 1075 
z
M 2250 1925 
Q 2200 2275 2025 2412 
Q 1850 2550 1575 2550 
Q 1325 2550 1125 2412 
Q 925 2275 825 1925 
L 2250 1925 
z
" transform="scale(0.015625)"/>
       <path id="SimHei-79" d="M 2900 2925 
L 1750 -100 
Q 1650 -450 1450 -625 
Q 1250 -800 950 -800 
Q 825 -800 712 -787 
Q 600 -775 500 -725 
L 500 -225 
Q 600 -275 700 -300 
Q 800 -325 875 -325 
Q 1075 -325 1150 -262 
Q 1225 -200 1300 25 
L 200 2925 
L 750 2925 
L 1550 725 
L 1575 725 
L 2350 2925 
L 2900 2925 
z
" transform="scale(0.015625)"/>
      </defs>
      <use xlink:href="#SimHei-4e"/>
      <use xlink:href="#SimHei-43" x="50"/>
      <use xlink:href="#SimHei-4f" x="100"/>
      <use xlink:href="#SimHei-2d" x="150"/>
      <use xlink:href="#SimHei-53" x="200"/>
      <use xlink:href="#SimHei-68" x="250"/>
      <use xlink:href="#SimHei-61" x="300"/>
      <use xlink:href="#SimHei-72" x="350"/>
      <use xlink:href="#SimHei-70" x="400"/>
      <use xlink:href="#SimHei-65" x="450"/>
      <use xlink:href="#SimHei-2d" x="500"/>
      <use xlink:href="#SimHei-34" x="550"/>
      <use xlink:href="#SimHei-79" x="600"/>
      <use xlink:href="#SimHei-72" x="650"/>
     </g>
    </g>
   </g>
   <g id="line2d_10">
    <path d="M 56.846975 27.740903 
L 57.912674 33.388317 
L 58.978373 28.854396 
L 60.044072 56.336655 
L 63.241169 63.625506 
L 64.306868 56.719807 
L 65.372567 71.672235 
L 66.438266 65.411492 
L 67.503965 75.44529 
L 70.701062 86.285698 
L 71.766761 75.378197 
L 72.83246 87.954244 
L 73.898159 83.422979 
L 74.963858 76.525109 
L 78.160955 75.092438 
L 79.226654 68.775004 
L 80.292353 57.026925 
L 81.358052 51.063774 
L 82.423751 64.049832 
L 85.620848 61.181154 
L 86.686547 58.212637 
L 87.752246 54.662434 
L 88.817945 72.443113 
L 89.883644 73.513586 
L 93.080742 66.734527 
L 94.146441 66.907972 
L 95.21214 72.716699 
L 96.277839 64.149332 
L 97.343538 72.122436 
L 100.540635 79.940054 
L 101.606334 83.727548 
L 102.672033 92.049766 
L 103.737732 102.131035 
L 104.803431 85.546063 
L 108.000528 86.218758 
L 109.066227 93.380869 
L 110.131926 102.884456 
L 111.197625 95.94366 
L 123.986013 81.335351 
L 125.051712 85.933238 
L 126.117411 68.089552 
L 127.18311 76.260285 
L 130.380207 86.555638 
L 131.445906 73.891748 
L 132.511605 74.04624 
L 133.577304 90.681755 
L 134.643003 105.351252 
L 137.8401 116.99248 
L 138.905799 101.123128 
L 139.971498 115.58133 
L 141.037197 98.819376 
L 142.102896 93.236398 
L 145.299993 93.849644 
L 146.365692 90.911369 
L 147.431391 89.9508 
L 148.49709 88.17095 
L 149.562789 85.668204 
L 152.759886 95.775506 
L 153.825585 97.692917 
L 154.891284 93.762891 
L 155.956983 88.993646 
L 157.022682 92.524301 
L 160.219779 95.657073 
L 161.285478 103.63369 
L 162.351177 95.261116 
L 163.416876 101.262836 
L 164.482575 105.897447 
L 167.679672 106.243071 
L 168.745371 108.416769 
L 169.81107 115.29668 
L 170.876769 112.620297 
L 171.942468 115.713532 
L 175.139565 115.06363 
L 176.205264 118.12696 
L 177.270963 126.309643 
L 178.336662 116.85846 
L 179.402361 125.346268 
L 182.599458 130.254919 
L 183.665157 144.726623 
L 184.730856 150.81412 
L 185.796555 155.376 
L 186.862254 148.812921 
L 190.059351 135.454497 
L 191.12505 131.827988 
L 192.190749 135.129897 
L 193.256448 133.554373 
L 194.322147 146.049836 
L 197.519244 139.319542 
L 198.584943 128.6952 
L 199.650642 121.40552 
L 200.716341 116.992962 
L 201.78204 118.804428 
L 204.979137 112.537034 
L 206.044836 113.892256 
L 207.110535 99.13949 
L 208.176234 99.174829 
L 209.241933 93.39132 
L 213.504729 89.001055 
L 214.570428 83.657924 
L 215.636127 86.810703 
L 216.701826 92.601689 
L 219.898923 107.837203 
L 220.964622 108.772474 
L 222.030321 118.590991 
L 223.09602 123.417504 
L 224.161719 112.824365 
L 227.358816 112.661438 
L 228.424515 98.635159 
L 229.490214 111.507707 
L 230.555913 96.877319 
L 231.621612 97.222738 
L 234.818709 108.104889 
L 235.884408 109.982739 
L 236.950107 86.275307 
L 238.015806 75.733083 
L 239.081505 76.08466 
L 242.278602 71.916959 
L 243.344301 93.134236 
L 244.41 84.680171 
L 245.475699 90.823269 
L 246.541398 94.601219 
L 249.738496 61.695803 
L 250.804195 48.448549 
L 251.869894 51.107098 
L 252.935593 54.617795 
L 264.658282 25.584678 
L 265.723981 14.256 
L 265.723981 14.256 
" clip-path="url(#pf8cbb220a2)" style="fill: none; stroke: #1f77b4; stroke-width: 1.5; stroke-linecap: square"/>
   </g>
   <g id="patch_3">
    <path d="M 46.403125 162.432 
L 46.403125 7.2 
" style="fill: none; stroke: #000000; stroke-width: 0.8; stroke-linejoin: miter; stroke-linecap: square"/>
   </g>
   <g id="patch_4">
    <path d="M 276.167831 162.432 
L 276.167831 7.2 
" style="fill: none; stroke: #000000; stroke-width: 0.8; stroke-linejoin: miter; stroke-linecap: square"/>
   </g>
   <g id="patch_5">
    <path d="M 46.403125 162.432 
L 276.167831 162.432 
" style="fill: none; stroke: #000000; stroke-width: 0.8; stroke-linejoin: miter; stroke-linecap: square"/>
   </g>
   <g id="patch_6">
    <path d="M 46.403125 7.2 
L 276.167831 7.2 
" style="fill: none; stroke: #000000; stroke-width: 0.8; stroke-linejoin: miter; stroke-linecap: square"/>
   </g>
  </g>
  <g id="axes_2">
   <g id="patch_7">
    <path d="M 322.120772 162.432 
L 551.885478 162.432 
L 551.885478 7.2 
L 322.120772 7.2 
z
" style="fill: #ffffff"/>
   </g>
   <g id="matplotlib.axis_3">
    <g id="xtick_4">
     <g id="line2d_11">
      <g>
       <use xlink:href="#m4a673fb78a" x="379.455379" y="162.432" style="stroke: #000000; stroke-width: 0.8"/>
      </g>
     </g>
     <g id="text_11">
      <!-- 2023-09-20 -->
      <g transform="translate(354.455379 176.307) scale(0.1 -0.1)">
       <use xlink:href="#SimHei-32"/>
       <use xlink:href="#SimHei-30" x="50"/>
       <use xlink:href="#SimHei-32" x="100"/>
       <use xlink:href="#SimHei-33" x="150"/>
       <use xlink:href="#SimHei-2d" x="200"/>
       <use xlink:href="#SimHei-30" x="250"/>
       <use xlink:href="#SimHei-39" x="300"/>
       <use xlink:href="#SimHei-2d" x="350"/>
       <use xlink:href="#SimHei-32" x="400"/>
       <use xlink:href="#SimHei-30" x="450"/>
      </g>
     </g>
    </g>
    <g id="xtick_5">
     <g id="line2d_12">
      <g>
       <use xlink:href="#m4a673fb78a" x="443.397319" y="162.432" style="stroke: #000000; stroke-width: 0.8"/>
      </g>
     </g>
     <g id="text_12">
      <!-- 2023-11-19 -->
      <g transform="translate(418.397319 176.307) scale(0.1 -0.1)">
       <use xlink:href="#SimHei-32"/>
       <use xlink:href="#SimHei-30" x="50"/>
       <use xlink:href="#SimHei-32" x="100"/>
       <use xlink:href="#SimHei-33" x="150"/>
       <use xlink:href="#SimHei-2d" x="200"/>
       <use xlink:href="#SimHei-31" x="250"/>
       <use xlink:href="#SimHei-31" x="300"/>
       <use xlink:href="#SimHei-2d" x="350"/>
       <use xlink:href="#SimHei-31" x="400"/>
       <use xlink:href="#SimHei-39" x="450"/>
      </g>
     </g>
    </g>
    <g id="xtick_6">
     <g id="line2d_13">
      <g>
       <use xlink:href="#m4a673fb78a" x="507.339259" y="162.432" style="stroke: #000000; stroke-width: 0.8"/>
      </g>
     </g>
     <g id="text_13">
      <!-- 2024-01-18 -->
      <g transform="translate(482.339259 176.307) scale(0.1 -0.1)">
       <use xlink:href="#SimHei-32"/>
       <use xlink:href="#SimHei-30" x="50"/>
       <use xlink:href="#SimHei-32" x="100"/>
       <use xlink:href="#SimHei-34" x="150"/>
       <use xlink:href="#SimHei-2d" x="200"/>
       <use xlink:href="#SimHei-30" x="250"/>
       <use xlink:href="#SimHei-31" x="300"/>
       <use xlink:href="#SimHei-2d" x="350"/>
       <use xlink:href="#SimHei-31" x="400"/>
       <use xlink:href="#SimHei-38" x="450"/>
      </g>
     </g>
    </g>
   </g>
   <g id="matplotlib.axis_4">
    <g id="ytick_7">
     <g id="line2d_14">
      <g>
       <use xlink:href="#m090f9e5b8b" x="322.120772" y="155.376" style="stroke: #000000; stroke-width: 0.8"/>
      </g>
     </g>
     <g id="text_14">
      <!-- 0.0 -->
      <g transform="translate(300.120772 158.8135) scale(0.1 -0.1)">
       <use xlink:href="#SimHei-30"/>
       <use xlink:href="#SimHei-2e" x="50"/>
       <use xlink:href="#SimHei-30" x="100"/>
      </g>
     </g>
    </g>
    <g id="ytick_8">
     <g id="line2d_15">
      <g>
       <use xlink:href="#m090f9e5b8b" x="322.120772" y="127.152" style="stroke: #000000; stroke-width: 0.8"/>
      </g>
     </g>
     <g id="text_15">
      <!-- 0.2 -->
      <g transform="translate(300.120772 130.5895) scale(0.1 -0.1)">
       <use xlink:href="#SimHei-30"/>
       <use xlink:href="#SimHei-2e" x="50"/>
       <use xlink:href="#SimHei-32" x="100"/>
      </g>
     </g>
    </g>
    <g id="ytick_9">
     <g id="line2d_16">
      <g>
       <use xlink:href="#m090f9e5b8b" x="322.120772" y="98.928" style="stroke: #000000; stroke-width: 0.8"/>
      </g>
     </g>
     <g id="text_16">
      <!-- 0.4 -->
      <g transform="translate(300.120772 102.3655) scale(0.1 -0.1)">
       <use xlink:href="#SimHei-30"/>
       <use xlink:href="#SimHei-2e" x="50"/>
       <use xlink:href="#SimHei-34" x="100"/>
      </g>
     </g>
    </g>
    <g id="ytick_10">
     <g id="line2d_17">
      <g>
       <use xlink:href="#m090f9e5b8b" x="322.120772" y="70.704" style="stroke: #000000; stroke-width: 0.8"/>
      </g>
     </g>
     <g id="text_17">
      <!-- 0.6 -->
      <g transform="translate(300.120772 74.1415) scale(0.1 -0.1)">
       <use xlink:href="#SimHei-30"/>
       <use xlink:href="#SimHei-2e" x="50"/>
       <use xlink:href="#SimHei-36" x="100"/>
      </g>
     </g>
    </g>
    <g id="ytick_11">
     <g id="line2d_18">
      <g>
       <use xlink:href="#m090f9e5b8b" x="322.120772" y="42.48" style="stroke: #000000; stroke-width: 0.8"/>
      </g>
     </g>
     <g id="text_18">
      <!-- 0.8 -->
      <g transform="translate(300.120772 45.9175) scale(0.1 -0.1)">
       <use xlink:href="#SimHei-30"/>
       <use xlink:href="#SimHei-2e" x="50"/>
       <use xlink:href="#SimHei-38" x="100"/>
      </g>
     </g>
    </g>
    <g id="ytick_12">
     <g id="line2d_19">
      <g>
       <use xlink:href="#m090f9e5b8b" x="322.120772" y="14.256" style="stroke: #000000; stroke-width: 0.8"/>
      </g>
     </g>
     <g id="text_19">
      <!-- 1.0 -->
      <g transform="translate(300.120772 17.6935) scale(0.1 -0.1)">
       <use xlink:href="#SimHei-31"/>
       <use xlink:href="#SimHei-2e" x="50"/>
       <use xlink:href="#SimHei-30" x="100"/>
      </g>
     </g>
    </g>
   </g>
   <g id="line2d_20">
    <path d="M 332.564622 155.376 
L 444.463018 155.375999 
L 445.528717 155.123771 
L 446.594416 154.549859 
L 447.660115 152.507654 
L 448.725814 153.414344 
L 451.922911 150.847757 
L 452.98861 149.046405 
L 454.054309 149.938315 
L 455.120008 148.566964 
L 456.185707 148.14644 
L 459.382804 149.747791 
L 460.448503 155.375995 
L 470.039794 155.375992 
L 471.105493 155.193145 
L 475.368289 155.376 
L 506.27356 155.375996 
L 507.339259 155.008483 
L 508.404958 155.376 
L 541.441628 155.376 
L 541.441628 155.376 
" clip-path="url(#p46a8ed2990)" style="fill: none; stroke: #1f77b4; stroke-width: 1.5; stroke-linecap: square"/>
   </g>
   <g id="line2d_21">
    <path d="M 332.564622 155.376 
L 333.630321 149.019639 
L 336.827418 149.462392 
L 340.024515 149.68302 
L 341.090214 150.080273 
L 343.221612 150.120835 
L 344.287311 148.926489 
L 347.484408 148.228118 
L 348.550107 148.612166 
L 349.615806 147.299704 
L 350.681505 148.283375 
L 351.747204 148.539612 
L 354.944301 146.554887 
L 357.075699 146.064559 
L 358.141398 145.504557 
L 359.207097 144.813256 
L 362.404195 144.401356 
L 363.469894 144.854463 
L 364.535593 144.467006 
L 366.666991 145.29143 
L 369.864088 145.760588 
L 370.929787 145.469017 
L 371.995486 143.854843 
L 373.061185 142.823279 
L 374.126884 142.761509 
L 377.323981 143.349943 
L 378.38968 143.232251 
L 379.455379 141.831129 
L 380.521078 142.640781 
L 381.586777 145.823664 
L 384.783874 144.700939 
L 385.849573 144.50133 
L 386.915272 144.704321 
L 387.980971 144.083581 
L 399.70366 143.639814 
L 400.769359 145.110268 
L 401.835058 145.30505 
L 402.900757 146.543363 
L 403.966456 146.333713 
L 408.229252 144.843447 
L 409.294951 145.750079 
L 410.36065 145.776084 
L 411.426349 146.788857 
L 414.623446 148.700194 
L 415.689145 148.525283 
L 416.754844 149.465721 
L 417.820543 149.485108 
L 418.886242 148.507356 
L 422.083339 149.780851 
L 423.149038 149.593138 
L 424.214737 151.532296 
L 425.280436 151.071915 
L 426.346135 152.005531 
L 429.543232 151.806665 
L 430.608931 151.328888 
L 431.67463 149.55584 
L 432.740329 149.912703 
L 433.806028 151.407084 
L 437.003125 152.424679 
L 438.068824 151.669521 
L 439.134523 152.514429 
L 440.200222 151.653012 
L 441.265921 151.75441 
L 444.463018 151.494558 
L 445.528717 151.721415 
L 446.594416 150.701818 
L 447.660115 150.146831 
L 448.725814 148.33665 
L 451.922911 150.65341 
L 452.98861 152.415685 
L 456.185707 151.138391 
L 460.448503 150.399923 
L 461.514202 151.356239 
L 462.579901 154.505383 
L 463.6456 153.935173 
L 466.842697 154.906075 
L 467.908396 155.375999 
L 468.974095 155.376 
L 470.039794 154.767263 
L 471.105493 154.733593 
L 474.30259 154.253535 
L 475.368289 155.375999 
L 497.747968 155.376 
L 498.813667 154.740828 
L 499.879366 155.376 
L 541.441628 155.376 
L 541.441628 155.376 
" clip-path="url(#p46a8ed2990)" style="fill: none; stroke: #ff7f0e; stroke-width: 1.5; stroke-linecap: square"/>
   </g>
   <g id="line2d_22">
    <path d="M 332.564622 155.376 
L 333.630321 130.898261 
L 334.69602 130.837333 
L 335.761719 130.003234 
L 340.024515 129.502313 
L 341.090214 127.648456 
L 342.155913 129.10783 
L 343.221612 130.018438 
L 344.287311 130.414067 
L 347.484408 130.880622 
L 348.550107 131.845259 
L 349.615806 131.242104 
L 350.681505 131.638201 
L 351.747204 131.335962 
L 354.944301 128.930927 
L 356.01 129.537857 
L 357.075699 130.567504 
L 359.207097 131.165046 
L 362.404195 131.279996 
L 363.469894 129.175168 
L 364.535593 129.702 
L 365.601292 130.845639 
L 366.666991 130.179527 
L 369.864088 131.460804 
L 370.929787 129.326566 
L 371.995486 129.886689 
L 373.061185 128.791716 
L 374.126884 129.135395 
L 377.323981 130.614313 
L 378.38968 130.184298 
L 379.455379 129.364314 
L 380.521078 129.594931 
L 381.586777 129.240158 
L 384.783874 129.052356 
L 385.849573 128.533934 
L 386.915272 129.030667 
L 387.980971 130.800656 
L 399.70366 130.141452 
L 400.769359 127.711997 
L 401.835058 127.136024 
L 402.900757 126.977618 
L 403.966456 127.512556 
L 407.163553 127.699758 
L 409.294951 129.009247 
L 410.36065 129.180955 
L 411.426349 128.741248 
L 414.623446 128.244299 
L 415.689145 128.211101 
L 416.754844 128.930975 
L 417.820543 127.648913 
L 418.886242 128.194753 
L 422.083339 128.197126 
L 423.149038 127.748881 
L 424.214737 126.858041 
L 425.280436 128.191964 
L 426.346135 129.250569 
L 429.543232 129.576617 
L 430.608931 128.698001 
L 431.67463 128.134479 
L 432.740329 126.915193 
L 433.806028 126.731156 
L 437.003125 126.46196 
L 438.068824 125.861259 
L 439.134523 124.976739 
L 440.200222 124.833879 
L 441.265921 127.469163 
L 444.463018 127.415402 
L 445.528717 128.045749 
L 446.594416 128.452257 
L 447.660115 131.838878 
L 448.725814 132.251753 
L 451.922911 132.749587 
L 452.98861 130.38682 
L 454.054309 129.248032 
L 455.120008 128.483526 
L 456.185707 127.135148 
L 459.382804 128.080525 
L 460.448503 127.865373 
L 461.514202 126.055202 
L 462.579901 125.17994 
L 463.6456 125.636482 
L 466.842697 126.114798 
L 467.908396 124.961256 
L 468.974095 125.210929 
L 470.039794 127.32867 
L 471.105493 126.648719 
L 474.30259 126.493962 
L 475.368289 125.589978 
L 476.433988 127.244508 
L 477.499687 127.33193 
L 478.565386 128.260543 
L 481.762483 127.802845 
L 482.828182 128.381667 
L 483.893881 128.52678 
L 484.95958 128.9747 
L 486.025279 128.106439 
L 490.288075 126.298513 
L 491.353774 127.550751 
L 492.419473 127.763206 
L 493.485172 127.688917 
L 496.682269 127.768323 
L 497.747968 130.704627 
L 498.813667 131.662845 
L 499.879366 130.205816 
L 500.945065 128.981267 
L 504.142162 127.644246 
L 505.207861 128.280373 
L 506.27356 129.047222 
L 507.339259 127.849354 
L 508.404958 125.154394 
L 511.602055 123.588774 
L 512.667754 127.080765 
L 513.733453 126.67197 
L 514.799153 127.28824 
L 515.864852 129.734307 
L 519.061949 131.224544 
L 520.127648 135.137938 
L 521.193347 137.424536 
L 522.259046 138.569806 
L 523.324745 138.490017 
L 526.521842 137.888201 
L 527.587541 137.568657 
L 528.65324 138.029458 
L 529.718939 136.77743 
L 541.441628 136.551821 
L 541.441628 136.551821 
" clip-path="url(#p46a8ed2990)" style="fill: none; stroke: #2ca02c; stroke-width: 1.5; stroke-linecap: square"/>
   </g>
   <g id="line2d_23">
    <path d="M 332.564622 155.376 
L 541.441628 155.376 
L 541.441628 155.376 
" clip-path="url(#p46a8ed2990)" style="fill: none; stroke: #d62728; stroke-width: 1.5; stroke-linecap: square"/>
   </g>
   <g id="line2d_24">
    <path d="M 332.564622 155.376 
L 541.441628 155.376 
L 541.441628 155.376 
" clip-path="url(#p46a8ed2990)" style="fill: none; stroke: #9467bd; stroke-width: 1.5; stroke-linecap: square"/>
   </g>
   <g id="line2d_25">
    <path d="M 332.564622 155.376 
L 541.441628 155.376 
L 541.441628 155.376 
" clip-path="url(#p46a8ed2990)" style="fill: none; stroke: #8c564b; stroke-width: 1.5; stroke-linecap: square"/>
   </g>
   <g id="line2d_26">
    <path d="M 332.564622 155.376 
L 333.630321 124.91357 
L 334.69602 125.501162 
L 335.761719 124.996375 
L 340.024515 124.844772 
L 341.090214 124.72873 
L 342.155913 125.266252 
L 343.221612 126.239576 
L 344.287311 125.836083 
L 347.484408 126.298923 
L 348.550107 126.267007 
L 349.615806 125.576735 
L 350.681505 125.471652 
L 351.747204 126.505543 
L 354.944301 126.284992 
L 356.01 127.374972 
L 358.141398 125.536142 
L 362.404195 126.199493 
L 364.535593 125.836176 
L 365.601292 125.405529 
L 366.666991 125.531873 
L 369.864088 125.334809 
L 370.929787 124.560239 
L 371.995486 124.276351 
L 373.061185 125.174706 
L 374.126884 126.406824 
L 377.323981 128.22324 
L 378.38968 127.063301 
L 379.455379 127.683871 
L 380.521078 126.756404 
L 381.586777 126.465601 
L 384.783874 126.701955 
L 386.915272 125.472297 
L 387.980971 126.955052 
L 399.70366 127.004273 
L 400.769359 127.936829 
L 401.835058 126.590863 
L 402.900757 125.80157 
L 403.966456 126.271376 
L 407.163553 127.829832 
L 408.229252 128.863226 
L 409.294951 129.10147 
L 410.36065 128.194735 
L 411.426349 126.863804 
L 414.623446 126.511782 
L 415.689145 125.670664 
L 416.754844 125.227475 
L 417.820543 125.134312 
L 418.886242 122.760803 
L 422.083339 122.238894 
L 424.214737 120.984341 
L 425.280436 121.802351 
L 426.346135 123.232634 
L 429.543232 123.90065 
L 430.608931 125.313302 
L 431.67463 125.343191 
L 432.740329 126.227816 
L 433.806028 126.600032 
L 438.068824 126.934513 
L 439.134523 126.165238 
L 440.200222 126.331015 
L 441.265921 126.780859 
L 444.463018 127.313932 
L 445.528717 126.759969 
L 446.594416 127.736046 
L 447.660115 129.355189 
L 448.725814 130.22683 
L 452.98861 131.002809 
L 454.054309 131.855562 
L 455.120008 132.883411 
L 456.185707 131.958352 
L 459.382804 133.083932 
L 460.448503 132.317415 
L 461.514202 131.387948 
L 462.579901 132.905388 
L 463.6456 132.84626 
L 466.842697 133.140036 
L 467.908396 133.541362 
L 468.974095 134.200367 
L 470.039794 134.123504 
L 471.105493 135.186459 
L 474.30259 133.827673 
L 476.433988 133.536752 
L 477.499687 133.784754 
L 478.565386 134.593284 
L 481.762483 134.05644 
L 482.828182 133.034766 
L 483.893881 134.366667 
L 490.288075 133.539421 
L 491.353774 133.749733 
L 492.419473 134.21282 
L 493.485172 133.878569 
L 496.682269 134.604963 
L 497.747968 133.616672 
L 498.813667 135.320746 
L 499.879366 135.733152 
L 500.945065 136.744948 
L 504.142162 137.706265 
L 505.207861 138.740892 
L 506.27356 138.45908 
L 507.339259 139.030421 
L 508.404958 139.330036 
L 511.602055 137.913205 
L 512.667754 137.893483 
L 513.733453 137.718672 
L 514.799153 137.997432 
L 515.864852 138.942131 
L 519.061949 137.159268 
L 520.127648 133.507482 
L 521.193347 133.161423 
L 522.259046 133.083653 
L 523.324745 133.621422 
L 527.587541 133.211128 
L 528.65324 132.142064 
L 529.718939 130.738772 
L 541.441628 129.623141 
L 541.441628 129.623141 
" clip-path="url(#p46a8ed2990)" style="fill: none; stroke: #e377c2; stroke-width: 1.5; stroke-linecap: square"/>
   </g>
   <g id="line2d_27">
    <path d="M 332.564622 155.376 
L 333.630321 98.320605 
L 334.69602 94.522197 
L 335.761719 93.077211 
L 336.827418 93.279495 
L 340.024515 92.614514 
L 341.090214 90.245743 
L 342.155913 83.046334 
L 343.221612 83.560128 
L 344.287311 87.283123 
L 347.484408 85.452801 
L 348.550107 85.305446 
L 349.615806 86.7471 
L 350.681505 83.889703 
L 351.747204 84.655409 
L 354.944301 89.397176 
L 356.01 85.919908 
L 357.075699 89.811504 
L 358.141398 91.515927 
L 359.207097 88.947175 
L 362.404195 90.282793 
L 364.535593 97.706116 
L 365.601292 94.051878 
L 366.666991 93.916824 
L 369.864088 91.939467 
L 370.929787 95.758577 
L 371.995486 97.359042 
L 373.061185 100.402594 
L 374.126884 96.966498 
L 377.323981 94.389775 
L 378.38968 93.342836 
L 379.455379 97.428038 
L 380.521078 98.211384 
L 381.586777 94.885771 
L 384.783874 95.815734 
L 385.849573 98.841298 
L 386.915272 101.25489 
L 387.980971 99.409635 
L 399.70366 102.737037 
L 400.769359 101.259546 
L 401.835058 103.034297 
L 402.900757 102.121015 
L 403.966456 99.86837 
L 407.163553 104.297448 
L 409.294951 103.404924 
L 410.36065 105.175782 
L 411.426349 107.413371 
L 414.623446 102.721451 
L 415.689145 101.572084 
L 416.754844 101.153662 
L 417.820543 98.693531 
L 418.886242 105.054742 
L 422.083339 104.835306 
L 423.149038 103.959544 
L 424.214737 94.395858 
L 425.280436 93.282727 
L 426.346135 88.847131 
L 429.543232 90.07587 
L 430.608931 86.072522 
L 431.67463 88.80187 
L 432.740329 88.676092 
L 433.806028 84.451779 
L 437.003125 85.819071 
L 438.068824 84.453017 
L 439.134523 85.183759 
L 440.200222 88.672731 
L 441.265921 86.892053 
L 444.463018 87.477794 
L 445.528717 85.606201 
L 446.594416 87.808159 
L 448.725814 87.315811 
L 451.922911 83.702611 
L 452.98861 83.258375 
L 454.054309 82.36598 
L 455.120008 86.655779 
L 456.185707 85.772743 
L 459.382804 80.329498 
L 460.448503 75.362959 
L 461.514202 73.373399 
L 462.579901 67.793289 
L 463.6456 67.966126 
L 466.842697 66.223093 
L 467.908396 66.505762 
L 468.974095 65.596707 
L 470.039794 64.164571 
L 471.105493 63.998084 
L 474.30259 65.808871 
L 475.368289 65.687499 
L 476.433988 64.226761 
L 477.499687 63.891323 
L 478.565386 62.154173 
L 482.828182 63.59157 
L 483.893881 62.114595 
L 484.95958 61.798967 
L 486.025279 62.735233 
L 490.288075 65.170115 
L 491.353774 63.707523 
L 492.419473 63.031974 
L 493.485172 63.440515 
L 496.682269 62.634715 
L 497.747968 63.36529 
L 498.813667 58.659582 
L 499.879366 60.038242 
L 500.945065 60.247372 
L 504.142162 59.657507 
L 505.207861 62.103811 
L 506.27356 63.296585 
L 507.339259 66.511483 
L 508.404958 65.339866 
L 511.602055 65.430931 
L 512.667754 63.888996 
L 514.799153 66.063683 
L 515.864852 65.496099 
L 519.061949 71.020828 
L 520.127648 72.40726 
L 521.193347 75.606221 
L 522.259046 73.755745 
L 523.324745 73.483073 
L 526.521842 73.623593 
L 527.587541 70.632868 
L 528.65324 76.906477 
L 529.718939 75.960832 
L 541.441628 75.136487 
L 541.441628 75.136487 
" clip-path="url(#p46a8ed2990)" style="fill: none; stroke: #7f7f7f; stroke-width: 1.5; stroke-linecap: square"/>
   </g>
   <g id="line2d_28">
    <path d="M 332.564622 155.376 
L 541.441628 155.376 
L 541.441628 155.376 
" clip-path="url(#p46a8ed2990)" style="fill: none; stroke: #bcbd22; stroke-width: 1.5; stroke-linecap: square"/>
   </g>
   <g id="line2d_29">
    <path d="M 332.564622 155.376 
L 333.630321 132.607926 
L 334.69602 135.716232 
L 335.761719 138.313353 
L 336.827418 138.172919 
L 340.024515 139.115382 
L 341.090214 143.056797 
L 342.155913 148.202819 
L 344.287311 143.300238 
L 347.484408 144.899536 
L 348.550107 143.730122 
L 349.615806 144.894357 
L 350.681505 146.477069 
L 351.747204 144.723473 
L 354.944301 144.592019 
L 356.01 146.595568 
L 357.075699 142.870331 
L 358.141398 142.28382 
L 359.207097 145.145269 
L 362.404195 143.596362 
L 363.469894 141.619948 
L 364.535593 138.048702 
L 365.601292 140.527889 
L 366.666991 140.840347 
L 369.864088 141.264332 
L 370.929787 140.645601 
L 371.995486 140.383075 
L 373.061185 138.567711 
L 374.126884 140.489774 
L 377.323981 139.18273 
L 378.38968 141.937314 
L 379.455379 139.452648 
L 380.521078 138.556505 
L 381.586777 139.344851 
L 384.783874 139.490186 
L 385.849573 137.775054 
L 386.915272 135.297825 
L 387.980971 134.511076 
L 399.70366 132.237425 
L 400.769359 133.741361 
L 401.835058 133.693767 
L 402.900757 134.316434 
L 403.966456 135.773984 
L 407.163553 130.668195 
L 408.229252 129.884322 
L 409.294951 128.494279 
L 410.36065 127.432444 
L 411.426349 125.95272 
L 414.623446 129.582274 
L 415.689145 131.780869 
L 416.754844 130.982167 
L 417.820543 134.798136 
L 418.886242 131.242346 
L 422.083339 130.707823 
L 423.149038 132.886592 
L 424.214737 141.989464 
L 425.280436 141.411042 
L 426.346135 142.424135 
L 429.543232 140.4002 
L 430.608931 144.347288 
L 431.67463 143.92462 
L 432.740329 144.028201 
L 433.806028 146.570799 
L 437.003125 144.150837 
L 438.068824 146.841808 
L 439.134523 146.920116 
L 440.200222 144.269364 
L 441.265921 142.863515 
L 444.463018 142.058314 
L 445.528717 143.878895 
L 447.660115 139.738754 
L 448.725814 139.590612 
L 451.922911 142.407423 
L 452.98861 145.025907 
L 454.054309 145.751164 
L 455.120008 142.890923 
L 456.185707 146.98495 
L 459.382804 149.383838 
L 460.448503 149.814336 
L 461.514202 153.587239 
L 462.579901 155.376 
L 496.682269 155.376 
L 497.747968 152.697411 
L 498.813667 155.375999 
L 499.879366 154.406791 
L 500.945065 154.410414 
L 504.142162 155.375995 
L 505.207861 151.258927 
L 506.27356 149.581117 
L 507.339259 147.36026 
L 508.404958 150.559704 
L 511.602055 153.451104 
L 512.667754 151.520757 
L 513.733453 151.083758 
L 514.799153 149.034645 
L 515.864852 146.211462 
L 520.127648 139.331321 
L 521.193347 134.191821 
L 522.259046 134.974796 
L 523.324745 134.789488 
L 526.521842 135.636256 
L 527.587541 138.971352 
L 528.65324 133.306003 
L 529.718939 136.906965 
L 541.441628 139.072551 
L 541.441628 139.072551 
" clip-path="url(#p46a8ed2990)" style="fill: none; stroke: #17becf; stroke-width: 1.5; stroke-linecap: square"/>
   </g>
   <g id="line2d_30">
    <path d="M 332.564622 14.256 
L 333.630321 155.376 
L 541.441628 155.376 
L 541.441628 155.376 
" clip-path="url(#p46a8ed2990)" style="fill: none; stroke: #1f77b4; stroke-width: 1.5; stroke-linecap: square"/>
   </g>
   <g id="patch_8">
    <path d="M 322.120772 162.432 
L 322.120772 7.2 
" style="fill: none; stroke: #000000; stroke-width: 0.8; stroke-linejoin: miter; stroke-linecap: square"/>
   </g>
   <g id="patch_9">
    <path d="M 551.885478 162.432 
L 551.885478 7.2 
" style="fill: none; stroke: #000000; stroke-width: 0.8; stroke-linejoin: miter; stroke-linecap: square"/>
   </g>
   <g id="patch_10">
    <path d="M 322.120772 162.432 
L 551.885478 162.432 
" style="fill: none; stroke: #000000; stroke-width: 0.8; stroke-linejoin: miter; stroke-linecap: square"/>
   </g>
   <g id="patch_11">
    <path d="M 322.120772 7.2 
L 551.885478 7.2 
" style="fill: none; stroke: #000000; stroke-width: 0.8; stroke-linejoin: miter; stroke-linecap: square"/>
   </g>
   <g id="legend_1">
    <g id="patch_12">
     <path d="M 457.885478 148.60625 
L 544.885478 148.60625 
Q 546.885478 148.60625 546.885478 146.60625 
L 546.885478 14.2 
Q 546.885478 12.2 544.885478 12.2 
L 457.885478 12.2 
Q 455.885478 12.2 455.885478 14.2 
L 455.885478 146.60625 
Q 455.885478 148.60625 457.885478 148.60625 
z
" style="fill: #ffffff; opacity: 0.8; stroke: #cccccc; stroke-linejoin: miter"/>
    </g>
    <g id="line2d_31">
     <path d="M 459.885478 19.73125 
L 469.885478 19.73125 
L 479.885478 19.73125 
" style="fill: none; stroke: #1f77b4; stroke-width: 1.5; stroke-linecap: square"/>
    </g>
    <g id="text_20">
     <!-- w_002027.SZ -->
     <g transform="translate(487.885478 23.23125) scale(0.1 -0.1)">
      <defs>
       <path id="SimHei-77" d="M 3075 2925 
L 2450 75 
L 1975 75 
L 1575 2250 
L 1525 2250 
L 1125 75 
L 650 75 
L 25 2925 
L 550 2925 
L 875 1050 
L 925 1050 
L 1275 2925 
L 1825 2925 
L 2175 1050 
L 2225 1050 
L 2550 2925 
L 3075 2925 
z
" transform="scale(0.015625)"/>
       <path id="SimHei-5f" d="M 3150 -850 
L 0 -850 
L 0 -550 
L 3150 -550 
L 3150 -850 
z
" transform="scale(0.015625)"/>
       <path id="SimHei-37" d="M 850 150 
Q 1300 2050 2425 3925 
L 275 3925 
L 275 4375 
L 2950 4375 
L 2950 3950 
Q 1775 2050 1400 150 
L 850 150 
z
" transform="scale(0.015625)"/>
       <path id="SimHei-5a" d="M 2900 125 
L 225 125 
L 225 600 
L 2250 3925 
L 375 3925 
L 375 4400 
L 2825 4400 
L 2825 3925 
L 800 600 
L 2900 600 
L 2900 125 
z
" transform="scale(0.015625)"/>
      </defs>
      <use xlink:href="#SimHei-77"/>
      <use xlink:href="#SimHei-5f" x="50"/>
      <use xlink:href="#SimHei-30" x="100"/>
      <use xlink:href="#SimHei-30" x="150"/>
      <use xlink:href="#SimHei-32" x="200"/>
      <use xlink:href="#SimHei-30" x="250"/>
      <use xlink:href="#SimHei-32" x="300"/>
      <use xlink:href="#SimHei-37" x="350"/>
      <use xlink:href="#SimHei-2e" x="400"/>
      <use xlink:href="#SimHei-53" x="450"/>
      <use xlink:href="#SimHei-5a" x="500"/>
     </g>
    </g>
    <g id="line2d_32">
     <path d="M 459.885478 33.090625 
L 469.885478 33.090625 
L 479.885478 33.090625 
" style="fill: none; stroke: #ff7f0e; stroke-width: 1.5; stroke-linecap: square"/>
    </g>
    <g id="text_21">
     <!-- w_002371.SZ -->
     <g transform="translate(487.885478 36.590625) scale(0.1 -0.1)">
      <use xlink:href="#SimHei-77"/>
      <use xlink:href="#SimHei-5f" x="50"/>
      <use xlink:href="#SimHei-30" x="100"/>
      <use xlink:href="#SimHei-30" x="150"/>
      <use xlink:href="#SimHei-32" x="200"/>
      <use xlink:href="#SimHei-33" x="250"/>
      <use xlink:href="#SimHei-37" x="300"/>
      <use xlink:href="#SimHei-31" x="350"/>
      <use xlink:href="#SimHei-2e" x="400"/>
      <use xlink:href="#SimHei-53" x="450"/>
      <use xlink:href="#SimHei-5a" x="500"/>
     </g>
    </g>
    <g id="line2d_33">
     <path d="M 459.885478 46.41875 
L 469.885478 46.41875 
L 479.885478 46.41875 
" style="fill: none; stroke: #2ca02c; stroke-width: 1.5; stroke-linecap: square"/>
    </g>
    <g id="text_22">
     <!-- w_600009.SH -->
     <g transform="translate(487.885478 49.91875) scale(0.1 -0.1)">
      <defs>
       <path id="SimHei-48" d="M 2850 125 
L 2275 125 
L 2275 2125 
L 850 2125 
L 850 125 
L 275 125 
L 275 4400 
L 850 4400 
L 850 2600 
L 2275 2600 
L 2275 4400 
L 2850 4400 
L 2850 125 
z
" transform="scale(0.015625)"/>
      </defs>
      <use xlink:href="#SimHei-77"/>
      <use xlink:href="#SimHei-5f" x="50"/>
      <use xlink:href="#SimHei-36" x="100"/>
      <use xlink:href="#SimHei-30" x="150"/>
      <use xlink:href="#SimHei-30" x="200"/>
      <use xlink:href="#SimHei-30" x="250"/>
      <use xlink:href="#SimHei-30" x="300"/>
      <use xlink:href="#SimHei-39" x="350"/>
      <use xlink:href="#SimHei-2e" x="400"/>
      <use xlink:href="#SimHei-53" x="450"/>
      <use xlink:href="#SimHei-48" x="500"/>
     </g>
    </g>
    <g id="line2d_34">
     <path d="M 459.885478 59.778125 
L 469.885478 59.778125 
L 479.885478 59.778125 
" style="fill: none; stroke: #d62728; stroke-width: 1.5; stroke-linecap: square"/>
    </g>
    <g id="text_23">
     <!-- w_600029.SH -->
     <g transform="translate(487.885478 63.278125) scale(0.1 -0.1)">
      <use xlink:href="#SimHei-77"/>
      <use xlink:href="#SimHei-5f" x="50"/>
      <use xlink:href="#SimHei-36" x="100"/>
      <use xlink:href="#SimHei-30" x="150"/>
      <use xlink:href="#SimHei-30" x="200"/>
      <use xlink:href="#SimHei-30" x="250"/>
      <use xlink:href="#SimHei-32" x="300"/>
      <use xlink:href="#SimHei-39" x="350"/>
      <use xlink:href="#SimHei-2e" x="400"/>
      <use xlink:href="#SimHei-53" x="450"/>
      <use xlink:href="#SimHei-48" x="500"/>
     </g>
    </g>
    <g id="line2d_35">
     <path d="M 459.885478 73.1375 
L 469.885478 73.1375 
L 479.885478 73.1375 
" style="fill: none; stroke: #9467bd; stroke-width: 1.5; stroke-linecap: square"/>
    </g>
    <g id="text_24">
     <!-- w_600183.SH -->
     <g transform="translate(487.885478 76.6375) scale(0.1 -0.1)">
      <use xlink:href="#SimHei-77"/>
      <use xlink:href="#SimHei-5f" x="50"/>
      <use xlink:href="#SimHei-36" x="100"/>
      <use xlink:href="#SimHei-30" x="150"/>
      <use xlink:href="#SimHei-30" x="200"/>
      <use xlink:href="#SimHei-31" x="250"/>
      <use xlink:href="#SimHei-38" x="300"/>
      <use xlink:href="#SimHei-33" x="350"/>
      <use xlink:href="#SimHei-2e" x="400"/>
      <use xlink:href="#SimHei-53" x="450"/>
      <use xlink:href="#SimHei-48" x="500"/>
     </g>
    </g>
    <g id="line2d_36">
     <path d="M 459.885478 86.465625 
L 469.885478 86.465625 
L 479.885478 86.465625 
" style="fill: none; stroke: #8c564b; stroke-width: 1.5; stroke-linecap: square"/>
    </g>
    <g id="text_25">
     <!-- w_600406.SH -->
     <g transform="translate(487.885478 89.965625) scale(0.1 -0.1)">
      <use xlink:href="#SimHei-77"/>
      <use xlink:href="#SimHei-5f" x="50"/>
      <use xlink:href="#SimHei-36" x="100"/>
      <use xlink:href="#SimHei-30" x="150"/>
      <use xlink:href="#SimHei-30" x="200"/>
      <use xlink:href="#SimHei-34" x="250"/>
      <use xlink:href="#SimHei-30" x="300"/>
      <use xlink:href="#SimHei-36" x="350"/>
      <use xlink:href="#SimHei-2e" x="400"/>
      <use xlink:href="#SimHei-53" x="450"/>
      <use xlink:href="#SimHei-48" x="500"/>
     </g>
    </g>
    <g id="line2d_37">
     <path d="M 459.885478 99.79375 
L 469.885478 99.79375 
L 479.885478 99.79375 
" style="fill: none; stroke: #e377c2; stroke-width: 1.5; stroke-linecap: square"/>
    </g>
    <g id="text_26">
     <!-- w_600900.SH -->
     <g transform="translate(487.885478 103.29375) scale(0.1 -0.1)">
      <use xlink:href="#SimHei-77"/>
      <use xlink:href="#SimHei-5f" x="50"/>
      <use xlink:href="#SimHei-36" x="100"/>
      <use xlink:href="#SimHei-30" x="150"/>
      <use xlink:href="#SimHei-30" x="200"/>
      <use xlink:href="#SimHei-39" x="250"/>
      <use xlink:href="#SimHei-30" x="300"/>
      <use xlink:href="#SimHei-30" x="350"/>
      <use xlink:href="#SimHei-2e" x="400"/>
      <use xlink:href="#SimHei-53" x="450"/>
      <use xlink:href="#SimHei-48" x="500"/>
     </g>
    </g>
    <g id="line2d_38">
     <path d="M 459.885478 113.121875 
L 469.885478 113.121875 
L 479.885478 113.121875 
" style="fill: none; stroke: #7f7f7f; stroke-width: 1.5; stroke-linecap: square"/>
    </g>
    <g id="text_27">
     <!-- w_601989.SH -->
     <g transform="translate(487.885478 116.621875) scale(0.1 -0.1)">
      <use xlink:href="#SimHei-77"/>
      <use xlink:href="#SimHei-5f" x="50"/>
      <use xlink:href="#SimHei-36" x="100"/>
      <use xlink:href="#SimHei-30" x="150"/>
      <use xlink:href="#SimHei-31" x="200"/>
      <use xlink:href="#SimHei-39" x="250"/>
      <use xlink:href="#SimHei-38" x="300"/>
      <use xlink:href="#SimHei-39" x="350"/>
      <use xlink:href="#SimHei-2e" x="400"/>
      <use xlink:href="#SimHei-53" x="450"/>
      <use xlink:href="#SimHei-48" x="500"/>
     </g>
    </g>
    <g id="line2d_39">
     <path d="M 459.885478 126.45 
L 469.885478 126.45 
L 479.885478 126.45 
" style="fill: none; stroke: #bcbd22; stroke-width: 1.5; stroke-linecap: square"/>
    </g>
    <g id="text_28">
     <!-- w_601998.SH -->
     <g transform="translate(487.885478 129.95) scale(0.1 -0.1)">
      <use xlink:href="#SimHei-77"/>
      <use xlink:href="#SimHei-5f" x="50"/>
      <use xlink:href="#SimHei-36" x="100"/>
      <use xlink:href="#SimHei-30" x="150"/>
      <use xlink:href="#SimHei-31" x="200"/>
      <use xlink:href="#SimHei-39" x="250"/>
      <use xlink:href="#SimHei-39" x="300"/>
      <use xlink:href="#SimHei-38" x="350"/>
      <use xlink:href="#SimHei-2e" x="400"/>
      <use xlink:href="#SimHei-53" x="450"/>
      <use xlink:href="#SimHei-48" x="500"/>
     </g>
    </g>
    <g id="line2d_40">
     <path d="M 459.885478 139.778125 
L 469.885478 139.778125 
L 479.885478 139.778125 
" style="fill: none; stroke: #17becf; stroke-width: 1.5; stroke-linecap: square"/>
    </g>
    <g id="text_29">
     <!-- w_CASH -->
     <g transform="translate(487.885478 143.278125) scale(0.1 -0.1)">
      <defs>
       <path id="SimHei-41" d="M 3075 125 
L 2475 125 
L 2125 1450 
L 1025 1450 
L 675 125 
L 75 125 
L 1325 4450 
L 1825 4450 
L 3075 125 
z
M 2000 1925 
L 1600 3450 
L 1550 3450 
L 1150 1925 
L 2000 1925 
z
" transform="scale(0.015625)"/>
      </defs>
      <use xlink:href="#SimHei-77"/>
      <use xlink:href="#SimHei-5f" x="50"/>
      <use xlink:href="#SimHei-43" x="100"/>
      <use xlink:href="#SimHei-41" x="150"/>
      <use xlink:href="#SimHei-53" x="200"/>
      <use xlink:href="#SimHei-48" x="250"/>
     </g>
    </g>
   </g>
  </g>
  <g id="axes_3">
   <g id="patch_13">
    <path d="M 597.838419 162.432 
L 827.603125 162.432 
L 827.603125 7.2 
L 597.838419 7.2 
z
" style="fill: #ffffff"/>
   </g>
   <g id="matplotlib.axis_5">
    <g id="xtick_7">
     <g id="line2d_41">
      <g>
       <use xlink:href="#m4a673fb78a" x="654.107327" y="162.432" style="stroke: #000000; stroke-width: 0.8"/>
      </g>
     </g>
     <g id="text_30">
      <!-- 2023-09-20 -->
      <g transform="translate(629.107327 176.307) scale(0.1 -0.1)">
       <use xlink:href="#SimHei-32"/>
       <use xlink:href="#SimHei-30" x="50"/>
       <use xlink:href="#SimHei-32" x="100"/>
       <use xlink:href="#SimHei-33" x="150"/>
       <use xlink:href="#SimHei-2d" x="200"/>
       <use xlink:href="#SimHei-30" x="250"/>
       <use xlink:href="#SimHei-39" x="300"/>
       <use xlink:href="#SimHei-2d" x="350"/>
       <use xlink:href="#SimHei-32" x="400"/>
       <use xlink:href="#SimHei-30" x="450"/>
      </g>
     </g>
    </g>
    <g id="xtick_8">
     <g id="line2d_42">
      <g>
       <use xlink:href="#m4a673fb78a" x="718.049267" y="162.432" style="stroke: #000000; stroke-width: 0.8"/>
      </g>
     </g>
     <g id="text_31">
      <!-- 2023-11-19 -->
      <g transform="translate(693.049267 176.307) scale(0.1 -0.1)">
       <use xlink:href="#SimHei-32"/>
       <use xlink:href="#SimHei-30" x="50"/>
       <use xlink:href="#SimHei-32" x="100"/>
       <use xlink:href="#SimHei-33" x="150"/>
       <use xlink:href="#SimHei-2d" x="200"/>
       <use xlink:href="#SimHei-31" x="250"/>
       <use xlink:href="#SimHei-31" x="300"/>
       <use xlink:href="#SimHei-2d" x="350"/>
       <use xlink:href="#SimHei-31" x="400"/>
       <use xlink:href="#SimHei-39" x="450"/>
      </g>
     </g>
    </g>
    <g id="xtick_9">
     <g id="line2d_43">
      <g>
       <use xlink:href="#m4a673fb78a" x="781.991208" y="162.432" style="stroke: #000000; stroke-width: 0.8"/>
      </g>
     </g>
     <g id="text_32">
      <!-- 2024-01-18 -->
      <g transform="translate(756.991208 176.307) scale(0.1 -0.1)">
       <use xlink:href="#SimHei-32"/>
       <use xlink:href="#SimHei-30" x="50"/>
       <use xlink:href="#SimHei-32" x="100"/>
       <use xlink:href="#SimHei-34" x="150"/>
       <use xlink:href="#SimHei-2d" x="200"/>
       <use xlink:href="#SimHei-30" x="250"/>
       <use xlink:href="#SimHei-31" x="300"/>
       <use xlink:href="#SimHei-2d" x="350"/>
       <use xlink:href="#SimHei-31" x="400"/>
       <use xlink:href="#SimHei-38" x="450"/>
      </g>
     </g>
    </g>
   </g>
   <g id="matplotlib.axis_6">
    <g id="ytick_13">
     <g id="line2d_44">
      <g>
       <use xlink:href="#m090f9e5b8b" x="597.838419" y="155.376" style="stroke: #000000; stroke-width: 0.8"/>
      </g>
     </g>
     <g id="text_33">
      <!-- 0.0000 -->
      <g transform="translate(560.838419 158.8135) scale(0.1 -0.1)">
       <use xlink:href="#SimHei-30"/>
       <use xlink:href="#SimHei-2e" x="50"/>
       <use xlink:href="#SimHei-30" x="100"/>
       <use xlink:href="#SimHei-30" x="150"/>
       <use xlink:href="#SimHei-30" x="200"/>
       <use xlink:href="#SimHei-30" x="250"/>
      </g>
     </g>
    </g>
    <g id="ytick_14">
     <g id="line2d_45">
      <g>
       <use xlink:href="#m090f9e5b8b" x="597.838419" y="127.152" style="stroke: #000000; stroke-width: 0.8"/>
      </g>
     </g>
     <g id="text_34">
      <!-- 0.0005 -->
      <g transform="translate(560.838419 130.5895) scale(0.1 -0.1)">
       <defs>
        <path id="SimHei-35" d="M 550 1325 
Q 725 650 1150 575 
Q 1575 500 1837 662 
Q 2100 825 2212 1087 
Q 2325 1350 2312 1675 
Q 2300 2000 2137 2225 
Q 1975 2450 1725 2525 
Q 1475 2600 1162 2525 
Q 850 2450 650 2175 
L 225 2225 
Q 275 2375 700 4375 
L 2675 4375 
L 2675 3925 
L 1075 3925 
Q 950 3250 825 2850 
Q 1200 3025 1525 3012 
Q 1850 3000 2150 2862 
Q 2450 2725 2587 2487 
Q 2725 2250 2787 2012 
Q 2850 1775 2837 1500 
Q 2825 1225 2725 937 
Q 2625 650 2425 462 
Q 2225 275 1937 162 
Q 1650 50 1275 75 
Q 900 100 562 350 
Q 225 600 100 1200 
L 550 1325 
z
" transform="scale(0.015625)"/>
       </defs>
       <use xlink:href="#SimHei-30"/>
       <use xlink:href="#SimHei-2e" x="50"/>
       <use xlink:href="#SimHei-30" x="100"/>
       <use xlink:href="#SimHei-30" x="150"/>
       <use xlink:href="#SimHei-30" x="200"/>
       <use xlink:href="#SimHei-35" x="250"/>
      </g>
     </g>
    </g>
    <g id="ytick_15">
     <g id="line2d_46">
      <g>
       <use xlink:href="#m090f9e5b8b" x="597.838419" y="98.928" style="stroke: #000000; stroke-width: 0.8"/>
      </g>
     </g>
     <g id="text_35">
      <!-- 0.0010 -->
      <g transform="translate(560.838419 102.3655) scale(0.1 -0.1)">
       <use xlink:href="#SimHei-30"/>
       <use xlink:href="#SimHei-2e" x="50"/>
       <use xlink:href="#SimHei-30" x="100"/>
       <use xlink:href="#SimHei-30" x="150"/>
       <use xlink:href="#SimHei-31" x="200"/>
       <use xlink:href="#SimHei-30" x="250"/>
      </g>
     </g>
    </g>
    <g id="ytick_16">
     <g id="line2d_47">
      <g>
       <use xlink:href="#m090f9e5b8b" x="597.838419" y="70.704" style="stroke: #000000; stroke-width: 0.8"/>
      </g>
     </g>
     <g id="text_36">
      <!-- 0.0015 -->
      <g transform="translate(560.838419 74.1415) scale(0.1 -0.1)">
       <use xlink:href="#SimHei-30"/>
       <use xlink:href="#SimHei-2e" x="50"/>
       <use xlink:href="#SimHei-30" x="100"/>
       <use xlink:href="#SimHei-30" x="150"/>
       <use xlink:href="#SimHei-31" x="200"/>
       <use xlink:href="#SimHei-35" x="250"/>
      </g>
     </g>
    </g>
    <g id="ytick_17">
     <g id="line2d_48">
      <g>
       <use xlink:href="#m090f9e5b8b" x="597.838419" y="42.48" style="stroke: #000000; stroke-width: 0.8"/>
      </g>
     </g>
     <g id="text_37">
      <!-- 0.0020 -->
      <g transform="translate(560.838419 45.9175) scale(0.1 -0.1)">
       <use xlink:href="#SimHei-30"/>
       <use xlink:href="#SimHei-2e" x="50"/>
       <use xlink:href="#SimHei-30" x="100"/>
       <use xlink:href="#SimHei-30" x="150"/>
       <use xlink:href="#SimHei-32" x="200"/>
       <use xlink:href="#SimHei-30" x="250"/>
      </g>
     </g>
    </g>
    <g id="ytick_18">
     <g id="line2d_49">
      <g>
       <use xlink:href="#m090f9e5b8b" x="597.838419" y="14.256" style="stroke: #000000; stroke-width: 0.8"/>
      </g>
     </g>
     <g id="text_38">
      <!-- 0.0025 -->
      <g transform="translate(560.838419 17.6935) scale(0.1 -0.1)">
       <use xlink:href="#SimHei-30"/>
       <use xlink:href="#SimHei-2e" x="50"/>
       <use xlink:href="#SimHei-30" x="100"/>
       <use xlink:href="#SimHei-30" x="150"/>
       <use xlink:href="#SimHei-32" x="200"/>
       <use xlink:href="#SimHei-35" x="250"/>
      </g>
     </g>
    </g>
   </g>
   <g id="line2d_50">
    <path d="M 608.282269 14.256 
L 609.347968 147.90504 
L 610.413667 150.148875 
L 611.479366 154.022684 
L 614.676463 153.223194 
L 615.742162 146.614822 
L 616.807861 141.601783 
L 617.87356 150.382209 
L 618.939259 147.190942 
L 622.136356 150.400285 
L 623.202055 152.499545 
L 624.267754 148.714607 
L 625.333453 147.708737 
L 626.399153 150.312482 
L 629.59625 146.063044 
L 630.661949 146.079476 
L 631.727648 145.723462 
L 632.793347 151.022556 
L 633.859046 148.028862 
L 637.056143 152.160345 
L 638.121842 146.132496 
L 639.187541 146.287197 
L 640.25324 148.927833 
L 641.318939 154.229735 
L 644.516036 151.275465 
L 645.581735 147.27862 
L 646.647434 150.168714 
L 647.713133 145.979792 
L 648.778832 148.086924 
L 651.975929 148.193562 
L 653.041628 149.659651 
L 654.107327 145.647937 
L 655.173026 151.746867 
L 656.238725 146.706612 
L 659.435822 152.717152 
L 660.501521 149.066308 
L 661.56722 148.520026 
L 662.632919 147.259387 
L 674.355608 148.372544 
L 675.421307 147.964428 
L 676.487006 150.844086 
L 677.552705 150.260977 
L 678.618404 151.601959 
L 681.815501 142.764635 
L 682.8812 151.393614 
L 683.946899 152.121788 
L 685.012598 151.463285 
L 686.078297 148.683458 
L 689.275394 143.683641 
L 690.341093 149.882287 
L 691.406792 151.536361 
L 692.472491 147.919205 
L 693.53819 142.292064 
L 696.735287 151.004743 
L 697.800986 150.680316 
L 698.866685 132.993216 
L 699.932384 151.742317 
L 700.998083 145.950107 
L 704.19518 151.102161 
L 705.260879 144.584853 
L 706.326578 149.759063 
L 707.392277 152.111232 
L 708.457976 146.845645 
L 711.655073 150.400791 
L 712.720772 149.807114 
L 713.786471 151.601015 
L 714.85217 147.016005 
L 715.917869 148.884901 
L 719.114966 152.25224 
L 720.180665 150.042875 
L 721.246364 148.339092 
L 722.312063 144.496528 
L 723.377762 151.501141 
L 726.574859 142.512069 
L 727.640558 146.068096 
L 728.706257 150.584022 
L 729.771956 143.690262 
L 730.837655 146.690459 
L 734.034752 143.489233 
L 735.100451 143.250385 
L 736.16615 146.024395 
L 737.231849 142.287642 
L 738.297548 153.224403 
L 741.494645 151.424782 
L 743.626043 154.125643 
L 744.691742 151.195746 
L 745.757441 153.714462 
L 748.954538 150.154587 
L 750.020237 153.100461 
L 751.085936 152.382548 
L 752.151635 152.838491 
L 753.217334 152.395624 
L 756.414431 152.609422 
L 757.48013 153.178856 
L 758.545829 150.138257 
L 759.611528 152.736939 
L 760.677227 153.410564 
L 764.940023 148.523825 
L 766.005722 152.264706 
L 767.071421 154.379595 
L 768.13712 154.158665 
L 771.334217 153.914903 
L 772.399916 147.897772 
L 773.465615 144.589854 
L 774.531314 151.918565 
L 775.597013 152.350716 
L 778.79411 151.225657 
L 779.859809 147.141859 
L 780.925508 151.131223 
L 781.991208 149.843407 
L 783.056907 147.944322 
L 786.254004 149.576796 
L 787.319703 148.355378 
L 788.385402 152.245085 
L 789.451101 151.500002 
L 790.5168 149.901392 
L 793.713897 142.359992 
L 794.779596 144.798748 
L 795.845295 144.094119 
L 796.910994 150.581428 
L 797.976693 153.937449 
L 801.17379 152.984457 
L 803.305188 141.941101 
L 804.370887 148.63031 
L 816.093576 150.69526 
L 817.159275 155.376 
L 817.159275 155.376 
" clip-path="url(#pa5688221c2)" style="fill: none; stroke: #1f77b4; stroke-width: 1.5; stroke-linecap: square"/>
   </g>
   <g id="patch_14">
    <path d="M 597.838419 162.432 
L 597.838419 7.2 
" style="fill: none; stroke: #000000; stroke-width: 0.8; stroke-linejoin: miter; stroke-linecap: square"/>
   </g>
   <g id="patch_15">
    <path d="M 827.603125 162.432 
L 827.603125 7.2 
" style="fill: none; stroke: #000000; stroke-width: 0.8; stroke-linejoin: miter; stroke-linecap: square"/>
   </g>
   <g id="patch_16">
    <path d="M 597.838419 162.432 
L 827.603125 162.432 
" style="fill: none; stroke: #000000; stroke-width: 0.8; stroke-linejoin: miter; stroke-linecap: square"/>
   </g>
   <g id="patch_17">
    <path d="M 597.838419 7.2 
L 827.603125 7.2 
" style="fill: none; stroke: #000000; stroke-width: 0.8; stroke-linejoin: miter; stroke-linecap: square"/>
   </g>
  </g>
 </g>
 <defs>
  <clipPath id="pf8cbb220a2">
   <rect x="46.403125" y="7.2" width="229.764706" height="155.232"/>
  </clipPath>
  <clipPath id="p46a8ed2990">
   <rect x="322.120772" y="7.2" width="229.764706" height="155.232"/>
  </clipPath>
  <clipPath id="pa5688221c2">
   <rect x="597.838419" y="7.2" width="229.764706" height="155.232"/>
  </clipPath>
 </defs>
</svg>
