<?xml version="1.0" encoding="utf-8" standalone="no"?>
<!DOCTYPE svg PUBLIC "-//W3C//DTD SVG 1.1//EN"
  "http://www.w3.org/Graphics/SVG/1.1/DTD/svg11.dtd">
<svg xmlns:xlink="http://www.w3.org/1999/xlink" width="834.803125pt" height="184.757pt" viewBox="0 0 834.803125 184.757" xmlns="http://www.w3.org/2000/svg" version="1.1">
 <metadata>
  <rdf:RDF xmlns:dc="http://purl.org/dc/elements/1.1/" xmlns:cc="http://creativecommons.org/ns#" xmlns:rdf="http://www.w3.org/1999/02/22-rdf-syntax-ns#">
   <cc:Work>
    <dc:type rdf:resource="http://purl.org/dc/dcmitype/StillImage"/>
    <dc:date>2024-12-25T17:33:03.092167</dc:date>
    <dc:format>image/svg+xml</dc:format>
    <dc:creator>
     <cc:Agent>
      <dc:title>Matplotlib v3.9.3, https://matplotlib.org/</dc:title>
     </cc:Agent>
    </dc:creator>
   </cc:Work>
  </rdf:RDF>
 </metadata>
 <defs>
  <style type="text/css">*{stroke-linejoin: round; stroke-linecap: butt}</style>
 </defs>
 <g id="figure_1">
  <g id="patch_1">
   <path d="M 0 184.757 
L 834.803125 184.757 
L 834.803125 0 
L 0 0 
z
" style="fill: #ffffff"/>
  </g>
  <g id="axes_1">
   <g id="patch_2">
    <path d="M 46.403125 162.432 
L 276.167831 162.432 
L 276.167831 7.2 
L 46.403125 7.2 
z
" style="fill: #ffffff"/>
   </g>
   <g id="matplotlib.axis_1">
    <g id="xtick_1">
     <g id="line2d_1">
      <defs>
       <path id="mdc20a6edf2" d="M 0 0 
L 0 3.5 
" style="stroke: #000000; stroke-width: 0.8"/>
      </defs>
      <g>
       <use xlink:href="#mdc20a6edf2" x="102.672033" y="162.432" style="stroke: #000000; stroke-width: 0.8"/>
      </g>
     </g>
     <g id="text_1">
      <!-- 2023-09-20 -->
      <g transform="translate(77.672033 176.307) scale(0.1 -0.1)">
       <defs>
        <path id="SimHei-32" d="M 300 250 
Q 325 625 650 925 
Q 975 1225 1475 1862 
Q 1975 2500 2125 2850 
Q 2275 3200 2237 3450 
Q 2200 3700 2000 3862 
Q 1800 4025 1537 4000 
Q 1275 3975 1037 3800 
Q 800 3625 675 3275 
L 200 3350 
Q 400 3925 712 4187 
Q 1025 4450 1450 4475 
Q 1700 4500 1900 4462 
Q 2100 4425 2312 4287 
Q 2525 4150 2662 3875 
Q 2800 3600 2762 3212 
Q 2725 2825 2375 2287 
Q 2025 1750 1025 600 
L 2825 600 
L 2825 150 
L 300 150 
L 300 250 
z
" transform="scale(0.015625)"/>
        <path id="SimHei-30" d="M 225 2537 
Q 250 3200 412 3587 
Q 575 3975 875 4225 
Q 1175 4475 1612 4475 
Q 2050 4475 2375 4112 
Q 2700 3750 2800 3200 
Q 2900 2650 2862 1937 
Q 2825 1225 2612 775 
Q 2400 325 1975 150 
Q 1550 -25 1125 187 
Q 700 400 525 750 
Q 350 1100 275 1487 
Q 200 1875 225 2537 
z
M 750 2687 
Q 675 2000 800 1462 
Q 925 925 1212 700 
Q 1500 475 1800 612 
Q 2100 750 2237 1162 
Q 2375 1575 2375 2062 
Q 2375 2550 2337 2950 
Q 2300 3350 2112 3675 
Q 1925 4000 1612 4012 
Q 1300 4025 1062 3700 
Q 825 3375 750 2687 
z
" transform="scale(0.015625)"/>
        <path id="SimHei-33" d="M 250 1225 
L 700 1300 
Q 800 975 1025 762 
Q 1250 550 1587 562 
Q 1925 575 2125 837 
Q 2325 1100 2300 1437 
Q 2275 1775 2037 1962 
Q 1800 2150 1275 2225 
L 1275 2550 
Q 1800 2600 2037 2825 
Q 2275 3050 2250 3412 
Q 2225 3775 1925 3937 
Q 1625 4100 1287 3975 
Q 950 3850 750 3275 
L 300 3350 
Q 450 3800 712 4100 
Q 975 4400 1425 4450 
Q 1875 4500 2212 4337 
Q 2550 4175 2687 3837 
Q 2825 3500 2725 3100 
Q 2625 2700 2150 2400 
Q 2500 2250 2687 1950 
Q 2875 1650 2812 1162 
Q 2750 675 2375 375 
Q 2000 75 1525 87 
Q 1050 100 700 387 
Q 350 675 250 1225 
z
" transform="scale(0.015625)"/>
        <path id="SimHei-2d" d="M 2975 2125 
L 125 2125 
L 125 2525 
L 2975 2525 
L 2975 2125 
z
" transform="scale(0.015625)"/>
        <path id="SimHei-39" d="M 800 75 
Q 1350 1000 1700 1750 
Q 1075 1650 662 1912 
Q 250 2175 162 2625 
Q 75 3075 175 3437 
Q 275 3800 487 4037 
Q 700 4275 1000 4375 
Q 1300 4475 1537 4475 
Q 1775 4475 2025 4375 
Q 2275 4275 2475 4075 
Q 2675 3875 2750 3662 
Q 2825 3450 2825 3112 
Q 2825 2775 2575 2250 
Q 2325 1725 1350 75 
L 800 75 
z
M 662 2875 
Q 700 2550 937 2337 
Q 1175 2125 1450 2150 
Q 1725 2175 1887 2300 
Q 2050 2425 2200 2725 
Q 2300 3100 2250 3362 
Q 2200 3625 1987 3800 
Q 1775 3975 1525 3975 
Q 1375 4000 1137 3900 
Q 900 3800 762 3500 
Q 625 3200 662 2875 
z
" transform="scale(0.015625)"/>
       </defs>
       <use xlink:href="#SimHei-32"/>
       <use xlink:href="#SimHei-30" x="50"/>
       <use xlink:href="#SimHei-32" x="100"/>
       <use xlink:href="#SimHei-33" x="150"/>
       <use xlink:href="#SimHei-2d" x="200"/>
       <use xlink:href="#SimHei-30" x="250"/>
       <use xlink:href="#SimHei-39" x="300"/>
       <use xlink:href="#SimHei-2d" x="350"/>
       <use xlink:href="#SimHei-32" x="400"/>
       <use xlink:href="#SimHei-30" x="450"/>
      </g>
     </g>
    </g>
    <g id="xtick_2">
     <g id="line2d_2">
      <g>
       <use xlink:href="#mdc20a6edf2" x="166.613973" y="162.432" style="stroke: #000000; stroke-width: 0.8"/>
      </g>
     </g>
     <g id="text_2">
      <!-- 2023-11-19 -->
      <g transform="translate(141.613973 176.307) scale(0.1 -0.1)">
       <defs>
        <path id="SimHei-31" d="M 1400 3600 
Q 1075 3275 575 2975 
L 575 3450 
Q 1200 3875 1600 4450 
L 1900 4450 
L 1900 150 
L 1400 150 
L 1400 3600 
z
" transform="scale(0.015625)"/>
       </defs>
       <use xlink:href="#SimHei-32"/>
       <use xlink:href="#SimHei-30" x="50"/>
       <use xlink:href="#SimHei-32" x="100"/>
       <use xlink:href="#SimHei-33" x="150"/>
       <use xlink:href="#SimHei-2d" x="200"/>
       <use xlink:href="#SimHei-31" x="250"/>
       <use xlink:href="#SimHei-31" x="300"/>
       <use xlink:href="#SimHei-2d" x="350"/>
       <use xlink:href="#SimHei-31" x="400"/>
       <use xlink:href="#SimHei-39" x="450"/>
      </g>
     </g>
    </g>
    <g id="xtick_3">
     <g id="line2d_3">
      <g>
       <use xlink:href="#mdc20a6edf2" x="230.555913" y="162.432" style="stroke: #000000; stroke-width: 0.8"/>
      </g>
     </g>
     <g id="text_3">
      <!-- 2024-01-18 -->
      <g transform="translate(205.555913 176.307) scale(0.1 -0.1)">
       <defs>
        <path id="SimHei-34" d="M 2000 1100 
L 75 1100 
L 75 1525 
L 2100 4450 
L 2475 4450 
L 2475 1525 
L 3075 1525 
L 3075 1100 
L 2475 1100 
L 2475 150 
L 2000 150 
L 2000 1100 
z
M 2000 1525 
L 2000 3500 
L 600 1525 
L 2000 1525 
z
" transform="scale(0.015625)"/>
        <path id="SimHei-38" d="M 175 1375 
Q 175 1675 325 1962 
Q 475 2250 825 2425 
Q 525 2600 425 2812 
Q 325 3025 312 3300 
Q 300 3575 387 3775 
Q 475 3975 650 4150 
Q 825 4325 1037 4387 
Q 1250 4450 1500 4450 
Q 1750 4450 1950 4400 
Q 2150 4350 2375 4187 
Q 2600 4025 2700 3725 
Q 2800 3425 2687 3025 
Q 2575 2625 2100 2400 
Q 2525 2275 2700 2012 
Q 2875 1750 2875 1375 
Q 2875 1000 2762 775 
Q 2650 550 2512 400 
Q 2375 250 2137 162 
Q 1900 75 1537 75 
Q 1175 75 912 162 
Q 650 250 475 425 
Q 300 600 237 837 
Q 175 1075 175 1375 
z
M 687 1400 
Q 675 1100 787 875 
Q 900 650 1200 587 
Q 1500 525 1825 600 
Q 2150 675 2275 950 
Q 2400 1225 2362 1500 
Q 2325 1775 2050 1962 
Q 1775 2150 1450 2125 
Q 1125 2100 912 1900 
Q 700 1700 687 1400 
z
M 775 3350 
Q 775 3100 950 2875 
Q 1125 2650 1500 2650 
Q 1875 2650 2062 2875 
Q 2250 3100 2237 3412 
Q 2225 3725 2012 3875 
Q 1800 4025 1437 4000 
Q 1075 3975 925 3787 
Q 775 3600 775 3350 
z
" transform="scale(0.015625)"/>
       </defs>
       <use xlink:href="#SimHei-32"/>
       <use xlink:href="#SimHei-30" x="50"/>
       <use xlink:href="#SimHei-32" x="100"/>
       <use xlink:href="#SimHei-34" x="150"/>
       <use xlink:href="#SimHei-2d" x="200"/>
       <use xlink:href="#SimHei-30" x="250"/>
       <use xlink:href="#SimHei-31" x="300"/>
       <use xlink:href="#SimHei-2d" x="350"/>
       <use xlink:href="#SimHei-31" x="400"/>
       <use xlink:href="#SimHei-38" x="450"/>
      </g>
     </g>
    </g>
   </g>
   <g id="matplotlib.axis_2">
    <g id="ytick_1">
     <g id="line2d_4">
      <defs>
       <path id="mf731d8b0b9" d="M 0 0 
L -3.5 0 
" style="stroke: #000000; stroke-width: 0.8"/>
      </defs>
      <g>
       <use xlink:href="#mf731d8b0b9" x="46.403125" y="151.435407" style="stroke: #000000; stroke-width: 0.8"/>
      </g>
     </g>
     <g id="text_4">
      <!-- 0.92 -->
      <g transform="translate(19.403125 154.872907) scale(0.1 -0.1)">
       <defs>
        <path id="SimHei-2e" d="M 1075 125 
L 500 125 
L 500 675 
L 1075 675 
L 1075 125 
z
" transform="scale(0.015625)"/>
       </defs>
       <use xlink:href="#SimHei-30"/>
       <use xlink:href="#SimHei-2e" x="50"/>
       <use xlink:href="#SimHei-39" x="100"/>
       <use xlink:href="#SimHei-32" x="150"/>
      </g>
     </g>
    </g>
    <g id="ytick_2">
     <g id="line2d_5">
      <g>
       <use xlink:href="#mf731d8b0b9" x="46.403125" y="125.859187" style="stroke: #000000; stroke-width: 0.8"/>
      </g>
     </g>
     <g id="text_5">
      <!-- 0.94 -->
      <g transform="translate(19.403125 129.296687) scale(0.1 -0.1)">
       <use xlink:href="#SimHei-30"/>
       <use xlink:href="#SimHei-2e" x="50"/>
       <use xlink:href="#SimHei-39" x="100"/>
       <use xlink:href="#SimHei-34" x="150"/>
      </g>
     </g>
    </g>
    <g id="ytick_3">
     <g id="line2d_6">
      <g>
       <use xlink:href="#mf731d8b0b9" x="46.403125" y="100.282967" style="stroke: #000000; stroke-width: 0.8"/>
      </g>
     </g>
     <g id="text_6">
      <!-- 0.96 -->
      <g transform="translate(19.403125 103.720467) scale(0.1 -0.1)">
       <defs>
        <path id="SimHei-36" d="M 250 1612 
Q 275 1975 387 2225 
Q 500 2475 725 2850 
L 1750 4450 
L 2325 4450 
L 1275 2800 
Q 1950 2975 2350 2750 
Q 2750 2525 2887 2237 
Q 3025 1950 3037 1612 
Q 3050 1275 2937 950 
Q 2825 625 2537 362 
Q 2250 100 1737 75 
Q 1225 50 862 262 
Q 500 475 362 862 
Q 225 1250 250 1612 
z
M 1025 787 
Q 1250 550 1625 525 
Q 2000 500 2250 775 
Q 2500 1050 2500 1575 
Q 2500 2100 2187 2300 
Q 1875 2500 1487 2450 
Q 1100 2400 925 2075 
Q 750 1750 775 1387 
Q 800 1025 1025 787 
z
" transform="scale(0.015625)"/>
       </defs>
       <use xlink:href="#SimHei-30"/>
       <use xlink:href="#SimHei-2e" x="50"/>
       <use xlink:href="#SimHei-39" x="100"/>
       <use xlink:href="#SimHei-36" x="150"/>
      </g>
     </g>
    </g>
    <g id="ytick_4">
     <g id="line2d_7">
      <g>
       <use xlink:href="#mf731d8b0b9" x="46.403125" y="74.706747" style="stroke: #000000; stroke-width: 0.8"/>
      </g>
     </g>
     <g id="text_7">
      <!-- 0.98 -->
      <g transform="translate(19.403125 78.144247) scale(0.1 -0.1)">
       <use xlink:href="#SimHei-30"/>
       <use xlink:href="#SimHei-2e" x="50"/>
       <use xlink:href="#SimHei-39" x="100"/>
       <use xlink:href="#SimHei-38" x="150"/>
      </g>
     </g>
    </g>
    <g id="ytick_5">
     <g id="line2d_8">
      <g>
       <use xlink:href="#mf731d8b0b9" x="46.403125" y="49.130527" style="stroke: #000000; stroke-width: 0.8"/>
      </g>
     </g>
     <g id="text_8">
      <!-- 1.00 -->
      <g transform="translate(19.403125 52.568027) scale(0.1 -0.1)">
       <use xlink:href="#SimHei-31"/>
       <use xlink:href="#SimHei-2e" x="50"/>
       <use xlink:href="#SimHei-30" x="100"/>
       <use xlink:href="#SimHei-30" x="150"/>
      </g>
     </g>
    </g>
    <g id="ytick_6">
     <g id="line2d_9">
      <g>
       <use xlink:href="#mf731d8b0b9" x="46.403125" y="23.554307" style="stroke: #000000; stroke-width: 0.8"/>
      </g>
     </g>
     <g id="text_9">
      <!-- 1.02 -->
      <g transform="translate(19.403125 26.991807) scale(0.1 -0.1)">
       <use xlink:href="#SimHei-31"/>
       <use xlink:href="#SimHei-2e" x="50"/>
       <use xlink:href="#SimHei-30" x="100"/>
       <use xlink:href="#SimHei-32" x="150"/>
      </g>
     </g>
    </g>
    <g id="text_10">
     <!-- NCO-Sharpe -->
     <g transform="translate(14.153125 109.816) rotate(-90) scale(0.1 -0.1)">
      <defs>
       <path id="SimHei-4e" d="M 2850 125 
L 2225 125 
L 850 3225 
L 825 3225 
L 825 125 
L 250 125 
L 250 4400 
L 875 4400 
L 2250 1300 
L 2275 1300 
L 2275 4400 
L 2850 4400 
L 2850 125 
z
" transform="scale(0.015625)"/>
       <path id="SimHei-43" d="M 2975 1825 
Q 2950 875 2575 475 
Q 2200 75 1675 75 
Q 1075 75 650 562 
Q 225 1050 225 2125 
Q 225 3300 637 3875 
Q 1050 4450 1700 4450 
Q 2250 4450 2612 4037 
Q 2975 3625 2950 2875 
L 2400 2875 
Q 2400 3425 2225 3700 
Q 2050 3975 1700 3975 
Q 1300 3975 1062 3562 
Q 825 3150 825 2175 
Q 825 1275 1062 912 
Q 1300 550 1675 550 
Q 1950 550 2175 812 
Q 2400 1075 2400 1825 
L 2975 1825 
z
" transform="scale(0.015625)"/>
       <path id="SimHei-4f" d="M 2950 2275 
Q 2950 1100 2587 587 
Q 2225 75 1575 75 
Q 925 75 550 587 
Q 175 1100 175 2275 
Q 175 3450 550 3950 
Q 925 4450 1575 4450 
Q 2225 4450 2587 3950 
Q 2950 3450 2950 2275 
z
M 2350 2275 
Q 2350 3325 2125 3650 
Q 1900 3975 1575 3975 
Q 1250 3975 1012 3650 
Q 775 3325 775 2275 
Q 775 1225 1012 887 
Q 1250 550 1575 550 
Q 1900 550 2125 887 
Q 2350 1225 2350 2275 
z
" transform="scale(0.015625)"/>
       <path id="SimHei-53" d="M 2900 1325 
Q 2900 750 2537 412 
Q 2175 75 1550 75 
Q 925 75 575 425 
Q 225 775 225 1300 
L 225 1475 
L 800 1475 
L 800 1325 
Q 800 950 1025 750 
Q 1250 550 1550 550 
Q 1950 550 2137 762 
Q 2325 975 2325 1275 
Q 2325 1525 2100 1737 
Q 1875 1950 1450 2125 
Q 850 2350 587 2625 
Q 325 2900 325 3275 
Q 325 3800 687 4125 
Q 1050 4450 1550 4450 
Q 2200 4450 2487 4062 
Q 2775 3675 2775 3225 
L 2200 3225 
Q 2225 3500 2050 3725 
Q 1875 3950 1550 3950 
Q 1250 3950 1075 3787 
Q 900 3625 900 3350 
Q 900 3125 1037 2962 
Q 1175 2800 1750 2575 
Q 2300 2350 2600 2037 
Q 2900 1725 2900 1325 
z
" transform="scale(0.015625)"/>
       <path id="SimHei-68" d="M 2800 125 
L 2300 125 
L 2300 1925 
Q 2300 2225 2150 2400 
Q 2000 2575 1750 2575 
Q 1425 2575 1137 2237 
Q 850 1900 850 1400 
L 850 125 
L 350 125 
L 350 4400 
L 850 4400 
L 850 2400 
Q 1050 2675 1287 2825 
Q 1525 2975 1900 2975 
Q 2350 2975 2575 2725 
Q 2800 2475 2800 2100 
L 2800 125 
z
" transform="scale(0.015625)"/>
       <path id="SimHei-61" d="M 2875 125 
L 2275 125 
Q 2225 175 2200 262 
Q 2175 350 2175 475 
Q 2000 275 1750 175 
Q 1500 75 1225 75 
Q 825 75 550 275 
Q 275 475 275 850 
Q 275 1225 525 1450 
Q 775 1675 1300 1750 
Q 1650 1800 1912 1875 
Q 2175 1950 2175 2075 
Q 2175 2225 2062 2375 
Q 1950 2525 1575 2525 
Q 1275 2525 1137 2412 
Q 1000 2300 950 2100 
L 400 2100 
Q 450 2500 762 2737 
Q 1075 2975 1575 2975 
Q 2125 2975 2400 2725 
Q 2675 2475 2675 2025 
L 2675 650 
Q 2675 500 2725 375 
Q 2775 250 2875 125 
z
M 2175 1050 
L 2175 1550 
Q 2025 1500 1887 1462 
Q 1750 1425 1425 1375 
Q 1050 1325 937 1200 
Q 825 1075 825 900 
Q 825 750 937 637 
Q 1050 525 1275 525 
Q 1500 525 1762 650 
Q 2025 775 2175 1050 
z
" transform="scale(0.015625)"/>
       <path id="SimHei-72" d="M 2500 2425 
Q 2025 2500 1700 2287 
Q 1375 2075 1150 1550 
L 1150 125 
L 650 125 
L 650 2925 
L 1150 2925 
L 1150 2200 
Q 1375 2600 1712 2787 
Q 2050 2975 2500 2975 
L 2500 2425 
z
" transform="scale(0.015625)"/>
       <path id="SimHei-70" d="M 2825 1525 
Q 2825 800 2475 425 
Q 2125 50 1625 50 
Q 1350 50 1150 162 
Q 950 275 800 500 
L 800 -800 
L 300 -800 
L 300 2925 
L 800 2925 
L 800 2550 
Q 950 2775 1150 2875 
Q 1350 2975 1625 2975 
Q 2125 2975 2475 2612 
Q 2825 2250 2825 1525 
z
M 2275 1525 
Q 2275 2000 2087 2262 
Q 1900 2525 1525 2525 
Q 1225 2525 1012 2262 
Q 800 2000 800 1525 
Q 800 1050 1012 775 
Q 1225 500 1525 500 
Q 1900 500 2087 775 
Q 2275 1050 2275 1525 
z
" transform="scale(0.015625)"/>
       <path id="SimHei-65" d="M 2850 1075 
Q 2800 625 2450 350 
Q 2100 75 1625 75 
Q 1025 75 637 462 
Q 250 850 250 1525 
Q 250 2200 637 2587 
Q 1025 2975 1625 2975 
Q 2150 2975 2487 2637 
Q 2825 2300 2825 1525 
L 800 1525 
Q 800 975 1037 750 
Q 1275 525 1625 525 
Q 1900 525 2075 662 
Q 2250 800 2300 1075 
L 2850 1075 
z
M 2250 1925 
Q 2200 2275 2025 2412 
Q 1850 2550 1575 2550 
Q 1325 2550 1125 2412 
Q 925 2275 825 1925 
L 2250 1925 
z
" transform="scale(0.015625)"/>
      </defs>
      <use xlink:href="#SimHei-4e"/>
      <use xlink:href="#SimHei-43" x="50"/>
      <use xlink:href="#SimHei-4f" x="100"/>
      <use xlink:href="#SimHei-2d" x="150"/>
      <use xlink:href="#SimHei-53" x="200"/>
      <use xlink:href="#SimHei-68" x="250"/>
      <use xlink:href="#SimHei-61" x="300"/>
      <use xlink:href="#SimHei-72" x="350"/>
      <use xlink:href="#SimHei-70" x="400"/>
      <use xlink:href="#SimHei-65" x="450"/>
     </g>
    </g>
   </g>
   <g id="line2d_10">
    <path d="M 56.846975 52.327555 
L 57.912674 56.791548 
L 58.978373 58.251126 
L 60.044072 84.676746 
L 63.241169 95.631143 
L 64.306868 90.249619 
L 65.372567 97.394599 
L 66.438266 99.14812 
L 67.503965 101.288888 
L 70.701062 116.973904 
L 71.766761 104.230059 
L 72.83246 108.557971 
L 73.898159 104.530145 
L 74.963858 107.483086 
L 78.160955 90.987369 
L 79.226654 100.410721 
L 80.292353 100.127565 
L 82.423751 108.807557 
L 85.620848 74.369204 
L 86.686547 89.393714 
L 87.752246 91.021345 
L 88.817945 96.803235 
L 89.883644 108.724364 
L 93.080742 99.663645 
L 94.146441 102.768431 
L 95.21214 109.179614 
L 96.277839 87.924907 
L 97.343538 100.445478 
L 100.540635 84.238569 
L 101.606334 92.46482 
L 102.672033 88.340352 
L 103.737732 100.116968 
L 104.803431 80.807433 
L 108.000528 83.977292 
L 109.066227 84.784093 
L 110.131926 87.864141 
L 111.197625 103.134234 
L 122.920314 97.897913 
L 123.986013 106.044935 
L 125.051712 108.91295 
L 126.117411 90.797915 
L 127.18311 99.12892 
L 130.380207 106.583408 
L 131.445906 104.770835 
L 132.511605 108.58534 
L 133.577304 131.471897 
L 134.643003 145.262489 
L 137.8401 151.769646 
L 138.905799 155.376 
L 139.971498 99.749362 
L 141.037197 103.021765 
L 142.102896 91.320619 
L 145.299993 97.482845 
L 146.365692 93.936288 
L 147.431391 85.302848 
L 148.49709 83.448532 
L 149.562789 83.690762 
L 152.759886 80.155067 
L 153.825585 76.663206 
L 154.891284 83.221503 
L 155.956983 83.526273 
L 157.022682 82.834947 
L 160.219779 96.72791 
L 161.285478 96.70583 
L 162.351177 76.720505 
L 163.416876 80.51463 
L 164.482575 76.848648 
L 168.745371 69.761252 
L 169.81107 80.280216 
L 170.876769 66.945669 
L 171.942468 68.611946 
L 175.139565 67.352898 
L 176.205264 59.040284 
L 177.270963 67.895654 
L 178.336662 66.674034 
L 179.402361 114.598717 
L 182.599458 107.978142 
L 183.665157 117.742366 
L 184.730856 119.415103 
L 186.862254 124.694792 
L 190.059351 119.487432 
L 191.12505 109.421693 
L 192.190749 106.402405 
L 193.256448 121.210373 
L 194.322147 131.191303 
L 197.519244 127.901621 
L 198.584943 123.072671 
L 199.650642 130.499381 
L 200.716341 130.476074 
L 201.78204 131.277385 
L 204.979137 118.961496 
L 206.044836 121.911995 
L 207.110535 119.543637 
L 208.176234 129.641318 
L 209.241933 122.566958 
L 214.570428 107.02591 
L 215.636127 105.874314 
L 216.701826 109.653965 
L 219.898923 121.725689 
L 220.964622 120.351371 
L 222.030321 129.497722 
L 223.09602 133.311945 
L 224.161719 114.630909 
L 227.358816 108.238402 
L 228.424515 94.285483 
L 229.490214 112.672679 
L 230.555913 116.43533 
L 231.621612 121.986215 
L 234.818709 139.923758 
L 235.884408 137.607937 
L 236.950107 102.220497 
L 238.015806 83.246361 
L 239.081505 76.57826 
L 242.278602 72.51654 
L 243.344301 83.838978 
L 244.41 83.979829 
L 245.475699 88.242835 
L 246.541398 88.344404 
L 249.738496 65.084582 
L 250.804195 59.527522 
L 251.869894 61.402522 
L 252.935593 60.027029 
L 264.658282 36.392314 
L 265.723981 14.256 
L 265.723981 14.256 
" clip-path="url(#p8e2321dfcb)" style="fill: none; stroke: #1f77b4; stroke-width: 1.5; stroke-linecap: square"/>
   </g>
   <g id="patch_3">
    <path d="M 46.403125 162.432 
L 46.403125 7.2 
" style="fill: none; stroke: #000000; stroke-width: 0.8; stroke-linejoin: miter; stroke-linecap: square"/>
   </g>
   <g id="patch_4">
    <path d="M 276.167831 162.432 
L 276.167831 7.2 
" style="fill: none; stroke: #000000; stroke-width: 0.8; stroke-linejoin: miter; stroke-linecap: square"/>
   </g>
   <g id="patch_5">
    <path d="M 46.403125 162.432 
L 276.167831 162.432 
" style="fill: none; stroke: #000000; stroke-width: 0.8; stroke-linejoin: miter; stroke-linecap: square"/>
   </g>
   <g id="patch_6">
    <path d="M 46.403125 7.2 
L 276.167831 7.2 
" style="fill: none; stroke: #000000; stroke-width: 0.8; stroke-linejoin: miter; stroke-linecap: square"/>
   </g>
  </g>
  <g id="axes_2">
   <g id="patch_7">
    <path d="M 322.120772 162.432 
L 551.885478 162.432 
L 551.885478 7.2 
L 322.120772 7.2 
z
" style="fill: #ffffff"/>
   </g>
   <g id="matplotlib.axis_3">
    <g id="xtick_4">
     <g id="line2d_11">
      <g>
       <use xlink:href="#mdc20a6edf2" x="379.455379" y="162.432" style="stroke: #000000; stroke-width: 0.8"/>
      </g>
     </g>
     <g id="text_11">
      <!-- 2023-09-20 -->
      <g transform="translate(354.455379 176.307) scale(0.1 -0.1)">
       <use xlink:href="#SimHei-32"/>
       <use xlink:href="#SimHei-30" x="50"/>
       <use xlink:href="#SimHei-32" x="100"/>
       <use xlink:href="#SimHei-33" x="150"/>
       <use xlink:href="#SimHei-2d" x="200"/>
       <use xlink:href="#SimHei-30" x="250"/>
       <use xlink:href="#SimHei-39" x="300"/>
       <use xlink:href="#SimHei-2d" x="350"/>
       <use xlink:href="#SimHei-32" x="400"/>
       <use xlink:href="#SimHei-30" x="450"/>
      </g>
     </g>
    </g>
    <g id="xtick_5">
     <g id="line2d_12">
      <g>
       <use xlink:href="#mdc20a6edf2" x="443.397319" y="162.432" style="stroke: #000000; stroke-width: 0.8"/>
      </g>
     </g>
     <g id="text_12">
      <!-- 2023-11-19 -->
      <g transform="translate(418.397319 176.307) scale(0.1 -0.1)">
       <use xlink:href="#SimHei-32"/>
       <use xlink:href="#SimHei-30" x="50"/>
       <use xlink:href="#SimHei-32" x="100"/>
       <use xlink:href="#SimHei-33" x="150"/>
       <use xlink:href="#SimHei-2d" x="200"/>
       <use xlink:href="#SimHei-31" x="250"/>
       <use xlink:href="#SimHei-31" x="300"/>
       <use xlink:href="#SimHei-2d" x="350"/>
       <use xlink:href="#SimHei-31" x="400"/>
       <use xlink:href="#SimHei-39" x="450"/>
      </g>
     </g>
    </g>
    <g id="xtick_6">
     <g id="line2d_13">
      <g>
       <use xlink:href="#mdc20a6edf2" x="507.339259" y="162.432" style="stroke: #000000; stroke-width: 0.8"/>
      </g>
     </g>
     <g id="text_13">
      <!-- 2024-01-18 -->
      <g transform="translate(482.339259 176.307) scale(0.1 -0.1)">
       <use xlink:href="#SimHei-32"/>
       <use xlink:href="#SimHei-30" x="50"/>
       <use xlink:href="#SimHei-32" x="100"/>
       <use xlink:href="#SimHei-34" x="150"/>
       <use xlink:href="#SimHei-2d" x="200"/>
       <use xlink:href="#SimHei-30" x="250"/>
       <use xlink:href="#SimHei-31" x="300"/>
       <use xlink:href="#SimHei-2d" x="350"/>
       <use xlink:href="#SimHei-31" x="400"/>
       <use xlink:href="#SimHei-38" x="450"/>
      </g>
     </g>
    </g>
   </g>
   <g id="matplotlib.axis_4">
    <g id="ytick_7">
     <g id="line2d_14">
      <g>
       <use xlink:href="#mf731d8b0b9" x="322.120772" y="155.376" style="stroke: #000000; stroke-width: 0.8"/>
      </g>
     </g>
     <g id="text_14">
      <!-- 0.0 -->
      <g transform="translate(300.120772 158.8135) scale(0.1 -0.1)">
       <use xlink:href="#SimHei-30"/>
       <use xlink:href="#SimHei-2e" x="50"/>
       <use xlink:href="#SimHei-30" x="100"/>
      </g>
     </g>
    </g>
    <g id="ytick_8">
     <g id="line2d_15">
      <g>
       <use xlink:href="#mf731d8b0b9" x="322.120772" y="127.152" style="stroke: #000000; stroke-width: 0.8"/>
      </g>
     </g>
     <g id="text_15">
      <!-- 0.2 -->
      <g transform="translate(300.120772 130.5895) scale(0.1 -0.1)">
       <use xlink:href="#SimHei-30"/>
       <use xlink:href="#SimHei-2e" x="50"/>
       <use xlink:href="#SimHei-32" x="100"/>
      </g>
     </g>
    </g>
    <g id="ytick_9">
     <g id="line2d_16">
      <g>
       <use xlink:href="#mf731d8b0b9" x="322.120772" y="98.928" style="stroke: #000000; stroke-width: 0.8"/>
      </g>
     </g>
     <g id="text_16">
      <!-- 0.4 -->
      <g transform="translate(300.120772 102.3655) scale(0.1 -0.1)">
       <use xlink:href="#SimHei-30"/>
       <use xlink:href="#SimHei-2e" x="50"/>
       <use xlink:href="#SimHei-34" x="100"/>
      </g>
     </g>
    </g>
    <g id="ytick_10">
     <g id="line2d_17">
      <g>
       <use xlink:href="#mf731d8b0b9" x="322.120772" y="70.704" style="stroke: #000000; stroke-width: 0.8"/>
      </g>
     </g>
     <g id="text_17">
      <!-- 0.6 -->
      <g transform="translate(300.120772 74.1415) scale(0.1 -0.1)">
       <use xlink:href="#SimHei-30"/>
       <use xlink:href="#SimHei-2e" x="50"/>
       <use xlink:href="#SimHei-36" x="100"/>
      </g>
     </g>
    </g>
    <g id="ytick_11">
     <g id="line2d_18">
      <g>
       <use xlink:href="#mf731d8b0b9" x="322.120772" y="42.48" style="stroke: #000000; stroke-width: 0.8"/>
      </g>
     </g>
     <g id="text_18">
      <!-- 0.8 -->
      <g transform="translate(300.120772 45.9175) scale(0.1 -0.1)">
       <use xlink:href="#SimHei-30"/>
       <use xlink:href="#SimHei-2e" x="50"/>
       <use xlink:href="#SimHei-38" x="100"/>
      </g>
     </g>
    </g>
    <g id="ytick_12">
     <g id="line2d_19">
      <g>
       <use xlink:href="#mf731d8b0b9" x="322.120772" y="14.256" style="stroke: #000000; stroke-width: 0.8"/>
      </g>
     </g>
     <g id="text_19">
      <!-- 1.0 -->
      <g transform="translate(300.120772 17.6935) scale(0.1 -0.1)">
       <use xlink:href="#SimHei-31"/>
       <use xlink:href="#SimHei-2e" x="50"/>
       <use xlink:href="#SimHei-30" x="100"/>
      </g>
     </g>
    </g>
   </g>
   <g id="line2d_20">
    <path d="M 332.564622 155.376 
L 366.666991 155.375991 
L 369.864088 155.083826 
L 370.929787 155.376 
L 386.915272 155.376 
L 387.980971 150.711022 
L 399.70366 154.609683 
L 400.769359 141.945577 
L 401.835058 152.083477 
L 402.900757 151.812478 
L 403.966456 149.873495 
L 407.163553 146.481122 
L 408.229252 132.96375 
L 409.294951 113.020913 
L 411.426349 96.340884 
L 414.623446 85.792165 
L 415.689145 78.565987 
L 416.754844 74.130517 
L 417.820543 75.045681 
L 418.886242 61.899108 
L 422.083339 63.304605 
L 423.149038 67.80861 
L 424.214737 63.800048 
L 425.280436 65.71514 
L 426.346135 66.007059 
L 429.543232 63.392963 
L 430.608931 61.332683 
L 431.67463 68.648251 
L 432.740329 74.446279 
L 433.806028 75.352092 
L 437.003125 92.328514 
L 438.068824 92.625484 
L 439.134523 98.429494 
L 440.200222 99.972416 
L 441.265921 95.0076 
L 444.463018 101.109588 
L 445.528717 97.056635 
L 446.594416 93.622887 
L 447.660115 95.060056 
L 448.725814 97.891025 
L 451.922911 93.0738 
L 452.98861 90.455306 
L 454.054309 94.139884 
L 455.120008 75.894682 
L 456.185707 73.157886 
L 459.382804 76.706427 
L 460.448503 98.350252 
L 461.514202 91.279862 
L 462.579901 80.645494 
L 463.6456 74.728522 
L 466.842697 80.890877 
L 467.908396 78.791644 
L 468.974095 90.495693 
L 470.039794 97.595476 
L 471.105493 107.650206 
L 474.30259 110.978128 
L 475.368289 101.475454 
L 476.433988 107.24547 
L 477.499687 114.234798 
L 478.565386 120.471257 
L 481.762483 120.863493 
L 482.828182 121.391663 
L 483.893881 116.714899 
L 484.95958 118.56027 
L 486.025279 123.104048 
L 490.288075 122.717935 
L 491.353774 122.091185 
L 492.419473 122.743427 
L 493.485172 123.051215 
L 496.682269 121.289403 
L 497.747968 120.998689 
L 499.879366 113.149308 
L 500.945065 110.166177 
L 505.207861 104.552854 
L 506.27356 104.929653 
L 507.339259 101.662153 
L 508.404958 99.196368 
L 511.602055 106.549945 
L 512.667754 110.239917 
L 513.733453 112.046793 
L 514.799153 110.921867 
L 515.864852 110.095637 
L 519.061949 114.432465 
L 520.127648 114.197305 
L 521.193347 115.845626 
L 522.259046 117.273259 
L 523.324745 117.988219 
L 526.521842 115.90506 
L 527.587541 113.502094 
L 528.65324 116.744991 
L 529.718939 116.418304 
L 541.441628 119.479347 
L 541.441628 119.479347 
" clip-path="url(#p0069423118)" style="fill: none; stroke: #1f77b4; stroke-width: 1.5; stroke-linecap: square"/>
   </g>
   <g id="line2d_21">
    <path d="M 332.564622 155.376 
L 333.630321 129.902523 
L 334.69602 125.138652 
L 335.761719 124.808125 
L 336.827418 125.784831 
L 340.024515 129.345889 
L 341.090214 126.923774 
L 342.155913 124.184553 
L 343.221612 124.213802 
L 344.287311 120.195403 
L 347.484408 124.714479 
L 348.550107 130.186882 
L 349.615806 118.610221 
L 350.681505 120.601379 
L 351.747204 120.847762 
L 354.944301 117.968187 
L 356.01 118.454697 
L 358.141398 113.884354 
L 359.207097 103.332649 
L 362.404195 103.341156 
L 363.469894 108.725507 
L 364.535593 110.306975 
L 365.601292 106.454402 
L 366.666991 109.387698 
L 369.864088 112.197721 
L 370.929787 114.174722 
L 371.995486 109.989706 
L 373.061185 108.393579 
L 374.126884 113.752459 
L 377.323981 111.245056 
L 378.38968 115.477674 
L 379.455379 98.280187 
L 380.521078 104.090021 
L 381.586777 102.426722 
L 385.849573 102.076324 
L 386.915272 107.597355 
L 387.980971 110.335175 
L 399.70366 104.332866 
L 400.769359 117.680424 
L 401.835058 112.191921 
L 402.900757 112.500553 
L 403.966456 112.1478 
L 407.163553 113.276751 
L 408.229252 117.433473 
L 409.294951 133.492472 
L 410.36065 141.337683 
L 411.426349 152.371346 
L 415.689145 155.376 
L 425.280436 155.376 
L 426.346135 154.102432 
L 429.543232 155.212301 
L 430.608931 153.582386 
L 431.67463 143.495406 
L 432.740329 142.000617 
L 433.806028 139.498876 
L 437.003125 140.798175 
L 438.068824 139.225882 
L 439.134523 136.75765 
L 440.200222 141.674084 
L 441.265921 147.836366 
L 444.463018 147.242216 
L 445.528717 151.819929 
L 446.594416 152.593466 
L 447.660115 151.189129 
L 448.725814 147.937933 
L 451.922911 154.69795 
L 452.98861 155.376 
L 467.908396 155.376 
L 468.974095 155.027381 
L 470.039794 155.376 
L 541.441628 155.376 
L 541.441628 155.376 
" clip-path="url(#p0069423118)" style="fill: none; stroke: #ff7f0e; stroke-width: 1.5; stroke-linecap: square"/>
   </g>
   <g id="line2d_22">
    <path d="M 332.564622 155.376 
L 333.630321 153.20855 
L 334.69602 152.179503 
L 335.761719 155.376 
L 336.827418 146.381147 
L 340.024515 152.780511 
L 341.090214 148.747723 
L 342.155913 152.379457 
L 343.221612 155.376 
L 418.886242 155.376 
L 422.083339 149.701975 
L 423.149038 151.656314 
L 424.214737 155.37599 
L 507.339259 155.376 
L 508.404958 154.805197 
L 511.602055 152.268106 
L 512.667754 153.514534 
L 513.733453 153.317797 
L 514.799153 153.799606 
L 515.864852 152.932659 
L 519.061949 152.781909 
L 520.127648 153.410676 
L 521.193347 155.376 
L 528.65324 155.376 
L 529.718939 152.768923 
L 541.441628 154.297715 
L 541.441628 154.297715 
" clip-path="url(#p0069423118)" style="fill: none; stroke: #2ca02c; stroke-width: 1.5; stroke-linecap: square"/>
   </g>
   <g id="line2d_23">
    <path d="M 332.564622 155.376 
L 541.441628 155.376 
L 541.441628 155.376 
" clip-path="url(#p0069423118)" style="fill: none; stroke: #d62728; stroke-width: 1.5; stroke-linecap: square"/>
   </g>
   <g id="line2d_24">
    <path d="M 332.564622 155.376 
L 336.827418 155.376 
L 340.024515 148.044544 
L 341.090214 143.648823 
L 342.155913 144.256053 
L 343.221612 149.024606 
L 344.287311 144.440505 
L 347.484408 145.121913 
L 348.550107 145.821472 
L 349.615806 153.376746 
L 350.681505 155.375996 
L 351.747204 155.088583 
L 354.944301 153.576239 
L 356.01 155.376 
L 541.441628 155.376 
L 541.441628 155.376 
" clip-path="url(#p0069423118)" style="fill: none; stroke: #9467bd; stroke-width: 1.5; stroke-linecap: square"/>
   </g>
   <g id="line2d_25">
    <path d="M 332.564622 155.376 
L 335.761719 155.376 
L 336.827418 154.052551 
L 340.024515 155.376 
L 401.835058 155.376 
L 402.900757 153.474824 
L 403.966456 142.314867 
L 407.163553 136.306348 
L 408.229252 124.926263 
L 409.294951 131.302799 
L 410.36065 132.778916 
L 411.426349 135.362584 
L 414.623446 135.183222 
L 415.689145 134.267783 
L 416.754844 128.882562 
L 417.820543 126.285476 
L 418.886242 133.413139 
L 422.083339 141.263327 
L 423.149038 132.695323 
L 424.214737 122.085857 
L 425.280436 127.077883 
L 426.346135 129.323187 
L 429.543232 135.551034 
L 430.608931 131.537072 
L 431.67463 129.930487 
L 432.740329 129.59146 
L 433.806028 135.278375 
L 437.003125 140.009466 
L 438.068824 137.299543 
L 439.134523 143.335223 
L 440.200222 140.965738 
L 441.265921 141.975862 
L 444.463018 145.569039 
L 445.528717 143.85314 
L 446.594416 145.988275 
L 447.660115 146.625035 
L 448.725814 148.142576 
L 451.922911 143.777834 
L 452.98861 145.766568 
L 454.054309 145.149832 
L 455.120008 148.092409 
L 456.185707 150.107166 
L 459.382804 151.641299 
L 460.448503 146.443106 
L 461.514202 150.740504 
L 462.579901 153.737406 
L 463.6456 153.586187 
L 466.842697 150.751258 
L 467.908396 144.040975 
L 468.974095 142.910986 
L 470.039794 142.831438 
L 471.105493 134.23506 
L 474.30259 136.363541 
L 475.368289 136.000801 
L 476.433988 137.346086 
L 477.499687 135.042419 
L 478.565386 136.140748 
L 481.762483 133.706222 
L 482.828182 135.834082 
L 483.893881 143.644834 
L 484.95958 145.061812 
L 486.025279 141.215049 
L 490.288075 141.652474 
L 491.353774 140.085655 
L 493.485172 144.76703 
L 496.682269 146.214367 
L 497.747968 147.952025 
L 498.813667 148.599471 
L 499.879366 148.218805 
L 500.945065 149.673365 
L 504.142162 147.692831 
L 505.207861 148.820398 
L 506.27356 143.092959 
L 507.339259 148.844517 
L 508.404958 153.183512 
L 511.602055 150.479417 
L 512.667754 149.748966 
L 513.733453 150.857037 
L 514.799153 152.314288 
L 515.864852 152.943441 
L 519.061949 150.997604 
L 520.127648 153.874603 
L 521.193347 155.376 
L 541.441628 155.376 
L 541.441628 155.376 
" clip-path="url(#p0069423118)" style="fill: none; stroke: #8c564b; stroke-width: 1.5; stroke-linecap: square"/>
   </g>
   <g id="line2d_26">
    <path d="M 332.564622 155.376 
L 333.630321 155.376 
L 334.69602 153.915623 
L 335.761719 155.375991 
L 336.827418 155.375999 
L 340.024515 149.927448 
L 341.090214 155.375999 
L 377.323981 155.375999 
L 378.38968 141.504055 
L 379.455379 152.147105 
L 380.521078 155.375984 
L 385.849573 155.375995 
L 386.915272 153.918986 
L 387.980971 147.570461 
L 399.70366 140.425792 
L 400.769359 141.95122 
L 401.835058 141.825463 
L 402.900757 138.404496 
L 403.966456 138.945182 
L 407.163553 139.628894 
L 408.229252 152.200745 
L 409.294951 155.376 
L 410.36065 152.694989 
L 411.426349 139.531674 
L 414.623446 148.198154 
L 415.689145 155.375998 
L 484.95958 155.376 
L 486.025279 151.74376 
L 490.288075 153.013551 
L 491.353774 151.225418 
L 492.419473 153.1437 
L 493.485172 148.712372 
L 496.682269 146.727596 
L 497.747968 147.916168 
L 498.813667 150.084336 
L 499.879366 155.376 
L 541.441628 155.376 
L 541.441628 155.376 
" clip-path="url(#p0069423118)" style="fill: none; stroke: #e377c2; stroke-width: 1.5; stroke-linecap: square"/>
   </g>
   <g id="line2d_27">
    <path d="M 332.564622 155.376 
L 425.280436 155.376 
L 426.346135 153.849114 
L 429.543232 152.276129 
L 430.608931 153.152344 
L 431.67463 153.050394 
L 432.740329 154.674605 
L 433.806028 153.104273 
L 437.003125 131.862768 
L 438.068824 130.466496 
L 439.134523 122.794424 
L 440.200222 106.922538 
L 441.265921 107.15041 
L 444.463018 95.385772 
L 445.528717 96.65926 
L 446.594416 95.819664 
L 447.660115 94.742922 
L 448.725814 94.648476 
L 452.98861 95.004183 
L 454.054309 100.608919 
L 455.120008 120.230089 
L 456.185707 120.566929 
L 459.382804 118.750816 
L 460.448503 98.132991 
L 461.514202 113.035902 
L 462.579901 112.769595 
L 463.6456 111.622911 
L 466.842697 109.573095 
L 467.908396 116.253823 
L 468.974095 107.852505 
L 470.039794 96.985764 
L 471.105493 96.549401 
L 474.30259 92.622973 
L 475.368289 104.960478 
L 476.433988 88.584327 
L 477.499687 84.562257 
L 478.565386 74.451933 
L 481.762483 78.684676 
L 482.828182 72.537336 
L 483.893881 73.037919 
L 484.95958 68.320172 
L 486.025279 66.781292 
L 490.288075 69.443926 
L 491.353774 75.046799 
L 492.419473 70.069467 
L 493.485172 74.761212 
L 496.682269 77.513491 
L 497.747968 79.880578 
L 499.879366 79.543138 
L 505.207861 88.547438 
L 506.27356 94.548109 
L 507.339259 93.176053 
L 508.404958 86.786003 
L 511.602055 85.37557 
L 512.667754 83.187944 
L 513.733453 78.389188 
L 514.799153 78.876257 
L 515.864852 82.033939 
L 519.061949 85.437654 
L 520.127648 85.214985 
L 521.193347 85.387385 
L 522.259046 81.027504 
L 523.324745 75.806553 
L 526.521842 73.062663 
L 527.587541 76.432503 
L 528.65324 71.743763 
L 529.718939 74.113462 
L 541.441628 70.514024 
L 541.441628 70.514024 
" clip-path="url(#p0069423118)" style="fill: none; stroke: #7f7f7f; stroke-width: 1.5; stroke-linecap: square"/>
   </g>
   <g id="line2d_28">
    <path d="M 332.564622 155.376 
L 333.630321 127.80777 
L 334.69602 126.561292 
L 335.761719 129.756427 
L 336.827418 136.489915 
L 340.024515 138.071652 
L 342.155913 131.836951 
L 343.221612 136.593144 
L 344.287311 148.292538 
L 347.484408 136.75477 
L 349.615806 145.981133 
L 350.681505 142.689707 
L 351.747204 147.86052 
L 354.944301 155.376 
L 356.01 146.426286 
L 357.075699 145.889404 
L 358.141398 144.203854 
L 359.207097 154.664384 
L 362.404195 155.376 
L 363.469894 152.41559 
L 364.535593 155.376 
L 365.601292 155.376 
L 366.666991 150.578857 
L 369.864088 155.376 
L 370.929787 155.376 
L 371.995486 154.646192 
L 373.061185 155.375994 
L 374.126884 153.092674 
L 377.323981 151.791962 
L 378.38968 155.147423 
L 379.455379 155.376 
L 399.70366 155.375993 
L 401.835058 130.40631 
L 402.900757 139.987973 
L 403.966456 142.419516 
L 407.163553 150.536417 
L 408.229252 155.376 
L 409.294951 143.168947 
L 410.36065 154.882955 
L 411.426349 155.376 
L 417.820543 155.376 
L 418.886242 148.344407 
L 422.083339 147.403675 
L 423.149038 146.9582 
L 424.214737 149.263908 
L 425.280436 147.696862 
L 426.346135 148.470359 
L 429.543232 149.488793 
L 430.608931 151.016355 
L 431.67463 151.517381 
L 432.740329 151.352759 
L 433.806028 152.200473 
L 437.003125 152.577951 
L 438.068824 153.103174 
L 439.134523 152.746671 
L 440.200222 155.376 
L 452.98861 155.376 
L 454.054309 153.314874 
L 455.120008 152.724259 
L 456.185707 153.073223 
L 459.382804 151.647548 
L 460.448503 155.376 
L 461.514202 146.962966 
L 462.579901 151.066901 
L 463.6456 148.681476 
L 466.842697 149.481793 
L 467.908396 151.541995 
L 468.974095 152.177732 
L 470.039794 145.480354 
L 471.105493 146.615876 
L 475.368289 145.898168 
L 476.433988 151.241386 
L 477.499687 146.638064 
L 478.565386 150.575244 
L 481.762483 147.129608 
L 482.828182 150.620923 
L 483.893881 146.986348 
L 484.95958 148.441747 
L 486.025279 152.915851 
L 490.288075 151.481022 
L 491.353774 149.232466 
L 492.419473 148.529283 
L 493.485172 149.370789 
L 496.682269 149.672069 
L 497.747968 150.028392 
L 498.813667 150.921289 
L 499.879366 152.760843 
L 500.945065 153.016983 
L 504.142162 150.50746 
L 505.207861 150.851324 
L 506.27356 151.056231 
L 507.339259 151.384083 
L 508.404958 152.704364 
L 511.602055 152.50385 
L 512.667754 150.226885 
L 513.733453 151.460749 
L 514.799153 152.017629 
L 515.864852 150.055293 
L 520.127648 144.620419 
L 521.193347 146.236705 
L 522.259046 145.942735 
L 523.324745 150.665456 
L 526.521842 152.520449 
L 527.587541 152.015827 
L 528.65324 155.317879 
L 529.718939 154.343877 
L 541.441628 151.032561 
L 541.441628 151.032561 
" clip-path="url(#p0069423118)" style="fill: none; stroke: #bcbd22; stroke-width: 1.5; stroke-linecap: square"/>
   </g>
   <g id="line2d_29">
    <path d="M 332.564622 155.376 
L 333.630321 69.465157 
L 334.69602 77.964931 
L 335.761719 70.443458 
L 336.827418 73.051558 
L 340.024515 72.965956 
L 341.090214 81.639465 
L 342.155913 83.102988 
L 343.221612 70.552449 
L 344.287311 67.455556 
L 347.484408 73.792838 
L 348.550107 63.20933 
L 350.681505 61.716918 
L 351.747204 56.587136 
L 354.944301 53.463574 
L 356.01 60.127017 
L 357.075699 62.985142 
L 358.141398 66.919792 
L 359.207097 67.010968 
L 362.404195 66.290845 
L 363.469894 63.866903 
L 364.535593 59.325026 
L 365.601292 63.177599 
L 366.666991 65.041454 
L 370.929787 55.457278 
L 371.995486 60.372102 
L 373.061185 61.238428 
L 374.126884 58.162868 
L 377.323981 61.970988 
L 379.455379 74.580709 
L 380.521078 65.541996 
L 381.586777 67.20528 
L 385.849573 67.555681 
L 386.915272 63.49166 
L 387.980971 71.767342 
L 399.70366 81.015667 
L 400.769359 91.077909 
L 401.835058 99.252829 
L 402.900757 94.955676 
L 403.966456 105.43514 
L 407.163553 104.906468 
L 408.229252 108.235769 
L 409.294951 114.77487 
L 410.36065 105.192419 
L 411.426349 112.153511 
L 414.623446 112.04159 
L 415.689145 112.174232 
L 416.754844 121.994922 
L 417.820543 123.676846 
L 418.886242 136.727347 
L 422.083339 134.086419 
L 423.149038 136.641555 
L 424.214737 145.234227 
L 425.280436 139.894116 
L 426.346135 139.38385 
L 429.543232 135.214779 
L 430.608931 140.515159 
L 431.67463 144.494081 
L 432.740329 139.07028 
L 433.806028 135.701912 
L 437.003125 133.559127 
L 438.068824 138.415421 
L 439.134523 137.072539 
L 440.200222 146.225225 
L 441.265921 143.789761 
L 444.463018 146.453386 
L 445.528717 146.371036 
L 446.594416 147.735709 
L 447.660115 148.142857 
L 448.725814 147.13999 
L 451.922911 149.255957 
L 452.98861 149.157943 
L 454.054309 142.54649 
L 455.120008 138.81856 
L 456.185707 138.854797 
L 459.382804 137.013911 
L 460.448503 137.457651 
L 461.514202 133.740766 
L 462.579901 137.540604 
L 463.6456 147.140905 
L 466.842697 145.062978 
L 467.908396 145.131563 
L 468.974095 142.671704 
L 470.039794 152.866969 
L 471.105493 150.709456 
L 474.30259 149.78403 
L 475.368289 147.425099 
L 477.499687 155.282463 
L 478.565386 154.120817 
L 481.762483 155.376 
L 486.025279 155.376 
L 490.288075 152.827092 
L 492.419473 154.122731 
L 493.485172 150.473382 
L 496.682269 149.719076 
L 497.747968 144.360148 
L 498.813667 144.616326 
L 499.879366 142.087906 
L 500.945065 141.529595 
L 504.142162 144.796572 
L 505.207861 142.987986 
L 506.27356 142.133048 
L 507.339259 140.693194 
L 508.404958 144.460556 
L 511.602055 143.959112 
L 512.667754 144.217754 
L 513.733453 145.064436 
L 514.799153 143.206354 
L 515.864852 143.075031 
L 519.061949 141.588546 
L 520.127648 139.818013 
L 521.193347 132.914284 
L 522.259046 136.140502 
L 523.324745 135.923772 
L 526.521842 138.895828 
L 527.587541 138.433577 
L 528.65324 136.577367 
L 529.718939 138.115435 
L 541.441628 140.436354 
L 541.441628 140.436354 
" clip-path="url(#p0069423118)" style="fill: none; stroke: #17becf; stroke-width: 1.5; stroke-linecap: square"/>
   </g>
   <g id="line2d_30">
    <path d="M 332.564622 14.256 
L 333.630321 155.376 
L 541.441628 155.376 
L 541.441628 155.376 
" clip-path="url(#p0069423118)" style="fill: none; stroke: #1f77b4; stroke-width: 1.5; stroke-linecap: square"/>
   </g>
   <g id="patch_8">
    <path d="M 322.120772 162.432 
L 322.120772 7.2 
" style="fill: none; stroke: #000000; stroke-width: 0.8; stroke-linejoin: miter; stroke-linecap: square"/>
   </g>
   <g id="patch_9">
    <path d="M 551.885478 162.432 
L 551.885478 7.2 
" style="fill: none; stroke: #000000; stroke-width: 0.8; stroke-linejoin: miter; stroke-linecap: square"/>
   </g>
   <g id="patch_10">
    <path d="M 322.120772 162.432 
L 551.885478 162.432 
" style="fill: none; stroke: #000000; stroke-width: 0.8; stroke-linejoin: miter; stroke-linecap: square"/>
   </g>
   <g id="patch_11">
    <path d="M 322.120772 7.2 
L 551.885478 7.2 
" style="fill: none; stroke: #000000; stroke-width: 0.8; stroke-linejoin: miter; stroke-linecap: square"/>
   </g>
   <g id="legend_1">
    <g id="patch_12">
     <path d="M 329.120772 148.60625 
L 416.120772 148.60625 
Q 418.120772 148.60625 418.120772 146.60625 
L 418.120772 14.2 
Q 418.120772 12.2 416.120772 12.2 
L 329.120772 12.2 
Q 327.120772 12.2 327.120772 14.2 
L 327.120772 146.60625 
Q 327.120772 148.60625 329.120772 148.60625 
z
" style="fill: #ffffff; opacity: 0.8; stroke: #cccccc; stroke-linejoin: miter"/>
    </g>
    <g id="line2d_31">
     <path d="M 331.120772 19.73125 
L 341.120772 19.73125 
L 351.120772 19.73125 
" style="fill: none; stroke: #1f77b4; stroke-width: 1.5; stroke-linecap: square"/>
    </g>
    <g id="text_20">
     <!-- w_002027.SZ -->
     <g transform="translate(359.120772 23.23125) scale(0.1 -0.1)">
      <defs>
       <path id="SimHei-77" d="M 3075 2925 
L 2450 75 
L 1975 75 
L 1575 2250 
L 1525 2250 
L 1125 75 
L 650 75 
L 25 2925 
L 550 2925 
L 875 1050 
L 925 1050 
L 1275 2925 
L 1825 2925 
L 2175 1050 
L 2225 1050 
L 2550 2925 
L 3075 2925 
z
" transform="scale(0.015625)"/>
       <path id="SimHei-5f" d="M 3150 -850 
L 0 -850 
L 0 -550 
L 3150 -550 
L 3150 -850 
z
" transform="scale(0.015625)"/>
       <path id="SimHei-37" d="M 850 150 
Q 1300 2050 2425 3925 
L 275 3925 
L 275 4375 
L 2950 4375 
L 2950 3950 
Q 1775 2050 1400 150 
L 850 150 
z
" transform="scale(0.015625)"/>
       <path id="SimHei-5a" d="M 2900 125 
L 225 125 
L 225 600 
L 2250 3925 
L 375 3925 
L 375 4400 
L 2825 4400 
L 2825 3925 
L 800 600 
L 2900 600 
L 2900 125 
z
" transform="scale(0.015625)"/>
      </defs>
      <use xlink:href="#SimHei-77"/>
      <use xlink:href="#SimHei-5f" x="50"/>
      <use xlink:href="#SimHei-30" x="100"/>
      <use xlink:href="#SimHei-30" x="150"/>
      <use xlink:href="#SimHei-32" x="200"/>
      <use xlink:href="#SimHei-30" x="250"/>
      <use xlink:href="#SimHei-32" x="300"/>
      <use xlink:href="#SimHei-37" x="350"/>
      <use xlink:href="#SimHei-2e" x="400"/>
      <use xlink:href="#SimHei-53" x="450"/>
      <use xlink:href="#SimHei-5a" x="500"/>
     </g>
    </g>
    <g id="line2d_32">
     <path d="M 331.120772 33.090625 
L 341.120772 33.090625 
L 351.120772 33.090625 
" style="fill: none; stroke: #ff7f0e; stroke-width: 1.5; stroke-linecap: square"/>
    </g>
    <g id="text_21">
     <!-- w_002371.SZ -->
     <g transform="translate(359.120772 36.590625) scale(0.1 -0.1)">
      <use xlink:href="#SimHei-77"/>
      <use xlink:href="#SimHei-5f" x="50"/>
      <use xlink:href="#SimHei-30" x="100"/>
      <use xlink:href="#SimHei-30" x="150"/>
      <use xlink:href="#SimHei-32" x="200"/>
      <use xlink:href="#SimHei-33" x="250"/>
      <use xlink:href="#SimHei-37" x="300"/>
      <use xlink:href="#SimHei-31" x="350"/>
      <use xlink:href="#SimHei-2e" x="400"/>
      <use xlink:href="#SimHei-53" x="450"/>
      <use xlink:href="#SimHei-5a" x="500"/>
     </g>
    </g>
    <g id="line2d_33">
     <path d="M 331.120772 46.41875 
L 341.120772 46.41875 
L 351.120772 46.41875 
" style="fill: none; stroke: #2ca02c; stroke-width: 1.5; stroke-linecap: square"/>
    </g>
    <g id="text_22">
     <!-- w_600009.SH -->
     <g transform="translate(359.120772 49.91875) scale(0.1 -0.1)">
      <defs>
       <path id="SimHei-48" d="M 2850 125 
L 2275 125 
L 2275 2125 
L 850 2125 
L 850 125 
L 275 125 
L 275 4400 
L 850 4400 
L 850 2600 
L 2275 2600 
L 2275 4400 
L 2850 4400 
L 2850 125 
z
" transform="scale(0.015625)"/>
      </defs>
      <use xlink:href="#SimHei-77"/>
      <use xlink:href="#SimHei-5f" x="50"/>
      <use xlink:href="#SimHei-36" x="100"/>
      <use xlink:href="#SimHei-30" x="150"/>
      <use xlink:href="#SimHei-30" x="200"/>
      <use xlink:href="#SimHei-30" x="250"/>
      <use xlink:href="#SimHei-30" x="300"/>
      <use xlink:href="#SimHei-39" x="350"/>
      <use xlink:href="#SimHei-2e" x="400"/>
      <use xlink:href="#SimHei-53" x="450"/>
      <use xlink:href="#SimHei-48" x="500"/>
     </g>
    </g>
    <g id="line2d_34">
     <path d="M 331.120772 59.778125 
L 341.120772 59.778125 
L 351.120772 59.778125 
" style="fill: none; stroke: #d62728; stroke-width: 1.5; stroke-linecap: square"/>
    </g>
    <g id="text_23">
     <!-- w_600029.SH -->
     <g transform="translate(359.120772 63.278125) scale(0.1 -0.1)">
      <use xlink:href="#SimHei-77"/>
      <use xlink:href="#SimHei-5f" x="50"/>
      <use xlink:href="#SimHei-36" x="100"/>
      <use xlink:href="#SimHei-30" x="150"/>
      <use xlink:href="#SimHei-30" x="200"/>
      <use xlink:href="#SimHei-30" x="250"/>
      <use xlink:href="#SimHei-32" x="300"/>
      <use xlink:href="#SimHei-39" x="350"/>
      <use xlink:href="#SimHei-2e" x="400"/>
      <use xlink:href="#SimHei-53" x="450"/>
      <use xlink:href="#SimHei-48" x="500"/>
     </g>
    </g>
    <g id="line2d_35">
     <path d="M 331.120772 73.1375 
L 341.120772 73.1375 
L 351.120772 73.1375 
" style="fill: none; stroke: #9467bd; stroke-width: 1.5; stroke-linecap: square"/>
    </g>
    <g id="text_24">
     <!-- w_600183.SH -->
     <g transform="translate(359.120772 76.6375) scale(0.1 -0.1)">
      <use xlink:href="#SimHei-77"/>
      <use xlink:href="#SimHei-5f" x="50"/>
      <use xlink:href="#SimHei-36" x="100"/>
      <use xlink:href="#SimHei-30" x="150"/>
      <use xlink:href="#SimHei-30" x="200"/>
      <use xlink:href="#SimHei-31" x="250"/>
      <use xlink:href="#SimHei-38" x="300"/>
      <use xlink:href="#SimHei-33" x="350"/>
      <use xlink:href="#SimHei-2e" x="400"/>
      <use xlink:href="#SimHei-53" x="450"/>
      <use xlink:href="#SimHei-48" x="500"/>
     </g>
    </g>
    <g id="line2d_36">
     <path d="M 331.120772 86.465625 
L 341.120772 86.465625 
L 351.120772 86.465625 
" style="fill: none; stroke: #8c564b; stroke-width: 1.5; stroke-linecap: square"/>
    </g>
    <g id="text_25">
     <!-- w_600406.SH -->
     <g transform="translate(359.120772 89.965625) scale(0.1 -0.1)">
      <use xlink:href="#SimHei-77"/>
      <use xlink:href="#SimHei-5f" x="50"/>
      <use xlink:href="#SimHei-36" x="100"/>
      <use xlink:href="#SimHei-30" x="150"/>
      <use xlink:href="#SimHei-30" x="200"/>
      <use xlink:href="#SimHei-34" x="250"/>
      <use xlink:href="#SimHei-30" x="300"/>
      <use xlink:href="#SimHei-36" x="350"/>
      <use xlink:href="#SimHei-2e" x="400"/>
      <use xlink:href="#SimHei-53" x="450"/>
      <use xlink:href="#SimHei-48" x="500"/>
     </g>
    </g>
    <g id="line2d_37">
     <path d="M 331.120772 99.79375 
L 341.120772 99.79375 
L 351.120772 99.79375 
" style="fill: none; stroke: #e377c2; stroke-width: 1.5; stroke-linecap: square"/>
    </g>
    <g id="text_26">
     <!-- w_600900.SH -->
     <g transform="translate(359.120772 103.29375) scale(0.1 -0.1)">
      <use xlink:href="#SimHei-77"/>
      <use xlink:href="#SimHei-5f" x="50"/>
      <use xlink:href="#SimHei-36" x="100"/>
      <use xlink:href="#SimHei-30" x="150"/>
      <use xlink:href="#SimHei-30" x="200"/>
      <use xlink:href="#SimHei-39" x="250"/>
      <use xlink:href="#SimHei-30" x="300"/>
      <use xlink:href="#SimHei-30" x="350"/>
      <use xlink:href="#SimHei-2e" x="400"/>
      <use xlink:href="#SimHei-53" x="450"/>
      <use xlink:href="#SimHei-48" x="500"/>
     </g>
    </g>
    <g id="line2d_38">
     <path d="M 331.120772 113.121875 
L 341.120772 113.121875 
L 351.120772 113.121875 
" style="fill: none; stroke: #7f7f7f; stroke-width: 1.5; stroke-linecap: square"/>
    </g>
    <g id="text_27">
     <!-- w_601989.SH -->
     <g transform="translate(359.120772 116.621875) scale(0.1 -0.1)">
      <use xlink:href="#SimHei-77"/>
      <use xlink:href="#SimHei-5f" x="50"/>
      <use xlink:href="#SimHei-36" x="100"/>
      <use xlink:href="#SimHei-30" x="150"/>
      <use xlink:href="#SimHei-31" x="200"/>
      <use xlink:href="#SimHei-39" x="250"/>
      <use xlink:href="#SimHei-38" x="300"/>
      <use xlink:href="#SimHei-39" x="350"/>
      <use xlink:href="#SimHei-2e" x="400"/>
      <use xlink:href="#SimHei-53" x="450"/>
      <use xlink:href="#SimHei-48" x="500"/>
     </g>
    </g>
    <g id="line2d_39">
     <path d="M 331.120772 126.45 
L 341.120772 126.45 
L 351.120772 126.45 
" style="fill: none; stroke: #bcbd22; stroke-width: 1.5; stroke-linecap: square"/>
    </g>
    <g id="text_28">
     <!-- w_601998.SH -->
     <g transform="translate(359.120772 129.95) scale(0.1 -0.1)">
      <use xlink:href="#SimHei-77"/>
      <use xlink:href="#SimHei-5f" x="50"/>
      <use xlink:href="#SimHei-36" x="100"/>
      <use xlink:href="#SimHei-30" x="150"/>
      <use xlink:href="#SimHei-31" x="200"/>
      <use xlink:href="#SimHei-39" x="250"/>
      <use xlink:href="#SimHei-39" x="300"/>
      <use xlink:href="#SimHei-38" x="350"/>
      <use xlink:href="#SimHei-2e" x="400"/>
      <use xlink:href="#SimHei-53" x="450"/>
      <use xlink:href="#SimHei-48" x="500"/>
     </g>
    </g>
    <g id="line2d_40">
     <path d="M 331.120772 139.778125 
L 341.120772 139.778125 
L 351.120772 139.778125 
" style="fill: none; stroke: #17becf; stroke-width: 1.5; stroke-linecap: square"/>
    </g>
    <g id="text_29">
     <!-- w_CASH -->
     <g transform="translate(359.120772 143.278125) scale(0.1 -0.1)">
      <defs>
       <path id="SimHei-41" d="M 3075 125 
L 2475 125 
L 2125 1450 
L 1025 1450 
L 675 125 
L 75 125 
L 1325 4450 
L 1825 4450 
L 3075 125 
z
M 2000 1925 
L 1600 3450 
L 1550 3450 
L 1150 1925 
L 2000 1925 
z
" transform="scale(0.015625)"/>
      </defs>
      <use xlink:href="#SimHei-77"/>
      <use xlink:href="#SimHei-5f" x="50"/>
      <use xlink:href="#SimHei-43" x="100"/>
      <use xlink:href="#SimHei-41" x="150"/>
      <use xlink:href="#SimHei-53" x="200"/>
      <use xlink:href="#SimHei-48" x="250"/>
     </g>
    </g>
   </g>
  </g>
  <g id="axes_3">
   <g id="patch_13">
    <path d="M 597.838419 162.432 
L 827.603125 162.432 
L 827.603125 7.2 
L 597.838419 7.2 
z
" style="fill: #ffffff"/>
   </g>
   <g id="matplotlib.axis_5">
    <g id="xtick_7">
     <g id="line2d_41">
      <g>
       <use xlink:href="#mdc20a6edf2" x="654.107327" y="162.432" style="stroke: #000000; stroke-width: 0.8"/>
      </g>
     </g>
     <g id="text_30">
      <!-- 2023-09-20 -->
      <g transform="translate(629.107327 176.307) scale(0.1 -0.1)">
       <use xlink:href="#SimHei-32"/>
       <use xlink:href="#SimHei-30" x="50"/>
       <use xlink:href="#SimHei-32" x="100"/>
       <use xlink:href="#SimHei-33" x="150"/>
       <use xlink:href="#SimHei-2d" x="200"/>
       <use xlink:href="#SimHei-30" x="250"/>
       <use xlink:href="#SimHei-39" x="300"/>
       <use xlink:href="#SimHei-2d" x="350"/>
       <use xlink:href="#SimHei-32" x="400"/>
       <use xlink:href="#SimHei-30" x="450"/>
      </g>
     </g>
    </g>
    <g id="xtick_8">
     <g id="line2d_42">
      <g>
       <use xlink:href="#mdc20a6edf2" x="718.049267" y="162.432" style="stroke: #000000; stroke-width: 0.8"/>
      </g>
     </g>
     <g id="text_31">
      <!-- 2023-11-19 -->
      <g transform="translate(693.049267 176.307) scale(0.1 -0.1)">
       <use xlink:href="#SimHei-32"/>
       <use xlink:href="#SimHei-30" x="50"/>
       <use xlink:href="#SimHei-32" x="100"/>
       <use xlink:href="#SimHei-33" x="150"/>
       <use xlink:href="#SimHei-2d" x="200"/>
       <use xlink:href="#SimHei-31" x="250"/>
       <use xlink:href="#SimHei-31" x="300"/>
       <use xlink:href="#SimHei-2d" x="350"/>
       <use xlink:href="#SimHei-31" x="400"/>
       <use xlink:href="#SimHei-39" x="450"/>
      </g>
     </g>
    </g>
    <g id="xtick_9">
     <g id="line2d_43">
      <g>
       <use xlink:href="#mdc20a6edf2" x="781.991208" y="162.432" style="stroke: #000000; stroke-width: 0.8"/>
      </g>
     </g>
     <g id="text_32">
      <!-- 2024-01-18 -->
      <g transform="translate(756.991208 176.307) scale(0.1 -0.1)">
       <use xlink:href="#SimHei-32"/>
       <use xlink:href="#SimHei-30" x="50"/>
       <use xlink:href="#SimHei-32" x="100"/>
       <use xlink:href="#SimHei-34" x="150"/>
       <use xlink:href="#SimHei-2d" x="200"/>
       <use xlink:href="#SimHei-30" x="250"/>
       <use xlink:href="#SimHei-31" x="300"/>
       <use xlink:href="#SimHei-2d" x="350"/>
       <use xlink:href="#SimHei-31" x="400"/>
       <use xlink:href="#SimHei-38" x="450"/>
      </g>
     </g>
    </g>
   </g>
   <g id="matplotlib.axis_6">
    <g id="ytick_13">
     <g id="line2d_44">
      <g>
       <use xlink:href="#mf731d8b0b9" x="597.838419" y="155.376" style="stroke: #000000; stroke-width: 0.8"/>
      </g>
     </g>
     <g id="text_33">
      <!-- 0.0000 -->
      <g transform="translate(560.838419 158.8135) scale(0.1 -0.1)">
       <use xlink:href="#SimHei-30"/>
       <use xlink:href="#SimHei-2e" x="50"/>
       <use xlink:href="#SimHei-30" x="100"/>
       <use xlink:href="#SimHei-30" x="150"/>
       <use xlink:href="#SimHei-30" x="200"/>
       <use xlink:href="#SimHei-30" x="250"/>
      </g>
     </g>
    </g>
    <g id="ytick_14">
     <g id="line2d_45">
      <g>
       <use xlink:href="#mf731d8b0b9" x="597.838419" y="127.152" style="stroke: #000000; stroke-width: 0.8"/>
      </g>
     </g>
     <g id="text_34">
      <!-- 0.0005 -->
      <g transform="translate(560.838419 130.5895) scale(0.1 -0.1)">
       <defs>
        <path id="SimHei-35" d="M 550 1325 
Q 725 650 1150 575 
Q 1575 500 1837 662 
Q 2100 825 2212 1087 
Q 2325 1350 2312 1675 
Q 2300 2000 2137 2225 
Q 1975 2450 1725 2525 
Q 1475 2600 1162 2525 
Q 850 2450 650 2175 
L 225 2225 
Q 275 2375 700 4375 
L 2675 4375 
L 2675 3925 
L 1075 3925 
Q 950 3250 825 2850 
Q 1200 3025 1525 3012 
Q 1850 3000 2150 2862 
Q 2450 2725 2587 2487 
Q 2725 2250 2787 2012 
Q 2850 1775 2837 1500 
Q 2825 1225 2725 937 
Q 2625 650 2425 462 
Q 2225 275 1937 162 
Q 1650 50 1275 75 
Q 900 100 562 350 
Q 225 600 100 1200 
L 550 1325 
z
" transform="scale(0.015625)"/>
       </defs>
       <use xlink:href="#SimHei-30"/>
       <use xlink:href="#SimHei-2e" x="50"/>
       <use xlink:href="#SimHei-30" x="100"/>
       <use xlink:href="#SimHei-30" x="150"/>
       <use xlink:href="#SimHei-30" x="200"/>
       <use xlink:href="#SimHei-35" x="250"/>
      </g>
     </g>
    </g>
    <g id="ytick_15">
     <g id="line2d_46">
      <g>
       <use xlink:href="#mf731d8b0b9" x="597.838419" y="98.928" style="stroke: #000000; stroke-width: 0.8"/>
      </g>
     </g>
     <g id="text_35">
      <!-- 0.0010 -->
      <g transform="translate(560.838419 102.3655) scale(0.1 -0.1)">
       <use xlink:href="#SimHei-30"/>
       <use xlink:href="#SimHei-2e" x="50"/>
       <use xlink:href="#SimHei-30" x="100"/>
       <use xlink:href="#SimHei-30" x="150"/>
       <use xlink:href="#SimHei-31" x="200"/>
       <use xlink:href="#SimHei-30" x="250"/>
      </g>
     </g>
    </g>
    <g id="ytick_16">
     <g id="line2d_47">
      <g>
       <use xlink:href="#mf731d8b0b9" x="597.838419" y="70.704" style="stroke: #000000; stroke-width: 0.8"/>
      </g>
     </g>
     <g id="text_36">
      <!-- 0.0015 -->
      <g transform="translate(560.838419 74.1415) scale(0.1 -0.1)">
       <use xlink:href="#SimHei-30"/>
       <use xlink:href="#SimHei-2e" x="50"/>
       <use xlink:href="#SimHei-30" x="100"/>
       <use xlink:href="#SimHei-30" x="150"/>
       <use xlink:href="#SimHei-31" x="200"/>
       <use xlink:href="#SimHei-35" x="250"/>
      </g>
     </g>
    </g>
    <g id="ytick_17">
     <g id="line2d_48">
      <g>
       <use xlink:href="#mf731d8b0b9" x="597.838419" y="42.48" style="stroke: #000000; stroke-width: 0.8"/>
      </g>
     </g>
     <g id="text_37">
      <!-- 0.0020 -->
      <g transform="translate(560.838419 45.9175) scale(0.1 -0.1)">
       <use xlink:href="#SimHei-30"/>
       <use xlink:href="#SimHei-2e" x="50"/>
       <use xlink:href="#SimHei-30" x="100"/>
       <use xlink:href="#SimHei-30" x="150"/>
       <use xlink:href="#SimHei-32" x="200"/>
       <use xlink:href="#SimHei-30" x="250"/>
      </g>
     </g>
    </g>
    <g id="ytick_18">
     <g id="line2d_49">
      <g>
       <use xlink:href="#mf731d8b0b9" x="597.838419" y="14.256" style="stroke: #000000; stroke-width: 0.8"/>
      </g>
     </g>
     <g id="text_38">
      <!-- 0.0025 -->
      <g transform="translate(560.838419 17.6935) scale(0.1 -0.1)">
       <use xlink:href="#SimHei-30"/>
       <use xlink:href="#SimHei-2e" x="50"/>
       <use xlink:href="#SimHei-30" x="100"/>
       <use xlink:href="#SimHei-30" x="150"/>
       <use xlink:href="#SimHei-32" x="200"/>
       <use xlink:href="#SimHei-35" x="250"/>
      </g>
     </g>
    </g>
   </g>
   <g id="line2d_50">
    <path d="M 608.282269 14.256 
L 609.347968 137.828492 
L 610.413667 139.236406 
L 611.479366 134.739395 
L 614.676463 128.046935 
L 615.742162 125.535521 
L 616.807861 143.98591 
L 617.87356 129.108338 
L 618.939259 132.609125 
L 622.136356 132.345576 
L 623.202055 134.214232 
L 624.267754 131.522569 
L 625.333453 145.053954 
L 626.399153 144.278308 
L 629.59625 140.445519 
L 630.661949 137.476572 
L 631.727648 152.167582 
L 632.793347 146.904058 
L 633.859046 133.245315 
L 637.056143 153.968989 
L 638.121842 144.187252 
L 639.187541 146.831337 
L 640.25324 147.484404 
L 641.318939 145.781697 
L 644.516036 139.746295 
L 645.581735 151.666224 
L 646.647434 145.965573 
L 647.713133 150.125553 
L 648.778832 144.879446 
L 651.975929 148.628269 
L 653.041628 127.632111 
L 654.107327 120.773707 
L 656.238725 152.992576 
L 659.435822 154.074009 
L 660.501521 154.723622 
L 662.632919 133.404022 
L 674.355608 130.406098 
L 675.421307 105.500997 
L 676.487006 118.891687 
L 677.552705 136.84537 
L 678.618404 128.120724 
L 681.815501 136.961492 
L 682.8812 104.658423 
L 683.946899 91.096904 
L 685.012598 113.065184 
L 686.078297 113.620966 
L 689.275394 133.979379 
L 690.341093 139.369949 
L 691.406792 139.59462 
L 692.472491 149.576032 
L 693.53819 113.689677 
L 696.735287 135.376367 
L 697.800986 136.73399 
L 698.866685 126.304779 
L 699.932384 141.622342 
L 700.998083 148.303936 
L 704.19518 137.942656 
L 705.260879 140.121973 
L 706.326578 131.815031 
L 707.392277 140.373318 
L 708.457976 140.243384 
L 711.655073 108.983889 
L 712.720772 143.806442 
L 713.786471 130.607315 
L 714.85217 119.124455 
L 715.917869 141.399052 
L 719.114966 130.396381 
L 720.180665 143.657934 
L 721.246364 146.612382 
L 722.312063 148.645229 
L 723.377762 146.844765 
L 726.574859 137.851719 
L 727.640558 150.06565 
L 728.706257 136.880406 
L 729.771956 108.752077 
L 730.837655 144.965986 
L 734.034752 144.267463 
L 735.100451 103.778377 
L 736.16615 117.257712 
L 737.231849 133.323069 
L 738.297548 135.906262 
L 741.494645 141.670469 
L 742.560344 137.385435 
L 743.626043 131.916911 
L 744.691742 120.96383 
L 745.757441 132.626878 
L 748.954538 145.565374 
L 750.020237 131.100526 
L 751.085936 124.28348 
L 752.151635 133.14848 
L 753.217334 133.053911 
L 756.414431 143.192636 
L 757.48013 144.271375 
L 758.545829 138.551022 
L 759.611528 145.532583 
L 760.677227 136.941833 
L 764.940023 146.957276 
L 766.005722 142.749872 
L 767.071421 144.054941 
L 768.13712 139.307246 
L 771.334217 146.096728 
L 772.399916 144.614189 
L 773.465615 147.454403 
L 774.531314 141.161054 
L 775.597013 148.903263 
L 778.79411 138.694458 
L 779.859809 150.686422 
L 780.925508 141.71687 
L 781.991208 142.965876 
L 783.056907 136.238209 
L 786.254004 141.154989 
L 787.319703 144.641591 
L 788.385402 144.720676 
L 789.451101 149.893446 
L 790.5168 147.807652 
L 793.713897 140.735318 
L 794.779596 149.010886 
L 795.845295 141.66062 
L 796.910994 144.99957 
L 797.976693 144.777127 
L 801.17379 145.127626 
L 802.239489 149.64781 
L 803.305188 141.636331 
L 804.370887 148.213966 
L 816.093576 142.169616 
L 817.159275 155.376 
L 817.159275 155.376 
" clip-path="url(#p8ca1d80c05)" style="fill: none; stroke: #1f77b4; stroke-width: 1.5; stroke-linecap: square"/>
   </g>
   <g id="patch_14">
    <path d="M 597.838419 162.432 
L 597.838419 7.2 
" style="fill: none; stroke: #000000; stroke-width: 0.8; stroke-linejoin: miter; stroke-linecap: square"/>
   </g>
   <g id="patch_15">
    <path d="M 827.603125 162.432 
L 827.603125 7.2 
" style="fill: none; stroke: #000000; stroke-width: 0.8; stroke-linejoin: miter; stroke-linecap: square"/>
   </g>
   <g id="patch_16">
    <path d="M 597.838419 162.432 
L 827.603125 162.432 
" style="fill: none; stroke: #000000; stroke-width: 0.8; stroke-linejoin: miter; stroke-linecap: square"/>
   </g>
   <g id="patch_17">
    <path d="M 597.838419 7.2 
L 827.603125 7.2 
" style="fill: none; stroke: #000000; stroke-width: 0.8; stroke-linejoin: miter; stroke-linecap: square"/>
   </g>
  </g>
 </g>
 <defs>
  <clipPath id="p8e2321dfcb">
   <rect x="46.403125" y="7.2" width="229.764706" height="155.232"/>
  </clipPath>
  <clipPath id="p0069423118">
   <rect x="322.120772" y="7.2" width="229.764706" height="155.232"/>
  </clipPath>
  <clipPath id="p8ca1d80c05">
   <rect x="597.838419" y="7.2" width="229.764706" height="155.232"/>
  </clipPath>
 </defs>
</svg>
