<?xml version="1.0" encoding="utf-8" standalone="no"?>
<!DOCTYPE svg PUBLIC "-//W3C//DTD SVG 1.1//EN"
  "http://www.w3.org/Graphics/SVG/1.1/DTD/svg11.dtd">
<svg xmlns:xlink="http://www.w3.org/1999/xlink" width="834.725pt" height="184.757pt" viewBox="0 0 834.725 184.757" xmlns="http://www.w3.org/2000/svg" version="1.1">
 <metadata>
  <rdf:RDF xmlns:dc="http://purl.org/dc/elements/1.1/" xmlns:cc="http://creativecommons.org/ns#" xmlns:rdf="http://www.w3.org/1999/02/22-rdf-syntax-ns#">
   <cc:Work>
    <dc:type rdf:resource="http://purl.org/dc/dcmitype/StillImage"/>
    <dc:date>2024-12-25T17:32:59.952177</dc:date>
    <dc:format>image/svg+xml</dc:format>
    <dc:creator>
     <cc:Agent>
      <dc:title>Matplotlib v3.9.3, https://matplotlib.org/</dc:title>
     </cc:Agent>
    </dc:creator>
   </cc:Work>
  </rdf:RDF>
 </metadata>
 <defs>
  <style type="text/css">*{stroke-linejoin: round; stroke-linecap: butt}</style>
 </defs>
 <g id="figure_1">
  <g id="patch_1">
   <path d="M 0 184.757 
L 834.725 184.757 
L 834.725 0 
L 0 0 
z
" style="fill: #ffffff"/>
  </g>
  <g id="axes_1">
   <g id="patch_2">
    <path d="M 46.325 162.432 
L 276.089706 162.432 
L 276.089706 7.2 
L 46.325 7.2 
z
" style="fill: #ffffff"/>
   </g>
   <g id="matplotlib.axis_1">
    <g id="xtick_1">
     <g id="line2d_1">
      <defs>
       <path id="m940db20eb0" d="M 0 0 
L 0 3.5 
" style="stroke: #000000; stroke-width: 0.8"/>
      </defs>
      <g>
       <use xlink:href="#m940db20eb0" x="102.593908" y="162.432" style="stroke: #000000; stroke-width: 0.8"/>
      </g>
     </g>
     <g id="text_1">
      <!-- 2023-09-20 -->
      <g transform="translate(77.593908 176.307) scale(0.1 -0.1)">
       <defs>
        <path id="SimHei-32" d="M 300 250 
Q 325 625 650 925 
Q 975 1225 1475 1862 
Q 1975 2500 2125 2850 
Q 2275 3200 2237 3450 
Q 2200 3700 2000 3862 
Q 1800 4025 1537 4000 
Q 1275 3975 1037 3800 
Q 800 3625 675 3275 
L 200 3350 
Q 400 3925 712 4187 
Q 1025 4450 1450 4475 
Q 1700 4500 1900 4462 
Q 2100 4425 2312 4287 
Q 2525 4150 2662 3875 
Q 2800 3600 2762 3212 
Q 2725 2825 2375 2287 
Q 2025 1750 1025 600 
L 2825 600 
L 2825 150 
L 300 150 
L 300 250 
z
" transform="scale(0.015625)"/>
        <path id="SimHei-30" d="M 225 2537 
Q 250 3200 412 3587 
Q 575 3975 875 4225 
Q 1175 4475 1612 4475 
Q 2050 4475 2375 4112 
Q 2700 3750 2800 3200 
Q 2900 2650 2862 1937 
Q 2825 1225 2612 775 
Q 2400 325 1975 150 
Q 1550 -25 1125 187 
Q 700 400 525 750 
Q 350 1100 275 1487 
Q 200 1875 225 2537 
z
M 750 2687 
Q 675 2000 800 1462 
Q 925 925 1212 700 
Q 1500 475 1800 612 
Q 2100 750 2237 1162 
Q 2375 1575 2375 2062 
Q 2375 2550 2337 2950 
Q 2300 3350 2112 3675 
Q 1925 4000 1612 4012 
Q 1300 4025 1062 3700 
Q 825 3375 750 2687 
z
" transform="scale(0.015625)"/>
        <path id="SimHei-33" d="M 250 1225 
L 700 1300 
Q 800 975 1025 762 
Q 1250 550 1587 562 
Q 1925 575 2125 837 
Q 2325 1100 2300 1437 
Q 2275 1775 2037 1962 
Q 1800 2150 1275 2225 
L 1275 2550 
Q 1800 2600 2037 2825 
Q 2275 3050 2250 3412 
Q 2225 3775 1925 3937 
Q 1625 4100 1287 3975 
Q 950 3850 750 3275 
L 300 3350 
Q 450 3800 712 4100 
Q 975 4400 1425 4450 
Q 1875 4500 2212 4337 
Q 2550 4175 2687 3837 
Q 2825 3500 2725 3100 
Q 2625 2700 2150 2400 
Q 2500 2250 2687 1950 
Q 2875 1650 2812 1162 
Q 2750 675 2375 375 
Q 2000 75 1525 87 
Q 1050 100 700 387 
Q 350 675 250 1225 
z
" transform="scale(0.015625)"/>
        <path id="SimHei-2d" d="M 2975 2125 
L 125 2125 
L 125 2525 
L 2975 2525 
L 2975 2125 
z
" transform="scale(0.015625)"/>
        <path id="SimHei-39" d="M 800 75 
Q 1350 1000 1700 1750 
Q 1075 1650 662 1912 
Q 250 2175 162 2625 
Q 75 3075 175 3437 
Q 275 3800 487 4037 
Q 700 4275 1000 4375 
Q 1300 4475 1537 4475 
Q 1775 4475 2025 4375 
Q 2275 4275 2475 4075 
Q 2675 3875 2750 3662 
Q 2825 3450 2825 3112 
Q 2825 2775 2575 2250 
Q 2325 1725 1350 75 
L 800 75 
z
M 662 2875 
Q 700 2550 937 2337 
Q 1175 2125 1450 2150 
Q 1725 2175 1887 2300 
Q 2050 2425 2200 2725 
Q 2300 3100 2250 3362 
Q 2200 3625 1987 3800 
Q 1775 3975 1525 3975 
Q 1375 4000 1137 3900 
Q 900 3800 762 3500 
Q 625 3200 662 2875 
z
" transform="scale(0.015625)"/>
       </defs>
       <use xlink:href="#SimHei-32"/>
       <use xlink:href="#SimHei-30" x="50"/>
       <use xlink:href="#SimHei-32" x="100"/>
       <use xlink:href="#SimHei-33" x="150"/>
       <use xlink:href="#SimHei-2d" x="200"/>
       <use xlink:href="#SimHei-30" x="250"/>
       <use xlink:href="#SimHei-39" x="300"/>
       <use xlink:href="#SimHei-2d" x="350"/>
       <use xlink:href="#SimHei-32" x="400"/>
       <use xlink:href="#SimHei-30" x="450"/>
      </g>
     </g>
    </g>
    <g id="xtick_2">
     <g id="line2d_2">
      <g>
       <use xlink:href="#m940db20eb0" x="166.535848" y="162.432" style="stroke: #000000; stroke-width: 0.8"/>
      </g>
     </g>
     <g id="text_2">
      <!-- 2023-11-19 -->
      <g transform="translate(141.535848 176.307) scale(0.1 -0.1)">
       <defs>
        <path id="SimHei-31" d="M 1400 3600 
Q 1075 3275 575 2975 
L 575 3450 
Q 1200 3875 1600 4450 
L 1900 4450 
L 1900 150 
L 1400 150 
L 1400 3600 
z
" transform="scale(0.015625)"/>
       </defs>
       <use xlink:href="#SimHei-32"/>
       <use xlink:href="#SimHei-30" x="50"/>
       <use xlink:href="#SimHei-32" x="100"/>
       <use xlink:href="#SimHei-33" x="150"/>
       <use xlink:href="#SimHei-2d" x="200"/>
       <use xlink:href="#SimHei-31" x="250"/>
       <use xlink:href="#SimHei-31" x="300"/>
       <use xlink:href="#SimHei-2d" x="350"/>
       <use xlink:href="#SimHei-31" x="400"/>
       <use xlink:href="#SimHei-39" x="450"/>
      </g>
     </g>
    </g>
    <g id="xtick_3">
     <g id="line2d_3">
      <g>
       <use xlink:href="#m940db20eb0" x="230.477788" y="162.432" style="stroke: #000000; stroke-width: 0.8"/>
      </g>
     </g>
     <g id="text_3">
      <!-- 2024-01-18 -->
      <g transform="translate(205.477788 176.307) scale(0.1 -0.1)">
       <defs>
        <path id="SimHei-34" d="M 2000 1100 
L 75 1100 
L 75 1525 
L 2100 4450 
L 2475 4450 
L 2475 1525 
L 3075 1525 
L 3075 1100 
L 2475 1100 
L 2475 150 
L 2000 150 
L 2000 1100 
z
M 2000 1525 
L 2000 3500 
L 600 1525 
L 2000 1525 
z
" transform="scale(0.015625)"/>
        <path id="SimHei-38" d="M 175 1375 
Q 175 1675 325 1962 
Q 475 2250 825 2425 
Q 525 2600 425 2812 
Q 325 3025 312 3300 
Q 300 3575 387 3775 
Q 475 3975 650 4150 
Q 825 4325 1037 4387 
Q 1250 4450 1500 4450 
Q 1750 4450 1950 4400 
Q 2150 4350 2375 4187 
Q 2600 4025 2700 3725 
Q 2800 3425 2687 3025 
Q 2575 2625 2100 2400 
Q 2525 2275 2700 2012 
Q 2875 1750 2875 1375 
Q 2875 1000 2762 775 
Q 2650 550 2512 400 
Q 2375 250 2137 162 
Q 1900 75 1537 75 
Q 1175 75 912 162 
Q 650 250 475 425 
Q 300 600 237 837 
Q 175 1075 175 1375 
z
M 687 1400 
Q 675 1100 787 875 
Q 900 650 1200 587 
Q 1500 525 1825 600 
Q 2150 675 2275 950 
Q 2400 1225 2362 1500 
Q 2325 1775 2050 1962 
Q 1775 2150 1450 2125 
Q 1125 2100 912 1900 
Q 700 1700 687 1400 
z
M 775 3350 
Q 775 3100 950 2875 
Q 1125 2650 1500 2650 
Q 1875 2650 2062 2875 
Q 2250 3100 2237 3412 
Q 2225 3725 2012 3875 
Q 1800 4025 1437 4000 
Q 1075 3975 925 3787 
Q 775 3600 775 3350 
z
" transform="scale(0.015625)"/>
       </defs>
       <use xlink:href="#SimHei-32"/>
       <use xlink:href="#SimHei-30" x="50"/>
       <use xlink:href="#SimHei-32" x="100"/>
       <use xlink:href="#SimHei-34" x="150"/>
       <use xlink:href="#SimHei-2d" x="200"/>
       <use xlink:href="#SimHei-30" x="250"/>
       <use xlink:href="#SimHei-31" x="300"/>
       <use xlink:href="#SimHei-2d" x="350"/>
       <use xlink:href="#SimHei-31" x="400"/>
       <use xlink:href="#SimHei-38" x="450"/>
      </g>
     </g>
    </g>
   </g>
   <g id="matplotlib.axis_2">
    <g id="ytick_1">
     <g id="line2d_4">
      <defs>
       <path id="m8d26c07486" d="M 0 0 
L -3.5 0 
" style="stroke: #000000; stroke-width: 0.8"/>
      </defs>
      <g>
       <use xlink:href="#m8d26c07486" x="46.325" y="137.42001" style="stroke: #000000; stroke-width: 0.8"/>
      </g>
     </g>
     <g id="text_4">
      <!-- 0.92 -->
      <g transform="translate(19.325 140.85751) scale(0.1 -0.1)">
       <defs>
        <path id="SimHei-2e" d="M 1075 125 
L 500 125 
L 500 675 
L 1075 675 
L 1075 125 
z
" transform="scale(0.015625)"/>
       </defs>
       <use xlink:href="#SimHei-30"/>
       <use xlink:href="#SimHei-2e" x="50"/>
       <use xlink:href="#SimHei-39" x="100"/>
       <use xlink:href="#SimHei-32" x="150"/>
      </g>
     </g>
    </g>
    <g id="ytick_2">
     <g id="line2d_5">
      <g>
       <use xlink:href="#m8d26c07486" x="46.325" y="107.407336" style="stroke: #000000; stroke-width: 0.8"/>
      </g>
     </g>
     <g id="text_5">
      <!-- 0.94 -->
      <g transform="translate(19.325 110.844836) scale(0.1 -0.1)">
       <use xlink:href="#SimHei-30"/>
       <use xlink:href="#SimHei-2e" x="50"/>
       <use xlink:href="#SimHei-39" x="100"/>
       <use xlink:href="#SimHei-34" x="150"/>
      </g>
     </g>
    </g>
    <g id="ytick_3">
     <g id="line2d_6">
      <g>
       <use xlink:href="#m8d26c07486" x="46.325" y="77.394662" style="stroke: #000000; stroke-width: 0.8"/>
      </g>
     </g>
     <g id="text_6">
      <!-- 0.96 -->
      <g transform="translate(19.325 80.832162) scale(0.1 -0.1)">
       <defs>
        <path id="SimHei-36" d="M 250 1612 
Q 275 1975 387 2225 
Q 500 2475 725 2850 
L 1750 4450 
L 2325 4450 
L 1275 2800 
Q 1950 2975 2350 2750 
Q 2750 2525 2887 2237 
Q 3025 1950 3037 1612 
Q 3050 1275 2937 950 
Q 2825 625 2537 362 
Q 2250 100 1737 75 
Q 1225 50 862 262 
Q 500 475 362 862 
Q 225 1250 250 1612 
z
M 1025 787 
Q 1250 550 1625 525 
Q 2000 500 2250 775 
Q 2500 1050 2500 1575 
Q 2500 2100 2187 2300 
Q 1875 2500 1487 2450 
Q 1100 2400 925 2075 
Q 750 1750 775 1387 
Q 800 1025 1025 787 
z
" transform="scale(0.015625)"/>
       </defs>
       <use xlink:href="#SimHei-30"/>
       <use xlink:href="#SimHei-2e" x="50"/>
       <use xlink:href="#SimHei-39" x="100"/>
       <use xlink:href="#SimHei-36" x="150"/>
      </g>
     </g>
    </g>
    <g id="ytick_4">
     <g id="line2d_7">
      <g>
       <use xlink:href="#m8d26c07486" x="46.325" y="47.381988" style="stroke: #000000; stroke-width: 0.8"/>
      </g>
     </g>
     <g id="text_7">
      <!-- 0.98 -->
      <g transform="translate(19.325 50.819488) scale(0.1 -0.1)">
       <use xlink:href="#SimHei-30"/>
       <use xlink:href="#SimHei-2e" x="50"/>
       <use xlink:href="#SimHei-39" x="100"/>
       <use xlink:href="#SimHei-38" x="150"/>
      </g>
     </g>
    </g>
    <g id="ytick_5">
     <g id="line2d_8">
      <g>
       <use xlink:href="#m8d26c07486" x="46.325" y="17.369314" style="stroke: #000000; stroke-width: 0.8"/>
      </g>
     </g>
     <g id="text_8">
      <!-- 1.00 -->
      <g transform="translate(19.325 20.806814) scale(0.1 -0.1)">
       <use xlink:href="#SimHei-31"/>
       <use xlink:href="#SimHei-2e" x="50"/>
       <use xlink:href="#SimHei-30" x="100"/>
       <use xlink:href="#SimHei-30" x="150"/>
      </g>
     </g>
    </g>
    <g id="text_9">
     <!-- RP-MinRisk -->
     <g transform="translate(14.075 109.816) rotate(-90) scale(0.1 -0.1)">
      <defs>
       <path id="SimHei-52" d="M 3000 125 
L 2400 125 
L 1500 1975 
L 850 1975 
L 850 125 
L 275 125 
L 275 4400 
L 1525 4400 
Q 2125 4400 2500 4112 
Q 2875 3825 2875 3175 
Q 2875 2675 2625 2400 
Q 2375 2125 2050 2050 
L 3000 125 
z
M 2300 3175 
Q 2300 3525 2087 3725 
Q 1875 3925 1400 3925 
L 850 3925 
L 850 2450 
L 1550 2450 
Q 1850 2450 2075 2612 
Q 2300 2775 2300 3175 
z
" transform="scale(0.015625)"/>
       <path id="SimHei-50" d="M 2950 3100 
Q 2950 2500 2600 2150 
Q 2250 1800 1625 1800 
L 900 1800 
L 900 125 
L 325 125 
L 325 4400 
L 1625 4400 
Q 2250 4400 2600 4050 
Q 2950 3700 2950 3100 
z
M 2375 3100 
Q 2375 3575 2150 3750 
Q 1925 3925 1475 3925 
L 900 3925 
L 900 2275 
L 1475 2275 
Q 1925 2275 2150 2450 
Q 2375 2625 2375 3100 
z
" transform="scale(0.015625)"/>
       <path id="SimHei-4d" d="M 2925 125 
L 2425 125 
L 2425 3175 
L 2375 3175 
L 1775 125 
L 1375 125 
L 775 3175 
L 725 3175 
L 725 125 
L 225 125 
L 225 4400 
L 1000 4400 
L 1550 1575 
L 1600 1575 
L 2150 4400 
L 2925 4400 
L 2925 125 
z
" transform="scale(0.015625)"/>
       <path id="SimHei-69" d="M 1800 3725 
L 1300 3725 
L 1300 4375 
L 1800 4375 
L 1800 3725 
z
M 1800 125 
L 1300 125 
L 1300 2925 
L 1800 2925 
L 1800 125 
z
" transform="scale(0.015625)"/>
       <path id="SimHei-6e" d="M 2800 125 
L 2300 125 
L 2300 1925 
Q 2300 2225 2150 2400 
Q 2000 2575 1750 2575 
Q 1425 2575 1137 2237 
Q 850 1900 850 1400 
L 850 125 
L 350 125 
L 350 2925 
L 850 2925 
L 850 2400 
Q 1050 2675 1287 2825 
Q 1525 2975 1900 2975 
Q 2350 2975 2575 2725 
Q 2800 2475 2800 2100 
L 2800 125 
z
" transform="scale(0.015625)"/>
       <path id="SimHei-73" d="M 2750 900 
Q 2750 500 2437 287 
Q 2125 75 1650 75 
Q 1050 75 725 312 
Q 400 550 400 1000 
L 900 1000 
Q 900 700 1112 600 
Q 1325 500 1625 500 
Q 1925 500 2075 612 
Q 2225 725 2225 900 
Q 2225 1025 2100 1150 
Q 1975 1275 1475 1350 
Q 900 1425 687 1637 
Q 475 1850 475 2200 
Q 475 2500 762 2737 
Q 1050 2975 1600 2975 
Q 2100 2975 2387 2750 
Q 2675 2525 2675 2150 
L 2175 2150 
Q 2175 2375 2012 2462 
Q 1850 2550 1600 2550 
Q 1275 2550 1137 2437 
Q 1000 2325 1000 2175 
Q 1000 2000 1125 1900 
Q 1250 1800 1650 1750 
Q 2300 1650 2525 1437 
Q 2750 1225 2750 900 
z
" transform="scale(0.015625)"/>
       <path id="SimHei-6b" d="M 2925 125 
L 2350 125 
L 1450 1650 
L 875 1100 
L 875 125 
L 375 125 
L 375 4400 
L 875 4400 
L 875 1675 
L 2125 2925 
L 2750 2925 
L 1775 1975 
L 2925 125 
z
" transform="scale(0.015625)"/>
      </defs>
      <use xlink:href="#SimHei-52"/>
      <use xlink:href="#SimHei-50" x="50"/>
      <use xlink:href="#SimHei-2d" x="100"/>
      <use xlink:href="#SimHei-4d" x="150"/>
      <use xlink:href="#SimHei-69" x="200"/>
      <use xlink:href="#SimHei-6e" x="250"/>
      <use xlink:href="#SimHei-52" x="300"/>
      <use xlink:href="#SimHei-69" x="350"/>
      <use xlink:href="#SimHei-73" x="400"/>
      <use xlink:href="#SimHei-6b" x="450"/>
     </g>
    </g>
   </g>
   <g id="line2d_9">
    <path d="M 56.76885 21.120898 
L 57.834549 29.913875 
L 58.900248 14.256 
L 59.965947 48.443932 
L 63.163044 54.407518 
L 64.228743 55.44925 
L 65.294442 69.954873 
L 66.360141 63.418013 
L 67.42584 80.51331 
L 70.622937 106.55121 
L 71.688636 95.302631 
L 72.754335 117.154216 
L 73.820034 113.053701 
L 74.885733 114.043239 
L 78.08283 107.139568 
L 79.148529 94.391786 
L 80.214228 92.007747 
L 81.279927 92.302677 
L 82.345626 94.544189 
L 85.542723 74.532805 
L 87.674121 82.270687 
L 88.73982 99.512392 
L 89.805519 101.075458 
L 93.002617 87.519202 
L 94.068316 89.001205 
L 95.134015 98.358653 
L 96.199714 91.529234 
L 97.265413 99.601989 
L 100.46251 101.616855 
L 101.528209 105.144277 
L 102.593908 112.19998 
L 103.659607 121.729333 
L 104.725306 103.128127 
L 107.922403 105.667874 
L 108.988102 115.82832 
L 110.053801 122.438206 
L 111.1195 114.003004 
L 122.842189 105.357213 
L 123.907888 107.461937 
L 124.973587 107.421641 
L 126.039286 88.02633 
L 127.104985 97.725649 
L 130.302082 101.366403 
L 131.367781 95.392029 
L 132.43348 102.440281 
L 133.499179 122.530574 
L 134.564878 136.434106 
L 137.761975 148.956259 
L 138.827674 134.394964 
L 139.893373 127.140758 
L 140.959072 115.683859 
L 142.024771 94.846887 
L 145.221868 90.206381 
L 146.287567 89.781151 
L 147.353266 87.995973 
L 148.418965 90.321944 
L 149.484664 87.528093 
L 152.681761 87.273781 
L 153.74746 90.627431 
L 154.813159 92.819927 
L 155.878858 89.725156 
L 156.944557 94.670778 
L 160.141654 99.645594 
L 161.207353 100.858182 
L 162.273052 89.65233 
L 163.338751 96.546966 
L 164.40445 97.11886 
L 167.601547 90.118903 
L 168.667246 92.747644 
L 169.732945 102.956722 
L 170.798644 93.985899 
L 171.864343 101.816271 
L 175.06144 99.652209 
L 176.127139 100.696659 
L 177.192838 111.499031 
L 178.258537 107.234906 
L 179.324236 121.596385 
L 182.521333 123.980846 
L 183.587032 145.401685 
L 185.71843 155.066656 
L 186.784129 151.019341 
L 189.981226 142.911819 
L 191.046925 131.037371 
L 192.112624 135.953337 
L 193.178323 142.083114 
L 194.244022 152.862765 
L 197.441119 155.376 
L 198.506818 145.582881 
L 199.572517 154.79604 
L 200.638216 145.09035 
L 201.703915 147.942931 
L 204.901012 139.610194 
L 205.966711 146.886263 
L 207.03241 140.877937 
L 208.098109 126.216344 
L 209.163808 118.308876 
L 213.426604 123.219731 
L 214.492303 117.203768 
L 215.558002 123.704702 
L 216.623701 124.554722 
L 219.820798 142.076468 
L 220.886497 135.69534 
L 221.952196 144.503635 
L 223.017895 142.994644 
L 224.083594 136.129785 
L 227.280691 123.6522 
L 228.34639 109.067992 
L 229.412089 135.572631 
L 230.477788 122.571307 
L 231.543487 126.365023 
L 234.740584 149.751376 
L 235.806283 148.846915 
L 237.937681 88.344347 
L 239.00338 91.481375 
L 242.200477 84.511792 
L 243.266176 114.045453 
L 244.331875 124.034802 
L 245.397574 124.281578 
L 246.463273 135.609472 
L 249.660371 123.518822 
L 250.72607 84.788788 
L 251.791769 79.303762 
L 252.857468 72.531058 
L 264.580157 42.44035 
L 265.645856 34.87608 
L 265.645856 34.87608 
" clip-path="url(#pda86e95dc1)" style="fill: none; stroke: #1f77b4; stroke-width: 1.5; stroke-linecap: square"/>
   </g>
   <g id="patch_3">
    <path d="M 46.325 162.432 
L 46.325 7.2 
" style="fill: none; stroke: #000000; stroke-width: 0.8; stroke-linejoin: miter; stroke-linecap: square"/>
   </g>
   <g id="patch_4">
    <path d="M 276.089706 162.432 
L 276.089706 7.2 
" style="fill: none; stroke: #000000; stroke-width: 0.8; stroke-linejoin: miter; stroke-linecap: square"/>
   </g>
   <g id="patch_5">
    <path d="M 46.325 162.432 
L 276.089706 162.432 
" style="fill: none; stroke: #000000; stroke-width: 0.8; stroke-linejoin: miter; stroke-linecap: square"/>
   </g>
   <g id="patch_6">
    <path d="M 46.325 7.2 
L 276.089706 7.2 
" style="fill: none; stroke: #000000; stroke-width: 0.8; stroke-linejoin: miter; stroke-linecap: square"/>
   </g>
  </g>
  <g id="axes_2">
   <g id="patch_7">
    <path d="M 322.042647 162.432 
L 551.807353 162.432 
L 551.807353 7.2 
L 322.042647 7.2 
z
" style="fill: #ffffff"/>
   </g>
   <g id="matplotlib.axis_3">
    <g id="xtick_4">
     <g id="line2d_10">
      <g>
       <use xlink:href="#m940db20eb0" x="379.377254" y="162.432" style="stroke: #000000; stroke-width: 0.8"/>
      </g>
     </g>
     <g id="text_10">
      <!-- 2023-09-20 -->
      <g transform="translate(354.377254 176.307) scale(0.1 -0.1)">
       <use xlink:href="#SimHei-32"/>
       <use xlink:href="#SimHei-30" x="50"/>
       <use xlink:href="#SimHei-32" x="100"/>
       <use xlink:href="#SimHei-33" x="150"/>
       <use xlink:href="#SimHei-2d" x="200"/>
       <use xlink:href="#SimHei-30" x="250"/>
       <use xlink:href="#SimHei-39" x="300"/>
       <use xlink:href="#SimHei-2d" x="350"/>
       <use xlink:href="#SimHei-32" x="400"/>
       <use xlink:href="#SimHei-30" x="450"/>
      </g>
     </g>
    </g>
    <g id="xtick_5">
     <g id="line2d_11">
      <g>
       <use xlink:href="#m940db20eb0" x="443.319194" y="162.432" style="stroke: #000000; stroke-width: 0.8"/>
      </g>
     </g>
     <g id="text_11">
      <!-- 2023-11-19 -->
      <g transform="translate(418.319194 176.307) scale(0.1 -0.1)">
       <use xlink:href="#SimHei-32"/>
       <use xlink:href="#SimHei-30" x="50"/>
       <use xlink:href="#SimHei-32" x="100"/>
       <use xlink:href="#SimHei-33" x="150"/>
       <use xlink:href="#SimHei-2d" x="200"/>
       <use xlink:href="#SimHei-31" x="250"/>
       <use xlink:href="#SimHei-31" x="300"/>
       <use xlink:href="#SimHei-2d" x="350"/>
       <use xlink:href="#SimHei-31" x="400"/>
       <use xlink:href="#SimHei-39" x="450"/>
      </g>
     </g>
    </g>
    <g id="xtick_6">
     <g id="line2d_12">
      <g>
       <use xlink:href="#m940db20eb0" x="507.261134" y="162.432" style="stroke: #000000; stroke-width: 0.8"/>
      </g>
     </g>
     <g id="text_12">
      <!-- 2024-01-18 -->
      <g transform="translate(482.261134 176.307) scale(0.1 -0.1)">
       <use xlink:href="#SimHei-32"/>
       <use xlink:href="#SimHei-30" x="50"/>
       <use xlink:href="#SimHei-32" x="100"/>
       <use xlink:href="#SimHei-34" x="150"/>
       <use xlink:href="#SimHei-2d" x="200"/>
       <use xlink:href="#SimHei-30" x="250"/>
       <use xlink:href="#SimHei-31" x="300"/>
       <use xlink:href="#SimHei-2d" x="350"/>
       <use xlink:href="#SimHei-31" x="400"/>
       <use xlink:href="#SimHei-38" x="450"/>
      </g>
     </g>
    </g>
   </g>
   <g id="matplotlib.axis_4">
    <g id="ytick_6">
     <g id="line2d_13">
      <g>
       <use xlink:href="#m8d26c07486" x="322.042647" y="155.376" style="stroke: #000000; stroke-width: 0.8"/>
      </g>
     </g>
     <g id="text_13">
      <!-- 0.0 -->
      <g transform="translate(300.042647 158.8135) scale(0.1 -0.1)">
       <use xlink:href="#SimHei-30"/>
       <use xlink:href="#SimHei-2e" x="50"/>
       <use xlink:href="#SimHei-30" x="100"/>
      </g>
     </g>
    </g>
    <g id="ytick_7">
     <g id="line2d_14">
      <g>
       <use xlink:href="#m8d26c07486" x="322.042647" y="127.152" style="stroke: #000000; stroke-width: 0.8"/>
      </g>
     </g>
     <g id="text_14">
      <!-- 0.2 -->
      <g transform="translate(300.042647 130.5895) scale(0.1 -0.1)">
       <use xlink:href="#SimHei-30"/>
       <use xlink:href="#SimHei-2e" x="50"/>
       <use xlink:href="#SimHei-32" x="100"/>
      </g>
     </g>
    </g>
    <g id="ytick_8">
     <g id="line2d_15">
      <g>
       <use xlink:href="#m8d26c07486" x="322.042647" y="98.928" style="stroke: #000000; stroke-width: 0.8"/>
      </g>
     </g>
     <g id="text_15">
      <!-- 0.4 -->
      <g transform="translate(300.042647 102.3655) scale(0.1 -0.1)">
       <use xlink:href="#SimHei-30"/>
       <use xlink:href="#SimHei-2e" x="50"/>
       <use xlink:href="#SimHei-34" x="100"/>
      </g>
     </g>
    </g>
    <g id="ytick_9">
     <g id="line2d_16">
      <g>
       <use xlink:href="#m8d26c07486" x="322.042647" y="70.704" style="stroke: #000000; stroke-width: 0.8"/>
      </g>
     </g>
     <g id="text_16">
      <!-- 0.6 -->
      <g transform="translate(300.042647 74.1415) scale(0.1 -0.1)">
       <use xlink:href="#SimHei-30"/>
       <use xlink:href="#SimHei-2e" x="50"/>
       <use xlink:href="#SimHei-36" x="100"/>
      </g>
     </g>
    </g>
    <g id="ytick_10">
     <g id="line2d_17">
      <g>
       <use xlink:href="#m8d26c07486" x="322.042647" y="42.48" style="stroke: #000000; stroke-width: 0.8"/>
      </g>
     </g>
     <g id="text_17">
      <!-- 0.8 -->
      <g transform="translate(300.042647 45.9175) scale(0.1 -0.1)">
       <use xlink:href="#SimHei-30"/>
       <use xlink:href="#SimHei-2e" x="50"/>
       <use xlink:href="#SimHei-38" x="100"/>
      </g>
     </g>
    </g>
    <g id="ytick_11">
     <g id="line2d_18">
      <g>
       <use xlink:href="#m8d26c07486" x="322.042647" y="14.256" style="stroke: #000000; stroke-width: 0.8"/>
      </g>
     </g>
     <g id="text_18">
      <!-- 1.0 -->
      <g transform="translate(300.042647 17.6935) scale(0.1 -0.1)">
       <use xlink:href="#SimHei-31"/>
       <use xlink:href="#SimHei-2e" x="50"/>
       <use xlink:href="#SimHei-30" x="100"/>
      </g>
     </g>
    </g>
   </g>
   <g id="line2d_19">
    <path d="M 332.486497 155.376 
L 333.552196 144.077402 
L 366.588866 143.949888 
L 399.625535 143.925791 
L 400.691234 143.75899 
L 403.888331 143.805347 
L 410.282525 143.640216 
L 411.348224 143.470962 
L 415.61102 143.400865 
L 417.742418 143.214023 
L 418.808117 143.343836 
L 422.005214 143.24177 
L 423.070913 143.075614 
L 426.26801 143.056565 
L 436.925 143.315378 
L 437.990699 143.150017 
L 439.056398 143.22101 
L 440.122097 142.854198 
L 441.187796 142.961009 
L 453.976184 143.216484 
L 455.041883 143.434964 
L 459.304679 143.43636 
L 460.370378 143.742677 
L 506.195435 143.451798 
L 507.261134 143.53811 
L 511.52393 143.301021 
L 513.655328 143.324988 
L 514.721028 143.311048 
L 515.786727 143.435365 
L 521.115222 143.454382 
L 522.180921 143.306924 
L 528.575115 143.433352 
L 529.640814 143.299517 
L 541.363503 143.27351 
L 541.363503 143.27351 
" clip-path="url(#p5113e21867)" style="fill: none; stroke: #1f77b4; stroke-width: 1.5; stroke-linecap: square"/>
   </g>
   <g id="line2d_20">
    <path d="M 332.486497 155.376 
L 333.552196 146.499503 
L 339.94639 146.447366 
L 342.077788 146.296003 
L 348.471982 146.2947 
L 349.537681 146.145062 
L 379.377254 145.988434 
L 381.508652 146.037063 
L 399.625535 146.033118 
L 401.756933 145.967936 
L 403.888331 145.962695 
L 408.151127 145.867196 
L 409.216826 145.943226 
L 410.282525 145.790363 
L 411.348224 145.971242 
L 416.676719 145.915906 
L 418.808117 145.847571 
L 436.925 145.769738 
L 440.122097 145.349243 
L 441.187796 145.217564 
L 444.384893 145.221365 
L 445.450592 145.087361 
L 451.844786 145.133106 
L 452.910485 144.953813 
L 456.107582 145.319897 
L 462.501776 145.372822 
L 463.567475 145.415074 
L 468.89597 145.415006 
L 469.961669 145.065984 
L 474.224465 145.065187 
L 477.421562 144.638406 
L 478.487261 144.706132 
L 484.881455 144.607034 
L 485.947154 144.512569 
L 497.669843 144.733941 
L 498.735542 144.575711 
L 500.86694 144.595163 
L 505.129736 144.557519 
L 511.52393 144.083114 
L 512.589629 143.811111 
L 515.786727 143.899064 
L 522.180921 143.483804 
L 528.575115 143.425064 
L 529.640814 143.69095 
L 541.363503 143.716315 
L 541.363503 143.716315 
" clip-path="url(#p5113e21867)" style="fill: none; stroke: #ff7f0e; stroke-width: 1.5; stroke-linecap: square"/>
   </g>
   <g id="line2d_21">
    <path d="M 332.486497 155.376 
L 333.552196 143.817817 
L 339.94639 143.821827 
L 341.012089 143.59407 
L 342.077788 143.606484 
L 344.209186 143.784648 
L 347.406283 143.805391 
L 348.471982 143.538732 
L 350.60338 143.428211 
L 351.669079 143.527321 
L 362.32607 143.644036 
L 365.523167 143.491735 
L 366.588866 143.368604 
L 370.851662 143.537317 
L 374.048759 143.529953 
L 381.508652 143.558744 
L 386.837147 143.55736 
L 387.902846 143.67125 
L 399.625535 143.542171 
L 400.691234 143.779281 
L 402.822632 143.792274 
L 403.888331 143.744902 
L 411.348224 143.928132 
L 415.61102 143.848767 
L 416.676719 143.570074 
L 418.808117 143.356099 
L 423.070913 143.175906 
L 424.136612 142.929935 
L 426.26801 142.943025 
L 429.465107 142.623618 
L 430.530806 142.662602 
L 431.596505 143.073374 
L 436.925 143.244778 
L 437.990699 143.529139 
L 439.056398 143.624814 
L 440.122097 144.138775 
L 446.516291 144.221085 
L 452.910485 144.127789 
L 453.976184 144.195226 
L 456.107582 144.065313 
L 463.567475 144.082181 
L 474.224465 144.303711 
L 475.290164 144.2369 
L 476.355863 144.515535 
L 478.487261 144.506845 
L 483.815756 144.505354 
L 485.947154 144.53549 
L 496.604144 144.750395 
L 506.195435 144.669856 
L 507.261134 144.776394 
L 508.326833 144.644809 
L 512.589629 144.832706 
L 515.786727 144.598794 
L 521.115222 144.40642 
L 522.180921 144.557482 
L 527.509416 144.606058 
L 528.575115 144.699364 
L 529.640814 144.660086 
L 541.363503 144.636226 
L 541.363503 144.636226 
" clip-path="url(#p5113e21867)" style="fill: none; stroke: #2ca02c; stroke-width: 1.5; stroke-linecap: square"/>
   </g>
   <g id="line2d_22">
    <path d="M 332.486497 155.376 
L 333.552196 143.730646 
L 336.749293 143.673149 
L 339.94639 143.757564 
L 342.077788 143.394782 
L 343.143487 143.472803 
L 347.406283 143.391354 
L 348.471982 143.529755 
L 349.537681 143.978997 
L 350.60338 143.868152 
L 355.931875 143.890185 
L 356.997574 143.848336 
L 359.128972 143.905842 
L 365.523167 143.946927 
L 366.588866 144.071603 
L 387.902846 143.849721 
L 414.545321 143.783149 
L 416.676719 143.722228 
L 423.070913 144.138671 
L 425.202311 144.029755 
L 431.596505 144.008279 
L 433.727903 143.974511 
L 436.925 144.023682 
L 437.990699 144.188408 
L 439.056398 143.995853 
L 440.122097 143.357219 
L 441.187796 143.246753 
L 446.516291 143.128367 
L 448.647689 143.145766 
L 451.844786 143.216134 
L 452.910485 143.707446 
L 453.976184 143.522197 
L 456.107582 143.459611 
L 459.304679 143.455021 
L 461.436077 143.27709 
L 463.567475 143.407927 
L 467.830271 143.437601 
L 468.89597 143.552894 
L 469.961669 143.26503 
L 471.027368 143.310182 
L 475.290164 143.257429 
L 477.421562 143.123368 
L 478.487261 143.228838 
L 485.947154 143.183763 
L 492.341348 143.580698 
L 493.407047 143.41771 
L 505.129736 143.450897 
L 508.326833 143.712152 
L 512.589629 143.58452 
L 513.655328 143.433015 
L 520.049523 143.34477 
L 521.115222 142.898948 
L 523.24662 143.085117 
L 528.575115 143.032279 
L 529.640814 143.297248 
L 541.363503 143.310237 
L 541.363503 143.310237 
" clip-path="url(#p5113e21867)" style="fill: none; stroke: #d62728; stroke-width: 1.5; stroke-linecap: square"/>
   </g>
   <g id="line2d_23">
    <path d="M 332.486497 155.376 
L 333.552196 143.588233 
L 339.94639 143.7291 
L 341.012089 143.573572 
L 350.60338 143.76587 
L 356.997574 143.748171 
L 359.128972 143.747656 
L 379.377254 143.576624 
L 381.508652 143.508841 
L 387.902846 143.521739 
L 400.691234 143.520986 
L 402.822632 143.453702 
L 409.216826 143.641992 
L 410.282525 143.442122 
L 411.348224 143.641342 
L 429.465107 143.651698 
L 430.530806 143.579407 
L 431.596505 143.191895 
L 436.925 143.169067 
L 437.990699 143.29362 
L 439.056398 143.241616 
L 440.122097 143.011733 
L 441.187796 142.945203 
L 444.384893 142.910635 
L 445.450592 142.638867 
L 448.647689 142.739561 
L 452.910485 142.893333 
L 453.976184 142.640528 
L 455.041883 142.824589 
L 462.501776 142.83765 
L 466.764572 142.792143 
L 468.89597 142.937759 
L 469.961669 142.715487 
L 471.027368 142.796085 
L 482.750057 142.923012 
L 484.881455 143.042602 
L 518.983824 142.912645 
L 520.049523 142.844864 
L 521.115222 143.08856 
L 523.24662 143.164371 
L 527.509416 143.135343 
L 528.575115 142.851034 
L 529.640814 142.889372 
L 541.363503 142.923336 
L 541.363503 142.923336 
" clip-path="url(#p5113e21867)" style="fill: none; stroke: #9467bd; stroke-width: 1.5; stroke-linecap: square"/>
   </g>
   <g id="line2d_24">
    <path d="M 332.486497 155.376 
L 333.552196 143.968909 
L 380.442953 144.281286 
L 387.902846 144.21586 
L 409.216826 144.065309 
L 411.348224 144.026835 
L 422.005214 143.826779 
L 423.070913 143.993996 
L 426.26801 144.048455 
L 437.990699 144.075094 
L 440.122097 144.788828 
L 444.384893 144.828809 
L 445.450592 145.038154 
L 447.58199 144.980753 
L 448.647689 145.010223 
L 452.910485 144.997033 
L 453.976184 145.094604 
L 455.041883 145.007797 
L 459.304679 145.029234 
L 461.436077 144.996044 
L 505.129736 145.428391 
L 506.195435 145.573348 
L 507.261134 145.374686 
L 508.326833 145.541474 
L 512.589629 145.606075 
L 513.655328 145.779599 
L 514.721028 145.781345 
L 515.786727 145.483033 
L 521.115222 145.667369 
L 522.180921 145.836903 
L 523.24662 145.889735 
L 526.443717 145.884579 
L 527.509416 146.006606 
L 528.575115 145.973331 
L 529.640814 146.191356 
L 541.363503 146.176513 
L 541.363503 146.176513 
" clip-path="url(#p5113e21867)" style="fill: none; stroke: #8c564b; stroke-width: 1.5; stroke-linecap: square"/>
   </g>
   <g id="line2d_25">
    <path d="M 332.486497 155.376 
L 333.552196 137.902924 
L 334.617895 137.665345 
L 336.749293 137.639894 
L 339.94639 137.655012 
L 341.012089 138.21114 
L 342.077788 138.265421 
L 344.209186 138.094063 
L 347.406283 137.935276 
L 348.471982 138.102929 
L 350.60338 138.068242 
L 351.669079 138.154035 
L 356.997574 138.32221 
L 358.063273 138.426043 
L 359.128972 138.398776 
L 366.588866 138.434886 
L 370.851662 138.741692 
L 371.917361 138.599403 
L 374.048759 138.676581 
L 379.377254 138.650745 
L 380.442953 138.591779 
L 381.508652 138.644108 
L 384.705749 138.668201 
L 385.771448 138.842018 
L 386.837147 138.842068 
L 387.902846 138.723582 
L 399.625535 138.543056 
L 400.691234 138.667783 
L 403.888331 138.618192 
L 407.085428 138.671475 
L 408.151127 138.801651 
L 410.282525 138.620066 
L 411.348224 138.241902 
L 415.61102 138.184921 
L 422.005214 138.213359 
L 426.26801 138.526483 
L 430.530806 138.569865 
L 431.596505 138.792812 
L 432.662204 138.794705 
L 433.727903 138.66188 
L 436.925 138.679754 
L 437.990699 138.309885 
L 439.056398 138.393237 
L 440.122097 137.274191 
L 441.187796 137.366148 
L 447.58199 137.468013 
L 448.647689 137.394404 
L 453.976184 137.218431 
L 455.041883 137.60252 
L 456.107582 137.478933 
L 459.304679 137.470381 
L 462.501776 137.879422 
L 463.567475 137.825907 
L 468.89597 137.876502 
L 469.961669 138.021887 
L 475.290164 138.186301 
L 476.355863 138.395162 
L 484.881455 138.455999 
L 485.947154 138.600408 
L 491.275649 138.810043 
L 492.341348 138.947049 
L 497.669843 138.940011 
L 498.735542 138.969169 
L 499.801241 138.684706 
L 500.86694 138.78273 
L 506.195435 138.682159 
L 507.261134 138.459028 
L 508.326833 138.561878 
L 512.589629 138.797775 
L 513.655328 138.158986 
L 514.721028 138.198764 
L 515.786727 137.816971 
L 523.24662 138.19045 
L 526.443717 138.193504 
L 528.575115 138.469327 
L 529.640814 139.11922 
L 541.363503 139.145439 
L 541.363503 139.145439 
" clip-path="url(#p5113e21867)" style="fill: none; stroke: #e377c2; stroke-width: 1.5; stroke-linecap: square"/>
   </g>
   <g id="line2d_26">
    <path d="M 332.486497 155.376 
L 333.552196 128.157738 
L 334.617895 128.282641 
L 336.749293 128.134162 
L 339.94639 128.049098 
L 341.012089 128.277924 
L 344.209186 128.32767 
L 351.669079 127.905258 
L 355.931875 127.906354 
L 358.063273 127.642202 
L 359.128972 127.827879 
L 363.391769 127.862616 
L 364.457468 127.559554 
L 365.523167 127.408423 
L 366.588866 127.531671 
L 370.851662 127.19863 
L 371.917361 127.323368 
L 372.98306 127.314903 
L 374.048759 127.162813 
L 384.705749 127.534469 
L 385.771448 127.3958 
L 387.902846 127.400988 
L 403.888331 127.655886 
L 408.151127 127.404042 
L 409.216826 127.309699 
L 410.282525 127.879912 
L 411.348224 127.823989 
L 415.61102 128.177554 
L 416.676719 128.645109 
L 417.742418 128.912941 
L 418.808117 128.882174 
L 422.005214 129.012659 
L 423.070913 128.90672 
L 424.136612 129.196021 
L 426.26801 129.089115 
L 430.530806 129.188677 
L 431.596505 128.630696 
L 433.727903 128.636424 
L 439.056398 127.26887 
L 440.122097 128.304435 
L 441.187796 128.339884 
L 444.384893 128.030302 
L 446.516291 128.12477 
L 451.844786 127.980844 
L 452.910485 127.507096 
L 453.976184 127.298262 
L 455.041883 125.972076 
L 459.304679 126.042797 
L 463.567475 125.881452 
L 466.764572 125.870437 
L 467.830271 125.652323 
L 468.89597 125.588259 
L 469.961669 126.390428 
L 471.027368 126.339571 
L 474.224465 126.323823 
L 475.290164 126.633751 
L 477.421562 126.847456 
L 478.487261 126.451378 
L 482.750057 126.32248 
L 483.815756 126.351915 
L 491.275649 125.641016 
L 492.341348 125.022821 
L 493.407047 125.093245 
L 499.801241 125.127425 
L 504.064037 125.274884 
L 505.129736 125.436439 
L 506.195435 125.326752 
L 512.589629 125.737965 
L 513.655328 126.311188 
L 514.721028 126.268677 
L 515.786727 127.049961 
L 520.049523 126.542956 
L 521.115222 126.636649 
L 522.180921 126.588303 
L 523.24662 126.378113 
L 526.443717 126.421209 
L 527.509416 125.816321 
L 528.575115 126.007796 
L 529.640814 125.12971 
L 541.363503 125.114888 
L 541.363503 125.114888 
" clip-path="url(#p5113e21867)" style="fill: none; stroke: #7f7f7f; stroke-width: 1.5; stroke-linecap: square"/>
   </g>
   <g id="line2d_27">
    <path d="M 332.486497 155.376 
L 333.552196 141.149537 
L 339.94639 141.270266 
L 341.012089 141.074775 
L 344.209186 141.115276 
L 351.669079 141.483642 
L 359.128972 141.322127 
L 379.377254 141.272953 
L 380.442953 141.139467 
L 387.902846 141.166285 
L 402.822632 141.122159 
L 408.151127 141.168109 
L 409.216826 141.052989 
L 411.348224 141.115661 
L 426.26801 141.22496 
L 430.530806 141.277964 
L 431.596505 141.556238 
L 436.925 141.704159 
L 439.056398 141.984909 
L 440.122097 142.472978 
L 441.187796 142.421951 
L 451.844786 142.646239 
L 455.041883 142.967646 
L 460.370378 142.918467 
L 468.89597 142.788989 
L 469.961669 143.062137 
L 475.290164 143.001784 
L 476.355863 142.792224 
L 478.487261 142.916516 
L 485.947154 142.992863 
L 491.275649 143.015625 
L 497.669843 143.132734 
L 500.86694 143.06847 
L 514.721028 143.121795 
L 521.115222 143.482797 
L 522.180921 143.248705 
L 523.24662 143.370973 
L 527.509416 143.368012 
L 528.575115 143.248772 
L 529.640814 143.275056 
L 541.363503 143.307871 
L 541.363503 143.307871 
" clip-path="url(#p5113e21867)" style="fill: none; stroke: #bcbd22; stroke-width: 1.5; stroke-linecap: square"/>
   </g>
   <g id="line2d_28">
    <path d="M 332.486497 155.376 
L 333.552196 139.74729 
L 336.749293 139.848253 
L 341.012089 139.832078 
L 343.143487 139.902322 
L 344.209186 139.876009 
L 350.60338 139.864945 
L 351.669079 139.73653 
L 362.32607 139.687671 
L 363.391769 139.687786 
L 364.457468 139.886137 
L 366.588866 139.993735 
L 374.048759 139.945384 
L 380.442953 140.180526 
L 384.705749 140.153234 
L 387.902846 140.158969 
L 400.691234 140.262869 
L 402.822632 140.192028 
L 409.216826 140.364516 
L 410.282525 140.361647 
L 411.348224 140.57206 
L 416.676719 140.683008 
L 417.742418 140.481204 
L 418.808117 140.415822 
L 422.005214 140.390442 
L 423.070913 140.242232 
L 426.26801 140.19021 
L 430.530806 140.181875 
L 431.596505 140.360793 
L 436.925 140.652123 
L 437.990699 140.921142 
L 439.056398 140.944952 
L 441.187796 141.201178 
L 444.384893 141.230689 
L 446.516291 141.375914 
L 452.910485 141.402408 
L 453.976184 141.580838 
L 455.041883 141.978359 
L 459.304679 142.024232 
L 460.370378 141.865589 
L 462.501776 141.82174 
L 463.567475 141.756282 
L 467.830271 141.711113 
L 468.89597 141.554361 
L 469.961669 141.056523 
L 475.290164 141.004288 
L 476.355863 140.829749 
L 478.487261 140.743413 
L 485.947154 140.700993 
L 496.604144 140.719643 
L 498.735542 140.760033 
L 499.801241 140.838026 
L 500.86694 140.774448 
L 512.589629 141.012356 
L 514.721028 140.897373 
L 515.786727 140.811305 
L 520.049523 141.030193 
L 521.115222 141.284066 
L 523.24662 141.199502 
L 526.443717 141.19734 
L 528.575115 141.499681 
L 529.640814 141.087486 
L 541.363503 141.035665 
L 541.363503 141.035665 
" clip-path="url(#p5113e21867)" style="fill: none; stroke: #17becf; stroke-width: 1.5; stroke-linecap: square"/>
   </g>
   <g id="line2d_29">
    <path d="M 332.486497 14.256 
L 333.552196 155.376 
L 541.363503 155.376 
L 541.363503 155.376 
" clip-path="url(#p5113e21867)" style="fill: none; stroke: #1f77b4; stroke-width: 1.5; stroke-linecap: square"/>
   </g>
   <g id="patch_8">
    <path d="M 322.042647 162.432 
L 322.042647 7.2 
" style="fill: none; stroke: #000000; stroke-width: 0.8; stroke-linejoin: miter; stroke-linecap: square"/>
   </g>
   <g id="patch_9">
    <path d="M 551.807353 162.432 
L 551.807353 7.2 
" style="fill: none; stroke: #000000; stroke-width: 0.8; stroke-linejoin: miter; stroke-linecap: square"/>
   </g>
   <g id="patch_10">
    <path d="M 322.042647 162.432 
L 551.807353 162.432 
" style="fill: none; stroke: #000000; stroke-width: 0.8; stroke-linejoin: miter; stroke-linecap: square"/>
   </g>
   <g id="patch_11">
    <path d="M 322.042647 7.2 
L 551.807353 7.2 
" style="fill: none; stroke: #000000; stroke-width: 0.8; stroke-linejoin: miter; stroke-linecap: square"/>
   </g>
   <g id="legend_1">
    <g id="patch_12">
     <path d="M 457.807353 148.60625 
L 544.807353 148.60625 
Q 546.807353 148.60625 546.807353 146.60625 
L 546.807353 14.2 
Q 546.807353 12.2 544.807353 12.2 
L 457.807353 12.2 
Q 455.807353 12.2 455.807353 14.2 
L 455.807353 146.60625 
Q 455.807353 148.60625 457.807353 148.60625 
z
" style="fill: #ffffff; opacity: 0.8; stroke: #cccccc; stroke-linejoin: miter"/>
    </g>
    <g id="line2d_30">
     <path d="M 459.807353 19.73125 
L 469.807353 19.73125 
L 479.807353 19.73125 
" style="fill: none; stroke: #1f77b4; stroke-width: 1.5; stroke-linecap: square"/>
    </g>
    <g id="text_19">
     <!-- w_002027.SZ -->
     <g transform="translate(487.807353 23.23125) scale(0.1 -0.1)">
      <defs>
       <path id="SimHei-77" d="M 3075 2925 
L 2450 75 
L 1975 75 
L 1575 2250 
L 1525 2250 
L 1125 75 
L 650 75 
L 25 2925 
L 550 2925 
L 875 1050 
L 925 1050 
L 1275 2925 
L 1825 2925 
L 2175 1050 
L 2225 1050 
L 2550 2925 
L 3075 2925 
z
" transform="scale(0.015625)"/>
       <path id="SimHei-5f" d="M 3150 -850 
L 0 -850 
L 0 -550 
L 3150 -550 
L 3150 -850 
z
" transform="scale(0.015625)"/>
       <path id="SimHei-37" d="M 850 150 
Q 1300 2050 2425 3925 
L 275 3925 
L 275 4375 
L 2950 4375 
L 2950 3950 
Q 1775 2050 1400 150 
L 850 150 
z
" transform="scale(0.015625)"/>
       <path id="SimHei-53" d="M 2900 1325 
Q 2900 750 2537 412 
Q 2175 75 1550 75 
Q 925 75 575 425 
Q 225 775 225 1300 
L 225 1475 
L 800 1475 
L 800 1325 
Q 800 950 1025 750 
Q 1250 550 1550 550 
Q 1950 550 2137 762 
Q 2325 975 2325 1275 
Q 2325 1525 2100 1737 
Q 1875 1950 1450 2125 
Q 850 2350 587 2625 
Q 325 2900 325 3275 
Q 325 3800 687 4125 
Q 1050 4450 1550 4450 
Q 2200 4450 2487 4062 
Q 2775 3675 2775 3225 
L 2200 3225 
Q 2225 3500 2050 3725 
Q 1875 3950 1550 3950 
Q 1250 3950 1075 3787 
Q 900 3625 900 3350 
Q 900 3125 1037 2962 
Q 1175 2800 1750 2575 
Q 2300 2350 2600 2037 
Q 2900 1725 2900 1325 
z
" transform="scale(0.015625)"/>
       <path id="SimHei-5a" d="M 2900 125 
L 225 125 
L 225 600 
L 2250 3925 
L 375 3925 
L 375 4400 
L 2825 4400 
L 2825 3925 
L 800 600 
L 2900 600 
L 2900 125 
z
" transform="scale(0.015625)"/>
      </defs>
      <use xlink:href="#SimHei-77"/>
      <use xlink:href="#SimHei-5f" x="50"/>
      <use xlink:href="#SimHei-30" x="100"/>
      <use xlink:href="#SimHei-30" x="150"/>
      <use xlink:href="#SimHei-32" x="200"/>
      <use xlink:href="#SimHei-30" x="250"/>
      <use xlink:href="#SimHei-32" x="300"/>
      <use xlink:href="#SimHei-37" x="350"/>
      <use xlink:href="#SimHei-2e" x="400"/>
      <use xlink:href="#SimHei-53" x="450"/>
      <use xlink:href="#SimHei-5a" x="500"/>
     </g>
    </g>
    <g id="line2d_31">
     <path d="M 459.807353 33.090625 
L 469.807353 33.090625 
L 479.807353 33.090625 
" style="fill: none; stroke: #ff7f0e; stroke-width: 1.5; stroke-linecap: square"/>
    </g>
    <g id="text_20">
     <!-- w_002371.SZ -->
     <g transform="translate(487.807353 36.590625) scale(0.1 -0.1)">
      <use xlink:href="#SimHei-77"/>
      <use xlink:href="#SimHei-5f" x="50"/>
      <use xlink:href="#SimHei-30" x="100"/>
      <use xlink:href="#SimHei-30" x="150"/>
      <use xlink:href="#SimHei-32" x="200"/>
      <use xlink:href="#SimHei-33" x="250"/>
      <use xlink:href="#SimHei-37" x="300"/>
      <use xlink:href="#SimHei-31" x="350"/>
      <use xlink:href="#SimHei-2e" x="400"/>
      <use xlink:href="#SimHei-53" x="450"/>
      <use xlink:href="#SimHei-5a" x="500"/>
     </g>
    </g>
    <g id="line2d_32">
     <path d="M 459.807353 46.41875 
L 469.807353 46.41875 
L 479.807353 46.41875 
" style="fill: none; stroke: #2ca02c; stroke-width: 1.5; stroke-linecap: square"/>
    </g>
    <g id="text_21">
     <!-- w_600009.SH -->
     <g transform="translate(487.807353 49.91875) scale(0.1 -0.1)">
      <defs>
       <path id="SimHei-48" d="M 2850 125 
L 2275 125 
L 2275 2125 
L 850 2125 
L 850 125 
L 275 125 
L 275 4400 
L 850 4400 
L 850 2600 
L 2275 2600 
L 2275 4400 
L 2850 4400 
L 2850 125 
z
" transform="scale(0.015625)"/>
      </defs>
      <use xlink:href="#SimHei-77"/>
      <use xlink:href="#SimHei-5f" x="50"/>
      <use xlink:href="#SimHei-36" x="100"/>
      <use xlink:href="#SimHei-30" x="150"/>
      <use xlink:href="#SimHei-30" x="200"/>
      <use xlink:href="#SimHei-30" x="250"/>
      <use xlink:href="#SimHei-30" x="300"/>
      <use xlink:href="#SimHei-39" x="350"/>
      <use xlink:href="#SimHei-2e" x="400"/>
      <use xlink:href="#SimHei-53" x="450"/>
      <use xlink:href="#SimHei-48" x="500"/>
     </g>
    </g>
    <g id="line2d_33">
     <path d="M 459.807353 59.778125 
L 469.807353 59.778125 
L 479.807353 59.778125 
" style="fill: none; stroke: #d62728; stroke-width: 1.5; stroke-linecap: square"/>
    </g>
    <g id="text_22">
     <!-- w_600029.SH -->
     <g transform="translate(487.807353 63.278125) scale(0.1 -0.1)">
      <use xlink:href="#SimHei-77"/>
      <use xlink:href="#SimHei-5f" x="50"/>
      <use xlink:href="#SimHei-36" x="100"/>
      <use xlink:href="#SimHei-30" x="150"/>
      <use xlink:href="#SimHei-30" x="200"/>
      <use xlink:href="#SimHei-30" x="250"/>
      <use xlink:href="#SimHei-32" x="300"/>
      <use xlink:href="#SimHei-39" x="350"/>
      <use xlink:href="#SimHei-2e" x="400"/>
      <use xlink:href="#SimHei-53" x="450"/>
      <use xlink:href="#SimHei-48" x="500"/>
     </g>
    </g>
    <g id="line2d_34">
     <path d="M 459.807353 73.1375 
L 469.807353 73.1375 
L 479.807353 73.1375 
" style="fill: none; stroke: #9467bd; stroke-width: 1.5; stroke-linecap: square"/>
    </g>
    <g id="text_23">
     <!-- w_600183.SH -->
     <g transform="translate(487.807353 76.6375) scale(0.1 -0.1)">
      <use xlink:href="#SimHei-77"/>
      <use xlink:href="#SimHei-5f" x="50"/>
      <use xlink:href="#SimHei-36" x="100"/>
      <use xlink:href="#SimHei-30" x="150"/>
      <use xlink:href="#SimHei-30" x="200"/>
      <use xlink:href="#SimHei-31" x="250"/>
      <use xlink:href="#SimHei-38" x="300"/>
      <use xlink:href="#SimHei-33" x="350"/>
      <use xlink:href="#SimHei-2e" x="400"/>
      <use xlink:href="#SimHei-53" x="450"/>
      <use xlink:href="#SimHei-48" x="500"/>
     </g>
    </g>
    <g id="line2d_35">
     <path d="M 459.807353 86.465625 
L 469.807353 86.465625 
L 479.807353 86.465625 
" style="fill: none; stroke: #8c564b; stroke-width: 1.5; stroke-linecap: square"/>
    </g>
    <g id="text_24">
     <!-- w_600406.SH -->
     <g transform="translate(487.807353 89.965625) scale(0.1 -0.1)">
      <use xlink:href="#SimHei-77"/>
      <use xlink:href="#SimHei-5f" x="50"/>
      <use xlink:href="#SimHei-36" x="100"/>
      <use xlink:href="#SimHei-30" x="150"/>
      <use xlink:href="#SimHei-30" x="200"/>
      <use xlink:href="#SimHei-34" x="250"/>
      <use xlink:href="#SimHei-30" x="300"/>
      <use xlink:href="#SimHei-36" x="350"/>
      <use xlink:href="#SimHei-2e" x="400"/>
      <use xlink:href="#SimHei-53" x="450"/>
      <use xlink:href="#SimHei-48" x="500"/>
     </g>
    </g>
    <g id="line2d_36">
     <path d="M 459.807353 99.79375 
L 469.807353 99.79375 
L 479.807353 99.79375 
" style="fill: none; stroke: #e377c2; stroke-width: 1.5; stroke-linecap: square"/>
    </g>
    <g id="text_25">
     <!-- w_600900.SH -->
     <g transform="translate(487.807353 103.29375) scale(0.1 -0.1)">
      <use xlink:href="#SimHei-77"/>
      <use xlink:href="#SimHei-5f" x="50"/>
      <use xlink:href="#SimHei-36" x="100"/>
      <use xlink:href="#SimHei-30" x="150"/>
      <use xlink:href="#SimHei-30" x="200"/>
      <use xlink:href="#SimHei-39" x="250"/>
      <use xlink:href="#SimHei-30" x="300"/>
      <use xlink:href="#SimHei-30" x="350"/>
      <use xlink:href="#SimHei-2e" x="400"/>
      <use xlink:href="#SimHei-53" x="450"/>
      <use xlink:href="#SimHei-48" x="500"/>
     </g>
    </g>
    <g id="line2d_37">
     <path d="M 459.807353 113.121875 
L 469.807353 113.121875 
L 479.807353 113.121875 
" style="fill: none; stroke: #7f7f7f; stroke-width: 1.5; stroke-linecap: square"/>
    </g>
    <g id="text_26">
     <!-- w_601989.SH -->
     <g transform="translate(487.807353 116.621875) scale(0.1 -0.1)">
      <use xlink:href="#SimHei-77"/>
      <use xlink:href="#SimHei-5f" x="50"/>
      <use xlink:href="#SimHei-36" x="100"/>
      <use xlink:href="#SimHei-30" x="150"/>
      <use xlink:href="#SimHei-31" x="200"/>
      <use xlink:href="#SimHei-39" x="250"/>
      <use xlink:href="#SimHei-38" x="300"/>
      <use xlink:href="#SimHei-39" x="350"/>
      <use xlink:href="#SimHei-2e" x="400"/>
      <use xlink:href="#SimHei-53" x="450"/>
      <use xlink:href="#SimHei-48" x="500"/>
     </g>
    </g>
    <g id="line2d_38">
     <path d="M 459.807353 126.45 
L 469.807353 126.45 
L 479.807353 126.45 
" style="fill: none; stroke: #bcbd22; stroke-width: 1.5; stroke-linecap: square"/>
    </g>
    <g id="text_27">
     <!-- w_601998.SH -->
     <g transform="translate(487.807353 129.95) scale(0.1 -0.1)">
      <use xlink:href="#SimHei-77"/>
      <use xlink:href="#SimHei-5f" x="50"/>
      <use xlink:href="#SimHei-36" x="100"/>
      <use xlink:href="#SimHei-30" x="150"/>
      <use xlink:href="#SimHei-31" x="200"/>
      <use xlink:href="#SimHei-39" x="250"/>
      <use xlink:href="#SimHei-39" x="300"/>
      <use xlink:href="#SimHei-38" x="350"/>
      <use xlink:href="#SimHei-2e" x="400"/>
      <use xlink:href="#SimHei-53" x="450"/>
      <use xlink:href="#SimHei-48" x="500"/>
     </g>
    </g>
    <g id="line2d_39">
     <path d="M 459.807353 139.778125 
L 469.807353 139.778125 
L 479.807353 139.778125 
" style="fill: none; stroke: #17becf; stroke-width: 1.5; stroke-linecap: square"/>
    </g>
    <g id="text_28">
     <!-- w_CASH -->
     <g transform="translate(487.807353 143.278125) scale(0.1 -0.1)">
      <defs>
       <path id="SimHei-43" d="M 2975 1825 
Q 2950 875 2575 475 
Q 2200 75 1675 75 
Q 1075 75 650 562 
Q 225 1050 225 2125 
Q 225 3300 637 3875 
Q 1050 4450 1700 4450 
Q 2250 4450 2612 4037 
Q 2975 3625 2950 2875 
L 2400 2875 
Q 2400 3425 2225 3700 
Q 2050 3975 1700 3975 
Q 1300 3975 1062 3562 
Q 825 3150 825 2175 
Q 825 1275 1062 912 
Q 1300 550 1675 550 
Q 1950 550 2175 812 
Q 2400 1075 2400 1825 
L 2975 1825 
z
" transform="scale(0.015625)"/>
       <path id="SimHei-41" d="M 3075 125 
L 2475 125 
L 2125 1450 
L 1025 1450 
L 675 125 
L 75 125 
L 1325 4450 
L 1825 4450 
L 3075 125 
z
M 2000 1925 
L 1600 3450 
L 1550 3450 
L 1150 1925 
L 2000 1925 
z
" transform="scale(0.015625)"/>
      </defs>
      <use xlink:href="#SimHei-77"/>
      <use xlink:href="#SimHei-5f" x="50"/>
      <use xlink:href="#SimHei-43" x="100"/>
      <use xlink:href="#SimHei-41" x="150"/>
      <use xlink:href="#SimHei-53" x="200"/>
      <use xlink:href="#SimHei-48" x="250"/>
     </g>
    </g>
   </g>
  </g>
  <g id="axes_3">
   <g id="patch_13">
    <path d="M 597.760294 162.432 
L 827.525 162.432 
L 827.525 7.2 
L 597.760294 7.2 
z
" style="fill: #ffffff"/>
   </g>
   <g id="matplotlib.axis_5">
    <g id="xtick_7">
     <g id="line2d_40">
      <g>
       <use xlink:href="#m940db20eb0" x="654.029202" y="162.432" style="stroke: #000000; stroke-width: 0.8"/>
      </g>
     </g>
     <g id="text_29">
      <!-- 2023-09-20 -->
      <g transform="translate(629.029202 176.307) scale(0.1 -0.1)">
       <use xlink:href="#SimHei-32"/>
       <use xlink:href="#SimHei-30" x="50"/>
       <use xlink:href="#SimHei-32" x="100"/>
       <use xlink:href="#SimHei-33" x="150"/>
       <use xlink:href="#SimHei-2d" x="200"/>
       <use xlink:href="#SimHei-30" x="250"/>
       <use xlink:href="#SimHei-39" x="300"/>
       <use xlink:href="#SimHei-2d" x="350"/>
       <use xlink:href="#SimHei-32" x="400"/>
       <use xlink:href="#SimHei-30" x="450"/>
      </g>
     </g>
    </g>
    <g id="xtick_8">
     <g id="line2d_41">
      <g>
       <use xlink:href="#m940db20eb0" x="717.971142" y="162.432" style="stroke: #000000; stroke-width: 0.8"/>
      </g>
     </g>
     <g id="text_30">
      <!-- 2023-11-19 -->
      <g transform="translate(692.971142 176.307) scale(0.1 -0.1)">
       <use xlink:href="#SimHei-32"/>
       <use xlink:href="#SimHei-30" x="50"/>
       <use xlink:href="#SimHei-32" x="100"/>
       <use xlink:href="#SimHei-33" x="150"/>
       <use xlink:href="#SimHei-2d" x="200"/>
       <use xlink:href="#SimHei-31" x="250"/>
       <use xlink:href="#SimHei-31" x="300"/>
       <use xlink:href="#SimHei-2d" x="350"/>
       <use xlink:href="#SimHei-31" x="400"/>
       <use xlink:href="#SimHei-39" x="450"/>
      </g>
     </g>
    </g>
    <g id="xtick_9">
     <g id="line2d_42">
      <g>
       <use xlink:href="#m940db20eb0" x="781.913083" y="162.432" style="stroke: #000000; stroke-width: 0.8"/>
      </g>
     </g>
     <g id="text_31">
      <!-- 2024-01-18 -->
      <g transform="translate(756.913083 176.307) scale(0.1 -0.1)">
       <use xlink:href="#SimHei-32"/>
       <use xlink:href="#SimHei-30" x="50"/>
       <use xlink:href="#SimHei-32" x="100"/>
       <use xlink:href="#SimHei-34" x="150"/>
       <use xlink:href="#SimHei-2d" x="200"/>
       <use xlink:href="#SimHei-30" x="250"/>
       <use xlink:href="#SimHei-31" x="300"/>
       <use xlink:href="#SimHei-2d" x="350"/>
       <use xlink:href="#SimHei-31" x="400"/>
       <use xlink:href="#SimHei-38" x="450"/>
      </g>
     </g>
    </g>
   </g>
   <g id="matplotlib.axis_6">
    <g id="ytick_12">
     <g id="line2d_43">
      <g>
       <use xlink:href="#m8d26c07486" x="597.760294" y="155.376" style="stroke: #000000; stroke-width: 0.8"/>
      </g>
     </g>
     <g id="text_32">
      <!-- 0.0000 -->
      <g transform="translate(560.760294 158.8135) scale(0.1 -0.1)">
       <use xlink:href="#SimHei-30"/>
       <use xlink:href="#SimHei-2e" x="50"/>
       <use xlink:href="#SimHei-30" x="100"/>
       <use xlink:href="#SimHei-30" x="150"/>
       <use xlink:href="#SimHei-30" x="200"/>
       <use xlink:href="#SimHei-30" x="250"/>
      </g>
     </g>
    </g>
    <g id="ytick_13">
     <g id="line2d_44">
      <g>
       <use xlink:href="#m8d26c07486" x="597.760294" y="127.152" style="stroke: #000000; stroke-width: 0.8"/>
      </g>
     </g>
     <g id="text_33">
      <!-- 0.0005 -->
      <g transform="translate(560.760294 130.5895) scale(0.1 -0.1)">
       <defs>
        <path id="SimHei-35" d="M 550 1325 
Q 725 650 1150 575 
Q 1575 500 1837 662 
Q 2100 825 2212 1087 
Q 2325 1350 2312 1675 
Q 2300 2000 2137 2225 
Q 1975 2450 1725 2525 
Q 1475 2600 1162 2525 
Q 850 2450 650 2175 
L 225 2225 
Q 275 2375 700 4375 
L 2675 4375 
L 2675 3925 
L 1075 3925 
Q 950 3250 825 2850 
Q 1200 3025 1525 3012 
Q 1850 3000 2150 2862 
Q 2450 2725 2587 2487 
Q 2725 2250 2787 2012 
Q 2850 1775 2837 1500 
Q 2825 1225 2725 937 
Q 2625 650 2425 462 
Q 2225 275 1937 162 
Q 1650 50 1275 75 
Q 900 100 562 350 
Q 225 600 100 1200 
L 550 1325 
z
" transform="scale(0.015625)"/>
       </defs>
       <use xlink:href="#SimHei-30"/>
       <use xlink:href="#SimHei-2e" x="50"/>
       <use xlink:href="#SimHei-30" x="100"/>
       <use xlink:href="#SimHei-30" x="150"/>
       <use xlink:href="#SimHei-30" x="200"/>
       <use xlink:href="#SimHei-35" x="250"/>
      </g>
     </g>
    </g>
    <g id="ytick_14">
     <g id="line2d_45">
      <g>
       <use xlink:href="#m8d26c07486" x="597.760294" y="98.928" style="stroke: #000000; stroke-width: 0.8"/>
      </g>
     </g>
     <g id="text_34">
      <!-- 0.0010 -->
      <g transform="translate(560.760294 102.3655) scale(0.1 -0.1)">
       <use xlink:href="#SimHei-30"/>
       <use xlink:href="#SimHei-2e" x="50"/>
       <use xlink:href="#SimHei-30" x="100"/>
       <use xlink:href="#SimHei-30" x="150"/>
       <use xlink:href="#SimHei-31" x="200"/>
       <use xlink:href="#SimHei-30" x="250"/>
      </g>
     </g>
    </g>
    <g id="ytick_15">
     <g id="line2d_46">
      <g>
       <use xlink:href="#m8d26c07486" x="597.760294" y="70.704" style="stroke: #000000; stroke-width: 0.8"/>
      </g>
     </g>
     <g id="text_35">
      <!-- 0.0015 -->
      <g transform="translate(560.760294 74.1415) scale(0.1 -0.1)">
       <use xlink:href="#SimHei-30"/>
       <use xlink:href="#SimHei-2e" x="50"/>
       <use xlink:href="#SimHei-30" x="100"/>
       <use xlink:href="#SimHei-30" x="150"/>
       <use xlink:href="#SimHei-31" x="200"/>
       <use xlink:href="#SimHei-35" x="250"/>
      </g>
     </g>
    </g>
    <g id="ytick_16">
     <g id="line2d_47">
      <g>
       <use xlink:href="#m8d26c07486" x="597.760294" y="42.48" style="stroke: #000000; stroke-width: 0.8"/>
      </g>
     </g>
     <g id="text_36">
      <!-- 0.0020 -->
      <g transform="translate(560.760294 45.9175) scale(0.1 -0.1)">
       <use xlink:href="#SimHei-30"/>
       <use xlink:href="#SimHei-2e" x="50"/>
       <use xlink:href="#SimHei-30" x="100"/>
       <use xlink:href="#SimHei-30" x="150"/>
       <use xlink:href="#SimHei-32" x="200"/>
       <use xlink:href="#SimHei-30" x="250"/>
      </g>
     </g>
    </g>
    <g id="ytick_17">
     <g id="line2d_48">
      <g>
       <use xlink:href="#m8d26c07486" x="597.760294" y="14.256" style="stroke: #000000; stroke-width: 0.8"/>
      </g>
     </g>
     <g id="text_37">
      <!-- 0.0025 -->
      <g transform="translate(560.760294 17.6935) scale(0.1 -0.1)">
       <use xlink:href="#SimHei-30"/>
       <use xlink:href="#SimHei-2e" x="50"/>
       <use xlink:href="#SimHei-30" x="100"/>
       <use xlink:href="#SimHei-30" x="150"/>
       <use xlink:href="#SimHei-32" x="200"/>
       <use xlink:href="#SimHei-35" x="250"/>
      </g>
     </g>
    </g>
   </g>
   <g id="line2d_49">
    <path d="M 608.204144 14.256 
L 609.269843 154.244961 
L 610.335542 153.656821 
L 611.401241 154.451424 
L 614.598338 154.224667 
L 615.664037 152.327985 
L 616.729736 154.327374 
L 618.861134 153.986742 
L 622.058231 153.392344 
L 623.12393 153.605795 
L 624.189629 153.304229 
L 626.321028 154.203768 
L 629.518125 154.115946 
L 630.583824 153.201266 
L 631.649523 153.228886 
L 632.715222 154.430457 
L 633.780921 154.048061 
L 636.978018 153.472724 
L 638.043717 154.263039 
L 639.109416 153.631079 
L 640.175115 153.869981 
L 641.240814 154.400547 
L 644.437911 154.058833 
L 645.50361 154.709658 
L 647.635008 153.582248 
L 648.700707 154.449865 
L 651.897804 154.113313 
L 652.963503 154.362846 
L 654.029202 154.156457 
L 655.094901 154.730578 
L 656.1606 154.156715 
L 659.357697 154.5581 
L 660.423396 154.210567 
L 661.489095 154.354121 
L 662.554794 153.345271 
L 675.343182 153.601812 
L 676.408881 154.00413 
L 677.47458 153.997924 
L 678.540279 153.398342 
L 681.737376 153.852842 
L 682.803075 154.28554 
L 683.868774 154.485854 
L 684.934473 153.594896 
L 686.000172 153.877129 
L 689.197269 153.715837 
L 690.262968 153.529122 
L 691.328667 152.676776 
L 692.394366 153.559694 
L 693.460065 153.12561 
L 696.657162 153.177615 
L 697.722861 154.55039 
L 698.78856 153.696673 
L 699.854259 154.310319 
L 700.919958 153.850558 
L 704.117055 153.664959 
L 705.182754 154.78058 
L 706.248453 153.323223 
L 707.314152 154.562897 
L 708.379851 154.511533 
L 711.576948 153.525332 
L 712.642647 152.754325 
L 713.708346 153.578813 
L 714.774045 150.238943 
L 715.839744 154.367516 
L 719.036841 153.700701 
L 720.10254 154.05653 
L 723.299637 154.550535 
L 726.496734 154.368658 
L 727.562433 153.213794 
L 728.628132 154.111361 
L 729.693831 152.446003 
L 730.75953 153.342656 
L 733.956627 154.16277 
L 735.022326 153.610917 
L 736.088025 154.781211 
L 737.153724 154.082346 
L 741.41652 154.376461 
L 743.547918 153.404176 
L 744.613617 151.703933 
L 745.679316 154.263968 
L 748.876413 153.917042 
L 749.942112 153.584766 
L 751.007811 152.930346 
L 752.07351 153.95464 
L 753.139209 153.681923 
L 756.336306 154.648875 
L 758.467704 153.735608 
L 759.533403 153.166466 
L 760.599102 153.940978 
L 764.861898 154.471944 
L 765.927597 154.176558 
L 766.993296 153.74445 
L 771.256092 154.265029 
L 772.321791 153.783004 
L 773.38749 154.559177 
L 774.453189 153.313231 
L 775.518888 153.767467 
L 778.715985 153.734806 
L 779.781684 153.570805 
L 780.847383 154.592912 
L 781.913083 153.281618 
L 782.978782 153.759418 
L 786.175879 153.256152 
L 787.241578 154.479133 
L 788.307277 152.287464 
L 789.372976 153.457002 
L 790.438675 151.936741 
L 793.635772 152.290608 
L 794.701471 153.331062 
L 795.76717 152.572174 
L 796.832869 153.043298 
L 797.898568 154.012183 
L 801.095665 152.422623 
L 802.161364 151.68595 
L 803.227063 154.390568 
L 804.292762 151.794293 
L 816.015451 153.930526 
L 817.08115 155.376 
L 817.08115 155.376 
" clip-path="url(#pe2affd3185)" style="fill: none; stroke: #1f77b4; stroke-width: 1.5; stroke-linecap: square"/>
   </g>
   <g id="patch_14">
    <path d="M 597.760294 162.432 
L 597.760294 7.2 
" style="fill: none; stroke: #000000; stroke-width: 0.8; stroke-linejoin: miter; stroke-linecap: square"/>
   </g>
   <g id="patch_15">
    <path d="M 827.525 162.432 
L 827.525 7.2 
" style="fill: none; stroke: #000000; stroke-width: 0.8; stroke-linejoin: miter; stroke-linecap: square"/>
   </g>
   <g id="patch_16">
    <path d="M 597.760294 162.432 
L 827.525 162.432 
" style="fill: none; stroke: #000000; stroke-width: 0.8; stroke-linejoin: miter; stroke-linecap: square"/>
   </g>
   <g id="patch_17">
    <path d="M 597.760294 7.2 
L 827.525 7.2 
" style="fill: none; stroke: #000000; stroke-width: 0.8; stroke-linejoin: miter; stroke-linecap: square"/>
   </g>
  </g>
 </g>
 <defs>
  <clipPath id="pda86e95dc1">
   <rect x="46.325" y="7.2" width="229.764706" height="155.232"/>
  </clipPath>
  <clipPath id="p5113e21867">
   <rect x="322.042647" y="7.2" width="229.764706" height="155.232"/>
  </clipPath>
  <clipPath id="pe2affd3185">
   <rect x="597.760294" y="7.2" width="229.764706" height="155.232"/>
  </clipPath>
 </defs>
</svg>
