<?xml version="1.0" encoding="utf-8" standalone="no"?>
<!DOCTYPE svg PUBLIC "-//W3C//DTD SVG 1.1//EN"
  "http://www.w3.org/Graphics/SVG/1.1/DTD/svg11.dtd">
<svg xmlns:xlink="http://www.w3.org/1999/xlink" width="834.803125pt" height="184.757pt" viewBox="0 0 834.803125 184.757" xmlns="http://www.w3.org/2000/svg" version="1.1">
 <metadata>
  <rdf:RDF xmlns:dc="http://purl.org/dc/elements/1.1/" xmlns:cc="http://creativecommons.org/ns#" xmlns:rdf="http://www.w3.org/1999/02/22-rdf-syntax-ns#">
   <cc:Work>
    <dc:type rdf:resource="http://purl.org/dc/dcmitype/StillImage"/>
    <dc:date>2024-12-25T17:33:00.536677</dc:date>
    <dc:format>image/svg+xml</dc:format>
    <dc:creator>
     <cc:Agent>
      <dc:title>Matplotlib v3.9.3, https://matplotlib.org/</dc:title>
     </cc:Agent>
    </dc:creator>
   </cc:Work>
  </rdf:RDF>
 </metadata>
 <defs>
  <style type="text/css">*{stroke-linejoin: round; stroke-linecap: butt}</style>
 </defs>
 <g id="figure_1">
  <g id="patch_1">
   <path d="M 0 184.757 
L 834.803125 184.757 
L 834.803125 0 
L 0 0 
z
" style="fill: #ffffff"/>
  </g>
  <g id="axes_1">
   <g id="patch_2">
    <path d="M 46.403125 162.432 
L 276.167831 162.432 
L 276.167831 7.2 
L 46.403125 7.2 
z
" style="fill: #ffffff"/>
   </g>
   <g id="matplotlib.axis_1">
    <g id="xtick_1">
     <g id="line2d_1">
      <defs>
       <path id="m3006667fa9" d="M 0 0 
L 0 3.5 
" style="stroke: #000000; stroke-width: 0.8"/>
      </defs>
      <g>
       <use xlink:href="#m3006667fa9" x="102.672033" y="162.432" style="stroke: #000000; stroke-width: 0.8"/>
      </g>
     </g>
     <g id="text_1">
      <!-- 2023-09-20 -->
      <g transform="translate(77.672033 176.307) scale(0.1 -0.1)">
       <defs>
        <path id="SimHei-32" d="M 300 250 
Q 325 625 650 925 
Q 975 1225 1475 1862 
Q 1975 2500 2125 2850 
Q 2275 3200 2237 3450 
Q 2200 3700 2000 3862 
Q 1800 4025 1537 4000 
Q 1275 3975 1037 3800 
Q 800 3625 675 3275 
L 200 3350 
Q 400 3925 712 4187 
Q 1025 4450 1450 4475 
Q 1700 4500 1900 4462 
Q 2100 4425 2312 4287 
Q 2525 4150 2662 3875 
Q 2800 3600 2762 3212 
Q 2725 2825 2375 2287 
Q 2025 1750 1025 600 
L 2825 600 
L 2825 150 
L 300 150 
L 300 250 
z
" transform="scale(0.015625)"/>
        <path id="SimHei-30" d="M 225 2537 
Q 250 3200 412 3587 
Q 575 3975 875 4225 
Q 1175 4475 1612 4475 
Q 2050 4475 2375 4112 
Q 2700 3750 2800 3200 
Q 2900 2650 2862 1937 
Q 2825 1225 2612 775 
Q 2400 325 1975 150 
Q 1550 -25 1125 187 
Q 700 400 525 750 
Q 350 1100 275 1487 
Q 200 1875 225 2537 
z
M 750 2687 
Q 675 2000 800 1462 
Q 925 925 1212 700 
Q 1500 475 1800 612 
Q 2100 750 2237 1162 
Q 2375 1575 2375 2062 
Q 2375 2550 2337 2950 
Q 2300 3350 2112 3675 
Q 1925 4000 1612 4012 
Q 1300 4025 1062 3700 
Q 825 3375 750 2687 
z
" transform="scale(0.015625)"/>
        <path id="SimHei-33" d="M 250 1225 
L 700 1300 
Q 800 975 1025 762 
Q 1250 550 1587 562 
Q 1925 575 2125 837 
Q 2325 1100 2300 1437 
Q 2275 1775 2037 1962 
Q 1800 2150 1275 2225 
L 1275 2550 
Q 1800 2600 2037 2825 
Q 2275 3050 2250 3412 
Q 2225 3775 1925 3937 
Q 1625 4100 1287 3975 
Q 950 3850 750 3275 
L 300 3350 
Q 450 3800 712 4100 
Q 975 4400 1425 4450 
Q 1875 4500 2212 4337 
Q 2550 4175 2687 3837 
Q 2825 3500 2725 3100 
Q 2625 2700 2150 2400 
Q 2500 2250 2687 1950 
Q 2875 1650 2812 1162 
Q 2750 675 2375 375 
Q 2000 75 1525 87 
Q 1050 100 700 387 
Q 350 675 250 1225 
z
" transform="scale(0.015625)"/>
        <path id="SimHei-2d" d="M 2975 2125 
L 125 2125 
L 125 2525 
L 2975 2525 
L 2975 2125 
z
" transform="scale(0.015625)"/>
        <path id="SimHei-39" d="M 800 75 
Q 1350 1000 1700 1750 
Q 1075 1650 662 1912 
Q 250 2175 162 2625 
Q 75 3075 175 3437 
Q 275 3800 487 4037 
Q 700 4275 1000 4375 
Q 1300 4475 1537 4475 
Q 1775 4475 2025 4375 
Q 2275 4275 2475 4075 
Q 2675 3875 2750 3662 
Q 2825 3450 2825 3112 
Q 2825 2775 2575 2250 
Q 2325 1725 1350 75 
L 800 75 
z
M 662 2875 
Q 700 2550 937 2337 
Q 1175 2125 1450 2150 
Q 1725 2175 1887 2300 
Q 2050 2425 2200 2725 
Q 2300 3100 2250 3362 
Q 2200 3625 1987 3800 
Q 1775 3975 1525 3975 
Q 1375 4000 1137 3900 
Q 900 3800 762 3500 
Q 625 3200 662 2875 
z
" transform="scale(0.015625)"/>
       </defs>
       <use xlink:href="#SimHei-32"/>
       <use xlink:href="#SimHei-30" x="50"/>
       <use xlink:href="#SimHei-32" x="100"/>
       <use xlink:href="#SimHei-33" x="150"/>
       <use xlink:href="#SimHei-2d" x="200"/>
       <use xlink:href="#SimHei-30" x="250"/>
       <use xlink:href="#SimHei-39" x="300"/>
       <use xlink:href="#SimHei-2d" x="350"/>
       <use xlink:href="#SimHei-32" x="400"/>
       <use xlink:href="#SimHei-30" x="450"/>
      </g>
     </g>
    </g>
    <g id="xtick_2">
     <g id="line2d_2">
      <g>
       <use xlink:href="#m3006667fa9" x="166.613973" y="162.432" style="stroke: #000000; stroke-width: 0.8"/>
      </g>
     </g>
     <g id="text_2">
      <!-- 2023-11-19 -->
      <g transform="translate(141.613973 176.307) scale(0.1 -0.1)">
       <defs>
        <path id="SimHei-31" d="M 1400 3600 
Q 1075 3275 575 2975 
L 575 3450 
Q 1200 3875 1600 4450 
L 1900 4450 
L 1900 150 
L 1400 150 
L 1400 3600 
z
" transform="scale(0.015625)"/>
       </defs>
       <use xlink:href="#SimHei-32"/>
       <use xlink:href="#SimHei-30" x="50"/>
       <use xlink:href="#SimHei-32" x="100"/>
       <use xlink:href="#SimHei-33" x="150"/>
       <use xlink:href="#SimHei-2d" x="200"/>
       <use xlink:href="#SimHei-31" x="250"/>
       <use xlink:href="#SimHei-31" x="300"/>
       <use xlink:href="#SimHei-2d" x="350"/>
       <use xlink:href="#SimHei-31" x="400"/>
       <use xlink:href="#SimHei-39" x="450"/>
      </g>
     </g>
    </g>
    <g id="xtick_3">
     <g id="line2d_3">
      <g>
       <use xlink:href="#m3006667fa9" x="230.555913" y="162.432" style="stroke: #000000; stroke-width: 0.8"/>
      </g>
     </g>
     <g id="text_3">
      <!-- 2024-01-18 -->
      <g transform="translate(205.555913 176.307) scale(0.1 -0.1)">
       <defs>
        <path id="SimHei-34" d="M 2000 1100 
L 75 1100 
L 75 1525 
L 2100 4450 
L 2475 4450 
L 2475 1525 
L 3075 1525 
L 3075 1100 
L 2475 1100 
L 2475 150 
L 2000 150 
L 2000 1100 
z
M 2000 1525 
L 2000 3500 
L 600 1525 
L 2000 1525 
z
" transform="scale(0.015625)"/>
        <path id="SimHei-38" d="M 175 1375 
Q 175 1675 325 1962 
Q 475 2250 825 2425 
Q 525 2600 425 2812 
Q 325 3025 312 3300 
Q 300 3575 387 3775 
Q 475 3975 650 4150 
Q 825 4325 1037 4387 
Q 1250 4450 1500 4450 
Q 1750 4450 1950 4400 
Q 2150 4350 2375 4187 
Q 2600 4025 2700 3725 
Q 2800 3425 2687 3025 
Q 2575 2625 2100 2400 
Q 2525 2275 2700 2012 
Q 2875 1750 2875 1375 
Q 2875 1000 2762 775 
Q 2650 550 2512 400 
Q 2375 250 2137 162 
Q 1900 75 1537 75 
Q 1175 75 912 162 
Q 650 250 475 425 
Q 300 600 237 837 
Q 175 1075 175 1375 
z
M 687 1400 
Q 675 1100 787 875 
Q 900 650 1200 587 
Q 1500 525 1825 600 
Q 2150 675 2275 950 
Q 2400 1225 2362 1500 
Q 2325 1775 2050 1962 
Q 1775 2150 1450 2125 
Q 1125 2100 912 1900 
Q 700 1700 687 1400 
z
M 775 3350 
Q 775 3100 950 2875 
Q 1125 2650 1500 2650 
Q 1875 2650 2062 2875 
Q 2250 3100 2237 3412 
Q 2225 3725 2012 3875 
Q 1800 4025 1437 4000 
Q 1075 3975 925 3787 
Q 775 3600 775 3350 
z
" transform="scale(0.015625)"/>
       </defs>
       <use xlink:href="#SimHei-32"/>
       <use xlink:href="#SimHei-30" x="50"/>
       <use xlink:href="#SimHei-32" x="100"/>
       <use xlink:href="#SimHei-34" x="150"/>
       <use xlink:href="#SimHei-2d" x="200"/>
       <use xlink:href="#SimHei-30" x="250"/>
       <use xlink:href="#SimHei-31" x="300"/>
       <use xlink:href="#SimHei-2d" x="350"/>
       <use xlink:href="#SimHei-31" x="400"/>
       <use xlink:href="#SimHei-38" x="450"/>
      </g>
     </g>
    </g>
   </g>
   <g id="matplotlib.axis_2">
    <g id="ytick_1">
     <g id="line2d_4">
      <defs>
       <path id="m267550eba8" d="M 0 0 
L -3.5 0 
" style="stroke: #000000; stroke-width: 0.8"/>
      </defs>
      <g>
       <use xlink:href="#m267550eba8" x="46.403125" y="137.42001" style="stroke: #000000; stroke-width: 0.8"/>
      </g>
     </g>
     <g id="text_4">
      <!-- 0.92 -->
      <g transform="translate(19.403125 140.85751) scale(0.1 -0.1)">
       <defs>
        <path id="SimHei-2e" d="M 1075 125 
L 500 125 
L 500 675 
L 1075 675 
L 1075 125 
z
" transform="scale(0.015625)"/>
       </defs>
       <use xlink:href="#SimHei-30"/>
       <use xlink:href="#SimHei-2e" x="50"/>
       <use xlink:href="#SimHei-39" x="100"/>
       <use xlink:href="#SimHei-32" x="150"/>
      </g>
     </g>
    </g>
    <g id="ytick_2">
     <g id="line2d_5">
      <g>
       <use xlink:href="#m267550eba8" x="46.403125" y="107.407336" style="stroke: #000000; stroke-width: 0.8"/>
      </g>
     </g>
     <g id="text_5">
      <!-- 0.94 -->
      <g transform="translate(19.403125 110.844836) scale(0.1 -0.1)">
       <use xlink:href="#SimHei-30"/>
       <use xlink:href="#SimHei-2e" x="50"/>
       <use xlink:href="#SimHei-39" x="100"/>
       <use xlink:href="#SimHei-34" x="150"/>
      </g>
     </g>
    </g>
    <g id="ytick_3">
     <g id="line2d_6">
      <g>
       <use xlink:href="#m267550eba8" x="46.403125" y="77.394662" style="stroke: #000000; stroke-width: 0.8"/>
      </g>
     </g>
     <g id="text_6">
      <!-- 0.96 -->
      <g transform="translate(19.403125 80.832162) scale(0.1 -0.1)">
       <defs>
        <path id="SimHei-36" d="M 250 1612 
Q 275 1975 387 2225 
Q 500 2475 725 2850 
L 1750 4450 
L 2325 4450 
L 1275 2800 
Q 1950 2975 2350 2750 
Q 2750 2525 2887 2237 
Q 3025 1950 3037 1612 
Q 3050 1275 2937 950 
Q 2825 625 2537 362 
Q 2250 100 1737 75 
Q 1225 50 862 262 
Q 500 475 362 862 
Q 225 1250 250 1612 
z
M 1025 787 
Q 1250 550 1625 525 
Q 2000 500 2250 775 
Q 2500 1050 2500 1575 
Q 2500 2100 2187 2300 
Q 1875 2500 1487 2450 
Q 1100 2400 925 2075 
Q 750 1750 775 1387 
Q 800 1025 1025 787 
z
" transform="scale(0.015625)"/>
       </defs>
       <use xlink:href="#SimHei-30"/>
       <use xlink:href="#SimHei-2e" x="50"/>
       <use xlink:href="#SimHei-39" x="100"/>
       <use xlink:href="#SimHei-36" x="150"/>
      </g>
     </g>
    </g>
    <g id="ytick_4">
     <g id="line2d_7">
      <g>
       <use xlink:href="#m267550eba8" x="46.403125" y="47.381988" style="stroke: #000000; stroke-width: 0.8"/>
      </g>
     </g>
     <g id="text_7">
      <!-- 0.98 -->
      <g transform="translate(19.403125 50.819488) scale(0.1 -0.1)">
       <use xlink:href="#SimHei-30"/>
       <use xlink:href="#SimHei-2e" x="50"/>
       <use xlink:href="#SimHei-39" x="100"/>
       <use xlink:href="#SimHei-38" x="150"/>
      </g>
     </g>
    </g>
    <g id="ytick_5">
     <g id="line2d_8">
      <g>
       <use xlink:href="#m267550eba8" x="46.403125" y="17.369314" style="stroke: #000000; stroke-width: 0.8"/>
      </g>
     </g>
     <g id="text_8">
      <!-- 1.00 -->
      <g transform="translate(19.403125 20.806814) scale(0.1 -0.1)">
       <use xlink:href="#SimHei-31"/>
       <use xlink:href="#SimHei-2e" x="50"/>
       <use xlink:href="#SimHei-30" x="100"/>
       <use xlink:href="#SimHei-30" x="150"/>
      </g>
     </g>
    </g>
    <g id="text_9">
     <!-- RP-Sharpe -->
     <g transform="translate(14.153125 107.316) rotate(-90) scale(0.1 -0.1)">
      <defs>
       <path id="SimHei-52" d="M 3000 125 
L 2400 125 
L 1500 1975 
L 850 1975 
L 850 125 
L 275 125 
L 275 4400 
L 1525 4400 
Q 2125 4400 2500 4112 
Q 2875 3825 2875 3175 
Q 2875 2675 2625 2400 
Q 2375 2125 2050 2050 
L 3000 125 
z
M 2300 3175 
Q 2300 3525 2087 3725 
Q 1875 3925 1400 3925 
L 850 3925 
L 850 2450 
L 1550 2450 
Q 1850 2450 2075 2612 
Q 2300 2775 2300 3175 
z
" transform="scale(0.015625)"/>
       <path id="SimHei-50" d="M 2950 3100 
Q 2950 2500 2600 2150 
Q 2250 1800 1625 1800 
L 900 1800 
L 900 125 
L 325 125 
L 325 4400 
L 1625 4400 
Q 2250 4400 2600 4050 
Q 2950 3700 2950 3100 
z
M 2375 3100 
Q 2375 3575 2150 3750 
Q 1925 3925 1475 3925 
L 900 3925 
L 900 2275 
L 1475 2275 
Q 1925 2275 2150 2450 
Q 2375 2625 2375 3100 
z
" transform="scale(0.015625)"/>
       <path id="SimHei-53" d="M 2900 1325 
Q 2900 750 2537 412 
Q 2175 75 1550 75 
Q 925 75 575 425 
Q 225 775 225 1300 
L 225 1475 
L 800 1475 
L 800 1325 
Q 800 950 1025 750 
Q 1250 550 1550 550 
Q 1950 550 2137 762 
Q 2325 975 2325 1275 
Q 2325 1525 2100 1737 
Q 1875 1950 1450 2125 
Q 850 2350 587 2625 
Q 325 2900 325 3275 
Q 325 3800 687 4125 
Q 1050 4450 1550 4450 
Q 2200 4450 2487 4062 
Q 2775 3675 2775 3225 
L 2200 3225 
Q 2225 3500 2050 3725 
Q 1875 3950 1550 3950 
Q 1250 3950 1075 3787 
Q 900 3625 900 3350 
Q 900 3125 1037 2962 
Q 1175 2800 1750 2575 
Q 2300 2350 2600 2037 
Q 2900 1725 2900 1325 
z
" transform="scale(0.015625)"/>
       <path id="SimHei-68" d="M 2800 125 
L 2300 125 
L 2300 1925 
Q 2300 2225 2150 2400 
Q 2000 2575 1750 2575 
Q 1425 2575 1137 2237 
Q 850 1900 850 1400 
L 850 125 
L 350 125 
L 350 4400 
L 850 4400 
L 850 2400 
Q 1050 2675 1287 2825 
Q 1525 2975 1900 2975 
Q 2350 2975 2575 2725 
Q 2800 2475 2800 2100 
L 2800 125 
z
" transform="scale(0.015625)"/>
       <path id="SimHei-61" d="M 2875 125 
L 2275 125 
Q 2225 175 2200 262 
Q 2175 350 2175 475 
Q 2000 275 1750 175 
Q 1500 75 1225 75 
Q 825 75 550 275 
Q 275 475 275 850 
Q 275 1225 525 1450 
Q 775 1675 1300 1750 
Q 1650 1800 1912 1875 
Q 2175 1950 2175 2075 
Q 2175 2225 2062 2375 
Q 1950 2525 1575 2525 
Q 1275 2525 1137 2412 
Q 1000 2300 950 2100 
L 400 2100 
Q 450 2500 762 2737 
Q 1075 2975 1575 2975 
Q 2125 2975 2400 2725 
Q 2675 2475 2675 2025 
L 2675 650 
Q 2675 500 2725 375 
Q 2775 250 2875 125 
z
M 2175 1050 
L 2175 1550 
Q 2025 1500 1887 1462 
Q 1750 1425 1425 1375 
Q 1050 1325 937 1200 
Q 825 1075 825 900 
Q 825 750 937 637 
Q 1050 525 1275 525 
Q 1500 525 1762 650 
Q 2025 775 2175 1050 
z
" transform="scale(0.015625)"/>
       <path id="SimHei-72" d="M 2500 2425 
Q 2025 2500 1700 2287 
Q 1375 2075 1150 1550 
L 1150 125 
L 650 125 
L 650 2925 
L 1150 2925 
L 1150 2200 
Q 1375 2600 1712 2787 
Q 2050 2975 2500 2975 
L 2500 2425 
z
" transform="scale(0.015625)"/>
       <path id="SimHei-70" d="M 2825 1525 
Q 2825 800 2475 425 
Q 2125 50 1625 50 
Q 1350 50 1150 162 
Q 950 275 800 500 
L 800 -800 
L 300 -800 
L 300 2925 
L 800 2925 
L 800 2550 
Q 950 2775 1150 2875 
Q 1350 2975 1625 2975 
Q 2125 2975 2475 2612 
Q 2825 2250 2825 1525 
z
M 2275 1525 
Q 2275 2000 2087 2262 
Q 1900 2525 1525 2525 
Q 1225 2525 1012 2262 
Q 800 2000 800 1525 
Q 800 1050 1012 775 
Q 1225 500 1525 500 
Q 1900 500 2087 775 
Q 2275 1050 2275 1525 
z
" transform="scale(0.015625)"/>
       <path id="SimHei-65" d="M 2850 1075 
Q 2800 625 2450 350 
Q 2100 75 1625 75 
Q 1025 75 637 462 
Q 250 850 250 1525 
Q 250 2200 637 2587 
Q 1025 2975 1625 2975 
Q 2150 2975 2487 2637 
Q 2825 2300 2825 1525 
L 800 1525 
Q 800 975 1037 750 
Q 1275 525 1625 525 
Q 1900 525 2075 662 
Q 2250 800 2300 1075 
L 2850 1075 
z
M 2250 1925 
Q 2200 2275 2025 2412 
Q 1850 2550 1575 2550 
Q 1325 2550 1125 2412 
Q 925 2275 825 1925 
L 2250 1925 
z
" transform="scale(0.015625)"/>
      </defs>
      <use xlink:href="#SimHei-52"/>
      <use xlink:href="#SimHei-50" x="50"/>
      <use xlink:href="#SimHei-2d" x="100"/>
      <use xlink:href="#SimHei-53" x="150"/>
      <use xlink:href="#SimHei-68" x="200"/>
      <use xlink:href="#SimHei-61" x="250"/>
      <use xlink:href="#SimHei-72" x="300"/>
      <use xlink:href="#SimHei-70" x="350"/>
      <use xlink:href="#SimHei-65" x="400"/>
     </g>
    </g>
   </g>
   <g id="line2d_9">
    <path d="M 56.846975 21.120898 
L 57.912674 29.913875 
L 58.978373 14.256 
L 60.044072 48.443932 
L 63.241169 54.407518 
L 64.306868 55.44925 
L 65.372567 69.954873 
L 66.438266 63.418013 
L 67.503965 80.51331 
L 70.701062 106.55121 
L 71.766761 95.302631 
L 72.83246 117.154216 
L 73.898159 113.053701 
L 74.963858 114.043239 
L 78.160955 107.139568 
L 79.226654 94.391786 
L 80.292353 92.007747 
L 81.358052 92.302677 
L 82.423751 94.544189 
L 85.620848 74.532805 
L 87.752246 82.270687 
L 88.817945 99.512392 
L 89.883644 101.075458 
L 93.080742 87.519202 
L 94.146441 89.001205 
L 95.21214 98.358653 
L 96.277839 91.529234 
L 97.343538 99.601989 
L 100.540635 101.616855 
L 101.606334 105.144277 
L 102.672033 112.19998 
L 103.737732 121.729333 
L 104.803431 103.128127 
L 108.000528 105.667874 
L 109.066227 115.82832 
L 110.131926 122.438206 
L 111.197625 114.003004 
L 122.920314 105.357213 
L 123.986013 107.461937 
L 125.051712 107.421641 
L 126.117411 88.02633 
L 127.18311 97.725649 
L 130.380207 101.366403 
L 131.445906 95.392029 
L 132.511605 102.440281 
L 133.577304 122.530574 
L 134.643003 136.434106 
L 137.8401 148.956259 
L 138.905799 134.394964 
L 139.971498 127.140758 
L 141.037197 115.683859 
L 142.102896 94.846887 
L 145.299993 90.206381 
L 146.365692 89.781151 
L 147.431391 87.995973 
L 148.49709 90.321944 
L 149.562789 87.528093 
L 152.759886 87.273781 
L 153.825585 90.627431 
L 154.891284 92.819927 
L 155.956983 89.725156 
L 157.022682 94.670778 
L 160.219779 99.645594 
L 161.285478 100.858182 
L 162.351177 89.65233 
L 163.416876 96.546966 
L 164.482575 97.11886 
L 167.679672 90.118903 
L 168.745371 92.747644 
L 169.81107 102.956722 
L 170.876769 93.985899 
L 171.942468 101.816271 
L 175.139565 99.652209 
L 176.205264 100.696659 
L 177.270963 111.499031 
L 178.336662 107.234906 
L 179.402361 121.596385 
L 182.599458 123.980846 
L 183.665157 145.401685 
L 185.796555 155.066656 
L 186.862254 151.019341 
L 190.059351 142.911819 
L 191.12505 131.037371 
L 192.190749 135.953337 
L 193.256448 142.083114 
L 194.322147 152.862765 
L 197.519244 155.376 
L 198.584943 145.582881 
L 199.650642 154.79604 
L 200.716341 145.09035 
L 201.78204 147.942931 
L 204.979137 139.610194 
L 206.044836 146.886263 
L 207.110535 140.877937 
L 208.176234 126.216344 
L 209.241933 118.308876 
L 213.504729 123.219731 
L 214.570428 117.203768 
L 215.636127 123.704702 
L 216.701826 124.554722 
L 219.898923 142.076468 
L 220.964622 135.69534 
L 222.030321 144.503635 
L 223.09602 142.994644 
L 224.161719 136.129785 
L 227.358816 123.6522 
L 228.424515 109.067992 
L 229.490214 135.572631 
L 230.555913 122.571307 
L 231.621612 126.365023 
L 234.818709 149.751376 
L 235.884408 148.846915 
L 238.015806 88.344347 
L 239.081505 91.481375 
L 242.278602 84.511792 
L 243.344301 114.045453 
L 244.41 124.034802 
L 245.475699 124.281578 
L 246.541398 135.609472 
L 249.738496 123.518822 
L 250.804195 84.788788 
L 251.869894 79.303762 
L 252.935593 72.531058 
L 264.658282 42.44035 
L 265.723981 34.87608 
L 265.723981 34.87608 
" clip-path="url(#p61e1e0b9aa)" style="fill: none; stroke: #1f77b4; stroke-width: 1.5; stroke-linecap: square"/>
   </g>
   <g id="patch_3">
    <path d="M 46.403125 162.432 
L 46.403125 7.2 
" style="fill: none; stroke: #000000; stroke-width: 0.8; stroke-linejoin: miter; stroke-linecap: square"/>
   </g>
   <g id="patch_4">
    <path d="M 276.167831 162.432 
L 276.167831 7.2 
" style="fill: none; stroke: #000000; stroke-width: 0.8; stroke-linejoin: miter; stroke-linecap: square"/>
   </g>
   <g id="patch_5">
    <path d="M 46.403125 162.432 
L 276.167831 162.432 
" style="fill: none; stroke: #000000; stroke-width: 0.8; stroke-linejoin: miter; stroke-linecap: square"/>
   </g>
   <g id="patch_6">
    <path d="M 46.403125 7.2 
L 276.167831 7.2 
" style="fill: none; stroke: #000000; stroke-width: 0.8; stroke-linejoin: miter; stroke-linecap: square"/>
   </g>
  </g>
  <g id="axes_2">
   <g id="patch_7">
    <path d="M 322.120772 162.432 
L 551.885478 162.432 
L 551.885478 7.2 
L 322.120772 7.2 
z
" style="fill: #ffffff"/>
   </g>
   <g id="matplotlib.axis_3">
    <g id="xtick_4">
     <g id="line2d_10">
      <g>
       <use xlink:href="#m3006667fa9" x="379.455379" y="162.432" style="stroke: #000000; stroke-width: 0.8"/>
      </g>
     </g>
     <g id="text_10">
      <!-- 2023-09-20 -->
      <g transform="translate(354.455379 176.307) scale(0.1 -0.1)">
       <use xlink:href="#SimHei-32"/>
       <use xlink:href="#SimHei-30" x="50"/>
       <use xlink:href="#SimHei-32" x="100"/>
       <use xlink:href="#SimHei-33" x="150"/>
       <use xlink:href="#SimHei-2d" x="200"/>
       <use xlink:href="#SimHei-30" x="250"/>
       <use xlink:href="#SimHei-39" x="300"/>
       <use xlink:href="#SimHei-2d" x="350"/>
       <use xlink:href="#SimHei-32" x="400"/>
       <use xlink:href="#SimHei-30" x="450"/>
      </g>
     </g>
    </g>
    <g id="xtick_5">
     <g id="line2d_11">
      <g>
       <use xlink:href="#m3006667fa9" x="443.397319" y="162.432" style="stroke: #000000; stroke-width: 0.8"/>
      </g>
     </g>
     <g id="text_11">
      <!-- 2023-11-19 -->
      <g transform="translate(418.397319 176.307) scale(0.1 -0.1)">
       <use xlink:href="#SimHei-32"/>
       <use xlink:href="#SimHei-30" x="50"/>
       <use xlink:href="#SimHei-32" x="100"/>
       <use xlink:href="#SimHei-33" x="150"/>
       <use xlink:href="#SimHei-2d" x="200"/>
       <use xlink:href="#SimHei-31" x="250"/>
       <use xlink:href="#SimHei-31" x="300"/>
       <use xlink:href="#SimHei-2d" x="350"/>
       <use xlink:href="#SimHei-31" x="400"/>
       <use xlink:href="#SimHei-39" x="450"/>
      </g>
     </g>
    </g>
    <g id="xtick_6">
     <g id="line2d_12">
      <g>
       <use xlink:href="#m3006667fa9" x="507.339259" y="162.432" style="stroke: #000000; stroke-width: 0.8"/>
      </g>
     </g>
     <g id="text_12">
      <!-- 2024-01-18 -->
      <g transform="translate(482.339259 176.307) scale(0.1 -0.1)">
       <use xlink:href="#SimHei-32"/>
       <use xlink:href="#SimHei-30" x="50"/>
       <use xlink:href="#SimHei-32" x="100"/>
       <use xlink:href="#SimHei-34" x="150"/>
       <use xlink:href="#SimHei-2d" x="200"/>
       <use xlink:href="#SimHei-30" x="250"/>
       <use xlink:href="#SimHei-31" x="300"/>
       <use xlink:href="#SimHei-2d" x="350"/>
       <use xlink:href="#SimHei-31" x="400"/>
       <use xlink:href="#SimHei-38" x="450"/>
      </g>
     </g>
    </g>
   </g>
   <g id="matplotlib.axis_4">
    <g id="ytick_6">
     <g id="line2d_13">
      <g>
       <use xlink:href="#m267550eba8" x="322.120772" y="155.376" style="stroke: #000000; stroke-width: 0.8"/>
      </g>
     </g>
     <g id="text_13">
      <!-- 0.0 -->
      <g transform="translate(300.120772 158.8135) scale(0.1 -0.1)">
       <use xlink:href="#SimHei-30"/>
       <use xlink:href="#SimHei-2e" x="50"/>
       <use xlink:href="#SimHei-30" x="100"/>
      </g>
     </g>
    </g>
    <g id="ytick_7">
     <g id="line2d_14">
      <g>
       <use xlink:href="#m267550eba8" x="322.120772" y="127.152" style="stroke: #000000; stroke-width: 0.8"/>
      </g>
     </g>
     <g id="text_14">
      <!-- 0.2 -->
      <g transform="translate(300.120772 130.5895) scale(0.1 -0.1)">
       <use xlink:href="#SimHei-30"/>
       <use xlink:href="#SimHei-2e" x="50"/>
       <use xlink:href="#SimHei-32" x="100"/>
      </g>
     </g>
    </g>
    <g id="ytick_8">
     <g id="line2d_15">
      <g>
       <use xlink:href="#m267550eba8" x="322.120772" y="98.928" style="stroke: #000000; stroke-width: 0.8"/>
      </g>
     </g>
     <g id="text_15">
      <!-- 0.4 -->
      <g transform="translate(300.120772 102.3655) scale(0.1 -0.1)">
       <use xlink:href="#SimHei-30"/>
       <use xlink:href="#SimHei-2e" x="50"/>
       <use xlink:href="#SimHei-34" x="100"/>
      </g>
     </g>
    </g>
    <g id="ytick_9">
     <g id="line2d_16">
      <g>
       <use xlink:href="#m267550eba8" x="322.120772" y="70.704" style="stroke: #000000; stroke-width: 0.8"/>
      </g>
     </g>
     <g id="text_16">
      <!-- 0.6 -->
      <g transform="translate(300.120772 74.1415) scale(0.1 -0.1)">
       <use xlink:href="#SimHei-30"/>
       <use xlink:href="#SimHei-2e" x="50"/>
       <use xlink:href="#SimHei-36" x="100"/>
      </g>
     </g>
    </g>
    <g id="ytick_10">
     <g id="line2d_17">
      <g>
       <use xlink:href="#m267550eba8" x="322.120772" y="42.48" style="stroke: #000000; stroke-width: 0.8"/>
      </g>
     </g>
     <g id="text_17">
      <!-- 0.8 -->
      <g transform="translate(300.120772 45.9175) scale(0.1 -0.1)">
       <use xlink:href="#SimHei-30"/>
       <use xlink:href="#SimHei-2e" x="50"/>
       <use xlink:href="#SimHei-38" x="100"/>
      </g>
     </g>
    </g>
    <g id="ytick_11">
     <g id="line2d_18">
      <g>
       <use xlink:href="#m267550eba8" x="322.120772" y="14.256" style="stroke: #000000; stroke-width: 0.8"/>
      </g>
     </g>
     <g id="text_18">
      <!-- 1.0 -->
      <g transform="translate(300.120772 17.6935) scale(0.1 -0.1)">
       <use xlink:href="#SimHei-31"/>
       <use xlink:href="#SimHei-2e" x="50"/>
       <use xlink:href="#SimHei-30" x="100"/>
      </g>
     </g>
    </g>
   </g>
   <g id="line2d_19">
    <path d="M 332.564622 155.376 
L 333.630321 144.077402 
L 366.666991 143.949888 
L 399.70366 143.925791 
L 400.769359 143.75899 
L 403.966456 143.805347 
L 410.36065 143.640216 
L 411.426349 143.470962 
L 415.689145 143.400865 
L 417.820543 143.214023 
L 418.886242 143.343836 
L 422.083339 143.24177 
L 423.149038 143.075614 
L 426.346135 143.056565 
L 437.003125 143.315378 
L 438.068824 143.150017 
L 439.134523 143.22101 
L 440.200222 142.854198 
L 441.265921 142.961009 
L 454.054309 143.216484 
L 455.120008 143.434964 
L 459.382804 143.43636 
L 460.448503 143.742677 
L 506.27356 143.451798 
L 507.339259 143.53811 
L 511.602055 143.301021 
L 513.733453 143.324988 
L 514.799153 143.311048 
L 515.864852 143.435365 
L 521.193347 143.454382 
L 522.259046 143.306924 
L 528.65324 143.433352 
L 529.718939 143.299517 
L 541.441628 143.27351 
L 541.441628 143.27351 
" clip-path="url(#p3afba7271e)" style="fill: none; stroke: #1f77b4; stroke-width: 1.5; stroke-linecap: square"/>
   </g>
   <g id="line2d_20">
    <path d="M 332.564622 155.376 
L 333.630321 146.499503 
L 340.024515 146.447366 
L 342.155913 146.296003 
L 348.550107 146.2947 
L 349.615806 146.145062 
L 379.455379 145.988434 
L 381.586777 146.037063 
L 399.70366 146.033118 
L 401.835058 145.967936 
L 403.966456 145.962695 
L 408.229252 145.867196 
L 409.294951 145.943226 
L 410.36065 145.790363 
L 411.426349 145.971242 
L 416.754844 145.915906 
L 418.886242 145.847571 
L 437.003125 145.769738 
L 440.200222 145.349243 
L 441.265921 145.217564 
L 444.463018 145.221365 
L 445.528717 145.087361 
L 451.922911 145.133106 
L 452.98861 144.953813 
L 456.185707 145.319897 
L 462.579901 145.372822 
L 463.6456 145.415074 
L 468.974095 145.415006 
L 470.039794 145.065984 
L 474.30259 145.065187 
L 477.499687 144.638406 
L 478.565386 144.706132 
L 484.95958 144.607034 
L 486.025279 144.512569 
L 497.747968 144.733941 
L 498.813667 144.575711 
L 500.945065 144.595163 
L 505.207861 144.557519 
L 511.602055 144.083114 
L 512.667754 143.811111 
L 515.864852 143.899064 
L 522.259046 143.483804 
L 528.65324 143.425064 
L 529.718939 143.69095 
L 541.441628 143.716315 
L 541.441628 143.716315 
" clip-path="url(#p3afba7271e)" style="fill: none; stroke: #ff7f0e; stroke-width: 1.5; stroke-linecap: square"/>
   </g>
   <g id="line2d_21">
    <path d="M 332.564622 155.376 
L 333.630321 143.817817 
L 340.024515 143.821827 
L 341.090214 143.59407 
L 342.155913 143.606484 
L 344.287311 143.784648 
L 347.484408 143.805391 
L 348.550107 143.538732 
L 350.681505 143.428211 
L 351.747204 143.527321 
L 362.404195 143.644036 
L 365.601292 143.491735 
L 366.666991 143.368604 
L 370.929787 143.537317 
L 374.126884 143.529953 
L 381.586777 143.558744 
L 386.915272 143.55736 
L 387.980971 143.67125 
L 399.70366 143.542171 
L 400.769359 143.779281 
L 402.900757 143.792274 
L 403.966456 143.744902 
L 411.426349 143.928132 
L 415.689145 143.848767 
L 416.754844 143.570074 
L 418.886242 143.356099 
L 423.149038 143.175906 
L 424.214737 142.929935 
L 426.346135 142.943025 
L 429.543232 142.623618 
L 430.608931 142.662602 
L 431.67463 143.073374 
L 437.003125 143.244778 
L 438.068824 143.529139 
L 439.134523 143.624814 
L 440.200222 144.138775 
L 446.594416 144.221085 
L 452.98861 144.127789 
L 454.054309 144.195226 
L 456.185707 144.065313 
L 463.6456 144.082181 
L 474.30259 144.303711 
L 475.368289 144.2369 
L 476.433988 144.515535 
L 478.565386 144.506845 
L 483.893881 144.505354 
L 486.025279 144.53549 
L 496.682269 144.750395 
L 506.27356 144.669856 
L 507.339259 144.776394 
L 508.404958 144.644809 
L 512.667754 144.832706 
L 515.864852 144.598794 
L 521.193347 144.40642 
L 522.259046 144.557482 
L 527.587541 144.606058 
L 528.65324 144.699364 
L 529.718939 144.660086 
L 541.441628 144.636226 
L 541.441628 144.636226 
" clip-path="url(#p3afba7271e)" style="fill: none; stroke: #2ca02c; stroke-width: 1.5; stroke-linecap: square"/>
   </g>
   <g id="line2d_22">
    <path d="M 332.564622 155.376 
L 333.630321 143.730646 
L 336.827418 143.673149 
L 340.024515 143.757564 
L 342.155913 143.394782 
L 343.221612 143.472803 
L 347.484408 143.391354 
L 348.550107 143.529755 
L 349.615806 143.978997 
L 350.681505 143.868152 
L 356.01 143.890185 
L 357.075699 143.848336 
L 359.207097 143.905842 
L 365.601292 143.946927 
L 366.666991 144.071603 
L 387.980971 143.849721 
L 414.623446 143.783149 
L 416.754844 143.722228 
L 423.149038 144.138671 
L 425.280436 144.029755 
L 431.67463 144.008279 
L 433.806028 143.974511 
L 437.003125 144.023682 
L 438.068824 144.188408 
L 439.134523 143.995853 
L 440.200222 143.357219 
L 441.265921 143.246753 
L 446.594416 143.128367 
L 448.725814 143.145766 
L 451.922911 143.216134 
L 452.98861 143.707446 
L 454.054309 143.522197 
L 456.185707 143.459611 
L 459.382804 143.455021 
L 461.514202 143.27709 
L 463.6456 143.407927 
L 467.908396 143.437601 
L 468.974095 143.552894 
L 470.039794 143.26503 
L 471.105493 143.310182 
L 475.368289 143.257429 
L 477.499687 143.123368 
L 478.565386 143.228838 
L 486.025279 143.183763 
L 492.419473 143.580698 
L 493.485172 143.41771 
L 505.207861 143.450897 
L 508.404958 143.712152 
L 512.667754 143.58452 
L 513.733453 143.433015 
L 520.127648 143.34477 
L 521.193347 142.898948 
L 523.324745 143.085117 
L 528.65324 143.032279 
L 529.718939 143.297248 
L 541.441628 143.310237 
L 541.441628 143.310237 
" clip-path="url(#p3afba7271e)" style="fill: none; stroke: #d62728; stroke-width: 1.5; stroke-linecap: square"/>
   </g>
   <g id="line2d_23">
    <path d="M 332.564622 155.376 
L 333.630321 143.588233 
L 340.024515 143.7291 
L 341.090214 143.573572 
L 350.681505 143.76587 
L 357.075699 143.748171 
L 359.207097 143.747656 
L 379.455379 143.576624 
L 381.586777 143.508841 
L 387.980971 143.521739 
L 400.769359 143.520986 
L 402.900757 143.453702 
L 409.294951 143.641992 
L 410.36065 143.442122 
L 411.426349 143.641342 
L 429.543232 143.651698 
L 430.608931 143.579407 
L 431.67463 143.191895 
L 437.003125 143.169067 
L 438.068824 143.29362 
L 439.134523 143.241616 
L 440.200222 143.011733 
L 441.265921 142.945203 
L 444.463018 142.910635 
L 445.528717 142.638867 
L 448.725814 142.739561 
L 452.98861 142.893333 
L 454.054309 142.640528 
L 455.120008 142.824589 
L 462.579901 142.83765 
L 466.842697 142.792143 
L 468.974095 142.937759 
L 470.039794 142.715487 
L 471.105493 142.796085 
L 482.828182 142.923012 
L 484.95958 143.042602 
L 519.061949 142.912645 
L 520.127648 142.844864 
L 521.193347 143.08856 
L 523.324745 143.164371 
L 527.587541 143.135343 
L 528.65324 142.851034 
L 529.718939 142.889372 
L 541.441628 142.923336 
L 541.441628 142.923336 
" clip-path="url(#p3afba7271e)" style="fill: none; stroke: #9467bd; stroke-width: 1.5; stroke-linecap: square"/>
   </g>
   <g id="line2d_24">
    <path d="M 332.564622 155.376 
L 333.630321 143.968909 
L 380.521078 144.281286 
L 387.980971 144.21586 
L 409.294951 144.065309 
L 411.426349 144.026835 
L 422.083339 143.826779 
L 423.149038 143.993996 
L 426.346135 144.048455 
L 438.068824 144.075094 
L 440.200222 144.788828 
L 444.463018 144.828809 
L 445.528717 145.038154 
L 447.660115 144.980753 
L 448.725814 145.010223 
L 452.98861 144.997033 
L 454.054309 145.094604 
L 455.120008 145.007797 
L 459.382804 145.029234 
L 461.514202 144.996044 
L 505.207861 145.428391 
L 506.27356 145.573348 
L 507.339259 145.374686 
L 508.404958 145.541474 
L 512.667754 145.606075 
L 513.733453 145.779599 
L 514.799153 145.781345 
L 515.864852 145.483033 
L 521.193347 145.667369 
L 522.259046 145.836903 
L 523.324745 145.889735 
L 526.521842 145.884579 
L 527.587541 146.006606 
L 528.65324 145.973331 
L 529.718939 146.191356 
L 541.441628 146.176513 
L 541.441628 146.176513 
" clip-path="url(#p3afba7271e)" style="fill: none; stroke: #8c564b; stroke-width: 1.5; stroke-linecap: square"/>
   </g>
   <g id="line2d_25">
    <path d="M 332.564622 155.376 
L 333.630321 137.902924 
L 334.69602 137.665345 
L 336.827418 137.639894 
L 340.024515 137.655012 
L 341.090214 138.21114 
L 342.155913 138.265421 
L 344.287311 138.094063 
L 347.484408 137.935276 
L 348.550107 138.102929 
L 350.681505 138.068242 
L 351.747204 138.154035 
L 357.075699 138.32221 
L 358.141398 138.426043 
L 359.207097 138.398776 
L 366.666991 138.434886 
L 370.929787 138.741692 
L 371.995486 138.599403 
L 374.126884 138.676581 
L 379.455379 138.650745 
L 380.521078 138.591779 
L 381.586777 138.644108 
L 384.783874 138.668201 
L 385.849573 138.842018 
L 386.915272 138.842068 
L 387.980971 138.723582 
L 399.70366 138.543056 
L 400.769359 138.667783 
L 403.966456 138.618192 
L 407.163553 138.671475 
L 408.229252 138.801651 
L 410.36065 138.620066 
L 411.426349 138.241902 
L 415.689145 138.184921 
L 422.083339 138.213359 
L 426.346135 138.526483 
L 430.608931 138.569865 
L 431.67463 138.792812 
L 432.740329 138.794705 
L 433.806028 138.66188 
L 437.003125 138.679754 
L 438.068824 138.309885 
L 439.134523 138.393237 
L 440.200222 137.274191 
L 441.265921 137.366148 
L 447.660115 137.468013 
L 448.725814 137.394404 
L 454.054309 137.218431 
L 455.120008 137.60252 
L 456.185707 137.478933 
L 459.382804 137.470381 
L 462.579901 137.879422 
L 463.6456 137.825907 
L 468.974095 137.876502 
L 470.039794 138.021887 
L 475.368289 138.186301 
L 476.433988 138.395162 
L 484.95958 138.455999 
L 486.025279 138.600408 
L 491.353774 138.810043 
L 492.419473 138.947049 
L 497.747968 138.940011 
L 498.813667 138.969169 
L 499.879366 138.684706 
L 500.945065 138.78273 
L 506.27356 138.682159 
L 507.339259 138.459028 
L 508.404958 138.561878 
L 512.667754 138.797775 
L 513.733453 138.158986 
L 514.799153 138.198764 
L 515.864852 137.816971 
L 523.324745 138.19045 
L 526.521842 138.193504 
L 528.65324 138.469327 
L 529.718939 139.11922 
L 541.441628 139.145439 
L 541.441628 139.145439 
" clip-path="url(#p3afba7271e)" style="fill: none; stroke: #e377c2; stroke-width: 1.5; stroke-linecap: square"/>
   </g>
   <g id="line2d_26">
    <path d="M 332.564622 155.376 
L 333.630321 128.157738 
L 334.69602 128.282641 
L 336.827418 128.134162 
L 340.024515 128.049098 
L 341.090214 128.277924 
L 344.287311 128.32767 
L 351.747204 127.905258 
L 356.01 127.906354 
L 358.141398 127.642202 
L 359.207097 127.827879 
L 363.469894 127.862616 
L 364.535593 127.559554 
L 365.601292 127.408423 
L 366.666991 127.531671 
L 370.929787 127.19863 
L 371.995486 127.323368 
L 373.061185 127.314903 
L 374.126884 127.162813 
L 384.783874 127.534469 
L 385.849573 127.3958 
L 387.980971 127.400988 
L 403.966456 127.655886 
L 408.229252 127.404042 
L 409.294951 127.309699 
L 410.36065 127.879912 
L 411.426349 127.823989 
L 415.689145 128.177554 
L 416.754844 128.645109 
L 417.820543 128.912941 
L 418.886242 128.882174 
L 422.083339 129.012659 
L 423.149038 128.90672 
L 424.214737 129.196021 
L 426.346135 129.089115 
L 430.608931 129.188677 
L 431.67463 128.630696 
L 433.806028 128.636424 
L 439.134523 127.26887 
L 440.200222 128.304435 
L 441.265921 128.339884 
L 444.463018 128.030302 
L 446.594416 128.12477 
L 451.922911 127.980844 
L 452.98861 127.507096 
L 454.054309 127.298262 
L 455.120008 125.972076 
L 459.382804 126.042797 
L 463.6456 125.881452 
L 466.842697 125.870437 
L 467.908396 125.652323 
L 468.974095 125.588259 
L 470.039794 126.390428 
L 471.105493 126.339571 
L 474.30259 126.323823 
L 475.368289 126.633751 
L 477.499687 126.847456 
L 478.565386 126.451378 
L 482.828182 126.32248 
L 483.893881 126.351915 
L 491.353774 125.641016 
L 492.419473 125.022821 
L 493.485172 125.093245 
L 499.879366 125.127425 
L 504.142162 125.274884 
L 505.207861 125.436439 
L 506.27356 125.326752 
L 512.667754 125.737965 
L 513.733453 126.311188 
L 514.799153 126.268677 
L 515.864852 127.049961 
L 520.127648 126.542956 
L 521.193347 126.636649 
L 522.259046 126.588303 
L 523.324745 126.378113 
L 526.521842 126.421209 
L 527.587541 125.816321 
L 528.65324 126.007796 
L 529.718939 125.12971 
L 541.441628 125.114888 
L 541.441628 125.114888 
" clip-path="url(#p3afba7271e)" style="fill: none; stroke: #7f7f7f; stroke-width: 1.5; stroke-linecap: square"/>
   </g>
   <g id="line2d_27">
    <path d="M 332.564622 155.376 
L 333.630321 141.149537 
L 340.024515 141.270266 
L 341.090214 141.074775 
L 344.287311 141.115276 
L 351.747204 141.483642 
L 359.207097 141.322127 
L 379.455379 141.272953 
L 380.521078 141.139467 
L 387.980971 141.166285 
L 402.900757 141.122159 
L 408.229252 141.168109 
L 409.294951 141.052989 
L 411.426349 141.115661 
L 426.346135 141.22496 
L 430.608931 141.277964 
L 431.67463 141.556238 
L 437.003125 141.704159 
L 439.134523 141.984909 
L 440.200222 142.472978 
L 441.265921 142.421951 
L 451.922911 142.646239 
L 455.120008 142.967646 
L 460.448503 142.918467 
L 468.974095 142.788989 
L 470.039794 143.062137 
L 475.368289 143.001784 
L 476.433988 142.792224 
L 478.565386 142.916516 
L 486.025279 142.992863 
L 491.353774 143.015625 
L 497.747968 143.132734 
L 500.945065 143.06847 
L 514.799153 143.121795 
L 521.193347 143.482797 
L 522.259046 143.248705 
L 523.324745 143.370973 
L 527.587541 143.368012 
L 528.65324 143.248772 
L 529.718939 143.275056 
L 541.441628 143.307871 
L 541.441628 143.307871 
" clip-path="url(#p3afba7271e)" style="fill: none; stroke: #bcbd22; stroke-width: 1.5; stroke-linecap: square"/>
   </g>
   <g id="line2d_28">
    <path d="M 332.564622 155.376 
L 333.630321 139.74729 
L 336.827418 139.848253 
L 341.090214 139.832078 
L 343.221612 139.902322 
L 344.287311 139.876009 
L 350.681505 139.864945 
L 351.747204 139.73653 
L 362.404195 139.687671 
L 363.469894 139.687786 
L 364.535593 139.886137 
L 366.666991 139.993735 
L 374.126884 139.945384 
L 380.521078 140.180526 
L 384.783874 140.153234 
L 387.980971 140.158969 
L 400.769359 140.262869 
L 402.900757 140.192028 
L 409.294951 140.364516 
L 410.36065 140.361647 
L 411.426349 140.57206 
L 416.754844 140.683008 
L 417.820543 140.481204 
L 418.886242 140.415822 
L 422.083339 140.390442 
L 423.149038 140.242232 
L 426.346135 140.19021 
L 430.608931 140.181875 
L 431.67463 140.360793 
L 437.003125 140.652123 
L 438.068824 140.921142 
L 439.134523 140.944952 
L 441.265921 141.201178 
L 444.463018 141.230689 
L 446.594416 141.375914 
L 452.98861 141.402408 
L 454.054309 141.580838 
L 455.120008 141.978359 
L 459.382804 142.024232 
L 460.448503 141.865589 
L 462.579901 141.82174 
L 463.6456 141.756282 
L 467.908396 141.711113 
L 468.974095 141.554361 
L 470.039794 141.056523 
L 475.368289 141.004288 
L 476.433988 140.829749 
L 478.565386 140.743413 
L 486.025279 140.700993 
L 496.682269 140.719643 
L 498.813667 140.760033 
L 499.879366 140.838026 
L 500.945065 140.774448 
L 512.667754 141.012356 
L 514.799153 140.897373 
L 515.864852 140.811305 
L 520.127648 141.030193 
L 521.193347 141.284066 
L 523.324745 141.199502 
L 526.521842 141.19734 
L 528.65324 141.499681 
L 529.718939 141.087486 
L 541.441628 141.035665 
L 541.441628 141.035665 
" clip-path="url(#p3afba7271e)" style="fill: none; stroke: #17becf; stroke-width: 1.5; stroke-linecap: square"/>
   </g>
   <g id="line2d_29">
    <path d="M 332.564622 14.256 
L 333.630321 155.376 
L 541.441628 155.376 
L 541.441628 155.376 
" clip-path="url(#p3afba7271e)" style="fill: none; stroke: #1f77b4; stroke-width: 1.5; stroke-linecap: square"/>
   </g>
   <g id="patch_8">
    <path d="M 322.120772 162.432 
L 322.120772 7.2 
" style="fill: none; stroke: #000000; stroke-width: 0.8; stroke-linejoin: miter; stroke-linecap: square"/>
   </g>
   <g id="patch_9">
    <path d="M 551.885478 162.432 
L 551.885478 7.2 
" style="fill: none; stroke: #000000; stroke-width: 0.8; stroke-linejoin: miter; stroke-linecap: square"/>
   </g>
   <g id="patch_10">
    <path d="M 322.120772 162.432 
L 551.885478 162.432 
" style="fill: none; stroke: #000000; stroke-width: 0.8; stroke-linejoin: miter; stroke-linecap: square"/>
   </g>
   <g id="patch_11">
    <path d="M 322.120772 7.2 
L 551.885478 7.2 
" style="fill: none; stroke: #000000; stroke-width: 0.8; stroke-linejoin: miter; stroke-linecap: square"/>
   </g>
   <g id="legend_1">
    <g id="patch_12">
     <path d="M 457.885478 148.60625 
L 544.885478 148.60625 
Q 546.885478 148.60625 546.885478 146.60625 
L 546.885478 14.2 
Q 546.885478 12.2 544.885478 12.2 
L 457.885478 12.2 
Q 455.885478 12.2 455.885478 14.2 
L 455.885478 146.60625 
Q 455.885478 148.60625 457.885478 148.60625 
z
" style="fill: #ffffff; opacity: 0.8; stroke: #cccccc; stroke-linejoin: miter"/>
    </g>
    <g id="line2d_30">
     <path d="M 459.885478 19.73125 
L 469.885478 19.73125 
L 479.885478 19.73125 
" style="fill: none; stroke: #1f77b4; stroke-width: 1.5; stroke-linecap: square"/>
    </g>
    <g id="text_19">
     <!-- w_002027.SZ -->
     <g transform="translate(487.885478 23.23125) scale(0.1 -0.1)">
      <defs>
       <path id="SimHei-77" d="M 3075 2925 
L 2450 75 
L 1975 75 
L 1575 2250 
L 1525 2250 
L 1125 75 
L 650 75 
L 25 2925 
L 550 2925 
L 875 1050 
L 925 1050 
L 1275 2925 
L 1825 2925 
L 2175 1050 
L 2225 1050 
L 2550 2925 
L 3075 2925 
z
" transform="scale(0.015625)"/>
       <path id="SimHei-5f" d="M 3150 -850 
L 0 -850 
L 0 -550 
L 3150 -550 
L 3150 -850 
z
" transform="scale(0.015625)"/>
       <path id="SimHei-37" d="M 850 150 
Q 1300 2050 2425 3925 
L 275 3925 
L 275 4375 
L 2950 4375 
L 2950 3950 
Q 1775 2050 1400 150 
L 850 150 
z
" transform="scale(0.015625)"/>
       <path id="SimHei-5a" d="M 2900 125 
L 225 125 
L 225 600 
L 2250 3925 
L 375 3925 
L 375 4400 
L 2825 4400 
L 2825 3925 
L 800 600 
L 2900 600 
L 2900 125 
z
" transform="scale(0.015625)"/>
      </defs>
      <use xlink:href="#SimHei-77"/>
      <use xlink:href="#SimHei-5f" x="50"/>
      <use xlink:href="#SimHei-30" x="100"/>
      <use xlink:href="#SimHei-30" x="150"/>
      <use xlink:href="#SimHei-32" x="200"/>
      <use xlink:href="#SimHei-30" x="250"/>
      <use xlink:href="#SimHei-32" x="300"/>
      <use xlink:href="#SimHei-37" x="350"/>
      <use xlink:href="#SimHei-2e" x="400"/>
      <use xlink:href="#SimHei-53" x="450"/>
      <use xlink:href="#SimHei-5a" x="500"/>
     </g>
    </g>
    <g id="line2d_31">
     <path d="M 459.885478 33.090625 
L 469.885478 33.090625 
L 479.885478 33.090625 
" style="fill: none; stroke: #ff7f0e; stroke-width: 1.5; stroke-linecap: square"/>
    </g>
    <g id="text_20">
     <!-- w_002371.SZ -->
     <g transform="translate(487.885478 36.590625) scale(0.1 -0.1)">
      <use xlink:href="#SimHei-77"/>
      <use xlink:href="#SimHei-5f" x="50"/>
      <use xlink:href="#SimHei-30" x="100"/>
      <use xlink:href="#SimHei-30" x="150"/>
      <use xlink:href="#SimHei-32" x="200"/>
      <use xlink:href="#SimHei-33" x="250"/>
      <use xlink:href="#SimHei-37" x="300"/>
      <use xlink:href="#SimHei-31" x="350"/>
      <use xlink:href="#SimHei-2e" x="400"/>
      <use xlink:href="#SimHei-53" x="450"/>
      <use xlink:href="#SimHei-5a" x="500"/>
     </g>
    </g>
    <g id="line2d_32">
     <path d="M 459.885478 46.41875 
L 469.885478 46.41875 
L 479.885478 46.41875 
" style="fill: none; stroke: #2ca02c; stroke-width: 1.5; stroke-linecap: square"/>
    </g>
    <g id="text_21">
     <!-- w_600009.SH -->
     <g transform="translate(487.885478 49.91875) scale(0.1 -0.1)">
      <defs>
       <path id="SimHei-48" d="M 2850 125 
L 2275 125 
L 2275 2125 
L 850 2125 
L 850 125 
L 275 125 
L 275 4400 
L 850 4400 
L 850 2600 
L 2275 2600 
L 2275 4400 
L 2850 4400 
L 2850 125 
z
" transform="scale(0.015625)"/>
      </defs>
      <use xlink:href="#SimHei-77"/>
      <use xlink:href="#SimHei-5f" x="50"/>
      <use xlink:href="#SimHei-36" x="100"/>
      <use xlink:href="#SimHei-30" x="150"/>
      <use xlink:href="#SimHei-30" x="200"/>
      <use xlink:href="#SimHei-30" x="250"/>
      <use xlink:href="#SimHei-30" x="300"/>
      <use xlink:href="#SimHei-39" x="350"/>
      <use xlink:href="#SimHei-2e" x="400"/>
      <use xlink:href="#SimHei-53" x="450"/>
      <use xlink:href="#SimHei-48" x="500"/>
     </g>
    </g>
    <g id="line2d_33">
     <path d="M 459.885478 59.778125 
L 469.885478 59.778125 
L 479.885478 59.778125 
" style="fill: none; stroke: #d62728; stroke-width: 1.5; stroke-linecap: square"/>
    </g>
    <g id="text_22">
     <!-- w_600029.SH -->
     <g transform="translate(487.885478 63.278125) scale(0.1 -0.1)">
      <use xlink:href="#SimHei-77"/>
      <use xlink:href="#SimHei-5f" x="50"/>
      <use xlink:href="#SimHei-36" x="100"/>
      <use xlink:href="#SimHei-30" x="150"/>
      <use xlink:href="#SimHei-30" x="200"/>
      <use xlink:href="#SimHei-30" x="250"/>
      <use xlink:href="#SimHei-32" x="300"/>
      <use xlink:href="#SimHei-39" x="350"/>
      <use xlink:href="#SimHei-2e" x="400"/>
      <use xlink:href="#SimHei-53" x="450"/>
      <use xlink:href="#SimHei-48" x="500"/>
     </g>
    </g>
    <g id="line2d_34">
     <path d="M 459.885478 73.1375 
L 469.885478 73.1375 
L 479.885478 73.1375 
" style="fill: none; stroke: #9467bd; stroke-width: 1.5; stroke-linecap: square"/>
    </g>
    <g id="text_23">
     <!-- w_600183.SH -->
     <g transform="translate(487.885478 76.6375) scale(0.1 -0.1)">
      <use xlink:href="#SimHei-77"/>
      <use xlink:href="#SimHei-5f" x="50"/>
      <use xlink:href="#SimHei-36" x="100"/>
      <use xlink:href="#SimHei-30" x="150"/>
      <use xlink:href="#SimHei-30" x="200"/>
      <use xlink:href="#SimHei-31" x="250"/>
      <use xlink:href="#SimHei-38" x="300"/>
      <use xlink:href="#SimHei-33" x="350"/>
      <use xlink:href="#SimHei-2e" x="400"/>
      <use xlink:href="#SimHei-53" x="450"/>
      <use xlink:href="#SimHei-48" x="500"/>
     </g>
    </g>
    <g id="line2d_35">
     <path d="M 459.885478 86.465625 
L 469.885478 86.465625 
L 479.885478 86.465625 
" style="fill: none; stroke: #8c564b; stroke-width: 1.5; stroke-linecap: square"/>
    </g>
    <g id="text_24">
     <!-- w_600406.SH -->
     <g transform="translate(487.885478 89.965625) scale(0.1 -0.1)">
      <use xlink:href="#SimHei-77"/>
      <use xlink:href="#SimHei-5f" x="50"/>
      <use xlink:href="#SimHei-36" x="100"/>
      <use xlink:href="#SimHei-30" x="150"/>
      <use xlink:href="#SimHei-30" x="200"/>
      <use xlink:href="#SimHei-34" x="250"/>
      <use xlink:href="#SimHei-30" x="300"/>
      <use xlink:href="#SimHei-36" x="350"/>
      <use xlink:href="#SimHei-2e" x="400"/>
      <use xlink:href="#SimHei-53" x="450"/>
      <use xlink:href="#SimHei-48" x="500"/>
     </g>
    </g>
    <g id="line2d_36">
     <path d="M 459.885478 99.79375 
L 469.885478 99.79375 
L 479.885478 99.79375 
" style="fill: none; stroke: #e377c2; stroke-width: 1.5; stroke-linecap: square"/>
    </g>
    <g id="text_25">
     <!-- w_600900.SH -->
     <g transform="translate(487.885478 103.29375) scale(0.1 -0.1)">
      <use xlink:href="#SimHei-77"/>
      <use xlink:href="#SimHei-5f" x="50"/>
      <use xlink:href="#SimHei-36" x="100"/>
      <use xlink:href="#SimHei-30" x="150"/>
      <use xlink:href="#SimHei-30" x="200"/>
      <use xlink:href="#SimHei-39" x="250"/>
      <use xlink:href="#SimHei-30" x="300"/>
      <use xlink:href="#SimHei-30" x="350"/>
      <use xlink:href="#SimHei-2e" x="400"/>
      <use xlink:href="#SimHei-53" x="450"/>
      <use xlink:href="#SimHei-48" x="500"/>
     </g>
    </g>
    <g id="line2d_37">
     <path d="M 459.885478 113.121875 
L 469.885478 113.121875 
L 479.885478 113.121875 
" style="fill: none; stroke: #7f7f7f; stroke-width: 1.5; stroke-linecap: square"/>
    </g>
    <g id="text_26">
     <!-- w_601989.SH -->
     <g transform="translate(487.885478 116.621875) scale(0.1 -0.1)">
      <use xlink:href="#SimHei-77"/>
      <use xlink:href="#SimHei-5f" x="50"/>
      <use xlink:href="#SimHei-36" x="100"/>
      <use xlink:href="#SimHei-30" x="150"/>
      <use xlink:href="#SimHei-31" x="200"/>
      <use xlink:href="#SimHei-39" x="250"/>
      <use xlink:href="#SimHei-38" x="300"/>
      <use xlink:href="#SimHei-39" x="350"/>
      <use xlink:href="#SimHei-2e" x="400"/>
      <use xlink:href="#SimHei-53" x="450"/>
      <use xlink:href="#SimHei-48" x="500"/>
     </g>
    </g>
    <g id="line2d_38">
     <path d="M 459.885478 126.45 
L 469.885478 126.45 
L 479.885478 126.45 
" style="fill: none; stroke: #bcbd22; stroke-width: 1.5; stroke-linecap: square"/>
    </g>
    <g id="text_27">
     <!-- w_601998.SH -->
     <g transform="translate(487.885478 129.95) scale(0.1 -0.1)">
      <use xlink:href="#SimHei-77"/>
      <use xlink:href="#SimHei-5f" x="50"/>
      <use xlink:href="#SimHei-36" x="100"/>
      <use xlink:href="#SimHei-30" x="150"/>
      <use xlink:href="#SimHei-31" x="200"/>
      <use xlink:href="#SimHei-39" x="250"/>
      <use xlink:href="#SimHei-39" x="300"/>
      <use xlink:href="#SimHei-38" x="350"/>
      <use xlink:href="#SimHei-2e" x="400"/>
      <use xlink:href="#SimHei-53" x="450"/>
      <use xlink:href="#SimHei-48" x="500"/>
     </g>
    </g>
    <g id="line2d_39">
     <path d="M 459.885478 139.778125 
L 469.885478 139.778125 
L 479.885478 139.778125 
" style="fill: none; stroke: #17becf; stroke-width: 1.5; stroke-linecap: square"/>
    </g>
    <g id="text_28">
     <!-- w_CASH -->
     <g transform="translate(487.885478 143.278125) scale(0.1 -0.1)">
      <defs>
       <path id="SimHei-43" d="M 2975 1825 
Q 2950 875 2575 475 
Q 2200 75 1675 75 
Q 1075 75 650 562 
Q 225 1050 225 2125 
Q 225 3300 637 3875 
Q 1050 4450 1700 4450 
Q 2250 4450 2612 4037 
Q 2975 3625 2950 2875 
L 2400 2875 
Q 2400 3425 2225 3700 
Q 2050 3975 1700 3975 
Q 1300 3975 1062 3562 
Q 825 3150 825 2175 
Q 825 1275 1062 912 
Q 1300 550 1675 550 
Q 1950 550 2175 812 
Q 2400 1075 2400 1825 
L 2975 1825 
z
" transform="scale(0.015625)"/>
       <path id="SimHei-41" d="M 3075 125 
L 2475 125 
L 2125 1450 
L 1025 1450 
L 675 125 
L 75 125 
L 1325 4450 
L 1825 4450 
L 3075 125 
z
M 2000 1925 
L 1600 3450 
L 1550 3450 
L 1150 1925 
L 2000 1925 
z
" transform="scale(0.015625)"/>
      </defs>
      <use xlink:href="#SimHei-77"/>
      <use xlink:href="#SimHei-5f" x="50"/>
      <use xlink:href="#SimHei-43" x="100"/>
      <use xlink:href="#SimHei-41" x="150"/>
      <use xlink:href="#SimHei-53" x="200"/>
      <use xlink:href="#SimHei-48" x="250"/>
     </g>
    </g>
   </g>
  </g>
  <g id="axes_3">
   <g id="patch_13">
    <path d="M 597.838419 162.432 
L 827.603125 162.432 
L 827.603125 7.2 
L 597.838419 7.2 
z
" style="fill: #ffffff"/>
   </g>
   <g id="matplotlib.axis_5">
    <g id="xtick_7">
     <g id="line2d_40">
      <g>
       <use xlink:href="#m3006667fa9" x="654.107327" y="162.432" style="stroke: #000000; stroke-width: 0.8"/>
      </g>
     </g>
     <g id="text_29">
      <!-- 2023-09-20 -->
      <g transform="translate(629.107327 176.307) scale(0.1 -0.1)">
       <use xlink:href="#SimHei-32"/>
       <use xlink:href="#SimHei-30" x="50"/>
       <use xlink:href="#SimHei-32" x="100"/>
       <use xlink:href="#SimHei-33" x="150"/>
       <use xlink:href="#SimHei-2d" x="200"/>
       <use xlink:href="#SimHei-30" x="250"/>
       <use xlink:href="#SimHei-39" x="300"/>
       <use xlink:href="#SimHei-2d" x="350"/>
       <use xlink:href="#SimHei-32" x="400"/>
       <use xlink:href="#SimHei-30" x="450"/>
      </g>
     </g>
    </g>
    <g id="xtick_8">
     <g id="line2d_41">
      <g>
       <use xlink:href="#m3006667fa9" x="718.049267" y="162.432" style="stroke: #000000; stroke-width: 0.8"/>
      </g>
     </g>
     <g id="text_30">
      <!-- 2023-11-19 -->
      <g transform="translate(693.049267 176.307) scale(0.1 -0.1)">
       <use xlink:href="#SimHei-32"/>
       <use xlink:href="#SimHei-30" x="50"/>
       <use xlink:href="#SimHei-32" x="100"/>
       <use xlink:href="#SimHei-33" x="150"/>
       <use xlink:href="#SimHei-2d" x="200"/>
       <use xlink:href="#SimHei-31" x="250"/>
       <use xlink:href="#SimHei-31" x="300"/>
       <use xlink:href="#SimHei-2d" x="350"/>
       <use xlink:href="#SimHei-31" x="400"/>
       <use xlink:href="#SimHei-39" x="450"/>
      </g>
     </g>
    </g>
    <g id="xtick_9">
     <g id="line2d_42">
      <g>
       <use xlink:href="#m3006667fa9" x="781.991208" y="162.432" style="stroke: #000000; stroke-width: 0.8"/>
      </g>
     </g>
     <g id="text_31">
      <!-- 2024-01-18 -->
      <g transform="translate(756.991208 176.307) scale(0.1 -0.1)">
       <use xlink:href="#SimHei-32"/>
       <use xlink:href="#SimHei-30" x="50"/>
       <use xlink:href="#SimHei-32" x="100"/>
       <use xlink:href="#SimHei-34" x="150"/>
       <use xlink:href="#SimHei-2d" x="200"/>
       <use xlink:href="#SimHei-30" x="250"/>
       <use xlink:href="#SimHei-31" x="300"/>
       <use xlink:href="#SimHei-2d" x="350"/>
       <use xlink:href="#SimHei-31" x="400"/>
       <use xlink:href="#SimHei-38" x="450"/>
      </g>
     </g>
    </g>
   </g>
   <g id="matplotlib.axis_6">
    <g id="ytick_12">
     <g id="line2d_43">
      <g>
       <use xlink:href="#m267550eba8" x="597.838419" y="155.376" style="stroke: #000000; stroke-width: 0.8"/>
      </g>
     </g>
     <g id="text_32">
      <!-- 0.0000 -->
      <g transform="translate(560.838419 158.8135) scale(0.1 -0.1)">
       <use xlink:href="#SimHei-30"/>
       <use xlink:href="#SimHei-2e" x="50"/>
       <use xlink:href="#SimHei-30" x="100"/>
       <use xlink:href="#SimHei-30" x="150"/>
       <use xlink:href="#SimHei-30" x="200"/>
       <use xlink:href="#SimHei-30" x="250"/>
      </g>
     </g>
    </g>
    <g id="ytick_13">
     <g id="line2d_44">
      <g>
       <use xlink:href="#m267550eba8" x="597.838419" y="127.152" style="stroke: #000000; stroke-width: 0.8"/>
      </g>
     </g>
     <g id="text_33">
      <!-- 0.0005 -->
      <g transform="translate(560.838419 130.5895) scale(0.1 -0.1)">
       <defs>
        <path id="SimHei-35" d="M 550 1325 
Q 725 650 1150 575 
Q 1575 500 1837 662 
Q 2100 825 2212 1087 
Q 2325 1350 2312 1675 
Q 2300 2000 2137 2225 
Q 1975 2450 1725 2525 
Q 1475 2600 1162 2525 
Q 850 2450 650 2175 
L 225 2225 
Q 275 2375 700 4375 
L 2675 4375 
L 2675 3925 
L 1075 3925 
Q 950 3250 825 2850 
Q 1200 3025 1525 3012 
Q 1850 3000 2150 2862 
Q 2450 2725 2587 2487 
Q 2725 2250 2787 2012 
Q 2850 1775 2837 1500 
Q 2825 1225 2725 937 
Q 2625 650 2425 462 
Q 2225 275 1937 162 
Q 1650 50 1275 75 
Q 900 100 562 350 
Q 225 600 100 1200 
L 550 1325 
z
" transform="scale(0.015625)"/>
       </defs>
       <use xlink:href="#SimHei-30"/>
       <use xlink:href="#SimHei-2e" x="50"/>
       <use xlink:href="#SimHei-30" x="100"/>
       <use xlink:href="#SimHei-30" x="150"/>
       <use xlink:href="#SimHei-30" x="200"/>
       <use xlink:href="#SimHei-35" x="250"/>
      </g>
     </g>
    </g>
    <g id="ytick_14">
     <g id="line2d_45">
      <g>
       <use xlink:href="#m267550eba8" x="597.838419" y="98.928" style="stroke: #000000; stroke-width: 0.8"/>
      </g>
     </g>
     <g id="text_34">
      <!-- 0.0010 -->
      <g transform="translate(560.838419 102.3655) scale(0.1 -0.1)">
       <use xlink:href="#SimHei-30"/>
       <use xlink:href="#SimHei-2e" x="50"/>
       <use xlink:href="#SimHei-30" x="100"/>
       <use xlink:href="#SimHei-30" x="150"/>
       <use xlink:href="#SimHei-31" x="200"/>
       <use xlink:href="#SimHei-30" x="250"/>
      </g>
     </g>
    </g>
    <g id="ytick_15">
     <g id="line2d_46">
      <g>
       <use xlink:href="#m267550eba8" x="597.838419" y="70.704" style="stroke: #000000; stroke-width: 0.8"/>
      </g>
     </g>
     <g id="text_35">
      <!-- 0.0015 -->
      <g transform="translate(560.838419 74.1415) scale(0.1 -0.1)">
       <use xlink:href="#SimHei-30"/>
       <use xlink:href="#SimHei-2e" x="50"/>
       <use xlink:href="#SimHei-30" x="100"/>
       <use xlink:href="#SimHei-30" x="150"/>
       <use xlink:href="#SimHei-31" x="200"/>
       <use xlink:href="#SimHei-35" x="250"/>
      </g>
     </g>
    </g>
    <g id="ytick_16">
     <g id="line2d_47">
      <g>
       <use xlink:href="#m267550eba8" x="597.838419" y="42.48" style="stroke: #000000; stroke-width: 0.8"/>
      </g>
     </g>
     <g id="text_36">
      <!-- 0.0020 -->
      <g transform="translate(560.838419 45.9175) scale(0.1 -0.1)">
       <use xlink:href="#SimHei-30"/>
       <use xlink:href="#SimHei-2e" x="50"/>
       <use xlink:href="#SimHei-30" x="100"/>
       <use xlink:href="#SimHei-30" x="150"/>
       <use xlink:href="#SimHei-32" x="200"/>
       <use xlink:href="#SimHei-30" x="250"/>
      </g>
     </g>
    </g>
    <g id="ytick_17">
     <g id="line2d_48">
      <g>
       <use xlink:href="#m267550eba8" x="597.838419" y="14.256" style="stroke: #000000; stroke-width: 0.8"/>
      </g>
     </g>
     <g id="text_37">
      <!-- 0.0025 -->
      <g transform="translate(560.838419 17.6935) scale(0.1 -0.1)">
       <use xlink:href="#SimHei-30"/>
       <use xlink:href="#SimHei-2e" x="50"/>
       <use xlink:href="#SimHei-30" x="100"/>
       <use xlink:href="#SimHei-30" x="150"/>
       <use xlink:href="#SimHei-32" x="200"/>
       <use xlink:href="#SimHei-35" x="250"/>
      </g>
     </g>
    </g>
   </g>
   <g id="line2d_49">
    <path d="M 608.282269 14.256 
L 609.347968 154.244961 
L 610.413667 153.656821 
L 611.479366 154.451424 
L 614.676463 154.224667 
L 615.742162 152.327985 
L 616.807861 154.327374 
L 618.939259 153.986742 
L 622.136356 153.392344 
L 623.202055 153.605795 
L 624.267754 153.304229 
L 626.399153 154.203768 
L 629.59625 154.115946 
L 630.661949 153.201266 
L 631.727648 153.228886 
L 632.793347 154.430457 
L 633.859046 154.048061 
L 637.056143 153.472724 
L 638.121842 154.263039 
L 639.187541 153.631079 
L 640.25324 153.869981 
L 641.318939 154.400547 
L 644.516036 154.058833 
L 645.581735 154.709658 
L 647.713133 153.582248 
L 648.778832 154.449865 
L 651.975929 154.113313 
L 653.041628 154.362846 
L 654.107327 154.156457 
L 655.173026 154.730578 
L 656.238725 154.156715 
L 659.435822 154.5581 
L 660.501521 154.210567 
L 661.56722 154.354121 
L 662.632919 153.345271 
L 675.421307 153.601812 
L 676.487006 154.00413 
L 677.552705 153.997924 
L 678.618404 153.398342 
L 681.815501 153.852842 
L 682.8812 154.28554 
L 683.946899 154.485854 
L 685.012598 153.594896 
L 686.078297 153.877129 
L 689.275394 153.715837 
L 690.341093 153.529122 
L 691.406792 152.676776 
L 692.472491 153.559694 
L 693.53819 153.12561 
L 696.735287 153.177615 
L 697.800986 154.55039 
L 698.866685 153.696673 
L 699.932384 154.310319 
L 700.998083 153.850558 
L 704.19518 153.664959 
L 705.260879 154.78058 
L 706.326578 153.323223 
L 707.392277 154.562897 
L 708.457976 154.511533 
L 711.655073 153.525332 
L 712.720772 152.754325 
L 713.786471 153.578813 
L 714.85217 150.238943 
L 715.917869 154.367516 
L 719.114966 153.700701 
L 720.180665 154.05653 
L 723.377762 154.550535 
L 726.574859 154.368658 
L 727.640558 153.213794 
L 728.706257 154.111361 
L 729.771956 152.446003 
L 730.837655 153.342656 
L 734.034752 154.16277 
L 735.100451 153.610917 
L 736.16615 154.781211 
L 737.231849 154.082346 
L 741.494645 154.376461 
L 743.626043 153.404176 
L 744.691742 151.703933 
L 745.757441 154.263968 
L 748.954538 153.917042 
L 750.020237 153.584766 
L 751.085936 152.930346 
L 752.151635 153.95464 
L 753.217334 153.681923 
L 756.414431 154.648875 
L 758.545829 153.735608 
L 759.611528 153.166466 
L 760.677227 153.940978 
L 764.940023 154.471944 
L 766.005722 154.176558 
L 767.071421 153.74445 
L 771.334217 154.265029 
L 772.399916 153.783004 
L 773.465615 154.559177 
L 774.531314 153.313231 
L 775.597013 153.767467 
L 778.79411 153.734806 
L 779.859809 153.570805 
L 780.925508 154.592912 
L 781.991208 153.281618 
L 783.056907 153.759418 
L 786.254004 153.256152 
L 787.319703 154.479133 
L 788.385402 152.287464 
L 789.451101 153.457002 
L 790.5168 151.936741 
L 793.713897 152.290608 
L 794.779596 153.331062 
L 795.845295 152.572174 
L 796.910994 153.043298 
L 797.976693 154.012183 
L 801.17379 152.422623 
L 802.239489 151.68595 
L 803.305188 154.390568 
L 804.370887 151.794293 
L 816.093576 153.930526 
L 817.159275 155.376 
L 817.159275 155.376 
" clip-path="url(#p8412f2c240)" style="fill: none; stroke: #1f77b4; stroke-width: 1.5; stroke-linecap: square"/>
   </g>
   <g id="patch_14">
    <path d="M 597.838419 162.432 
L 597.838419 7.2 
" style="fill: none; stroke: #000000; stroke-width: 0.8; stroke-linejoin: miter; stroke-linecap: square"/>
   </g>
   <g id="patch_15">
    <path d="M 827.603125 162.432 
L 827.603125 7.2 
" style="fill: none; stroke: #000000; stroke-width: 0.8; stroke-linejoin: miter; stroke-linecap: square"/>
   </g>
   <g id="patch_16">
    <path d="M 597.838419 162.432 
L 827.603125 162.432 
" style="fill: none; stroke: #000000; stroke-width: 0.8; stroke-linejoin: miter; stroke-linecap: square"/>
   </g>
   <g id="patch_17">
    <path d="M 597.838419 7.2 
L 827.603125 7.2 
" style="fill: none; stroke: #000000; stroke-width: 0.8; stroke-linejoin: miter; stroke-linecap: square"/>
   </g>
  </g>
 </g>
 <defs>
  <clipPath id="p61e1e0b9aa">
   <rect x="46.403125" y="7.2" width="229.764706" height="155.232"/>
  </clipPath>
  <clipPath id="p3afba7271e">
   <rect x="322.120772" y="7.2" width="229.764706" height="155.232"/>
  </clipPath>
  <clipPath id="p8412f2c240">
   <rect x="597.838419" y="7.2" width="229.764706" height="155.232"/>
  </clipPath>
 </defs>
</svg>
