<?xml version="1.0" encoding="utf-8" standalone="no"?>
<!DOCTYPE svg PUBLIC "-//W3C//DTD SVG 1.1//EN"
  "http://www.w3.org/Graphics/SVG/1.1/DTD/svg11.dtd">
<svg xmlns:xlink="http://www.w3.org/1999/xlink" width="834.6pt" height="280.825pt" viewBox="0 0 834.6 280.825" xmlns="http://www.w3.org/2000/svg" version="1.1">
 <metadata>
  <rdf:RDF xmlns:dc="http://purl.org/dc/elements/1.1/" xmlns:cc="http://creativecommons.org/ns#" xmlns:rdf="http://www.w3.org/1999/02/22-rdf-syntax-ns#">
   <cc:Work>
    <dc:type rdf:resource="http://purl.org/dc/dcmitype/StillImage"/>
    <dc:date>2024-12-25T17:32:10.689596</dc:date>
    <dc:format>image/svg+xml</dc:format>
    <dc:creator>
     <cc:Agent>
      <dc:title>Matplotlib v3.9.3, https://matplotlib.org/</dc:title>
     </cc:Agent>
    </dc:creator>
   </cc:Work>
  </rdf:RDF>
 </metadata>
 <defs>
  <style type="text/css">*{stroke-linejoin: round; stroke-linecap: butt}</style>
 </defs>
 <g id="figure_1">
  <g id="patch_1">
   <path d="M 0 280.825 
L 834.6 280.825 
L 834.6 0 
L 0 0 
z
" style="fill: #ffffff"/>
  </g>
  <g id="axes_1">
   <g id="patch_2">
    <path d="M 46.2 252 
L 827.4 252 
L 827.4 7.2 
L 46.2 7.2 
z
" style="fill: #ffffff"/>
   </g>
   <g id="matplotlib.axis_1">
    <g id="xtick_1">
     <g id="line2d_1">
      <defs>
       <path id="mec69c74009" d="M 0 0 
L 0 3.5 
" style="stroke: #000000; stroke-width: 0.8"/>
      </defs>
      <g>
       <use xlink:href="#mec69c74009" x="60.079188" y="252" style="stroke: #000000; stroke-width: 0.8"/>
      </g>
     </g>
     <g id="text_1">
      <!-- 2023-08 -->
      <g transform="translate(42.579188 272.375) scale(0.1 -0.1)">
       <defs>
        <path id="SimHei-32" d="M 300 250 
Q 325 625 650 925 
Q 975 1225 1475 1862 
Q 1975 2500 2125 2850 
Q 2275 3200 2237 3450 
Q 2200 3700 2000 3862 
Q 1800 4025 1537 4000 
Q 1275 3975 1037 3800 
Q 800 3625 675 3275 
L 200 3350 
Q 400 3925 712 4187 
Q 1025 4450 1450 4475 
Q 1700 4500 1900 4462 
Q 2100 4425 2312 4287 
Q 2525 4150 2662 3875 
Q 2800 3600 2762 3212 
Q 2725 2825 2375 2287 
Q 2025 1750 1025 600 
L 2825 600 
L 2825 150 
L 300 150 
L 300 250 
z
" transform="scale(0.015625)"/>
        <path id="SimHei-30" d="M 225 2537 
Q 250 3200 412 3587 
Q 575 3975 875 4225 
Q 1175 4475 1612 4475 
Q 2050 4475 2375 4112 
Q 2700 3750 2800 3200 
Q 2900 2650 2862 1937 
Q 2825 1225 2612 775 
Q 2400 325 1975 150 
Q 1550 -25 1125 187 
Q 700 400 525 750 
Q 350 1100 275 1487 
Q 200 1875 225 2537 
z
M 750 2687 
Q 675 2000 800 1462 
Q 925 925 1212 700 
Q 1500 475 1800 612 
Q 2100 750 2237 1162 
Q 2375 1575 2375 2062 
Q 2375 2550 2337 2950 
Q 2300 3350 2112 3675 
Q 1925 4000 1612 4012 
Q 1300 4025 1062 3700 
Q 825 3375 750 2687 
z
" transform="scale(0.015625)"/>
        <path id="SimHei-33" d="M 250 1225 
L 700 1300 
Q 800 975 1025 762 
Q 1250 550 1587 562 
Q 1925 575 2125 837 
Q 2325 1100 2300 1437 
Q 2275 1775 2037 1962 
Q 1800 2150 1275 2225 
L 1275 2550 
Q 1800 2600 2037 2825 
Q 2275 3050 2250 3412 
Q 2225 3775 1925 3937 
Q 1625 4100 1287 3975 
Q 950 3850 750 3275 
L 300 3350 
Q 450 3800 712 4100 
Q 975 4400 1425 4450 
Q 1875 4500 2212 4337 
Q 2550 4175 2687 3837 
Q 2825 3500 2725 3100 
Q 2625 2700 2150 2400 
Q 2500 2250 2687 1950 
Q 2875 1650 2812 1162 
Q 2750 675 2375 375 
Q 2000 75 1525 87 
Q 1050 100 700 387 
Q 350 675 250 1225 
z
" transform="scale(0.015625)"/>
        <path id="SimHei-2d" d="M 2975 2125 
L 125 2125 
L 125 2525 
L 2975 2525 
L 2975 2125 
z
" transform="scale(0.015625)"/>
        <path id="SimHei-38" d="M 175 1375 
Q 175 1675 325 1962 
Q 475 2250 825 2425 
Q 525 2600 425 2812 
Q 325 3025 312 3300 
Q 300 3575 387 3775 
Q 475 3975 650 4150 
Q 825 4325 1037 4387 
Q 1250 4450 1500 4450 
Q 1750 4450 1950 4400 
Q 2150 4350 2375 4187 
Q 2600 4025 2700 3725 
Q 2800 3425 2687 3025 
Q 2575 2625 2100 2400 
Q 2525 2275 2700 2012 
Q 2875 1750 2875 1375 
Q 2875 1000 2762 775 
Q 2650 550 2512 400 
Q 2375 250 2137 162 
Q 1900 75 1537 75 
Q 1175 75 912 162 
Q 650 250 475 425 
Q 300 600 237 837 
Q 175 1075 175 1375 
z
M 687 1400 
Q 675 1100 787 875 
Q 900 650 1200 587 
Q 1500 525 1825 600 
Q 2150 675 2275 950 
Q 2400 1225 2362 1500 
Q 2325 1775 2050 1962 
Q 1775 2150 1450 2125 
Q 1125 2100 912 1900 
Q 700 1700 687 1400 
z
M 775 3350 
Q 775 3100 950 2875 
Q 1125 2650 1500 2650 
Q 1875 2650 2062 2875 
Q 2250 3100 2237 3412 
Q 2225 3725 2012 3875 
Q 1800 4025 1437 4000 
Q 1075 3975 925 3787 
Q 775 3600 775 3350 
z
" transform="scale(0.015625)"/>
       </defs>
       <use xlink:href="#SimHei-32"/>
       <use xlink:href="#SimHei-30" x="50"/>
       <use xlink:href="#SimHei-32" x="100"/>
       <use xlink:href="#SimHei-33" x="150"/>
       <use xlink:href="#SimHei-2d" x="200"/>
       <use xlink:href="#SimHei-30" x="250"/>
       <use xlink:href="#SimHei-38" x="300"/>
      </g>
     </g>
    </g>
    <g id="xtick_2">
     <g id="line2d_2">
      <g>
       <use xlink:href="#mec69c74009" x="171.833687" y="252" style="stroke: #000000; stroke-width: 0.8"/>
      </g>
     </g>
     <g id="text_2">
      <!-- 2023-09 -->
      <g transform="translate(154.333687 272.375) scale(0.1 -0.1)">
       <defs>
        <path id="SimHei-39" d="M 800 75 
Q 1350 1000 1700 1750 
Q 1075 1650 662 1912 
Q 250 2175 162 2625 
Q 75 3075 175 3437 
Q 275 3800 487 4037 
Q 700 4275 1000 4375 
Q 1300 4475 1537 4475 
Q 1775 4475 2025 4375 
Q 2275 4275 2475 4075 
Q 2675 3875 2750 3662 
Q 2825 3450 2825 3112 
Q 2825 2775 2575 2250 
Q 2325 1725 1350 75 
L 800 75 
z
M 662 2875 
Q 700 2550 937 2337 
Q 1175 2125 1450 2150 
Q 1725 2175 1887 2300 
Q 2050 2425 2200 2725 
Q 2300 3100 2250 3362 
Q 2200 3625 1987 3800 
Q 1775 3975 1525 3975 
Q 1375 4000 1137 3900 
Q 900 3800 762 3500 
Q 625 3200 662 2875 
z
" transform="scale(0.015625)"/>
       </defs>
       <use xlink:href="#SimHei-32"/>
       <use xlink:href="#SimHei-30" x="50"/>
       <use xlink:href="#SimHei-32" x="100"/>
       <use xlink:href="#SimHei-33" x="150"/>
       <use xlink:href="#SimHei-2d" x="200"/>
       <use xlink:href="#SimHei-30" x="250"/>
       <use xlink:href="#SimHei-39" x="300"/>
      </g>
     </g>
    </g>
    <g id="xtick_3">
     <g id="line2d_3">
      <g>
       <use xlink:href="#mec69c74009" x="279.983203" y="252" style="stroke: #000000; stroke-width: 0.8"/>
      </g>
     </g>
     <g id="text_3">
      <!-- 2023-10 -->
      <g transform="translate(262.483203 272.375) scale(0.1 -0.1)">
       <defs>
        <path id="SimHei-31" d="M 1400 3600 
Q 1075 3275 575 2975 
L 575 3450 
Q 1200 3875 1600 4450 
L 1900 4450 
L 1900 150 
L 1400 150 
L 1400 3600 
z
" transform="scale(0.015625)"/>
       </defs>
       <use xlink:href="#SimHei-32"/>
       <use xlink:href="#SimHei-30" x="50"/>
       <use xlink:href="#SimHei-32" x="100"/>
       <use xlink:href="#SimHei-33" x="150"/>
       <use xlink:href="#SimHei-2d" x="200"/>
       <use xlink:href="#SimHei-31" x="250"/>
       <use xlink:href="#SimHei-30" x="300"/>
      </g>
     </g>
    </g>
    <g id="xtick_4">
     <g id="line2d_4">
      <g>
       <use xlink:href="#mec69c74009" x="391.737702" y="252" style="stroke: #000000; stroke-width: 0.8"/>
      </g>
     </g>
     <g id="text_4">
      <!-- 2023-11 -->
      <g transform="translate(374.237702 272.375) scale(0.1 -0.1)">
       <use xlink:href="#SimHei-32"/>
       <use xlink:href="#SimHei-30" x="50"/>
       <use xlink:href="#SimHei-32" x="100"/>
       <use xlink:href="#SimHei-33" x="150"/>
       <use xlink:href="#SimHei-2d" x="200"/>
       <use xlink:href="#SimHei-31" x="250"/>
       <use xlink:href="#SimHei-31" x="300"/>
      </g>
     </g>
    </g>
    <g id="xtick_5">
     <g id="line2d_5">
      <g>
       <use xlink:href="#mec69c74009" x="499.887217" y="252" style="stroke: #000000; stroke-width: 0.8"/>
      </g>
     </g>
     <g id="text_5">
      <!-- 2023-12 -->
      <g transform="translate(482.387217 272.375) scale(0.1 -0.1)">
       <use xlink:href="#SimHei-32"/>
       <use xlink:href="#SimHei-30" x="50"/>
       <use xlink:href="#SimHei-32" x="100"/>
       <use xlink:href="#SimHei-33" x="150"/>
       <use xlink:href="#SimHei-2d" x="200"/>
       <use xlink:href="#SimHei-31" x="250"/>
       <use xlink:href="#SimHei-32" x="300"/>
      </g>
     </g>
    </g>
    <g id="xtick_6">
     <g id="line2d_6">
      <g>
       <use xlink:href="#mec69c74009" x="611.641717" y="252" style="stroke: #000000; stroke-width: 0.8"/>
      </g>
     </g>
     <g id="text_6">
      <!-- 2024-01 -->
      <g transform="translate(594.141717 272.375) scale(0.1 -0.1)">
       <defs>
        <path id="SimHei-34" d="M 2000 1100 
L 75 1100 
L 75 1525 
L 2100 4450 
L 2475 4450 
L 2475 1525 
L 3075 1525 
L 3075 1100 
L 2475 1100 
L 2475 150 
L 2000 150 
L 2000 1100 
z
M 2000 1525 
L 2000 3500 
L 600 1525 
L 2000 1525 
z
" transform="scale(0.015625)"/>
       </defs>
       <use xlink:href="#SimHei-32"/>
       <use xlink:href="#SimHei-30" x="50"/>
       <use xlink:href="#SimHei-32" x="100"/>
       <use xlink:href="#SimHei-34" x="150"/>
       <use xlink:href="#SimHei-2d" x="200"/>
       <use xlink:href="#SimHei-30" x="250"/>
       <use xlink:href="#SimHei-31" x="300"/>
      </g>
     </g>
    </g>
    <g id="xtick_7">
     <g id="line2d_7">
      <g>
       <use xlink:href="#mec69c74009" x="723.396216" y="252" style="stroke: #000000; stroke-width: 0.8"/>
      </g>
     </g>
     <g id="text_7">
      <!-- 2024-02 -->
      <g transform="translate(705.896216 272.375) scale(0.1 -0.1)">
       <use xlink:href="#SimHei-32"/>
       <use xlink:href="#SimHei-30" x="50"/>
       <use xlink:href="#SimHei-32" x="100"/>
       <use xlink:href="#SimHei-34" x="150"/>
       <use xlink:href="#SimHei-2d" x="200"/>
       <use xlink:href="#SimHei-30" x="250"/>
       <use xlink:href="#SimHei-32" x="300"/>
      </g>
     </g>
    </g>
   </g>
   <g id="matplotlib.axis_2">
    <g id="ytick_1">
     <g id="line2d_8">
      <defs>
       <path id="m3e9df66094" d="M 0 0 
L -3.5 0 
" style="stroke: #000000; stroke-width: 0.8"/>
      </defs>
      <g>
       <use xlink:href="#m3e9df66094" x="46.2" y="245.756248" style="stroke: #000000; stroke-width: 0.8"/>
      </g>
     </g>
     <g id="text_8">
      <!-- 0.8 -->
      <g transform="translate(24.2 249.193748) scale(0.1 -0.1)">
       <defs>
        <path id="SimHei-2e" d="M 1075 125 
L 500 125 
L 500 675 
L 1075 675 
L 1075 125 
z
" transform="scale(0.015625)"/>
       </defs>
       <use xlink:href="#SimHei-30"/>
       <use xlink:href="#SimHei-2e" x="50"/>
       <use xlink:href="#SimHei-38" x="100"/>
      </g>
     </g>
    </g>
    <g id="ytick_2">
     <g id="line2d_9">
      <g>
       <use xlink:href="#m3e9df66094" x="46.2" y="209.375816" style="stroke: #000000; stroke-width: 0.8"/>
      </g>
     </g>
     <g id="text_9">
      <!-- 0.9 -->
      <g transform="translate(24.2 212.813316) scale(0.1 -0.1)">
       <use xlink:href="#SimHei-30"/>
       <use xlink:href="#SimHei-2e" x="50"/>
       <use xlink:href="#SimHei-39" x="100"/>
      </g>
     </g>
    </g>
    <g id="ytick_3">
     <g id="line2d_10">
      <g>
       <use xlink:href="#m3e9df66094" x="46.2" y="172.995383" style="stroke: #000000; stroke-width: 0.8"/>
      </g>
     </g>
     <g id="text_10">
      <!-- 1.0 -->
      <g transform="translate(24.2 176.432883) scale(0.1 -0.1)">
       <use xlink:href="#SimHei-31"/>
       <use xlink:href="#SimHei-2e" x="50"/>
       <use xlink:href="#SimHei-30" x="100"/>
      </g>
     </g>
    </g>
    <g id="ytick_4">
     <g id="line2d_11">
      <g>
       <use xlink:href="#m3e9df66094" x="46.2" y="136.61495" style="stroke: #000000; stroke-width: 0.8"/>
      </g>
     </g>
     <g id="text_11">
      <!-- 1.1 -->
      <g transform="translate(24.2 140.05245) scale(0.1 -0.1)">
       <use xlink:href="#SimHei-31"/>
       <use xlink:href="#SimHei-2e" x="50"/>
       <use xlink:href="#SimHei-31" x="100"/>
      </g>
     </g>
    </g>
    <g id="ytick_5">
     <g id="line2d_12">
      <g>
       <use xlink:href="#m3e9df66094" x="46.2" y="100.234517" style="stroke: #000000; stroke-width: 0.8"/>
      </g>
     </g>
     <g id="text_12">
      <!-- 1.2 -->
      <g transform="translate(24.2 103.672017) scale(0.1 -0.1)">
       <use xlink:href="#SimHei-31"/>
       <use xlink:href="#SimHei-2e" x="50"/>
       <use xlink:href="#SimHei-32" x="100"/>
      </g>
     </g>
    </g>
    <g id="ytick_6">
     <g id="line2d_13">
      <g>
       <use xlink:href="#m3e9df66094" x="46.2" y="63.854084" style="stroke: #000000; stroke-width: 0.8"/>
      </g>
     </g>
     <g id="text_13">
      <!-- 1.3 -->
      <g transform="translate(24.2 67.291584) scale(0.1 -0.1)">
       <use xlink:href="#SimHei-31"/>
       <use xlink:href="#SimHei-2e" x="50"/>
       <use xlink:href="#SimHei-33" x="100"/>
      </g>
     </g>
    </g>
    <g id="ytick_7">
     <g id="line2d_14">
      <g>
       <use xlink:href="#m3e9df66094" x="46.2" y="27.473652" style="stroke: #000000; stroke-width: 0.8"/>
      </g>
     </g>
     <g id="text_14">
      <!-- 1.4 -->
      <g transform="translate(24.2 30.911152) scale(0.1 -0.1)">
       <use xlink:href="#SimHei-31"/>
       <use xlink:href="#SimHei-2e" x="50"/>
       <use xlink:href="#SimHei-34" x="100"/>
      </g>
     </g>
    </g>
    <g id="text_15">
     <!-- Stock Portfolio Value -->
     <g transform="translate(18.2 213.6) rotate(-90) scale(0.16 -0.16)">
      <defs>
       <path id="SimHei-53" d="M 2900 1325 
Q 2900 750 2537 412 
Q 2175 75 1550 75 
Q 925 75 575 425 
Q 225 775 225 1300 
L 225 1475 
L 800 1475 
L 800 1325 
Q 800 950 1025 750 
Q 1250 550 1550 550 
Q 1950 550 2137 762 
Q 2325 975 2325 1275 
Q 2325 1525 2100 1737 
Q 1875 1950 1450 2125 
Q 850 2350 587 2625 
Q 325 2900 325 3275 
Q 325 3800 687 4125 
Q 1050 4450 1550 4450 
Q 2200 4450 2487 4062 
Q 2775 3675 2775 3225 
L 2200 3225 
Q 2225 3500 2050 3725 
Q 1875 3950 1550 3950 
Q 1250 3950 1075 3787 
Q 900 3625 900 3350 
Q 900 3125 1037 2962 
Q 1175 2800 1750 2575 
Q 2300 2350 2600 2037 
Q 2900 1725 2900 1325 
z
" transform="scale(0.015625)"/>
       <path id="SimHei-74" d="M 2750 200 
Q 2625 150 2462 112 
Q 2300 75 2025 75 
Q 1575 75 1300 325 
Q 1025 575 1025 1025 
L 1025 2525 
L 175 2525 
L 175 2925 
L 1025 2925 
L 1025 3900 
L 1525 3900 
L 1525 2925 
L 2550 2925 
L 2550 2525 
L 1525 2525 
L 1525 1000 
Q 1525 800 1625 662 
Q 1725 525 2000 525 
Q 2275 525 2450 575 
Q 2625 625 2750 700 
L 2750 200 
z
" transform="scale(0.015625)"/>
       <path id="SimHei-6f" d="M 2925 1525 
Q 2925 875 2525 475 
Q 2125 75 1575 75 
Q 1025 75 625 475 
Q 225 875 225 1525 
Q 225 2175 625 2575 
Q 1025 2975 1575 2975 
Q 2125 2975 2525 2575 
Q 2925 2175 2925 1525 
z
M 2375 1525 
Q 2375 2025 2125 2275 
Q 1875 2525 1575 2525 
Q 1275 2525 1025 2275 
Q 775 2025 775 1525 
Q 775 1025 1025 775 
Q 1275 525 1575 525 
Q 1875 525 2125 775 
Q 2375 1025 2375 1525 
z
" transform="scale(0.015625)"/>
       <path id="SimHei-63" d="M 2850 1250 
Q 2850 725 2487 400 
Q 2125 75 1575 75 
Q 1025 75 625 462 
Q 225 850 225 1525 
Q 225 2200 625 2587 
Q 1025 2975 1575 2975 
Q 2125 2975 2450 2687 
Q 2775 2400 2775 2000 
L 2225 2000 
Q 2200 2300 2012 2412 
Q 1825 2525 1575 2525 
Q 1275 2525 1025 2287 
Q 775 2050 775 1525 
Q 775 1000 1025 762 
Q 1275 525 1575 525 
Q 1900 525 2100 700 
Q 2300 875 2300 1250 
L 2850 1250 
z
" transform="scale(0.015625)"/>
       <path id="SimHei-6b" d="M 2925 125 
L 2350 125 
L 1450 1650 
L 875 1100 
L 875 125 
L 375 125 
L 375 4400 
L 875 4400 
L 875 1675 
L 2125 2925 
L 2750 2925 
L 1775 1975 
L 2925 125 
z
" transform="scale(0.015625)"/>
       <path id="SimHei-20" transform="scale(0.015625)"/>
       <path id="SimHei-50" d="M 2950 3100 
Q 2950 2500 2600 2150 
Q 2250 1800 1625 1800 
L 900 1800 
L 900 125 
L 325 125 
L 325 4400 
L 1625 4400 
Q 2250 4400 2600 4050 
Q 2950 3700 2950 3100 
z
M 2375 3100 
Q 2375 3575 2150 3750 
Q 1925 3925 1475 3925 
L 900 3925 
L 900 2275 
L 1475 2275 
Q 1925 2275 2150 2450 
Q 2375 2625 2375 3100 
z
" transform="scale(0.015625)"/>
       <path id="SimHei-72" d="M 2500 2425 
Q 2025 2500 1700 2287 
Q 1375 2075 1150 1550 
L 1150 125 
L 650 125 
L 650 2925 
L 1150 2925 
L 1150 2200 
Q 1375 2600 1712 2787 
Q 2050 2975 2500 2975 
L 2500 2425 
z
" transform="scale(0.015625)"/>
       <path id="SimHei-66" d="M 2850 3825 
Q 2725 3900 2550 3950 
Q 2375 4000 2100 4000 
Q 1825 4000 1725 3862 
Q 1625 3725 1625 3525 
L 1625 2925 
L 2650 2925 
L 2650 2525 
L 1625 2525 
L 1625 125 
L 1125 125 
L 1125 2525 
L 275 2525 
L 275 2925 
L 1125 2925 
L 1125 3500 
Q 1125 3950 1400 4200 
Q 1675 4450 2125 4450 
Q 2400 4450 2562 4412 
Q 2725 4375 2850 4325 
L 2850 3825 
z
" transform="scale(0.015625)"/>
       <path id="SimHei-6c" d="M 1825 125 
L 1325 125 
L 1325 4400 
L 1825 4400 
L 1825 125 
z
" transform="scale(0.015625)"/>
       <path id="SimHei-69" d="M 1800 3725 
L 1300 3725 
L 1300 4375 
L 1800 4375 
L 1800 3725 
z
M 1800 125 
L 1300 125 
L 1300 2925 
L 1800 2925 
L 1800 125 
z
" transform="scale(0.015625)"/>
       <path id="SimHei-56" d="M 3050 4400 
L 1800 75 
L 1300 75 
L 50 4400 
L 650 4400 
L 1525 1125 
L 1575 1125 
L 2450 4400 
L 3050 4400 
z
" transform="scale(0.015625)"/>
       <path id="SimHei-61" d="M 2875 125 
L 2275 125 
Q 2225 175 2200 262 
Q 2175 350 2175 475 
Q 2000 275 1750 175 
Q 1500 75 1225 75 
Q 825 75 550 275 
Q 275 475 275 850 
Q 275 1225 525 1450 
Q 775 1675 1300 1750 
Q 1650 1800 1912 1875 
Q 2175 1950 2175 2075 
Q 2175 2225 2062 2375 
Q 1950 2525 1575 2525 
Q 1275 2525 1137 2412 
Q 1000 2300 950 2100 
L 400 2100 
Q 450 2500 762 2737 
Q 1075 2975 1575 2975 
Q 2125 2975 2400 2725 
Q 2675 2475 2675 2025 
L 2675 650 
Q 2675 500 2725 375 
Q 2775 250 2875 125 
z
M 2175 1050 
L 2175 1550 
Q 2025 1500 1887 1462 
Q 1750 1425 1425 1375 
Q 1050 1325 937 1200 
Q 825 1075 825 900 
Q 825 750 937 637 
Q 1050 525 1275 525 
Q 1500 525 1762 650 
Q 2025 775 2175 1050 
z
" transform="scale(0.015625)"/>
       <path id="SimHei-75" d="M 2800 125 
L 2300 125 
L 2300 650 
Q 2100 375 1862 225 
Q 1625 75 1250 75 
Q 800 75 575 325 
Q 350 575 350 950 
L 350 2925 
L 850 2925 
L 850 1125 
Q 850 825 1000 650 
Q 1150 475 1400 475 
Q 1725 475 2012 812 
Q 2300 1150 2300 1650 
L 2300 2925 
L 2800 2925 
L 2800 125 
z
" transform="scale(0.015625)"/>
       <path id="SimHei-65" d="M 2850 1075 
Q 2800 625 2450 350 
Q 2100 75 1625 75 
Q 1025 75 637 462 
Q 250 850 250 1525 
Q 250 2200 637 2587 
Q 1025 2975 1625 2975 
Q 2150 2975 2487 2637 
Q 2825 2300 2825 1525 
L 800 1525 
Q 800 975 1037 750 
Q 1275 525 1625 525 
Q 1900 525 2075 662 
Q 2250 800 2300 1075 
L 2850 1075 
z
M 2250 1925 
Q 2200 2275 2025 2412 
Q 1850 2550 1575 2550 
Q 1325 2550 1125 2412 
Q 925 2275 825 1925 
L 2250 1925 
z
" transform="scale(0.015625)"/>
      </defs>
      <use xlink:href="#SimHei-53"/>
      <use xlink:href="#SimHei-74" x="50"/>
      <use xlink:href="#SimHei-6f" x="100"/>
      <use xlink:href="#SimHei-63" x="150"/>
      <use xlink:href="#SimHei-6b" x="200"/>
      <use xlink:href="#SimHei-20" x="250"/>
      <use xlink:href="#SimHei-50" x="300"/>
      <use xlink:href="#SimHei-6f" x="350"/>
      <use xlink:href="#SimHei-72" x="400"/>
      <use xlink:href="#SimHei-74" x="450"/>
      <use xlink:href="#SimHei-66" x="500"/>
      <use xlink:href="#SimHei-6f" x="550"/>
      <use xlink:href="#SimHei-6c" x="600"/>
      <use xlink:href="#SimHei-69" x="650"/>
      <use xlink:href="#SimHei-6f" x="700"/>
      <use xlink:href="#SimHei-20" x="750"/>
      <use xlink:href="#SimHei-56" x="800"/>
      <use xlink:href="#SimHei-61" x="850"/>
      <use xlink:href="#SimHei-6c" x="900"/>
      <use xlink:href="#SimHei-75" x="950"/>
      <use xlink:href="#SimHei-65" x="1000"/>
     </g>
    </g>
   </g>
   <g id="line2d_15">
    <path d="M 81.709091 172.995383 
L 791.890909 172.995383 
L 791.890909 172.995383 
" clip-path="url(#p86436b1957)" style="fill: none; stroke-dasharray: 9.6,2.4,1.5,2.4; stroke-dashoffset: 0; stroke: #1f77b4; stroke-opacity: 0.85; stroke-width: 1.5"/>
   </g>
   <g id="line2d_16">
    <path d="M 81.709091 175.479551 
L 85.314075 177.963684 
L 88.919059 178.237796 
L 92.524042 146.495014 
L 96.129026 147.876987 
L 106.943978 147.03466 
L 110.548962 149.8386 
L 114.153946 147.594314 
L 117.758929 142.54893 
L 121.363913 139.745008 
L 132.178865 141.426807 
L 135.783849 140.864285 
L 139.388832 138.902687 
L 142.993816 140.584472 
L 146.5988 140.304666 
L 157.413752 139.182527 
L 161.018736 143.950933 
L 164.623719 143.671116 
L 168.228703 132.172657 
L 171.833687 133.854453 
L 182.648639 127.966778 
L 186.253623 122.358891 
L 189.858606 121.516582 
L 193.46359 129.088935 
L 197.068574 118.432844 
L 207.883526 119.554991 
L 211.488509 116.471195 
L 215.093493 108.619017 
L 218.698477 113.667258 
L 222.303461 118.995349 
L 233.118413 147.034749 
L 236.723396 141.986525 
L 240.32838 143.671184 
L 243.933364 141.426886 
L 247.538348 144.510646 
L 258.353299 146.475106 
L 261.958283 145.073147 
L 265.563267 142.54901 
L 269.168251 144.510627 
L 308.823073 152.082969 
L 312.428057 153.764791 
L 316.033041 156.848551 
L 319.638025 156.568726 
L 323.243009 161.054451 
L 334.05796 159.372679 
L 337.662944 159.092868 
L 341.267928 151.800341 
L 344.872912 153.484958 
L 348.477896 153.764815 
L 359.292847 157.690889 
L 362.897831 154.044649 
L 366.502815 147.594407 
L 370.107799 143.950999 
L 373.712783 140.8644 
L 384.527734 140.024916 
L 388.132718 144.790456 
L 391.737702 141.426889 
L 395.342686 143.388504 
L 398.94767 141.42689 
L 409.762621 131.892912 
L 413.367605 128.24665 
L 416.972589 117.310709 
L 420.577573 124.040724 
L 424.182557 127.407162 
L 434.997508 135.818988 
L 438.602492 143.388481 
L 442.207476 141.706709 
L 445.81246 124.603219 
L 449.417443 113.667291 
L 460.232395 111.702804 
L 463.837379 115.628888 
L 467.442363 118.153019 
L 471.047347 122.638746 
L 474.65233 115.349044 
L 485.467282 117.310673 
L 489.072266 113.384574 
L 492.67725 104.972761 
L 496.282234 103.011148 
L 499.887217 96.001275 
L 510.702169 94.3195 
L 514.307153 80.296932 
L 517.912137 83.10089 
L 521.51712 75.81119 
L 525.122104 80.29693 
L 535.937056 67.119551 
L 539.54204 69.081141 
L 543.147024 88.991444 
L 546.752007 63.473294 
L 550.356991 78.894983 
L 561.171943 81.981604 
L 564.776927 77.493067 
L 568.38191 76.091046 
L 571.986894 72.72748 
L 575.591878 71.325461 
L 586.40683 78.894973 
L 590.011814 91.232887 
L 593.616797 89.551084 
L 597.221781 76.653524 
L 600.826765 76.370808 
L 615.246701 72.727383 
L 618.851684 81.698853 
L 622.456668 84.222966 
L 626.061652 87.589395 
L 636.876604 86.747053 
L 640.481587 80.579504 
L 644.086571 73.849493 
L 647.691555 85.904697 
L 651.296539 79.457333 
L 662.111491 68.801178 
L 665.716474 55.341114 
L 669.321458 38.237659 
L 672.926442 38.51747 
L 676.531426 39.077106 
L 687.346377 45.527273 
L 690.951361 44.685002 
L 694.556345 34.87117 
L 698.161329 34.87117 
L 701.766313 21.131304 
L 712.581264 27.581486 
L 716.186248 18.327292 
L 719.791232 21.131278 
L 723.396216 18.327273 
L 727.0012 27.58144 
L 737.816151 45.247417 
L 741.421135 37.954887 
L 745.026119 44.967585 
L 748.631103 41.601171 
L 788.285925 39.359716 
L 791.890909 49.173541 
L 791.890909 49.173541 
" clip-path="url(#p86436b1957)" style="fill: none; stroke-dasharray: 9.6,2.4,1.5,2.4; stroke-dashoffset: 0; stroke: #ff7f0e; stroke-opacity: 0.85; stroke-width: 1.5"/>
   </g>
   <g id="line2d_17">
    <path d="M 81.709091 179.359936 
L 85.314075 177.238419 
L 88.919059 177.767392 
L 92.524042 179.888902 
L 96.129026 177.767419 
L 106.943978 167.159786 
L 110.548962 167.688736 
L 114.153946 169.810266 
L 117.758929 168.752339 
L 121.363913 169.810267 
L 132.178865 171.931787 
L 135.783849 166.630799 
L 139.388832 168.217692 
L 142.993816 167.159788 
L 146.5988 171.402826 
L 157.413752 170.873892 
L 161.018736 177.767417 
L 164.623719 180.946856 
L 168.228703 179.88892 
L 171.833687 180.946874 
L 182.648639 184.660957 
L 186.253623 181.475818 
L 189.858606 182.01046 
L 193.46359 178.825328 
L 197.068574 179.359967 
L 207.883526 181.475795 
L 211.488509 184.131975 
L 215.093493 182.53941 
L 218.698477 185.718864 
L 233.118413 202.691051 
L 236.723396 207.997688 
L 240.32838 215.420165 
L 243.933364 217.541699 
L 247.538348 211.177135 
L 258.353299 214.891226 
L 261.958283 210.648159 
L 265.563267 201.098459 
L 269.168251 204.812555 
L 308.823073 206.405131 
L 312.428057 206.934067 
L 316.033041 212.23505 
L 319.638025 209.055607 
L 323.243009 214.891221 
L 334.05796 211.177147 
L 337.662944 221.784771 
L 341.267928 216.478086 
L 344.872912 212.769681 
L 348.477896 218.599597 
L 359.292847 205.341499 
L 362.897831 201.633095 
L 366.502815 211.1771 
L 370.107799 206.934026 
L 373.712783 210.119174 
L 384.527734 208.526624 
L 388.132718 203.219966 
L 391.737702 208.526633 
L 395.342686 212.76967 
L 398.94767 211.177101 
L 409.762621 219.663191 
L 413.367605 221.255752 
L 416.972589 227.08567 
L 420.577573 234.513838 
L 424.182557 228.678212 
L 434.997508 230.799736 
L 438.602492 240.872727 
L 442.207476 234.513827 
L 445.81246 222.313649 
L 449.417443 222.842628 
L 460.232395 227.085663 
L 463.837379 230.270801 
L 467.442363 235.042812 
L 471.047347 237.164346 
L 474.65233 235.571765 
L 485.467282 236.100743 
L 489.072266 236.100743 
L 492.67725 221.784738 
L 496.282234 219.663198 
L 499.887217 218.070636 
L 510.702169 206.405078 
L 514.307153 206.405078 
L 517.912137 204.812501 
L 521.51712 202.690992 
L 525.122104 194.739558 
L 535.937056 201.633091 
L 539.54204 200.040526 
L 543.147024 207.997671 
L 546.752007 202.691008 
L 550.356991 202.162041 
L 561.171943 198.97691 
L 564.776927 200.040504 
L 568.38191 204.812499 
L 571.986894 207.997652 
L 575.591878 207.463015 
L 586.40683 204.283583 
L 590.011814 192.61806 
L 593.616797 197.919029 
L 597.221781 197.919029 
L 600.826765 197.390061 
L 615.246701 185.718865 
L 618.851684 198.976961 
L 622.456668 184.13196 
L 626.061652 180.417866 
L 636.876604 179.888897 
L 640.481587 185.189881 
L 644.086571 186.253499 
L 647.691555 194.739588 
L 651.296539 192.083431 
L 662.111491 191.025523 
L 665.716474 180.946862 
L 669.321458 180.946862 
L 672.926442 174.053328 
L 676.531426 169.810264 
L 687.346377 166.630838 
L 690.951361 166.101881 
L 694.556345 163.445715 
L 698.161329 169.810276 
L 701.766313 165.038272 
L 712.581264 166.63084 
L 716.186248 162.387798 
L 719.791232 165.567235 
L 723.396216 168.217717 
L 727.0012 166.630837 
L 737.816151 170.873902 
L 741.421135 165.567272 
L 745.026119 166.101908 
L 748.631103 173.524386 
L 788.285925 165.038313 
L 791.890909 192.083479 
L 791.890909 192.083479 
" clip-path="url(#p86436b1957)" style="fill: none; stroke-dasharray: 9.6,2.4,1.5,2.4; stroke-dashoffset: 0; stroke: #2ca02c; stroke-opacity: 0.85; stroke-width: 1.5"/>
   </g>
   <g id="line2d_18">
    <path d="M 81.709091 178.068064 
L 85.314075 185.759174 
L 88.919059 163.463774 
L 92.524042 165.693368 
L 96.129026 163.718171 
L 106.943978 160.037171 
L 110.548962 151.044257 
L 114.153946 153.737635 
L 117.758929 159.049565 
L 121.363913 162.416332 
L 132.178865 152.181384 
L 135.783849 149.637668 
L 139.388832 153.213811 
L 142.993816 147.797173 
L 146.5988 152.166341 
L 157.413752 153.722599 
L 161.018736 152.046644 
L 164.623719 152.196374 
L 168.228703 157.029518 
L 171.833687 165.708209 
L 182.648639 167.20461 
L 186.253623 174.222355 
L 189.858606 176.870905 
L 193.46359 184.26277 
L 197.068574 179.773881 
L 207.883526 184.038388 
L 211.488509 176.990653 
L 215.093493 177.245049 
L 218.698477 183.63444 
L 222.303461 185.834048 
L 233.118413 188.392736 
L 236.723396 193.525136 
L 240.32838 201.695179 
L 243.933364 203.116713 
L 247.538348 212.812887 
L 258.353299 204.268875 
L 261.958283 195.634998 
L 269.168251 197.565204 
L 308.823073 198.702495 
L 312.428057 200.124049 
L 316.033041 206.0195 
L 319.638025 193.98905 
L 323.243009 193.689827 
L 334.05796 183.724124 
L 337.662944 191.14596 
L 341.267928 192.402985 
L 344.872912 199.390883 
L 348.477896 179.77388 
L 359.292847 169.299498 
L 362.897831 169.134818 
L 366.502815 177.230004 
L 370.107799 176.960775 
L 373.712783 183.290165 
L 384.527734 186.462523 
L 388.132718 198.358298 
L 391.737702 195.515322 
L 395.342686 197.430676 
L 398.94767 188.751825 
L 409.762621 189.649722 
L 413.367605 189.664578 
L 416.972589 171.67867 
L 420.577573 174.237358 
L 424.182557 154.081726 
L 434.997508 161.6681 
L 438.602492 162.416318 
L 442.207476 162.73058 
L 449.417443 156.416035 
L 460.232395 166.456452 
L 463.837379 175.135158 
L 467.442363 193.615015 
L 471.047347 195.994142 
L 474.65233 184.262797 
L 485.467282 190.547506 
L 489.072266 176.257465 
L 492.67725 161.21937 
L 496.282234 164.047324 
L 499.887217 162.266658 
L 510.702169 149.996812 
L 514.307153 155.084345 
L 517.912137 147.004151 
L 521.51712 143.188446 
L 525.122104 145.268339 
L 535.937056 149.951953 
L 539.54204 135.482368 
L 543.147024 145.612457 
L 546.752007 111.750398 
L 550.356991 99.645123 
L 561.171943 99.615158 
L 564.776927 101.186391 
L 568.38191 101.365936 
L 571.986894 100.961886 
L 575.591878 85.100732 
L 586.40683 82.377434 
L 590.011814 90.27811 
L 593.616797 99.121317 
L 597.221781 103.191436 
L 600.826765 104.313603 
L 615.246701 90.801763 
L 618.851684 95.260782 
L 622.456668 93.585024 
L 626.061652 86.25291 
L 636.876604 69.179723 
L 640.481587 62.760449 
L 644.086571 71.618712 
L 647.691555 75.105182 
L 651.296539 77.88844 
L 662.111491 79.51935 
L 665.716474 75.928204 
L 669.321458 89.99371 
L 672.926442 91.370383 
L 676.531426 87.629536 
L 687.346377 89.290483 
L 690.951361 100.946832 
L 694.556345 101.710013 
L 698.161329 102.862207 
L 701.766313 68.416491 
L 712.581264 74.386911 
L 716.186248 71.813232 
L 719.791232 80.087983 
L 723.396216 90.173214 
L 727.0012 91.011297 
L 737.816151 83.619281 
L 741.421135 80.417211 
L 745.026119 78.412005 
L 748.631103 67.458874 
L 788.285925 53.483064 
L 791.890909 59.46837 
L 791.890909 59.46837 
" clip-path="url(#p86436b1957)" style="fill: none; stroke-dasharray: 9.6,2.4,1.5,2.4; stroke-dashoffset: 0; stroke: #d62728; stroke-opacity: 0.85; stroke-width: 1.5"/>
   </g>
   <g id="line2d_19">
    <path d="M 81.709091 175.47825 
L 85.314075 178.996356 
L 88.919059 172.064312 
L 92.524042 167.615106 
L 96.129026 165.338413 
L 106.943978 157.57841 
L 110.548962 149.506934 
L 114.153946 151.783615 
L 117.758929 153.025073 
L 121.363913 156.853529 
L 132.178865 151.162902 
L 135.783849 146.920974 
L 139.388832 149.611119 
L 142.993816 151.265991 
L 146.5988 151.783629 
L 157.413752 153.025087 
L 161.018736 151.99092 
L 164.623719 151.370169 
L 168.228703 150.231838 
L 171.833687 153.749936 
L 182.648639 154.060308 
L 186.253623 149.093497 
L 189.858606 147.437546 
L 193.46359 153.232323 
L 197.068574 152.611609 
L 207.883526 156.957708 
L 211.488509 158.819854 
L 215.093493 157.78463 
L 218.698477 163.682501 
L 222.303461 165.545727 
L 233.118413 164.717769 
L 236.723396 166.166446 
L 240.32838 177.23734 
L 243.933364 179.617125 
L 247.538348 185.101533 
L 258.353299 179.824346 
L 261.958283 180.859619 
L 265.563267 183.963176 
L 269.168251 194.517515 
L 308.823073 198.035609 
L 312.428057 196.482811 
L 316.033041 204.554244 
L 319.638025 203.519003 
L 323.243009 208.588928 
L 334.05796 204.554239 
L 337.662944 202.692089 
L 341.267928 200.622667 
L 344.872912 204.967705 
L 348.477896 211.486299 
L 359.292847 196.897275 
L 362.897831 197.621096 
L 366.502815 203.829337 
L 370.107799 204.139698 
L 373.712783 209.106494 
L 384.527734 211.383148 
L 388.132718 217.177921 
L 391.737702 211.590393 
L 395.342686 211.38314 
L 398.94767 209.106475 
L 409.762621 208.278512 
L 413.367605 198.449085 
L 416.972589 192.655352 
L 420.577573 201.1392 
L 424.182557 192.655343 
L 434.997508 190.792142 
L 438.602492 196.379689 
L 442.207476 197.725282 
L 445.81246 189.964201 
L 449.417443 182.929053 
L 460.232395 181.480347 
L 463.837379 172.788191 
L 467.442363 185.825394 
L 471.047347 194.310319 
L 474.65233 191.82741 
L 485.467282 194.517551 
L 489.072266 198.138775 
L 492.67725 182.204173 
L 496.282234 178.272624 
L 499.887217 171.546754 
L 510.702169 171.960246 
L 514.307153 174.33999 
L 517.912137 169.063878 
L 521.51712 169.994965 
L 535.937056 176.203218 
L 539.54204 174.65145 
L 543.147024 176.099096 
L 546.752007 172.788227 
L 550.356991 175.375263 
L 561.171943 167.615197 
L 564.776927 170.718798 
L 568.38191 171.339536 
L 571.986894 175.478352 
L 575.591878 176.099075 
L 586.40683 173.823446 
L 590.011814 163.786763 
L 593.616797 164.097118 
L 597.221781 152.922049 
L 600.826765 152.301382 
L 615.246701 147.231487 
L 618.851684 152.714861 
L 622.456668 155.301866 
L 626.061652 159.027226 
L 636.876604 160.164515 
L 640.481587 159.543794 
L 644.086571 165.23548 
L 647.691555 174.547322 
L 651.296539 167.82148 
L 662.111491 161.613216 
L 665.716474 157.578554 
L 669.321458 156.647477 
L 672.926442 156.750575 
L 676.531426 162.027769 
L 690.951361 165.028228 
L 694.556345 164.717909 
L 698.161329 169.995051 
L 701.766313 158.406517 
L 712.581264 160.061439 
L 716.186248 155.71534 
L 719.791232 156.232979 
L 723.396216 161.199768 
L 727.0012 156.232966 
L 737.816151 159.647974 
L 741.421135 159.337615 
L 748.631103 148.783255 
L 791.890909 147.334557 
L 791.890909 147.334557 
" clip-path="url(#p86436b1957)" style="fill: none; stroke-dasharray: 9.6,2.4,1.5,2.4; stroke-dashoffset: 0; stroke: #9467bd; stroke-opacity: 0.85; stroke-width: 1.5"/>
   </g>
   <g id="line2d_20">
    <path d="M 81.709091 172.353784 
L 85.314075 178.770074 
L 88.919059 172.995408 
L 92.524042 164.65419 
L 96.129026 162.08769 
L 106.943978 146.046952 
L 110.548962 143.480412 
L 114.153946 140.272289 
L 117.758929 143.480416 
L 132.178865 148.613462 
L 135.783849 147.971854 
L 139.388832 151.179984 
L 142.993816 151.179984 
L 146.5988 149.896747 
L 157.413752 153.104908 
L 161.018736 153.746548 
L 164.623719 153.746548 
L 168.228703 150.538368 
L 171.833687 147.971859 
L 182.648639 143.480454 
L 186.253623 135.780901 
L 189.858606 136.422542 
L 193.46359 137.705799 
L 197.068574 132.572714 
L 207.883526 133.855974 
L 211.488509 129.364592 
L 215.093493 140.272308 
L 218.698477 143.480435 
L 222.303461 142.197176 
L 233.118413 149.255125 
L 236.723396 144.122102 
L 240.32838 148.613483 
L 243.933364 147.971874 
L 247.538348 150.538402 
L 258.353299 149.255147 
L 261.958283 148.613491 
L 265.563267 144.763701 
L 269.168251 156.954679 
L 308.823073 160.162842 
L 312.428057 160.162842 
L 316.033041 163.370983 
L 319.638025 167.220764 
L 323.243009 171.712179 
L 334.05796 172.353822 
L 337.662944 173.637088 
L 341.267928 167.862407 
L 344.872912 170.428926 
L 348.477896 168.504047 
L 359.292847 163.37098 
L 362.897831 167.22076 
L 366.502815 167.86241 
L 370.107799 167.86241 
L 373.712783 176.203602 
L 384.527734 178.770127 
L 388.132718 183.903155 
L 391.737702 170.428936 
L 395.342686 170.428936 
L 398.94767 166.579177 
L 409.762621 160.8045 
L 413.367605 158.237985 
L 416.972589 151.821676 
L 420.577573 160.804488 
L 424.182557 156.954716 
L 434.997508 160.162878 
L 438.602492 171.712215 
L 442.207476 167.862449 
L 445.81246 158.238009 
L 449.417443 151.8217 
L 460.232395 146.688665 
L 463.837379 149.896803 
L 467.442363 162.087766 
L 471.047347 167.220809 
L 474.65233 174.278756 
L 485.467282 177.486929 
L 489.072266 189.677899 
L 492.67725 175.562015 
L 496.282234 170.428961 
L 499.887217 165.937533 
L 510.702169 162.087751 
L 514.307153 160.162868 
L 521.51712 146.046988 
L 525.122104 155.671441 
L 535.937056 158.237964 
L 539.54204 153.746592 
L 543.147024 158.879625 
L 546.752007 156.954706 
L 550.356991 170.428944 
L 561.171943 173.637098 
L 564.776927 171.71219 
L 571.986894 175.56196 
L 575.591878 176.203597 
L 586.40683 170.428932 
L 590.011814 164.012623 
L 593.616797 170.428914 
L 597.221781 170.428914 
L 600.826765 165.937484 
L 615.246701 164.654238 
L 618.851684 168.504055 
L 622.456668 163.370988 
L 626.061652 165.937501 
L 636.876604 172.995441 
L 640.481587 175.561966 
L 644.086571 174.920372 
L 647.691555 176.845251 
L 651.296539 177.486905 
L 662.111491 178.128528 
L 665.716474 169.145723 
L 669.321458 171.712234 
L 676.531426 178.128525 
L 687.346377 176.203651 
L 690.951361 174.278763 
L 694.556345 178.770188 
L 698.161329 185.186488 
L 701.766313 181.336712 
L 712.581264 188.394649 
L 719.791232 178.128517 
L 723.396216 185.828101 
L 727.0012 180.695032 
L 737.816151 181.336679 
L 741.421135 179.411775 
L 745.026119 174.278722 
L 748.631103 169.78734 
L 788.285925 173.637125 
L 791.890909 172.995489 
L 791.890909 172.995489 
" clip-path="url(#p86436b1957)" style="fill: none; stroke-dasharray: 9.6,2.4,1.5,2.4; stroke-dashoffset: 0; stroke: #8c564b; stroke-opacity: 0.85; stroke-width: 1.5"/>
   </g>
   <g id="line2d_21">
    <path d="M 81.709091 178.781395 
L 85.314075 176.333194 
L 88.919059 169.434593 
L 92.524042 169.657567 
L 96.129026 174.774644 
L 106.943978 155.639588 
L 110.548962 139.840129 
L 114.153946 145.403146 
L 117.758929 149.186909 
L 121.363913 154.526942 
L 132.178865 148.0743 
L 135.783849 141.844626 
L 139.388832 142.511288 
L 142.993816 144.736496 
L 146.5988 145.849108 
L 157.413752 145.403145 
L 161.018736 148.963952 
L 164.623719 143.846906 
L 168.228703 142.288325 
L 171.833687 147.184723 
L 182.648639 145.84913 
L 186.253623 155.639616 
L 189.858606 158.75447 
L 193.46359 161.646342 
L 197.068574 156.083312 
L 207.883526 162.092277 
L 211.488509 157.86484 
L 215.093493 155.639595 
L 218.698477 154.526959 
L 222.303461 155.639585 
L 233.118413 154.526949 
L 236.723396 161.202634 
L 240.32838 168.767873 
L 243.933364 168.098944 
L 247.538348 167.655287 
L 258.353299 161.202637 
L 261.958283 154.526959 
L 265.563267 152.968449 
L 269.168251 124.488842 
L 308.823073 136.281587 
L 312.428057 141.17569 
L 316.033041 140.509055 
L 319.638025 128.270334 
L 323.243009 139.396425 
L 334.05796 134.946001 
L 337.662944 138.950498 
L 341.267928 137.171262 
L 344.872912 147.184712 
L 348.477896 140.509068 
L 359.292847 136.502325 
L 362.897831 129.383007 
L 366.502815 138.727535 
L 370.107799 146.961736 
L 373.712783 152.968445 
L 384.527734 158.977407 
L 388.132718 168.767894 
L 391.737702 161.869289 
L 395.342686 169.657538 
L 398.94767 163.871529 
L 409.762621 171.213787 
L 413.367605 149.409876 
L 416.972589 152.524725 
L 420.577573 171.659733 
L 424.182557 168.098919 
L 434.997508 165.653003 
L 438.602492 177.445746 
L 442.207476 181.227235 
L 445.81246 184.565064 
L 449.417443 169.211551 
L 460.232395 189.461439 
L 463.837379 189.238468 
L 467.442363 209.042429 
L 471.047347 217.497333 
L 474.65233 210.821702 
L 485.467282 226.398206 
L 489.072266 230.848619 
L 492.67725 209.93206 
L 496.282234 209.93206 
L 499.887217 203.033463 
L 510.702169 187.902908 
L 514.307153 194.578548 
L 517.912137 190.35111 
L 521.51712 179.002065 
L 525.122104 174.330943 
L 535.937056 170.324199 
L 539.54204 156.30626 
L 543.147024 172.549404 
L 546.752007 155.193622 
L 550.356991 149.853571 
L 561.171943 150.076552 
L 564.776927 149.630617 
L 568.38191 151.412121 
L 571.986894 156.083275 
L 575.591878 138.506779 
L 586.40683 142.288293 
L 590.011814 145.403146 
L 593.616797 135.612642 
L 597.221781 149.1869 
L 600.826765 147.851285 
L 615.246701 126.268113 
L 618.851684 136.281583 
L 622.456668 114.698334 
L 626.061652 129.605916 
L 636.876604 132.054096 
L 640.481587 141.175652 
L 644.086571 141.621593 
L 647.691555 156.083225 
L 651.296539 146.515716 
L 662.111491 153.414328 
L 665.716474 144.067496 
L 669.321458 157.418768 
L 672.926442 161.202579 
L 676.531426 168.990796 
L 687.346377 169.434498 
L 690.951361 184.565055 
L 694.556345 187.459213 
L 698.161329 173.438964 
L 701.766313 174.774569 
L 712.581264 188.571807 
L 716.186248 172.105656 
L 719.791232 168.321904 
L 723.396216 173.218288 
L 727.0012 180.337627 
L 737.816151 186.346603 
L 741.421135 175.44353 
L 745.026119 173.661994 
L 748.631103 162.315196 
L 788.285925 124.932494 
L 791.890909 104.015938 
L 791.890909 104.015938 
" clip-path="url(#p86436b1957)" style="fill: none; stroke-dasharray: 9.6,2.4,1.5,2.4; stroke-dashoffset: 0; stroke: #e377c2; stroke-opacity: 0.85; stroke-width: 1.5"/>
   </g>
   <g id="line2d_22">
    <path d="M 81.709091 178.349181 
L 85.314075 185.484812 
L 88.919059 186.782213 
L 92.524042 184.998705 
L 96.129026 178.510108 
L 106.943978 171.211874 
L 110.548962 171.860584 
L 114.153946 171.049276 
L 117.758929 169.265827 
L 121.363913 169.103191 
L 132.178865 170.563197 
L 135.783849 169.265833 
L 139.388832 169.914513 
L 142.993816 171.698006 
L 146.5988 169.103221 
L 157.413752 171.537105 
L 161.018736 174.780557 
L 164.623719 179.809186 
L 168.228703 172.995366 
L 171.833687 176.564037 
L 182.648639 176.726621 
L 186.253623 172.509289 
L 189.858606 176.403089 
L 193.46359 178.997881 
L 197.068574 176.077921 
L 207.883526 178.997887 
L 211.488509 178.349173 
L 215.093493 179.809172 
L 218.698477 181.592634 
L 222.303461 179.80919 
L 233.118413 180.295271 
L 236.723396 180.132671 
L 240.32838 186.458673 
L 243.933364 189.539555 
L 247.538348 191.162137 
L 258.353299 191.973387 
L 261.958283 190.999533 
L 265.563267 192.784678 
L 269.168251 198.136803 
L 308.823073 194.568182 
L 312.428057 201.866389 
L 316.033041 198.785529 
L 319.638025 193.919493 
L 323.243009 195.865569 
L 334.05796 190.999562 
L 337.662944 186.62127 
L 341.267928 187.26998 
L 344.872912 188.890896 
L 348.477896 185.647425 
L 359.292847 181.916221 
L 362.897831 174.78061 
L 366.502815 178.349248 
L 370.107799 173.483255 
L 373.712783 173.806742 
L 384.527734 176.889298 
L 388.132718 181.267547 
L 391.737702 182.727548 
L 395.342686 185.972679 
L 398.94767 194.568259 
L 409.762621 196.676922 
L 413.367605 194.082153 
L 416.972589 193.108289 
L 420.577573 199.59688 
L 424.182557 193.108286 
L 434.997508 195.865628 
L 438.602492 198.299504 
L 442.207476 203.489041 
L 445.81246 201.705553 
L 449.417443 192.296992 
L 460.232395 193.594369 
L 463.837379 189.864798 
L 467.442363 197.000456 
L 471.047347 196.028242 
L 474.65233 198.136907 
L 485.467282 202.677781 
L 489.072266 193.756997 
L 492.67725 177.70063 
L 496.282234 172.67198 
L 499.887217 172.346815 
L 510.702169 168.779841 
L 514.307153 165.534719 
L 517.912137 170.888527 
L 521.51712 167.643372 
L 525.122104 168.292077 
L 535.937056 167.805953 
L 539.54204 165.21122 
L 543.147024 167.31988 
L 546.752007 160.83124 
L 550.356991 158.885202 
L 561.171943 149.80181 
L 564.776927 138.93496 
L 568.38191 131.150647 
L 571.986894 133.096732 
L 575.591878 133.745434 
L 586.40683 130.988067 
L 590.011814 136.826314 
L 593.616797 138.772395 
L 600.826765 145.909681 
L 615.246701 138.123715 
L 618.851684 142.18012 
L 622.456668 137.962776 
L 626.061652 137.800172 
L 636.876604 139.260139 
L 640.481587 138.448862 
L 644.086571 141.692328 
L 647.691555 146.234838 
L 651.296539 145.747087 
L 662.111491 142.017532 
L 665.716474 140.557584 
L 669.321458 143.314923 
L 672.926442 153.695686 
L 676.531426 149.64096 
L 687.346377 152.884448 
L 690.951361 155.965319 
L 694.556345 139.260213 
L 698.161329 136.177705 
L 701.766313 129.690754 
L 712.581264 130.825534 
L 716.186248 122.390856 
L 719.791232 114.281371 
L 723.396216 123.03958 
L 727.0012 121.904781 
L 737.816151 123.689917 
L 741.421135 118.661305 
L 745.026119 128.393384 
L 748.631103 145.909742 
L 788.285925 153.207946 
L 791.890909 154.99311 
L 791.890909 154.99311 
" clip-path="url(#p86436b1957)" style="fill: none; stroke-dasharray: 9.6,2.4,1.5,2.4; stroke-dashoffset: 0; stroke: #7f7f7f; stroke-opacity: 0.85; stroke-width: 1.5"/>
   </g>
   <g id="line2d_23">
    <path d="M 81.709091 176.222503 
L 85.314075 177.18999 
L 88.919059 172.188571 
L 92.524042 183.321183 
L 96.129026 176.545531 
L 106.943978 177.996729 
L 110.548962 174.608921 
L 114.153946 172.674009 
L 117.758929 171.221128 
L 121.363913 169.607565 
L 132.178865 170.414362 
L 135.783849 177.996784 
L 139.388832 177.513068 
L 142.993816 175.899479 
L 146.5988 172.674027 
L 157.413752 172.674027 
L 161.018736 173.318428 
L 164.623719 175.899465 
L 168.228703 172.188631 
L 171.833687 170.414389 
L 182.648639 171.867267 
L 186.253623 171.383553 
L 189.858606 170.57676 
L 193.46359 170.57676 
L 197.068574 171.867288 
L 207.883526 170.898164 
L 211.488509 172.02798 
L 215.093493 173.802265 
L 218.698477 174.448348 
L 222.303461 168.479487 
L 236.723396 170.576797 
L 240.32838 172.511749 
L 243.933364 173.802276 
L 247.538348 172.188681 
L 258.353299 171.867301 
L 261.958283 168.640137 
L 265.563267 166.059081 
L 269.168251 165.89675 
L 308.823073 165.575351 
L 312.428057 169.286241 
L 316.033041 164.606217 
L 319.638025 164.929267 
L 323.243009 160.895377 
L 334.05796 163.315701 
L 337.662944 162.831962 
L 341.267928 159.283449 
L 344.872912 157.186153 
L 348.477896 157.186153 
L 359.292847 161.218395 
L 362.897831 160.250945 
L 366.502815 154.765797 
L 370.107799 153.475274 
L 373.712783 152.82918 
L 384.527734 153.798329 
L 388.132718 156.056312 
L 391.737702 157.023806 
L 395.342686 160.25092 
L 398.94767 162.831964 
L 409.762621 157.186165 
L 413.367605 157.669902 
L 416.972589 156.863111 
L 420.577573 160.573996 
L 424.182557 160.573996 
L 434.997508 157.669895 
L 438.602492 162.025187 
L 442.207476 161.702176 
L 445.81246 152.022427 
L 449.417443 150.571223 
L 460.232395 147.506436 
L 463.837379 145.246768 
L 467.442363 147.990147 
L 471.047347 143.149476 
L 474.65233 147.183394 
L 485.467282 145.086084 
L 489.072266 137.341288 
L 492.67725 137.987361 
L 496.282234 138.31041 
L 499.887217 139.277869 
L 510.702169 130.242579 
L 514.307153 124.757461 
L 517.912137 127.177788 
L 521.51712 124.596742 
L 525.122104 122.337111 
L 535.937056 134.276479 
L 539.54204 134.599535 
L 543.147024 128.629012 
L 546.752007 132.662909 
L 550.356991 133.469703 
L 561.171943 126.210337 
L 564.776927 118.304862 
L 568.38191 119.595377 
L 571.986894 118.949274 
L 575.591878 120.079077 
L 586.40683 121.20893 
L 590.011814 136.213083 
L 593.616797 135.243922 
L 597.221781 138.471071 
L 600.826765 138.148034 
L 615.246701 138.794109 
L 618.851684 137.987338 
L 622.456668 133.469694 
L 626.061652 134.437149 
L 636.876604 133.308956 
L 640.481587 133.79272 
L 644.086571 136.050702 
L 647.691555 136.213059 
L 651.296539 135.890053 
L 662.111491 134.599522 
L 665.716474 137.824969 
L 669.321458 139.27783 
L 672.926442 142.504973 
L 676.531426 127.66152 
L 687.346377 131.049346 
L 690.951361 123.306209 
L 694.556345 123.629271 
L 698.161329 126.694036 
L 701.766313 119.11164 
L 712.581264 118.465535 
L 716.186248 117.658799 
L 719.791232 118.14254 
L 723.396216 117.33573 
L 727.0012 119.595386 
L 737.816151 121.046593 
L 741.421135 121.046593 
L 745.026119 122.499492 
L 748.631103 124.273747 
L 788.285925 125.726606 
L 791.890909 120.725187 
L 791.890909 120.725187 
" clip-path="url(#p86436b1957)" style="fill: none; stroke-dasharray: 9.6,2.4,1.5,2.4; stroke-dashoffset: 0; stroke: #bcbd22; stroke-opacity: 0.85; stroke-width: 1.5"/>
   </g>
   <g id="line2d_24">
    <path d="M 81.709091 175.735557 
L 85.314075 183.033578 
L 88.919059 180.293396 
L 92.524042 175.735563 
L 96.129026 172.091137 
L 106.943978 166.619905 
L 110.548962 167.533328 
L 114.153946 169.350957 
L 117.758929 166.619909 
L 121.363913 172.091161 
L 132.178865 170.264359 
L 135.783849 168.437583 
L 139.388832 170.264374 
L 142.993816 174.822182 
L 146.5988 173.908803 
L 157.413752 177.562367 
L 161.018736 174.822203 
L 164.623719 169.350991 
L 168.228703 170.264399 
L 171.833687 172.995431 
L 182.648639 173.908823 
L 186.253623 167.533342 
L 189.858606 171.177756 
L 193.46359 175.735583 
L 197.068574 173.908786 
L 207.883526 177.56235 
L 211.488509 178.466609 
L 215.093493 176.648931 
L 218.698477 177.562316 
L 222.303461 173.908749 
L 233.118413 173.908749 
L 236.723396 169.350921 
L 240.32838 174.822152 
L 243.933364 173.908773 
L 247.538348 178.4666 
L 258.353299 183.033564 
L 261.958283 183.033564 
L 265.563267 169.350916 
L 269.168251 167.533298 
L 308.823073 164.793098 
L 312.428057 168.437572 
L 316.033041 168.437572 
L 319.638025 164.793123 
L 323.243009 171.177731 
L 334.05796 163.879726 
L 337.662944 162.062028 
L 341.267928 165.706499 
L 344.872912 167.533275 
L 348.477896 166.61986 
L 359.292847 166.61986 
L 362.897831 160.23525 
L 366.502815 157.495076 
L 370.107799 156.590788 
L 373.712783 157.495056 
L 384.527734 162.062004 
L 388.132718 165.706476 
L 391.737702 170.264314 
L 395.342686 171.177681 
L 398.94767 164.793052 
L 409.762621 159.321829 
L 413.367605 160.235193 
L 416.972589 155.677423 
L 420.577573 162.062008 
L 424.182557 165.706479 
L 434.997508 163.879681 
L 438.602492 172.995332 
L 442.207476 174.822115 
L 445.81246 161.148613 
L 449.417443 141.994751 
L 460.232395 140.177123 
L 463.837379 141.090499 
L 467.442363 140.177151 
L 471.047347 154.76403 
L 474.65233 157.495082 
L 485.467282 155.677464 
L 489.072266 163.879722 
L 496.282234 145.648391 
L 499.887217 144.735024 
L 510.702169 135.61934 
L 514.307153 136.532763 
L 517.912137 136.532763 
L 521.51712 131.965765 
L 525.122104 131.965765 
L 535.937056 132.879133 
L 539.54204 125.590311 
L 543.147024 124.676922 
L 546.752007 108.263263 
L 550.356991 108.263263 
L 561.171943 92.762995 
L 564.776927 93.676412 
L 568.38191 97.320821 
L 571.986894 104.618848 
L 575.591878 99.147581 
L 586.40683 100.060986 
L 590.011814 117.37891 
L 593.616797 115.561252 
L 597.221781 118.292299 
L 600.826765 117.378913 
L 615.246701 110.09003 
L 618.851684 115.561239 
L 626.061652 117.37891 
L 636.876604 118.292289 
L 640.481587 126.494599 
L 644.086571 125.590311 
L 647.691555 129.234726 
L 651.296539 124.676868 
L 662.111491 111.907636 
L 665.716474 110.994245 
L 669.321458 112.82102 
L 672.926442 110.089973 
L 676.531426 97.320739 
L 687.346377 105.532135 
L 690.951361 104.618765 
L 694.556345 99.147497 
L 698.161329 102.791961 
L 701.766313 87.291691 
L 712.581264 101.878557 
L 716.186248 93.676315 
L 719.791232 90.936101 
L 723.396216 82.733825 
L 727.0012 89.118434 
L 737.816151 104.618728 
L 741.421135 93.676295 
L 745.026119 92.762855 
L 748.631103 86.37825 
L 788.285925 98.234113 
L 791.890909 100.965172 
L 791.890909 100.965172 
" clip-path="url(#p86436b1957)" style="fill: none; stroke-dasharray: 9.6,2.4,1.5,2.4; stroke-dashoffset: 0; stroke: #17becf; stroke-opacity: 0.85; stroke-width: 1.5"/>
   </g>
   <g id="line2d_25">
    <path d="M 81.709091 176.80126 
L 85.314075 178.076591 
L 88.919059 183.785426 
L 92.524042 183.151115 
L 96.129026 179.979554 
L 106.943978 182.516801 
L 110.548962 198.38812 
L 114.153946 195.216528 
L 117.758929 192.679272 
L 121.363913 187.598079 
L 132.178865 190.769639 
L 135.783849 193.313609 
L 139.388832 192.679303 
L 142.993816 195.216576 
L 146.5988 191.403974 
L 157.413752 193.947933 
L 161.018736 194.582253 
L 164.623719 193.947923 
L 168.228703 190.769663 
L 171.833687 191.403984 
L 182.648639 193.947944 
L 186.253623 192.679304 
L 189.858606 189.501057 
L 193.46359 190.769673 
L 207.883526 190.769673 
L 211.488509 193.947944 
L 215.093493 193.313624 
L 218.698477 198.388173 
L 222.303461 194.582247 
L 233.118413 190.135374 
L 236.723396 193.313624 
L 240.32838 199.663459 
L 243.933364 204.103685 
L 247.538348 201.566407 
L 258.353299 199.663453 
L 261.958283 202.200734 
L 265.563267 196.485202 
L 269.168251 198.388155 
L 308.823073 200.297775 
L 312.428057 203.469361 
L 316.033041 202.200707 
L 319.638025 203.469343 
L 323.243009 203.469343 
L 334.05796 204.10367 
L 341.267928 201.566411 
L 344.872912 204.103677 
L 348.477896 203.469348 
L 359.292847 199.022444 
L 362.897831 200.932088 
L 366.502815 200.932088 
L 370.107799 195.850877 
L 373.712783 192.044948 
L 384.527734 176.801299 
L 388.132718 183.785462 
L 391.737702 181.88253 
L 395.342686 181.88253 
L 398.94767 186.32942 
L 409.762621 181.882513 
L 413.367605 178.076611 
L 416.972589 172.361105 
L 420.577573 178.076638 
L 424.182557 179.979597 
L 434.997508 180.613919 
L 438.602492 183.151155 
L 442.207476 179.979594 
L 445.81246 171.726792 
L 449.417443 159.027066 
L 460.232395 153.945879 
L 463.837379 136.171621 
L 467.442363 140.611857 
L 471.047347 139.343231 
L 474.65233 145.693072 
L 485.467282 150.774269 
L 489.072266 133.627708 
L 492.67725 135.537325 
L 496.282234 144.424442 
L 499.887217 149.505679 
L 510.702169 136.80596 
L 514.307153 132.359093 
L 517.912137 119.659383 
L 521.51712 116.487795 
L 525.122104 116.487795 
L 535.937056 127.277875 
L 539.54204 126.643572 
L 543.147024 129.821832 
L 546.752007 128.553199 
L 550.356991 127.912208 
L 561.171943 132.993418 
L 564.776927 122.203358 
L 568.38191 127.277915 
L 571.986894 127.912242 
L 575.591878 130.456173 
L 586.40683 131.724815 
L 590.011814 141.880579 
L 597.221781 144.42452 
L 600.826765 142.521582 
L 615.246701 140.611953 
L 618.851684 142.521574 
L 622.456668 136.17175 
L 626.061652 132.993512 
L 636.876604 147.596152 
L 640.481587 141.880638 
L 644.086571 140.611979 
L 647.691555 137.440393 
L 651.296539 144.424556 
L 662.111491 140.611992 
L 665.716474 139.977656 
L 669.321458 138.709034 
L 672.926442 140.612 
L 676.531426 128.553285 
L 687.346377 132.359196 
L 690.951361 126.009342 
L 694.556345 126.009342 
L 698.161329 125.375034 
L 701.766313 110.77238 
L 712.581264 117.122231 
L 719.791232 33.312265 
L 723.396216 75.217235 
L 727.0012 91.088512 
L 737.816151 89.819858 
L 741.421135 95.535409 
L 745.026119 94.901071 
L 748.631103 99.982274 
L 791.890909 99.982274 
L 791.890909 99.982274 
" clip-path="url(#p86436b1957)" style="fill: none; stroke-dasharray: 9.6,2.4,1.5,2.4; stroke-dashoffset: 0; stroke: #1f77b4; stroke-opacity: 0.85; stroke-width: 1.5"/>
   </g>
   <g id="line2d_26">
    <path d="M 81.709091 172.995383 
L 85.314075 173.802551 
L 88.919059 169.597145 
L 92.524042 167.858027 
L 96.129026 165.229119 
L 110.548962 158.174711 
L 114.153946 158.62504 
L 117.758929 158.320482 
L 121.363913 159.545046 
L 132.178865 158.2292 
L 135.783849 157.20819 
L 139.388832 158.343343 
L 142.993816 158.697657 
L 146.5988 158.748881 
L 157.413752 159.881511 
L 161.018736 161.105116 
L 164.623719 161.457465 
L 168.228703 159.537879 
L 171.833687 161.835474 
L 182.648639 162.249049 
L 186.253623 160.507166 
L 189.858606 161.475202 
L 193.46359 164.217122 
L 197.068574 162.153488 
L 207.883526 164.460698 
L 211.488509 163.908133 
L 215.093493 163.578353 
L 218.698477 166.454939 
L 222.303461 166.380943 
L 233.118413 170.584599 
L 236.723396 171.423329 
L 240.32838 177.114582 
L 243.933364 178.23918 
L 247.538348 180.000809 
L 258.353299 179.188471 
L 261.958283 176.994536 
L 265.563267 174.020927 
L 269.168251 175.905209 
L 308.823073 177.093443 
L 312.428057 179.29313 
L 316.033041 181.039232 
L 319.638025 177.862767 
L 323.243009 180.612123 
L 334.05796 177.122783 
L 337.662944 178.50018 
L 341.267928 176.899674 
L 344.872912 178.718189 
L 348.477896 177.152429 
L 359.292847 172.294412 
L 362.897831 169.959334 
L 366.502815 172.244417 
L 370.107799 170.740553 
L 373.712783 172.759709 
L 384.527734 173.821796 
L 388.132718 177.724627 
L 391.737702 176.962322 
L 395.342686 178.983423 
L 398.94767 177.726052 
L 409.762621 177.059648 
L 413.367605 174.519143 
L 416.972589 170.691334 
L 420.577573 176.74722 
L 424.182557 172.335589 
L 434.997508 173.704797 
L 438.602492 179.224539 
L 442.207476 179.108162 
L 445.81246 171.648371 
L 449.417443 164.997017 
L 460.232395 166.506607 
L 463.837379 165.989835 
L 467.442363 173.162315 
L 471.047347 176.534712 
L 474.65233 175.350676 
L 485.467282 177.834882 
L 489.072266 175.472582 
L 492.67725 164.964752 
L 499.887217 160.978769 
L 510.702169 154.194784 
L 514.307153 153.367817 
L 517.912137 151.683873 
L 521.51712 148.508542 
L 525.122104 148.23649 
L 535.937056 150.929225 
L 539.54204 147.181223 
L 543.147024 151.463714 
L 546.752007 142.214014 
L 550.356991 142.380374 
L 561.171943 138.059183 
L 564.776927 135.878538 
L 568.38191 136.559426 
L 571.986894 138.485573 
L 575.591878 135.781734 
L 586.40683 135.156027 
L 590.011814 138.531823 
L 593.616797 139.923282 
L 597.221781 139.965159 
L 600.826765 139.878005 
L 615.246701 133.488841 
L 618.851684 138.631046 
L 622.456668 134.701244 
L 626.061652 135.016978 
L 636.876604 134.527911 
L 640.481587 135.293582 
L 644.086571 137.025034 
L 647.691555 141.974365 
L 651.296539 139.939729 
L 662.111491 136.726411 
L 665.716474 133.05571 
L 669.321458 134.792018 
L 672.926442 135.79932 
L 676.531426 132.023926 
L 687.346377 134.197151 
L 690.951361 135.167541 
L 694.556345 132.196058 
L 698.161329 133.792667 
L 701.766313 123.411125 
L 712.581264 127.709724 
L 716.186248 121.198266 
L 719.791232 119.577392 
L 723.396216 123.622381 
L 727.0012 124.98243 
L 737.816151 128.478253 
L 741.421135 124.836548 
L 745.026119 125.313794 
L 748.631103 125.361429 
L 788.285925 123.453009 
L 791.890909 127.270189 
L 791.890909 127.270189 
" clip-path="url(#p86436b1957)" style="fill: none; stroke: #000000; stroke-width: 1.5; stroke-linecap: square"/>
   </g>
   <g id="patch_3">
    <path d="M 46.2 252 
L 46.2 7.2 
" style="fill: none; stroke: #000000; stroke-width: 0.8; stroke-linejoin: miter; stroke-linecap: square"/>
   </g>
   <g id="patch_4">
    <path d="M 827.4 252 
L 827.4 7.2 
" style="fill: none; stroke: #000000; stroke-width: 0.8; stroke-linejoin: miter; stroke-linecap: square"/>
   </g>
   <g id="patch_5">
    <path d="M 46.2 252 
L 827.4 252 
" style="fill: none; stroke: #000000; stroke-width: 0.8; stroke-linejoin: miter; stroke-linecap: square"/>
   </g>
   <g id="patch_6">
    <path d="M 46.2 7.2 
L 827.4 7.2 
" style="fill: none; stroke: #000000; stroke-width: 0.8; stroke-linejoin: miter; stroke-linecap: square"/>
   </g>
   <g id="legend_1">
    <g id="patch_7">
     <path d="M 51.8 141.6125 
L 145.4 141.6125 
Q 147 141.6125 147 140.0125 
L 147 12.8 
Q 147 11.2 145.4 11.2 
L 51.8 11.2 
Q 50.2 11.2 50.2 12.8 
L 50.2 140.0125 
Q 50.2 141.6125 51.8 141.6125 
z
" style="fill: #ffffff; opacity: 0.8; stroke: #cccccc; stroke-linejoin: miter"/>
    </g>
    <g id="line2d_27">
     <path d="M 53.4 17.2 
L 61.4 17.2 
L 69.4 17.2 
" style="fill: none; stroke-dasharray: 9.6,2.4,1.5,2.4; stroke-dashoffset: 0; stroke: #1f77b4; stroke-opacity: 0.85; stroke-width: 1.5"/>
    </g>
    <g id="text_16">
     <!-- price_CASH -->
     <g transform="translate(75.8 20) scale(0.08 -0.08)">
      <defs>
       <path id="SimHei-70" d="M 2825 1525 
Q 2825 800 2475 425 
Q 2125 50 1625 50 
Q 1350 50 1150 162 
Q 950 275 800 500 
L 800 -800 
L 300 -800 
L 300 2925 
L 800 2925 
L 800 2550 
Q 950 2775 1150 2875 
Q 1350 2975 1625 2975 
Q 2125 2975 2475 2612 
Q 2825 2250 2825 1525 
z
M 2275 1525 
Q 2275 2000 2087 2262 
Q 1900 2525 1525 2525 
Q 1225 2525 1012 2262 
Q 800 2000 800 1525 
Q 800 1050 1012 775 
Q 1225 500 1525 500 
Q 1900 500 2087 775 
Q 2275 1050 2275 1525 
z
" transform="scale(0.015625)"/>
       <path id="SimHei-5f" d="M 3150 -850 
L 0 -850 
L 0 -550 
L 3150 -550 
L 3150 -850 
z
" transform="scale(0.015625)"/>
       <path id="SimHei-43" d="M 2975 1825 
Q 2950 875 2575 475 
Q 2200 75 1675 75 
Q 1075 75 650 562 
Q 225 1050 225 2125 
Q 225 3300 637 3875 
Q 1050 4450 1700 4450 
Q 2250 4450 2612 4037 
Q 2975 3625 2950 2875 
L 2400 2875 
Q 2400 3425 2225 3700 
Q 2050 3975 1700 3975 
Q 1300 3975 1062 3562 
Q 825 3150 825 2175 
Q 825 1275 1062 912 
Q 1300 550 1675 550 
Q 1950 550 2175 812 
Q 2400 1075 2400 1825 
L 2975 1825 
z
" transform="scale(0.015625)"/>
       <path id="SimHei-41" d="M 3075 125 
L 2475 125 
L 2125 1450 
L 1025 1450 
L 675 125 
L 75 125 
L 1325 4450 
L 1825 4450 
L 3075 125 
z
M 2000 1925 
L 1600 3450 
L 1550 3450 
L 1150 1925 
L 2000 1925 
z
" transform="scale(0.015625)"/>
       <path id="SimHei-48" d="M 2850 125 
L 2275 125 
L 2275 2125 
L 850 2125 
L 850 125 
L 275 125 
L 275 4400 
L 850 4400 
L 850 2600 
L 2275 2600 
L 2275 4400 
L 2850 4400 
L 2850 125 
z
" transform="scale(0.015625)"/>
      </defs>
      <use xlink:href="#SimHei-70"/>
      <use xlink:href="#SimHei-72" x="50"/>
      <use xlink:href="#SimHei-69" x="100"/>
      <use xlink:href="#SimHei-63" x="150"/>
      <use xlink:href="#SimHei-65" x="200"/>
      <use xlink:href="#SimHei-5f" x="250"/>
      <use xlink:href="#SimHei-43" x="300"/>
      <use xlink:href="#SimHei-41" x="350"/>
      <use xlink:href="#SimHei-53" x="400"/>
      <use xlink:href="#SimHei-48" x="450"/>
     </g>
    </g>
    <g id="line2d_28">
     <path d="M 53.4 27.8875 
L 61.4 27.8875 
L 69.4 27.8875 
" style="fill: none; stroke-dasharray: 9.6,2.4,1.5,2.4; stroke-dashoffset: 0; stroke: #ff7f0e; stroke-opacity: 0.85; stroke-width: 1.5"/>
    </g>
    <g id="text_17">
     <!-- price_CN000338.SZ -->
     <g transform="translate(75.8 30.6875) scale(0.08 -0.08)">
      <defs>
       <path id="SimHei-4e" d="M 2850 125 
L 2225 125 
L 850 3225 
L 825 3225 
L 825 125 
L 250 125 
L 250 4400 
L 875 4400 
L 2250 1300 
L 2275 1300 
L 2275 4400 
L 2850 4400 
L 2850 125 
z
" transform="scale(0.015625)"/>
       <path id="SimHei-5a" d="M 2900 125 
L 225 125 
L 225 600 
L 2250 3925 
L 375 3925 
L 375 4400 
L 2825 4400 
L 2825 3925 
L 800 600 
L 2900 600 
L 2900 125 
z
" transform="scale(0.015625)"/>
      </defs>
      <use xlink:href="#SimHei-70"/>
      <use xlink:href="#SimHei-72" x="50"/>
      <use xlink:href="#SimHei-69" x="100"/>
      <use xlink:href="#SimHei-63" x="150"/>
      <use xlink:href="#SimHei-65" x="200"/>
      <use xlink:href="#SimHei-5f" x="250"/>
      <use xlink:href="#SimHei-43" x="300"/>
      <use xlink:href="#SimHei-4e" x="350"/>
      <use xlink:href="#SimHei-30" x="400"/>
      <use xlink:href="#SimHei-30" x="450"/>
      <use xlink:href="#SimHei-30" x="500"/>
      <use xlink:href="#SimHei-33" x="550"/>
      <use xlink:href="#SimHei-33" x="600"/>
      <use xlink:href="#SimHei-38" x="650"/>
      <use xlink:href="#SimHei-2e" x="700"/>
      <use xlink:href="#SimHei-53" x="750"/>
      <use xlink:href="#SimHei-5a" x="800"/>
     </g>
    </g>
    <g id="line2d_29">
     <path d="M 53.4 38.575 
L 61.4 38.575 
L 69.4 38.575 
" style="fill: none; stroke-dasharray: 9.6,2.4,1.5,2.4; stroke-dashoffset: 0; stroke: #2ca02c; stroke-opacity: 0.85; stroke-width: 1.5"/>
    </g>
    <g id="text_18">
     <!-- price_CN002027.SZ -->
     <g transform="translate(75.8 41.375) scale(0.08 -0.08)">
      <defs>
       <path id="SimHei-37" d="M 850 150 
Q 1300 2050 2425 3925 
L 275 3925 
L 275 4375 
L 2950 4375 
L 2950 3950 
Q 1775 2050 1400 150 
L 850 150 
z
" transform="scale(0.015625)"/>
      </defs>
      <use xlink:href="#SimHei-70"/>
      <use xlink:href="#SimHei-72" x="50"/>
      <use xlink:href="#SimHei-69" x="100"/>
      <use xlink:href="#SimHei-63" x="150"/>
      <use xlink:href="#SimHei-65" x="200"/>
      <use xlink:href="#SimHei-5f" x="250"/>
      <use xlink:href="#SimHei-43" x="300"/>
      <use xlink:href="#SimHei-4e" x="350"/>
      <use xlink:href="#SimHei-30" x="400"/>
      <use xlink:href="#SimHei-30" x="450"/>
      <use xlink:href="#SimHei-32" x="500"/>
      <use xlink:href="#SimHei-30" x="550"/>
      <use xlink:href="#SimHei-32" x="600"/>
      <use xlink:href="#SimHei-37" x="650"/>
      <use xlink:href="#SimHei-2e" x="700"/>
      <use xlink:href="#SimHei-53" x="750"/>
      <use xlink:href="#SimHei-5a" x="800"/>
     </g>
    </g>
    <g id="line2d_30">
     <path d="M 53.4 49.2625 
L 61.4 49.2625 
L 69.4 49.2625 
" style="fill: none; stroke-dasharray: 9.6,2.4,1.5,2.4; stroke-dashoffset: 0; stroke: #d62728; stroke-opacity: 0.85; stroke-width: 1.5"/>
    </g>
    <g id="text_19">
     <!-- price_CN002371.SZ -->
     <g transform="translate(75.8 52.0625) scale(0.08 -0.08)">
      <use xlink:href="#SimHei-70"/>
      <use xlink:href="#SimHei-72" x="50"/>
      <use xlink:href="#SimHei-69" x="100"/>
      <use xlink:href="#SimHei-63" x="150"/>
      <use xlink:href="#SimHei-65" x="200"/>
      <use xlink:href="#SimHei-5f" x="250"/>
      <use xlink:href="#SimHei-43" x="300"/>
      <use xlink:href="#SimHei-4e" x="350"/>
      <use xlink:href="#SimHei-30" x="400"/>
      <use xlink:href="#SimHei-30" x="450"/>
      <use xlink:href="#SimHei-32" x="500"/>
      <use xlink:href="#SimHei-33" x="550"/>
      <use xlink:href="#SimHei-37" x="600"/>
      <use xlink:href="#SimHei-31" x="650"/>
      <use xlink:href="#SimHei-2e" x="700"/>
      <use xlink:href="#SimHei-53" x="750"/>
      <use xlink:href="#SimHei-5a" x="800"/>
     </g>
    </g>
    <g id="line2d_31">
     <path d="M 53.4 59.925 
L 61.4 59.925 
L 69.4 59.925 
" style="fill: none; stroke-dasharray: 9.6,2.4,1.5,2.4; stroke-dashoffset: 0; stroke: #9467bd; stroke-opacity: 0.85; stroke-width: 1.5"/>
    </g>
    <g id="text_20">
     <!-- price_CN600009.SH -->
     <g transform="translate(75.8 62.725) scale(0.08 -0.08)">
      <defs>
       <path id="SimHei-36" d="M 250 1612 
Q 275 1975 387 2225 
Q 500 2475 725 2850 
L 1750 4450 
L 2325 4450 
L 1275 2800 
Q 1950 2975 2350 2750 
Q 2750 2525 2887 2237 
Q 3025 1950 3037 1612 
Q 3050 1275 2937 950 
Q 2825 625 2537 362 
Q 2250 100 1737 75 
Q 1225 50 862 262 
Q 500 475 362 862 
Q 225 1250 250 1612 
z
M 1025 787 
Q 1250 550 1625 525 
Q 2000 500 2250 775 
Q 2500 1050 2500 1575 
Q 2500 2100 2187 2300 
Q 1875 2500 1487 2450 
Q 1100 2400 925 2075 
Q 750 1750 775 1387 
Q 800 1025 1025 787 
z
" transform="scale(0.015625)"/>
      </defs>
      <use xlink:href="#SimHei-70"/>
      <use xlink:href="#SimHei-72" x="50"/>
      <use xlink:href="#SimHei-69" x="100"/>
      <use xlink:href="#SimHei-63" x="150"/>
      <use xlink:href="#SimHei-65" x="200"/>
      <use xlink:href="#SimHei-5f" x="250"/>
      <use xlink:href="#SimHei-43" x="300"/>
      <use xlink:href="#SimHei-4e" x="350"/>
      <use xlink:href="#SimHei-36" x="400"/>
      <use xlink:href="#SimHei-30" x="450"/>
      <use xlink:href="#SimHei-30" x="500"/>
      <use xlink:href="#SimHei-30" x="550"/>
      <use xlink:href="#SimHei-30" x="600"/>
      <use xlink:href="#SimHei-39" x="650"/>
      <use xlink:href="#SimHei-2e" x="700"/>
      <use xlink:href="#SimHei-53" x="750"/>
      <use xlink:href="#SimHei-48" x="800"/>
     </g>
    </g>
    <g id="line2d_32">
     <path d="M 53.4 70.6125 
L 61.4 70.6125 
L 69.4 70.6125 
" style="fill: none; stroke-dasharray: 9.6,2.4,1.5,2.4; stroke-dashoffset: 0; stroke: #8c564b; stroke-opacity: 0.85; stroke-width: 1.5"/>
    </g>
    <g id="text_21">
     <!-- price_CN600029.SH -->
     <g transform="translate(75.8 73.4125) scale(0.08 -0.08)">
      <use xlink:href="#SimHei-70"/>
      <use xlink:href="#SimHei-72" x="50"/>
      <use xlink:href="#SimHei-69" x="100"/>
      <use xlink:href="#SimHei-63" x="150"/>
      <use xlink:href="#SimHei-65" x="200"/>
      <use xlink:href="#SimHei-5f" x="250"/>
      <use xlink:href="#SimHei-43" x="300"/>
      <use xlink:href="#SimHei-4e" x="350"/>
      <use xlink:href="#SimHei-36" x="400"/>
      <use xlink:href="#SimHei-30" x="450"/>
      <use xlink:href="#SimHei-30" x="500"/>
      <use xlink:href="#SimHei-30" x="550"/>
      <use xlink:href="#SimHei-32" x="600"/>
      <use xlink:href="#SimHei-39" x="650"/>
      <use xlink:href="#SimHei-2e" x="700"/>
      <use xlink:href="#SimHei-53" x="750"/>
      <use xlink:href="#SimHei-48" x="800"/>
     </g>
    </g>
    <g id="line2d_33">
     <path d="M 53.4 81.3 
L 61.4 81.3 
L 69.4 81.3 
" style="fill: none; stroke-dasharray: 9.6,2.4,1.5,2.4; stroke-dashoffset: 0; stroke: #e377c2; stroke-opacity: 0.85; stroke-width: 1.5"/>
    </g>
    <g id="text_22">
     <!-- price_CN600183.SH -->
     <g transform="translate(75.8 84.1) scale(0.08 -0.08)">
      <use xlink:href="#SimHei-70"/>
      <use xlink:href="#SimHei-72" x="50"/>
      <use xlink:href="#SimHei-69" x="100"/>
      <use xlink:href="#SimHei-63" x="150"/>
      <use xlink:href="#SimHei-65" x="200"/>
      <use xlink:href="#SimHei-5f" x="250"/>
      <use xlink:href="#SimHei-43" x="300"/>
      <use xlink:href="#SimHei-4e" x="350"/>
      <use xlink:href="#SimHei-36" x="400"/>
      <use xlink:href="#SimHei-30" x="450"/>
      <use xlink:href="#SimHei-30" x="500"/>
      <use xlink:href="#SimHei-31" x="550"/>
      <use xlink:href="#SimHei-38" x="600"/>
      <use xlink:href="#SimHei-33" x="650"/>
      <use xlink:href="#SimHei-2e" x="700"/>
      <use xlink:href="#SimHei-53" x="750"/>
      <use xlink:href="#SimHei-48" x="800"/>
     </g>
    </g>
    <g id="line2d_34">
     <path d="M 53.4 91.9625 
L 61.4 91.9625 
L 69.4 91.9625 
" style="fill: none; stroke-dasharray: 9.6,2.4,1.5,2.4; stroke-dashoffset: 0; stroke: #7f7f7f; stroke-opacity: 0.85; stroke-width: 1.5"/>
    </g>
    <g id="text_23">
     <!-- price_CN600406.SH -->
     <g transform="translate(75.8 94.7625) scale(0.08 -0.08)">
      <use xlink:href="#SimHei-70"/>
      <use xlink:href="#SimHei-72" x="50"/>
      <use xlink:href="#SimHei-69" x="100"/>
      <use xlink:href="#SimHei-63" x="150"/>
      <use xlink:href="#SimHei-65" x="200"/>
      <use xlink:href="#SimHei-5f" x="250"/>
      <use xlink:href="#SimHei-43" x="300"/>
      <use xlink:href="#SimHei-4e" x="350"/>
      <use xlink:href="#SimHei-36" x="400"/>
      <use xlink:href="#SimHei-30" x="450"/>
      <use xlink:href="#SimHei-30" x="500"/>
      <use xlink:href="#SimHei-34" x="550"/>
      <use xlink:href="#SimHei-30" x="600"/>
      <use xlink:href="#SimHei-36" x="650"/>
      <use xlink:href="#SimHei-2e" x="700"/>
      <use xlink:href="#SimHei-53" x="750"/>
      <use xlink:href="#SimHei-48" x="800"/>
     </g>
    </g>
    <g id="line2d_35">
     <path d="M 53.4 102.625 
L 61.4 102.625 
L 69.4 102.625 
" style="fill: none; stroke-dasharray: 9.6,2.4,1.5,2.4; stroke-dashoffset: 0; stroke: #bcbd22; stroke-opacity: 0.85; stroke-width: 1.5"/>
    </g>
    <g id="text_24">
     <!-- price_CN600900.SH -->
     <g transform="translate(75.8 105.425) scale(0.08 -0.08)">
      <use xlink:href="#SimHei-70"/>
      <use xlink:href="#SimHei-72" x="50"/>
      <use xlink:href="#SimHei-69" x="100"/>
      <use xlink:href="#SimHei-63" x="150"/>
      <use xlink:href="#SimHei-65" x="200"/>
      <use xlink:href="#SimHei-5f" x="250"/>
      <use xlink:href="#SimHei-43" x="300"/>
      <use xlink:href="#SimHei-4e" x="350"/>
      <use xlink:href="#SimHei-36" x="400"/>
      <use xlink:href="#SimHei-30" x="450"/>
      <use xlink:href="#SimHei-30" x="500"/>
      <use xlink:href="#SimHei-39" x="550"/>
      <use xlink:href="#SimHei-30" x="600"/>
      <use xlink:href="#SimHei-30" x="650"/>
      <use xlink:href="#SimHei-2e" x="700"/>
      <use xlink:href="#SimHei-53" x="750"/>
      <use xlink:href="#SimHei-48" x="800"/>
     </g>
    </g>
    <g id="line2d_36">
     <path d="M 53.4 113.2875 
L 61.4 113.2875 
L 69.4 113.2875 
" style="fill: none; stroke-dasharray: 9.6,2.4,1.5,2.4; stroke-dashoffset: 0; stroke: #17becf; stroke-opacity: 0.85; stroke-width: 1.5"/>
    </g>
    <g id="text_25">
     <!-- price_CN601989.SH -->
     <g transform="translate(75.8 116.0875) scale(0.08 -0.08)">
      <use xlink:href="#SimHei-70"/>
      <use xlink:href="#SimHei-72" x="50"/>
      <use xlink:href="#SimHei-69" x="100"/>
      <use xlink:href="#SimHei-63" x="150"/>
      <use xlink:href="#SimHei-65" x="200"/>
      <use xlink:href="#SimHei-5f" x="250"/>
      <use xlink:href="#SimHei-43" x="300"/>
      <use xlink:href="#SimHei-4e" x="350"/>
      <use xlink:href="#SimHei-36" x="400"/>
      <use xlink:href="#SimHei-30" x="450"/>
      <use xlink:href="#SimHei-31" x="500"/>
      <use xlink:href="#SimHei-39" x="550"/>
      <use xlink:href="#SimHei-38" x="600"/>
      <use xlink:href="#SimHei-39" x="650"/>
      <use xlink:href="#SimHei-2e" x="700"/>
      <use xlink:href="#SimHei-53" x="750"/>
      <use xlink:href="#SimHei-48" x="800"/>
     </g>
    </g>
    <g id="line2d_37">
     <path d="M 53.4 123.95 
L 61.4 123.95 
L 69.4 123.95 
" style="fill: none; stroke-dasharray: 9.6,2.4,1.5,2.4; stroke-dashoffset: 0; stroke: #1f77b4; stroke-opacity: 0.85; stroke-width: 1.5"/>
    </g>
    <g id="text_26">
     <!-- price_CN601998.SH -->
     <g transform="translate(75.8 126.75) scale(0.08 -0.08)">
      <use xlink:href="#SimHei-70"/>
      <use xlink:href="#SimHei-72" x="50"/>
      <use xlink:href="#SimHei-69" x="100"/>
      <use xlink:href="#SimHei-63" x="150"/>
      <use xlink:href="#SimHei-65" x="200"/>
      <use xlink:href="#SimHei-5f" x="250"/>
      <use xlink:href="#SimHei-43" x="300"/>
      <use xlink:href="#SimHei-4e" x="350"/>
      <use xlink:href="#SimHei-36" x="400"/>
      <use xlink:href="#SimHei-30" x="450"/>
      <use xlink:href="#SimHei-31" x="500"/>
      <use xlink:href="#SimHei-39" x="550"/>
      <use xlink:href="#SimHei-39" x="600"/>
      <use xlink:href="#SimHei-38" x="650"/>
      <use xlink:href="#SimHei-2e" x="700"/>
      <use xlink:href="#SimHei-53" x="750"/>
      <use xlink:href="#SimHei-48" x="800"/>
     </g>
    </g>
    <g id="line2d_38">
     <path d="M 53.4 134.6125 
L 61.4 134.6125 
L 69.4 134.6125 
" style="fill: none; stroke: #000000; stroke-width: 1.5; stroke-linecap: square"/>
    </g>
    <g id="text_27">
     <!-- DRL portfolio -->
     <g transform="translate(75.8 137.4125) scale(0.08 -0.08)">
      <defs>
       <path id="SimHei-44" d="M 2925 2250 
Q 2925 1100 2437 612 
Q 1950 125 1125 125 
L 275 125 
L 275 4400 
L 1125 4400 
Q 2050 4400 2487 3900 
Q 2925 3400 2925 2250 
z
M 2325 2250 
Q 2325 3175 2025 3550 
Q 1725 3925 1125 3925 
L 850 3925 
L 850 600 
L 1125 600 
Q 1725 600 2025 962 
Q 2325 1325 2325 2250 
z
" transform="scale(0.015625)"/>
       <path id="SimHei-52" d="M 3000 125 
L 2400 125 
L 1500 1975 
L 850 1975 
L 850 125 
L 275 125 
L 275 4400 
L 1525 4400 
Q 2125 4400 2500 4112 
Q 2875 3825 2875 3175 
Q 2875 2675 2625 2400 
Q 2375 2125 2050 2050 
L 3000 125 
z
M 2300 3175 
Q 2300 3525 2087 3725 
Q 1875 3925 1400 3925 
L 850 3925 
L 850 2450 
L 1550 2450 
Q 1850 2450 2075 2612 
Q 2300 2775 2300 3175 
z
" transform="scale(0.015625)"/>
       <path id="SimHei-4c" d="M 2900 125 
L 300 125 
L 300 4400 
L 875 4400 
L 875 600 
L 2900 600 
L 2900 125 
z
" transform="scale(0.015625)"/>
      </defs>
      <use xlink:href="#SimHei-44"/>
      <use xlink:href="#SimHei-52" x="50"/>
      <use xlink:href="#SimHei-4c" x="100"/>
      <use xlink:href="#SimHei-20" x="150"/>
      <use xlink:href="#SimHei-70" x="200"/>
      <use xlink:href="#SimHei-6f" x="250"/>
      <use xlink:href="#SimHei-72" x="300"/>
      <use xlink:href="#SimHei-74" x="350"/>
      <use xlink:href="#SimHei-66" x="400"/>
      <use xlink:href="#SimHei-6f" x="450"/>
      <use xlink:href="#SimHei-6c" x="500"/>
      <use xlink:href="#SimHei-69" x="550"/>
      <use xlink:href="#SimHei-6f" x="600"/>
     </g>
    </g>
   </g>
  </g>
 </g>
 <defs>
  <clipPath id="p86436b1957">
   <rect x="46.2" y="7.2" width="781.2" height="244.8"/>
  </clipPath>
 </defs>
</svg>
