<?xml version="1.0" encoding="utf-8" standalone="no"?>
<!DOCTYPE svg PUBLIC "-//W3C//DTD SVG 1.1//EN"
  "http://www.w3.org/Graphics/SVG/1.1/DTD/svg11.dtd">
<svg xmlns:xlink="http://www.w3.org/1999/xlink" width="833.084375pt" height="279.005pt" viewBox="0 0 833.084375 279.005" xmlns="http://www.w3.org/2000/svg" version="1.1">
 <metadata>
  <rdf:RDF xmlns:dc="http://purl.org/dc/elements/1.1/" xmlns:cc="http://creativecommons.org/ns#" xmlns:rdf="http://www.w3.org/1999/02/22-rdf-syntax-ns#">
   <cc:Work>
    <dc:type rdf:resource="http://purl.org/dc/dcmitype/StillImage"/>
    <dc:date>2024-12-25T17:32:10.408080</dc:date>
    <dc:format>image/svg+xml</dc:format>
    <dc:creator>
     <cc:Agent>
      <dc:title>Matplotlib v3.9.3, https://matplotlib.org/</dc:title>
     </cc:Agent>
    </dc:creator>
   </cc:Work>
  </rdf:RDF>
 </metadata>
 <defs>
  <style type="text/css">*{stroke-linejoin: round; stroke-linecap: butt}</style>
 </defs>
 <g id="figure_1">
  <g id="patch_1">
   <path d="M 0 279.005 
L 833.084375 279.005 
L 833.084375 0 
L 0 0 
z
" style="fill: #ffffff"/>
  </g>
  <g id="axes_1">
   <g id="patch_2">
    <path d="M 44.684375 256.68 
L 399.775284 256.68 
L 399.775284 7.2 
L 44.684375 7.2 
z
" style="fill: #ffffff"/>
   </g>
   <g id="matplotlib.axis_1">
    <g id="xtick_1">
     <g id="line2d_1">
      <defs>
       <path id="m1e4bdb9ed5" d="M 0 0 
L 0 3.5 
" style="stroke: #000000; stroke-width: 0.8"/>
      </defs>
      <g>
       <use xlink:href="#m1e4bdb9ed5" x="50.993097" y="256.68" style="stroke: #000000; stroke-width: 0.8"/>
      </g>
     </g>
     <g id="text_1">
      <!-- 2023-08 -->
      <g transform="translate(33.493097 270.555) scale(0.1 -0.1)">
       <defs>
        <path id="SimHei-32" d="M 300 250 
Q 325 625 650 925 
Q 975 1225 1475 1862 
Q 1975 2500 2125 2850 
Q 2275 3200 2237 3450 
Q 2200 3700 2000 3862 
Q 1800 4025 1537 4000 
Q 1275 3975 1037 3800 
Q 800 3625 675 3275 
L 200 3350 
Q 400 3925 712 4187 
Q 1025 4450 1450 4475 
Q 1700 4500 1900 4462 
Q 2100 4425 2312 4287 
Q 2525 4150 2662 3875 
Q 2800 3600 2762 3212 
Q 2725 2825 2375 2287 
Q 2025 1750 1025 600 
L 2825 600 
L 2825 150 
L 300 150 
L 300 250 
z
" transform="scale(0.015625)"/>
        <path id="SimHei-30" d="M 225 2537 
Q 250 3200 412 3587 
Q 575 3975 875 4225 
Q 1175 4475 1612 4475 
Q 2050 4475 2375 4112 
Q 2700 3750 2800 3200 
Q 2900 2650 2862 1937 
Q 2825 1225 2612 775 
Q 2400 325 1975 150 
Q 1550 -25 1125 187 
Q 700 400 525 750 
Q 350 1100 275 1487 
Q 200 1875 225 2537 
z
M 750 2687 
Q 675 2000 800 1462 
Q 925 925 1212 700 
Q 1500 475 1800 612 
Q 2100 750 2237 1162 
Q 2375 1575 2375 2062 
Q 2375 2550 2337 2950 
Q 2300 3350 2112 3675 
Q 1925 4000 1612 4012 
Q 1300 4025 1062 3700 
Q 825 3375 750 2687 
z
" transform="scale(0.015625)"/>
        <path id="SimHei-33" d="M 250 1225 
L 700 1300 
Q 800 975 1025 762 
Q 1250 550 1587 562 
Q 1925 575 2125 837 
Q 2325 1100 2300 1437 
Q 2275 1775 2037 1962 
Q 1800 2150 1275 2225 
L 1275 2550 
Q 1800 2600 2037 2825 
Q 2275 3050 2250 3412 
Q 2225 3775 1925 3937 
Q 1625 4100 1287 3975 
Q 950 3850 750 3275 
L 300 3350 
Q 450 3800 712 4100 
Q 975 4400 1425 4450 
Q 1875 4500 2212 4337 
Q 2550 4175 2687 3837 
Q 2825 3500 2725 3100 
Q 2625 2700 2150 2400 
Q 2500 2250 2687 1950 
Q 2875 1650 2812 1162 
Q 2750 675 2375 375 
Q 2000 75 1525 87 
Q 1050 100 700 387 
Q 350 675 250 1225 
z
" transform="scale(0.015625)"/>
        <path id="SimHei-2d" d="M 2975 2125 
L 125 2125 
L 125 2525 
L 2975 2525 
L 2975 2125 
z
" transform="scale(0.015625)"/>
        <path id="SimHei-38" d="M 175 1375 
Q 175 1675 325 1962 
Q 475 2250 825 2425 
Q 525 2600 425 2812 
Q 325 3025 312 3300 
Q 300 3575 387 3775 
Q 475 3975 650 4150 
Q 825 4325 1037 4387 
Q 1250 4450 1500 4450 
Q 1750 4450 1950 4400 
Q 2150 4350 2375 4187 
Q 2600 4025 2700 3725 
Q 2800 3425 2687 3025 
Q 2575 2625 2100 2400 
Q 2525 2275 2700 2012 
Q 2875 1750 2875 1375 
Q 2875 1000 2762 775 
Q 2650 550 2512 400 
Q 2375 250 2137 162 
Q 1900 75 1537 75 
Q 1175 75 912 162 
Q 650 250 475 425 
Q 300 600 237 837 
Q 175 1075 175 1375 
z
M 687 1400 
Q 675 1100 787 875 
Q 900 650 1200 587 
Q 1500 525 1825 600 
Q 2150 675 2275 950 
Q 2400 1225 2362 1500 
Q 2325 1775 2050 1962 
Q 1775 2150 1450 2125 
Q 1125 2100 912 1900 
Q 700 1700 687 1400 
z
M 775 3350 
Q 775 3100 950 2875 
Q 1125 2650 1500 2650 
Q 1875 2650 2062 2875 
Q 2250 3100 2237 3412 
Q 2225 3725 2012 3875 
Q 1800 4025 1437 4000 
Q 1075 3975 925 3787 
Q 775 3600 775 3350 
z
" transform="scale(0.015625)"/>
       </defs>
       <use xlink:href="#SimHei-32"/>
       <use xlink:href="#SimHei-30" x="50"/>
       <use xlink:href="#SimHei-32" x="100"/>
       <use xlink:href="#SimHei-33" x="150"/>
       <use xlink:href="#SimHei-2d" x="200"/>
       <use xlink:href="#SimHei-30" x="250"/>
       <use xlink:href="#SimHei-38" x="300"/>
      </g>
     </g>
    </g>
    <g id="xtick_2">
     <g id="line2d_2">
      <g>
       <use xlink:href="#m1e4bdb9ed5" x="101.790596" y="256.68" style="stroke: #000000; stroke-width: 0.8"/>
      </g>
     </g>
     <g id="text_2">
      <!-- 2023-09 -->
      <g transform="translate(84.290596 270.555) scale(0.1 -0.1)">
       <defs>
        <path id="SimHei-39" d="M 800 75 
Q 1350 1000 1700 1750 
Q 1075 1650 662 1912 
Q 250 2175 162 2625 
Q 75 3075 175 3437 
Q 275 3800 487 4037 
Q 700 4275 1000 4375 
Q 1300 4475 1537 4475 
Q 1775 4475 2025 4375 
Q 2275 4275 2475 4075 
Q 2675 3875 2750 3662 
Q 2825 3450 2825 3112 
Q 2825 2775 2575 2250 
Q 2325 1725 1350 75 
L 800 75 
z
M 662 2875 
Q 700 2550 937 2337 
Q 1175 2125 1450 2150 
Q 1725 2175 1887 2300 
Q 2050 2425 2200 2725 
Q 2300 3100 2250 3362 
Q 2200 3625 1987 3800 
Q 1775 3975 1525 3975 
Q 1375 4000 1137 3900 
Q 900 3800 762 3500 
Q 625 3200 662 2875 
z
" transform="scale(0.015625)"/>
       </defs>
       <use xlink:href="#SimHei-32"/>
       <use xlink:href="#SimHei-30" x="50"/>
       <use xlink:href="#SimHei-32" x="100"/>
       <use xlink:href="#SimHei-33" x="150"/>
       <use xlink:href="#SimHei-2d" x="200"/>
       <use xlink:href="#SimHei-30" x="250"/>
       <use xlink:href="#SimHei-39" x="300"/>
      </g>
     </g>
    </g>
    <g id="xtick_3">
     <g id="line2d_3">
      <g>
       <use xlink:href="#m1e4bdb9ed5" x="150.949467" y="256.68" style="stroke: #000000; stroke-width: 0.8"/>
      </g>
     </g>
     <g id="text_3">
      <!-- 2023-10 -->
      <g transform="translate(133.449467 270.555) scale(0.1 -0.1)">
       <defs>
        <path id="SimHei-31" d="M 1400 3600 
Q 1075 3275 575 2975 
L 575 3450 
Q 1200 3875 1600 4450 
L 1900 4450 
L 1900 150 
L 1400 150 
L 1400 3600 
z
" transform="scale(0.015625)"/>
       </defs>
       <use xlink:href="#SimHei-32"/>
       <use xlink:href="#SimHei-30" x="50"/>
       <use xlink:href="#SimHei-32" x="100"/>
       <use xlink:href="#SimHei-33" x="150"/>
       <use xlink:href="#SimHei-2d" x="200"/>
       <use xlink:href="#SimHei-31" x="250"/>
       <use xlink:href="#SimHei-30" x="300"/>
      </g>
     </g>
    </g>
    <g id="xtick_4">
     <g id="line2d_4">
      <g>
       <use xlink:href="#m1e4bdb9ed5" x="201.746967" y="256.68" style="stroke: #000000; stroke-width: 0.8"/>
      </g>
     </g>
     <g id="text_4">
      <!-- 2023-11 -->
      <g transform="translate(184.246967 270.555) scale(0.1 -0.1)">
       <use xlink:href="#SimHei-32"/>
       <use xlink:href="#SimHei-30" x="50"/>
       <use xlink:href="#SimHei-32" x="100"/>
       <use xlink:href="#SimHei-33" x="150"/>
       <use xlink:href="#SimHei-2d" x="200"/>
       <use xlink:href="#SimHei-31" x="250"/>
       <use xlink:href="#SimHei-31" x="300"/>
      </g>
     </g>
    </g>
    <g id="xtick_5">
     <g id="line2d_5">
      <g>
       <use xlink:href="#m1e4bdb9ed5" x="250.905837" y="256.68" style="stroke: #000000; stroke-width: 0.8"/>
      </g>
     </g>
     <g id="text_5">
      <!-- 2023-12 -->
      <g transform="translate(233.405837 270.555) scale(0.1 -0.1)">
       <use xlink:href="#SimHei-32"/>
       <use xlink:href="#SimHei-30" x="50"/>
       <use xlink:href="#SimHei-32" x="100"/>
       <use xlink:href="#SimHei-33" x="150"/>
       <use xlink:href="#SimHei-2d" x="200"/>
       <use xlink:href="#SimHei-31" x="250"/>
       <use xlink:href="#SimHei-32" x="300"/>
      </g>
     </g>
    </g>
    <g id="xtick_6">
     <g id="line2d_6">
      <g>
       <use xlink:href="#m1e4bdb9ed5" x="301.703337" y="256.68" style="stroke: #000000; stroke-width: 0.8"/>
      </g>
     </g>
     <g id="text_6">
      <!-- 2024-01 -->
      <g transform="translate(284.203337 270.555) scale(0.1 -0.1)">
       <defs>
        <path id="SimHei-34" d="M 2000 1100 
L 75 1100 
L 75 1525 
L 2100 4450 
L 2475 4450 
L 2475 1525 
L 3075 1525 
L 3075 1100 
L 2475 1100 
L 2475 150 
L 2000 150 
L 2000 1100 
z
M 2000 1525 
L 2000 3500 
L 600 1525 
L 2000 1525 
z
" transform="scale(0.015625)"/>
       </defs>
       <use xlink:href="#SimHei-32"/>
       <use xlink:href="#SimHei-30" x="50"/>
       <use xlink:href="#SimHei-32" x="100"/>
       <use xlink:href="#SimHei-34" x="150"/>
       <use xlink:href="#SimHei-2d" x="200"/>
       <use xlink:href="#SimHei-30" x="250"/>
       <use xlink:href="#SimHei-31" x="300"/>
      </g>
     </g>
    </g>
    <g id="xtick_7">
     <g id="line2d_7">
      <g>
       <use xlink:href="#m1e4bdb9ed5" x="352.500837" y="256.68" style="stroke: #000000; stroke-width: 0.8"/>
      </g>
     </g>
     <g id="text_7">
      <!-- 2024-02 -->
      <g transform="translate(335.000837 270.555) scale(0.1 -0.1)">
       <use xlink:href="#SimHei-32"/>
       <use xlink:href="#SimHei-30" x="50"/>
       <use xlink:href="#SimHei-32" x="100"/>
       <use xlink:href="#SimHei-34" x="150"/>
       <use xlink:href="#SimHei-2d" x="200"/>
       <use xlink:href="#SimHei-30" x="250"/>
       <use xlink:href="#SimHei-32" x="300"/>
      </g>
     </g>
    </g>
   </g>
   <g id="matplotlib.axis_2">
    <g id="ytick_1">
     <g id="line2d_8">
      <defs>
       <path id="m4bede03b23" d="M 0 0 
L -3.5 0 
" style="stroke: #000000; stroke-width: 0.8"/>
      </defs>
      <g>
       <use xlink:href="#m4bede03b23" x="44.684375" y="245.34" style="stroke: #000000; stroke-width: 0.8"/>
      </g>
     </g>
     <g id="text_8">
      <!-- 0.0 -->
      <g transform="translate(22.684375 248.7775) scale(0.1 -0.1)">
       <defs>
        <path id="SimHei-2e" d="M 1075 125 
L 500 125 
L 500 675 
L 1075 675 
L 1075 125 
z
" transform="scale(0.015625)"/>
       </defs>
       <use xlink:href="#SimHei-30"/>
       <use xlink:href="#SimHei-2e" x="50"/>
       <use xlink:href="#SimHei-30" x="100"/>
      </g>
     </g>
    </g>
    <g id="ytick_2">
     <g id="line2d_9">
      <g>
       <use xlink:href="#m4bede03b23" x="44.684375" y="199.98" style="stroke: #000000; stroke-width: 0.8"/>
      </g>
     </g>
     <g id="text_9">
      <!-- 0.2 -->
      <g transform="translate(22.684375 203.4175) scale(0.1 -0.1)">
       <use xlink:href="#SimHei-30"/>
       <use xlink:href="#SimHei-2e" x="50"/>
       <use xlink:href="#SimHei-32" x="100"/>
      </g>
     </g>
    </g>
    <g id="ytick_3">
     <g id="line2d_10">
      <g>
       <use xlink:href="#m4bede03b23" x="44.684375" y="154.62" style="stroke: #000000; stroke-width: 0.8"/>
      </g>
     </g>
     <g id="text_10">
      <!-- 0.4 -->
      <g transform="translate(22.684375 158.0575) scale(0.1 -0.1)">
       <use xlink:href="#SimHei-30"/>
       <use xlink:href="#SimHei-2e" x="50"/>
       <use xlink:href="#SimHei-34" x="100"/>
      </g>
     </g>
    </g>
    <g id="ytick_4">
     <g id="line2d_11">
      <g>
       <use xlink:href="#m4bede03b23" x="44.684375" y="109.26" style="stroke: #000000; stroke-width: 0.8"/>
      </g>
     </g>
     <g id="text_11">
      <!-- 0.6 -->
      <g transform="translate(22.684375 112.6975) scale(0.1 -0.1)">
       <defs>
        <path id="SimHei-36" d="M 250 1612 
Q 275 1975 387 2225 
Q 500 2475 725 2850 
L 1750 4450 
L 2325 4450 
L 1275 2800 
Q 1950 2975 2350 2750 
Q 2750 2525 2887 2237 
Q 3025 1950 3037 1612 
Q 3050 1275 2937 950 
Q 2825 625 2537 362 
Q 2250 100 1737 75 
Q 1225 50 862 262 
Q 500 475 362 862 
Q 225 1250 250 1612 
z
M 1025 787 
Q 1250 550 1625 525 
Q 2000 500 2250 775 
Q 2500 1050 2500 1575 
Q 2500 2100 2187 2300 
Q 1875 2500 1487 2450 
Q 1100 2400 925 2075 
Q 750 1750 775 1387 
Q 800 1025 1025 787 
z
" transform="scale(0.015625)"/>
       </defs>
       <use xlink:href="#SimHei-30"/>
       <use xlink:href="#SimHei-2e" x="50"/>
       <use xlink:href="#SimHei-36" x="100"/>
      </g>
     </g>
    </g>
    <g id="ytick_5">
     <g id="line2d_12">
      <g>
       <use xlink:href="#m4bede03b23" x="44.684375" y="63.9" style="stroke: #000000; stroke-width: 0.8"/>
      </g>
     </g>
     <g id="text_12">
      <!-- 0.8 -->
      <g transform="translate(22.684375 67.3375) scale(0.1 -0.1)">
       <use xlink:href="#SimHei-30"/>
       <use xlink:href="#SimHei-2e" x="50"/>
       <use xlink:href="#SimHei-38" x="100"/>
      </g>
     </g>
    </g>
    <g id="ytick_6">
     <g id="line2d_13">
      <g>
       <use xlink:href="#m4bede03b23" x="44.684375" y="18.54" style="stroke: #000000; stroke-width: 0.8"/>
      </g>
     </g>
     <g id="text_13">
      <!-- 1.0 -->
      <g transform="translate(22.684375 21.9775) scale(0.1 -0.1)">
       <use xlink:href="#SimHei-31"/>
       <use xlink:href="#SimHei-2e" x="50"/>
       <use xlink:href="#SimHei-30" x="100"/>
      </g>
     </g>
    </g>
    <g id="text_14">
     <!-- Stock Portfolio Weights -->
     <g transform="translate(16.934375 212.44) rotate(-90) scale(0.14 -0.14)">
      <defs>
       <path id="SimHei-53" d="M 2900 1325 
Q 2900 750 2537 412 
Q 2175 75 1550 75 
Q 925 75 575 425 
Q 225 775 225 1300 
L 225 1475 
L 800 1475 
L 800 1325 
Q 800 950 1025 750 
Q 1250 550 1550 550 
Q 1950 550 2137 762 
Q 2325 975 2325 1275 
Q 2325 1525 2100 1737 
Q 1875 1950 1450 2125 
Q 850 2350 587 2625 
Q 325 2900 325 3275 
Q 325 3800 687 4125 
Q 1050 4450 1550 4450 
Q 2200 4450 2487 4062 
Q 2775 3675 2775 3225 
L 2200 3225 
Q 2225 3500 2050 3725 
Q 1875 3950 1550 3950 
Q 1250 3950 1075 3787 
Q 900 3625 900 3350 
Q 900 3125 1037 2962 
Q 1175 2800 1750 2575 
Q 2300 2350 2600 2037 
Q 2900 1725 2900 1325 
z
" transform="scale(0.015625)"/>
       <path id="SimHei-74" d="M 2750 200 
Q 2625 150 2462 112 
Q 2300 75 2025 75 
Q 1575 75 1300 325 
Q 1025 575 1025 1025 
L 1025 2525 
L 175 2525 
L 175 2925 
L 1025 2925 
L 1025 3900 
L 1525 3900 
L 1525 2925 
L 2550 2925 
L 2550 2525 
L 1525 2525 
L 1525 1000 
Q 1525 800 1625 662 
Q 1725 525 2000 525 
Q 2275 525 2450 575 
Q 2625 625 2750 700 
L 2750 200 
z
" transform="scale(0.015625)"/>
       <path id="SimHei-6f" d="M 2925 1525 
Q 2925 875 2525 475 
Q 2125 75 1575 75 
Q 1025 75 625 475 
Q 225 875 225 1525 
Q 225 2175 625 2575 
Q 1025 2975 1575 2975 
Q 2125 2975 2525 2575 
Q 2925 2175 2925 1525 
z
M 2375 1525 
Q 2375 2025 2125 2275 
Q 1875 2525 1575 2525 
Q 1275 2525 1025 2275 
Q 775 2025 775 1525 
Q 775 1025 1025 775 
Q 1275 525 1575 525 
Q 1875 525 2125 775 
Q 2375 1025 2375 1525 
z
" transform="scale(0.015625)"/>
       <path id="SimHei-63" d="M 2850 1250 
Q 2850 725 2487 400 
Q 2125 75 1575 75 
Q 1025 75 625 462 
Q 225 850 225 1525 
Q 225 2200 625 2587 
Q 1025 2975 1575 2975 
Q 2125 2975 2450 2687 
Q 2775 2400 2775 2000 
L 2225 2000 
Q 2200 2300 2012 2412 
Q 1825 2525 1575 2525 
Q 1275 2525 1025 2287 
Q 775 2050 775 1525 
Q 775 1000 1025 762 
Q 1275 525 1575 525 
Q 1900 525 2100 700 
Q 2300 875 2300 1250 
L 2850 1250 
z
" transform="scale(0.015625)"/>
       <path id="SimHei-6b" d="M 2925 125 
L 2350 125 
L 1450 1650 
L 875 1100 
L 875 125 
L 375 125 
L 375 4400 
L 875 4400 
L 875 1675 
L 2125 2925 
L 2750 2925 
L 1775 1975 
L 2925 125 
z
" transform="scale(0.015625)"/>
       <path id="SimHei-20" transform="scale(0.015625)"/>
       <path id="SimHei-50" d="M 2950 3100 
Q 2950 2500 2600 2150 
Q 2250 1800 1625 1800 
L 900 1800 
L 900 125 
L 325 125 
L 325 4400 
L 1625 4400 
Q 2250 4400 2600 4050 
Q 2950 3700 2950 3100 
z
M 2375 3100 
Q 2375 3575 2150 3750 
Q 1925 3925 1475 3925 
L 900 3925 
L 900 2275 
L 1475 2275 
Q 1925 2275 2150 2450 
Q 2375 2625 2375 3100 
z
" transform="scale(0.015625)"/>
       <path id="SimHei-72" d="M 2500 2425 
Q 2025 2500 1700 2287 
Q 1375 2075 1150 1550 
L 1150 125 
L 650 125 
L 650 2925 
L 1150 2925 
L 1150 2200 
Q 1375 2600 1712 2787 
Q 2050 2975 2500 2975 
L 2500 2425 
z
" transform="scale(0.015625)"/>
       <path id="SimHei-66" d="M 2850 3825 
Q 2725 3900 2550 3950 
Q 2375 4000 2100 4000 
Q 1825 4000 1725 3862 
Q 1625 3725 1625 3525 
L 1625 2925 
L 2650 2925 
L 2650 2525 
L 1625 2525 
L 1625 125 
L 1125 125 
L 1125 2525 
L 275 2525 
L 275 2925 
L 1125 2925 
L 1125 3500 
Q 1125 3950 1400 4200 
Q 1675 4450 2125 4450 
Q 2400 4450 2562 4412 
Q 2725 4375 2850 4325 
L 2850 3825 
z
" transform="scale(0.015625)"/>
       <path id="SimHei-6c" d="M 1825 125 
L 1325 125 
L 1325 4400 
L 1825 4400 
L 1825 125 
z
" transform="scale(0.015625)"/>
       <path id="SimHei-69" d="M 1800 3725 
L 1300 3725 
L 1300 4375 
L 1800 4375 
L 1800 3725 
z
M 1800 125 
L 1300 125 
L 1300 2925 
L 1800 2925 
L 1800 125 
z
" transform="scale(0.015625)"/>
       <path id="SimHei-57" d="M 3075 4400 
L 2525 75 
L 2025 75 
L 1575 3275 
L 1525 3275 
L 1075 75 
L 575 75 
L 25 4400 
L 575 4400 
L 850 1675 
L 900 1675 
L 1275 4400 
L 1825 4400 
L 2200 1675 
L 2250 1675 
L 2525 4400 
L 3075 4400 
z
" transform="scale(0.015625)"/>
       <path id="SimHei-65" d="M 2850 1075 
Q 2800 625 2450 350 
Q 2100 75 1625 75 
Q 1025 75 637 462 
Q 250 850 250 1525 
Q 250 2200 637 2587 
Q 1025 2975 1625 2975 
Q 2150 2975 2487 2637 
Q 2825 2300 2825 1525 
L 800 1525 
Q 800 975 1037 750 
Q 1275 525 1625 525 
Q 1900 525 2075 662 
Q 2250 800 2300 1075 
L 2850 1075 
z
M 2250 1925 
Q 2200 2275 2025 2412 
Q 1850 2550 1575 2550 
Q 1325 2550 1125 2412 
Q 925 2275 825 1925 
L 2250 1925 
z
" transform="scale(0.015625)"/>
       <path id="SimHei-67" d="M 2975 2500 
Q 2800 2550 2637 2562 
Q 2475 2575 2300 2525 
Q 2375 2450 2425 2337 
Q 2475 2225 2475 2000 
Q 2475 1575 2187 1300 
Q 1900 1025 1475 1025 
Q 1375 1025 1212 1062 
Q 1050 1100 950 1150 
Q 875 1100 850 1050 
Q 825 1000 825 925 
Q 825 800 1000 737 
Q 1175 675 1625 675 
Q 2350 675 2612 475 
Q 2875 275 2875 -25 
Q 2875 -425 2487 -612 
Q 2100 -800 1575 -800 
Q 900 -800 575 -625 
Q 250 -450 250 -150 
Q 250 0 375 150 
Q 500 300 700 400 
Q 550 475 462 587 
Q 375 700 375 875 
Q 375 1025 487 1137 
Q 600 1250 750 1325 
Q 625 1450 550 1625 
Q 475 1800 475 2000 
Q 475 2425 762 2700 
Q 1050 2975 1475 2975 
Q 1700 2975 1862 2912 
Q 2025 2850 2150 2725 
Q 2350 2875 2550 2937 
Q 2750 3000 2975 2975 
L 2975 2500 
z
M 1975 2000 
Q 1975 2250 1850 2400 
Q 1725 2550 1475 2550 
Q 1225 2550 1100 2400 
Q 975 2250 975 2000 
Q 975 1750 1100 1600 
Q 1225 1450 1475 1450 
Q 1725 1450 1850 1600 
Q 1975 1750 1975 2000 
z
M 2400 -75 
Q 2400 25 2287 125 
Q 2175 225 1725 225 
Q 1625 225 1450 237 
Q 1275 250 1050 275 
Q 850 200 775 100 
Q 700 0 700 -100 
Q 700 -250 900 -350 
Q 1100 -450 1600 -450 
Q 2025 -450 2212 -337 
Q 2400 -225 2400 -75 
z
" transform="scale(0.015625)"/>
       <path id="SimHei-68" d="M 2800 125 
L 2300 125 
L 2300 1925 
Q 2300 2225 2150 2400 
Q 2000 2575 1750 2575 
Q 1425 2575 1137 2237 
Q 850 1900 850 1400 
L 850 125 
L 350 125 
L 350 4400 
L 850 4400 
L 850 2400 
Q 1050 2675 1287 2825 
Q 1525 2975 1900 2975 
Q 2350 2975 2575 2725 
Q 2800 2475 2800 2100 
L 2800 125 
z
" transform="scale(0.015625)"/>
       <path id="SimHei-73" d="M 2750 900 
Q 2750 500 2437 287 
Q 2125 75 1650 75 
Q 1050 75 725 312 
Q 400 550 400 1000 
L 900 1000 
Q 900 700 1112 600 
Q 1325 500 1625 500 
Q 1925 500 2075 612 
Q 2225 725 2225 900 
Q 2225 1025 2100 1150 
Q 1975 1275 1475 1350 
Q 900 1425 687 1637 
Q 475 1850 475 2200 
Q 475 2500 762 2737 
Q 1050 2975 1600 2975 
Q 2100 2975 2387 2750 
Q 2675 2525 2675 2150 
L 2175 2150 
Q 2175 2375 2012 2462 
Q 1850 2550 1600 2550 
Q 1275 2550 1137 2437 
Q 1000 2325 1000 2175 
Q 1000 2000 1125 1900 
Q 1250 1800 1650 1750 
Q 2300 1650 2525 1437 
Q 2750 1225 2750 900 
z
" transform="scale(0.015625)"/>
      </defs>
      <use xlink:href="#SimHei-53"/>
      <use xlink:href="#SimHei-74" x="50"/>
      <use xlink:href="#SimHei-6f" x="100"/>
      <use xlink:href="#SimHei-63" x="150"/>
      <use xlink:href="#SimHei-6b" x="200"/>
      <use xlink:href="#SimHei-20" x="250"/>
      <use xlink:href="#SimHei-50" x="300"/>
      <use xlink:href="#SimHei-6f" x="350"/>
      <use xlink:href="#SimHei-72" x="400"/>
      <use xlink:href="#SimHei-74" x="450"/>
      <use xlink:href="#SimHei-66" x="500"/>
      <use xlink:href="#SimHei-6f" x="550"/>
      <use xlink:href="#SimHei-6c" x="600"/>
      <use xlink:href="#SimHei-69" x="650"/>
      <use xlink:href="#SimHei-6f" x="700"/>
      <use xlink:href="#SimHei-20" x="750"/>
      <use xlink:href="#SimHei-57" x="800"/>
      <use xlink:href="#SimHei-65" x="850"/>
      <use xlink:href="#SimHei-69" x="900"/>
      <use xlink:href="#SimHei-67" x="950"/>
      <use xlink:href="#SimHei-68" x="1000"/>
      <use xlink:href="#SimHei-74" x="1050"/>
      <use xlink:href="#SimHei-73" x="1100"/>
     </g>
    </g>
   </g>
   <g id="line2d_14">
    <path d="M 60.824871 18.54 
L 62.4635 219.819384 
L 64.102129 219.093177 
L 65.740758 219.532815 
L 67.379387 219.830722 
L 72.295274 219.678001 
L 73.933903 219.831493 
L 77.211161 219.459769 
L 78.84979 219.647253 
L 83.765677 219.678085 
L 85.404306 219.310408 
L 88.681564 219.652899 
L 90.320193 219.47689 
L 95.23608 219.651653 
L 98.513338 219.228715 
L 101.790596 219.588335 
L 108.345113 219.228372 
L 109.983742 219.444632 
L 113.261 219.238107 
L 119.815516 219.511022 
L 123.092774 219.887449 
L 124.731403 219.705145 
L 131.285919 219.319794 
L 134.563177 219.608486 
L 136.201806 219.933926 
L 142.756322 219.545413 
L 144.394951 219.324949 
L 146.03358 219.411953 
L 164.058499 219.825293 
L 165.697128 219.58406 
L 170.613015 219.377765 
L 175.528902 219.415132 
L 178.80616 219.769606 
L 180.444789 219.219334 
L 182.083419 219.757627 
L 200.108338 219.43171 
L 209.940112 219.67562 
L 211.578741 219.483024 
L 214.855999 219.506492 
L 216.494628 219.583643 
L 223.049144 219.578349 
L 224.687773 219.526548 
L 226.326402 219.193542 
L 227.965031 219.616957 
L 232.880918 219.26731 
L 234.519547 219.651706 
L 236.158176 219.430499 
L 239.435434 219.676598 
L 244.351321 219.350507 
L 245.98995 219.528283 
L 247.628579 219.312965 
L 249.267208 219.524209 
L 250.905837 219.395486 
L 260.737612 219.524965 
L 262.376241 219.797085 
L 268.930757 219.595181 
L 270.569386 219.189673 
L 278.762531 219.569421 
L 280.40116 219.366376 
L 282.039789 219.502286 
L 285.317047 219.479489 
L 290.232934 219.779946 
L 291.871563 219.674665 
L 293.510192 219.233837 
L 295.148821 219.451861 
L 296.78745 219.788572 
L 303.341966 219.686757 
L 304.980595 219.329969 
L 306.619224 219.959429 
L 308.257853 219.374844 
L 313.17374 219.252814 
L 316.450998 219.53792 
L 318.089627 219.7088 
L 319.728256 219.531751 
L 324.644143 219.143067 
L 326.282772 219.252672 
L 327.921401 219.598188 
L 331.19866 219.282995 
L 336.114547 219.494297 
L 337.753176 219.131938 
L 339.391805 219.400892 
L 341.030434 219.926417 
L 342.669063 219.659617 
L 347.58495 219.695941 
L 349.223579 219.337923 
L 352.500837 219.541661 
L 354.139466 219.165012 
L 359.055353 219.851088 
L 360.693982 219.477242 
L 363.97124 219.465901 
L 383.634788 219.47873 
L 383.634788 219.47873 
" clip-path="url(#pf14366df50)" style="fill: none; stroke: #1f77b4; stroke-width: 1.5; stroke-linecap: square"/>
   </g>
   <g id="line2d_15">
    <path d="M 60.824871 245.34 
L 62.4635 225.349862 
L 64.102129 231.234759 
L 65.740758 227.672104 
L 67.379387 225.257977 
L 72.295274 226.495573 
L 73.933903 225.251723 
L 77.211161 228.264045 
L 78.84979 226.744736 
L 83.765677 226.49488 
L 85.404306 229.474417 
L 88.681564 226.698989 
L 90.320193 228.125296 
L 95.23608 226.709085 
L 96.874709 228.024162 
L 98.513338 230.136404 
L 100.151967 228.316241 
L 101.790596 227.222175 
L 106.706483 229.108223 
L 108.345113 230.139197 
L 109.983742 228.3867 
L 111.622371 229.437296 
L 113.261 229.787712 
L 118.176887 228.508124 
L 119.815516 227.848701 
L 123.092774 224.798274 
L 124.731403 226.275596 
L 129.64729 228.451085 
L 131.285919 229.398346 
L 132.924548 228.321346 
L 134.563177 227.058903 
L 136.201806 224.421643 
L 141.117693 226.187926 
L 142.756322 227.570019 
L 144.394951 229.356573 
L 146.03358 228.651514 
L 164.058499 225.301964 
L 165.697128 227.256835 
L 168.974386 228.186017 
L 170.613015 228.928562 
L 175.528902 228.625774 
L 177.167531 226.989504 
L 178.80616 225.753233 
L 180.444789 230.212439 
L 182.083419 225.842021 
L 186.999306 226.785553 
L 188.637935 226.642205 
L 190.276564 227.230884 
L 191.915193 226.861283 
L 193.553822 228.029666 
L 198.469709 228.666586 
L 200.108338 228.49142 
L 203.385596 227.808675 
L 205.024225 227.364003 
L 209.940112 226.514864 
L 211.578741 228.075583 
L 213.21737 228.358572 
L 214.855999 227.88542 
L 216.494628 227.260214 
L 221.410515 226.639187 
L 223.049144 227.303118 
L 224.687773 227.722898 
L 226.326402 230.421449 
L 227.965031 226.990251 
L 232.880918 229.823647 
L 234.519547 226.708649 
L 236.158176 228.501239 
L 237.796805 227.780959 
L 239.435434 226.506949 
L 244.351321 229.149469 
L 245.98995 227.708825 
L 247.628579 228.899468 
L 249.267208 227.741827 
L 250.905837 228.784982 
L 255.821724 228.581706 
L 257.460354 228.945119 
L 259.098983 227.80567 
L 260.737612 227.735723 
L 262.376241 225.530554 
L 268.930757 227.166723 
L 270.569386 230.452798 
L 272.208015 228.152544 
L 273.846644 229.002768 
L 278.762531 227.375458 
L 280.40116 229.020859 
L 282.039789 227.919495 
L 285.317047 228.104245 
L 290.232934 225.669449 
L 291.871563 226.522603 
L 293.510192 230.094907 
L 295.148821 228.328137 
L 296.78745 225.599526 
L 303.341966 226.424616 
L 304.980595 229.315891 
L 306.619224 224.214987 
L 308.257853 228.952247 
L 313.17374 229.941124 
L 314.812369 228.398841 
L 316.450998 227.438491 
L 318.089627 226.245983 
L 319.728256 227.680727 
L 324.644143 230.830484 
L 326.282772 229.942284 
L 327.921401 227.142343 
L 329.56003 228.685829 
L 331.19866 229.696554 
L 336.114547 227.984249 
L 337.753176 230.920654 
L 339.391805 228.741156 
L 341.030434 224.482499 
L 342.669063 226.644544 
L 347.58495 226.350187 
L 349.223579 229.251436 
L 350.862208 228.762986 
L 352.500837 227.600411 
L 354.139466 230.652642 
L 359.055353 225.092941 
L 360.693982 228.122447 
L 363.97124 228.21435 
L 381.996159 227.914507 
L 383.634788 228.110384 
L 383.634788 228.110384 
" clip-path="url(#pf14366df50)" style="fill: none; stroke: #ff7f0e; stroke-width: 1.5; stroke-linecap: square"/>
   </g>
   <g id="line2d_16">
    <path d="M 60.824871 245.34 
L 62.4635 219.819384 
L 64.102129 219.093177 
L 65.740758 219.532815 
L 67.379387 219.830722 
L 72.295274 219.678001 
L 73.933903 219.831493 
L 77.211161 219.459769 
L 78.84979 219.647253 
L 83.765677 219.678085 
L 85.404306 219.310408 
L 88.681564 219.652899 
L 90.320193 219.47689 
L 95.23608 219.651653 
L 98.513338 219.228715 
L 101.790596 219.588335 
L 108.345113 219.228372 
L 109.983742 219.444632 
L 113.261 219.238107 
L 119.815516 219.511022 
L 123.092774 219.887449 
L 124.731403 219.705145 
L 131.285919 219.319794 
L 134.563177 219.608486 
L 136.201806 219.933926 
L 142.756322 219.545413 
L 144.394951 219.324949 
L 146.03358 219.411953 
L 164.058499 219.825293 
L 165.697128 219.58406 
L 170.613015 219.377765 
L 175.528902 219.415132 
L 178.80616 219.769606 
L 180.444789 219.219334 
L 182.083419 219.757627 
L 200.108338 219.43171 
L 209.940112 219.67562 
L 211.578741 219.483024 
L 214.855999 219.506492 
L 216.494628 219.583643 
L 223.049144 219.578349 
L 224.687773 219.526548 
L 226.326402 219.193542 
L 227.965031 219.616957 
L 232.880918 219.26731 
L 234.519547 219.651706 
L 236.158176 219.430499 
L 239.435434 219.676598 
L 244.351321 219.350507 
L 245.98995 219.528283 
L 247.628579 219.312965 
L 249.267208 219.524209 
L 250.905837 219.395486 
L 260.737612 219.524965 
L 262.376241 219.797085 
L 268.930757 219.595181 
L 270.569386 219.189673 
L 278.762531 219.569421 
L 280.40116 219.366376 
L 282.039789 219.502286 
L 285.317047 219.479489 
L 290.232934 219.779946 
L 291.871563 219.674665 
L 293.510192 219.233837 
L 295.148821 219.451861 
L 296.78745 219.788572 
L 303.341966 219.686757 
L 304.980595 219.329969 
L 306.619224 219.959429 
L 308.257853 219.374844 
L 313.17374 219.252814 
L 316.450998 219.53792 
L 318.089627 219.7088 
L 319.728256 219.531751 
L 324.644143 219.143067 
L 326.282772 219.252672 
L 327.921401 219.598188 
L 331.19866 219.282995 
L 336.114547 219.494297 
L 337.753176 219.131938 
L 339.391805 219.400892 
L 341.030434 219.926417 
L 342.669063 219.659617 
L 347.58495 219.695941 
L 349.223579 219.337923 
L 352.500837 219.541661 
L 354.139466 219.165012 
L 359.055353 219.851088 
L 360.693982 219.477242 
L 363.97124 219.465901 
L 383.634788 219.47873 
L 383.634788 219.47873 
" clip-path="url(#pf14366df50)" style="fill: none; stroke: #2ca02c; stroke-width: 1.5; stroke-linecap: square"/>
   </g>
   <g id="line2d_17">
    <path d="M 60.824871 245.34 
L 62.4635 219.819384 
L 64.102129 219.093177 
L 65.740758 219.532815 
L 67.379387 219.830722 
L 72.295274 219.678001 
L 73.933903 219.831493 
L 77.211161 219.459769 
L 78.84979 219.647253 
L 83.765677 219.678085 
L 85.404306 219.310408 
L 88.681564 219.652899 
L 90.320193 219.47689 
L 95.23608 219.651653 
L 98.513338 219.228715 
L 101.790596 219.588335 
L 108.345113 219.228372 
L 109.983742 219.444632 
L 113.261 219.238107 
L 119.815516 219.511022 
L 123.092774 219.887449 
L 124.731403 219.705145 
L 131.285919 219.319794 
L 134.563177 219.608486 
L 136.201806 219.933926 
L 142.756322 219.545413 
L 144.394951 219.324949 
L 146.03358 219.411953 
L 164.058499 219.825293 
L 165.697128 219.58406 
L 170.613015 219.377765 
L 175.528902 219.415132 
L 178.80616 219.769606 
L 180.444789 219.219334 
L 182.083419 219.757627 
L 200.108338 219.43171 
L 209.940112 219.67562 
L 211.578741 219.483024 
L 214.855999 219.506492 
L 216.494628 219.583643 
L 223.049144 219.578349 
L 224.687773 219.526548 
L 226.326402 219.193542 
L 227.965031 219.616957 
L 232.880918 219.26731 
L 234.519547 219.651706 
L 236.158176 219.430499 
L 239.435434 219.676598 
L 244.351321 219.350507 
L 245.98995 219.528283 
L 247.628579 219.312965 
L 249.267208 219.524209 
L 250.905837 219.395486 
L 260.737612 219.524965 
L 262.376241 219.797085 
L 268.930757 219.595181 
L 270.569386 219.189673 
L 278.762531 219.569421 
L 280.40116 219.366376 
L 282.039789 219.502286 
L 285.317047 219.479489 
L 290.232934 219.779946 
L 291.871563 219.674665 
L 293.510192 219.233837 
L 295.148821 219.451861 
L 296.78745 219.788572 
L 303.341966 219.686757 
L 304.980595 219.329969 
L 306.619224 219.959429 
L 308.257853 219.374844 
L 313.17374 219.252814 
L 316.450998 219.53792 
L 318.089627 219.7088 
L 319.728256 219.531751 
L 324.644143 219.143067 
L 326.282772 219.252672 
L 327.921401 219.598188 
L 331.19866 219.282995 
L 336.114547 219.494297 
L 337.753176 219.131938 
L 339.391805 219.400892 
L 341.030434 219.926417 
L 342.669063 219.659617 
L 347.58495 219.695941 
L 349.223579 219.337923 
L 352.500837 219.541661 
L 354.139466 219.165012 
L 359.055353 219.851088 
L 360.693982 219.477242 
L 363.97124 219.465901 
L 383.634788 219.47873 
L 383.634788 219.47873 
" clip-path="url(#pf14366df50)" style="fill: none; stroke: #d62728; stroke-width: 1.5; stroke-linecap: square"/>
   </g>
   <g id="line2d_18">
    <path d="M 60.824871 245.34 
L 62.4635 219.819384 
L 64.102129 219.093177 
L 65.740758 219.532815 
L 67.379387 219.830722 
L 72.295274 219.678001 
L 73.933903 219.831493 
L 77.211161 219.459769 
L 78.84979 219.647253 
L 83.765677 219.678085 
L 85.404306 219.310408 
L 88.681564 219.652899 
L 90.320193 219.47689 
L 95.23608 219.651653 
L 98.513338 219.228715 
L 101.790596 219.588335 
L 108.345113 219.228372 
L 109.983742 219.444632 
L 111.622371 219.314988 
L 113.261 219.510686 
L 119.815516 219.511022 
L 123.092774 219.887449 
L 124.731403 219.705145 
L 131.285919 219.319794 
L 134.563177 219.608486 
L 136.201806 219.933926 
L 142.756322 219.545413 
L 144.394951 219.324949 
L 146.03358 219.411953 
L 164.058499 219.825293 
L 165.697128 219.58406 
L 170.613015 219.377765 
L 175.528902 219.415132 
L 178.80616 219.769606 
L 180.444789 219.219334 
L 182.083419 219.765909 
L 190.276564 219.587262 
L 191.915193 219.632871 
L 193.553822 219.48869 
L 201.746967 219.467126 
L 209.940112 219.67562 
L 211.578741 219.483024 
L 214.855999 219.506492 
L 216.494628 219.583643 
L 223.049144 219.578349 
L 224.687773 219.526548 
L 226.326402 219.193542 
L 227.965031 219.616957 
L 232.880918 219.26731 
L 234.519547 219.651706 
L 236.158176 219.430499 
L 239.435434 219.676598 
L 244.351321 219.350507 
L 245.98995 219.528283 
L 247.628579 219.86718 
L 249.267208 219.524209 
L 250.905837 219.395486 
L 260.737612 219.524965 
L 262.376241 219.797085 
L 268.930757 219.595181 
L 270.569386 219.189673 
L 272.208015 220.908159 
L 273.846644 219.36861 
L 278.762531 219.569421 
L 280.40116 219.366376 
L 282.039789 219.502286 
L 285.317047 219.479489 
L 290.232934 219.779946 
L 291.871563 219.674665 
L 293.510192 219.233837 
L 295.148821 219.451861 
L 296.78745 219.788572 
L 303.341966 219.686757 
L 304.980595 219.329969 
L 306.619224 219.959429 
L 308.257853 219.374844 
L 313.17374 219.252814 
L 316.450998 219.73017 
L 318.089627 219.7088 
L 319.728256 219.531751 
L 324.644143 219.143067 
L 326.282772 219.252672 
L 327.921401 219.598188 
L 331.19866 219.282995 
L 336.114547 219.494297 
L 337.753176 219.131938 
L 339.391805 219.400892 
L 341.030434 219.926417 
L 342.669063 219.659617 
L 347.58495 219.695941 
L 349.223579 219.337923 
L 352.500837 219.541661 
L 354.139466 219.165012 
L 359.055353 219.851088 
L 360.693982 219.477242 
L 363.97124 219.465901 
L 383.634788 219.47873 
L 383.634788 219.47873 
" clip-path="url(#pf14366df50)" style="fill: none; stroke: #9467bd; stroke-width: 1.5; stroke-linecap: square"/>
   </g>
   <g id="line2d_19">
    <path d="M 60.824871 245.34 
L 62.4635 235.95149 
L 64.102129 235.684334 
L 67.379387 235.955662 
L 78.84979 235.888167 
L 83.765677 235.89951 
L 85.404306 235.764249 
L 88.681564 235.890244 
L 90.320193 235.825494 
L 96.874709 235.830086 
L 98.513338 235.734196 
L 101.790596 235.866493 
L 113.261 235.737651 
L 124.731403 235.909464 
L 132.924548 235.816594 
L 136.201806 235.993629 
L 146.03358 235.801605 
L 165.697128 235.86492 
L 175.528902 235.802774 
L 178.80616 235.933178 
L 180.444789 235.730744 
L 182.083419 235.928772 
L 203.385596 235.839868 
L 209.940112 235.898602 
L 213.21737 235.814904 
L 223.049144 235.862819 
L 232.880918 235.748394 
L 234.519547 235.889805 
L 236.158176 235.808428 
L 239.435434 235.898962 
L 247.628579 235.765189 
L 249.267208 235.842902 
L 250.905837 235.795547 
L 260.737612 235.84318 
L 262.376241 235.943287 
L 268.930757 235.869011 
L 270.569386 235.719833 
L 278.762531 235.859534 
L 280.40116 235.784839 
L 285.317047 235.82645 
L 291.871563 235.898252 
L 293.510192 235.73608 
L 296.78745 235.940156 
L 303.341966 235.9027 
L 304.980595 235.771445 
L 306.619224 236.00301 
L 308.257853 235.787953 
L 314.812369 235.813076 
L 319.728256 235.845676 
L 326.282772 235.743009 
L 327.921401 235.870117 
L 331.19866 235.754164 
L 336.114547 235.831898 
L 337.753176 235.698594 
L 342.669063 235.892716 
L 347.58495 235.906078 
L 349.223579 235.774371 
L 352.500837 235.849322 
L 354.139466 235.710761 
L 359.055353 235.963154 
L 360.693982 235.825624 
L 383.634788 235.82617 
L 383.634788 235.82617 
" clip-path="url(#pf14366df50)" style="fill: none; stroke: #8c564b; stroke-width: 1.5; stroke-linecap: square"/>
   </g>
   <g id="line2d_20">
    <path d="M 60.824871 245.34 
L 62.4635 235.95149 
L 64.102129 235.684334 
L 67.379387 235.955662 
L 78.84979 235.888167 
L 83.765677 235.89951 
L 85.404306 235.764249 
L 88.681564 235.890244 
L 90.320193 235.825494 
L 96.874709 235.830086 
L 98.513338 235.734196 
L 101.790596 235.866493 
L 113.261 235.737651 
L 124.731403 235.909464 
L 132.924548 235.816594 
L 136.201806 235.993629 
L 146.03358 235.801605 
L 165.697128 235.86492 
L 175.528902 235.802774 
L 178.80616 235.933178 
L 180.444789 235.730744 
L 182.083419 235.928772 
L 203.385596 235.839868 
L 209.940112 235.898602 
L 213.21737 235.814904 
L 223.049144 235.862819 
L 232.880918 235.748394 
L 234.519547 235.889805 
L 236.158176 235.808428 
L 239.435434 235.898962 
L 247.628579 235.765189 
L 249.267208 235.842902 
L 250.905837 235.795547 
L 260.737612 235.84318 
L 262.376241 235.943287 
L 268.930757 235.869011 
L 270.569386 235.719833 
L 278.762531 235.859534 
L 280.40116 235.784839 
L 285.317047 235.82645 
L 291.871563 235.898252 
L 293.510192 235.73608 
L 296.78745 235.940156 
L 303.341966 235.9027 
L 304.980595 235.771445 
L 306.619224 236.00301 
L 308.257853 235.787953 
L 314.812369 235.813076 
L 319.728256 235.845676 
L 326.282772 235.743009 
L 327.921401 235.870117 
L 331.19866 235.754164 
L 336.114547 235.831898 
L 337.753176 235.698594 
L 342.669063 235.892716 
L 347.58495 235.906078 
L 349.223579 235.774371 
L 352.500837 235.849322 
L 354.139466 235.710761 
L 359.055353 235.963154 
L 360.693982 235.825624 
L 383.634788 235.82617 
L 383.634788 235.82617 
" clip-path="url(#pf14366df50)" style="fill: none; stroke: #e377c2; stroke-width: 1.5; stroke-linecap: square"/>
   </g>
   <g id="line2d_21">
    <path d="M 60.824871 245.34 
L 62.4635 219.819384 
L 64.102129 219.093177 
L 65.740758 219.532815 
L 67.379387 219.830722 
L 72.295274 219.678001 
L 73.933903 219.831493 
L 77.211161 219.459769 
L 78.84979 219.647253 
L 83.765677 219.678085 
L 85.404306 219.310408 
L 88.681564 219.652899 
L 90.320193 219.47689 
L 95.23608 219.651653 
L 98.513338 219.228715 
L 101.790596 219.588335 
L 108.345113 219.228372 
L 109.983742 219.444632 
L 113.261 219.238107 
L 119.815516 219.511022 
L 123.092774 219.887449 
L 124.731403 219.705145 
L 131.285919 219.319794 
L 134.563177 219.608486 
L 136.201806 219.933926 
L 142.756322 219.545413 
L 144.394951 219.324949 
L 146.03358 219.411953 
L 164.058499 219.825293 
L 165.697128 219.58406 
L 170.613015 219.377765 
L 175.528902 219.415132 
L 178.80616 219.769606 
L 180.444789 219.219334 
L 182.083419 219.757627 
L 200.108338 219.43171 
L 209.940112 219.67562 
L 211.578741 219.483024 
L 214.855999 219.506492 
L 216.494628 219.583643 
L 223.049144 219.578349 
L 224.687773 219.526548 
L 226.326402 219.193542 
L 227.965031 219.616957 
L 232.880918 219.26731 
L 234.519547 219.651706 
L 236.158176 219.430499 
L 239.435434 219.676598 
L 244.351321 219.350507 
L 245.98995 219.528283 
L 247.628579 219.312965 
L 249.267208 219.524209 
L 250.905837 219.395486 
L 260.737612 219.524965 
L 262.376241 219.797085 
L 268.930757 219.595181 
L 270.569386 219.189673 
L 278.762531 219.569421 
L 280.40116 219.366376 
L 282.039789 219.502286 
L 285.317047 219.479489 
L 290.232934 219.779946 
L 291.871563 219.674665 
L 293.510192 219.233837 
L 295.148821 219.451861 
L 296.78745 219.788572 
L 303.341966 219.686757 
L 304.980595 219.329969 
L 306.619224 219.959429 
L 308.257853 219.374844 
L 313.17374 219.252814 
L 316.450998 219.53792 
L 318.089627 219.7088 
L 319.728256 219.531751 
L 324.644143 219.143067 
L 326.282772 219.252672 
L 327.921401 219.598188 
L 331.19866 219.282995 
L 336.114547 219.494297 
L 337.753176 219.131938 
L 339.391805 219.400892 
L 341.030434 219.926417 
L 342.669063 219.659617 
L 347.58495 219.695941 
L 349.223579 219.337923 
L 352.500837 219.541661 
L 354.139466 219.165012 
L 359.055353 219.851088 
L 360.693982 219.477242 
L 363.97124 219.465901 
L 383.634788 219.47873 
L 383.634788 219.47873 
" clip-path="url(#pf14366df50)" style="fill: none; stroke: #7f7f7f; stroke-width: 1.5; stroke-linecap: square"/>
   </g>
   <g id="line2d_22">
    <path d="M 60.824871 245.34 
L 62.4635 219.819384 
L 64.102129 219.093177 
L 65.740758 219.532815 
L 67.379387 219.830722 
L 72.295274 219.678001 
L 73.933903 219.831493 
L 77.211161 219.459769 
L 78.84979 219.647253 
L 83.765677 219.678085 
L 85.404306 219.310408 
L 88.681564 219.652899 
L 90.320193 219.47689 
L 95.23608 219.651653 
L 98.513338 219.228715 
L 101.790596 219.588335 
L 108.345113 219.228372 
L 109.983742 219.444632 
L 113.261 219.238107 
L 119.815516 219.511022 
L 123.092774 219.887449 
L 124.731403 219.705145 
L 131.285919 219.319794 
L 134.563177 219.608486 
L 136.201806 219.933926 
L 142.756322 219.545413 
L 144.394951 219.324949 
L 146.03358 219.411953 
L 164.058499 219.825293 
L 165.697128 219.58406 
L 170.613015 219.377765 
L 175.528902 219.415132 
L 178.80616 219.769606 
L 180.444789 219.219334 
L 182.083419 219.757627 
L 200.108338 219.43171 
L 209.940112 219.67562 
L 211.578741 219.483024 
L 214.855999 219.506492 
L 216.494628 219.583643 
L 223.049144 219.578349 
L 224.687773 219.526548 
L 226.326402 219.193542 
L 227.965031 219.616957 
L 232.880918 219.26731 
L 234.519547 219.651706 
L 236.158176 219.430499 
L 239.435434 219.676598 
L 244.351321 219.350507 
L 245.98995 219.528283 
L 247.628579 219.312965 
L 249.267208 219.524209 
L 250.905837 219.395486 
L 260.737612 219.524965 
L 262.376241 219.797085 
L 268.930757 219.595181 
L 270.569386 219.189673 
L 278.762531 219.569421 
L 280.40116 219.366376 
L 282.039789 219.502286 
L 285.317047 219.479489 
L 290.232934 219.779946 
L 291.871563 219.674665 
L 293.510192 219.233837 
L 295.148821 219.451861 
L 296.78745 219.788572 
L 303.341966 219.686757 
L 304.980595 219.329969 
L 306.619224 219.959429 
L 308.257853 219.374844 
L 313.17374 219.252814 
L 316.450998 219.53792 
L 318.089627 219.7088 
L 319.728256 219.531751 
L 324.644143 219.143067 
L 326.282772 219.252672 
L 327.921401 219.598188 
L 331.19866 219.282995 
L 336.114547 219.494297 
L 337.753176 219.131938 
L 339.391805 219.400892 
L 341.030434 219.926417 
L 342.669063 219.659617 
L 347.58495 219.695941 
L 349.223579 219.337923 
L 352.500837 219.541661 
L 354.139466 219.165012 
L 359.055353 219.851088 
L 360.693982 219.477242 
L 363.97124 219.465901 
L 383.634788 219.47873 
L 383.634788 219.47873 
" clip-path="url(#pf14366df50)" style="fill: none; stroke: #bcbd22; stroke-width: 1.5; stroke-linecap: square"/>
   </g>
   <g id="line2d_23">
    <path d="M 60.824871 245.34 
L 62.4635 219.819384 
L 64.102129 219.093177 
L 65.740758 219.532815 
L 67.379387 219.830722 
L 72.295274 219.678001 
L 73.933903 219.831493 
L 77.211161 219.459769 
L 78.84979 219.647253 
L 83.765677 219.678085 
L 85.404306 219.310408 
L 88.681564 219.652899 
L 90.320193 219.47689 
L 95.23608 219.651653 
L 98.513338 219.228715 
L 101.790596 219.588335 
L 108.345113 219.228372 
L 109.983742 219.444632 
L 113.261 219.238107 
L 119.815516 219.511022 
L 123.092774 219.887449 
L 124.731403 219.705145 
L 131.285919 219.319794 
L 134.563177 219.608486 
L 136.201806 219.933926 
L 142.756322 219.545413 
L 144.394951 219.324949 
L 146.03358 219.411953 
L 164.058499 219.825293 
L 165.697128 219.58406 
L 170.613015 219.377765 
L 175.528902 219.415132 
L 178.80616 219.769606 
L 180.444789 219.219334 
L 182.083419 219.757627 
L 200.108338 219.43171 
L 209.940112 219.67562 
L 211.578741 219.483024 
L 214.855999 219.506492 
L 216.494628 219.583643 
L 223.049144 219.578349 
L 224.687773 219.526548 
L 226.326402 219.193542 
L 227.965031 219.616957 
L 232.880918 219.26731 
L 234.519547 219.651706 
L 236.158176 219.430499 
L 239.435434 219.676598 
L 244.351321 219.350507 
L 245.98995 219.528283 
L 247.628579 219.312965 
L 249.267208 219.524209 
L 250.905837 219.395486 
L 260.737612 219.524965 
L 262.376241 219.797085 
L 268.930757 219.595181 
L 270.569386 219.189673 
L 278.762531 219.569421 
L 280.40116 219.366376 
L 282.039789 219.502286 
L 285.317047 219.479489 
L 290.232934 219.779946 
L 291.871563 219.674665 
L 293.510192 219.233837 
L 295.148821 219.451861 
L 296.78745 219.788572 
L 303.341966 219.686757 
L 304.980595 219.329969 
L 306.619224 219.959429 
L 308.257853 219.374844 
L 313.17374 219.252814 
L 316.450998 219.53792 
L 318.089627 219.7088 
L 319.728256 219.531751 
L 324.644143 219.143067 
L 326.282772 219.252672 
L 327.921401 219.598188 
L 331.19866 219.282995 
L 336.114547 219.494297 
L 337.753176 219.131938 
L 339.391805 219.400892 
L 341.030434 219.926417 
L 342.669063 219.659617 
L 347.58495 219.695941 
L 349.223579 219.337923 
L 352.500837 219.541661 
L 354.139466 219.165012 
L 359.055353 219.851088 
L 360.693982 219.477242 
L 363.97124 219.465901 
L 383.634788 219.47873 
L 383.634788 219.47873 
" clip-path="url(#pf14366df50)" style="fill: none; stroke: #17becf; stroke-width: 1.5; stroke-linecap: square"/>
   </g>
   <g id="line2d_24">
    <path d="M 60.824871 245.34 
L 62.4635 235.95149 
L 64.102129 235.684334 
L 67.379387 235.955662 
L 78.84979 235.888167 
L 83.765677 235.89951 
L 85.404306 235.764249 
L 88.681564 235.890244 
L 90.320193 235.825494 
L 96.874709 235.830086 
L 98.513338 235.734196 
L 101.790596 235.866493 
L 113.261 235.737651 
L 124.731403 235.909464 
L 132.924548 235.816594 
L 136.201806 235.993629 
L 146.03358 235.801605 
L 165.697128 235.86492 
L 175.528902 235.802774 
L 178.80616 235.933178 
L 180.444789 235.730744 
L 182.083419 235.928772 
L 203.385596 235.839868 
L 209.940112 235.898602 
L 213.21737 235.814904 
L 223.049144 235.862819 
L 232.880918 235.748394 
L 234.519547 235.889805 
L 236.158176 235.808428 
L 239.435434 235.898962 
L 247.628579 235.765189 
L 249.267208 235.842902 
L 250.905837 235.795547 
L 260.737612 235.84318 
L 262.376241 235.943287 
L 268.930757 235.869011 
L 270.569386 235.719833 
L 278.762531 235.859534 
L 280.40116 235.784839 
L 285.317047 235.82645 
L 291.871563 235.898252 
L 293.510192 235.73608 
L 296.78745 235.940156 
L 303.341966 235.9027 
L 304.980595 235.771445 
L 306.619224 236.00301 
L 308.257853 235.787953 
L 314.812369 235.813076 
L 319.728256 235.845676 
L 326.282772 235.743009 
L 327.921401 235.870117 
L 331.19866 235.754164 
L 336.114547 235.831898 
L 337.753176 235.698594 
L 342.669063 235.892716 
L 347.58495 235.906078 
L 349.223579 235.774371 
L 352.500837 235.849322 
L 354.139466 235.710761 
L 359.055353 235.963154 
L 360.693982 235.825624 
L 383.634788 235.82617 
L 383.634788 235.82617 
" clip-path="url(#pf14366df50)" style="fill: none; stroke: #1f77b4; stroke-width: 1.5; stroke-linecap: square"/>
   </g>
   <g id="patch_3">
    <path d="M 44.684375 256.68 
L 44.684375 7.2 
" style="fill: none; stroke: #000000; stroke-width: 0.8; stroke-linejoin: miter; stroke-linecap: square"/>
   </g>
   <g id="patch_4">
    <path d="M 399.775284 256.68 
L 399.775284 7.2 
" style="fill: none; stroke: #000000; stroke-width: 0.8; stroke-linejoin: miter; stroke-linecap: square"/>
   </g>
   <g id="patch_5">
    <path d="M 44.684375 256.68 
L 399.775284 256.68 
" style="fill: none; stroke: #000000; stroke-width: 0.8; stroke-linejoin: miter; stroke-linecap: square"/>
   </g>
   <g id="patch_6">
    <path d="M 44.684375 7.2 
L 399.775284 7.2 
" style="fill: none; stroke: #000000; stroke-width: 0.8; stroke-linejoin: miter; stroke-linecap: square"/>
   </g>
   <g id="legend_1">
    <g id="patch_7">
     <path d="M 270.775284 161.965625 
L 392.775284 161.965625 
Q 394.775284 161.965625 394.775284 159.965625 
L 394.775284 14.2 
Q 394.775284 12.2 392.775284 12.2 
L 270.775284 12.2 
Q 268.775284 12.2 268.775284 14.2 
L 268.775284 159.965625 
Q 268.775284 161.965625 270.775284 161.965625 
z
" style="fill: #ffffff; opacity: 0.8; stroke: #cccccc; stroke-linejoin: miter"/>
    </g>
    <g id="line2d_25">
     <path d="M 272.775284 19.7 
L 282.775284 19.7 
L 292.775284 19.7 
" style="fill: none; stroke: #1f77b4; stroke-width: 1.5; stroke-linecap: square"/>
    </g>
    <g id="text_15">
     <!-- weight_CASH -->
     <g transform="translate(300.775284 23.2) scale(0.1 -0.1)">
      <defs>
       <path id="SimHei-77" d="M 3075 2925 
L 2450 75 
L 1975 75 
L 1575 2250 
L 1525 2250 
L 1125 75 
L 650 75 
L 25 2925 
L 550 2925 
L 875 1050 
L 925 1050 
L 1275 2925 
L 1825 2925 
L 2175 1050 
L 2225 1050 
L 2550 2925 
L 3075 2925 
z
" transform="scale(0.015625)"/>
       <path id="SimHei-5f" d="M 3150 -850 
L 0 -850 
L 0 -550 
L 3150 -550 
L 3150 -850 
z
" transform="scale(0.015625)"/>
       <path id="SimHei-43" d="M 2975 1825 
Q 2950 875 2575 475 
Q 2200 75 1675 75 
Q 1075 75 650 562 
Q 225 1050 225 2125 
Q 225 3300 637 3875 
Q 1050 4450 1700 4450 
Q 2250 4450 2612 4037 
Q 2975 3625 2950 2875 
L 2400 2875 
Q 2400 3425 2225 3700 
Q 2050 3975 1700 3975 
Q 1300 3975 1062 3562 
Q 825 3150 825 2175 
Q 825 1275 1062 912 
Q 1300 550 1675 550 
Q 1950 550 2175 812 
Q 2400 1075 2400 1825 
L 2975 1825 
z
" transform="scale(0.015625)"/>
       <path id="SimHei-41" d="M 3075 125 
L 2475 125 
L 2125 1450 
L 1025 1450 
L 675 125 
L 75 125 
L 1325 4450 
L 1825 4450 
L 3075 125 
z
M 2000 1925 
L 1600 3450 
L 1550 3450 
L 1150 1925 
L 2000 1925 
z
" transform="scale(0.015625)"/>
       <path id="SimHei-48" d="M 2850 125 
L 2275 125 
L 2275 2125 
L 850 2125 
L 850 125 
L 275 125 
L 275 4400 
L 850 4400 
L 850 2600 
L 2275 2600 
L 2275 4400 
L 2850 4400 
L 2850 125 
z
" transform="scale(0.015625)"/>
      </defs>
      <use xlink:href="#SimHei-77"/>
      <use xlink:href="#SimHei-65" x="50"/>
      <use xlink:href="#SimHei-69" x="100"/>
      <use xlink:href="#SimHei-67" x="150"/>
      <use xlink:href="#SimHei-68" x="200"/>
      <use xlink:href="#SimHei-74" x="250"/>
      <use xlink:href="#SimHei-5f" x="300"/>
      <use xlink:href="#SimHei-43" x="350"/>
      <use xlink:href="#SimHei-41" x="400"/>
      <use xlink:href="#SimHei-53" x="450"/>
      <use xlink:href="#SimHei-48" x="500"/>
     </g>
    </g>
    <g id="line2d_26">
     <path d="M 272.775284 33.059375 
L 282.775284 33.059375 
L 292.775284 33.059375 
" style="fill: none; stroke: #ff7f0e; stroke-width: 1.5; stroke-linecap: square"/>
    </g>
    <g id="text_16">
     <!-- weight_CN000338.SZ -->
     <g transform="translate(300.775284 36.559375) scale(0.1 -0.1)">
      <defs>
       <path id="SimHei-4e" d="M 2850 125 
L 2225 125 
L 850 3225 
L 825 3225 
L 825 125 
L 250 125 
L 250 4400 
L 875 4400 
L 2250 1300 
L 2275 1300 
L 2275 4400 
L 2850 4400 
L 2850 125 
z
" transform="scale(0.015625)"/>
       <path id="SimHei-5a" d="M 2900 125 
L 225 125 
L 225 600 
L 2250 3925 
L 375 3925 
L 375 4400 
L 2825 4400 
L 2825 3925 
L 800 600 
L 2900 600 
L 2900 125 
z
" transform="scale(0.015625)"/>
      </defs>
      <use xlink:href="#SimHei-77"/>
      <use xlink:href="#SimHei-65" x="50"/>
      <use xlink:href="#SimHei-69" x="100"/>
      <use xlink:href="#SimHei-67" x="150"/>
      <use xlink:href="#SimHei-68" x="200"/>
      <use xlink:href="#SimHei-74" x="250"/>
      <use xlink:href="#SimHei-5f" x="300"/>
      <use xlink:href="#SimHei-43" x="350"/>
      <use xlink:href="#SimHei-4e" x="400"/>
      <use xlink:href="#SimHei-30" x="450"/>
      <use xlink:href="#SimHei-30" x="500"/>
      <use xlink:href="#SimHei-30" x="550"/>
      <use xlink:href="#SimHei-33" x="600"/>
      <use xlink:href="#SimHei-33" x="650"/>
      <use xlink:href="#SimHei-38" x="700"/>
      <use xlink:href="#SimHei-2e" x="750"/>
      <use xlink:href="#SimHei-53" x="800"/>
      <use xlink:href="#SimHei-5a" x="850"/>
     </g>
    </g>
    <g id="line2d_27">
     <path d="M 272.775284 46.41875 
L 282.775284 46.41875 
L 292.775284 46.41875 
" style="fill: none; stroke: #2ca02c; stroke-width: 1.5; stroke-linecap: square"/>
    </g>
    <g id="text_17">
     <!-- weight_CN002027.SZ -->
     <g transform="translate(300.775284 49.91875) scale(0.1 -0.1)">
      <defs>
       <path id="SimHei-37" d="M 850 150 
Q 1300 2050 2425 3925 
L 275 3925 
L 275 4375 
L 2950 4375 
L 2950 3950 
Q 1775 2050 1400 150 
L 850 150 
z
" transform="scale(0.015625)"/>
      </defs>
      <use xlink:href="#SimHei-77"/>
      <use xlink:href="#SimHei-65" x="50"/>
      <use xlink:href="#SimHei-69" x="100"/>
      <use xlink:href="#SimHei-67" x="150"/>
      <use xlink:href="#SimHei-68" x="200"/>
      <use xlink:href="#SimHei-74" x="250"/>
      <use xlink:href="#SimHei-5f" x="300"/>
      <use xlink:href="#SimHei-43" x="350"/>
      <use xlink:href="#SimHei-4e" x="400"/>
      <use xlink:href="#SimHei-30" x="450"/>
      <use xlink:href="#SimHei-30" x="500"/>
      <use xlink:href="#SimHei-32" x="550"/>
      <use xlink:href="#SimHei-30" x="600"/>
      <use xlink:href="#SimHei-32" x="650"/>
      <use xlink:href="#SimHei-37" x="700"/>
      <use xlink:href="#SimHei-2e" x="750"/>
      <use xlink:href="#SimHei-53" x="800"/>
      <use xlink:href="#SimHei-5a" x="850"/>
     </g>
    </g>
    <g id="line2d_28">
     <path d="M 272.775284 59.778125 
L 282.775284 59.778125 
L 292.775284 59.778125 
" style="fill: none; stroke: #d62728; stroke-width: 1.5; stroke-linecap: square"/>
    </g>
    <g id="text_18">
     <!-- weight_CN002371.SZ -->
     <g transform="translate(300.775284 63.278125) scale(0.1 -0.1)">
      <use xlink:href="#SimHei-77"/>
      <use xlink:href="#SimHei-65" x="50"/>
      <use xlink:href="#SimHei-69" x="100"/>
      <use xlink:href="#SimHei-67" x="150"/>
      <use xlink:href="#SimHei-68" x="200"/>
      <use xlink:href="#SimHei-74" x="250"/>
      <use xlink:href="#SimHei-5f" x="300"/>
      <use xlink:href="#SimHei-43" x="350"/>
      <use xlink:href="#SimHei-4e" x="400"/>
      <use xlink:href="#SimHei-30" x="450"/>
      <use xlink:href="#SimHei-30" x="500"/>
      <use xlink:href="#SimHei-32" x="550"/>
      <use xlink:href="#SimHei-33" x="600"/>
      <use xlink:href="#SimHei-37" x="650"/>
      <use xlink:href="#SimHei-31" x="700"/>
      <use xlink:href="#SimHei-2e" x="750"/>
      <use xlink:href="#SimHei-53" x="800"/>
      <use xlink:href="#SimHei-5a" x="850"/>
     </g>
    </g>
    <g id="line2d_29">
     <path d="M 272.775284 73.10625 
L 282.775284 73.10625 
L 292.775284 73.10625 
" style="fill: none; stroke: #9467bd; stroke-width: 1.5; stroke-linecap: square"/>
    </g>
    <g id="text_19">
     <!-- weight_CN600009.SH -->
     <g transform="translate(300.775284 76.60625) scale(0.1 -0.1)">
      <use xlink:href="#SimHei-77"/>
      <use xlink:href="#SimHei-65" x="50"/>
      <use xlink:href="#SimHei-69" x="100"/>
      <use xlink:href="#SimHei-67" x="150"/>
      <use xlink:href="#SimHei-68" x="200"/>
      <use xlink:href="#SimHei-74" x="250"/>
      <use xlink:href="#SimHei-5f" x="300"/>
      <use xlink:href="#SimHei-43" x="350"/>
      <use xlink:href="#SimHei-4e" x="400"/>
      <use xlink:href="#SimHei-36" x="450"/>
      <use xlink:href="#SimHei-30" x="500"/>
      <use xlink:href="#SimHei-30" x="550"/>
      <use xlink:href="#SimHei-30" x="600"/>
      <use xlink:href="#SimHei-30" x="650"/>
      <use xlink:href="#SimHei-39" x="700"/>
      <use xlink:href="#SimHei-2e" x="750"/>
      <use xlink:href="#SimHei-53" x="800"/>
      <use xlink:href="#SimHei-48" x="850"/>
     </g>
    </g>
    <g id="line2d_30">
     <path d="M 272.775284 86.465625 
L 282.775284 86.465625 
L 292.775284 86.465625 
" style="fill: none; stroke: #8c564b; stroke-width: 1.5; stroke-linecap: square"/>
    </g>
    <g id="text_20">
     <!-- weight_CN600029.SH -->
     <g transform="translate(300.775284 89.965625) scale(0.1 -0.1)">
      <use xlink:href="#SimHei-77"/>
      <use xlink:href="#SimHei-65" x="50"/>
      <use xlink:href="#SimHei-69" x="100"/>
      <use xlink:href="#SimHei-67" x="150"/>
      <use xlink:href="#SimHei-68" x="200"/>
      <use xlink:href="#SimHei-74" x="250"/>
      <use xlink:href="#SimHei-5f" x="300"/>
      <use xlink:href="#SimHei-43" x="350"/>
      <use xlink:href="#SimHei-4e" x="400"/>
      <use xlink:href="#SimHei-36" x="450"/>
      <use xlink:href="#SimHei-30" x="500"/>
      <use xlink:href="#SimHei-30" x="550"/>
      <use xlink:href="#SimHei-30" x="600"/>
      <use xlink:href="#SimHei-32" x="650"/>
      <use xlink:href="#SimHei-39" x="700"/>
      <use xlink:href="#SimHei-2e" x="750"/>
      <use xlink:href="#SimHei-53" x="800"/>
      <use xlink:href="#SimHei-48" x="850"/>
     </g>
    </g>
    <g id="line2d_31">
     <path d="M 272.775284 99.825 
L 282.775284 99.825 
L 292.775284 99.825 
" style="fill: none; stroke: #e377c2; stroke-width: 1.5; stroke-linecap: square"/>
    </g>
    <g id="text_21">
     <!-- weight_CN600183.SH -->
     <g transform="translate(300.775284 103.325) scale(0.1 -0.1)">
      <use xlink:href="#SimHei-77"/>
      <use xlink:href="#SimHei-65" x="50"/>
      <use xlink:href="#SimHei-69" x="100"/>
      <use xlink:href="#SimHei-67" x="150"/>
      <use xlink:href="#SimHei-68" x="200"/>
      <use xlink:href="#SimHei-74" x="250"/>
      <use xlink:href="#SimHei-5f" x="300"/>
      <use xlink:href="#SimHei-43" x="350"/>
      <use xlink:href="#SimHei-4e" x="400"/>
      <use xlink:href="#SimHei-36" x="450"/>
      <use xlink:href="#SimHei-30" x="500"/>
      <use xlink:href="#SimHei-30" x="550"/>
      <use xlink:href="#SimHei-31" x="600"/>
      <use xlink:href="#SimHei-38" x="650"/>
      <use xlink:href="#SimHei-33" x="700"/>
      <use xlink:href="#SimHei-2e" x="750"/>
      <use xlink:href="#SimHei-53" x="800"/>
      <use xlink:href="#SimHei-48" x="850"/>
     </g>
    </g>
    <g id="line2d_32">
     <path d="M 272.775284 113.153125 
L 282.775284 113.153125 
L 292.775284 113.153125 
" style="fill: none; stroke: #7f7f7f; stroke-width: 1.5; stroke-linecap: square"/>
    </g>
    <g id="text_22">
     <!-- weight_CN600406.SH -->
     <g transform="translate(300.775284 116.653125) scale(0.1 -0.1)">
      <use xlink:href="#SimHei-77"/>
      <use xlink:href="#SimHei-65" x="50"/>
      <use xlink:href="#SimHei-69" x="100"/>
      <use xlink:href="#SimHei-67" x="150"/>
      <use xlink:href="#SimHei-68" x="200"/>
      <use xlink:href="#SimHei-74" x="250"/>
      <use xlink:href="#SimHei-5f" x="300"/>
      <use xlink:href="#SimHei-43" x="350"/>
      <use xlink:href="#SimHei-4e" x="400"/>
      <use xlink:href="#SimHei-36" x="450"/>
      <use xlink:href="#SimHei-30" x="500"/>
      <use xlink:href="#SimHei-30" x="550"/>
      <use xlink:href="#SimHei-34" x="600"/>
      <use xlink:href="#SimHei-30" x="650"/>
      <use xlink:href="#SimHei-36" x="700"/>
      <use xlink:href="#SimHei-2e" x="750"/>
      <use xlink:href="#SimHei-53" x="800"/>
      <use xlink:href="#SimHei-48" x="850"/>
     </g>
    </g>
    <g id="line2d_33">
     <path d="M 272.775284 126.48125 
L 282.775284 126.48125 
L 292.775284 126.48125 
" style="fill: none; stroke: #bcbd22; stroke-width: 1.5; stroke-linecap: square"/>
    </g>
    <g id="text_23">
     <!-- weight_CN600900.SH -->
     <g transform="translate(300.775284 129.98125) scale(0.1 -0.1)">
      <use xlink:href="#SimHei-77"/>
      <use xlink:href="#SimHei-65" x="50"/>
      <use xlink:href="#SimHei-69" x="100"/>
      <use xlink:href="#SimHei-67" x="150"/>
      <use xlink:href="#SimHei-68" x="200"/>
      <use xlink:href="#SimHei-74" x="250"/>
      <use xlink:href="#SimHei-5f" x="300"/>
      <use xlink:href="#SimHei-43" x="350"/>
      <use xlink:href="#SimHei-4e" x="400"/>
      <use xlink:href="#SimHei-36" x="450"/>
      <use xlink:href="#SimHei-30" x="500"/>
      <use xlink:href="#SimHei-30" x="550"/>
      <use xlink:href="#SimHei-39" x="600"/>
      <use xlink:href="#SimHei-30" x="650"/>
      <use xlink:href="#SimHei-30" x="700"/>
      <use xlink:href="#SimHei-2e" x="750"/>
      <use xlink:href="#SimHei-53" x="800"/>
      <use xlink:href="#SimHei-48" x="850"/>
     </g>
    </g>
    <g id="line2d_34">
     <path d="M 272.775284 139.809375 
L 282.775284 139.809375 
L 292.775284 139.809375 
" style="fill: none; stroke: #17becf; stroke-width: 1.5; stroke-linecap: square"/>
    </g>
    <g id="text_24">
     <!-- weight_CN601989.SH -->
     <g transform="translate(300.775284 143.309375) scale(0.1 -0.1)">
      <use xlink:href="#SimHei-77"/>
      <use xlink:href="#SimHei-65" x="50"/>
      <use xlink:href="#SimHei-69" x="100"/>
      <use xlink:href="#SimHei-67" x="150"/>
      <use xlink:href="#SimHei-68" x="200"/>
      <use xlink:href="#SimHei-74" x="250"/>
      <use xlink:href="#SimHei-5f" x="300"/>
      <use xlink:href="#SimHei-43" x="350"/>
      <use xlink:href="#SimHei-4e" x="400"/>
      <use xlink:href="#SimHei-36" x="450"/>
      <use xlink:href="#SimHei-30" x="500"/>
      <use xlink:href="#SimHei-31" x="550"/>
      <use xlink:href="#SimHei-39" x="600"/>
      <use xlink:href="#SimHei-38" x="650"/>
      <use xlink:href="#SimHei-39" x="700"/>
      <use xlink:href="#SimHei-2e" x="750"/>
      <use xlink:href="#SimHei-53" x="800"/>
      <use xlink:href="#SimHei-48" x="850"/>
     </g>
    </g>
    <g id="line2d_35">
     <path d="M 272.775284 153.1375 
L 282.775284 153.1375 
L 292.775284 153.1375 
" style="fill: none; stroke: #1f77b4; stroke-width: 1.5; stroke-linecap: square"/>
    </g>
    <g id="text_25">
     <!-- weight_CN601998.SH -->
     <g transform="translate(300.775284 156.6375) scale(0.1 -0.1)">
      <use xlink:href="#SimHei-77"/>
      <use xlink:href="#SimHei-65" x="50"/>
      <use xlink:href="#SimHei-69" x="100"/>
      <use xlink:href="#SimHei-67" x="150"/>
      <use xlink:href="#SimHei-68" x="200"/>
      <use xlink:href="#SimHei-74" x="250"/>
      <use xlink:href="#SimHei-5f" x="300"/>
      <use xlink:href="#SimHei-43" x="350"/>
      <use xlink:href="#SimHei-4e" x="400"/>
      <use xlink:href="#SimHei-36" x="450"/>
      <use xlink:href="#SimHei-30" x="500"/>
      <use xlink:href="#SimHei-31" x="550"/>
      <use xlink:href="#SimHei-39" x="600"/>
      <use xlink:href="#SimHei-39" x="650"/>
      <use xlink:href="#SimHei-38" x="700"/>
      <use xlink:href="#SimHei-2e" x="750"/>
      <use xlink:href="#SimHei-53" x="800"/>
      <use xlink:href="#SimHei-48" x="850"/>
     </g>
    </g>
   </g>
  </g>
  <g id="axes_2">
   <g id="patch_8">
    <path d="M 470.793466 256.68 
L 825.884375 256.68 
L 825.884375 7.2 
L 470.793466 7.2 
z
" style="fill: #ffffff"/>
   </g>
   <g id="matplotlib.axis_3">
    <g id="xtick_8">
     <g id="line2d_36">
      <g>
       <use xlink:href="#m1e4bdb9ed5" x="477.102188" y="256.68" style="stroke: #000000; stroke-width: 0.8"/>
      </g>
     </g>
     <g id="text_26">
      <!-- 2023-08 -->
      <g transform="translate(459.602188 270.555) scale(0.1 -0.1)">
       <use xlink:href="#SimHei-32"/>
       <use xlink:href="#SimHei-30" x="50"/>
       <use xlink:href="#SimHei-32" x="100"/>
       <use xlink:href="#SimHei-33" x="150"/>
       <use xlink:href="#SimHei-2d" x="200"/>
       <use xlink:href="#SimHei-30" x="250"/>
       <use xlink:href="#SimHei-38" x="300"/>
      </g>
     </g>
    </g>
    <g id="xtick_9">
     <g id="line2d_37">
      <g>
       <use xlink:href="#m1e4bdb9ed5" x="527.899687" y="256.68" style="stroke: #000000; stroke-width: 0.8"/>
      </g>
     </g>
     <g id="text_27">
      <!-- 2023-09 -->
      <g transform="translate(510.399687 270.555) scale(0.1 -0.1)">
       <use xlink:href="#SimHei-32"/>
       <use xlink:href="#SimHei-30" x="50"/>
       <use xlink:href="#SimHei-32" x="100"/>
       <use xlink:href="#SimHei-33" x="150"/>
       <use xlink:href="#SimHei-2d" x="200"/>
       <use xlink:href="#SimHei-30" x="250"/>
       <use xlink:href="#SimHei-39" x="300"/>
      </g>
     </g>
    </g>
    <g id="xtick_10">
     <g id="line2d_38">
      <g>
       <use xlink:href="#m1e4bdb9ed5" x="577.058558" y="256.68" style="stroke: #000000; stroke-width: 0.8"/>
      </g>
     </g>
     <g id="text_28">
      <!-- 2023-10 -->
      <g transform="translate(559.558558 270.555) scale(0.1 -0.1)">
       <use xlink:href="#SimHei-32"/>
       <use xlink:href="#SimHei-30" x="50"/>
       <use xlink:href="#SimHei-32" x="100"/>
       <use xlink:href="#SimHei-33" x="150"/>
       <use xlink:href="#SimHei-2d" x="200"/>
       <use xlink:href="#SimHei-31" x="250"/>
       <use xlink:href="#SimHei-30" x="300"/>
      </g>
     </g>
    </g>
    <g id="xtick_11">
     <g id="line2d_39">
      <g>
       <use xlink:href="#m1e4bdb9ed5" x="627.856058" y="256.68" style="stroke: #000000; stroke-width: 0.8"/>
      </g>
     </g>
     <g id="text_29">
      <!-- 2023-11 -->
      <g transform="translate(610.356058 270.555) scale(0.1 -0.1)">
       <use xlink:href="#SimHei-32"/>
       <use xlink:href="#SimHei-30" x="50"/>
       <use xlink:href="#SimHei-32" x="100"/>
       <use xlink:href="#SimHei-33" x="150"/>
       <use xlink:href="#SimHei-2d" x="200"/>
       <use xlink:href="#SimHei-31" x="250"/>
       <use xlink:href="#SimHei-31" x="300"/>
      </g>
     </g>
    </g>
    <g id="xtick_12">
     <g id="line2d_40">
      <g>
       <use xlink:href="#m1e4bdb9ed5" x="677.014928" y="256.68" style="stroke: #000000; stroke-width: 0.8"/>
      </g>
     </g>
     <g id="text_30">
      <!-- 2023-12 -->
      <g transform="translate(659.514928 270.555) scale(0.1 -0.1)">
       <use xlink:href="#SimHei-32"/>
       <use xlink:href="#SimHei-30" x="50"/>
       <use xlink:href="#SimHei-32" x="100"/>
       <use xlink:href="#SimHei-33" x="150"/>
       <use xlink:href="#SimHei-2d" x="200"/>
       <use xlink:href="#SimHei-31" x="250"/>
       <use xlink:href="#SimHei-32" x="300"/>
      </g>
     </g>
    </g>
    <g id="xtick_13">
     <g id="line2d_41">
      <g>
       <use xlink:href="#m1e4bdb9ed5" x="727.812428" y="256.68" style="stroke: #000000; stroke-width: 0.8"/>
      </g>
     </g>
     <g id="text_31">
      <!-- 2024-01 -->
      <g transform="translate(710.312428 270.555) scale(0.1 -0.1)">
       <use xlink:href="#SimHei-32"/>
       <use xlink:href="#SimHei-30" x="50"/>
       <use xlink:href="#SimHei-32" x="100"/>
       <use xlink:href="#SimHei-34" x="150"/>
       <use xlink:href="#SimHei-2d" x="200"/>
       <use xlink:href="#SimHei-30" x="250"/>
       <use xlink:href="#SimHei-31" x="300"/>
      </g>
     </g>
    </g>
    <g id="xtick_14">
     <g id="line2d_42">
      <g>
       <use xlink:href="#m1e4bdb9ed5" x="778.609928" y="256.68" style="stroke: #000000; stroke-width: 0.8"/>
      </g>
     </g>
     <g id="text_32">
      <!-- 2024-02 -->
      <g transform="translate(761.109928 270.555) scale(0.1 -0.1)">
       <use xlink:href="#SimHei-32"/>
       <use xlink:href="#SimHei-30" x="50"/>
       <use xlink:href="#SimHei-32" x="100"/>
       <use xlink:href="#SimHei-34" x="150"/>
       <use xlink:href="#SimHei-2d" x="200"/>
       <use xlink:href="#SimHei-30" x="250"/>
       <use xlink:href="#SimHei-32" x="300"/>
      </g>
     </g>
    </g>
   </g>
   <g id="matplotlib.axis_4">
    <g id="ytick_7">
     <g id="line2d_43">
      <g>
       <use xlink:href="#m4bede03b23" x="470.793466" y="245.34" style="stroke: #000000; stroke-width: 0.8"/>
      </g>
     </g>
     <g id="text_33">
      <!-- 0.0000 -->
      <g transform="translate(433.793466 248.7775) scale(0.1 -0.1)">
       <use xlink:href="#SimHei-30"/>
       <use xlink:href="#SimHei-2e" x="50"/>
       <use xlink:href="#SimHei-30" x="100"/>
       <use xlink:href="#SimHei-30" x="150"/>
       <use xlink:href="#SimHei-30" x="200"/>
       <use xlink:href="#SimHei-30" x="250"/>
      </g>
     </g>
    </g>
    <g id="ytick_8">
     <g id="line2d_44">
      <g>
       <use xlink:href="#m4bede03b23" x="470.793466" y="194.22871" style="stroke: #000000; stroke-width: 0.8"/>
      </g>
     </g>
     <g id="text_34">
      <!-- 0.0005 -->
      <g transform="translate(433.793466 197.66621) scale(0.1 -0.1)">
       <defs>
        <path id="SimHei-35" d="M 550 1325 
Q 725 650 1150 575 
Q 1575 500 1837 662 
Q 2100 825 2212 1087 
Q 2325 1350 2312 1675 
Q 2300 2000 2137 2225 
Q 1975 2450 1725 2525 
Q 1475 2600 1162 2525 
Q 850 2450 650 2175 
L 225 2225 
Q 275 2375 700 4375 
L 2675 4375 
L 2675 3925 
L 1075 3925 
Q 950 3250 825 2850 
Q 1200 3025 1525 3012 
Q 1850 3000 2150 2862 
Q 2450 2725 2587 2487 
Q 2725 2250 2787 2012 
Q 2850 1775 2837 1500 
Q 2825 1225 2725 937 
Q 2625 650 2425 462 
Q 2225 275 1937 162 
Q 1650 50 1275 75 
Q 900 100 562 350 
Q 225 600 100 1200 
L 550 1325 
z
" transform="scale(0.015625)"/>
       </defs>
       <use xlink:href="#SimHei-30"/>
       <use xlink:href="#SimHei-2e" x="50"/>
       <use xlink:href="#SimHei-30" x="100"/>
       <use xlink:href="#SimHei-30" x="150"/>
       <use xlink:href="#SimHei-30" x="200"/>
       <use xlink:href="#SimHei-35" x="250"/>
      </g>
     </g>
    </g>
    <g id="ytick_9">
     <g id="line2d_45">
      <g>
       <use xlink:href="#m4bede03b23" x="470.793466" y="143.117419" style="stroke: #000000; stroke-width: 0.8"/>
      </g>
     </g>
     <g id="text_35">
      <!-- 0.0010 -->
      <g transform="translate(433.793466 146.554919) scale(0.1 -0.1)">
       <use xlink:href="#SimHei-30"/>
       <use xlink:href="#SimHei-2e" x="50"/>
       <use xlink:href="#SimHei-30" x="100"/>
       <use xlink:href="#SimHei-30" x="150"/>
       <use xlink:href="#SimHei-31" x="200"/>
       <use xlink:href="#SimHei-30" x="250"/>
      </g>
     </g>
    </g>
    <g id="ytick_10">
     <g id="line2d_46">
      <g>
       <use xlink:href="#m4bede03b23" x="470.793466" y="92.006129" style="stroke: #000000; stroke-width: 0.8"/>
      </g>
     </g>
     <g id="text_36">
      <!-- 0.0015 -->
      <g transform="translate(433.793466 95.443629) scale(0.1 -0.1)">
       <use xlink:href="#SimHei-30"/>
       <use xlink:href="#SimHei-2e" x="50"/>
       <use xlink:href="#SimHei-30" x="100"/>
       <use xlink:href="#SimHei-30" x="150"/>
       <use xlink:href="#SimHei-31" x="200"/>
       <use xlink:href="#SimHei-35" x="250"/>
      </g>
     </g>
    </g>
    <g id="ytick_11">
     <g id="line2d_47">
      <g>
       <use xlink:href="#m4bede03b23" x="470.793466" y="40.894838" style="stroke: #000000; stroke-width: 0.8"/>
      </g>
     </g>
     <g id="text_37">
      <!-- 0.0020 -->
      <g transform="translate(433.793466 44.332338) scale(0.1 -0.1)">
       <use xlink:href="#SimHei-30"/>
       <use xlink:href="#SimHei-2e" x="50"/>
       <use xlink:href="#SimHei-30" x="100"/>
       <use xlink:href="#SimHei-30" x="150"/>
       <use xlink:href="#SimHei-32" x="200"/>
       <use xlink:href="#SimHei-30" x="250"/>
      </g>
     </g>
    </g>
    <g id="text_38">
     <!-- Stock Portfolio Transaction Costs -->
     <g transform="translate(428.043466 247.44) rotate(-90) scale(0.14 -0.14)">
      <defs>
       <path id="SimHei-54" d="M 2850 3925 
L 1850 3925 
L 1850 125 
L 1275 125 
L 1275 3925 
L 275 3925 
L 275 4400 
L 2850 4400 
L 2850 3925 
z
" transform="scale(0.015625)"/>
       <path id="SimHei-61" d="M 2875 125 
L 2275 125 
Q 2225 175 2200 262 
Q 2175 350 2175 475 
Q 2000 275 1750 175 
Q 1500 75 1225 75 
Q 825 75 550 275 
Q 275 475 275 850 
Q 275 1225 525 1450 
Q 775 1675 1300 1750 
Q 1650 1800 1912 1875 
Q 2175 1950 2175 2075 
Q 2175 2225 2062 2375 
Q 1950 2525 1575 2525 
Q 1275 2525 1137 2412 
Q 1000 2300 950 2100 
L 400 2100 
Q 450 2500 762 2737 
Q 1075 2975 1575 2975 
Q 2125 2975 2400 2725 
Q 2675 2475 2675 2025 
L 2675 650 
Q 2675 500 2725 375 
Q 2775 250 2875 125 
z
M 2175 1050 
L 2175 1550 
Q 2025 1500 1887 1462 
Q 1750 1425 1425 1375 
Q 1050 1325 937 1200 
Q 825 1075 825 900 
Q 825 750 937 637 
Q 1050 525 1275 525 
Q 1500 525 1762 650 
Q 2025 775 2175 1050 
z
" transform="scale(0.015625)"/>
       <path id="SimHei-6e" d="M 2800 125 
L 2300 125 
L 2300 1925 
Q 2300 2225 2150 2400 
Q 2000 2575 1750 2575 
Q 1425 2575 1137 2237 
Q 850 1900 850 1400 
L 850 125 
L 350 125 
L 350 2925 
L 850 2925 
L 850 2400 
Q 1050 2675 1287 2825 
Q 1525 2975 1900 2975 
Q 2350 2975 2575 2725 
Q 2800 2475 2800 2100 
L 2800 125 
z
" transform="scale(0.015625)"/>
      </defs>
      <use xlink:href="#SimHei-53"/>
      <use xlink:href="#SimHei-74" x="50"/>
      <use xlink:href="#SimHei-6f" x="100"/>
      <use xlink:href="#SimHei-63" x="150"/>
      <use xlink:href="#SimHei-6b" x="200"/>
      <use xlink:href="#SimHei-20" x="250"/>
      <use xlink:href="#SimHei-50" x="300"/>
      <use xlink:href="#SimHei-6f" x="350"/>
      <use xlink:href="#SimHei-72" x="400"/>
      <use xlink:href="#SimHei-74" x="450"/>
      <use xlink:href="#SimHei-66" x="500"/>
      <use xlink:href="#SimHei-6f" x="550"/>
      <use xlink:href="#SimHei-6c" x="600"/>
      <use xlink:href="#SimHei-69" x="650"/>
      <use xlink:href="#SimHei-6f" x="700"/>
      <use xlink:href="#SimHei-20" x="750"/>
      <use xlink:href="#SimHei-54" x="800"/>
      <use xlink:href="#SimHei-72" x="850"/>
      <use xlink:href="#SimHei-61" x="900"/>
      <use xlink:href="#SimHei-6e" x="950"/>
      <use xlink:href="#SimHei-73" x="1000"/>
      <use xlink:href="#SimHei-61" x="1050"/>
      <use xlink:href="#SimHei-63" x="1100"/>
      <use xlink:href="#SimHei-74" x="1150"/>
      <use xlink:href="#SimHei-69" x="1200"/>
      <use xlink:href="#SimHei-6f" x="1250"/>
      <use xlink:href="#SimHei-6e" x="1300"/>
      <use xlink:href="#SimHei-20" x="1350"/>
      <use xlink:href="#SimHei-43" x="1400"/>
      <use xlink:href="#SimHei-6f" x="1450"/>
      <use xlink:href="#SimHei-73" x="1500"/>
      <use xlink:href="#SimHei-74" x="1550"/>
      <use xlink:href="#SimHei-73" x="1600"/>
     </g>
    </g>
   </g>
   <g id="line2d_48">
    <path d="M 486.933962 245.34 
L 488.572591 18.54 
L 490.21122 232.503337 
L 491.849849 239.18826 
L 493.488478 239.399236 
L 498.404365 241.936459 
L 500.042994 240.953088 
L 501.681623 241.761062 
L 503.320252 241.602562 
L 504.958881 242.28825 
L 509.874768 242.780602 
L 511.513397 239.179294 
L 513.152026 242.683248 
L 514.790655 242.09154 
L 516.429284 242.050826 
L 521.345171 242.635652 
L 522.9838 242.501897 
L 524.622429 240.358551 
L 526.261058 241.624046 
L 527.899687 242.567077 
L 532.815574 240.606165 
L 534.454203 241.990347 
L 536.092832 241.865078 
L 537.731461 242.534799 
L 539.37009 243.388089 
L 544.285978 242.435519 
L 545.924607 243.285651 
L 547.563236 242.328681 
L 549.201865 241.973345 
L 555.756381 242.25976 
L 557.39501 241.858516 
L 559.033639 243.063389 
L 560.672268 243.011771 
L 562.310897 239.094383 
L 567.226784 240.77798 
L 568.865413 241.840498 
L 570.504042 239.932324 
L 572.142671 241.635028 
L 590.16759 237.535808 
L 591.806219 240.88422 
L 593.444848 242.453776 
L 595.083477 242.823742 
L 596.722106 242.457584 
L 601.637993 242.917869 
L 603.276622 240.354857 
L 604.915251 242.571607 
L 606.55388 235.744914 
L 608.192509 235.464391 
L 614.747026 243.45488 
L 616.385655 241.192801 
L 618.024284 243.820013 
L 619.662913 241.827876 
L 624.5788 242.498442 
L 626.217429 242.938154 
L 627.856058 242.677864 
L 629.494687 243.923859 
L 631.133316 242.053347 
L 636.049203 242.351322 
L 637.687832 240.354536 
L 639.326461 241.680661 
L 640.96509 243.383905 
L 642.603719 240.89817 
L 647.519606 242.543982 
L 649.158235 242.650078 
L 650.796864 242.885544 
L 652.435493 238.815556 
L 654.074122 237.608519 
L 658.990009 238.723024 
L 660.628638 237.725849 
L 662.267267 239.442669 
L 663.905896 241.59713 
L 665.544525 241.56902 
L 670.460412 239.466306 
L 672.099041 239.284064 
L 673.73767 240.382355 
L 675.376299 241.637476 
L 677.014928 242.12476 
L 681.930815 242.23854 
L 683.569444 242.516877 
L 685.208073 241.334313 
L 686.846702 244.313785 
L 688.485331 239.917296 
L 693.401219 240.582265 
L 695.039848 242.940547 
L 696.678477 238.801732 
L 698.317106 237.579546 
L 699.955735 240.929161 
L 704.871622 240.067244 
L 706.510251 240.39679 
L 708.14888 242.606073 
L 709.787509 243.841897 
L 711.426138 242.659557 
L 716.342025 239.449135 
L 717.980654 239.5897 
L 719.619283 237.144745 
L 721.257912 241.941917 
L 722.896541 239.57455 
L 729.451057 242.264984 
L 731.089686 239.092468 
L 732.728315 233.699622 
L 739.282831 241.4116 
L 740.92146 241.419601 
L 742.560089 243.489639 
L 744.198718 241.146193 
L 745.837347 241.428207 
L 750.753234 237.887254 
L 752.391863 242.734427 
L 754.030492 239.781331 
L 755.669121 241.010208 
L 757.30775 241.300955 
L 762.223637 241.290288 
L 763.862267 238.397583 
L 765.500896 240.585149 
L 767.139525 236.58836 
L 768.778154 239.060512 
L 773.694041 242.838775 
L 775.33267 237.774124 
L 776.971299 241.736138 
L 778.609928 241.332214 
L 785.164444 232.924945 
L 786.803073 238.692063 
L 788.441702 243.487708 
L 790.080331 241.110056 
L 808.10525 240.721565 
L 809.743879 241.500257 
L 809.743879 241.500257 
" clip-path="url(#p33ca6f4888)" style="fill: none; stroke: #1f77b4; stroke-width: 1.5; stroke-linecap: square"/>
   </g>
   <g id="patch_9">
    <path d="M 470.793466 256.68 
L 470.793466 7.2 
" style="fill: none; stroke: #000000; stroke-width: 0.8; stroke-linejoin: miter; stroke-linecap: square"/>
   </g>
   <g id="patch_10">
    <path d="M 825.884375 256.68 
L 825.884375 7.2 
" style="fill: none; stroke: #000000; stroke-width: 0.8; stroke-linejoin: miter; stroke-linecap: square"/>
   </g>
   <g id="patch_11">
    <path d="M 470.793466 256.68 
L 825.884375 256.68 
" style="fill: none; stroke: #000000; stroke-width: 0.8; stroke-linejoin: miter; stroke-linecap: square"/>
   </g>
   <g id="patch_12">
    <path d="M 470.793466 7.2 
L 825.884375 7.2 
" style="fill: none; stroke: #000000; stroke-width: 0.8; stroke-linejoin: miter; stroke-linecap: square"/>
   </g>
  </g>
 </g>
 <defs>
  <clipPath id="pf14366df50">
   <rect x="44.684375" y="7.2" width="355.090909" height="249.48"/>
  </clipPath>
  <clipPath id="p33ca6f4888">
   <rect x="470.793466" y="7.2" width="355.090909" height="249.48"/>
  </clipPath>
 </defs>
</svg>
